<svg  viewBox="0 0 340 333" fill="none" xmlns="http://www.w3.org/2000/svg">
<path d="M149.491 332.038C149.329 332.038 149.167 331.93 149.113 331.748C149.04 331.531 149.167 331.295 149.383 331.222C212.579 312.288 251.59 281.745 252.781 263.137C253.141 257.533 250.111 253.216 243.763 250.368H171.404C180.08 253.833 184.065 257.351 183.56 261.069C181.685 275.143 112.356 286.08 53.5426 291.14C53.3262 291.158 53.1278 290.995 53.1098 290.777C53.0917 290.541 53.254 290.342 53.4885 290.324C86.9443 287.44 118.001 283.196 140.961 278.39C174.507 271.353 182.208 265.023 182.749 260.96C183.218 257.442 178.601 253.869 169.042 250.332C168.861 250.278 168.753 250.078 168.789 249.879C168.825 249.679 168.988 249.534 169.186 249.534H243.835C243.895 249.534 243.955 249.546 244.015 249.57C250.67 252.545 253.971 257.26 253.592 263.191C252.979 272.931 242.428 285.554 224.645 297.832C205.347 311.163 178.691 323.315 149.618 332.02C149.582 332.032 149.539 332.038 149.491 332.038Z" fill="#0C0C0C"/>
<path d="M153.062 218.829C156.056 214.93 136.344 207.947 136.614 194.235C136.849 181.721 153.477 178.511 152.99 167.048C152.467 154.77 133.169 152.376 133.169 139.861C133.151 130.231 144.622 128.78 145.542 118.46C146.66 106.072 130.464 104.422 125.198 88.0626C120.274 72.7914 131.582 65.4461 123.34 53.3488C122.258 51.7709 115.567 42.376 106.062 42.2309C90.6236 42.0133 70.6763 66.3529 73.6161 87.4278C76.087 105.166 92.9321 107.306 93.9241 126.168C94.7537 142.128 82.8683 144.813 86.7459 157.2C91.3089 171.855 109.489 173.015 113.222 189.538C115.188 198.207 110.823 200.62 114.394 206.732C121.969 219.663 149.762 223.127 153.062 218.829Z" fill="#FFFEFE"/>
<path fill-rule="evenodd" clip-rule="evenodd" d="M145.975 220.987C145.241 220.987 144.46 220.963 143.63 220.915C134.703 220.353 119.445 216.163 114.052 206.949C112.05 203.522 112.429 201.182 112.898 198.461C113.277 196.158 113.709 193.564 112.826 189.629C110.896 181.104 104.962 176.679 99.2089 172.381C93.9786 168.463 88.568 164.419 86.3496 157.327C84.3116 150.798 86.4939 146.971 89.0189 142.509C91.3094 138.447 93.9065 133.858 93.5097 126.186C93.0047 116.519 88.3515 111.423 83.4459 106.018C78.9911 101.157 74.4101 96.1154 73.2017 87.4823C71.6868 76.6365 76.2317 63.6687 85.033 53.6391C91.5979 46.1486 99.4794 41.7232 106.08 41.8139C115.585 41.959 122.403 51.2631 123.665 53.1131C128.174 59.733 126.966 65.0471 125.667 70.6695C124.513 75.7115 123.322 80.9168 125.577 87.9357C128.102 95.7527 133.134 100.16 137.588 104.059C142.404 108.267 146.552 111.894 145.957 118.496C145.47 123.774 142.35 126.767 139.338 129.669C136.38 132.498 133.566 135.2 133.566 139.861C133.585 145.992 138.31 149.565 143.324 153.355C148.139 157.001 153.135 160.773 153.406 167.03C153.658 172.907 149.492 176.752 145.452 180.47C141.376 184.224 137.137 188.123 137.029 194.254C136.867 202.216 143.684 207.893 148.662 212.028C152.251 215.02 154.83 217.179 153.387 219.065C152.432 220.316 149.798 220.987 145.975 220.987ZM105.864 42.6482C99.5335 42.6482 91.9947 46.9466 85.6462 54.1832C76.9892 64.0496 72.5344 76.7635 74.0133 87.3735C75.1856 95.7527 79.6945 100.686 84.0411 105.456C88.8385 110.734 93.8163 116.175 94.3393 126.132C94.7541 134.058 92.0849 138.773 89.7222 142.927C87.3055 147.207 85.1953 150.907 87.1251 157.073C89.2714 163.911 94.3393 167.701 99.6959 171.71C105.575 176.099 111.635 180.633 113.619 189.447C114.557 193.528 114.106 196.231 113.709 198.607C113.259 201.254 112.898 203.358 114.755 206.532C119.986 215.474 134.919 219.536 143.684 220.08C148.32 220.371 151.8 219.79 152.738 218.575C153.712 217.306 151.241 215.256 148.139 212.663C143.035 208.419 136.037 202.597 136.2 194.236C136.326 187.743 140.691 183.734 144.893 179.853C148.969 176.099 152.81 172.562 152.576 167.067C152.341 161.19 147.724 157.708 142.819 154.008C137.877 150.272 132.755 146.409 132.755 139.861C132.755 134.838 135.803 131.899 138.779 129.07C141.682 126.277 144.694 123.393 145.127 118.424C145.686 112.239 141.881 108.902 137.047 104.676C132.52 100.722 127.38 96.2243 124.801 88.1897C122.475 80.9712 123.755 75.4032 124.873 70.4882C126.172 64.8113 127.29 59.8963 122.998 53.5847C121.771 51.7891 115.17 42.7751 106.062 42.6482C106.002 42.6482 105.936 42.6482 105.864 42.6482Z" fill="#0C0C0C"/>
<path d="M146.786 216.653C146.75 216.653 146.714 216.647 146.678 216.635C134.721 213.007 127.182 207.875 124.26 201.4C122.024 196.485 123.286 192.513 124.621 188.305C125.955 184.097 127.344 179.763 125.378 173.959C123.286 167.811 119.517 165.054 115.892 162.388C112.357 159.794 109.02 157.327 107.523 152.068C105.413 144.614 109.363 139.336 113.168 134.221C116.829 129.288 120.635 124.192 119.174 117.046C118.002 111.26 114.16 107.887 110.084 104.332C105.683 100.45 100.688 96.0614 98.343 87.8998C96.6116 81.824 96.792 75.3129 98.8841 68.566C98.9562 68.3483 99.1727 68.2214 99.3891 68.2939C99.6055 68.3665 99.7318 68.6023 99.6596 68.8199C97.6216 75.4036 97.4413 81.7514 99.1366 87.664C101.409 95.6079 106.098 99.725 110.625 103.697C114.809 107.361 118.741 110.825 119.986 116.864C121.519 124.391 117.605 129.633 113.817 134.711C109.958 139.898 106.315 144.795 108.317 151.85C109.723 156.838 112.952 159.214 116.379 161.717C120.112 164.473 123.971 167.303 126.154 173.687C128.21 179.745 126.785 184.224 125.414 188.559C124.116 192.604 122.907 196.43 124.999 201.055C127.831 207.312 135.19 212.282 146.913 215.855C147.129 215.909 147.255 216.145 147.183 216.363C147.129 216.544 146.967 216.653 146.786 216.653Z" fill="#0C0C0C"/>
<path d="M158.526 248.373C159.77 245.562 143.917 241.391 130.589 221.694C122.527 209.76 119.425 198.116 116.611 187.18C109.632 160.138 115.367 154.842 107.972 142.255C99.0989 127.147 87.8989 132.951 75.274 117.389C59.6914 98.2006 71.3423 82.7481 55.3809 65.4637C46.6517 56.0145 31.1593 47.6171 17.5245 51.9337C9.28225 54.5272 0.661287 62.1266 0.444861 70.3969C0.228435 78.3771 7.98369 81.0432 14.0616 90.7464C24.901 108.103 11.9695 118.496 18.8771 136.07C28.2556 159.92 57.7075 155.114 70.2963 183.552C75.3642 194.997 71.0177 196.738 75.5085 207.656C90.6763 244.565 156.055 253.887 158.526 248.373Z" fill="#FFFEFE"/>
<path fill-rule="evenodd" clip-rule="evenodd" d="M152.16 250.241C151.955 250.241 151.751 250.241 151.547 250.241C142.403 250.114 126.423 246.995 111.382 240.339C98.6125 234.698 81.9838 224.487 75.1303 207.819C72.93 202.451 72.8218 199.241 72.7135 196.121C72.6053 192.73 72.5151 189.537 69.918 183.716C63.4613 169.134 52.622 163.42 42.1254 157.889C32.3321 152.738 23.0799 147.877 18.4989 136.215C15.2886 128.072 16.2986 121.452 17.2725 115.031C18.4268 107.432 19.5089 100.25 13.7195 90.9639C11.3388 87.1733 8.70564 84.471 6.3971 82.095C2.77196 78.3407 -0.113709 75.3844 0.030575 70.3787C0.265036 61.9451 9.04831 54.1825 17.3987 51.5345C31.0516 47.218 46.8146 55.579 55.6881 65.1916C63.8401 74.0242 64.8501 82.2401 65.9142 90.9458C66.9242 99.198 67.9702 107.74 75.5992 117.135C81.6772 124.626 87.3042 127.056 92.7329 129.414C98.378 131.862 103.698 134.166 108.316 142.037C112.265 148.748 112.518 153.318 112.915 160.265C113.275 166.504 113.708 174.303 117.009 187.089C119.696 197.518 122.744 209.343 130.932 221.458C139.337 233.882 148.661 240.03 154.216 243.712C157.625 245.961 159.5 247.194 158.887 248.536C158.274 249.933 155.009 250.241 152.16 250.241ZM25.1901 51.1899C22.6471 51.1899 20.1041 51.5527 17.6512 52.3144C9.57134 54.8717 1.07663 62.3441 0.860208 70.3968C0.715924 75.058 3.49339 77.9054 6.97423 81.5147C9.33688 83.9269 11.9881 86.6655 14.4048 90.5287C20.3746 100.069 19.2564 107.396 18.0841 115.158C17.1282 121.47 16.1363 127.981 19.2564 135.925C23.7292 147.279 32.8551 152.085 42.5041 157.163C53.127 162.749 64.0926 168.535 70.6755 183.371C73.3267 189.356 73.435 192.784 73.5432 196.085C73.6334 199.132 73.7416 202.288 75.8878 207.511C87.665 236.149 131.69 249.117 151.565 249.425C155.983 249.498 157.859 248.827 158.148 248.192C158.454 247.503 156.38 246.124 153.765 244.401C148.156 240.683 138.759 234.48 130.265 221.93C121.986 209.687 118.92 197.79 116.215 187.288C112.897 174.429 112.446 166.594 112.103 160.301C111.706 153.5 111.454 148.984 107.612 142.454C103.121 134.819 98.1616 132.66 92.4083 130.176C87.1419 127.89 81.1541 125.297 74.9499 117.661C67.1767 108.085 66.1306 99.4157 65.1026 91.0546C64.0565 82.4759 63.0646 74.3869 55.0748 65.7357C47.9869 58.0638 36.4262 51.1899 25.1901 51.1899Z" fill="#0C0C0C"/>
<path d="M147.128 247.122C147.068 247.122 147.014 247.11 146.966 247.086C123.393 237.364 108.622 224.578 103.067 209.053C100.452 201.762 100.164 194.87 99.8752 188.195C99.4423 178.238 99.0455 168.843 90.9837 159.34C85.3025 152.629 79.3688 149.981 73.6155 147.424C67.1949 144.558 61.1169 141.838 56.9507 133.622C54.047 127.909 53.9929 123.32 53.9388 118.006C53.8667 112.783 53.8126 106.852 51.1794 98.1462C48.5823 89.5312 44.398 81.3153 38.7349 73.7522C38.6086 73.5709 38.6447 73.3169 38.8251 73.1718C39.0054 73.0449 39.2579 73.0812 39.4022 73.2625C45.1014 80.8981 49.3398 89.2048 51.9549 97.9104C54.6241 106.725 54.6963 112.71 54.7504 118.006C54.8225 123.429 54.8586 127.709 57.6721 133.259C61.7121 141.203 67.3752 143.742 73.9401 146.662C79.5131 149.147 85.8075 151.958 91.6149 158.796C99.8571 168.517 100.254 178.057 100.687 188.159C100.975 194.779 101.264 201.599 103.825 208.781C109.308 224.07 123.916 236.693 147.272 246.324C147.489 246.415 147.579 246.65 147.507 246.85C147.435 247.013 147.272 247.122 147.128 247.122Z" fill="#0C0C0C"/>
<path d="M300.123 95.2259L207.186 1.76697C206.501 1.09591 205.401 1.09591 204.733 1.76697L110.913 96.1146C110.552 96.4773 110.805 97.094 111.31 97.094H131.672V249.788H280.248V97.094H299.348C300.321 97.094 300.808 95.9151 300.123 95.2259Z" fill="#FFFEFE"/>
<path d="M131.671 97.2208L205.959 22.5153L280.247 97.2208V97.0938H290.996L205.959 11.5244L120.85 97.0938H131.671V97.2208Z" fill="#FFFEFE"/>
<path fill-rule="evenodd" clip-rule="evenodd" d="M280.248 97.6381C280.139 97.6381 280.031 97.6018 279.959 97.5293L205.959 23.0958L131.96 97.5293C131.834 97.6381 131.671 97.6744 131.509 97.6018C131.449 97.5776 131.401 97.5474 131.365 97.5111H120.85C120.688 97.5111 120.525 97.4023 120.471 97.2572C120.399 97.094 120.435 96.9126 120.562 96.8038L205.671 11.2162C205.743 11.1437 205.851 11.1074 205.959 11.1074C206.068 11.1074 206.176 11.1437 206.248 11.2162L291.285 96.8038C291.394 96.9126 291.43 97.094 291.376 97.2572C291.303 97.4023 291.159 97.5111 290.997 97.5111H280.554C280.518 97.5474 280.47 97.5776 280.41 97.6018C280.35 97.626 280.296 97.6381 280.248 97.6381ZM280.284 96.6768H290.005L205.959 12.1049L121.842 96.6768H131.635L205.671 22.2253C205.833 22.062 206.086 22.062 206.248 22.2253L280.284 96.6768Z" fill="#0C0C0C"/>
<path fill-rule="evenodd" clip-rule="evenodd" d="M280.248 250.205H131.672C131.437 250.205 131.257 250.024 131.257 249.788V97.5112H109.939C109.776 97.5112 109.632 97.4024 109.56 97.2573C109.506 97.0941 109.542 96.9127 109.65 96.8039L205.671 0.243586C205.815 0.098492 206.086 0.098492 206.248 0.243586L302.251 96.8039C302.377 96.9127 302.413 97.0941 302.341 97.2573C302.287 97.4024 302.125 97.5112 301.962 97.5112H280.663V249.788C280.663 250.024 280.482 250.205 280.248 250.205ZM132.068 249.389H279.833V97.0941C279.833 96.8583 280.013 96.6769 280.248 96.6769H300.971L205.96 1.13229L110.931 96.6769H131.672C131.888 96.6769 132.068 96.8583 132.068 97.0941V249.389Z" fill="#0C0C0C"/>
<path fill-rule="evenodd" clip-rule="evenodd" d="M229.749 250.368H167.96C167.725 250.368 167.545 250.187 167.545 249.951V157.109C167.545 147.116 175.625 138.99 185.562 138.99H212.129C222.066 138.99 230.164 147.116 230.164 157.109V249.951C230.164 250.187 229.984 250.368 229.749 250.368ZM168.375 249.534H229.334V157.109C229.334 147.569 221.615 139.806 212.129 139.806H185.562C176.076 139.806 168.375 147.569 168.375 157.109V249.534Z" fill="#0C0C0C"/>
<path fill-rule="evenodd" clip-rule="evenodd" d="M243.835 250.368H167.545C167.328 250.368 167.13 250.187 167.13 249.951V157.109C167.13 147.116 175.228 138.99 185.165 138.99H226.232C236.17 138.99 244.25 147.116 244.25 157.109V249.951C244.25 250.187 244.069 250.368 243.835 250.368ZM167.96 249.534H243.438V157.109C243.438 147.569 235.719 139.806 226.232 139.806H185.165C175.679 139.806 167.96 147.569 167.96 157.109V249.534Z" fill="#0C0C0C"/>
<path d="M232.293 83.4372C232.293 98.0736 220.498 109.917 205.962 109.917C191.425 109.917 179.63 98.0736 179.63 83.4372C179.63 68.8189 191.425 56.9756 205.962 56.9756C220.498 56.9756 232.293 68.8189 232.293 83.4372Z" fill="#FFFEFE"/>
<path fill-rule="evenodd" clip-rule="evenodd" d="M205.961 110.334C191.208 110.334 179.215 98.2732 179.215 83.4373C179.215 68.6196 191.208 56.5586 205.961 56.5586C220.696 56.5586 232.69 68.6196 232.69 83.4373C232.69 98.2732 220.696 110.334 205.961 110.334ZM205.961 57.3747C191.659 57.3747 180.044 69.073 180.044 83.4373C180.044 97.8198 191.659 109.518 205.961 109.518C220.246 109.518 231.878 97.8198 231.878 83.4373C231.878 69.073 220.246 57.3747 205.961 57.3747Z" fill="#0C0C0C"/>
<path d="M194.202 92.3242C194.202 92.3242 193.534 83.5098 205.799 83.5098C216.746 83.5098 216.656 90.7826 216.656 92.9409C216.656 98.4363 211.281 99.7241 205.456 94.3737C205.456 94.3737 194.184 102.481 194.202 92.3242Z" fill="#0C0C0C"/>
<path d="M204.373 73.7706C205.131 77.1803 203.941 79.4837 202.173 79.8827C200.297 80.2999 198.259 78.2323 197.61 75.2578C196.961 72.3015 197.953 69.5629 199.828 69.1639C201.686 68.7467 203.742 70.8143 204.373 73.7706Z" fill="#0C0C0C"/>
<path d="M207.15 73.7706C206.501 76.7269 207.493 79.4656 209.368 79.8827C211.334 80.318 213.192 78.6857 213.931 75.2578C214.581 72.3015 213.589 69.5629 211.713 69.1639C209.837 68.7467 207.799 70.8143 207.15 73.7706Z" fill="#0C0C0C"/>
<path d="M215.664 79.2116C214.564 81.6419 214.925 84.3624 216.458 85.0516C218.009 85.759 220.137 84.1811 221.237 81.7507C222.319 79.3204 221.977 76.7813 220.425 76.0739C218.892 75.3666 216.764 76.7813 215.664 79.2116Z" fill="#0C0C0C"/>
<path d="M196.258 79.2116C197.34 81.6419 196.979 84.1811 195.446 84.8703C193.913 85.5776 191.785 84.1811 190.685 81.7507C189.584 79.3204 189.945 76.7813 191.478 76.0739C193.011 75.3666 195.157 76.7813 196.258 79.2116Z" fill="#0C0C0C"/>
<path d="M110.949 95.897L205.095 1.31363C205.582 0.842072 206.339 0.842072 206.808 1.31363L300.935 96.0059C301.314 96.3867 301.043 97.0578 300.502 97.0578L290.998 97.0941L205.96 11.5246L120.851 96.9127H111.364C110.841 96.9127 110.589 96.2779 110.949 95.897Z" fill="#0C0C0C"/>
<path d="M246.18 166.939C246.18 189.918 283.243 259.037 283.243 259.037C283.243 259.037 292.369 259.037 293.09 259.037C293.793 259.037 294.497 258.711 294.948 258.04C301.188 248.808 321.586 217.867 332.66 192.602C337.06 182.591 340 173.468 340 166.939C340 140.822 318.989 119.656 293.09 119.656C292.08 119.656 285.768 119.602 285.768 119.602C285.768 119.602 246.18 141.837 246.18 166.939Z" fill="#0C0C0C"/>
<path d="M236.262 166.811C236.262 189.881 272.838 245.344 281.603 258.293C282.487 259.635 284.434 259.617 285.336 258.293C291.613 249.007 312.137 217.957 323.301 192.584C327.72 182.518 330.677 173.359 330.677 166.811C330.677 140.585 309.54 119.329 283.461 119.329C257.399 119.329 236.262 140.585 236.262 166.811Z" fill="#FFFEFE"/>
<path fill-rule="evenodd" clip-rule="evenodd" d="M283.46 259.708C282.577 259.708 281.747 259.273 281.26 258.529C270.601 242.786 235.847 189.609 235.847 166.811C235.847 140.404 257.201 118.912 283.46 118.912C309.72 118.912 331.074 140.404 331.074 166.811C331.074 172.851 328.585 181.575 323.661 192.747C312.479 218.193 291.757 249.533 285.679 258.529C285.174 259.273 284.344 259.708 283.46 259.708ZM283.46 119.746C257.652 119.746 236.676 140.858 236.676 166.811C236.676 189.954 274.37 246.885 281.927 258.058C282.288 258.584 282.847 258.874 283.46 258.874C284.092 258.874 284.651 258.584 284.993 258.058C291.071 249.08 311.758 217.812 322.922 192.421C327.792 181.339 330.262 172.724 330.262 166.811C330.262 140.858 309.269 119.746 283.46 119.746Z" fill="#0C0C0C"/>
<path d="M310.062 166.267C310.062 181.484 297.78 193.817 282.648 193.817C267.517 193.817 255.234 181.484 255.234 166.267C255.234 151.032 267.517 138.699 282.648 138.699C297.78 138.699 310.062 151.032 310.062 166.267Z" fill="#FFFEFE"/>
<path fill-rule="evenodd" clip-rule="evenodd" d="M282.648 194.234C267.317 194.234 254.837 181.684 254.837 166.267C254.837 150.833 267.317 138.282 282.648 138.282C297.978 138.282 310.458 150.833 310.458 166.267C310.458 181.684 297.978 194.234 282.648 194.234ZM282.648 139.117C267.768 139.117 255.649 151.286 255.649 166.267C255.649 181.23 267.768 193.4 282.648 193.4C297.527 193.4 309.647 181.23 309.647 166.267C309.647 151.286 297.527 139.117 282.648 139.117Z" fill="#0C0C0C"/>
<path d="M281.879 179.011L301.155 156.43C301.971 155.479 302.018 154.101 301.251 153.055C300.292 151.819 298.47 151.629 297.271 152.627L278.858 168.172C278.522 168.505 277.947 168.505 277.611 168.172L268.692 162.563C267.349 161.754 265.671 161.945 264.568 163.038C263.321 164.226 263.273 166.223 264.424 167.507L274.734 179.058C276.652 181.197 280.009 181.15 281.879 179.011Z" fill="#C1121F"/>
<path d="M81.9845 95.8612C84.0405 95.7524 86.4573 96.2965 91.2908 97.4028C95.6373 98.4004 96.8457 99.0714 97.3868 100.214C98.2525 102.082 96.9539 104.404 96.5572 105.093C94.3388 109.01 90.2628 109.536 87.5755 111.314C78.8824 117.118 83.3191 126.966 76.1049 133.132C69.2514 139.009 62.8308 132.099 50.4945 137.703C40.7734 142.11 41.6752 147.769 33.7576 150.272C24.0906 153.319 8.92277 149.22 2.77267 136.977C-3.07082 125.334 0.969126 109.79 8.86866 105.818C16.0468 102.209 21.5837 110.171 31.1785 106.435C40.6291 102.753 41.3686 92.5422 48.7451 92.6691C50.5126 92.7054 50.1338 93.2858 61.7487 97.5117C67.1233 99.4704 67.7725 99.543 68.3677 99.5793C74.1391 99.9783 75.3474 96.224 81.9845 95.8612Z" fill="#0C0C0C"/>
<path d="M102.743 155.64C106.873 181.104 107.36 181.467 107.919 184.133C107.919 184.133 109.561 191.642 110.012 198.86C110.408 205.117 109.236 242.751 89.884 251.04C82.9043 254.032 80.8843 248.519 66.005 249.117C50.7651 249.734 47.681 255.193 41.0259 253.27C26.6336 249.135 21.9444 218.085 22.7379 198.896C23.3872 183.281 31.1064 168.517 46.5808 139.009C48.9435 134.511 53.1097 126.131 59.1696 125.261C61.9651 124.862 63.8227 125.606 75.0047 128.707C87.1606 132.062 89.1085 129.668 94.3388 132.987C99.7314 136.397 100.669 142.908 102.743 155.64Z" fill="#FFFEFE"/>
<path fill-rule="evenodd" clip-rule="evenodd" d="M43.8027 254.086C42.8829 254.086 41.9451 253.978 40.9171 253.669C32.6388 251.293 28.1299 240.484 25.7853 231.851C23.1701 222.111 21.8716 209.778 22.3225 198.878C22.9718 183.172 30.745 168.354 46.2195 138.809L46.49 138.301C48.9428 133.604 53.0549 125.714 59.1148 124.844C61.5136 124.499 63.1909 124.971 70.2427 126.947C71.6315 127.328 73.2366 127.782 75.1123 128.308C80.8296 129.886 84.3104 130.194 86.8534 130.412C89.7752 130.666 91.705 130.847 94.5546 132.642C99.9832 136.088 100.993 142.327 103.013 154.787L103.157 155.585C106.584 176.769 107.486 180.524 108.027 182.773C108.135 183.226 108.225 183.607 108.316 184.06C108.334 184.133 109.975 191.66 110.426 198.824C110.642 202.487 110.3 213.533 107.757 224.288C104.384 238.525 98.2518 247.902 90.0457 251.42C86.4025 252.98 84.0218 252.291 80.7214 251.348C77.4389 250.405 73.3448 249.244 66.0224 249.534C58.2852 249.842 53.7944 251.384 50.1873 252.617C47.8066 253.434 45.8768 254.086 43.8027 254.086ZM60.4855 125.569C60.0527 125.569 59.6559 125.605 59.2411 125.66C53.596 126.476 49.5921 134.112 47.2114 138.682L46.9409 139.208C31.5206 168.626 23.7833 183.389 23.1521 198.914C22.3225 218.937 27.3544 248.917 41.1515 252.889C44.2716 253.778 46.5081 253.016 49.9168 251.837C53.3796 250.659 58.1409 249.026 66.0044 248.718C73.4531 248.41 77.7816 249.661 80.9558 250.568C84.2022 251.493 86.3484 252.11 89.7391 250.659C99.7849 246.342 104.636 233.828 106.945 224.088C109.488 213.424 109.831 202.505 109.596 198.878C109.145 191.768 107.522 184.296 107.522 184.223C107.414 183.788 107.324 183.407 107.233 182.954C106.692 180.705 105.791 176.933 102.346 155.712L102.202 154.914C100.236 142.708 99.2438 136.578 94.1037 133.332C91.4344 131.645 89.685 131.482 86.7813 131.228C84.2022 131.01 80.6672 130.702 74.8959 129.088C73.0202 128.58 71.415 128.126 70.0083 127.745C64.4173 126.168 62.2711 125.569 60.4855 125.569Z" fill="#0C0C0C"/>
<path d="M80.5421 303.02V315.334L74.6625 314.972L73.4902 303.02H80.5421Z" fill="#FFFEFE"/>
<path fill-rule="evenodd" clip-rule="evenodd" d="M80.541 315.752C80.541 315.752 80.535 315.752 80.523 315.752L74.6254 315.389C74.427 315.371 74.2647 315.208 74.2467 315.008L73.0924 303.056C73.0744 302.947 73.1104 302.838 73.2006 302.748C73.2728 302.657 73.381 302.603 73.4892 302.603H80.541C80.7755 302.603 80.9559 302.802 80.9559 303.02V315.335C80.9559 315.443 80.9018 315.552 80.8296 315.625C80.7575 315.697 80.6493 315.752 80.541 315.752ZM75.0222 314.573L80.1443 314.899V303.437H73.9581L75.0222 314.573Z" fill="#0C0C0C"/>
<path d="M73.7765 330.679C76.1752 330.932 80.0889 331.114 84.6699 330.316C86.1668 330.062 87.1227 328.557 86.7079 327.087C85.5536 322.97 83.2992 315.335 81.4956 311.671L80.3955 313.666L79.3494 311.635C79.2051 311.399 78.9346 310.801 78.3394 310.855L76.5719 310.909C76.103 310.855 75.7243 311.29 75.4537 311.798L74.3897 313.811L73.1091 311.454L71.504 327.867C71.3777 329.264 72.3697 330.533 73.7765 330.679Z" fill="#FFFEFE"/>
<path fill-rule="evenodd" clip-rule="evenodd" d="M77.8711 331.313C76.2479 331.313 74.8411 331.204 73.7229 331.095C72.1178 330.914 70.9455 329.445 71.1078 327.831L72.7129 311.399C72.731 311.217 72.8572 311.072 73.0376 311.036C73.1999 311 73.3803 311.09 73.4704 311.254L74.3902 312.94L75.0936 311.598C75.6167 310.637 76.1938 310.474 76.5906 310.492L78.34 310.456C79.0975 310.383 79.4943 311.054 79.6566 311.362L79.7107 311.435L80.4141 312.795L81.1355 311.471C81.2077 311.344 81.3519 311.254 81.4962 311.254C81.6585 311.254 81.7848 311.344 81.8569 311.489C83.7687 315.353 86.1674 323.605 87.1053 326.96C87.3217 327.776 87.1954 328.647 86.7445 329.372C86.3117 330.08 85.5722 330.569 84.7426 330.714C82.1996 331.15 79.873 331.313 77.8711 331.313ZM73.3983 312.832L71.9194 327.903C71.7931 329.082 72.6588 330.152 73.8131 330.261C76.2659 330.533 80.1075 330.678 84.5983 329.898C85.1935 329.808 85.7346 329.445 86.0592 328.919C86.3838 328.411 86.474 327.794 86.3117 327.196C85.428 324.04 83.2817 316.622 81.4601 312.578L80.7568 313.865C80.6846 313.992 80.5584 314.083 80.3961 314.083C80.2518 314.083 80.1075 313.992 80.0353 313.847L78.9532 311.761C78.7548 311.435 78.6105 311.254 78.3761 311.272L76.5906 311.326C76.5785 311.326 76.5605 311.32 76.5365 311.308C76.2299 311.29 75.9413 311.78 75.815 311.997L74.751 313.992C74.6788 314.137 74.5345 314.21 74.3902 314.21C74.246 314.21 74.1017 314.137 74.0295 314.01L73.3983 312.832Z" fill="#0C0C0C"/>
<path d="M79.4588 328.52C76.0501 328.52 73.417 327.867 73.2366 327.831C73.0202 327.777 72.8939 327.541 72.948 327.323C73.0022 327.106 73.2186 326.979 73.453 327.033C73.5071 327.051 79.4228 328.502 84.9597 327.033C85.1761 326.979 85.4106 327.106 85.4647 327.323C85.5188 327.541 85.3925 327.777 85.1761 327.831C83.2102 328.339 81.2263 328.52 79.4588 328.52Z" fill="#0C0C0C"/>
<path d="M81.4984 322.118H76.1238C75.8893 322.118 75.709 321.937 75.709 321.719C75.709 321.483 75.8893 321.302 76.1238 321.302H81.4984C81.7148 321.302 81.8952 321.483 81.8952 321.719C81.8952 321.937 81.7148 322.118 81.4984 322.118Z" fill="#0C0C0C"/>
<path d="M37.22 296.509L35.4886 311.345L29.9697 311.163V296.509H37.22Z" fill="#FFFEFE"/>
<path fill-rule="evenodd" clip-rule="evenodd" d="M35.4893 311.762C35.4773 311.762 35.4713 311.762 35.4713 311.762L29.9524 311.562C29.736 311.562 29.5557 311.381 29.5557 311.163V296.509C29.5557 296.291 29.736 296.092 29.9705 296.092H37.2207C37.347 296.092 37.4552 296.146 37.5273 296.237C37.6175 296.328 37.6536 296.436 37.6356 296.563L35.8861 311.399C35.8681 311.599 35.6877 311.762 35.4893 311.762ZM30.3673 310.764L35.1286 310.928L36.7699 296.926H30.3673V310.764Z" fill="#0C0C0C"/>
<path d="M36.806 307.807C36.806 307.807 37.5094 314.391 37.2929 317.057C37.1306 318.943 34.5515 324.675 33.0907 327.776C32.4775 329.064 31.3412 329.88 30.0607 329.934C28.5277 330.007 26.3634 330.079 24.632 330.079C22.2333 330.079 20.5921 327.359 21.4578 324.802C22.2333 322.462 23.4778 319.506 25.4617 316.368C26.9406 314.01 29.1048 307.59 29.1048 307.59H33.5957L34.4794 311.344L36.806 307.807Z" fill="#FFFEFE"/>
<path fill-rule="evenodd" clip-rule="evenodd" d="M24.6314 330.497C23.4591 330.497 22.377 329.916 21.6556 328.901C20.8079 327.704 20.5735 326.126 21.0604 324.675C22.0524 321.719 23.405 318.853 25.1004 316.151C26.5432 313.865 28.6894 307.517 28.7075 307.463C28.7616 307.3 28.9239 307.173 29.1042 307.173H33.5951C33.7935 307.173 33.9558 307.318 33.9919 307.499L34.6592 310.329L36.4627 307.59C36.5529 307.445 36.7332 307.372 36.8956 307.409C37.0579 307.445 37.1841 307.59 37.2022 307.771C37.2382 308.043 37.9236 314.428 37.6891 317.076C37.5268 319.034 34.9658 324.729 33.4508 327.958C32.7835 329.372 31.503 330.279 30.0782 330.352C28.5632 330.406 26.3628 330.497 24.6314 330.497ZM29.3928 308.007C28.9419 309.277 27.1203 314.464 25.8037 316.586C24.1445 319.252 22.8099 322.045 21.8359 324.947C21.4392 326.126 21.6195 327.432 22.3229 328.411C22.9 329.209 23.7297 329.662 24.6314 329.662C26.3628 329.662 28.5271 329.59 30.0421 329.517C31.1603 329.481 32.1703 328.738 32.7113 327.613C35.2543 322.208 36.7693 318.345 36.8775 317.021C37.0398 315.099 36.6972 311 36.4988 309.005L34.8215 311.58C34.7313 311.707 34.569 311.78 34.4067 311.761C34.2444 311.725 34.1181 311.598 34.082 311.435L33.2704 308.007H29.3928Z" fill="#0C0C0C"/>
<path d="M28.0576 327.667H24.18C23.9636 327.667 23.7832 327.486 23.7832 327.25C23.7832 327.033 23.9636 326.833 24.18 326.833L28.0576 326.851C29.5005 326.851 30.4744 326.108 31.3401 324.348C32.3861 322.208 33.865 319.415 33.8831 319.379C33.9913 319.179 34.2438 319.107 34.4422 319.216C34.6406 319.324 34.7127 319.578 34.6045 319.778C34.6045 319.796 33.1256 322.589 32.0615 324.711C31.3942 326.089 30.3301 327.667 28.0576 327.667Z" fill="#0C0C0C"/>
<path d="M30.2233 322.3H25.2996C25.0651 322.3 24.8848 322.118 24.8848 321.901C24.8848 321.665 25.0651 321.483 25.2996 321.483H30.2233C30.4577 321.483 30.6381 321.665 30.6381 321.901C30.6381 322.118 30.4577 322.3 30.2233 322.3Z" fill="#0C0C0C"/>
<path d="M90.0101 179.961C90.0101 179.961 89.4149 225.249 87.5212 254.739C85.6275 284.23 81.8941 306.774 81.8941 306.774C81.8941 306.774 75.4735 309.095 71.2532 307.88C71.2532 307.88 67.7723 282.017 66.9788 273.275C66.1852 264.533 68.2954 260.199 68.4757 253.035C68.638 245.889 65.4097 214.294 65.4097 214.294C65.4097 214.294 41.188 285.699 38.4106 301.478C38.4106 301.478 32.549 302.476 28.4189 300.208C28.4189 300.208 28.2927 272.115 28.8698 267.78C29.97 259.745 36.2103 251.838 37.3285 243.295C38.4466 234.753 39.0959 213.315 42.198 200.456C45.2821 187.615 51.342 173.16 51.342 173.16L90.0101 179.961Z" fill="#0C0C0C"/>
<path d="M50.5125 195.922C50.3683 195.922 50.224 195.832 50.1518 195.705C50.0436 195.505 50.1158 195.251 50.3142 195.142C56.8069 191.588 58.7908 184.968 58.8089 184.895C58.881 184.677 59.1155 184.55 59.3319 184.623C59.5483 184.677 59.6565 184.913 59.6024 185.131C59.5122 185.421 57.4923 192.15 50.6929 195.868C50.6328 195.904 50.5727 195.922 50.5125 195.922Z" fill="#FFFEFE"/>
<path d="M41.4406 217.85C41.4286 217.85 41.4105 217.85 41.3865 217.85C41.1701 217.813 41.0077 217.614 41.0258 217.396C43.19 200.783 48.6548 188.432 50.9092 183.879C50.9994 183.68 51.2519 183.589 51.4503 183.698C51.6667 183.789 51.7388 184.043 51.6487 184.242C49.4123 188.758 43.9836 201.019 41.8554 217.487C41.8193 217.704 41.639 217.85 41.4406 217.85Z" fill="#FFFEFE"/>
<path d="M161.935 145.211C161.629 144.123 160.168 145.066 159.23 145.247C158.653 145.338 157.877 142.418 160.853 140.55C162.765 139.353 164.785 137.648 163.991 135.961C163.667 135.272 162.765 135.254 161.484 135.435C158.779 135.852 154.757 136.941 152.431 143.96C151.763 145.955 148.607 148.113 148.535 148.494C148.228 150.126 149.671 150.761 150.825 151.813C150.934 151.922 153.26 149.963 157.481 148.947C159.681 148.403 162.224 146.245 161.935 145.211Z" fill="#FFFEFE"/>
<path fill-rule="evenodd" clip-rule="evenodd" d="M150.808 152.23C150.718 152.23 150.628 152.194 150.537 152.121C150.303 151.904 150.05 151.704 149.798 151.505C148.842 150.743 147.85 149.945 148.139 148.421C148.175 148.167 148.391 147.968 149.113 147.333C150.05 146.481 151.62 145.066 152.034 143.815C154.325 136.959 158.257 135.526 161.431 135.036C162.675 134.837 163.902 134.801 164.353 135.78C165.092 137.358 163.992 139.081 161.07 140.895C159.483 141.91 159.158 143.144 159.104 143.778C159.068 144.322 159.194 144.685 159.267 144.812C159.465 144.758 159.681 144.685 159.916 144.594C160.583 144.377 161.269 144.123 161.792 144.413C162.056 144.546 162.236 144.776 162.333 145.102C162.429 145.441 162.351 145.822 162.098 146.245C161.449 147.369 159.483 148.893 157.589 149.346C154.487 150.09 152.413 151.36 151.529 151.904C151.205 152.103 150.988 152.23 150.808 152.23ZM148.932 148.621C148.77 149.582 149.329 150.072 150.321 150.852C150.501 151.009 150.694 151.166 150.898 151.323C150.952 151.287 151.024 151.251 151.097 151.196C152.016 150.634 154.163 149.328 157.391 148.548C159.014 148.149 160.836 146.789 161.395 145.828C161.575 145.519 161.557 145.374 161.539 145.338C161.503 145.175 161.431 145.157 161.413 145.139C161.196 145.03 160.619 145.229 160.204 145.374C159.898 145.483 159.591 145.592 159.303 145.646C159.176 145.665 158.726 145.701 158.437 144.975C158.022 143.887 158.257 141.693 160.637 140.205C162.369 139.117 164.28 137.539 163.613 136.125C163.433 135.744 162.82 135.653 161.557 135.853C158.419 136.324 154.938 137.684 152.81 144.087C152.341 145.538 150.718 146.989 149.654 147.95C149.365 148.204 149.022 148.494 148.932 148.621Z" fill="#0C0C0C"/>
<path d="M94.41 129.921C94.41 129.921 88.6025 127.074 79.693 126.33C75.6531 125.985 70.6753 126.203 65.9861 126.53C65.9861 126.53 47.8965 174.229 47.8965 177.385C47.8965 180.541 55.5075 184.585 65.7336 181.992C75.9597 179.416 88.9452 179.162 96.2496 180.885C107.197 183.461 94.41 129.921 94.41 129.921Z" fill="#FFFEFE"/>
<path fill-rule="evenodd" clip-rule="evenodd" d="M59.3137 183.244C54.7327 183.244 51.2518 181.92 49.3581 180.414C48.1497 179.471 47.4824 178.401 47.4824 177.386C47.4824 174.175 64.8686 128.344 65.6081 126.385C65.6622 126.24 65.7884 126.131 65.9507 126.131C71.9025 125.696 76.2851 125.623 79.7299 125.913C88.6033 126.675 94.537 129.523 94.5911 129.541C94.6993 129.595 94.7895 129.704 94.8075 129.813C95.2404 131.626 105.304 174.157 99.0098 180.523C98.2523 181.285 97.2784 181.557 96.1602 181.285C88.5131 179.489 75.4735 179.961 65.8425 182.391C63.4799 182.99 61.2976 183.244 59.3137 183.244ZM66.2754 126.929C59.999 143.47 48.312 174.955 48.312 177.386C48.312 178.129 48.8531 178.982 49.8631 179.762C52.6406 181.956 58.6103 183.371 65.6441 181.593C75.3833 179.145 88.5853 178.655 96.3405 180.487C97.1882 180.687 97.8735 180.505 98.4326 179.943C104.204 174.103 94.8075 133.386 94.0681 130.212C93.04 129.74 87.5392 127.401 79.6577 126.748C76.3031 126.457 72.0467 126.512 66.2754 126.929Z" fill="#0C0C0C"/>
<path d="M148.553 145.319L152.972 152.901C152.972 152.901 147.543 166.159 132.249 171.146C116.955 176.134 102.508 162.005 102.508 162.005L103.825 192.33C103.825 192.33 92.3545 197.644 92.3545 197.245C92.3545 196.864 93.2202 128.706 93.2202 128.706C93.2202 128.706 99.1719 128.797 101.841 132.605C104.492 136.396 114.556 152.121 126.117 152.32C137.696 152.502 148.553 145.319 148.553 145.319Z" fill="#FFFEFE"/>
<path d="M92.5701 180.65C92.5701 180.65 92.5641 180.65 92.552 180.65C92.3356 180.65 92.1553 180.469 92.1553 180.233L92.8045 128.688C92.8045 128.579 92.8587 128.47 92.9308 128.398C93.0029 128.325 93.1111 128.289 93.2194 128.289C93.4719 128.289 99.4236 128.434 102.165 132.37C102.333 132.6 102.52 132.866 102.724 133.168C105.88 137.756 115.457 151.722 126.134 151.903C137.424 152.103 148.21 145.047 148.318 144.975C148.408 144.921 148.534 144.884 148.642 144.921C148.751 144.939 148.841 145.011 148.895 145.102L153.332 152.683C153.404 152.792 153.404 152.937 153.35 153.046C153.296 153.191 147.668 166.558 132.374 171.545C120.074 175.554 108.387 167.465 103.932 163.801C103.752 163.656 103.734 163.384 103.878 163.221C104.005 163.039 104.275 163.003 104.455 163.148C108.802 166.739 120.2 174.647 132.122 170.765C146.063 166.213 151.781 154.533 152.52 152.919L148.408 145.9C146.406 147.133 136.468 152.901 126.116 152.737C115.024 152.556 105.267 138.319 102.057 133.639C101.84 133.337 101.654 133.071 101.498 132.841C99.3875 129.813 94.9868 129.232 93.6161 129.142L92.9669 180.251C92.9669 180.469 92.7865 180.65 92.5701 180.65Z" fill="#0C0C0C"/>
<path d="M86.8165 157.581C87.6642 158.433 86.0951 159.539 85.4639 160.446C85.1032 161.027 85.6082 161.444 86.2935 161.208C88.2594 160.501 94.7702 158.07 96.2852 159.757C96.8082 160.356 96.5016 161.571 95.5277 162.659C93.4716 164.98 86.9969 167.647 83.3177 168.318C81.1534 168.699 77.6545 170.422 77.2758 170.313C75.6346 169.877 75.7608 168.046 75.364 166.323C75.3099 166.141 78.2497 164.581 81.2436 160.573C82.7946 158.469 86.023 156.783 86.8165 157.581Z" fill="#FFFEFE"/>
<path fill-rule="evenodd" clip-rule="evenodd" d="M77.3124 170.729C77.2523 170.729 77.2042 170.723 77.1681 170.711C75.617 170.294 75.3826 168.879 75.1662 167.501C75.094 167.138 75.0399 166.776 74.9497 166.413C74.8776 166.105 75.0579 165.978 75.599 165.579C76.5188 164.889 78.7011 163.275 80.9195 160.319C82.1639 158.65 84.5626 157.091 86.0596 156.982C86.5165 156.945 86.8652 157.048 87.1056 157.29C88.0074 158.197 87.0876 159.213 86.4023 159.956C86.1858 160.228 85.9694 160.464 85.8071 160.682C85.753 160.772 85.753 160.809 85.753 160.827C85.771 160.845 85.9153 160.899 86.1498 160.809L86.4744 160.7C90.6586 159.213 95.1495 157.889 96.5923 159.485C97.2776 160.264 96.953 161.679 95.8348 162.949C93.7427 165.27 87.3221 168.009 83.3903 168.716C82.182 168.934 80.4866 169.605 79.2602 170.095C78.0338 170.566 77.5829 170.729 77.3124 170.729ZM75.7974 166.449C75.8695 166.757 75.9236 167.066 75.9778 167.356C76.1942 168.752 76.3926 169.623 77.3304 169.913C77.5468 169.877 78.3043 169.587 78.9536 169.315C80.2341 168.825 81.9655 168.136 83.246 167.9C87.0335 167.229 93.2918 164.545 95.2216 162.386C96.1053 161.389 96.3037 160.41 95.9791 160.047C95.1314 159.104 92.0293 159.593 86.7449 161.48L86.4203 161.588C85.8973 161.788 85.3742 161.679 85.1037 161.335C84.8692 161.026 84.8692 160.609 85.1398 160.228C85.3201 159.956 85.5546 159.684 85.8071 159.412C86.5646 158.578 86.8351 158.179 86.5285 157.87C86.4744 157.816 86.3121 157.78 86.1137 157.798C84.9955 157.87 82.7591 159.213 81.5687 160.809C79.2782 163.874 77.0418 165.524 76.086 166.25C75.9777 166.322 75.8876 166.395 75.7974 166.449Z" fill="#0C0C0C"/>
<path d="M78.6297 170.33L75.9064 164.399C75.9064 164.399 64.7605 166.685 59.6384 164.399C50.6567 160.446 59.7827 141.13 61.2976 134.22C62.8307 127.328 58.7907 126.766 58.7907 126.766C58.7907 126.766 50.5305 131.463 44.9395 141.765C39.3485 152.048 37.5449 175.1 56.2297 179.272C68.4758 181.992 78.6297 170.33 78.6297 170.33Z" fill="#FFFEFE"/>
<path d="M59.9438 180.088C58.7174 180.088 57.4369 179.961 56.1384 179.671C49.8801 178.274 45.4253 174.738 42.9003 169.17C38.9686 160.482 40.8443 148.457 44.5776 141.565C45.6597 139.589 46.9042 137.684 48.2929 135.889C48.4372 135.707 48.6897 135.671 48.8701 135.816C49.0504 135.943 49.0865 136.215 48.9422 136.396C47.5715 138.156 46.3631 140.024 45.299 141.964C41.6559 148.675 39.8343 160.373 43.6578 168.825C46.0565 174.157 50.3129 177.531 56.3187 178.873C67.3023 181.321 76.7529 171.745 78.1416 170.24L75.6708 164.871C73.759 165.234 64.2363 166.884 59.4749 164.781C53.2166 162.024 55.2727 152.375 57.7435 144.286C57.8157 144.068 58.0501 143.941 58.2665 144.014C58.483 144.086 58.6092 144.304 58.5371 144.522C56.1564 152.302 54.1364 161.534 59.7996 164.037C64.7593 166.213 75.7069 164.019 75.8151 164.001C75.9954 163.964 76.1938 164.055 76.266 164.236L79.0073 170.149C79.0795 170.294 79.0615 170.476 78.9532 170.602C78.845 170.693 70.5307 180.088 59.9438 180.088Z" fill="#0C0C0C"/>
<path d="M81.7683 109.99C82.0388 110.171 82.3996 110.098 82.5438 109.808C83.2292 108.43 84.3654 105.727 86.2952 105.419C88.7661 105.038 92.7519 104.621 92.9503 106.58C93.1307 108.285 92.5535 111.187 94.1767 113.436C94.321 113.653 94.1587 113.962 93.9423 114.107L92.7519 114.977C92.4994 115.14 92.2469 115.721 92.1928 116.029C92.0485 116.936 91.778 118.877 91.4534 119.112C90.7861 119.548 87.7381 119.131 87.7381 119.131L84.1851 128.29C84.0588 128.616 84.2211 128.961 84.5458 129.07L87.3954 130.285C87.3954 130.285 85.2492 132.624 77.9268 131.554C74.8607 131.119 72.48 128.798 71.1995 127.238C70.7486 126.694 71.0913 125.841 71.7947 125.769C74.5181 125.442 79.8385 123.792 81.3355 115.884C81.3896 115.648 81.2994 115.413 81.119 115.249C80.4337 114.651 78.5941 112.873 79.063 111.259C79.55 109.536 80.8665 109.373 81.7683 109.99Z" fill="#FFFEFE"/>
<path fill-rule="evenodd" clip-rule="evenodd" d="M81.4799 132.244C80.4339 132.244 79.2436 132.171 77.8729 131.972C74.7708 131.518 72.354 129.288 70.8931 127.51C70.5685 127.129 70.4963 126.64 70.6767 126.168C70.8571 125.733 71.2719 125.406 71.7588 125.352C74.5724 125.025 79.5141 123.357 80.9389 115.812C80.9569 115.721 80.9209 115.631 80.8487 115.558C79.8207 114.651 78.1614 112.874 78.6664 111.133C78.991 109.972 79.6403 109.537 80.1092 109.355C80.7225 109.138 81.4078 109.246 82.003 109.645C82.039 109.682 82.0751 109.682 82.1112 109.682C82.1473 109.67 82.1713 109.651 82.1833 109.627L82.3637 109.246C83.1212 107.687 84.2574 105.329 86.2413 105.021C88.4056 104.676 91.4175 104.368 92.7161 105.365C93.0948 105.673 93.3112 106.054 93.3653 106.526C93.4014 106.979 93.4014 107.505 93.4014 108.068C93.3834 109.645 93.3653 111.622 94.5016 113.2C94.6278 113.363 94.6639 113.563 94.6278 113.781C94.5737 114.035 94.3933 114.307 94.1589 114.452L92.9866 115.304C92.8603 115.395 92.6439 115.83 92.6078 116.084C92.5838 116.229 92.5537 116.392 92.5177 116.574C92.2291 118.405 92.0487 119.204 91.67 119.457C91.0388 119.893 88.9827 119.711 87.9908 119.584L84.564 128.435C84.546 128.508 84.564 128.562 84.564 128.58C84.582 128.617 84.6181 128.653 84.6722 128.671L87.5579 129.904C87.6842 129.959 87.7743 130.067 87.8104 130.213C87.8284 130.34 87.7924 130.466 87.7022 130.575C87.63 130.648 86.079 132.244 81.4799 132.244ZM80.7585 110.081C80.6263 110.069 80.506 110.087 80.3978 110.135C79.965 110.28 79.6403 110.715 79.4419 111.368C79.0632 112.711 80.6864 114.307 81.3898 114.941C81.6783 115.195 81.8226 115.594 81.7505 115.975C80.2175 124.028 74.879 125.823 71.849 126.168C71.6686 126.186 71.5063 126.313 71.4342 126.476C71.3981 126.567 71.344 126.785 71.5244 126.984C72.6426 128.344 74.9872 130.72 77.9811 131.156C83.049 131.881 85.574 130.956 86.566 130.376L84.3837 129.451C84.1492 129.378 83.9508 129.179 83.8246 128.943C83.7163 128.689 83.6983 128.399 83.7885 128.145L87.3415 118.986C87.4136 118.805 87.594 118.696 87.7924 118.732C89.1631 118.913 90.8223 118.986 91.2011 118.786C91.3814 118.496 91.6159 117.063 91.7061 116.447C91.7421 116.265 91.7722 116.102 91.7962 115.957C91.8504 115.612 92.1209 114.887 92.5177 114.633L93.69 113.781C93.7621 113.744 93.7982 113.672 93.8162 113.654C92.5537 111.858 92.5718 109.754 92.5718 108.049C92.5898 107.523 92.5898 107.016 92.5537 106.617C92.5177 106.363 92.4094 106.181 92.2111 106.018C91.4355 105.42 89.4697 105.347 86.3495 105.837C84.8165 106.072 83.7885 108.194 83.1031 109.591C83.031 109.736 82.9649 109.869 82.9047 109.99C82.7965 110.226 82.5801 110.407 82.3096 110.48C82.0571 110.552 81.7685 110.498 81.5341 110.335C81.2816 110.153 81.011 110.081 80.7585 110.081Z" fill="#0C0C0C"/>
<path d="M114.809 302.783C114.809 302.783 114.394 311.326 115.08 316.767C115.765 322.208 114.178 328.628 116.703 329.988C119.246 331.349 124.963 330.279 125.396 329.063C126.37 326.198 122.853 325.454 121.626 324.167C120.4 322.879 121.717 312.958 124.061 309.476C126.388 305.993 114.809 302.783 114.809 302.783Z" fill="#FFFEFE"/>
<path fill-rule="evenodd" clip-rule="evenodd" d="M119.949 331.022C118.669 331.022 117.424 330.841 116.522 330.351C114.665 329.372 114.737 326.289 114.827 322.734C114.863 320.775 114.917 318.744 114.665 316.821C113.979 311.398 114.394 302.838 114.412 302.747C114.412 302.638 114.484 302.511 114.575 302.439C114.683 302.366 114.809 302.348 114.917 302.384C115.278 302.475 123.538 304.815 124.656 307.807C124.891 308.46 124.801 309.113 124.404 309.712C122.077 313.158 120.923 322.825 121.915 323.876C122.24 324.203 122.745 324.511 123.286 324.838C124.674 325.69 126.586 326.833 125.775 329.191C125.63 329.608 125.161 329.97 124.368 330.297C123.304 330.714 121.608 331.022 119.949 331.022ZM115.206 303.309C115.134 305.25 114.899 312.142 115.476 316.712C115.729 318.707 115.693 320.866 115.639 322.752C115.567 326.035 115.494 328.882 116.901 329.626C118.723 330.587 122.294 330.224 124.061 329.517C124.729 329.263 124.963 329.027 124.999 328.918C125.558 327.322 124.512 326.543 122.871 325.545C122.276 325.2 121.717 324.856 121.32 324.457C119.823 322.879 121.446 312.65 123.719 309.24C123.971 308.859 124.025 308.496 123.881 308.097C123.141 306.066 117.767 304.089 115.206 303.309Z" fill="#0C0C0C"/>
<path d="M129.22 259.292C129.22 259.292 135.514 259.292 137.299 261.124C139.013 262.865 137.895 273.33 135.55 276.903C133.223 280.476 129.328 278.263 128.444 274.98C127.542 271.698 129.22 259.292 129.22 259.292Z" fill="#FFFEFE"/>
<path fill-rule="evenodd" clip-rule="evenodd" d="M132.629 279.152C132.448 279.152 132.262 279.134 132.07 279.098C130.266 278.807 128.607 277.157 128.048 275.089C127.146 271.752 128.751 259.746 128.805 259.238C128.841 259.038 129.004 258.875 129.22 258.875C129.473 258.875 135.695 258.893 137.589 260.834C139.591 262.865 138.148 273.675 135.893 277.121C135.028 278.445 133.891 279.152 132.629 279.152ZM129.581 259.709C129.31 261.777 128.066 272.006 128.841 274.872C129.31 276.613 130.717 278.046 132.196 278.281C133.35 278.481 134.396 277.919 135.208 276.667C137.589 273.04 138.472 262.901 137.011 261.414C135.731 260.09 131.511 259.746 129.581 259.709Z" fill="#0C0C0C"/>
<path d="M145.127 268.106C137.299 264.316 137.534 265.966 133.223 261.776C128.913 257.569 124.801 259.292 124.801 259.292C124.801 259.292 121.194 260.144 118.398 271.48C117.965 273.184 117.46 274.545 116.919 275.615C115.639 278.1 116 282.398 110.481 283.25C107.379 283.722 102.257 283.686 97.9822 283.903C97.9822 283.903 82.2372 281.074 73.2375 282.108C69.8107 282.652 59.2419 279.188 52.3524 269.376C45.4448 259.582 44.3627 251.021 45.1382 248.373C45.9137 245.725 43.1363 245.417 42.505 249.316C41.8918 253.198 42.1984 267.326 53.651 277.32C61.8571 284.484 55.0577 287.585 53.5067 290.741C50.0799 297.796 56.3202 305.087 55.689 308.678C55.0397 312.251 51.5949 313.031 52.4967 315.334C53.3804 317.638 55.9415 328.919 58.6107 329.808C61.28 330.714 68.927 329.808 62.1817 325.074C55.4184 320.322 61.5505 310.927 64.4722 309.948C69.7386 308.207 67.8629 303.165 71.4339 302.312C73.2375 301.877 104.222 317.765 111.094 316.495C117.983 315.207 129.526 310.982 130.626 287.277C130.789 283.885 129.436 276.322 130.735 275.742C132.159 275.089 141.646 275.397 145.127 271.679C148.193 268.396 145.127 268.106 145.127 268.106Z" fill="#FFFEFE"/>
<path fill-rule="evenodd" clip-rule="evenodd" d="M60.9192 330.533C59.9814 330.533 59.0976 330.406 58.4844 330.207C56.3923 329.499 54.6248 323.931 52.9656 318.273C52.6049 317.003 52.3163 316.006 52.1179 315.48C51.5588 314.047 52.4065 313.104 53.2902 312.106C54.0838 311.217 54.9855 310.22 55.2741 308.606C55.4905 307.409 54.8232 305.649 54.0657 303.636C52.6409 299.882 50.8735 295.203 53.1459 290.56C53.5066 289.798 54.1379 289.072 54.7872 288.311C56.9694 285.79 59.4403 282.924 53.3804 277.628C42 267.707 41.3868 253.778 42.1082 249.244C42.3788 247.557 43.0821 246.36 44.02 246.052C44.4709 245.889 44.9217 245.979 45.2464 246.306C45.6973 246.741 45.8055 247.557 45.535 248.5C44.8496 250.822 45.7153 259.237 52.677 269.14C59.6928 279.115 70.1895 282.162 73.1833 281.691C73.1954 281.691 73.2074 281.691 73.2194 281.691C81.9125 280.693 97.0443 283.323 98.0182 283.486C99.425 283.414 100.94 283.359 102.401 283.323C105.467 283.232 108.371 283.142 110.427 282.833C114.358 282.235 115.08 279.841 115.783 277.519C116.018 276.758 116.234 276.05 116.559 275.415C117.118 274.309 117.605 272.949 118.001 271.389C120.707 260.416 124.224 259.038 124.657 258.911C125.053 258.748 129.183 257.261 133.512 261.468C136.145 264.044 136.975 264.352 139.193 265.15C140.51 265.64 142.331 266.293 145.235 267.707C145.524 267.744 146.498 267.943 146.804 268.777C147.111 269.594 146.66 270.627 145.415 271.951C142.818 274.744 137.011 275.361 133.548 275.724C132.304 275.851 131.24 275.96 130.897 276.123C130.338 276.395 130.644 280.331 130.825 282.471C130.969 284.302 131.095 286.044 131.041 287.295C130.212 304.87 123.719 314.555 111.184 316.894C106.567 317.747 92.0845 311.399 81.4977 306.756C76.7003 304.652 72.1734 302.657 71.5241 302.711C70.1173 303.056 69.6845 304.144 69.1434 305.541C68.4761 307.227 67.6464 309.331 64.5984 310.347C62.9753 310.891 60.1617 314.391 59.6207 318.109C59.3501 320.05 59.6026 322.752 62.4162 324.729C64.7968 326.398 65.7166 327.831 65.1395 328.992C64.5804 330.098 62.6687 330.533 60.9192 330.533ZM44.4528 246.796C44.3927 246.796 44.3326 246.808 44.2725 246.832C43.8216 246.995 43.1723 247.757 42.9198 249.371C42.2705 253.488 42.8837 267.363 53.9215 277.011C60.6126 282.833 57.6007 286.316 55.4184 288.855C54.7872 289.58 54.21 290.269 53.8854 290.922C51.7752 295.257 53.4706 299.737 54.8232 303.328C55.6348 305.468 56.3382 307.336 56.0857 308.751C55.7611 310.583 54.733 311.743 53.9034 312.668C52.9836 313.684 52.5327 314.264 52.8754 315.189C53.0918 315.734 53.3804 316.749 53.7591 318.037C54.8593 321.791 56.8973 328.792 58.7369 329.427C60.3601 329.953 63.841 329.771 64.4001 328.611C64.7608 327.921 63.859 326.761 61.9472 325.419C58.791 323.188 58.5025 320.159 58.8091 318.001C59.3682 314.156 62.2899 310.238 64.346 309.567C67.0152 308.678 67.7006 306.919 68.3679 305.232C68.963 303.745 69.5041 302.349 71.3437 301.913C72.0471 301.732 74.6262 302.838 81.8404 305.994C91.1467 310.093 104.962 316.151 110.174 316.151C110.499 316.151 110.781 316.127 111.022 316.078C115.477 315.244 129.021 312.723 130.23 287.259C130.284 286.062 130.139 284.266 129.995 282.525C129.67 278.39 129.526 275.833 130.554 275.361C131.023 275.162 131.997 275.053 133.458 274.908C136.812 274.545 142.422 273.964 144.82 271.389C146.119 270.011 146.137 269.34 146.047 269.068C145.866 268.596 145.091 268.505 145.091 268.505C145.043 268.505 144.995 268.493 144.946 268.469C142.025 267.054 140.239 266.401 138.923 265.93C136.632 265.096 135.694 264.751 132.935 262.067C128.859 258.095 124.999 259.673 124.945 259.673C124.933 259.685 124.915 259.697 124.891 259.709C124.855 259.709 121.464 260.761 118.795 271.589C118.38 273.203 117.875 274.617 117.28 275.796C116.992 276.359 116.793 277.03 116.577 277.755C115.873 280.077 114.99 282.978 110.553 283.65C108.443 283.976 105.521 284.049 102.419 284.139C100.94 284.194 99.425 284.23 98.0001 284.302C97.9761 284.302 97.946 284.302 97.91 284.302C97.7477 284.266 82.1109 281.509 73.2915 282.507C69.432 283.105 58.755 279.206 52.0097 269.63C44.7955 259.364 44.0019 250.804 44.7414 248.265C44.9578 247.521 44.8496 247.068 44.6692 246.886C44.6091 246.826 44.537 246.796 44.4528 246.796Z" fill="#0C0C0C"/>
<path d="M124.349 261.087C124.53 260.398 124.241 259.69 123.646 259.328C122.943 258.91 122.059 258.457 121.536 258.457C118.885 258.457 118.957 259.527 115.169 261.123C112.807 262.121 113.005 267.797 113.961 270.065C114.899 272.35 117.478 276.104 120.869 275.016C124.241 273.928 125.45 267.689 124.422 264.605C123.989 263.336 124.115 261.994 124.349 261.087Z" fill="#FFFEFE"/>
<path fill-rule="evenodd" clip-rule="evenodd" d="M119.642 275.633C116.666 275.633 114.484 272.404 113.582 270.228C112.662 268.052 112.266 261.903 115.007 260.742C116.504 260.108 117.37 259.564 118.073 259.128C119.137 258.475 119.822 258.04 121.536 258.058C122.041 258.058 122.798 258.348 123.844 258.983C124.602 259.437 124.981 260.343 124.746 261.178C124.62 261.704 124.331 263.082 124.8 264.46C125.54 266.655 125.179 270.101 123.989 272.513C123.231 274.019 122.185 275.034 120.977 275.415C120.526 275.56 120.075 275.633 119.642 275.633ZM121.5 258.874C120.057 258.874 119.534 259.201 118.506 259.836C117.784 260.289 116.883 260.851 115.332 261.504C113.312 262.357 113.42 267.725 114.34 269.92C115.187 271.987 117.64 275.633 120.742 274.635C121.987 274.218 122.798 273.057 123.249 272.132C124.349 269.956 124.692 266.691 124.025 264.733C123.484 263.136 123.808 261.577 123.953 260.978C124.097 260.47 123.88 259.944 123.43 259.69C122.203 258.965 121.698 258.874 121.536 258.874C121.524 258.874 121.512 258.874 121.5 258.874Z" fill="#0C0C0C"/>
<path d="M103.609 305.16C103.609 305.16 101.03 310.239 101.228 317.439C101.355 322.336 98.2165 327.632 100.182 329.3C102.148 330.969 107.36 331.096 107.956 330.117C109.344 327.813 106.405 326.489 105.575 325.129C104.745 323.787 107.739 315.353 110.426 312.76C111.707 311.526 111.148 308.334 109.398 306.648C105.377 302.784 103.609 305.16 103.609 305.16Z" fill="#FFFEFE"/>
<path d="M105.467 331.151C103.627 331.151 101.21 330.697 99.9299 329.609C98.6133 328.503 99.1905 326.218 99.8397 323.57C100.327 321.665 100.868 319.507 100.814 317.439C100.651 311.327 102.473 306.684 103.032 305.415C103.122 305.197 103.375 305.106 103.573 305.197C103.79 305.288 103.88 305.523 103.79 305.741C103.248 306.974 101.481 311.49 101.643 317.421C101.697 319.598 101.138 321.81 100.651 323.769C100.038 326.145 99.5331 328.194 100.453 328.992C101.842 330.171 105.034 330.516 106.693 330.226C107.342 330.135 107.559 329.972 107.595 329.899C108.371 328.648 107.613 327.777 106.369 326.617C105.918 326.181 105.485 325.782 105.214 325.347C104.24 323.751 107.685 315.317 110.12 312.488C110.12 312.488 111.473 310.729 110.787 308.589C110.715 308.371 110.841 308.153 111.058 308.081C111.274 308.008 111.509 308.117 111.563 308.335C112.392 310.91 110.823 312.923 110.751 313.014C108.316 315.843 105.268 323.842 105.918 324.93C106.134 325.256 106.513 325.619 106.928 326.018C107.992 327.016 109.471 328.394 108.298 330.335C108.082 330.679 107.613 330.915 106.838 331.042C106.441 331.115 105.972 331.151 105.467 331.151Z" fill="#0C0C0C"/>
<path fill-rule="evenodd" clip-rule="evenodd" d="M139.03 41.9942C138.471 41.9942 137.912 41.9035 137.371 41.6859C136.199 41.2325 135.261 40.3256 134.756 39.1467C133.728 36.7164 134.792 33.9052 137.155 32.8351C138.291 32.3273 139.535 32.291 140.708 32.7444C141.88 33.1979 142.8 34.1047 143.305 35.2836C144.351 37.6958 143.269 40.5251 140.924 41.5952C140.311 41.8672 139.679 41.9942 139.03 41.9942ZM139.03 33.2523C138.507 33.2523 137.984 33.3611 137.479 33.5787C135.531 34.4674 134.648 36.8071 135.513 38.8203C135.928 39.7815 136.686 40.5433 137.66 40.9241C138.615 41.2869 139.643 41.2687 140.581 40.8335C142.529 39.9629 143.413 37.6232 142.565 35.61C142.132 34.6307 141.375 33.8871 140.401 33.5062C139.95 33.3429 139.499 33.2523 139.03 33.2523Z" fill="#0C0C0C"/>
<path d="M158.526 30.7309C158.292 30.7309 158.111 30.5495 158.111 30.3137V27.7746C158.111 27.5569 158.292 27.3574 158.526 27.3574C158.743 27.3574 158.941 27.5569 158.941 27.7746V30.3137C158.941 30.5495 158.761 30.7309 158.526 30.7309Z" fill="#0C0C0C"/>
<path d="M158.526 21.8441C158.292 21.8441 158.111 21.6628 158.111 21.427V18.8878C158.111 18.6521 158.292 18.4707 158.526 18.4707C158.743 18.4707 158.923 18.6521 158.923 18.8878L158.941 21.427C158.941 21.6446 158.743 21.8441 158.526 21.8441Z" fill="#0C0C0C"/>
<path d="M164.207 25.0179H161.682C161.448 25.0179 161.268 24.8365 161.268 24.6007C161.268 24.3831 161.448 24.1836 161.682 24.1836H164.207C164.442 24.1836 164.622 24.3831 164.622 24.6007C164.622 24.8365 164.442 25.0179 164.207 25.0179Z" fill="#0C0C0C"/>
<path d="M155.369 25.0179H152.845C152.61 25.0179 152.43 24.8184 152.43 24.6007C152.43 24.365 152.61 24.1836 152.845 24.1836H155.369C155.586 24.1836 155.784 24.365 155.784 24.6007C155.784 24.8365 155.586 25.0179 155.369 25.0179Z" fill="#0C0C0C"/>
<path d="M288.508 65.8436C288.273 65.8436 288.093 65.6622 288.093 65.4446V62.9054C288.093 62.6696 288.273 62.4883 288.508 62.4883C288.742 62.4883 288.922 62.6696 288.922 62.9054V65.4446C288.922 65.6622 288.742 65.8436 288.508 65.8436Z" fill="#0C0C0C"/>
<path d="M288.508 56.9569C288.273 56.9569 288.093 56.7755 288.093 56.5397V54.0006C288.093 53.7829 288.273 53.6016 288.508 53.6016C288.724 53.6016 288.904 53.7829 288.904 54.0006L288.922 56.5397C288.922 56.7755 288.724 56.9569 288.508 56.9569Z" fill="#0C0C0C"/>
<path d="M294.189 60.1306H291.664C291.429 60.1306 291.249 59.9492 291.249 59.7316C291.249 59.4958 291.429 59.3145 291.664 59.3145H294.189C294.423 59.3145 294.604 59.4958 294.604 59.7316C294.604 59.9492 294.423 60.1306 294.189 60.1306Z" fill="#0C0C0C"/>
<path d="M285.352 60.1306H282.827C282.592 60.1306 282.412 59.9492 282.412 59.7135C282.412 59.4958 282.592 59.3145 282.827 59.3145H285.352C285.568 59.3145 285.767 59.4958 285.767 59.7135C285.749 59.9492 285.568 60.1306 285.352 60.1306Z" fill="#0C0C0C"/>
<path fill-rule="evenodd" clip-rule="evenodd" d="M268.237 45.3131C266.938 45.3131 265.513 44.4244 265.261 42.4475C265.249 42.4112 265.249 42.375 265.261 42.3387C265.513 40.3618 266.938 39.4912 268.237 39.4912C269.517 39.4912 270.942 40.3618 271.213 42.3387C271.213 42.375 271.213 42.4112 271.213 42.4475C270.942 44.4244 269.535 45.3131 268.237 45.3131ZM266.073 42.3931C266.289 43.844 267.317 44.4788 268.237 44.4788C269.157 44.4788 270.185 43.844 270.401 42.3931C270.167 40.9603 269.157 40.3074 268.237 40.3074C267.299 40.3074 266.289 40.9603 266.073 42.3931Z" fill="#0C0C0C"/>
<path d="M187.239 324.62C187.059 324.62 186.897 324.493 186.843 324.312C186.788 324.094 186.915 323.859 187.131 323.804C203.724 319.325 223.238 309.476 238.063 298.086C254.259 285.644 262.501 273.239 260.662 264.062C260.626 263.826 260.77 263.608 260.986 263.572C261.221 263.518 261.437 263.663 261.473 263.898C263.385 273.547 255.251 285.917 238.55 298.739C223.653 310.184 204.03 320.086 187.348 324.602C187.311 324.614 187.275 324.62 187.239 324.62Z" fill="#0C0C0C"/>
<path d="M225.114 316.64C224.97 316.64 224.825 316.568 224.753 316.423C224.663 316.223 224.735 315.969 224.934 315.86C247.153 303.999 263.638 289.109 267.966 276.993C268.056 276.794 268.291 276.667 268.489 276.757C268.706 276.83 268.814 277.066 268.742 277.283C264.341 289.562 247.694 304.634 225.312 316.604C225.252 316.628 225.186 316.64 225.114 316.64Z" fill="#0C0C0C"/>
</svg>
