<svg width="100" height="100" viewBox="0 0 103 100" fill="none" xmlns="http://www.w3.org/2000/svg">
<path d="M27.1995 31.3867C27.7473 31.4179 28.2952 31.4646 28.843 31.527C36.1906 32.3218 44.9401 36.9971 46.9221 43.1686C48.2756 47.3764 61.4239 48.779 64.276 50.5557C66.0162 51.631 67.4181 53.4544 65.1461 56.4466C64.8561 56.8674 64.6144 57.2882 64.5177 57.8025C64.1793 59.2986 62.7291 62.5713 58.5719 64.6752C53.2062 67.3869 40.2705 63.4959 36.5 68.4985C31.9077 74.6232 32.5 85.9985 32.5 85.9985" stroke="#0C0C0C" stroke-width="2.5" stroke-linecap="round" stroke-linejoin="round"/>
<path d="M1.99854 83.9995C1.99854 83.9995 7.47887 73.8708 8.49031 47.7518C10.3272 35.5959 16.563 25.9179 24.0073 20.6348C24.0073 20.6348 27.6328 28.9569 27.6328 36.3907" stroke="#0C0C0C" stroke-width="2.5" stroke-linecap="round" stroke-linejoin="round"/>
<path d="M55.9875 28.506C57.2614 26.736 60.0158 26.4106 62.0895 27.8154L71.7258 34.3861" stroke="#0C0C0C" stroke-width="2.5" stroke-linecap="round" stroke-linejoin="round"/>
<path d="M55.7052 28.118L55.7344 28.1309" stroke="#0C0C0C" stroke-width="2.5" stroke-linecap="round" stroke-linejoin="round"/>
<path d="M55.6987 28.1833L38.9282 26.2606C36.4613 25.9834 34.6704 24.2047 34.9544 22.0333C35.2534 19.9017 37.4751 18.3422 39.914 18.6072L66.1455 21.4279L67.3185 21.8728L85.3418 33.4228C85.3418 33.4228 87.684 34.1778 91.916 33.3617" stroke="#0C0C0C" stroke-width="2.5" stroke-linecap="round" stroke-linejoin="round"/>
<path d="M55.9457 28.5432C54.6719 30.3208 55.2905 32.8904 57.3361 34.2748L64.1975 38.9408C64.1975 38.9408 69.535 43.5992 75.7531 45.1631" stroke="#0C0C0C" stroke-width="2.5" stroke-linecap="round" stroke-linejoin="round"/>
<path d="M99.1481 46.0236L99.1162 33.068C99.1126 31.6008 97.8846 30.443 96.3808 30.4889L94.8762 30.5349C93.4088 30.5797 92.2199 31.7563 92.195 33.1884L91.9947 44.7317" stroke="#0C0C0C" stroke-width="2.5" stroke-linecap="round" stroke-linejoin="round"/>
<path d="M82.0122 77.8129L92.5684 65.8532C93.0148 65.3496 93.0411 64.6195 92.6209 64.0655C92.0957 63.4109 91.0979 63.3102 90.4414 63.8389L80.3578 72.0723C80.174 72.2485 79.8589 72.2485 79.6751 72.0723L74.7908 69.1012C74.0556 68.6732 73.1365 68.7739 72.5325 69.353C71.8498 69.9824 71.8235 71.0399 72.4538 71.7198L78.0995 77.8381C79.1499 78.9711 80.988 78.946 82.0122 77.8129Z" fill="#C1121F"/>
<path d="M93.247 58.3657C90.1157 55.9815 86.1851 54.4995 81.9213 54.4995C71.9946 54.4995 64 62.2318 64 71.8328C64 81.4337 71.9946 89.166 81.9213 89.166C91.7813 89.166 99.8426 81.4337 99.8426 71.8328C99.8426 68.611 98.9098 65.6469 97.3775 63.0695C99.7093 58.9456 99.8426 55.015 99.8426 55.015C99.8426 55.015 96.8446 57.528 93.247 58.3657Z" stroke="#C1121F" stroke-width="2.5" stroke-linecap="round" stroke-linejoin="round"/>
</svg>
