<svg  viewBox="0 0 102 77" fill="none" xmlns="http://www.w3.org/2000/svg">
<g id="Frame 5812">
<g id="Group 65">
<path id="&#60;Path&#62;" d="M27.1995 14.4756C27.7473 14.5068 28.2952 14.5535 28.843 14.6158C36.1906 15.4107 44.9401 20.086 46.9221 26.2575C48.2756 30.4653 61.4239 31.8679 64.276 33.6445C66.0162 34.7199 67.4181 36.5432 65.1461 39.5355C64.8561 39.9562 64.6144 40.377 64.5177 40.8913C64.1793 42.3874 62.7291 45.6602 58.5719 47.7641C53.2062 50.4758 40.2705 46.5848 36.5 51.5874C31.9077 57.7121 32.5 69.0874 32.5 69.0874" stroke="#0C0C0C" stroke-width="2.5" stroke-linecap="round" stroke-linejoin="round"/>
<path id="&#60;Path&#62;_2" d="M2.00049 67.0874C2.00049 67.0874 7.48082 56.9587 8.49227 30.8397C10.3292 18.6838 16.565 9.0058 24.0093 3.72266C24.0093 3.72266 27.6348 12.0448 27.6348 19.4786" stroke="#0C0C0C" stroke-width="2.5" stroke-linecap="round" stroke-linejoin="round"/>
</g>
<g id="&#60;Group&#62;">
<path id="&#60;Path&#62;_3" d="M55.9885 11.5939C57.2623 9.82384 60.0168 9.49851 62.0905 10.9032L71.7268 17.474" stroke="#0C0C0C" stroke-width="2.5" stroke-linecap="round" stroke-linejoin="round"/>
<g id="&#60;Group&#62;_2">
<path id="&#60;Path&#62;_4" d="M55.7062 11.204L55.7354 11.2168" stroke="#0C0C0C" stroke-width="2.5" stroke-linecap="round" stroke-linejoin="round"/>
<path id="&#60;Path&#62;_5" d="M55.6997 11.2702L38.9292 9.34752C36.4623 9.07036 34.6714 7.29164 34.9554 5.12024C35.2544 2.98862 37.476 1.42911 39.915 1.69407L66.1465 4.51484L67.3195 4.95973L85.3428 16.5097C85.3428 16.5097 87.685 17.2647 91.917 16.4486" stroke="#0C0C0C" stroke-width="2.5" stroke-linecap="round" stroke-linejoin="round"/>
<path id="&#60;Path&#62;_6" d="M55.9448 11.6301C54.6709 13.4077 55.2895 15.9773 57.3352 17.3617L64.1965 22.0277C64.1965 22.0277 69.534 26.6861 75.7521 28.25" stroke="#0C0C0C" stroke-width="2.5" stroke-linecap="round" stroke-linejoin="round"/>
<path id="&#60;Path&#62;_7" d="M99.1462 29.1095L99.1143 16.1539C99.1107 14.6868 97.8826 13.5289 96.3788 13.5748L94.8742 13.6208C93.4068 13.6656 92.2179 14.8422 92.1931 16.2743L91.9928 27.8177" stroke="#0C0C0C" stroke-width="2.5" stroke-linecap="round" stroke-linejoin="round"/>
</g>
</g>
<path id="&#60;Path&#62;_8" d="M82.0122 60.8998L92.5684 48.9401C93.0148 48.4365 93.0411 47.7064 92.6209 47.1524C92.0957 46.4978 91.0979 46.3971 90.4414 46.9258L80.3578 55.1592C80.174 55.3354 79.8589 55.3354 79.6751 55.1592L74.7908 52.1881C74.0556 51.7601 73.1365 51.8608 72.5325 52.4399C71.8498 53.0694 71.8235 54.1269 72.4538 54.8067L78.0995 60.925C79.1499 62.058 80.988 62.0329 82.0122 60.8998Z" fill="#C1121F"/>
<path id="&#60;Path&#62;_9" d="M93.247 41.4536C90.1157 39.0694 86.1851 37.5874 81.9213 37.5874C71.9946 37.5874 64 45.3197 64 54.9207C64 64.5216 71.9946 72.2539 81.9213 72.2539C91.7813 72.2539 99.8426 64.5216 99.8426 54.9207C99.8426 51.6989 98.9098 48.7348 97.3775 46.1574C99.7093 42.0335 99.8426 38.1029 99.8426 38.1029C99.8426 38.1029 96.8446 40.6159 93.247 41.4536Z" stroke="#C1121F" stroke-width="2.5" stroke-linecap="round" stroke-linejoin="round"/>
</g>
</svg>
