<svg xmlns="http://www.w3.org/2000/svg" viewBox="0 0 103 100" fill="none"><path stroke="#C1121F" stroke-linecap="round" stroke-linejoin="round" stroke-width="2.001" d="M10.438 81.731c4.527.378 8.63.99 11.744 2.642.126.062.267.125.424.188a.738.738 0 0 1 .19.142 89.014 89.014 0 0 0 4.244 2.122c4.15 2.028 7.547 3.066 11.65 3.16 5.047.142 13.757-4.22 20.565-7.782 1.037-.543 2.453-1.25 8.348-5.26"/><path stroke="#0C0C0C" stroke-linecap="round" stroke-linejoin="round" stroke-width="2.001" d="M9.684 85.033H2.091c-.425 0-.755-.33-.755-.707v-20.99c0-.377.33-.707.755-.707h7.593c.425 0 .755.33.755.707v20.99c0 .377-.33.707-.755.707ZM89.59 45.672c3.113.943 4.905 2.075 4.905 3.254 0 3.35-13.82 6.085-30.894 6.085-17.074 0-30.894-2.736-30.894-6.085 0-1.132 1.698-2.264 4.67-3.16"/><path stroke="#0C0C0C" stroke-linecap="round" stroke-linejoin="round" stroke-width="2.001" d="m32.94 48.172-6.135 13.914M49.68 75.293c26.414 3.065 44.53-1.604 49.859-5.66 1.651-1.274 2.264-3.585 1.415-5.519l-6.698-15.942M54.353 13.742l-.283.283M58.127 9.969l-.236.236M57.89 13.742l.236.283M54.07 9.969l.283.236M39.26 30.816l-1.131-1.132M33.179 24.683l-1.132-1.132M39.26 23.55l-1.131 1.133M33.179 29.684l-1.132 1.132M91.568 31.333l-.85-.849M86.993 26.76l-.849-.85M91.568 25.91l-.85.85M86.993 30.484l-.849.85"/><path stroke="#C1121F" stroke-linecap="round" stroke-linejoin="round" stroke-width="2.001" d="M83.458 47.983c.99-.896 1.557-2.17 1.557-3.632a5.052 5.052 0 0 0-5.047-5.047h-.236v-.141c0-3.868-3.113-7.028-6.98-7.028a6.82 6.82 0 0 0-5.189 2.358 7.007 7.007 0 0 0-6.556-4.575c-3.868 0-6.98 3.113-6.98 6.933-.897-.801-2.076-1.32-3.397-1.32-2.688 0-4.905 2.217-4.905 4.952 0 .315.031.63.094.944-2.028.188-3.632 1.886-3.632 3.962 0 .99.378 1.933.944 2.594"/><path stroke="#C1121F" stroke-linecap="round" stroke-linejoin="round" stroke-width="2.001" d="M51.29 46.002s1.273-1.934 3.442-2.17M60.438 38.786s3.49-.236 5.424 2.5M73.031 41.664s1.651.943 1.934 2.783M26.333 75.646c6.084.472 9.999 2.217 15.329 4.057 5.424 1.84 8.914 3.018 9.81.047.99-3.16-5.565-8.019-12.404-10.754-4.906-2.028-8.396-5.943-12.971-6.51-3.774-.518-7.217.378-9.952 1.274a76.188 76.188 0 0 1-5.707 1.651"/></svg>