<svg xmlns="http://www.w3.org/2000/svg" viewBox="0 0 102 100" fill="none"><path stroke="#C1121F" stroke-linecap="round" stroke-linejoin="round" stroke-width="2.5" d="M85.659 84.748C85.099 84.431 72 76.225 72 67.576 72 63.409 75.353 60 79.45 60c2.794 0 5.277 1.578 6.581 3.977A7.34 7.34 0 0 1 92.55 60c4.097 0 7.45 3.41 7.45 7.576 0 8.649-13.1 16.856-13.659 17.172l-.31.252-.373-.252Z"/><path stroke="#C1121F" stroke-linecap="round" stroke-linejoin="round" stroke-width="2.5" d="M93 65c1.087 0 2 .913 2 2"/><path stroke="#0C0C0C" stroke-linecap="round" stroke-linejoin="round" stroke-width="2.5" d="M46 33c-11.584 0-21 9.577-21 21.5C25 66.36 34.416 76 46 76s21-9.64 21-21.5C67 42.577 57.584 33 46 33Z"/><path stroke="#0C0C0C" stroke-linecap="round" stroke-linejoin="round" stroke-width="2.5" d="M46.5 38C37.398 38 30 45.572 30 55c0 9.378 7.398 17 16.5 17S63 64.378 63 55c0-9.428-7.398-17-16.5-17Z"/><path stroke="#0C0C0C" stroke-linecap="round" stroke-linejoin="round" stroke-width="2.5" d="M90 54.892V36.263c0-5.08-4.083-9.22-9.02-9.22H66.904c-.67 0-1.402-.314-1.828-.878l-6.216-8.656C57.518 15.941 55.568 15 53.557 15H38.443c-2.072 0-3.961.94-5.302 2.509l-6.216 8.656a2.469 2.469 0 0 1-1.889.878H11.019c-4.997 0-9.019 4.14-9.019 9.22v39.454C2 80.797 6.022 85 11.02 85h65.45"/><path stroke="#0C0C0C" stroke-linecap="round" stroke-linejoin="round" stroke-width="2.5" d="M55.384 22.931C54.7 21.69 53.644 21 52.588 21H39.412c-1.118 0-2.113.69-2.858 1.931L35 27h22l-1.616-4.069ZM78.918 40h-2.836C74.418 40 73 38.39 73 36.5c0-1.96 1.418-3.5 3.082-3.5h2.836C80.582 33 82 34.54 82 36.5c0 1.89-1.418 3.5-3.082 3.5Z"/></svg>