<svg xmlns="http://www.w3.org/2000/svg" viewBox="0 0 82 68" fill="none"><path d="M40.998 23.789a15.317 15.317 0 1 0 0 30.634 15.317 15.317 0 0 0 0-30.634Zm0 28.081a12.766 12.766 0 1 1 .003-25.533A12.766 12.766 0 0 1 41 51.87Zm30.635-35.74a5.105 5.105 0 0 0-1.991 9.853 5.105 5.105 0 1 0 1.991-9.853Zm0 7.659a2.553 2.553 0 1 1 0-5.106 2.553 2.553 0 0 1 0 5.106Z"/><path d="M40.999 16.13a22.976 22.976 0 0 0-22.976 22.976c0 12.69 10.285 22.976 22.976 22.976 12.69 0 22.976-10.286 22.976-22.976A22.976 22.976 0 0 0 40.999 16.13Zm0 43.399a20.423 20.423 0 1 1 0-40.846 20.423 20.423 0 0 1 0 40.846Z"/><path d="M76.739 11.024h-17.87V5.918A5.106 5.106 0 0 0 53.763.812H28.234a5.106 5.106 0 0 0-5.106 5.106v5.106H5.258A5.106 5.106 0 0 0 .152 16.13v45.952a5.106 5.106 0 0 0 5.106 5.106H76.74a5.106 5.106 0 0 0 5.106-5.106V16.13a5.106 5.106 0 0 0-5.106-5.106Zm2.553 48.505a5.106 5.106 0 0 1-5.106 5.106H7.811a5.106 5.106 0 0 1-5.106-5.106V18.683a5.106 5.106 0 0 1 5.106-5.106h17.87V8.47a5.106 5.106 0 0 1 5.106-5.106H51.21a5.106 5.106 0 0 1 5.106 5.106v5.106h17.87a5.106 5.106 0 0 1 5.106 5.106v40.846Z"/></svg>