<svg xmlns="http://www.w3.org/2000/svg" viewBox="0 0 102 100" fill="none"><path stroke="#0C0C0C" stroke-linecap="round" stroke-linejoin="round" stroke-width="2.5" d="M8.71 72.383v6.737c0 2.201 1.549 4.002 3.468 4.002h9.908c1.858 0 3.406-1.8 3.406-4.002"/><path stroke="#0C0C0C" stroke-linecap="round" stroke-linejoin="round" stroke-width="2.5" d="M86.892 73.055c4.656 0 13.108-.753 13.108-15.63 0-6.213-6.983-14.686-9.555-17.511 0 0 9.555 2.636 9.555-4.77 0-3.766-3.43-4.708-6.186-4.331-4.716.565-7.105 3.076-7.105 3.076-2.022-4.583-6.064-11.738-9.31-14.06C74.642 17.757 66.619 16 51 16c-15.619 0-23.642 1.757-26.399 3.829-3.246 2.322-7.288 9.477-9.31 14.06 0 0-2.389-2.511-7.105-3.076C5.43 30.436 2 31.378 2 35.143c0 7.407 9.555 4.771 9.555 4.771C8.982 42.739 2 51.212 2 57.426c0 14.876 8.453 15.629 13.107 15.629"/><path stroke="#0C0C0C" stroke-linecap="round" stroke-linejoin="round" stroke-width="2.5" d="M81.205 36.188c-2.303-5.274-5.696-10.362-7.21-11.479 0 0-4.12-2.668-22.66-2.668s-22.66 2.668-22.66 2.668c-1.515 1.117-4.908 6.205-7.21 11.479 0 0 13.693.62 29.87.62 19.69 0 29.87-.62 29.87-.62ZM23.48 73.055h55.042M76.508 79.12c0 2.201 1.548 4.002 3.406 4.002h9.907c1.92 0 3.468-1.8 3.468-4.002v-6.737M24.827 63.657H14.71c-1.77 0-3.288-1.253-3.54-3.007l-.443-3.07c0-1.817 1.517-3.32 3.35-3.32h10.75c1.834 0 3.352 1.503 3.352 3.32v2.757c0 1.816-1.518 3.32-3.352 3.32ZM63.753 73.055v-4.988c0-1.33-1.036-2.395-2.266-2.395H40.512c-1.23 0-2.266 1.064-2.266 2.395v4.988"/><path stroke="#C1121F" stroke-linecap="round" stroke-linejoin="round" stroke-width="2.5" d="M60.397 59.63H42.273M63.753 54.26H38.246M31.533 49.562 24.82 42.85"/><path stroke="#0C0C0C" stroke-linecap="round" stroke-linejoin="round" stroke-width="2.5" d="M77.715 63.657h9.728c1.702 0 3.161-1.253 3.404-3.007l.426-3.07c0-1.817-1.46-3.32-3.222-3.32H77.715c-1.764 0-3.223 1.503-3.223 3.32v2.757c0 1.816 1.46 3.32 3.223 3.32Z"/><path stroke="#C1121F" stroke-linecap="round" stroke-linejoin="round" stroke-width="2.5" d="m71.137 49.562 6.04-6.712"/></svg>