<svg xmlns="http://www.w3.org/2000/svg" viewBox="0 0 94 58" fill="none"><path d="m93.385 29.18-10.64-5.938-16.46-20.944A6.028 6.028 0 0 0 61.537 0H12.203C10.86 0 9.554.452 8.495 1.282A6.048 6.048 0 0 0 6.36 4.583L.01 29.942a1.214 1.214 0 0 0 0 .29v16.93a1.211 1.211 0 0 0 1.205 1.21h4.892a10.896 10.896 0 0 0 3.56 6.872A10.823 10.823 0 0 0 16.879 58c2.66 0 5.227-.98 7.213-2.756a10.896 10.896 0 0 0 3.56-6.873h33.885a10.896 10.896 0 0 0 3.56 6.873A10.823 10.823 0 0 0 72.31 58c2.66 0 5.227-.98 7.213-2.756a10.896 10.896 0 0 0 3.56-6.873h9.712A1.203 1.203 0 0 0 94 47.161V30.233a1.214 1.214 0 0 0-.615-1.052ZM46.245 2.419h15.292a3.604 3.604 0 0 1 2.844 1.378l15.087 19.18H46.245V2.418Zm-2.41 0v20.557H12.697L17.82 2.42h26.016ZM16.88 55.627c-1.668 0-3.3-.497-4.686-1.427a8.459 8.459 0 0 1-3.107-3.799 8.493 8.493 0 0 1 1.828-9.225 8.407 8.407 0 0 1 9.192-1.835 8.442 8.442 0 0 1 3.786 3.118 8.486 8.486 0 0 1-1.049 10.688 8.42 8.42 0 0 1-5.964 2.48Zm55.43 0c-1.668 0-3.298-.497-4.686-1.427a8.458 8.458 0 0 1-3.106-3.799 8.492 8.492 0 0 1 1.828-9.225 8.407 8.407 0 0 1 9.192-1.835 8.44 8.44 0 0 1 3.786 3.118 8.486 8.486 0 0 1-1.049 10.688 8.42 8.42 0 0 1-5.964 2.48Zm19.281-9.674h-8.507a10.896 10.896 0 0 0-3.56-6.873 10.823 10.823 0 0 0-7.213-2.756c-2.66 0-5.227.98-7.213 2.756a10.896 10.896 0 0 0-3.56 6.873H27.652a10.896 10.896 0 0 0-3.56-6.873 10.824 10.824 0 0 0-7.213-2.756c-2.66 0-5.227.98-7.213 2.756a10.896 10.896 0 0 0-3.56 6.873H2.42V30.377L8.697 5.164A3.629 3.629 0 0 1 9.98 3.186a3.607 3.607 0 0 1 2.223-.767h3.133l-5.35 21.476a1.213 1.213 0 0 0 .217 1.04 1.206 1.206 0 0 0 .952.46h70.481l9.954 5.55v15.008Z"/></svg>