<svg xmlns="http://www.w3.org/2000/svg" viewBox="0 0 100 100" fill="none"><path fill="#0C0C0C" d="M54.15 49.621a2.083 2.083 0 1 0 0-4.167 2.083 2.083 0 0 0 0 4.167Z"/><path fill="#0C0C0C" d="M85.315 0H18.648a6.258 6.258 0 0 0-6.25 6.25v41.667a6.258 6.258 0 0 0 6.25 6.25h25v12.5H32.19a2.083 2.083 0 0 0 0 4.166h39.583a2.083 2.083 0 1 0 0-4.166H60.315v-12.5h25a6.258 6.258 0 0 0 6.25-6.25V6.25A6.258 6.258 0 0 0 85.315 0Zm-68.75 6.25c0-1.148.935-2.083 2.083-2.083h66.667c1.148 0 2.083.935 2.083 2.083V37.5H16.565V6.25Zm39.583 60.417h-8.333v-12.5h8.333v12.5Zm31.25-18.75A2.087 2.087 0 0 1 85.315 50H18.648a2.087 2.087 0 0 1-2.083-2.083v-6.25h70.833v6.25Z"/><path fill="#0C0C0C" d="M50.07 29.836a2.077 2.077 0 0 1-1.474-.61l-4.185-4.183a2.083 2.083 0 0 1 2.946-2.946l2.712 2.71 6.842-6.841a2.081 2.081 0 0 1 3.397.675 2.085 2.085 0 0 1-.451 2.27l-8.315 8.315a2.08 2.08 0 0 1-1.473.61Z"/></svg>