<svg xmlns="http://www.w3.org/2000/svg" viewBox="0 0 100 100" fill="none"><g stroke-linecap="round" stroke-linejoin="round" stroke-width="2.356" clip-path="url(#a)"><path stroke="#0C0C0C" d="M65.963 17.97 53.526 5.763a4.538 4.538 0 0 0-6.096 0L34.992 17.97M89.576 41.145l-5.84 5.828M57.516 73.147l33.437 18.375M17.218 46.975l-5.84-5.828M43.438 73.147 10 91.522M71.52 96.063h14.893a4.539 4.539 0 0 0 4.538-4.539V44.43a4.605 4.605 0 0 0-1.377-3.284l-5.84-5.73M10 66.197v25.325a4.539 4.539 0 0 0 4.539 4.539h50.965M17.219 35.414l-5.84 5.73a4.6 4.6 0 0 0-1.377 3.284V60.18"/><path stroke="#0C0C0C" d="M83.737 25.846v-3.274a4.6 4.6 0 0 0-4.601-4.601H21.82a4.6 4.6 0 0 0-4.601 4.6v24.403l26.22 26.174 4.853-2.666a4.538 4.538 0 0 1 4.371 0l4.853 2.666 26.22-26.173V31.721"/><path stroke="#C1121F" d="M54.822 40.978c0 3.691-2.265 6.455-4.976 6.455s-5.11-2.725-5.11-6.416c0-3.691 2.531-6.15 5.242-6.15s4.844 2.421 4.844 6.111Z"/><path stroke="#C1121F" d="M50.215 53.68c-5.393-.148-10.312-3.8-11.772-9.351-1.685-6.41 2.002-13.103 8.316-15.113 6.678-2.126 13.782 1.632 15.8 8.317.713 2.675.297 5.002-.649 7.382-.375.943-1.612 3.152-4.365 3.152-1.503 0-2.755-1.44-2.747-3.1l.054-10.991"/><path stroke="#C1121F" d="M62.559 37.533c.714 2.675.297 5.003-.649 7.383"/></g><defs><clipPath id="a"><path fill="#fff" d="M0 .587h100v100H0z"/></clipPath></defs></svg>