<svg viewBox="0 0 260 261" fill="none" xmlns="http://www.w3.org/2000/svg">
<path fill-rule="evenodd" clip-rule="evenodd" d="M36.2804 240.035C62.0123 254.834 90.4068 259.985 120.061 260.427L120.122 260.466C120.63 260.466 121.139 260.474 121.647 260.483C122.663 260.5 123.679 260.517 124.696 260.466C125.723 260.415 126.751 260.366 127.78 260.317C131.819 260.124 135.865 259.93 139.899 259.639C148.222 259.027 151.251 257.107 152.247 250.542C150.825 247.829 149.936 242.443 148.757 235.309C147.304 226.511 145.411 215.054 141.539 202.673C139.226 196.26 136.654 189.192 127.938 184.5C127.938 184.5 104.812 177.676 100.002 167.085C97.8498 165.766 95 161.455 95 156.345C95 153.652 98.3424 152.688 101.682 152.73C104.041 148.026 107.865 143.961 112.42 140.751C113.865 131.481 116.782 120.75 119.708 120.75C121.984 120.75 125.51 127.24 128.214 133.764C130.387 125.115 133.658 116.5 136.169 116.5C139.465 116.5 143.584 132.854 145.09 141.549C145.984 143.337 146.865 145.301 147.781 147.342C150.975 154.459 154.594 162.522 160.623 167.367C162.333 166.262 164.725 165.742 167.968 165.596C190.915 164.539 212.643 159.253 231.403 145.934C232.33 145.277 233.241 144.608 234.136 143.929C230.662 130.823 216.712 129.25 210.241 129.25C209.15 129.25 208.103 128.802 207.332 128.005C206.56 127.208 206.126 126.127 206.126 125C206.126 123.873 206.56 122.792 207.332 121.995C208.103 121.198 209.15 120.75 210.241 120.75C225.27 120.75 236.305 127.348 240.86 138.299C249.488 130.295 255.953 120.794 259.127 109.147C261.749 99.5368 258.558 94.9817 248.273 93.5979C244.806 93.1339 241.339 92.6604 237.872 92.1869C224.249 90.3263 210.623 88.4654 196.932 87.1784C189.005 86.4288 182.907 83.8918 178.11 77.9912C175.936 75.3389 173.639 72.5904 170.793 70.6876C170.42 70.4386 170.045 70.1871 169.668 69.9346C165.598 67.2046 161.342 64.3497 156.728 63.1534C145.488 60.2704 133.964 58.2907 122.46 56.4072C117.033 55.5038 115.285 53.2167 115.813 48.1234C117.135 35.2075 118.232 22.2725 118.923 9.33742C119.065 6.41599 118.049 1.70709 116.078 0.842188C113.761 -0.176472 109.004 1.22659 106.748 3.11015C104.147 5.27904 101.516 7.4292 98.8834 9.58105C89.0114 17.6502 79.1101 25.7433 70.5896 34.9385C33.2723 75.2043 14.3494 123.408 1.97131 175.11C-4.32954 201.403 4.71523 218.528 25.6503 233.077C25.9143 233.26 26.1783 233.443 26.4424 233.625C29.6551 235.849 32.881 238.081 36.2804 240.035Z" fill="#F0DBDA"/>
</svg>
