<svg viewBox="0 0 110 116" fill="none" xmlns="http://www.w3.org/2000/svg">
<path d="M50.6 115.95c-12.5-.2-24.46-2.5-35.3-9.1-1.56-.94-3.02-2.03-4.49-3.1C2 97.25-1.82 89.62.83 77.89c5.22-23.06 13.2-44.57 28.92-62.53C34.3 10.16 39.8 5.76 45 1.16c.96-.84 2.96-1.46 3.94-1 .83.38 1.26 2.48 1.2 3.78a378.2 378.2 0 0 1-1.31 17.3c-.23 2.28.5 3.3 2.8 3.7 4.85.84 9.7 1.72 14.44 3 2.13.6 4.07 2.06 5.93 3.37a15.5 15.5 0 0 1 3.08 3.26c2.03 2.63 4.6 3.76 7.94 4.1 7.24.72 14.43 1.84 21.64 2.86 4.33.62 5.68 2.65 4.57 6.94-1.79 6.95-6.06 12.19-11.68 16.4-7.91 5.95-17.07 8.3-26.74 8.78-3.25.15-4.47 1.25-4.62 4.55-.47 10.7-1.2 21.4-1.88 32.08-.25 3.95-1.37 5.01-5.33 5.32-2.14.16-4.28.26-6.41.37-.64.03-1.29 0-1.93 0l-.02-.02Z" fill="#F0DBDA"/>
</svg>