<svg xmlns="http://www.w3.org/2000/svg" viewBox="0 0 361 360" fill="none"><path fill="#000" d="M301.238 101.236c-.265-1.54-.532-3.079-.801-4.618a37.549 37.549 0 0 0-4.874-12.956 260.992 260.992 0 0 0-6.775-10.675 70.768 70.768 0 0 0-5.202-6.725c-3.377-3.935-7.137-7.5-10.856-11.058-2.402-2.282-4.874-4.514-7.283-6.775a68.74 68.74 0 0 0-8.669-7.095c-1.393-.942-2.841-1.877-4.339-2.7a29.125 29.125 0 0 0-10.535-3.133 52.16 52.16 0 0 1-7.228-1.395c-.564-.153-.606-.181-.564-.774.16-2.198-.606-4.186-1.302-6.21a.516.516 0 0 0-.566-.4.524.524 0 0 0-.235.086 11.697 11.697 0 0 0-4.651 3.628 5.452 5.452 0 0 0-.397.593c-.195.377-.46.398-.822.244-.954-.397-1.936-.746-2.876-1.178a26.987 26.987 0 0 0-9.052-2.303c-1.455-.132-2.924-.23-4.38-.39a51.992 51.992 0 0 0-10.208-.05c-4.238.359-8.46.875-12.666 1.55-4.904.76-9.754 1.84-14.518 3.23a103.288 103.288 0 0 0-23.285 9.92 41.602 41.602 0 0 0-5.515 3.74 80.256 80.256 0 0 0-6.386 5.637c-1.044 1.089-2.221 2.093-2.785 3.544a.902.902 0 0 1-.244.342 2.18 2.18 0 0 0-.592 2.093c.048.469.12.935.216 1.396.425 1.842.836 3.69 1.323 5.525a53.628 53.628 0 0 0 7.012 15.6 20.371 20.371 0 0 0 3.183 3.81 28.03 28.03 0 0 0 4.442 3.286c2.939 1.814 5.989 3.425 9.011 5.1 2.228 1.235 4.477 2.463 6.643 3.802 2.736 1.688 5.473 3.384 8.293 4.933a57.37 57.37 0 0 1 4.101 2.539c2.876 1.905 5.745 3.837 8.648 5.7 1.351.865 2.786 1.647 4.178 2.386 1.804.942 3.642 1.814 5.474 2.686a36.876 36.876 0 0 0 5.925 2.344c1.045.286 2.089.573 3.155.824 1.309.321 1.392.23 1.016 1.702l-4.512 18.195c-.258 1.033-.272 1.019-1.274.977-.564 0-1.135 0-1.699-.035a5.745 5.745 0 0 0-3.83 1.249c-.696.544-1.434 1.095-2.089 1.695a5.98 5.98 0 0 1-3.879 1.514 8.084 8.084 0 0 1-2.249-.258c-2.395-.544-4.742-1.29-7.088-2.009-2.66-.823-5.299-1.709-7.952-2.575-1.978-.634-3.99-1.193-5.926-1.939a227.42 227.42 0 0 0-12.694-4.479c-1.344-.426-2.674-.928-4.004-1.395a2.147 2.147 0 0 1-1.434-1.061 8.134 8.134 0 0 0-3.677-3.816c-1.142-.698-2.305-1.305-3.482-1.926-7.339-3.914-14.657-7.877-21.739-12.258a13.263 13.263 0 0 0-5.57-1.912 81.899 81.899 0 0 1-4.352-.6 6.331 6.331 0 0 1-.961-.237c-.495-.16-.557-.23-.495-.697.191-1.312.383-2.624.578-3.935a.37.37 0 0 1 .39-.335h1.135a15.735 15.735 0 0 0 4.345-.544 8.855 8.855 0 0 0 6.337-5.4 15.73 15.73 0 0 0 1.058-3.384 22.04 22.04 0 0 0 .341-3.39c.04-1.944.219-3.881.537-5.799a12.014 12.014 0 0 1 1.942-4.834.893.893 0 0 1 .662-.475 1.837 1.837 0 0 0 1.476-1.186 6.337 6.337 0 0 0 .752-3.14 30.028 30.028 0 0 1 .07-4.262 10.932 10.932 0 0 0-.697-4.458c-.891-2.847-4.561-5.875-6.552-6.558-.091 0-.181-.05-.272-.077a9.632 9.632 0 0 0-5.459-.119 35.207 35.207 0 0 1-11.273.816 14.64 14.64 0 0 0-5.46.642c-5.326 1.55-11.364 7.73-10.813 15.663.066 1.61.385 3.2.947 4.71a8.54 8.54 0 0 0 4.177 4.639c.552.268 1.119.501 1.7.698a.48.48 0 0 1 .369.523c0 .377-.077.753-.126 1.13a9.926 9.926 0 0 0 .133 3.112c.278 1.395.933 2.484 2.437 2.79.13.043.255.096.376.16a44.731 44.731 0 0 1-.913 9.475 1.944 1.944 0 0 0-2.088.447c-.409.34-.883.592-1.393.739-.926.342-1.873.656-2.785.97-2.688.907-5.418 1.689-8.029 2.791-4.08 1.751-7.84 3.963-10.877 7.291a32.354 32.354 0 0 0-4.303 5.979 118.083 118.083 0 0 0-6.608 13.988 61.777 61.777 0 0 0-3.106 10.353 10.802 10.802 0 0 0-.188 2.547 1.916 1.916 0 0 0 1.282 1.87 8.71 8.71 0 0 0 2.722.739c.613 0 1.219.154 1.832.224.355 0 .48.23.445.565-.125 1.088-.244 2.169-.376 3.251-.536 4.332-.919 8.672-1.065 13.032-.07 2.177-.188 4.361-.397 6.531-.397 4.255-.46 8.518-.62 12.781-.097 2.512-.14 5.023-.376 7.528a15.885 15.885 0 0 1-1.95 6.907c-.07.125-.118.258-.18.391a15.016 15.016 0 0 0-1.337 9.125c.085.712.362 1.387.8 1.954a8.618 8.618 0 0 0 3.252 2.686 22.955 22.955 0 0 0 6.782 1.939c.571.042.613.084.585.698-.076 1.514-.18 3.028-.257 4.542-.23 4.186-.446 8.428-.697 12.642-.327 5.867-.696 11.735-1.002 17.602-.237 4.312-.453 8.616-.697 12.928a777.102 777.102 0 0 1-.32 5.679c-.242 4.307-.474 8.614-.696 12.921-.23 4.186-.44 8.33-.697 12.502-.33 5.865-.664 11.733-1.002 17.603a8046.9 8046.9 0 0 0-.822 14.769c-.042.838-.244 1.696.292 2.477.098.14.063.37.084.558.067.979.044 1.963-.07 2.937-1.824.391-2.395 1.2-3.12 2.673a7.03 7.03 0 0 0-.417 1.206 24.288 24.288 0 0 0-.773 6.754 8.39 8.39 0 0 0 .209 1.549 3.02 3.02 0 0 0 1.9 2.309c.653.28 1.329.5 2.02.656 4.63.907 9.24 1.981 13.927 2.456 3.572.465 7.191.42 10.751-.133a22.747 22.747 0 0 0 4.22-1.2 3.814 3.814 0 0 0 2.507-2.86 1.5 1.5 0 0 1 .361-.949 65.538 65.538 0 0 0 8.503 1.249c3.672.382 7.367.51 11.057.383 3.74-.146 7.472-.272 11.197-.607a14.8 14.8 0 0 0 2.918-.572 3.956 3.956 0 0 0 2.167-1.732c.49-.821.668-1.791.5-2.733-.077-.279-.105-.565-.16-.837a6.184 6.184 0 0 0-1.852-3.369 6.166 6.166 0 0 0-3.482-1.619c-.982-.147-1.971-.231-2.953-.384a38.095 38.095 0 0 1-6.002-1.668c-2.514-.823-5-1.723-7.59-2.302a14.49 14.49 0 0 0-1.817-.265c-.599-.056-1.191.328-1.783 0-.09-.6-.181-1.207-.278-1.814-.098-.607-.147-1.032-.244-1.542-.202-1.081-.251-1.242.884-1.395a5.726 5.726 0 0 0 2.709-1.158 2.098 2.098 0 0 0 .919-2.219 4.189 4.189 0 0 1 .035-1.395c.244-2.261.48-4.521.696-6.782.216-2.26.453-4.437.696-6.648.335-3.203.697-6.412 1.017-9.614.32-3.063.634-6.126.961-9.196.339-3.256.682-6.511 1.031-9.767.229-2.17.452-4.333.696-6.503.334-3.209.696-6.411 1.017-9.613.32-3.063.633-6.133.96-9.196.342-3.3.697-6.593 1.045-9.893l.696-6.363c.335-3.209.697-6.411 1.017-9.614.32-3.069.634-6.132.961-9.195.343-3.302.692-6.602 1.044-9.9.147-1.395.272-2.735.467-4.095.118-.837.348-1.647.411-2.505.174-2.267.411-4.528.626-6.795.251-2.693.506-5.384.766-8.072.223-2.359.439-4.717.697-7.075.341-3.684.696-7.36 1.037-11.044.223-2.358.439-4.716.697-7.074l1.044-11.045c.202-2.093.39-4.248.599-6.369.042-.461.167-.545.647-.489 1.402.224 2.816.369 4.234.433 2.27 0 4.54 0 6.81-.049.756-.025 1.51-.1 2.256-.223a4.872 4.872 0 0 0 3.113-1.821 12.727 12.727 0 0 0 2.089-3.384c.209-.53.327-.565.863-.398 1.713.531 3.419 1.089 5.139 1.605 4.178 1.251 8.342 2.488 12.492 3.712 2.584.76 5.174 1.5 7.806 2.093a84.906 84.906 0 0 0 11.935 1.597c1.66.013 3.302.352 4.832.998a23.268 23.268 0 0 0 7.583 2.184c1.275.153 1.393.125.947 1.339-.153.44-.243.914-.355 1.396-.167.655-.167.655-.842.697-1.142.042-1.344.189-1.734 1.277-.098.265-.181.537-.258.816-.327 1.284-.661 2.568-.975 3.852a77.1 77.1 0 0 0-1.984 9.307 24.653 24.653 0 0 0 .16 7.639 7.202 7.202 0 0 0 3.665 5.072 7.172 7.172 0 0 0 6.244.272 8.814 8.814 0 0 0 4.129-3.558 12.293 12.293 0 0 0 1.908-5.149c.176-1.505.262-3.019.258-4.535a1.399 1.399 0 0 0-1.052-1.486c-.696-.209-1.358-.418-2.047-.565a.873.873 0 0 0-1.104.413.888.888 0 0 0-.094.417c-.125.893-.181 1.793-.278 2.686-.098.894-.153 1.703-.293 2.54a7.744 7.744 0 0 1-1.281 3.133c-1.017 1.486-2.305 1.569-3.537.279a3.953 3.953 0 0 1-1.101-2.093 11.26 11.26 0 0 1-.181-2.693c.065-1.423.249-2.837.551-4.228.926-3.865 1.204-7.863 2.367-11.679a.704.704 0 0 0-.133-.807.703.703 0 0 0-.243-.156c-.467-.189-.529-.468-.362-.893.167-.426.251-.698.376-1.068a4.03 4.03 0 0 1 .425-1.193c.327-.418.884-.125 1.337-.195 1.392-.202 1.991-.698 2.311-2.093a.74.74 0 0 1 .516-.572 2.092 2.092 0 0 0 1.476-1.751.987.987 0 0 1 .592-.851c.849-.496 1.392-1.214 1.016-2.24a.865.865 0 0 1 .237-.991c1.142-1.332 1.1-2.602-.042-3.949a5.581 5.581 0 0 0-1.942-1.395.7.7 0 0 1-.467-.635 2.199 2.199 0 0 0-.425-1.332 1.307 1.307 0 0 1-.215-1.319c.584-2.393 1.128-4.793 1.719-7.179.934-3.767 1.901-7.528 2.855-11.288.105-.412.195-.831.314-1.235.118-.405.195-.51.696-.419.23.042.46.105.696.154 1.518.342 3.036.697 4.561 1.018 3.851.761 7.729 1.396 11.615 1.912 1.546.216 3.092.46 4.644.586 1.839.146 3.691.174 5.536.244 4.304.175 8.607-.125 12.91-.286a49.208 49.208 0 0 0 4.526-.349 50.108 50.108 0 0 1 10.445-.286c2.738.236 5.492.176 8.217-.181a22.121 22.121 0 0 0 5.215-1.298 28.942 28.942 0 0 0 8.008-4.807c2.152-1.779 4.268-3.6 6.406-5.4a83.427 83.427 0 0 0 6.88-6.153c.362-.377.759-.698 1.149-1.061a1.76 1.76 0 0 1 .731-.397c.661-.203.675-.245.571-.852ZM124.532 70.755c.076-.049.181-.133.243-.112.127.054.24.138.328.245.045.082.06.179.041.272a8.77 8.77 0 0 1-1.629 3.872.646.646 0 0 1-.592.307c-.16 0-.376-.237-.32-.384.065-.174.149-.34.25-.495a9.253 9.253 0 0 0 1.449-3.203c.042-.181.042-.383.23-.502Zm-31.335-.795a23.448 23.448 0 0 0-1.797 4.925 9.973 9.973 0 0 0 .592 6.788c.078.17.139.348.181.53a.286.286 0 0 1-.118.224c-.112.084-.25.181-.383.056a1.705 1.705 0 0 1-.362-.412 8.447 8.447 0 0 1-1.03-3.37c-.17-1.367-.08-2.754.264-4.088a27.612 27.612 0 0 1 1.796-4.925 13.032 13.032 0 0 1 2.87-3.838 8.877 8.877 0 0 1 6.016-2.483h1.559c1.741.118 3.482.23 5.23.362a10.864 10.864 0 0 0 4.331-.53c1.121-.384 2.249-.697 3.384-1.04a6.952 6.952 0 0 1 5.029.45 6.97 6.97 0 0 1 3.403 3.737.858.858 0 0 1 .084.404.65.65 0 0 1-.216.335.278.278 0 0 1-.383-.042 5.267 5.267 0 0 1-.459-.697 8.246 8.246 0 0 0-2.089-2.477 5.418 5.418 0 0 0-4.965-.914c-.64.162-1.27.36-1.887.593a17.213 17.213 0 0 1-8.781.9 28.908 28.908 0 0 0-4.108-.167 8.083 8.083 0 0 0-5.418 2.134 11.86 11.86 0 0 0-2.708 3.545h-.035Zm8.453 0c-.459.237-.766.237-.835 0-.112-.426.23-.6.501-.747a18.516 18.516 0 0 1 4.115-1.556 15.64 15.64 0 0 1 4.338-.307 15.204 15.204 0 0 1 4.875.796c.884.314 1.824.46 2.736.697.27.082.533.185.787.307.064.03.114.085.138.151a.27.27 0 0 1-.006.205.698.698 0 0 1-.285.28.945.945 0 0 1-.696-.043l-3.391-.9c-4.206-1.095-8.308-.928-12.256 1.103l-.021.014Zm10.376 3.153a.466.466 0 0 1-.328.412 6.63 6.63 0 0 1-.745.118 9.036 9.036 0 0 1-3.112-.697 2.14 2.14 0 0 1-1.101-.844.44.44 0 0 1 0-.391c.056-.09.23-.126.356-.14a.374.374 0 0 1 .257.098 6.385 6.385 0 0 0 3.753 1.032h.564a.41.41 0 0 1 .39.398l-.034.014Zm-9.519.747a14.906 14.906 0 0 1-1.038 3.997 15.682 15.682 0 0 1-2.785 4.41c-.195.204-.41.388-.64.55a.375.375 0 0 1-.516 0 .384.384 0 0 1 0-.613 19.26 19.26 0 0 0 1.922-2.456 13.962 13.962 0 0 0 2.242-5.916c.002-.332.086-.658.244-.95a.316.316 0 0 1 .257-.083c.088.004.17.042.23.105.195.25.119.544.119.942l-.035.014Zm-6.037 30.844a76.78 76.78 0 0 0 1.023-9.621v-1.284c0-.425-.216-.698-.738-.565a1.494 1.494 0 0 1-1.817-.977 3.404 3.404 0 0 1-.341-1.074 14.678 14.678 0 0 1 0-3.83 1.223 1.223 0 0 1 .835-1.2 1.633 1.633 0 0 1 1.7.411c.194.203.32.468.5.698a.528.528 0 0 0 .843-.112c1.163-1.995 2.563-3.865 3.405-6.049a16.31 16.31 0 0 1 .933-2.093 9.769 9.769 0 0 0 1.455-4.562c.868.059 1.714.296 2.486.697 1.144.452 2.339.761 3.559.921a11.74 11.74 0 0 0 3.53-.14c.139-.022.275-.062.404-.118a.7.7 0 0 0 .546-.71.7.7 0 0 0-.087-.309.204.204 0 0 1 .314-.063c.349.24.723.444 1.114.608 2.04.697 3.83 1.849 5.772 2.693.586.23 1.121.573 1.574 1.011-.188.314-.348.6-.529.865a12.719 12.719 0 0 0-1.992 5.714 58.546 58.546 0 0 0-.355 4.675 18.572 18.572 0 0 1-1.232 6.377 8.241 8.241 0 0 1-6.135 5.155 18.854 18.854 0 0 1-7.047.161 19.084 19.084 0 0 1-6.858-2.575 3.14 3.14 0 0 0-.62-.335.439.439 0 0 0-.348.168.524.524 0 0 0-.077.39c.118.263.329.472.592.587a20.605 20.605 0 0 0 5.856 2.449c.648.132 1.302.223 1.957.327a.361.361 0 0 1 .341.377c0 .426-.056.851-.118 1.27-.182 1.123-.397 2.24-.571 3.363-.091.572.034.753.64.858a4.86 4.86 0 0 1 2.089.872c.395.265.72.622.947 1.04a.955.955 0 0 1 .114.797.942.942 0 0 1-.539.598 4.16 4.16 0 0 1-1.497.418 17.525 17.525 0 0 1-11.03-2.372 6.785 6.785 0 0 1-2.172-1.911 5.708 5.708 0 0 0 1.608-3.614l-.034.014Zm-1.456.111c.181.042.418.147.39.335-.153.865-.271 1.751-1.01 2.372a2.246 2.246 0 0 1-.62-1.569 1.023 1.023 0 0 1 .323-.927 1.02 1.02 0 0 1 .952-.225l-.035.014ZM66.792 217.518a19.688 19.688 0 0 1-3.572-.879 8.213 8.213 0 0 0-1.197-.433 8.14 8.14 0 0 1-3.803-2.358 3.377 3.377 0 0 1-1.058-1.967c-.4-2.398-.179-4.857.64-7.145.304-.795.65-1.573 1.038-2.33a15.78 15.78 0 0 0 1.692-5.965c.342-3.209.467-6.426.523-9.649.048-2.839.118-5.693.34-8.525.258-3.259.453-6.517.655-9.768.14-2.177.133-4.36.383-6.53.342-2.965.627-5.937.947-8.902 0-.273.133-.545.23-.963 1.636.209 3.133.363 4.624.6 1.727.279 3.44.635 5.153.97.355.069.438.251.355.614-1.052 4.667-1.922 9.362-2.535 14.113-.515 4.04-1.149 8.066-1.755 12.091-.515 3.489-1.051 6.928-1.58 10.396-.328 2.148-.648 4.304-.982 6.46-.13.891-.184 1.792-.16 2.693a8.285 8.285 0 0 0 1.984 5.198c.244.291.504.569.78.83 2.026 1.939 2.695 4.388 2.604 7.095a3.307 3.307 0 0 1-.647 1.996.421.421 0 0 1-.773-.084 7.498 7.498 0 0 1-.815-2.7 3.492 3.492 0 0 0-.564-1.591 1.275 1.275 0 0 0-1.044-.635 1.23 1.23 0 0 0-1.205.712c-.07.151-.107.315-.111.481a4.504 4.504 0 0 0 .431 2.093 6.516 6.516 0 0 1 .341 3.342c-.055.572-.376.879-.919.74ZM61.284 337.42a.289.289 0 0 1 .269.046.294.294 0 0 1 .114.247v3.286a1.644 1.644 0 0 1-1.302-.823 2.097 2.097 0 0 1-.431-1.319 1.667 1.667 0 0 1 1.35-1.437Zm29.636 13.954a6.277 6.277 0 0 1-1.525.739 23.038 23.038 0 0 1-5.668 1.193c-2.734.188-5.48.125-8.203-.188-4.707-.454-9.303-1.563-13.926-2.449a9.744 9.744 0 0 1-1.616-.523 2.314 2.314 0 0 1-1.483-1.905 5.25 5.25 0 0 1-.07-.565 21.242 21.242 0 0 1 .697-7.228c.369 0 .431.286.578.453a3.08 3.08 0 0 0 3.147 1.145 20.718 20.718 0 0 0 8.6-3.447 4.539 4.539 0 0 1 3.356-.802 9.376 9.376 0 0 1 4.79 1.953 46.359 46.359 0 0 0 7.786 5.163c1.01.516 1.942 1.165 2.903 1.765.277.184.545.382.801.593a2.503 2.503 0 0 1 .992 2.097 2.509 2.509 0 0 1-1.152 2.013l-.007-.007Zm-28.243-18.496c2.65.66 5.41.738 8.091.23a.86.86 0 0 1 .202.831c-.076 1.13-.195 2.26-.264 3.397a1.203 1.203 0 0 1-.564.914 13.925 13.925 0 0 1-3.92 1.933c-.272.091-.544.174-.815.244-.592.154-1.191.3-1.79.44-1.01.237-1.017.237-1.003-.614 0-.614.056-1.228.063-1.849v-5.526Zm29.28-72.558c0 5.693.035 11.379.084 17.065.088 12.326.188 24.651.3 36.977 0 4.13 0 8.26.18 12.377.126 2.469-.146 4.883-.257 7.346 0 .489-.174.872-.655.949-.821.126-1.051.747-1.225 1.395a19 19 0 0 0-.627 5.205v2.7c0 .216.07.467-.223.698a11.094 11.094 0 0 1-1.274-.761l-1.393-.746a40.474 40.474 0 0 1-6.343-4.277 11.262 11.262 0 0 0-3.97-2.093 7.327 7.327 0 0 0-4.33-.063c-.453.14-.564 0-.537-.502.05-1.04.119-2.093.126-3.126a.762.762 0 0 1 .57-.844 9.813 9.813 0 0 0 2.09-.935c.404-.237.787-.516 1.177-.788a1.768 1.768 0 0 0 .696-1.179c1.24-6.177 2.483-12.349 3.732-18.517a15514.837 15514.837 0 0 1 7.931-39.118l3.3-16.284c.07-.37.112-.753.168-1.123.696.091.334.635.355.949.09 1.556-.118 3.132.09 4.695h.035Zm.23 76.095c0 .147-.035.266-.209.293-.174.028-.23-.237-.243-.418-.014-.182 0-.293.195-.279.195.014.243.251.25.404h.007Zm13.927-.997c.235.016.468.053.696.111a61.781 61.781 0 0 1 6.002 1.689c2.089.697 4.227 1.395 6.351 2.023 1.417.386 2.871.62 4.338.698a5.626 5.626 0 0 1 3.565 1.555 5.435 5.435 0 0 1 1.616 4.668 2.686 2.686 0 0 1-1.887 2.288c-.939.331-1.918.528-2.911.586-5.236.412-10.445.698-15.737.607a89.77 89.77 0 0 1-11.434-1.039 60.846 60.846 0 0 1-2.513-.44 2.491 2.491 0 0 1-1.08-.3c-.807-.642-1.553-1.36-2.298-2.093a.781.781 0 0 1-.111-.537c.105-2.365-.125-4.744.216-7.102.045-.169.1-.334.167-.496.188.098.293.126.341.189.905 1.263 2.221 1.695 3.677 1.883a7.358 7.358 0 0 0 4.874-1.074 27.588 27.588 0 0 0 2.959-2.198 4.375 4.375 0 0 1 3.155-1.018h.014Zm-13.035.321c.132-2.219.264-4.438.41-6.649 0-.523.195-.656.592-.482a17.376 17.376 0 0 0 7.59 1.396h.418a.375.375 0 0 1 .376.342c.195 1.451.385 2.902.571 4.353a.626.626 0 0 1-.237.628 34.735 34.735 0 0 1-3.523 2.595 6.371 6.371 0 0 1-5.452.517c-.697-.231-.745-.307-.76-.991-.013-.572 0-1.137 0-1.709h.015Zm26.16-126.224a292.71 292.71 0 0 1-.696 6.363c-.244 2.261-.48 4.521-.696 6.782-.216 2.26-.509 4.709-.752 7.067-.223 2.093-.439 4.242-.662 6.363-.25 2.351-.508 4.709-.752 7.067-.23 2.163-.445 4.333-.696 6.503-.251 2.358-.508 4.709-.752 7.067-.23 2.163-.446 4.333-.696 6.502-.244 2.31-.495 4.619-.739 6.921-.229 2.093-.445 4.242-.696 6.363l-1.044 9.893c-.23 2.093-.439 4.242-.662 6.363-.251 2.358-.508 4.716-.752 7.067-.23 2.093-.439 4.242-.661 6.363-.258 2.4-.516 4.807-.766 7.207-.223 2.093-.432 4.151-.655 6.223-.16 1.556-.341 3.105-.494 4.661a11.466 11.466 0 0 0-.084 2.128 1.538 1.538 0 0 1-.773 1.542 5.76 5.76 0 0 1-2.089.823 16.557 16.557 0 0 1-9.338-.823c-.09-.035-.174-.084-.264-.112a1.608 1.608 0 0 1-1.19-1.793c-.07-13.605-.196-27.209-.307-40.821-.09-11.519-.174-23.023-.313-34.563a18.484 18.484 0 0 1 .369-3.921 4403.422 4403.422 0 0 0 3.843-18.928c.084-.418.16-.837.237-1.255.056-.3.049-.579-.285-.698-.335-.119-.523.112-.634.593-.112.481-.202.928-.293 1.395-1.587 7.842-3.177 15.686-4.77 23.533-1.652 8.167-3.3 16.337-4.943 24.509-1.467 7.237-2.941 14.475-4.422 21.712a6254.487 6254.487 0 0 0-3.774 18.663c-.864 4.269-1.734 8.532-2.57 12.809a2.161 2.161 0 0 1-1.072 1.577 13.421 13.421 0 0 1-4.345 1.66 20.083 20.083 0 0 1-5.09.154 5.72 5.72 0 0 1-2.089-.468.922.922 0 0 1-.613-.998c.098-1.465.146-2.93.223-4.402.153-2.791.311-5.581.474-8.372.255-4.405.508-8.805.758-13.2.105-1.849.216-3.691.314-5.54.23-4.402.439-8.804.696-13.206.223-4.068.48-8.135.697-12.21.125-2.177.23-4.353.348-6.53l.793-14.051c.098-1.8.202-3.6.293-5.4.23-4.354.439-8.707.696-13.061.23-4.116.488-8.232.697-12.348.055-.949.076-1.898.118-2.84a7.573 7.573 0 0 1 .41-2.512 4.506 4.506 0 0 0 .056-2.525c-.062-.293.056-.391.335-.321.219.524.465 1.036.738 1.535a1 1 0 0 0 .684.583 1 1 0 0 0 .876-.2 2.411 2.411 0 0 0 1.162-1.395 7.338 7.338 0 0 0 .411-3.356 14.628 14.628 0 0 0-.96-3.558c-.112-.293-.377-.544-.28-.907.091 0 .189-.097.266-.077 2.186.698 4.477.663 6.712 1.047 1.623.286 3.273.474 4.874.698 1.219.16 2.437.362 3.663.425 3.879.203 7.736.621 11.615.733 2.36.069 4.728.237 7.088.111 3.071-.153 6.142-.321 9.192-.76 1.253-.181 2.493-.495 3.76-.754.425.245.292.593.258.9h.013Zm25.764-68.797a12.09 12.09 0 0 1-2.409 4.932 4.259 4.259 0 0 1-3.015 1.668 60.396 60.396 0 0 1-3.537.202 44.595 44.595 0 0 1-9.199-.453c-.125 0-.257-.07-.376-.105a1.82 1.82 0 0 1-.048-1.137c.215-2.456.452-4.884.696-7.361.153-1.604.306-3.209.446-4.814a5.038 5.038 0 0 0 0-.851.364.364 0 0 0-.376-.342.454.454 0 0 0-.439.3 1.655 1.655 0 0 0-.07.419c-.181 1.793-.355 3.579-.529 5.372-.362 3.823-.722 7.644-1.079 11.463-.328 3.488-.634 6.977-.961 10.465-.327 3.488-.697 6.977-1.003 10.465-.23 2.407-.446 4.814-.696 7.214-.244 2.644-.502 5.288-.752 7.926l-.648 6.934c-.255 2.745-.515 5.482-.78 8.212-.132 1.465-.257 2.923-.39 4.388-.035.377-.062.754-.111 1.131a.7.7 0 0 1-.488.628c-.494.16-.974.362-1.476.488a34.13 34.13 0 0 1-4.178.698 94.192 94.192 0 0 1-15.869.383 340.772 340.772 0 0 1-11.33-.802c-2.304-.209-4.588-.6-6.886-.907-1.08-.146-2.151-.398-3.23-.44a33.708 33.708 0 0 1-5.153-.9.918.918 0 0 1-.488-.244 7.535 7.535 0 0 1-2.785-5.672c.02-1.707.175-3.41.466-5.093.516-3.418 1.052-6.83 1.58-10.249.412-2.616.844-5.232 1.24-7.855.356-2.345.697-4.682 1.003-7.033.404-3.293.877-6.572 1.539-9.823.279-1.396.501-2.791.745-4.186 0-.14 0-.286.07-.426.397-1.353.146-1.395 1.678-1.074.418.09.835.167 1.253.265a4.088 4.088 0 0 0 3.719-.914c2.297-1.975 3.67-4.43 3.523-7.57-.092-.991-.3-1.967-.62-2.909a.52.52 0 0 0-.049-.133.501.501 0 0 0-.473-.244.336.336 0 0 0-.244.127.348.348 0 0 0-.076.264c.007.282.042.562.104.837.084.419.188.83.286 1.249a6.903 6.903 0 0 1-.808 4.932 10.166 10.166 0 0 1-1.7 2.268 3.625 3.625 0 0 1-3.195 1.186 18.612 18.612 0 0 1-2.222-.419c-2.478-.621-4.985-1.088-7.499-1.521a31.525 31.525 0 0 0-2.68-.321c-1.832-.16-3.636-.579-5.474-.697a8.469 8.469 0 0 1-2.04-.579 1.188 1.188 0 0 1-.836-1.193 9.091 9.091 0 0 1 .167-1.982 62.376 62.376 0 0 1 3.712-11.902 120.374 120.374 0 0 1 6.023-12.558 28.498 28.498 0 0 1 7.478-8.721 31.882 31.882 0 0 1 5.766-3.335 50.143 50.143 0 0 1 6.211-2.372c2.09-.656 4.178-1.312 6.184-2.156.078.106.139.224.18.349a6.9 6.9 0 0 0 2.988 4.339 16.075 16.075 0 0 0 7.736 2.924c.564.055 1.128.111 1.692.188 1.275.116 2.56.031 3.809-.251.277-.065.545-.161.801-.286a1.89 1.89 0 0 0 1.24-1.928 1.905 1.905 0 0 0-.237-.779c-.105-.244-.411-.405-.293-.782 1.545.094 3.078.34 4.575.733 1.088.321 2.133.773 3.113 1.346 6.099 3.712 12.29 7.263 18.619 10.57a269.115 269.115 0 0 1 6.225 3.391 10.016 10.016 0 0 1 2.688 2.093 3.911 3.911 0 0 1 1.066 3.119 38.24 38.24 0 0 1-.697 4.772c-.411 1.674-.801 3.376-1.218 5.079h.041Zm56.709 12.844a1 1 0 0 1-.696.795c-.368.078-.74.132-1.114.161a5.372 5.372 0 0 1-1.664-.37 11.406 11.406 0 0 1-3.183-1.807 1.238 1.238 0 0 1-.578-1.074c0-.182.126-.405.362-.335.357.111.706.246 1.045.404a16.564 16.564 0 0 0 5.369 1.696.568.568 0 0 1 .264.069.385.385 0 0 1 .153.461h.042Zm1.943-2.24c-.362.6-.968.698-1.678.803a25.326 25.326 0 0 1-2.946-.635 21.7 21.7 0 0 1-3.634-1.556 4.795 4.795 0 0 1-.613-.356c-.697-.467-.641-1.011 0-1.451a.694.694 0 0 1 .898 0 17.128 17.128 0 0 0 5.703 2.386 8.05 8.05 0 0 0 1.964.181c.32.035.445.335.264.628h.042Zm1.26-1.988a4.265 4.265 0 0 1-.8.258.932.932 0 0 1-.279 0h-.696a7.234 7.234 0 0 1-2.145-.279 21.915 21.915 0 0 1-3.823-1.486 2.688 2.688 0 0 1-1.191-.97.527.527 0 0 1-.071-.404.513.513 0 0 1 .246-.328 1.336 1.336 0 0 1 1.469-.042 11.581 11.581 0 0 0 6.886 1.779c.328 0 .697-.07.822.349a.859.859 0 0 1-.46 1.123h.042Zm-.585-3.83a1.556 1.556 0 0 0 .975-1.291l-.543-.935c0-.223 0-.411.293-.216.292.195.48.279.55.579.195.199.374.414.536.642a1.726 1.726 0 0 1 .027 1.56 1.72 1.72 0 0 1-1.246.938 10.575 10.575 0 0 1-6.615-1.5.568.568 0 0 1-.223-.335c0-.231.209-.328.355-.356.746-.133 1.491-.23 2.236-.335a.698.698 0 0 1 .612.286c.351.384.778.691 1.254.9a2.286 2.286 0 0 0 1.748.063h.041Zm-5.278-2.791a.636.636 0 0 1 .752.188.32.32 0 0 1 .073.112.335.335 0 0 1 .018.133.276.276 0 0 1-.195.146c-.181.035-.369.049-.599.07-.084-.056-.272-.105-.292-.195a.408.408 0 0 1 .201-.426l.042-.028Zm4.916 1.284c.195.307 0 .537-.334.544a1.838 1.838 0 0 1-1.393-.579c-.403-.405-.766-.837-1.149-1.263a3.887 3.887 0 0 0-.933-.858 1.51 1.51 0 0 0-1.422-.19 1.524 1.524 0 0 0-.945 1.083c-.139.398 0 .844-.362 1.2s-.697 1.04-1.497 1.165a1.286 1.286 0 0 0-1.066 1.2 1.08 1.08 0 0 1-.696.949 1.81 1.81 0 0 0-.696.698 1.518 1.518 0 0 0-.063 1.618 1.064 1.064 0 0 1 .077 1.047 2.093 2.093 0 0 0 .738 2.407c.125.053.244.121.355.202.056.049.111.174.083.23-.027.056-.139.105-.222.112a.808.808 0 0 1-.746-.265 18.953 18.953 0 0 1-4.804-1.675 9.31 9.31 0 0 0-2.98-.879 23.713 23.713 0 0 0-2.535-.272 75.17 75.17 0 0 1-15.814-2.581c-6.963-2.03-13.968-4.054-20.889-6.244a2.32 2.32 0 0 1-.968-.447 62.028 62.028 0 0 0 2.186-10.535c.376-.23.599 0 .85.084 2.604.97 5.222 1.94 7.882 2.756 3.161.977 6.204 2.295 9.324 3.377 2.5.858 5.027 1.646 7.541 2.476.446.147.891.3 1.33.461a105.544 105.544 0 0 0 12.067 3.649 8.22 8.22 0 0 0 3.795 0 6.334 6.334 0 0 0 2.626-1.34c.661-.537 1.323-1.074 1.977-1.619 1.866-1.541 3.997-1.507 6.19-1.025.377.073.727.25 1.01.509a1.305 1.305 0 0 1 .522.963 5.462 5.462 0 0 0 .92 3.07l.041-.028Zm23.787-112.619a9.802 9.802 0 0 1 4.303-3.488c.696 1.94 1.351 3.697 1.038 5.665a2.028 2.028 0 0 1-.446 0 30.67 30.67 0 0 1-4.693-1.514c-.342-.153-.404-.377-.202-.663Zm-20.493 84.049c-.112.405-.244.809-.362 1.179a3.76 3.76 0 0 1-1.581-.251 38.597 38.597 0 0 1-8.948-3.14c-1.699-.837-3.398-1.653-5.097-2.49a41.012 41.012 0 0 1-4.31-2.456c-2.89-1.891-5.752-3.816-8.641-5.7-1.309-.851-2.626-1.702-3.983-2.463-2.841-1.598-5.627-3.3-8.405-5.01-2.207-1.395-4.498-2.602-6.768-3.864-2.932-1.633-5.912-3.182-8.753-4.968-.961-.6-1.915-1.22-2.82-1.904a19.394 19.394 0 0 1-4.547-4.842 54.72 54.72 0 0 1-7.611-17.938 135.745 135.745 0 0 1-.752-3.488 7.032 7.032 0 0 1-.132-1.27 1.577 1.577 0 0 1 1.135-1.444c.269-.085.547-.144.828-.174a43.468 43.468 0 0 1 4.951-.314 44.82 44.82 0 0 0 7.917-.475c3.336-.404 6.65-.941 10.014-1.088 2.088-.09 4.143-.384 6.211-.586 1.65-.154 3.3-.286 4.944-.46 3.196-.335 6.392-.698 9.588-1.047 1.831-.21 3.663-.44 5.494-.635a18.703 18.703 0 0 1 6.19.572c4.596 1.06 9.227 2.017 13.76 3.37 5.341 1.598 10.73 2.98 16.148 4.29.09 0 .188.042.278.063.348.112.453.266.383.614-.07.35-.125.559-.202.83-4.962 18.368-9.939 36.73-14.929 55.089Zm77.814-1.242a27.388 27.388 0 0 1-8.404 4.919 19.978 19.978 0 0 1-5.251 1.144 44.25 44.25 0 0 1-6.232.146 51.58 51.58 0 0 0-8.356-.09c-1.079.111-2.165.195-3.252.314-4.094.446-8.209.523-12.325.656-3.307.097-6.622-.042-9.929-.196-1.65-.077-3.294-.349-4.93-.586-2.785-.418-5.571-.9-8.405-1.318-2.834-.419-5.737-1.166-8.606-1.766-.627-.132-.697-.23-.523-.872.934-4.011 2.013-7.988 3.099-11.958 3.941-14.418 7.887-28.837 11.838-43.256.16-.586.083-1.395.612-1.681.53-.286 1.163.112 1.748.251a223.769 223.769 0 0 1 25.764 7.793 47.655 47.655 0 0 1 7.931 3.754c1.623.97 3.238 1.953 4.875 2.93a129.17 129.17 0 0 1 13.641 9.698c3.899 3.125 7.826 6.307 11.837 9.404 1.49 1.165 3.036 2.254 4.596 3.328a49.99 49.99 0 0 1 5.111 4.382c-4.721 4.751-9.895 8.748-14.839 13.004Zm14.24-14.763a38.442 38.442 0 0 0-5.201-4.186c-3.67-2.525-7.026-5.456-10.529-8.204-4.916-3.852-9.748-7.828-14.978-11.26a193.39 193.39 0 0 0-9.205-5.631 47.166 47.166 0 0 0-7.2-3.335 232.963 232.963 0 0 0-29.093-8.56c-5.57-1.263-11.141-2.693-16.593-4.36-3.531-1.075-7.131-1.878-10.717-2.708-1.887-.44-3.795-.81-5.689-1.22a15.739 15.739 0 0 0-5.083-.168c-2.583.272-5.166.628-7.75.907-3.433.363-6.873.697-10.305 1.025-2.403.238-4.805.447-7.2.698-1.651.167-3.308.147-4.951.405-1.866.293-3.754.481-5.627.697a40.213 40.213 0 0 1-6.789.489 34.646 34.646 0 0 0-6.072.39c-.15.012-.302.012-.452 0a5.302 5.302 0 0 1 1.183-1.472 98.063 98.063 0 0 1 7.66-6.753 41.867 41.867 0 0 1 4.993-3.307 104.758 104.758 0 0 1 26.46-10.793c3.837-1.033 7.75-1.703 11.67-2.351a162.688 162.688 0 0 1 13.231-1.528 37.905 37.905 0 0 1 7.659.07c1.497.174 3.015.237 4.526.362a28.32 28.32 0 0 1 9.47 2.254c1.678.76 3.405 1.395 5.111 2.093a53.613 53.613 0 0 0 7.186 2.17 60.706 60.706 0 0 0 7.806 1.437 26.063 26.063 0 0 1 9.651 3.146 54.798 54.798 0 0 1 6.372 4.25 99.593 99.593 0 0 1 7.771 6.934c1.476 1.395 2.987 2.79 4.477 4.186 5.16 4.821 10.264 9.69 14.623 15.307 1.88 2.435 3.537 5.037 5.201 7.626a310.485 310.485 0 0 1 3.823 6.153 36.426 36.426 0 0 1 4.833 12.97c.231.854.361 1.732.39 2.616-.356.021-.502-.195-.662-.349Z"/><path fill="#060404" d="M156.59 15.716a49.032 49.032 0 0 0-9.985 1.709 2.222 2.222 0 0 1-1.101.167c-.139 0-.292-.09-.285-.258a.632.632 0 0 1 .111-.377 1.957 1.957 0 0 1 1.156-.488c1.651-.398 3.301-.81 4.972-1.11a36.147 36.147 0 0 1 5.48-.648 30.531 30.531 0 0 1 12.047 2.149c1.629.628 3.154 1.514 4.874 1.918a.399.399 0 0 1 .264.447c0 .216-.181.307-.39.328a2.6 2.6 0 0 1-1.232-.265l-3.147-1.263a30.593 30.593 0 0 0-9.596-2.31 20.306 20.306 0 0 0-3.168 0Z"/><path fill="#0B0909" d="M279.625 25.461c-2.414.02-4.823.224-7.207.607a25.818 25.818 0 0 0-5.292 1.535c-.084.042-.167.098-.251.133-.529.216-.933.174-.982-.105-.048-.279.174-.586.697-.795a25.788 25.788 0 0 1 6.378-1.842 72.288 72.288 0 0 1 10.055-.53c.28.002.558.039.828.111a.477.477 0 0 1 .272.293c.049.203-.084.35-.258.46-.253.13-.54.179-.821.14l-3.419-.007Z"/><path fill="#090606" d="M180.016 12.408c0 .174-.292.32-.432.23a8.26 8.26 0 0 1-.696-.482 27.25 27.25 0 0 0-11.141-4.988c-1.671-.32-3.37-.453-5.062-.62-.188 0-.376 0-.564-.036a.371.371 0 0 1-.328-.383.45.45 0 0 1 .307-.433c.278-.063.565-.084.849-.063 1.086.091 2.173.168 3.245.314a26.79 26.79 0 0 1 12.826 5.198c.302.217.593.45.871.698a.432.432 0 0 1 .125.565Z"/><path fill="#110A0A" d="M278.988 34.371a17.598 17.598 0 0 1 5.571.9 2.04 2.04 0 0 1 1.191.698.437.437 0 0 1 .042.523.4.4 0 0 1-.502.154 7.511 7.511 0 0 0-2.089-.796 16.26 16.26 0 0 0-6.329-.418 11.74 11.74 0 0 1-1.393.118.285.285 0 0 1-.299-.237.36.36 0 0 1-.024-.138.375.375 0 0 1 .032-.136.34.34 0 0 1 .082-.113.349.349 0 0 1 .118-.074c.168-.086.346-.15.53-.188a16.484 16.484 0 0 1 3.07-.293Z"/><path fill="#424D4D" d="M91.924 260.32a7.993 7.993 0 0 1-.146-2.233c-.035-.844 0-1.688-.042-2.532 0-.321 0-.663-.292-.893a1.439 1.439 0 0 1 .417-1.193s.07.056.07.083a51.036 51.036 0 0 1-.007 6.768Z"/><path fill="#CA6B03" d="M68.825 212.444c0 .077-.056.189-.118.224a.408.408 0 0 1-.272 0 .415.415 0 0 1-.23-.14c-.327-.46-.382-.949-.146-1.165a.166.166 0 0 1 .063-.031.182.182 0 0 1 .07-.004c.48.077.5.488.591.844.021.084.028.175.042.272Z"/><path fill="#925503" d="m69.265 214.468-.334.321a1.608 1.608 0 0 1-.083-1.256.924.924 0 0 1 .417.935Z"/><path fill="#060505" d="M149.717 75.267c-.279-.07-.39-.265-.355-.44.08-.367.199-.724.355-1.067a36.124 36.124 0 0 1 3.788-6.802 53.792 53.792 0 0 1 9.4-10.41c.696-.606 1.49-1.157 2.249-1.723.187-.142.4-.246.627-.306a.412.412 0 0 1 .348.153.603.603 0 0 1 0 .398c0 .083-.111.153-.181.216-.14.126-.286.245-.439.356a52.789 52.789 0 0 0-9.748 9.865 39.596 39.596 0 0 0-4.965 8.26c-.205.479-.438.944-.696 1.396-.119.049-.293.07-.383.104Z"/><path fill="#060606" d="M188.454 83.864c.111-.468.23-1.221.459-1.94.551-1.71 1.101-3.418 1.741-5.093a31.66 31.66 0 0 1 5.571-9.02c1.121-1.34 2.256-2.673 3.37-4.02.334-.397.599-.843.926-1.248.056-.077.258-.09.376-.063a.335.335 0 0 1 .234.15.337.337 0 0 1 .045.276c-.108.31-.263.602-.46.865-.842 1.088-1.706 2.156-2.569 3.223-.411.51-.843 1.019-1.275 1.52a32.225 32.225 0 0 0-6.608 12.266c-.278.956-.543 1.912-.807 2.867-.063.23-.091.468-.161.698-.069.23-.195.433-.48.44-.286.007-.418-.258-.362-.921Z"/><path fill="#050505" d="M239.181 95.067a51.186 51.186 0 0 1-.947 11.205c-.174.83-.446 1.646-.697 2.463-.053.181-.13.355-.229.516a.434.434 0 0 1-.203.192.43.43 0 0 1-.278.031.367.367 0 0 1-.292-.418c.015-.188.055-.374.118-.552a41.503 41.503 0 0 0 1.574-11.365c.08-3.034-.109-6.069-.564-9.07-.307-1.967-.822-3.885-1.261-5.825a17.752 17.752 0 0 0-.696-2.79c-.063-.168.084-.356.286-.426a.417.417 0 0 1 .501.146c.118.15.201.324.244.51.522 2.644 1.351 5.225 1.789 7.89.414 2.477.633 4.982.655 7.493Z"/><path fill="#070707" d="M273.28 100.558a41.3 41.3 0 0 1-.654 6.105c0 .097 0 .188-.035.286-.14.732-.362 1.018-.697.865-.473-.23-.271-.649-.229-.998.125-1.13.257-2.26.424-3.384.187-1.6.273-3.21.258-4.82a11.085 11.085 0 0 0-1.031-4.975c-1.211-2.56-2.207-5.225-3.384-7.807-.041-.084-.083-.167-.118-.258a.42.42 0 0 1 .125-.502.438.438 0 0 1 .338-.06.426.426 0 0 1 .275.206c.348.698.696 1.333.996 2.03.64 1.584 1.295 3.154 2.089 4.675a15.369 15.369 0 0 1 1.643 8.637Z"/><path fill="#070400" d="M258.231 60.944c0 .377-.041.754-.083 1.124a.33.33 0 0 1-.085.19.33.33 0 0 1-.18.103.396.396 0 0 1-.452-.245 1.35 1.35 0 0 1-.133-.544 26.76 26.76 0 0 0-1.149-6.111 24.953 24.953 0 0 0-5.145-9.677 16.677 16.677 0 0 1-.627-.768c-.202-.265-.23-.432 0-.613a.452.452 0 0 1 .627.111c.299.3.591.607.87.928a24.704 24.704 0 0 1 5.076 9.265 29.052 29.052 0 0 1 1.281 6.237Z"/><path fill="#080400" d="M207.589 32.683c-.042.125-.042.237-.105.293a1.07 1.07 0 0 1-.355.216 18.496 18.496 0 0 0-5.884 3.593 42.908 42.908 0 0 0-5.368 5.421 6.745 6.745 0 0 1-.794.81.433.433 0 0 1-.383 0 .408.408 0 0 1-.16-.496.96.96 0 0 1 .055-.126c.046-.082.097-.161.154-.237 2.966-3.718 6.267-7.053 10.591-9.202.469-.222.953-.413 1.448-.572a.985.985 0 0 1 .55 0c.112.056.174.21.251.3Z"/><path fill="#0A0500" d="m230.318 40.273-.222.698a93.623 93.623 0 0 1-3.482 8.826c-.138.3-.301.586-.487.858a.396.396 0 0 1-.488.174.354.354 0 0 1-.247-.314.348.348 0 0 1 .017-.14c.087-.317.198-.627.335-.927 1.274-3 2.583-5.986 3.655-9.07.054-.182.126-.357.216-.523a.42.42 0 0 1 .446-.265c.244.041.25.25.292.425a1.874 1.874 0 0 1-.035.258Z"/><path fill="#110D0D" d="M106.453 94.964c.054-.114.122-.222.202-.32a.362.362 0 0 1 .508 0c.072.06.135.131.188.209a3.966 3.966 0 0 0 3.482 1.57 3.061 3.061 0 0 0 1.748-.489c.157-.107.319-.204.487-.293a.459.459 0 0 1 .606.195.43.43 0 0 1 .088.336.43.43 0 0 1-.185.292c-.28.255-.594.469-.934.635a5.281 5.281 0 0 1-5.828-1.36 1.355 1.355 0 0 1-.362-.775Z"/><path fill="#110E0E" d="M111.105 81.135c-.056.251-.105.426-.32.489a.515.515 0 0 1-.523-.133 5.947 5.947 0 0 1-.369-.607c-1.058-1.584-2.52-1.667-3.941-.893a5.502 5.502 0 0 1-.738.412c-.084.042-.278-.056-.355-.147a.564.564 0 0 1-.084-.383.762.762 0 0 1 .223-.35 3.76 3.76 0 0 1 4.794-.306c.47.342.855.788 1.125 1.304.083.198.146.404.188.614Z"/><path fill="#141111" d="m116.128 79.769-.919.272c-.169.079-.343.144-.522.195a.562.562 0 0 1-.369-.167.394.394 0 0 1 0-.517 1.6 1.6 0 0 1 .947-.572 2.828 2.828 0 0 1 3.481 1.06 4.44 4.44 0 0 1 .759 1.661c.053.23.053.468 0 .698a.387.387 0 0 1-.418.3.47.47 0 0 1-.348-.189 3.965 3.965 0 0 1-.299-.78 3.403 3.403 0 0 0-.731-1.396 1.946 1.946 0 0 0-1.581-.565Z"/><path fill="#131111" d="M114.781 90.345c.011.214.011.428 0 .642a.915.915 0 0 1-.808.858 3.387 3.387 0 0 1-.696 0 .52.52 0 0 1-.515-.418c-.049-.273.132-.433.376-.51.091-.022.185-.033.278-.035.383 0 .453-.286.411-.6-.062-.467-.167-.935-.223-1.395a.434.434 0 0 1 .073-.336.417.417 0 0 1 .296-.173c.265-.05.425.118.523.362.168.52.264 1.06.285 1.605Z"/><path fill="#110F0F" d="M109.601 82.657a1.297 1.297 0 0 0-1.755-.349 2.486 2.486 0 0 0-.766 3.356 1.527 1.527 0 0 0 1.992.544 1.874 1.874 0 0 0 1.093-1.807 2.795 2.795 0 0 0-.564-1.744Zm-1.17 2.644c-.076.09-.264.195-.355.16a.755.755 0 0 1-.404-.341 2.091 2.091 0 0 1-.111-.586 1.798 1.798 0 0 1 .404-1.396.428.428 0 0 1 .612.063 2 2 0 0 1-.146 2.1Zm1.142-.272c-.181.063-.264-.077-.299-.195a.923.923 0 0 1 0-.412.31.31 0 0 1 .16-.21c.089-.01.18.015.251.07.16.126.209.3.139.698.007-.035-.119.007-.251.05Zm8.572-.056a2.277 2.277 0 0 0-.55-1.276 1.395 1.395 0 0 0-1.887-.391 2.407 2.407 0 0 0-.968 2.351 2.344 2.344 0 0 0 1.727 1.695 1.16 1.16 0 0 0 1.392-.62 1.475 1.475 0 0 0 .286-1.759Zm-1.657.942a.593.593 0 0 1-.606.237.482.482 0 0 1-.341-.398 2.14 2.14 0 0 1 .062-1.395.701.701 0 0 1 .62-.481c.341 0 .453.265.515.551 0 .133.042.272.063.398.026.388-.085.773-.313 1.088Zm.787.558c-.147-.781-.126-.816.522-.872.055.747.055.747-.522.893v-.02Z"/><path fill="#000" fill-rule="evenodd" d="M211.229 340.488c1.344.369 1.825-3.24 1.976-4.357.243-1.811.523-3.369 1.37-4.953.412-.77.905-1.562 1.44-2.226.311-.387 1.093-.891 1.256-1.306.452-1.147-.073-4.031-.067-5.322.004-.829-.467-4.686.379-4.955 1.097-.351 1.384 3.167 1.505 3.959.139.907.116 1.781.2 2.678.078.838.474 1.357.625 1.915.434 1.594-.596 2.934-1.334 4.371-.821 1.599-1.71 3.152-2.286 4.898-.626 1.894-.586 3.889-1.075 5.806-.795 3.116-4.131 4.815-6.832 3.901-1.436-.486-1.134-1.603-1.589-2.89-.172-.489-.656-.761-.8-1.41-.153-.687-.013-1.581.104-2.275.568-3.358 1.49-6.875 2.38-10.143-4.847 3.074-9.981 5.1-15.563 4.984-2.774-.057-4.796-.742-6.806 1.987-1.557 2.115-1.555 5.836-2.191 8.466-.69 2.856-1.312 6.514-2.882 8.903-1.895 2.884-4.482 2.41-4.675-1.436-.165-3.279 1.251-6.386 1.014-9.714-.12-1.674-.692-3.15-.657-4.846.03-1.457.278-2.826.513-4.261-2.773.387-4.92 1.699-6.89 3.901-1.844 2.06-2.613 4.604-4.137 6.96-1.389 2.151-2.619 5.109-5.362 5.036-3.502-.094-3.722-5.058-2.409-7.71.671-1.357 1.603-2.418 2.456-3.613.945-1.321 1.057-2.383 1.251-4.072.149-1.288.189-2.989 1.196-3.839.905-.764 2.041-.392 2.878-1.406.801-.968 1.434-2.435 2.153-3.506.899-1.337 1.829-2.718 2.628-4.137 1.72-3.056 3.979-5.182 6.361-7.572-.864-.62-3.141.065-4.21-.131-1.758-.323-4.032-1.286-5.393-2.671-2.826-2.877-4.184-6.618-4.324-10.942-.133-4.153.432-9.162 3.113-12.248 1.366-1.574 3.115-2.951 4.84-3.954 1.15-.667 3.517-2.123 4.845-1.522 3.068 1.389-3.87 6.915-4.785 7.799-2.915 2.816-4.613 5.535-4.545 10.041.066 4.38 3.732 6.463 6.798 7.912 1.59.752 3.511 1.355 5.288 1.3 2.013-.061 3.382-1.393 5.216-2.174 3.61-1.537 7.313-2.57 11.033-3.605 3.664-1.021 7.65-.79 11.401-1.456 3.528-.626 6.823-1.399 10.157-2.875 3.453-1.53 6.116-6.091 9.881-6.571 2.336-.297 1.194 1.606.185 2.582-1.207 1.169-2.518 2.186-3.726 3.358-3.078 2.984-6.302 4.74-10.202 5.877-2.834.826-5.888 1.599-8.899 2.092-3.802.622-7.628.428-11.362 1.561a37.082 37.082 0 0 0-6.443 2.616c-.855.447-2.622 1.162-2.78 1.956-.205 1.028.509 1.008-.352 1.955-1.451 1.595-3.338 2.724-4.804 4.379-1.632 1.844-3.184 3.633-4.507 5.796-1.311 2.145-2.358 4.225-4.3 5.704-.644.491-1.737 1.351-2.469 1.576-.673.208-.981-.11-1.557.322-1.533 1.146-.615 4.727-1.019 6.501-.518 2.27-1.843 3.975-2.668 6.081 1.154-.287 1.96-2.488 2.554-3.527.665-1.164 1.507-1.949 2.354-2.955 1.78-2.116 2.251-5.01 4.367-7.002 3.833-3.608 9.79-3.297 12.988-8.134.518-.783 1.005-3.048 1.626-3.54 1.139-.903 1.042 1.794.925 2.595-.4 2.733-1.864 5.963-3.778 7.688-.867.782-2.078 1.139-2.83 2.153l-.552.253c.11.45.17.908.178 1.373.018.813-.153 1.606-.182 2.425-.071 2.064.325 3.828.684 5.804.257 1.412-.434 4.355.117 5.506 1.088-4.205 2.368-9.062 4.43-12.799.487-.884 1.453-1.614 1.837-2.524l.547-.7a5.89 5.89 0 0 1-.835-1.14c-1.237-2.991 1.472-1.141 2.553-.887 1.737.408 3.903-.431 5.707-.494 1.758-.061 3.492-.129 5.21-.443 1.857-.339 3.782-.852 5.598-1.412 1.823-.563 3.507-1.722 5.279-2.231-1.771-1.394-2.332-3.208-2.945-5.475-.402-1.49-1.833-5.106-.933-6.618.976-1.64 1.325.882 1.641 1.776.536 1.51 1.347 4.088 2.339 5.221.535.611 1.257.544 1.735 1.359.352.6.4 1.429.454 2.124.163 2.053-.542 3.696-1.17 5.565-1.467 4.358-2.059 9.018-3.978 13.164 1.167.128 2.374-.065 3.538-.2Z" clip-rule="evenodd"/><path fill="#000" fill-rule="evenodd" d="M235.766 306.156c.936-.253 3.881-.623 3.027-2.599-.865-1.998-3.167 1.233-3.027 2.599Zm27.883-15.732c-.549-.197-1.421-.654-2.01-.606-.697.058-1.216.64-1.923.717-1.444.157-2.56-.553-3.504 1.223 2.007 0 6.023.783 7.437-1.334ZM225.78 331.82c1.91.306 2.859-9.407 2.961-10.679-.857-.101-3.167 1.836-3.368 2.728-.221.981.541 2.553.633 3.572.137 1.509-.008 2.893-.226 4.379Zm10.645-55.445c-2.3.258-4.873 1.115-6.984-.357-1.712-1.194-2.346-3.712-3.787-5.19 0 4.263 3.33 7.622 6.718 8.975 1.726.689 4.369-.35 5.894.773.442.325 1.384 1.808 1.419 2.42.118 2.088-1.174.219-1.906.284-1.018.089-2.433 3.176-3.282 4.115-.637.706-1.357 1.279-2.078 1.886-.237.2-1.458.911-1.519 1.254-.053.306.616 1.426.757 1.715.97 1.99 2.139 3.417 3.672 4.821.756.691 1.543 1.077 2.301 1.651.247.189 1.252 1.764.96 1.698.422-1.477 1.624-3.187 2.424-4.492.82-1.338 1.901-2.74 3.276-3.282.604-.238 1.604-.443 2.232-.501.442-.018.879.024 1.312.125.63.32.877.062.739-.774.663-1.583.272-3.576 1.114-5.184.988-1.888 2.605-2.743 4.456-2.53.832.096 1.729.507 2.553.339.816-.166 1.742-.925 2.541-1.251 3.103-1.271 6.933-2.815 9.366-5.462.37-.401 1.412-1.514 1.494-2.091l-.65-1.687c-.057-.825-.406-1.05-1.046-.675-.753-.018-2.182.978-2.937 1.262-.957.362-1.921.68-2.863 1.089-1.635.709-3.227 1.437-4.944 1.859-1.778.436-2.624.701-3.56-1.237-.915-1.896-.785-3.004-2.915-2.727-1.898.246-3.489 1.071-5.239 1.941-1.162.577-2.676 1.641-3.858 1.869-.876.169-1.822-.224-2.665-.426-1.066-.255-1.911-.211-2.995-.21Zm22.049 11.009h.956l-2.223-1.505c-1.044 1.939-3.652 1.096-5.233 2.251-1.298.949-2.517 4.992-1.27 6.465 1.732 2.047 2.585-2.495 3.077-3.541 1.001-2.129 2.509-3.724 4.693-3.67Zm-30.302 4.34c-.775-1.685-.267-3.296.885-4.191 1.66-1.289 3.332-2.702 4.961-4.131-2.768-.5-4.752-1.554-7.009-3.498-2.604-2.243-3.345-4.315-3.272-8.104.036-1.901-.194-7.306 2.472-5.737 2.202 1.297 2.506 4.921 4.875 6.15 2.341 1.213 5.099-.045 7.561.9.701.269 2.575 2.163 3.144 2.155.756-.013 2.656-1.937 3.371-2.394 1.795-1.146 4.115-2.264 6.114-2.594 1.256-.208 1.664-.356 2.574.709 1.019 1.193 1.339 2.668 1.702 4.217 3.865-1.832 7.769-3.542 11.744-5.036 1.262-.474 2.129-1.081 3.205-1.846 1.542-1.094 2.4-.587 2.68 1.676.494 3.986-1.622 6.536-3.461 9.52-1.014 1.645-1.707 2.808-3.355 3.648-1.717.875-3.782.593-5.646 1.25.478.67.731 2.232 1.152 2.703.343.383 1.982.32 2.534.654 1.658 1.003 1.461 2.676.434 4.331-1.158 1.867-2.87 2.211-4.742 2.374-.837.072-1.584.085-2.422.017-.542-.044-2.431-.718-2.839-.519-.485.237-.597 1.467-.817 2.028-.351.893-.741 1.796-1.565 2.209-.714.357-1.518.26-2.166-.23-.87-.655-.631-1.429-1.179-2.271-.051-.887-.38-1.055-.985-.505-.462.186-.924.374-1.384.564-.954.4-1.844.786-2.683 1.457-1.608 1.286-2.581 3.456-4.372 4.36 1.169 2.3.439 5.429-1.528 6.623-.443.269-.986.599-1.458.774-.351.13-1.269.025-1.506.25-.344.328-.532 3.426-.773 4.116-.827 2.373-2.583 3.554-3.622 5.707-1.014 2.101-.796 5.361-1.091 7.727-.366 2.931-.598 6.007-1.688 8.727-.729 1.819-2.917 3.976-4.849 3.618-2.84-.528-1.605-4.705-.734-6.505 1.343-2.777 1.342-4.878 1.001-7.95-1.121.192-3.9 1.455-3.766-1.005.091-1.678 3.238-3.216 4.34-4.059 2.493-1.904 5.044-4.121 7.149-6.561.87-1.009 2.115-2.872 2.558-4.251.323-1.007.254-1.987.323-3.039.065-.969.803-2.3.767-3.147-.054-1.256-2.927-3.263-3.748-4.593-1.171-1.895-2.155-4.135-2.886-6.298Z" clip-rule="evenodd"/><path fill="#000" fill-rule="evenodd" d="M223.05 312.564c-.933-1.47.316-4.758.694-6.32.233-.962.945-4.578 2.073-3.807 1.096.75-.13 4.139-.35 5.075-.325 1.388-.798 5.017-2.417 5.052ZM247.941 280.4c-1.374-2.695 1.763-7.298 3.333-3.573.213.505.695 1.865.115 2.283-.623.449-.489-.204-1.002-.302-.611-.117-.411-.445-1.121-.089-.505.254-.976 1.216-1.325 1.681Z" clip-rule="evenodd"/></svg>