<svg width="102" height="101" viewBox="0 0 103 100" fill="none" xmlns="http://www.w3.org/2000/svg">
<path d="M8.71094 72.8828V79.6201C8.71094 81.8215 10.259 83.6225 12.1785 83.6225H22.0861C23.9437 83.6225 25.4918 81.8215 25.4918 79.6201" stroke="#0C0C0C" stroke-width="2.5" stroke-linecap="round" stroke-linejoin="round"/>
<path d="M86.8925 73.5548C91.5475 73.5548 100 72.8016 100 57.9259C100 51.712 93.0175 43.2385 90.445 40.414C90.445 40.414 100 43.0502 100 35.6438C100 31.8778 96.57 30.9363 93.8138 31.3129C89.0975 31.8778 86.7088 34.3885 86.7088 34.3885C84.6875 29.8065 80.645 22.6511 77.3987 20.3287C74.6425 18.2574 66.6188 16.5 51 16.5C35.3813 16.5 27.3575 18.2574 24.6013 20.3287C21.355 22.6511 17.3125 29.8065 15.2912 34.3885C15.2912 34.3885 12.9025 31.8778 8.18624 31.3129C5.42999 30.9363 2 31.8778 2 35.6438C2 43.0502 11.555 40.414 11.555 40.414C8.98249 43.2385 2 51.712 2 57.9259C2 72.8016 10.4525 73.5548 15.1075 73.5548" stroke="#0C0C0C" stroke-width="2.5" stroke-linecap="round" stroke-linejoin="round"/>
<path d="M81.2046 36.6877C78.9022 31.4137 75.5093 26.3259 73.9946 25.209C73.9946 25.209 69.8746 22.541 51.3347 22.541C32.7948 22.541 28.6748 25.209 28.6748 25.209C27.1601 26.3259 23.7672 31.4137 21.4648 36.6877C21.4648 36.6877 35.1577 37.3081 51.3347 37.3081C71.0258 37.3081 81.2046 36.6877 81.2046 36.6877Z" stroke="#0C0C0C" stroke-width="2.5" stroke-linecap="round" stroke-linejoin="round"/>
<path d="M23.4805 73.5547C29.906 73.5547 72.0961 73.5547 78.5216 73.5547" stroke="#0C0C0C" stroke-width="2.5" stroke-linecap="round" stroke-linejoin="round"/>
<path d="M76.5078 79.6201C76.5078 81.8215 78.0559 83.6225 79.9135 83.6225H89.821C91.7406 83.6225 93.2886 81.8215 93.2886 79.6201V72.8828" stroke="#0C0C0C" stroke-width="2.5" stroke-linecap="round" stroke-linejoin="round"/>
<path d="M24.8273 64.157H14.7101C12.9396 64.157 11.4221 62.9041 11.1692 61.1499L10.7266 58.0801C10.7266 56.2633 12.2441 54.7598 14.0778 54.7598H24.8273C26.661 54.7598 28.1786 56.2633 28.1786 58.0801V60.8367C28.1786 62.6535 26.661 64.157 24.8273 64.157Z" stroke="#0C0C0C" stroke-width="2.5" stroke-linecap="round" stroke-linejoin="round"/>
<path d="M63.7529 73.5554V68.5666C63.7529 67.2362 62.7171 66.1719 61.4871 66.1719H40.5119C39.2819 66.1719 38.2461 67.2362 38.2461 68.5666V73.5554" stroke="#0C0C0C" stroke-width="2.5" stroke-linecap="round" stroke-linejoin="round"/>
<path d="M60.3967 60.1309H42.2734" stroke="#C1121F" stroke-width="2.5" stroke-linecap="round" stroke-linejoin="round"/>
<path d="M63.7529 54.7598H38.2461" stroke="#C1121F" stroke-width="2.5" stroke-linecap="round" stroke-linejoin="round"/>
<path d="M31.5326 50.0619L24.8203 43.3496" stroke="#C1121F" stroke-width="2.5" stroke-linecap="round" stroke-linejoin="round"/>
<path d="M77.7146 64.157H87.4426C89.145 64.157 90.6042 62.9041 90.8474 61.1499L91.273 58.0801C91.273 56.2633 89.8138 54.7598 88.0506 54.7598H77.7146C75.9514 54.7598 74.4922 56.2633 74.4922 58.0801V60.8367C74.4922 62.6535 75.9514 64.157 77.7146 64.157Z" stroke="#0C0C0C" stroke-width="2.5" stroke-linecap="round" stroke-linejoin="round"/>
<path d="M71.1367 50.0619L77.1778 43.3496" stroke="#C1121F" stroke-width="2.5" stroke-linecap="round" stroke-linejoin="round"/>
</svg>
