<svg width="102" height="101" viewBox="0 0 103 100" fill="none" xmlns="http://www.w3.org/2000/svg">
<path d="M90.3399 54.4858C88.7688 54.5782 87.4288 53.3306 87.3364 51.7596L86.7357 37.3427C86.6895 35.7716 87.8909 34.4315 89.5081 34.3391C91.0792 34.2929 92.4193 35.5405 92.4655 37.1116L93.1124 51.4823C93.1586 53.0996 91.911 54.4396 90.3399 54.4858Z" stroke="#0C0C0C" stroke-width="2.5" stroke-linecap="round" stroke-linejoin="round"/>
<path d="M77.1227 87.4328H96.7149C98.6094 87.4328 100.088 85.8617 99.9957 83.9672L96.8073 30.3197C96.7149 28.3328 95.5597 26.5769 93.7576 25.6989L88.5361 23.0651L87.5195 13.9621C87.5195 13.9621 86.5029 13.5 83.1298 13.5C80.08 13.5 78.9248 13.9621 78.9248 13.9621L77.9083 23.0651L74.2578 24.9134" stroke="#0C0C0C" stroke-width="2.5" stroke-linecap="round" stroke-linejoin="round"/>
<path d="M77.9102 23.0645H88.538" stroke="#0C0C0C" stroke-width="2.5" stroke-linecap="round" stroke-linejoin="round"/>
<path d="M84.1914 80.5488H99.7635" stroke="#0C0C0C" stroke-width="2.5" stroke-linecap="round" stroke-linejoin="round"/>
<path d="M75.7846 34.8942C75.7846 38.4985 72.8735 41.4558 69.2693 41.4558C65.665 41.4558 62.7539 38.4985 62.7539 34.8942C62.7539 31.29 65.665 28.3789 69.2693 28.3789C72.8735 28.3789 75.7846 31.29 75.7846 34.8942Z" stroke="#0C0C0C" stroke-width="2.5" stroke-linecap="round" stroke-linejoin="round"/>
<path d="M69.6836 32.3066C70.3767 32.4453 70.9774 32.9073 71.3471 33.5081" stroke="#0C0C0C" stroke-width="2.5" stroke-linecap="round" stroke-linejoin="round"/>
<path d="M67.1867 86.8778C55.9582 89.4654 44.7296 82.4418 42.142 71.2133C39.5543 59.9385 46.578 48.71 57.8065 46.1223C69.0813 43.5347 80.3098 50.5583 82.8974 61.833C85.4851 73.1078 78.4615 84.2901 67.1867 86.8778Z" stroke="#0C0C0C" stroke-width="2.5" stroke-linecap="round" stroke-linejoin="round"/>
<path d="M66.9415 69.6358C66.7613 69.6358 66.5812 69.6583 66.401 69.7033C66.097 69.7709 65.7591 68.5885 64.7795 67.4062C64.1376 66.6292 63.3269 66.1562 62.381 66.1562C61.5026 66.1562 60.6581 66.6292 60.05 67.3724C59.0703 68.4872 58.7325 69.7371 58.496 69.6696C58.3609 69.647 58.2258 69.6358 58.0907 69.6358C56.6042 69.6358 55.4219 71.2235 55.4219 73.1829C55.4219 75.1422 56.6042 76.73 58.0907 76.73C58.5974 76.73 59.6446 76.4259 60.1176 76.2233C61.4688 75.7503 63.9011 75.7841 64.8133 76.1895C65.32 76.3922 66.401 76.73 66.9415 76.73C68.3941 76.73 69.6103 75.1422 69.6103 73.1829C69.6103 71.2235 68.3941 69.6358 66.9415 69.6358Z" fill="#C1121F"/>
<path d="M55.8943 65.1781C55.3538 63.3876 53.7998 62.3404 52.4485 62.7795C51.0635 63.2525 50.3878 65.0767 50.9283 66.8672C51.4689 68.6238 53.0228 69.7048 54.4079 69.2319C55.7929 68.7589 56.4348 66.9685 55.8943 65.1781Z" fill="#C1121F"/>
<path d="M59.2384 63.8939C60.8599 63.5899 61.8733 61.6643 61.5355 59.6036C61.1977 57.5091 59.6099 56.0565 58.0222 56.3605C56.4007 56.6308 55.3872 58.5564 55.725 60.6508C56.0628 62.7115 57.6506 64.1642 59.2384 63.8939Z" fill="#C1121F"/>
<path d="M72.5837 62.7795C71.1986 62.3404 69.6446 63.3876 69.1041 65.1781C68.5636 66.9685 69.2393 68.7589 70.6243 69.2319C71.9756 69.7048 73.5296 68.6238 74.0701 66.8672C74.6106 65.0767 73.9687 63.2525 72.5837 62.7795Z" fill="#C1121F"/>
<path d="M65.7605 63.8936C67.4158 64.1976 69.0035 62.7112 69.3413 60.6168C69.6792 58.5223 68.6657 56.5629 67.0104 56.2589C65.3889 55.9886 63.8011 57.4413 63.4633 59.5357C63.1255 61.664 64.1389 63.5896 65.7605 63.8936Z" fill="#C1121F"/>
<path d="M22.9065 75.709C20.6961 80.4189 15.8609 82.7505 12.0849 80.9319C8.30879 79.1132 7.01939 73.8904 9.22977 69.1805C11.4402 64.4706 16.2754 62.139 20.0514 63.9576C23.8275 65.7763 25.0709 71.0458 22.9065 75.709Z" stroke="#0C0C0C" stroke-width="2.5" stroke-linecap="round" stroke-linejoin="round"/>
<path d="M35.1562 39.2412L41.8795 24.8317C44.8727 18.3964 51.0434 14.1062 57.9969 13.5L40.5901 50.806" stroke="#0C0C0C" stroke-width="2.5" stroke-linecap="round" stroke-linejoin="round"/>
<path d="M35.158 62.4181L27.8361 78.0867C24.06 86.1541 15.725 90.1645 9.23202 87.0401C2.73903 83.9624 0.528651 74.869 4.30472 66.8016C8.08079 58.7342 16.4158 54.7238 22.9088 57.8482C23.8912 58.3456 24.7814 58.9673 25.5796 59.7135L29.7241 50.8066" stroke="#0C0C0C" stroke-width="2.5" stroke-linecap="round" stroke-linejoin="round"/>
<path d="M37.1797 66.7866L12.3164 13.5C19.2699 14.1062 25.4406 18.3964 28.4338 24.8317L41.3184 53.0159" stroke="#0C0C0C" stroke-width="2.5" stroke-linecap="round" stroke-linejoin="round"/>
<path d="M34.332 49.0391L34.6919 49.82" stroke="#0C0C0C" stroke-width="2.5" stroke-linecap="round" stroke-linejoin="round"/>
<path d="M2 43.2535L3.19729 42.041" stroke="#0C0C0C" stroke-width="2.5" stroke-linecap="round" stroke-linejoin="round"/>
<path d="M8.49219 36.6304L9.73552 35.418" stroke="#0C0C0C" stroke-width="2.5" stroke-linecap="round" stroke-linejoin="round"/>
<path d="M9.73552 43.2535L8.49219 42.041" stroke="#0C0C0C" stroke-width="2.5" stroke-linecap="round" stroke-linejoin="round"/>
<path d="M3.19729 36.6304L2 35.418" stroke="#0C0C0C" stroke-width="2.5" stroke-linecap="round" stroke-linejoin="round"/>
</svg>
