<svg xmlns="http://www.w3.org/2000/svg" viewBox="0 0 872 253" fill="none"><path stroke="url(#a)" stroke-width="4" d="M1 238.819c49.666-16.274 66.77-39.781 136.529-39.781s49.17 39.781 128.769 48.822c54.262 6.163 80.229 4.422 135.626-32.548 55.396-36.97 76.409-79.561 76.409-79.561s17.752-41.113 11.461-66.903C481.598 35.246 462.7 9.378 426.757 3.75 403.193.062 388.088 5.2 369.45 18.217c-10.945 7.643-22.923 24.82-22.923 24.82s-9.342-15.324-26.743-24.82c-18.096-9.876-33.755-6.488-53.486 0-23.939 7.87-37.878 19.498-47.756 41.588-9.305 20.81-5.309 35.832 0 57.863 9.161 38.016 61.127 81.37 61.127 81.37s37.923 29.681 66.858 39.781c35.171 12.276 58.122 11.582 95.511 9.041 59.312-4.031 67.851-48.822 143.268-48.822 75.416 0 72.991 6.554 134.518 26.259C790.275 247.86 870 199.038 870 199.038"/><defs><linearGradient id="a" x1="870" x2="-2.993" y1="216.586" y2="246.38" gradientUnits="userSpaceOnUse"><stop offset=".005" stop-color="#C1121F" stop-opacity="0"/><stop offset=".113" stop-color="#C1121F"/><stop offset=".883" stop-color="#C1121F"/><stop offset=".999" stop-color="#C1121F" stop-opacity="0"/></linearGradient></defs></svg>