<svg xmlns="http://www.w3.org/2000/svg" viewBox="0 0 104 101" fill="none"><path stroke="#0C0C0C" stroke-linecap="round" stroke-linejoin="round" stroke-width="2.5" d="M14.063 80.403c6 .5 11.437 1.313 15.562 3.5.167.084.354.167.563.25a.98.98 0 0 1 .25.188 117.91 117.91 0 0 0 5.625 2.813c5.5 2.687 10 4.062 15.437 4.187 6.687.187 18.313-5.438 27.25-10.313 17.188-9.437 26.75-15.5 22.062-19.312-4.437-3.625-17.687 4.5-29.062 10.25"/><path stroke="#0C0C0C" stroke-linecap="round" stroke-linejoin="round" stroke-width="2.5" d="M35.125 72.34c8.063.624 13.25 2.937 20.313 5.374 7.187 2.438 11.812 4 13 .063C69.75 73.589 61.062 67.152 52 63.527c-6.5-2.688-11.125-7.875-17.188-8.625-5-.688-9.562.5-13.187 1.687a100.959 100.959 0 0 1-7.563 2.188M90.188 58.34c-.626-.75-1.938-1.188-3.75-1.188-4.938.063-12.563 5.25-19.5 9.625M78.875 55.215c-.583-.125-1.27-.167-2.063-.125-3.937.375-8.374 4.437-14.25 8.75M68.25 54.777c-.542-.125-1.208-.125-2 0-2.937.438-4.125 2.688-8.5 6.25"/><path stroke="#0C0C0C" stroke-linecap="round" stroke-linejoin="round" stroke-width="2.5" d="M13.063 84.777H3c-.563 0-1-.437-1-.937V56.027c0-.5.437-.937 1-.937h10.063c.562 0 1 .437 1 .937V83.84c0 .5-.438.937-1 .937ZM86.207 38.509l-.328-.33M90.364 42.68l-.329-.328M86.207 42.352l-.328.329M90.364 38.18l-.329.329M94.414 20.398l.876-.878M99.45 15.347l.875-.878M100.325 20.398l-.876-.878M95.29 15.347l-.876-.878M24.27 9.42l-.329-.33M28.43 13.591l-.328-.33M24.27 13.262l-.329.329M28.43 9.09l-.328.33M13.875 43.89l.875-.878M18.91 38.84l.876-.88M19.786 43.89l-.876-.878M14.75 38.84l-.875-.88"/><path stroke="#C1121F" stroke-linecap="round" stroke-linejoin="round" stroke-width="2.5" d="M55.24 51.353c-.766-.44-19.369-11.966-19.369-24.041 0-5.818 4.706-10.539 10.614-10.539 3.83 0 7.442 2.196 9.192 5.49 1.86-3.294 5.362-5.49 9.302-5.49 5.8 0 10.614 4.72 10.614 10.539 0 12.075-18.603 23.602-19.369 24.04l-.547.33-.437-.33Z"/><path stroke="#C1121F" stroke-linecap="round" stroke-linejoin="round" stroke-width="2.5" d="M64.977 23.25c2.297 0 4.048 1.866 4.048 4.062"/></svg>