<svg xmlns="http://www.w3.org/2000/svg" viewBox="0 0 280 376" fill="none"><g clip-path="url(#a)"><path fill="#414141" d="M97.621 323.027c3.027.679 5.696.113 8.318-.434 5.772-1.198 11.346-3.112 16.797-5.309 5.876-2.368 11.666-4.933 17.495-7.404 2.207-.934 4.442-1.688 6.818-2.235 3.999-.934 7.508-3.216 10.214-6.338 2.16-2.49 4.169-5.187 5.819-8.044 2.405-4.169 4.508-8.526 6.602-12.874 1.632-3.395 3.018-6.913 4.574-10.346.491-1.084 1.056-2.197 1.83-3.093 1.735-2.037 4.894-1.481 5.941.99.802 1.886.566 3.838.151 5.791-.528 2.508-1.094 5.008-1.452 7.545-.236 1.735-.462 3.555.651 5.498 1.084-.481 2.112-.726 2.885-1.311a322.856 322.856 0 0 0 9.271-7.234c2.82-2.273 5.508-4.706 8.366-6.922 1.414-1.094 3.027-2.009 4.668-2.726 2.509-1.094 3.706-.603 5.291 1.773.245.368.377.811.66 1.443 1.113-.245 2.245-.575 3.395-.716 3.028-.378 4.961 1.716 4.31 4.706-.217 1.018-.735 1.961-1.179 3.112.745.481 1.538.877 2.207 1.433 1.952 1.623 2.301 3.367 1.028 5.593-.745 1.292-1.669 2.48-2.518 3.716 4.867 3.207 5.376 5.479 1.641 9.761-2.961 3.395-6.102 6.753-9.648 9.507-14.429 11.185-29.038 22.134-43.6 33.141-1.565 1.178-3.093 2.31-4.197 4.027-.792 1.235-2.027 2.225-3.187 3.178-4.565 3.716-9.186 7.29-14.675 9.676-4.14 1.802-7.988 4.254-12.081 6.159-9.771 4.527-20.089 7.167-30.68 9.11-7.875 1.443-15.57 1.151-23.36.038-.274-.038-.52-.236-.783-.368-.406-.934.415-1.311.858-1.858.754-.924 1.584-1.811 2.178-2.829.17-.302-.282-1.028-.565-1.5-.123-.198-.529-.311-.811-.32-4.546-.208-9.14-.51-12.572 3.414-.189.217-.5.339-1 .66-.802-.189-1.82-.349-2.791-.66-17.684-5.612-29.897-17.184-36.669-34.329-2.716-6.857-4.29-14.119-5.328-21.456-1.245-8.818-1.641-17.684-1.924-26.587-.264-8.271 1.141-16.202 2.876-24.162.095-.424.378-.811.613-1.292 1.566-.151 3.216-.094 4.725-.528 1.547-.453 2.962-1.396 4.697-2.254.274 1.235.462 2.358.783 3.452.207.707.5 1.433.934 2.027 1.046 1.424 3.489 1.066 4.036-.632.32-.971.302-2.056.462-3.385.726.075 1.415.132 2.094.235 1.301.189 2.461-.037 3.027-1.348.472-1.066.123-2.085-.66-2.905-.707-.736-1.471-1.415-2.31-2.226 2.046-1.811 4.894-2.027 6.658-4.272-1.141-.981-2.396-.67-3.48-.943-1.17-.293-2.34-.736-3.518-.764-1.33-.019-2.17-.509-3.084-1.434-.915-.914-2.216-1.452-3.518-2.254l-2.452 2.603c-2.622-.962-2.197-2.904-1.556-4.687-.434-.349-.641-.622-.905-.707-5.423-1.821-9.168-5.659-12.308-10.214-5.838-8.45-8.648-17.882-8.743-28.086-.028-2.839-.547-5.102-2.376-7.422C1.8 191.18-.19 184.116.019 176.477c.282-10.289 6.743-22.87 20.918-26.115.48-.839 1.113-1.848 1.64-2.904 13.11-26.426 48.93-37.329 75.412-17.382 6.149 4.631 12.317 9.214 18.494 13.807.217.161.557.17.858.255 1.104-.424.811-1.462.906-2.273.952-8.101 2.235-16.137 4.583-23.964 2.283-7.574 5.338-14.76 10.865-20.626.292-.312.434-.764.764-1.377l-3.103-2.773c-1.047.915-1.943 1.66-2.81 2.452-3.669 3.358-7.196 6.894-11.025 10.054-5.536 4.564-11.818 7.79-18.9 9.308-3.886.83-7.79.877-11.704.443-2.283-.254-4.461-1.009-6.178-2.565a9.984 9.984 0 0 1-2.33-3.225c-.707-1.594-.188-2.952 1.387-3.82 7.8-4.291 13.902-10.553 19.862-16.985 3.178-3.433 6.357-6.866 9.61-10.224 1.575-1.622 3.254-3.14 4.98-4.602 5.913-5.008 12.392-4.414 18.032-.971a18.905 18.905 0 0 1 3.839 3.14c2.678 2.858 5.225 5.838 7.818 8.79.783.886 1.519 1.81 2.367 2.83 1.264-.425 2.396-.783 3.509-1.189 6.573-2.414 13.222-2.82 19.965-.755 1.151.35 2.235.642 3.518.33 10.091-2.433 19.758-.97 29.086 3.368.396.188.848.282 1.499.49.623-.736 1.349-1.471 1.934-2.31 1.376-1.981 2.716-3.99 4.017-6.027 3.509-5.49 8.705-7.168 14.854-6.48 3.782.425 7.413 1.576 10.62 3.65 2.904 1.877 5.762 3.886 8.374 6.15 3.075 2.66 5.923 5.592 8.743 8.535 5.857 6.092 11.629 12.27 17.419 18.419.83.877 1.688 1.744 2.377 2.725 1.254 1.792.981 3.942-.811 5.197-1.207.849-2.622 1.49-4.037 1.971-16.042 5.376-33.801-1.745-41.732-16.712-.708-1.33-1.302-2.726-2.009-4.055-.641-1.198-1.358-2.368-2.952-2.735-1.65.66-2.292 2.14-2.971 3.668.33.632.575 1.179.887 1.679 6.243 9.837 9.591 20.748 11.902 32.037 1.065 5.216.952 10.516.858 15.788-.132 7.536-.632 15.071-.802 22.616-.198 8.592-.169 17.193-.292 25.794-.038 2.877.915 5.131 3.008 7.224 4.905 4.904 9.582 10.044 14.307 15.128 1.783 1.914 3.848 3.31 6.263 4.329 4.593 1.942 8.931 4.376 12.958 7.346 1.481 1.094 2.197 2.302 1.943 4.207-.481 3.565.585 6.875 2.141 10.025.32.641.848 1.169 1.499 2.037.66-.726 1.236-1.16 1.556-1.745.623-1.15 1.104-2.376 1.811-3.932.623.745 1.075 1.112 1.311 1.584 2.396 5.017 3.32 10.336 2.848 15.844-.65 7.668-6.375 13.496-14.354 14.609-2.226.311-4.508.179-6.771.236-1.179.028-2.358 0-3.848 0 .094 1.207.075 2.207.264 3.178a367.946 367.946 0 0 1 6.488 74.251c-.037 2.867-.254 5.725-.481 8.582-.085 1.123-.452 1.274-2.225 1.321-.896-1.207-.576-2.603-.566-3.933.019-3.772.113-7.545.132-11.317.151-26.209-2.905-52.069-8.318-77.684-.095-.434-.321-.84-.557-1.443-.877-.33-1.82-.792-2.82-1.028-11.789-2.773-23.049-7.064-34.131-11.874-5.262-2.282-10.572-4.451-15.363-7.658-1.122-.755-2.282-1.49-3.292-2.386-2.706-2.414-2.782-4.546-.377-7.394.283-.34.585-.66 1.019-1.151-1.085-.867-2.141-1.641-3.113-2.527-2.414-2.198-2.527-4.046-.462-6.659.18-.235.491-.367.66-.603.17-.227.236-.528.415-.943-.565-.764-1.273-1.538-1.782-2.424-1.49-2.575-.283-5.31 2.622-5.876 1.009-.198 2.094-.028 3.197-.028.141-.151.453-.33.519-.575 1.113-4.15 2.348-5.15 6.347-4.046 3.47.962 6.8 2.452 10.129 3.838 4.178 1.736 8.271 3.66 12.449 5.385 1.499.623 3.027 1.377 5.055 1.085.038-.688.207-1.405.075-2.056-.641-3.131-1.99-5.998-3.536-8.771-.585-1.056-1.292-2.056-1.736-3.169-.877-2.197-1.131-4.451.698-6.328.962-.981 1.057-2.028.981-3.301-.547-8.601-.33-17.183.208-25.775.462-7.375.735-14.769.952-22.163.189-6.498 0-12.996-1.396-19.362-1.716-7.819-4.14-15.448-7.648-22.663-6.008-12.374-15.797-19.928-29.34-22.493-4.791-.906-9.601-.934-14.383.132-2.527.566-4.895.707-7.488-.255-4.97-1.858-10.11-1.462-15.118.141-10.431 3.34-18.193 9.884-23.154 19.645-3.168 6.234-4.96 12.949-6.337 19.759-2.443 12.034-3.32 24.2-2.698 36.46.378 7.394 1.66 14.675 2.943 21.956 2.509 14.231 1.754 28.284-2.763 42.006-2.688 8.158-5.923 16.127-8.922 24.181-2.631 7.064-5.3 14.119-7.885 21.192-2.027 5.546-3.423 11.251-3.989 17.136-.962 10.063-1.858 20.126-2.763 30.189-.038.434.104.887.207 1.717l-.028-.038ZM34.602 167.272c.774 1.358 1.377 2.377 1.953 3.424 1.518 2.782 3.187 5.489 4.489 8.365 6.517 14.411 8.63 29.406 5.696 45.034-.245 1.301-.745 2.641.02 3.933 3.149.792 3.772-2.453 5.8-3.745.895.604 1.791 1.132 2.583 1.773 9.601 7.809 20.588 12.478 32.802 14.157 8.535 1.178 16.844.254 24.671-3.688 1.981-1 3.254-2.358 4.028-4.555 2.508-7.149 4.394-14.43 4.932-21.994.462-6.469.66-12.948-.406-19.399-1.009-6.093-2.178-12.185-2.791-18.325-.349-3.499-1.632-6.357-3.584-9.092-1.377-1.924-3.159-3.055-5.545-3.536-4.961-1-9.903-.632-14.873-.368-3.914.207-7.838.453-11.751.405-5.103-.066-9.8-1.565-13.864-4.772-.689-.547-1.443-1.018-2.207-1.556-3.49 2.085-6.753 4.254-10.205 6.036a86.09 86.09 0 0 1-10.355 4.508c-3.64 1.311-7.422 2.235-11.383 3.395h-.01Zm113.711 162.395c-1.924-.793-3.565-1.547-5.262-2.132-1.726-.594-2.962.491-2.839 2.33.104 1.612.867 2.885 2.084 3.866 1.141.915 2.377 1.717 3.791 2.726-.613.575-.999.981-1.433 1.339-.585.481-1.245.858-1.783 1.377-1.235 1.188-1.452 2.509-.679 3.631.708 1.028 1.66 1.292 3.207.792.688-.226 1.32-.603 2.112-.971.359.934.689 1.754 1 2.584.349.934 1.028 1.481 2.009 1.584 1.217.142 2.037-.499 2.518-1.518.481-1.037.83-2.131 1.32-3.442.906.632 1.509 1.047 2.104 1.461 1.358.944 2.687 1.953 4.102 2.792.425.245 1.217.208 1.669-.028.717-.377 1-1.189.632-1.943a58.336 58.336 0 0 0-2.348-4.348c-.575-.971-1.283-1.858-2.009-2.895 1.896-.519 3.49-.972 5.093-1.368.226-.056.519.189.924.349.293 1.047.613 2.169.906 3.216 1.603.349 2.442-.679 3.357-1.377 14.043-10.666 28.133-21.276 42.044-32.112 3.178-2.471 5.762-5.716 8.544-8.677.67-.707 1.509-1.603.425-3.018-.821.424-1.783.745-2.547 1.339-2.989 2.292-5.903 4.687-8.884 6.989-.943.726-1.971 1.395-3.055 1.858-.368.16-1.132-.274-1.538-.632-.245-.217-.349-.953-.179-1.226.632-1.01 1.339-2 2.16-2.867 3.395-3.631 6.847-7.215 10.261-10.837a68.055 68.055 0 0 0 3.009-3.367c.499-.603.726-1.311-.076-2.065-1.707.207-2.839 1.49-4.055 2.546-3.754 3.273-7.432 6.611-11.176 9.884-1.019.887-2.084 1.735-3.244 2.433-.387.227-1.208.076-1.632-.198-.689-.452-.849-1.292-.34-1.98a31.495 31.495 0 0 1 2.613-3.094c3.989-4.112 8.035-8.167 12.006-12.298 1.245-1.301 2.376-2.716 3.451-4.168.444-.595.519-1.396-.631-1.924-.783.443-1.783.839-2.575 1.49a122.689 122.689 0 0 0-5.791 5.045c-3.31 3.075-6.545 6.244-9.865 9.309-.867.802-1.914 1.415-2.952 1.99-.292.16-1.037.009-1.235-.255-.321-.424-.528-1.084-.462-1.603.075-.556.452-1.113.82-1.566a64.252 64.252 0 0 1 2.65-3.084c3.48-3.763 6.989-7.497 10.45-11.279.641-.698 1.764-1.292 1.085-2.745-1.613.095-2.783 1.066-3.905 1.971-2.942 2.349-5.772 4.848-8.705 7.206-3.169 2.546-6.366 5.074-9.648 7.46-1.188.858-2.641 1.452-4.065 1.867-1.556.453-3.074-.462-3.574-2.009-.321-.99-.594-2.074-.528-3.102.188-3.15.49-6.291.877-9.422.179-1.49.707-2.933.934-4.414.113-.726-.104-1.518-1.49-1.424-.632 1.339-1.349 2.811-2.028 4.291-2.122 4.659-4.074 9.403-6.385 13.968-1.971 3.885-4.216 7.648-6.574 11.317-2.386 3.716-5.47 6.8-9.421 8.931-.764.415-1.424 1-2.132 1.5 2.471 3.631 4.989 6.998 7.14 10.581 2.141 3.575 3.942 7.357 4.81 11.676-2.556-.603-4.82-1.15-7.262-1.726.188-.915.396-1.773.547-2.64.179-1.028.405-2.066.462-3.113.056-1.207-.764-1.933-1.971-1.971-2.377-.075-4.037 1.151-5.15 3.075-.669 1.15-1.037 2.48-1.669 4.046l-.019.019Zm46.373-87.304c1.113 1.311 1.631 2.273 2.424 2.791 2.782 1.792 5.545 3.707 8.544 5.074 11.374 5.225 22.88 10.158 34.952 13.562 4.923 1.387 9.959 2.377 14.958 3.499 2.621.594 4.781-.377 6.441-2.358a14.186 14.186 0 0 0 2.094-3.451c3.546-8.168 1.188-20.381-6.234-25.889-4.339-3.216-8.3-7.007-12.147-10.827-4.924-4.885-9.545-10.072-14.326-15.089-.783-.821-1.368-1.981-2.679-2.217-1.009 1.34-.179 2.32.321 3.377 1.433 2.98 3.008 5.913 4.159 9.006.66 1.773.736 3.82.773 5.753.038 1.453-1.131 2.49-2.612 2.641a6.346 6.346 0 0 1-2.235-.151c-1.886-.509-3.81-.971-5.612-1.726-4.442-1.867-8.799-3.942-13.241-5.819-2.631-1.103-5.347-2.009-8.054-2.923-.5-.17-1.226-.246-1.453.811.821 1.179 2.255 1.707 3.499 2.471 4.376 2.669 8.752 5.338 13.11 8.044a20.121 20.121 0 0 1 2.867 2.17c.575.528.782 1.282.245 2.027-.5.689-1.226.924-1.981.623a40.666 40.666 0 0 1-3.687-1.698c-4.291-2.216-8.535-4.508-12.845-6.668-2.151-1.075-4.395-1.99-6.64-2.848-.556-.217-1.311.076-2.537.17.774 1.018 1.094 1.716 1.641 2.112a64.584 64.584 0 0 0 4.933 3.179c4.696 2.716 9.44 5.357 14.137 8.073a21.19 21.19 0 0 1 3.291 2.339c.321.283.425 1.16.227 1.565-.217.434-.887.83-1.406.896-.547.066-1.169-.198-1.716-.443-1.792-.802-3.556-1.641-5.329-2.48-3.951-1.877-7.875-3.801-11.854-5.612-1.019-.462-2.113-1.339-3.575-.34.226.481.34 1.132.726 1.434 1.057.839 2.207 1.575 3.367 2.263 4.405 2.622 8.847 5.188 13.242 7.819 1.027.613 2.027 1.311 2.895 2.131.321.302.405 1.179.198 1.604-.208.433-.962.943-1.377.867-1.169-.207-2.311-.641-3.424-1.094-3.631-1.471-7.233-3.018-10.883-4.442-.736-.292-1.65-.141-3.225-.245l.028.019Zm-81.108-2.499c-7.016 2.64-13.147 3.998-19.513 3.914-6.479-.085-12.76-1.557-20.088-3.443 4.66 6.498 10.195 10.506 15.684 14.59-.198 2.056-.519 3.98-.537 5.913-.02 2.019-.5 4.159.839 6.197 3.829-1.641 4.97-5.254 6.894-8.479 1.566.292 3 .613 4.452.83 1.48.217 2.98.509 4.772-.33 2.442-5.829 4.894-11.912 7.488-19.211l.009.019Zm-54.162 42.638c-1.208-1-2.103-1.773-3.047-2.5-.613-.471-1.405-.886-2.037-.311-.49.453-.962 1.292-.896 1.905.16 1.462.613 2.896.99 4.329.218.821 1.217 1.386.717 2.613-1.348.622-2.886 1.216-4.31 1.999-1.83 1-1.914 2.612-.34 4.008 1.463 1.292 3.198 1.66 5.056 1.415 1.301-.179 2.575-.557 4.008-.887.575 1.99 1.028 3.886 1.67 5.706.5 1.443 2.13 1.726 3.32.707 1.49-1.263 1.923-2.952 2.055-4.828.094-1.264-.641-2.613.226-3.895 1.557.386 2.99.848 4.461 1.056 1.132.16 2.019-.5 2.5-1.556.433-.953.15-2.113-.764-2.82-.764-.594-1.632-1.056-2.443-1.566.68-1.094 1.33-1.942 1.745-2.886.67-1.527-.49-3.168-2.179-3.036-1.31.103-2.603.49-4.027.782-.603-1.876-.15-3.687-.32-5.432a15.301 15.301 0 0 0-.481-2.622c-.18-.651-1.415-.981-1.915-.528-.538.491-1.15 1.028-1.424 1.679-.877 2.065-1.613 4.187-2.556 6.677l-.01-.009Zm13.533 65.319c2.31-1.301 4.442-2.395 6.451-3.697.462-.301.707-1.301.65-1.933-.037-.396-.838-1.009-1.3-1.009-1.783-.019-3.566.151-5.348.264-.972.066-2.018.773-2.895-.349.216-1.009.556-2.028.603-3.056.028-.679-.179-1.556-.622-2.018-.727-.764-1.736-.377-2.471.151a17.647 17.647 0 0 0-2.679 2.348c-.688.755-1.188 1.679-1.848 2.641-1.65-1.273-3.112-2.518-4.697-3.584-1.094-.745-2.433-.188-2.952 1.047-.877 2.122-.566 4.159.736 5.97.773 1.075 1.801 1.981 2.8 3.056-1.499 1.329-3.017 2.537-4.366 3.914-1.226 1.244-.707 2.961.934 3.602 1.5.585 2.961.387 4.367-.283 1.31-.622 2.593-1.292 4.12-2.065.312 1.283.538 2.292.812 3.291.15.576.32 1.16.585 1.679.48.953 1.65 1.49 2.66 1.264.961-.217 1.603-.84 1.772-1.801.17-1 .217-2.019.33-3.103.632.085 1.076.103 1.5.198 1.386.33 2.744.443 3.584-1 .84-1.443.066-2.565-.915-3.593-.594-.623-1.179-1.255-1.83-1.943l.02.009Zm22.305 4.395c-3.131-3.574-6.668-5.338-10.874-5.555-2.594-.132-5.357-.405-7.715 1.887 2.914 3.15 6.159 5.234 10.138 5.809 2.811.406 5.697.387 8.45-2.141Zm-26.992-72.374c2.594-.094 4.46-1.669 6.394-2.98 2-1.358 3.82-3.009 4.706-5.329.585-1.518.887-3.159 1.16-4.772.151-.915-.924-1.698-1.81-1.462-.293.076-.576.17-.85.283-5.696 2.471-8.912 6.904-10.09 12.893-.067.358.273.801.48 1.358l.01.009Zm2.5-36.187c-1.17.622-2.245.905-2.924 1.594-3.839 3.904-4.31 8.705-3.396 13.807.16.915 1.349 1.132 2.207.509 4.565-3.282 6.338-9.506 4.103-15.91h.01ZM50.71 285.972c-1.358-3.98-4.254-5.781-7.555-6.837-2.782-.887-5.753-1.538-8.544.273 2.056 5.744 7.403 7.97 16.099 6.564Zm12.61 49.787c1.716-1.33 2.102-3.122 2.498-4.829.934-4.027.142-7.79-2.169-11.194-.84-1.245-2.273-1.33-3.018-.264-.424.613-.943 1.282-1.028 1.98-.226 1.783-.49 3.622-.292 5.385.387 3.292 1.415 6.385 4.008 8.931v-.009Zm-16.147-24.474c.698-.037 1.32.057 1.84-.122 4.96-1.745 7.76-5.357 8.77-10.422.32-1.593-1-2.687-2.47-1.999-2.717 1.283-5.264 2.942-7.13 5.291-1.642 2.056-2.104 4.527-1.01 7.252Zm69.884 23.371c.095-1.792-.999-2.651-2.489-1.792-1.802 1.047-3.49 2.291-5.206 3.47-2.283 1.556-3.141 3.905-3.509 6.498-.254 1.849.943 2.877 2.698 2.386 4.319-1.197 8.252-6.083 8.497-10.562h.009Zm-61.802 12.703c-.471-.782-.65-1.48-1.093-1.726-2.49-1.386-4.97-2.848-7.602-3.914-2.226-.905-4.442.029-6.489 1.085-.886.462-1.084 1.566-.471 2.32 1.697 2.084 3.97 3.31 6.555 3.707 2.951.452 5.998.858 9.091-1.472h.01Zm21.05-9.459c4.028-.491 6.96-2.641 9.168-5.772 1.537-2.179 2.537-4.621 1.801-7.686-4.829.783-7.337 4.102-9.648 7.592-1.103 1.66-2.707 3.32-1.32 5.875v-.009Zm-24.718-78.401c-1.207 6.555 1.367 11.167 4.913 15.42.764.924 2.283.462 2.462-.67.877-5.422-.189-10.195-4.782-13.703-.537-.415-1.301-.538-2.593-1.047Zm11.949-22.908c-2.905-2.169-5.15-3.537-7.573-4.706-1.924.736-3.97 1.169-5.244 3.32 3.867 2.744 7.724 2.961 12.817 1.386Z"/><path fill="#414141" d="M138.51 151.863c1.527-.471 2.405.509 3.385 1.141 1.641 1.066 3.188 2.311 4.914 3.207 3.81 1.971 7.847 2.16 11.827.641a29.155 29.155 0 0 0 5.998-3.093c4.8-3.254 4.998-3.782 5.149-9.648.038-1.481 0-2.962 0-4.593-1.537-.425-2.829-.726-4.084-1.141-7.026-2.349-10.817-7.404-11.864-14.562-.641-4.385 1.122-7.271 5.225-8.903a26.91 26.91 0 0 1 5.206-1.49c5.545-.971 11.1-1.038 16.599.387 5.838 1.518 7.403 3.725 6.988 9.732-.49 7.064-5.064 12.874-11.845 15.005-1 .312-2.037.529-3.179.821-.999 3.074-.669 6.234-.622 9.356.009.669.519 1.405.952 1.99 2.858 3.857 6.508 6.743 11.11 8.176 5.895 1.839 11.308.972 15.92-3.442.943-.896 1.745-2.132 3.471-2.028.669 1.471.292 2.924-.18 4.32-1.065 3.14-2.018 6.328-3.376 9.346-2.037 4.536-4.319 8.95-6.592 13.373-1.245 2.424-2.811 4.687-4.989 6.366-1.358 1.038-1.726 2.339-1.915 3.886-.217 1.792-.462 3.593-.905 5.328-2.037 7.875-8.3 12.695-16.542 13.034-6.14.245-11.487-2.405-14.505-8.299-1.67-3.263-2.65-6.753-2.669-10.422-.019-2.772-.17-5.422-2.217-7.563-.103-.104-.151-.255-.217-.396-3.97-8.63-7.941-17.25-10.855-26.304-.452-1.414-.99-2.82-.188-4.215v-.01Z"/><path fill="#C1121F" d="M60.182 78.768c.83-1.924 1.396-3.442 2.113-4.894 2.15-4.377 6.357-6.027 10.959-4.424 1.962.68 3.452 1.896 4.291 3.735.623 1.349 1.198 2.801 1.377 4.253 1.179 9.564-1.99 17.75-8.214 24.88-2.566 2.933-5.697 3.631-9.365 2.159-8.196-3.282-14.77-8.563-19.683-15.882-1.273-1.895-2.056-4.036-1.801-6.384.631-6.008 5.932-9.554 11.713-7.762 1.566.48 3.027 1.31 4.499 2.046 1.207.604 2.357 1.302 4.111 2.273ZM173.094 27.642c1.292-1.122 2.405-2.075 3.499-3.046 3.367-2.98 7.064-1.933 9.809.32 1.32 1.085 2.008 2.556 2.112 4.33.142 2.461-.264 4.8-1.339 7.007-2.782 5.743-7.045 10.091-12.713 12.977-3.999 2.047-6.64 1.613-9.771-1.603-4.621-4.735-7.516-10.478-9.101-16.863-.358-1.424-.349-3-.226-4.49.462-5.592 6.762-8.535 11.478-5.413 1.348.896 2.395 2.254 3.517 3.461.896.972 1.688 2.038 2.726 3.31l.009.01ZM217.38 45.328c1.132-.453 2.056-.915 3.037-1.207 3.197-.953 5.79 1.226 5.3 4.536-.17 1.15-.613 2.358-1.273 3.31-2.141 3.056-5.15 5.027-8.686 6.102-2.499.764-4.027.208-5.423-1.99-2.216-3.489-3.508-7.309-3.282-11.496.056-1 .387-2.103.924-2.924 1.471-2.244 4.272-2.537 6.225-.707.641.604 1.094 1.415 1.622 2.14.509.708.99 1.425 1.556 2.255v-.019ZM110.159 120.301c.641-.773 1.122-1.556 1.783-2.122 1.999-1.707 4.658-.707 5.045 1.886.491 3.301-.443 6.215-2.546 8.79-.953 1.17-2.16 1.594-3.603 1.113-3.273-1.085-5.715-3.225-7.46-6.14-.651-1.094-.67-2.273.113-3.385.802-1.132 1.971-1.349 3.197-1.123 1.151.217 2.264.632 3.462.981h.009ZM207.926 4.366c.981-.273 1.802-.622 2.651-.716 2.206-.246 3.725 1.5 3.234 3.668-.132.566-.349 1.16-.669 1.641-1.868 2.773-4.603 4.207-7.79 4.81-1.113.208-2.085-.264-2.735-1.198-2.179-3.13-2.641-6.62-1.953-10.28C200.91 1 201.909.264 203.183.047c1.15-.208 2.056.377 2.716 1.245.707.933 1.301 1.961 2.027 3.084v-.01Z"/><path fill="#414141" d="M198.809 122.71c-2.49-.038-5.197-1.716-6.989-4.819-.339-.585-.301-1.434-.273-2.151.019-.669 1.339-1.188 1.792-.716.622.65 1.15 1.377 1.707 2.084 2.716 3.48 7.865 3.074 9.997-.443.311-.519.603-1.047.943-1.547.481-.707 1.283-1.085 1.905-.547.443.387.754 1.368.604 1.943-.887 3.518-4.631 6.168-9.667 6.187l-.019.009ZM141.848 122.736c-3.537-.151-6.093-1.811-7.875-4.688-.302-.481-.509-1.16-.434-1.697.066-.5.481-1.057.905-1.349.246-.17.934-.019 1.198.236.547.5.943 1.15 1.396 1.763 2.716 3.688 8.148 3.235 10.261-.547.358-.641.792-1.282 1.32-1.782.255-.236.887-.283 1.226-.141.349.141.764.631.764.971 0 .726-.075 1.547-.415 2.169-1.801 3.32-4.611 5.055-8.346 5.083v-.018Z"/><path fill="#C1121F" d="M171.975 69.574c.604-.094.774-.085.896-.15 1.075-.529 2.16-1.217 3.282-.17.811.754.896 2.423.151 3.772-1.037 1.867-2.395 3.414-4.895 3.98-2.537-1.113-3.819-3.348-4.376-6.093-.217-1.056-.085-2.112.991-2.744.914-.547 1.707-.17 2.471.377.481.35.971.68 1.48 1.038v-.01Z"/><path fill="#414141" d="M26.673 256.575c-.302-.443-.604-.717-.557-.849.208-.5.49-.99.84-1.405.094-.113.556-.038.745.094.198.142.433.585.358.67-.405.519-.896.971-1.386 1.481v.009ZM188.231 137.972c-.415.434-.67.915-.962.943-.311.029-.67-.358-1.009-.566.226-.32.405-.83.698-.905.292-.075.707.264 1.282.528h-.009ZM190.983 147.256c.434.33.858.509 1.028.82.292.547-.255 1.292-.849 1.141-.339-.085-.773-.509-.82-.83-.047-.301.358-.669.641-1.131ZM153.224 138.677c-.585.368-.991.764-1.443.839-.227.038-.557-.528-.84-.83.368-.339.698-.801 1.132-.962.189-.066.604.481 1.141.953h.01ZM149.72 145.766c-.585.085-1.094.321-1.32.151-.255-.188-.245-.726-.349-1.113.377-.103.849-.386 1.094-.254.273.151.339.679.575 1.216ZM183.104 145.837c-.556.443-1.037.98-1.169.905-.425-.226-.783-.66-1-1.094-.057-.104.604-.802.811-.755.443.114.811.538 1.358.944ZM159.595 146.634c-.472.254-.792.556-1.132.584-.603.057-1.037-.669-.669-1.131.198-.255.716-.462 1.009-.387.292.075.481.538.801.934h-.009ZM91.195 223.651c.773-.378 1.528-.821 2.33-1.132 2.103-.811 4.262-1.49 6.347-2.358 5.743-2.395 10.251-6.243 13.411-11.638.584-.999 1.273-1.943 1.839-2.81 1.197.132 1.018.896.971 1.396-.339 3.621-1.188 7.12-2.603 10.478-1.509 3.574-4.036 5.866-7.884 6.771-4.744 1.122-9.44.858-14.166.406-.085-.368-.17-.736-.254-1.113h.009ZM54.328 198.708c-1.244-2.14-.716-3.725.123-5.158 2.886-4.923 7.31-7.781 12.76-9.158a1.72 1.72 0 0 1 .444-.057c1.047 0 2.14-.141 2.782.972.415.717 0 1.763-1.15 2.641-.83.631-1.708 1.263-2.66 1.641-4.282 1.678-7.96 4.111-10.639 7.941-.301.433-.905.65-1.669 1.178h.01ZM109.776 163.281c-.717.377-1.311.933-1.952.99-4.32.405-8.026 2.15-11.488 4.697-1.292.952-2.857 1.603-4.385 2.169-1.235.452-2.395-.887-1.962-2.122.198-.557.425-1.16.811-1.566 4.028-4.159 8.856-6.573 14.741-6.526 1.688.019 3.235.424 4.225 2.358h.01ZM91.126 189.603c.538.283 1.132.462 1.556.83 2.98 2.594 6.432 4.442 9.912 6.234.67.34 1.311.736 1.934 1.16 1.584 1.094 2.669 2.518 2.376 4.536-.348 2.396-1.678 4.178-3.932 5.103-.387.16-1.141-.227-1.547-.576-.255-.217-.255-.82-.217-1.245.019-.254.311-.499.5-.735 2.707-3.443 2.631-3.631-1.245-5.847a171.8 171.8 0 0 1-8.45-5.178c-.849-.557-1.51-1.443-2.122-2.273-.198-.264-.104-.905.094-1.235.189-.331.68-.481 1.16-.774h-.019ZM98.816 182.311c-.368-.095-1.415-.217-2.33-.642-.386-.179-.65-.952-.67-1.471-.009-.311.5-.858.85-.933.867-.18 1.782-.133 2.678-.208 4.659-.424 7.733-3.065 8.884-7.601.217-.859.302-1.792.707-2.556.198-.378.972-.594 1.49-.604.321 0 .84.481.925.83a6.28 6.28 0 0 1 .132 2.216c-.821 5.97-5.904 10.592-12.657 10.978l-.01-.009ZM61.353 206.232c-.273-.037-.65.019-.848-.141-.406-.349-.868-.755-1.019-1.235-.094-.293.264-.953.585-1.085.81-.349 1.716-.5 2.584-.717 1.594-.405 3.244-.669 4.79-1.216 3.49-1.227 5.98-3.396 6.386-7.347.094-.934.311-1.82 1.49-1.868.98-.047 1.764 1 1.65 2.245-.386 4.084-2.603 6.979-6.073 8.922-2.933 1.631-6.168 2.31-9.526 2.442h-.019Z"/></g><defs><clipPath id="a"><path fill="#fff" d="M0 0h280v375.169H0z"/></clipPath></defs></svg>