<svg width="134" height="128" viewBox="0 0 134 128" fill="none" xmlns="http://www.w3.org/2000/svg">
<path d="M75.0358 1.44141C69.8511 1.44141 65.5996 5.63587 65.5996 10.8534V32.235C65.5996 37.4526 69.8511 41.6471 75.0358 41.6471H77.006C77.5245 41.6471 77.9393 42.0563 77.9393 42.5678V49.4222C77.9393 50.2406 78.9762 50.6499 79.5983 50.1383L89.3456 41.8517C89.553 41.7153 89.7949 41.6471 90.0714 41.6471H103.759C109.048 41.6471 113.299 37.4526 113.299 32.235V10.8534C113.299 5.63587 109.048 1.44141 103.759 1.44141H75.0358Z" stroke="#414141" stroke-width="2.44612" stroke-linecap="round" stroke-linejoin="round"/>
<path d="M89.2422 25.7887V25.3795C89.2422 23.9472 90.1755 22.8219 91.5235 22.3103C93.8048 21.3896 95.3602 19.2412 95.2565 16.7859C95.1528 13.7168 92.5605 11.2615 89.4497 11.1592C87.5832 11.1592 86.0277 11.8753 84.8871 13.0006C84.2649 13.6145 83.8156 14.3306 83.5391 15.149" stroke="#414141" stroke-width="2.44612" stroke-linecap="round" stroke-linejoin="round"/>
<path d="M89.2432 32.2379V32.0312" stroke="#414141" stroke-width="2.44612" stroke-linecap="round" stroke-linejoin="round"/>
<path d="M108.419 92.2728C105.317 100.23 97.6286 105.894 88.5918 105.894C80.2294 105.894 55.0071 105.894 55.0071 105.894C54.4676 105.894 54.063 106.029 53.6583 106.434L35.18 124.91C32.6173 127.473 28.4361 125.72 28.4361 122.213V107.648C28.4361 106.704 27.6269 105.894 26.5478 105.894H23.1759C11.5764 105.894 2 96.3188 2 84.7203V27.9415C2 16.2082 11.5764 6.76758 23.1759 6.76758H65.2578" stroke="#414141" stroke-width="2.87619" stroke-linecap="round" stroke-linejoin="round"/>
<path d="M63.1548 45.3981C63.1548 41.6273 60.0972 38.6719 56.428 38.6719C52.7589 38.6719 49.7012 41.6273 49.7012 45.3981C49.7012 49.067 52.7589 52.0225 56.428 52.0225C60.0972 52.0225 63.1548 49.067 63.1548 45.3981Z" stroke="#C1121F" stroke-width="2.17342" stroke-linecap="round" stroke-linejoin="round"/>
<path d="M51.6143 64.5038V78.7385H51.4152C49.7228 78.7385 48.3291 80.0325 48.3291 81.7248C48.3291 83.417 49.7228 84.711 51.3156 84.711L62.3658 84.8106C64.0582 84.8106 65.452 83.417 65.452 81.8243C65.452 80.132 64.0582 78.7385 62.3658 78.7385H62.1667V60.6216C62.1667 59.5267 61.2708 58.5312 60.1757 58.5312H51.4152C49.7228 58.5312 48.3291 59.8253 48.3291 61.5175C48.3291 63.2098 49.7228 64.5038 51.4152 64.5038H51.6143Z" stroke="#C1121F" stroke-width="2.12287" stroke-linecap="round" stroke-linejoin="round"/>
<path d="M122.859 52.7461C127.795 52.7461 131.806 56.7566 131.806 61.6925V81.6419C131.806 86.5778 127.795 90.5883 122.859 90.5883H121.214C120.7 90.5883 120.289 90.9996 120.289 91.5138V97.9922C120.289 98.712 119.363 99.1233 118.849 98.6092L109.697 90.8968C109.56 90.6911 109.354 90.5883 109.08 90.5883H96.4317C91.4958 90.5883 87.4854 86.5778 87.4854 81.6419V61.6925C87.4854 56.7566 91.4958 52.7461 96.4317 52.7461H122.859Z" stroke="#414141" stroke-width="2.44612" stroke-linecap="round" stroke-linejoin="round"/>
<path d="M109.389 73.2091V63.543" stroke="#414141" stroke-width="2.44612" stroke-linecap="round" stroke-linejoin="round"/>
<path d="M109.389 80.4094V80.3047" stroke="#414141" stroke-width="2.44612" stroke-linecap="round" stroke-linejoin="round"/>
</svg>
