<svg xmlns="http://www.w3.org/2000/svg" viewBox="0 0 211 217" fill="none">
  <path fill="#FFFEFE" d="M169.618 41.933h-24.722v132.521h24.722V41.933Z"/>
  <path fill="#0C0C0C" d="M169.618 174.715h-24.722a.266.266 0 0 1-.27-.262V41.933c0-.145.121-.262.27-.262h24.722c.149 0 .27.117.27.262v132.521a.267.267 0 0 1-.27.263v-.002Zm-24.452-.523h24.184V42.195h-24.184v131.997Z"/>
  <path fill="#FFFEFE" d="m161.224 170.891.807-124.95-78.016-33.834-76.45 35.031 3.398 125.711c.046 1.71 1.565 3.07 3.414 3.054l142.71-1.152c2.291-.019 4.136-1.741 4.136-3.86h.001Z"/>
  <path fill="#0C0C0C" d="M14.348 176.165c-1.97 0-3.605-1.478-3.654-3.309L7.296 47.146a.26.26 0 0 1 .154-.244L83.9 11.87a.28.28 0 0 1 .225-.002L162.14 45.7c.098.043.16.136.16.24l-.807 124.951c0 2.252-1.976 4.101-4.403 4.121L14.38 176.165h-.032ZM7.839 47.302l3.394 125.54c.042 1.558 1.46 2.807 3.143 2.799l142.711-1.152c2.133-.018 3.869-1.632 3.869-3.599l.805-124.781-77.742-33.714-76.18 34.907Z"/>
  <path fill="#0C0C0C" d="M35.846 115.784h-14.32c-.622 0-1.128-.491-1.128-1.096V93.732c0-.604.505-1.096 1.128-1.096h14.32c.62 0 1.127.49 1.127 1.096v20.956c0 .604-.505 1.096-1.127 1.096Zm-14.32-22.625a.582.582 0 0 0-.59.573v20.956c0 .316.264.573.59.573h14.32c.324 0 .59-.257.59-.573V93.732a.582.582 0 0 0-.59-.573h-14.32ZM54.573 115.784H40.426c-.67 0-1.214-.529-1.214-1.18V93.816c0-.651.544-1.18 1.214-1.18h14.147c.67 0 1.214.529 1.214 1.18v20.788c0 .651-.544 1.18-1.214 1.18ZM40.425 93.159a.668.668 0 0 0-.676.657v20.788c0 .362.303.657.676.657h14.147a.667.667 0 0 0 .676-.657V93.816a.668.668 0 0 0-.676-.657H40.425ZM36.091 140.922h-14.81a.871.871 0 0 1-.883-.858v-21.433a.87.87 0 0 1 .882-.857h14.811a.87.87 0 0 1 .882.857v21.433a.871.871 0 0 1-.882.858Zm-14.81-22.625a.34.34 0 0 0-.345.334v21.433a.34.34 0 0 0 .344.335h14.811a.34.34 0 0 0 .344-.335v-21.433a.34.34 0 0 0-.344-.334h-14.81ZM54.548 140.922H40.45c-.683 0-1.239-.54-1.239-1.204v-20.741c0-.664.556-1.203 1.24-1.203h14.098c.684 0 1.24.539 1.24 1.203v20.741c0 .664-.556 1.204-1.24 1.204ZM40.45 118.297a.69.69 0 0 0-.7.679v20.741a.69.69 0 0 0 .7.679h14.1a.69.69 0 0 0 .699-.679v-20.741a.69.69 0 0 0-.7-.679H40.45ZM85.287 48.828H70.965c-.62 0-1.127-.49-1.127-1.095v-16.64c0-.603.505-1.095 1.127-1.095h14.322c.62 0 1.127.491 1.127 1.096v16.639c0 .603-.505 1.095-1.127 1.095ZM70.965 30.522a.58.58 0 0 0-.588.573v16.639c0 .315.264.573.588.573h14.322c.324 0 .59-.258.59-.573v-16.64a.582.582 0 0 0-.59-.572H70.965ZM104.012 48.828H89.865c-.67 0-1.215-.528-1.215-1.18v-16.47c0-.651.544-1.18 1.215-1.18h14.147c.671 0 1.215.529 1.215 1.18v16.47c0 .652-.544 1.18-1.215 1.18ZM89.866 30.522a.666.666 0 0 0-.675.657v16.47c0 .362.302.658.675.658h14.148a.668.668 0 0 0 .676-.657V31.18a.668.668 0 0 0-.676-.658H89.866ZM85.532 69.17h-14.81a.87.87 0 0 1-.883-.857V51.198a.87.87 0 0 1 .882-.858h14.81a.87.87 0 0 1 .883.858v17.115a.87.87 0 0 1-.882.858Zm-14.81-18.307a.34.34 0 0 0-.345.335v17.115a.34.34 0 0 0 .344.335h14.81a.34.34 0 0 0 .345-.335V51.198a.34.34 0 0 0-.344-.335h-14.81ZM103.99 69.17h-14.1c-.683 0-1.238-.539-1.238-1.203V51.543c0-.664.555-1.204 1.238-1.204h14.1c.683 0 1.238.54 1.238 1.204v16.424c0 .664-.555 1.204-1.238 1.204Zm-14.1-18.307a.69.69 0 0 0-.699.68v16.424c0 .375.314.68.7.68h14.099a.69.69 0 0 0 .699-.68V51.543a.69.69 0 0 0-.699-.68h-14.1ZM134.467 115.744h-14.322c-.621 0-1.127-.49-1.127-1.095V93.658c0-.604.505-1.096 1.127-1.096h14.322c.621 0 1.127.491 1.127 1.096v20.991c0 .603-.505 1.095-1.127 1.095Zm-14.322-22.658a.582.582 0 0 0-.589.573v20.991c0 .315.263.573.589.573h14.322a.582.582 0 0 0 .588-.573V93.66a.582.582 0 0 0-.588-.574h-14.322ZM153.194 115.744h-14.148c-.67 0-1.214-.528-1.214-1.179V93.742c0-.65.544-1.18 1.214-1.18h14.148c.67 0 1.214.53 1.214 1.18v20.823c0 .651-.544 1.179-1.214 1.179Zm-14.148-22.658a.667.667 0 0 0-.675.657v20.823c0 .361.303.657.675.657h14.148a.667.667 0 0 0 .676-.657V93.743a.668.668 0 0 0-.676-.657h-14.148ZM134.712 140.921h-14.811a.87.87 0 0 1-.882-.857v-21.466a.87.87 0 0 1 .882-.858h14.811a.87.87 0 0 1 .882.858v21.466a.87.87 0 0 1-.882.857Zm-14.811-22.659a.34.34 0 0 0-.344.334v21.467a.34.34 0 0 0 .344.334h14.811a.34.34 0 0 0 .344-.334v-21.467a.34.34 0 0 0-.344-.334h-14.811Z"/>
  <path fill="#FFFEFE" d="M153.17 118.001h-14.1c-.535 0-.969.422-.969.941v20.776c0 .52.434.941.969.941h14.1c.535 0 .969-.421.969-.941v-20.776c0-.519-.434-.941-.969-.941Z"/>
  <path fill="#0C0C0C" d="M86.34.338 1.6 44.276c-1.796.932-2.137 2.824-.733 4.083l7.124 6.38 78.966-39.381a1.912 1.912 0 0 1 1.639-.005l80.512 39.47 4.609-5.334c1.895-2.195 1.116-5.127-1.755-6.604L89.213.333c-.866-.446-2.008-.445-2.874.005ZM67.7 90.806h39.495c.892 0 1.616.704 1.616 1.57v82.457c0 .867-.724 1.57-1.616 1.57H67.7c-.892 0-1.616-.703-1.616-1.57V92.376c0-.866.724-1.57 1.616-1.57Z"/>
  <path fill="#FFFEFE" d="M105.555 93.192H69.507c-.595 0-1.077.469-1.077 1.047v78.093c0 .578.482 1.047 1.077 1.047h36.048c.595 0 1.077-.469 1.077-1.047V94.239c0-.578-.482-1.047-1.077-1.047Z"/>
  <path fill="#FFFEFE" d="M60.638 167.977h53.801c.421 0 .762.332.762.741v7.769a.752.752 0 0 1-.762.741h-53.8a.752.752 0 0 1-.764-.741v-7.769c0-.409.342-.741.763-.741Z"/>
  <path fill="#0C0C0C" d="M114.438 177.489h-53.8c-.569 0-1.032-.449-1.032-1.003v-7.769c0-.553.462-1.004 1.032-1.004h53.8c.569 0 1.033.45 1.033 1.004v7.769c0 .552-.463 1.003-1.033 1.003Zm-53.8-9.251a.486.486 0 0 0-.493.479v7.769c0 .264.22.479.493.479h53.8a.487.487 0 0 0 .494-.479v-7.769a.486.486 0 0 0-.494-.479h-53.8ZM21.857 80.872a.267.267 0 0 1-.27-.261c0-.145.12-.262.269-.262l118.103-.187c.149 0 .268.117.27.26 0 .145-.12.263-.269.263l-118.103.187ZM74.598 111.498a.274.274 0 0 1-.19-.077.257.257 0 0 1 0-.37l13.77-13.38a.275.275 0 0 1 .381 0 .257.257 0 0 1 0 .37l-13.77 13.38a.274.274 0 0 1-.19.077ZM74.112 101.423a.274.274 0 0 1-.19-.077.257.257 0 0 1 0-.37l4.374-4.25a.275.275 0 0 1 .381 0 .257.257 0 0 1 0 .37l-4.374 4.25a.274.274 0 0 1-.19.077Z"/>
  <path fill="#FFFEFE" d="M178.366 59.661c-13.606.141-24.559 7.025-24.467 15.374.042 3.736 2.289 7.131 5.977 9.732l-4.155 8.323 11.764-4.725c3.371 1.018 7.183 1.573 11.216 1.532 13.606-.142 24.56-7.025 24.467-15.374-.093-8.35-11.197-15.003-24.802-14.86v-.002Z"/>
  <path fill="#0C0C0C" d="M188.114 59.584a.297.297 0 0 1-.09-.014c-.322-.11-.648-.215-.977-.316a.26.26 0 0 1-.176-.328.27.27 0 0 1 .338-.171c.336.102.668.21.995.321a.26.26 0 0 1 .165.334.27.27 0 0 1-.254.175l-.001-.001ZM175.751 87.948a41.12 41.12 0 0 1-2.628-.084.263.263 0 0 1-.25-.279.267.267 0 0 1 .287-.243 40.31 40.31 0 0 0 3.011.08c6.53-.067 12.648-1.69 17.227-4.567 4.542-2.853 7.018-6.598 6.974-10.543-.051-4.636-3.564-8.891-9.638-11.67a.259.259 0 0 1-.129-.35.274.274 0 0 1 .358-.125c6.269 2.869 9.895 7.293 9.949 12.138.045 4.131-2.519 8.032-7.221 10.987-4.663 2.93-10.883 4.582-17.514 4.651-.141.001-.283.003-.425.003l-.001.002ZM153.193 91.14a.277.277 0 0 1-.197-.082.256.256 0 0 1-.046-.294l4.057-8.127c-3.771-2.72-5.866-6.197-5.906-9.811-.045-4.132 2.519-8.033 7.22-10.988 4.664-2.93 10.883-4.582 17.514-4.65a40.237 40.237 0 0 1 4.647.218.264.264 0 0 1 .239.288.268.268 0 0 1-.297.23 39.606 39.606 0 0 0-4.582-.214c-6.53.068-12.648 1.69-17.228 4.568-4.541 2.853-7.018 6.598-6.974 10.543.039 3.502 2.123 6.883 5.866 9.523a.256.256 0 0 1 .084.326l-3.845 7.704 11.108-4.463a.278.278 0 0 1 .183-.008c1.018.308 2.081.573 3.16.79.146.029.24.166.21.309a.27.27 0 0 1-.318.204 34.714 34.714 0 0 1-3.117-.775l-11.674 4.69a.286.286 0 0 1-.103.02h-.001ZM137.784 111.618c-1.683-.9-4.641-1.3-7.924-4.331-1.599-1.477-3.909-3.609-4.063-6.807-.18-3.735 2.649-7.742 6.503-8.596 10.302-2.281 14.477 4.824 17.222 9.373 1.851 3.065 4.915 6.766 7.3 7.976 5.55 2.815 10.581-4.305 16.299-2.208 4.922 1.804 3.25 7.834 8.653 11.083 6.206 3.732 11.31-2.482 18.747.61 6.828 2.837 11.534 11.821 9.799 17.859-1.202 4.182-4.576 3.747-7.527 8.664-4.597 7.662.701 13.539-2.308 20.196-4.031 8.92-19.319 11.147-28.941 10.096-1.783-.195-20.407-2.508-28.069-16.885-9.297-17.442 3.011-42.377-5.689-47.027l-.002-.003ZM127.978 217h48.777c-1.541-13.818-4.11-25.63-8.286-32.542l-29.26 1.695s.279.85.775 2.426l-7.984.614s-2.043 13.468-4.021 27.808l-.001-.001Z"/>
  <path fill="#FFFEFE" d="M128.188 190.426s-.854 15.841 2.243 18.566c0 0 8.261-11.125 8.01-18.566h-10.253Z"/>
  <path fill="#0C0C0C" d="M130.43 209.254a.273.273 0 0 1-.181-.068c-3.155-2.776-2.365-18.121-2.331-18.773a.267.267 0 0 1 .269-.248h10.252c.145 0 .265.112.27.253.25 7.444-7.721 18.27-8.062 18.727a.271.271 0 0 1-.19.107l-.028.001.001.001Zm-1.986-18.566c-.088 1.965-.567 14.965 1.954 17.894 1.206-1.687 7.826-11.256 7.779-17.894h-9.733Z"/>
  <path fill="#FFFEFE" d="M140.98 189.362s4.04 12.329 7.735 15.145c3.696 2.818 11.688-12.126 16.834-12.923 5.147-.797 12.02 11.335 12.02 11.335s-2.912-15.692-7.484-18.638l-29.105 5.081Z"/>
  <path fill="#0C0C0C" d="M149.755 205.125a1.93 1.93 0 0 1-1.205-.413c-3.718-2.834-7.659-14.765-7.825-15.271a.254.254 0 0 1 .025-.215.27.27 0 0 1 .183-.122l29.105-5.081a.276.276 0 0 1 .197.039c4.615 2.973 7.48 18.164 7.6 18.809a.261.261 0 0 1-.175.293.275.275 0 0 1-.326-.121c-.068-.12-6.835-11.963-11.741-11.202-2.262.349-5.192 3.657-8.024 6.856-2.914 3.289-5.693 6.427-7.813 6.427l-.001.001Zm-8.423-15.559c.631 1.857 4.27 12.235 7.55 14.735 1.799 1.371 5.092-2.348 8.278-5.943 2.896-3.271 5.891-6.651 8.349-7.032 4.265-.659 9.491 6.921 11.483 10.11-.86-3.969-3.422-14.449-6.967-16.879l-28.693 5.009Z"/>
  <path fill="#FFFEFE" d="m89.367 119.626-6.62-6.248s-1.848 1.429.981 4.786c-.773.026-1.576.077-2.867.166-1.039.071-2.071-.195-2.86-.882-.92-.8-2.065-1.773-2.49-2.036-.752-.466-1.735-1.206-2.748-1.192-1.015.014-2.022.801-2.022.801l3.56 4.581a11.081 11.081 0 0 0 5.763 3.881l3.635 1.016c2.075.58 3.598 2.376 3.855 4.543l1.77 14.9 7.715-7.247s-4.742-13.082-7.675-17.07l.003.001Z"/>
  <path fill="#0C0C0C" d="M89.328 144.204a.256.256 0 0 1-.09-.016.263.263 0 0 1-.178-.215l-1.77-14.9c-.247-2.073-1.684-3.768-3.662-4.322l-3.635-1.016a11.272 11.272 0 0 1-5.903-3.975l-3.56-4.581a.256.256 0 0 1 .046-.361c.044-.035 1.091-.845 2.187-.86.953-.008 1.853.563 2.574 1.027.112.072.22.141.323.205.356.219 1.204.913 2.523 2.061.686.597 1.63.887 2.662.816 1.013-.07 1.725-.117 2.35-.145-.965-1.255-1.4-2.388-1.292-3.374.102-.921.656-1.359.679-1.378a.277.277 0 0 1 .355.017l6.619 6.248c.01.011.022.023.032.036 2.92 3.972 7.514 16.599 7.708 17.135a.258.258 0 0 1-.067.276l-7.715 7.246a.278.278 0 0 1-.186.073v.003Zm-18.204-29.127 3.394 4.367a10.733 10.733 0 0 0 5.623 3.788l3.634 1.016c2.189.612 3.778 2.482 4.049 4.765l1.707 14.373 7.198-6.761c-.55-1.496-4.864-13.13-7.567-16.827l-6.404-6.045c-.337.438-.923 1.751 1.18 4.246.064.077.08.183.036.274a.271.271 0 0 1-.235.154c-.758.025-1.558.076-2.857.165-1.177.082-2.264-.256-3.06-.949-1.26-1.097-2.132-1.81-2.453-2.01a16.79 16.79 0 0 1-.332-.21c-.653-.419-1.465-.94-2.246-.94h-.023c-.65.008-1.315.382-1.644.597v-.003Z"/>
  <path fill="#FFFEFE" d="m98.368 132.621-19.187 18.668 10.147 8.845 16.208-16.561-7.168-10.952Z"/>
  <path fill="#0C0C0C" d="M89.328 160.394a.274.274 0 0 1-.18-.066l-10.146-8.845a.254.254 0 0 1-.09-.187.26.26 0 0 1 .079-.192l19.187-18.668a.273.273 0 0 1 .417.045l7.168 10.952a.256.256 0 0 1-.031.32l-16.21 16.56a.27.27 0 0 1-.195.081h.001Zm-9.755-9.116 9.74 8.49 15.884-16.227-6.875-10.504-18.75 18.241Z"/>
  <path fill="#FFFEFE" d="M163.646 157.973c-5.23-13.721-6.614-30.799-6.614-30.799-25.197-9.126-34.991 3.711-34.991 3.711l-.039.087c-3.018 3.359-7.33 9.917-11.928 10.767-4.236.784-5.954-3.323-5.954-3.323l-22.082 20.932c21.004 13.757 34.123 7.815 40.563 2.274.122 2.198.165 4.552.082 7.098-.354 10.879.167 16.999.871 20.42.504 2.445 2.796 4.07 5.235 3.74l36.543-4.934a16.2 16.2 0 0 1 8.951 1.344c.943-9.165-5.408-17.596-10.638-31.317h.001Z"/>
  <path fill="#0C0C0C" d="M128.169 193.184a5.005 5.005 0 0 1-4.877-3.993c-.885-4.296-1.18-11.185-.877-20.481a79.693 79.693 0 0 0-.053-6.541c-3.005 2.476-7.866 5.354-14.561 5.812-.625.043-1.257.064-1.893.064-7.348 0-15.417-2.847-24.019-8.481a.258.258 0 0 1-.037-.404l22.083-20.933a.278.278 0 0 1 .243-.069.265.265 0 0 1 .194.158c.067.16 1.69 3.899 5.654 3.165 3.531-.653 6.951-4.843 9.698-8.21.729-.892 1.417-1.736 2.048-2.441l.025-.053a.274.274 0 0 1 .029-.049c.102-.134 2.561-3.294 8.167-5.367 5.152-1.903 14.041-3.176 27.134 1.567a.264.264 0 0 1 .175.224c.013.171 1.441 17.2 6.598 30.728 1.666 4.37 3.473 8.263 5.069 11.698 3.483 7.5 6.234 13.425 5.583 19.735a.26.26 0 0 1-.135.202.274.274 0 0 1-.248.008 15.922 15.922 0 0 0-8.798-1.321l-36.543 4.934c-.221.03-.441.044-.659.044v.004Zm-5.567-31.824c.036 0 .071.007.104.02.095.039.16.127.165.227.133 2.398.16 4.727.081 7.121-.301 9.254-.009 16.104.867 20.361.472 2.291 2.64 3.843 4.934 3.533l36.543-4.934a16.46 16.46 0 0 1 8.754 1.21c.493-6.038-2.192-11.82-5.573-19.102-1.599-3.442-3.41-7.344-5.082-11.731-4.908-12.876-6.453-28.894-6.615-30.701-12.85-4.617-21.552-3.374-26.595-1.509-5.22 1.928-7.68 4.881-7.909 5.166l-.027.059a.264.264 0 0 1-.043.067c-.631.702-1.326 1.552-2.061 2.453-2.803 3.435-6.293 7.709-10.02 8.399-3.653.676-5.537-2.138-6.083-3.14l-21.577 20.455c21.03 13.644 34.055 7.194 39.959 2.116a.272.272 0 0 1 .178-.066v-.004Z"/>
  <path fill="#FFFEFE" d="m171.902 163.881-6.032 11.071-3.25-1.811c-1.86-1.036-3.674-1.768-6.089-.715 0 0-8.213 4.557-9.082 5.747-.695.952-.177 2.317.969 2.547 0 0 1.416.795 8.123-1.257 2.405-.737 9.608 1.898 12.055 1.018 2.445-.878 9.976-12.498 9.976-12.498l-6.67-4.102Z"/>
  <path fill="#0C0C0C" d="M149.554 181.136c-.752 0-1.098-.112-1.225-.167a1.858 1.858 0 0 1-1.324-1.123 1.876 1.876 0 0 1 .225-1.824c.877-1.201 8.321-5.353 9.167-5.822 2.626-1.147 4.579-.275 6.356.715l3.009 1.675 5.901-10.831a.27.27 0 0 1 .168-.13.278.278 0 0 1 .214.032l6.67 4.101a.258.258 0 0 1 .084.361c-.31.478-7.607 11.705-10.111 12.605-1.33.478-3.909-.012-6.402-.485-2.244-.426-4.562-.867-5.665-.529-3.777 1.156-5.907 1.423-7.069 1.423l.002-.001Zm9.294-8.962c-.68 0-1.408.143-2.206.492-2.247 1.248-8.287 4.723-8.972 5.658a1.37 1.37 0 0 0-.162 1.33c.172.425.525.72.967.809a.286.286 0 0 1 .08.03c.006.002 1.521.675 7.908-1.279 1.232-.377 3.514.057 5.929.514 2.421.46 4.925.936 6.112.508 1.894-.681 7.505-8.811 9.698-12.172l-6.196-3.812-5.896 10.821a.273.273 0 0 1-.373.104l-3.25-1.811c-1.145-.637-2.298-1.194-3.638-1.194l-.001.002Z"/>
  <path fill="#FFFEFE" d="m171.902 155.841-3.068 7.719 17.691 11.766s3.664-10.218 3.854-14.337l-18.477-5.148Z"/>
  <path fill="#0C0C0C" d="M186.525 175.588a.275.275 0 0 1-.153-.047l-17.691-11.765a.258.258 0 0 1-.098-.311l3.068-7.719a.272.272 0 0 1 .326-.158l18.477 5.149c.119.033.2.142.195.263-.19 4.109-3.719 13.991-3.869 14.41a.264.264 0 0 1-.254.175l-.001.003Zm-17.363-12.126 17.223 11.453c.609-1.738 3.45-10.001 3.712-13.731l-18.034-5.026-2.902 7.304h.001Z"/>
  <path fill="#FFFEFE" d="m153.282 143.26 13.278 7.018c2.463 1.05 3.741 3.824 2.955 6.417l-.258.847 23.27 8.78s3.236-11.075-2.083-21.03c-5.32-9.954-35.044-18.577-35.044-18.577l-2.118 16.543v.002Z"/>
  <path fill="#0C0C0C" d="M192.527 166.584a.273.273 0 0 1-.097-.018l-23.27-8.779a.26.26 0 0 1-.161-.318l.257-.848c.752-2.477-.454-5.101-2.804-6.103l-10.328-5.459a.256.256 0 0 1-.108-.354.272.272 0 0 1 .365-.104l10.307 5.448c2.578 1.097 3.912 3.99 3.085 6.72l-.187.618 22.756 8.585c.447-1.776 2.606-11.682-2.137-20.558-5.207-9.742-34.586-18.361-34.882-18.446a.26.26 0 0 1-.18-.326.27.27 0 0 1 .335-.176c1.218.354 29.895 8.769 35.206 18.707 5.308 9.931 2.138 21.11 2.105 21.222a.258.258 0 0 1-.14.163.276.276 0 0 1-.119.027l-.003-.001Z"/>
  <path fill="#FFFEFE" d="m134.115 113.377 2.54 11.478-7.194 2.599s9.593 5.844 23.586.573l-7.359-3.986-4.906-14.015-6.668 3.351h.001Z"/>
  <path fill="#0C0C0C" d="M141.483 130.475c-7.446 0-12.096-2.759-12.163-2.799a.258.258 0 0 1 .05-.466l6.975-2.521-2.491-11.257a.258.258 0 0 1 .139-.287l6.669-3.351a.273.273 0 0 1 .378.149l4.872 13.918 7.269 3.938a.259.259 0 0 1-.032.472c-4.349 1.638-8.293 2.204-11.664 2.204h-.002Zm-11.376-2.974c2.105 1.055 10.658 4.661 22.304.481l-6.853-3.713a.263.263 0 0 1-.123-.144l-4.805-13.727-6.208 3.12 2.498 11.282a.262.262 0 0 1-.17.301l-6.643 2.4Z"/>
  <path fill="#FFFEFE" d="M141.255 113.376s2.738.761 3.218-1.638c.481-2.399-1.784-2.034-1.784-2.034s1.952-5.343-1.867-5.481c-3.819-.136-6.707-1.289-6.707-1.289s-2.29 5.138-2.791 9.31c-.303 2.516.046 4.68 1.939 5.153 5.184 1.295 7.992-4.019 7.992-4.019v-.002Z"/>
  <path fill="#0C0C0C" d="M134.856 117.861a6.845 6.845 0 0 1-1.66-.21c-1.799-.449-2.519-2.279-2.139-5.437.5-4.162 2.788-9.332 2.812-9.383a.271.271 0 0 1 .349-.137c.028.012 2.891 1.137 6.614 1.27.95.034 1.658.373 2.101 1.008.929 1.328.394 3.571.13 4.453.372.01.917.099 1.304.485.413.413.539 1.045.371 1.88-.146.732-.503 1.27-1.057 1.601-.826.492-1.854.371-2.289.287-.497.823-2.76 4.184-6.536 4.184v-.001Zm-.593-14.591c-.446 1.045-2.24 5.417-2.671 9.005-.343 2.856.242 4.495 1.74 4.869a6.377 6.377 0 0 0 1.551.197c3.92 0 6.036-3.897 6.134-4.083a.273.273 0 0 1 .312-.132c.013.004 1.221.326 2.073-.184.42-.251.692-.672.808-1.253.13-.654.055-1.13-.227-1.412-.432-.434-1.243-.314-1.251-.313a.275.275 0 0 1-.25-.092.254.254 0 0 1-.048-.254c.011-.03 1.05-2.928.053-4.354-.347-.495-.895-.75-1.676-.777-3.227-.115-5.763-.935-6.549-1.216l.001-.001ZM122.561 160.385a.264.264 0 0 1-.269-.252l-.511-15.295a.265.265 0 0 1 .26-.27.265.265 0 0 1 .278.253l.511 15.294a.265.265 0 0 1-.26.27H122.561ZM19.926 177.788a.27.27 0 0 1-.267-.235c-.017-.16-1.58-16.124 8.904-28.308.315-.365.886-.081 1.49.221.263.13.752.373.88.336.135-.149.073-.868.027-1.392-.072-.829-.133-1.545.229-1.876a30.773 30.773 0 0 1 6.858-4.748.275.275 0 0 1 .245-.001c.078.038.132.11.145.193.01.057.896 5.755-.794 13.045-.09.39-.662.63-1.585.988-.445.173-1.181.459-1.288.632.073.138.545.395.832.55.65.355 1.266.689 1.107 1.172-2.058 6.273-5.499 12.963-16.645 19.389a.272.272 0 0 1-.138.037v-.003Zm9.035-28.191c-9.382 10.917-8.966 24.915-8.8 27.488 10.095-5.911 13.721-11.831 16.034-18.88-.041-.112-.572-.401-.857-.556-.63-.344-1.225-.668-1.096-1.132.11-.392.686-.633 1.616-.994.443-.172 1.185-.461 1.26-.624 1.423-6.131.997-11.113.836-12.475a30.25 30.25 0 0 0-6.396 4.489c-.172.157-.105.936-.06 1.451.068.79.126 1.473-.191 1.806-.327.344-.897.06-1.499-.24-.265-.131-.705-.352-.846-.334v.001Z"/>
  <path fill="#0C0C0C" d="M22.532 158.615c-.105-.543-2.542.108-2.662-.417-.118-.517 2.04-2.859 1.909-3.358-2.564-9.787-7.383-15.966-7.383-15.966-2.355 3.371-4.466 7.902-5.563 11.441-.176.565 1.842 2.58 1.694 3.147-.162.621-2.51.399-2.64 1.021-1.93 9.174-.128 16.346 1.958 23.472 4.242.13 8.217.08 11.981-.271 1.97-7.488 1.841-13.196.706-19.069Z"/>
  <path fill="#FFFEFE" d="M16.335 175.219a.267.267 0 0 1-.266-.224c-.466-3.074-.855-6.2-1.157-9.294a.264.264 0 0 1 .243-.284.267.267 0 0 1 .293.236c.3 3.084.688 6.2 1.153 9.266a.261.261 0 0 1-.227.296c-.013.002-.026.002-.04.002l.001.002ZM14.806 161.522a.266.266 0 0 1-.269-.243 175.273 175.273 0 0 1-.42-15.774l.044-2.396a.264.264 0 0 1 .275-.257.266.266 0 0 1 .265.267l-.044 2.395c-.096 5.225.045 10.516.419 15.729a.262.262 0 0 1-.25.278h-.02v.001Z"/>
  <path fill="#0C0C0C" d="M20.872 177.754s3.922-16.196 21.322-14.408c0 0-2.184 13.304-21.322 14.408Z"/>
  <path fill="#FFFEFE" d="M24.58 175.425a.273.273 0 0 1-.191-.076.256.256 0 0 1 0-.37c4.04-3.945 12.96-8.813 13.05-8.862a.273.273 0 0 1 .366.101.256.256 0 0 1-.104.356c-.09.048-8.944 4.88-12.931 8.773a.275.275 0 0 1-.19.078Z"/>
  <path fill="#0C0C0C" d="M25.76 164.794a.274.274 0 0 1-.18-.068.257.257 0 0 1-.02-.37c1.672-1.787 3.67-4.743 4.783-6.739 3.407-6.123 5.543-11.603 5.564-11.657a.272.272 0 0 1 .347-.153.26.26 0 0 1 .157.337c-.02.054-2.169 5.567-5.595 11.721-1.126 2.024-3.156 5.024-4.856 6.842a.272.272 0 0 1-.199.086l-.001.001ZM185.521 24.327a.273.273 0 0 1-.19-.077l-1.026-.997a.257.257 0 0 1 0-.37.274.274 0 0 1 .38 0l1.027.997a.257.257 0 0 1 0 .37.275.275 0 0 1-.191.077ZM189.116 27.816a.275.275 0 0 1-.191-.077l-1.026-.997a.257.257 0 0 1 0-.37.276.276 0 0 1 .381 0l1.026.997a.257.257 0 0 1 0 .37.273.273 0 0 1-.19.077ZM184.495 27.816a.273.273 0 0 1-.19-.077.257.257 0 0 1 0-.37l1.026-.997a.276.276 0 0 1 .381 0 .257.257 0 0 1 0 .37l-1.027.997a.273.273 0 0 1-.19.077ZM188.089 24.327a.273.273 0 0 1-.19-.077.257.257 0 0 1 0-.37l1.026-.997a.275.275 0 0 1 .381 0 .257.257 0 0 1 0 .37l-1.026.997a.275.275 0 0 1-.191.077ZM177.269 22.407c-1.345 0-2.439-1.062-2.439-2.368 0-1.305 1.095-2.368 2.439-2.368s2.438 1.063 2.438 2.368c0 1.306-1.094 2.368-2.438 2.368Zm0-4.213c-1.049 0-1.9.828-1.9 1.845 0 1.018.853 1.845 1.9 1.845s1.9-.827 1.9-1.845c0-1.017-.853-1.845-1.9-1.845ZM177.905 34.168c-.936 0-1.698-.74-1.698-1.648 0-.909.762-1.648 1.698-1.648.936 0 1.697.74 1.697 1.648 0 .908-.761 1.648-1.697 1.648Zm0-2.772c-.64 0-1.16.505-1.16 1.125s.52 1.125 1.16 1.125c.639 0 1.159-.505 1.159-1.125s-.52-1.125-1.159-1.125ZM35.808 7.459a.266.266 0 0 1-.267-.234l-.152-1.403a.264.264 0 0 1 .239-.288.267.267 0 0 1 .296.233l.153 1.402a.264.264 0 0 1-.24.289H35.809ZM36.342 12.367a.266.266 0 0 1-.267-.234l-.153-1.403a.264.264 0 0 1 .24-.288.268.268 0 0 1 .296.233l.152 1.402a.264.264 0 0 1-.239.289h-.029ZM32.751 9.542a.266.266 0 0 1-.267-.235.263.263 0 0 1 .24-.287l1.444-.147a.266.266 0 0 1 .295.233.263.263 0 0 1-.24.287l-1.444.147h-.028v.002ZM37.804 9.028a.266.266 0 0 1-.267-.235.262.262 0 0 1 .24-.287l1.444-.147a.267.267 0 0 1 .295.232.262.262 0 0 1-.24.287l-1.444.147-.028.002ZM23.174 16.379c-.54 0-1.083-.172-1.533-.528a2.336 2.336 0 0 1-.89-1.594c-.07-.63.119-1.246.529-1.738.41-.492.992-.8 1.64-.865a2.47 2.47 0 0 1 1.79.516 2.327 2.327 0 0 1 .362 3.332 2.46 2.46 0 0 1-1.897.877h-.001Zm.002-4.214a1.903 1.903 0 0 0-1.48.684 1.801 1.801 0 0 0-.411 1.355c.053.49.3.93.694 1.241a1.94 1.94 0 0 0 2.672-.271 1.812 1.812 0 0 0-.282-2.596 1.919 1.919 0 0 0-1.193-.411v-.002ZM15.585 25.748a1.72 1.72 0 0 1-1.067-.367 1.62 1.62 0 0 1-.252-2.32 1.733 1.733 0 0 1 2.387-.242 1.62 1.62 0 0 1 .253 2.32c-.335.401-.825.61-1.32.61v-.001Zm0-2.773c-.338 0-.672.143-.9.416a1.105 1.105 0 0 0 .171 1.584c.497.39 1.228.316 1.63-.167a1.105 1.105 0 0 0-.172-1.582 1.177 1.177 0 0 0-.729-.25ZM77.584 194.239a78.71 78.71 0 0 1-13.136-1.101c-11.076-1.878-18.153-5.526-18.222-5.562a.259.259 0 0 1-.11-.355.274.274 0 0 1 .365-.107c.07.037 7.085 3.65 18.081 5.512 10.142 1.717 25.844 2.253 43.049-4.95a.272.272 0 0 1 .354.137.258.258 0 0 1-.14.344 78.005 78.005 0 0 1-30.239 6.08l-.002.002ZM67.765 200.228c-5.71 0-21.845-1.012-36.093-11.45a.257.257 0 0 1-.052-.367.275.275 0 0 1 .377-.051c17.415 12.76 37.66 11.305 37.862 11.288a.266.266 0 0 1 .29.24.264.264 0 0 1-.246.282c-.04.003-.804.058-2.138.058Z"/>
</svg>
