<svg xmlns="http://www.w3.org/2000/svg" viewBox="0 0 211 217" fill="none">
  <path fill="#FFFEFE" d="M202.105.704H38.991c-4.568 0-8.271 3.947-8.271 8.817v135.324c0 4.869 3.703 8.816 8.27 8.816h163.115c4.567 0 8.27-3.947 8.27-8.816V9.521c0-4.87-3.703-8.817-8.27-8.817Z"/>
  <path fill="#0C0C0C" d="M202.106 153.944H38.991c-4.706 0-8.535-4.082-8.535-9.098V9.52c0-5.016 3.83-9.097 8.535-9.097h163.115c4.705 0 8.534 4.081 8.534 9.097v135.326c0 5.016-3.829 9.098-8.534 9.098ZM38.991.986c-4.415 0-8.006 3.829-8.006 8.534v135.326c0 4.706 3.591 8.534 8.006 8.534h163.115c4.414 0 8.007-3.828 8.007-8.534V9.52c0-4.705-3.592-8.534-8.007-8.534H38.991Z"/>
  <path fill="#0C0C0C" d="M210.416 19.831H30.761c-.146 0-.264-.127-.264-.28V9.541c0-5.028 3.837-9.12 8.555-9.12h163.074c4.717 0 8.554 4.09 8.554 9.12V19.55c0 .156-.118.281-.264.281Zm-179.39-.563h179.127V9.54c0-4.718-3.601-8.557-8.027-8.557H39.052c-4.426 0-8.027 3.839-8.027 8.557v9.727ZM189.965 139.758H51.13c-3.923 0-7.115-3.403-7.115-7.585v-91.93c0-4.182 3.192-7.585 7.115-7.585h138.835c3.924 0 7.116 3.403 7.116 7.585v91.93c0 4.182-3.193 7.585-7.116 7.585ZM51.13 33.222c-3.632 0-6.587 3.15-6.587 7.02v91.931c0 3.872 2.955 7.022 6.587 7.022h138.835c3.632 0 6.588-3.15 6.588-7.022v-91.93c0-3.872-2.955-7.021-6.588-7.021H51.13Z"/>
  <path fill="#0C0C0C" d="M183.611 12.738c1.179-1.257 1.179-3.294 0-4.55-1.178-1.256-3.089-1.256-4.268 0-1.178 1.256-1.178 3.293 0 4.55 1.179 1.256 3.09 1.256 4.268 0ZM194.272 11.2c.383-1.73-.621-3.462-2.243-3.87-1.623-.408-3.248.662-3.631 2.392-.383 1.729.622 3.461 2.244 3.87 1.622.408 3.248-.663 3.63-2.393ZM204.14 11.199c.383-1.73-.622-3.462-2.244-3.87-1.622-.408-3.247.662-3.63 2.392-.383 1.729.621 3.461 2.244 3.87 1.622.408 3.247-.663 3.63-2.392Z"/>
  <path fill="#FFFEFE" d="M182.854 40.998h-97.85c-3.062 0-5.543 2.645-5.543 5.909v74.659c0 3.263 2.481 5.908 5.543 5.908h97.85c3.062 0 5.543-2.645 5.543-5.908v-74.66c0-3.263-2.481-5.908-5.543-5.908Z"/>
  <path fill="#0C0C0C" d="M182.853 127.756h-97.85c-3.201 0-5.807-2.777-5.807-6.191V46.907c0-3.413 2.606-6.191 5.808-6.191h97.849c3.202 0 5.808 2.777 5.808 6.19v74.659c0 3.413-2.606 6.191-5.808 6.191Zm-97.85-86.477c-2.91 0-5.278 2.525-5.278 5.628v74.658c0 3.103 2.368 5.627 5.279 5.627h97.849c2.911 0 5.279-2.524 5.279-5.627V46.907c0-3.103-2.368-5.628-5.279-5.628h-97.85Z"/>
  <path fill="#0C0C0C" d="M177.861 51.911h-18.554c-.767 0-1.389-.662-1.389-1.48s.622-1.48 1.389-1.48h18.554c.767 0 1.388.662 1.388 1.48s-.621 1.48-1.388 1.48ZM181.846 58.25h-26.572c-.768 0-1.389-.662-1.389-1.48s.621-1.48 1.389-1.48h26.572c.767 0 1.388.662 1.388 1.48s-.621 1.48-1.388 1.48ZM181.913 70.163h-26.552c-.767 0-1.388-.662-1.388-1.48s.621-1.48 1.388-1.48h26.552c.767 0 1.388.662 1.388 1.48s-.621 1.48-1.388 1.48ZM181.825 75.886h-25.974c-.767 0-1.388-.662-1.388-1.48s.621-1.48 1.388-1.48h25.974c.767 0 1.388.662 1.388 1.48s-.621 1.48-1.388 1.48ZM182.001 81.703h-25.974c-.767 0-1.388-.662-1.388-1.48s.621-1.48 1.388-1.48h25.974c.767 0 1.388.662 1.388 1.48s-.621 1.48-1.388 1.48ZM181.913 87.426h-26.551c-.767 0-1.388-.662-1.388-1.48s.621-1.48 1.388-1.48h26.551c.767 0 1.388.662 1.388 1.48s-.621 1.48-1.388 1.48ZM181.824 93.336h-26.551c-.767 0-1.388-.662-1.388-1.48s.621-1.48 1.388-1.48h26.551c.767 0 1.388.662 1.388 1.48s-.621 1.48-1.388 1.48ZM164.993 64.46h-9.671c-.767 0-1.388-.661-1.388-1.48 0-.817.621-1.479 1.388-1.479h9.671c.767 0 1.388.662 1.388 1.48s-.621 1.48-1.388 1.48ZM181.978 64.46h-10.204c-.767 0-1.388-.661-1.388-1.48 0-.817.621-1.479 1.388-1.479h10.204c.767 0 1.388.662 1.388 1.48s-.621 1.48-1.388 1.48ZM112.869 98.05h-26.17c-.768 0-1.39-.662-1.39-1.48s.622-1.48 1.39-1.48h26.17c.767 0 1.388.662 1.388 1.48s-.621 1.48-1.388 1.48ZM137.712 97.956h-20.035c-.767 0-1.388-.662-1.388-1.48s.621-1.48 1.388-1.48h20.035c.767 0 1.388.662 1.388 1.48s-.621 1.48-1.388 1.48ZM105.055 91.878H86.61c-.767 0-1.388-.662-1.388-1.48s.621-1.48 1.388-1.48h18.445c.767 0 1.389.662 1.389 1.48s-.622 1.48-1.389 1.48ZM137.78 123.523H87.087c-1.213 0-2.2-1.052-2.2-2.345v-17.075c0-1.293.987-2.346 2.2-2.346h50.693c1.214 0 2.201 1.052 2.201 2.346v17.075c0 1.292-.987 2.345-2.201 2.345Zm-50.693-21.202c-.921 0-1.672.801-1.672 1.783v17.075c0 .982.75 1.782 1.672 1.782h50.693c.922 0 1.672-.8 1.672-1.782v-17.075c0-.982-.75-1.783-1.672-1.783H87.087ZM182.312 123.523h-36.259c-1.214 0-2.201-1.052-2.201-2.345v-17.075c0-1.294.987-2.346 2.201-2.346h36.259c1.213 0 2.2 1.052 2.2 2.346v17.075c0 1.293-.987 2.345-2.2 2.345Zm-36.26-21.202c-.922 0-1.673.801-1.673 1.783v17.075c0 .982.751 1.782 1.673 1.782h36.259c.922 0 1.672-.8 1.672-1.782v-17.075c0-.982-.75-1.783-1.672-1.783h-36.259ZM148.253 48.847H87.267c-1.167 0-2.113 1.008-2.113 2.252v28.24c0 1.245.946 2.253 2.113 2.253h60.986c1.167 0 2.113-1.008 2.113-2.252V51.099c0-1.244-.946-2.252-2.113-2.252Z"/>
  <path fill="#FFFEFE" d="m56.28 166.643-36.992-.393c-6.69 0-12.41-4.655-13.583-11.742l-6.333-38.302c-.754-4.563 2.507-8.751 6.813-8.751h24.138l25.957 59.188Z"/>
  <path fill="#0C0C0C" d="M56.28 166.924h-.002l-36.992-.393c-6.982 0-12.674-4.925-13.84-11.975l-6.334-38.301c-.376-2.272.204-4.585 1.59-6.348 1.368-1.737 3.366-2.734 5.483-2.734h24.138c.102 0 .195.063.238.162l25.958 59.187a.299.299 0 0 1-.016.271.259.259 0 0 1-.222.129v.002ZM6.186 107.736c-1.96 0-3.81.923-5.078 2.534-1.286 1.634-1.824 3.78-1.475 5.888l6.332 38.302c1.12 6.777 6.599 11.509 13.323 11.509l36.575.388-25.708-58.621H6.185Z"/>
  <path fill="#0C0C0C" d="M34.211 213.474h-6.085v-47.292l6.085.247v47.045Z"/>
  <path fill="#0C0C0C" d="M45.541 205.562H18.164c-4.27 0-7.733 3.691-7.733 8.244h42.844c0-4.553-3.462-8.244-7.733-8.244ZM9.379 137.309a.27.27 0 0 1-.26-.232l-3.07-18.593c-.025-.153.07-.299.214-.326a.266.266 0 0 1 .305.228l3.07 18.593c.025.153-.07.299-.214.325a.242.242 0 0 1-.046.004l.001.001ZM44.18 76.582c2.431-.23 4.13 2.133 5.49 5.71 1.111 2.921.674 5.353-.825 6.955-4.851 5.18-10.115 20.129-17.312 24.676-5.742 3.627-17.762 2.956-23.314-4.566-5.279-7.151-6.082-17.509-.108-22.169 5.37-4.189 10.37 2.99 16.07-.905 5.618-3.841 5.53-7.025 8.853-8.899 3.568-2.01 4.258-.153 11.147-.802Z"/>
  <path fill="#FFFEFE" d="M78.822 190.402c-.051.226 2.425 12.305 2.425 12.305l-5.692-1.016-1.715-10.213 4.98-1.076h.002Z"/>
  <path fill="#0C0C0C" d="M81.247 202.988c-.014 0-.028 0-.044-.004l-5.692-1.015a.272.272 0 0 1-.216-.228l-1.715-10.213c-.025-.151.067-.295.208-.325l4.98-1.076a.251.251 0 0 1 .243.081.294.294 0 0 1 .074.209c.038.501 1.464 7.57 2.419 12.231a.293.293 0 0 1-.067.254.257.257 0 0 1-.19.087v-.001Zm-5.464-1.542 5.123.914c-1.692-8.261-2.17-10.812-2.299-11.624l-4.46.963 1.636 9.747Z"/>
  <path fill="#FFFEFE" d="M78.225 198.744c.348-.313.846-.617 1.48-.646.953-.043 1.824.594 2.218 1.528.987 2.339 3.59 8.854 4.326 14.178.26 1.882-1.073 3.412-3.148 2.179-3.401-2.02-8.12-6.659-10.59-13.511a2.618 2.618 0 0 1 .284-2.354c.38-.555.897-1.226 1.495-1.798a1.483 1.483 0 0 1 2.028-.034l.534.468c.401.352.976.346 1.374-.01h-.001Z"/>
  <path fill="#0C0C0C" d="M84.502 216.711c-.416 0-.927-.123-1.53-.481-3.56-2.114-8.241-6.811-10.71-13.657-.319-.886-.2-1.867.318-2.621.5-.728 1.015-1.348 1.532-1.841.67-.641 1.669-.659 2.372-.042l.534.468c.3.264.736.26 1.037-.008.49-.44 1.056-.685 1.638-.712 1.036-.048 2.023.634 2.471 1.694 1.062 2.517 3.612 8.942 4.346 14.251.15 1.085-.188 2.077-.882 2.588a1.876 1.876 0 0 1-1.124.361h-.002Zm-9.186-18.529c-.305 0-.61.116-.851.348-.49.467-.981 1.058-1.459 1.754a2.312 2.312 0 0 0-.25 2.088c2.418 6.704 6.995 11.301 10.473 13.367.821.487 1.567.54 2.099.149.527-.387.78-1.17.659-2.042-.723-5.24-3.252-11.608-4.305-14.103-.36-.852-1.149-1.401-1.967-1.364-.471.022-.916.217-1.32.58a1.277 1.277 0 0 1-1.712.013l-.534-.469a1.262 1.262 0 0 0-.833-.321Z"/>
  <path fill="#0C0C0C" d="M84.953 214.59c-.448 0-5.247-.299-11.067-12.56a.292.292 0 0 1 .117-.379.258.258 0 0 1 .355.124c5.832 12.29 10.555 12.25 10.604 12.252.15-.007.269.116.273.271.005.155-.109.286-.254.291h-.027l-.001.001ZM81.31 207.84a.264.264 0 0 1-.246-.179.287.287 0 0 1 .149-.364l2.698-1.135c.136-.057.288.014.342.159a.287.287 0 0 1-.149.364l-2.698 1.134a.24.24 0 0 1-.097.021h.001ZM80.365 205.635a.264.264 0 0 1-.246-.18.287.287 0 0 1 .151-.364l3.165-1.313c.136-.056.289.015.342.161a.288.288 0 0 1-.15.364l-3.166 1.313a.25.25 0 0 1-.096.019Z"/>
  <path fill="#FFFEFE" d="M54.535 190.369c-.042.091-.358 1.509-.605 3.899-.41 3.982 3.77 7.669 3.77 7.669l-9.902-1.423.38-9.214 6.357-.931Z"/>
  <path fill="#0C0C0C" d="M57.7 202.218c-.012 0-.024 0-.036-.003l-9.901-1.423a.276.276 0 0 1-.228-.291l.379-9.214a.277.277 0 0 1 .228-.267l6.357-.931a.26.26 0 0 1 .25.113.3.3 0 0 1 .029.276c-.058.181-.358 1.617-.584 3.821-.391 3.787 3.634 7.385 3.675 7.42.09.08.121.215.074.329a.263.263 0 0 1-.242.169l-.001.001Zm-9.627-1.95 8.827 1.269c-1.179-1.233-3.558-4.144-3.232-7.3.172-1.67.382-2.903.514-3.532l-5.752.842-.358 8.721Z"/>
  <path fill="#FFFEFE" d="M50.082 197.839c.58-.204.447-1.161.922-1.612.717-.68 1.613-.666 2.467-.208 2.135 1.149 7.97 4.448 11.655 8.086 1.303 1.287 1.164 3.378-1.17 3.825-3.826.734-10.206.327-16.134-3.323-.681-.419-1.123-1.179-1.158-2.022-.029-.689 0-2.97.131-3.821.125-.813.79-1.403 1.555-1.4h.69c.518.004.548.647 1.04.475h.002Z"/>
  <path fill="#0C0C0C" d="M60.49 208.52c-3.745 0-8.4-.961-12.8-3.67-.768-.472-1.249-1.316-1.288-2.252-.03-.704 0-3.001.136-3.88.146-.948.907-1.635 1.81-1.635h.695c.352.002.548.209.69.359.145.154.168.164.266.129.184-.064.258-.283.364-.634.094-.313.2-.667.467-.92.75-.714 1.731-.802 2.76-.248 2.299 1.235 8.04 4.502 11.717 8.13.75.739 1.067 1.737.831 2.6-.14.512-.604 1.415-2.134 1.708-1.03.198-2.216.313-3.513.313h-.001Zm-12.143-10.874c-.643 0-1.186.489-1.29 1.165-.126.829-.156 3.095-.128 3.762.031.745.415 1.415 1.026 1.791 5.8 3.571 12.044 4.041 15.955 3.29.926-.177 1.538-.643 1.72-1.312.181-.658-.08-1.435-.682-2.029-3.627-3.58-9.317-6.815-11.595-8.04-.582-.313-1.43-.539-2.172.165-.159.151-.235.404-.315.673-.118.393-.251.839-.7.997-.415.146-.648-.1-.803-.263-.121-.128-.191-.195-.32-.195h-.69l-.004-.001-.002-.003Z"/>
  <path fill="#0C0C0C" d="M60.397 206.677c-2.494 0-6.268-.725-11.764-3.348a.29.29 0 0 1-.133-.373c.06-.141.217-.205.35-.141 11.719 5.595 15.369 2.368 15.405 2.334a.254.254 0 0 1 .373.025.296.296 0 0 1-.023.398c-.085.078-1.242 1.104-4.207 1.104l-.001.001ZM57.636 202.879a.248.248 0 0 1-.129-.036.293.293 0 0 1-.1-.384l1.431-2.709a.255.255 0 0 1 .36-.107.293.293 0 0 1 .101.384l-1.432 2.709a.263.263 0 0 1-.23.143ZM55.611 201.807a.256.256 0 0 1-.137-.042.292.292 0 0 1-.088-.387l1.612-2.822a.255.255 0 0 1 .364-.094.293.293 0 0 1 .088.388l-1.613 2.822a.26.26 0 0 1-.226.135ZM27.705 143.921s34.661-1.604 38.45 2.147c5.14 5.088 13.97 47.445 13.97 47.445l-8.526 2.549S58.753 161.3 55.57 161.3c-3.183 0-33.192-1.142-33.192-1.142l5.326-16.237Z"/>
  <path fill="#0C0C0C" d="M20.886 142.754s-4.571 14.306-.933 16.915c3.637 2.609 29.858 2.388 28.95 2.061-.91-.326-2.345 23.424-2.345 32.557l8.256.339s13.157-36.729 11.739-40.83c-2.537-7.336-21.666-9.814-27.917-10.794-1.287-.203-17.749-.247-17.749-.247v-.001Z"/>
  <path fill="#FFFEFE" d="M62.191 174.004a.212.212 0 0 1-.08-.014c-.14-.046-.215-.206-.171-.354.297-.988.591-1.96.881-2.912 2.31-7.61 4.306-14.183 3.48-16.84-1.754-5.643-14.87-7.807-19.18-8.517a.28.28 0 0 1-.221-.321c.022-.154.159-.26.301-.236 7.618 1.256 17.938 3.545 19.602 8.896.88 2.832-1.043 9.169-3.478 17.192-.29.95-.585 1.921-.88 2.91a.267.267 0 0 1-.252.196h-.002ZM24.996 99.379s.122-2.359-1.244 22.229c0 0 .94 19.025 1.058 21.17.117 2.146 17.57 1.213 17.57 1.213 2.063-9.649 1.838-20.721.398-32.547l2.99-.285.209-7.434c-.542-2.189-2.827-3.762-4.362-4.347-4.088-1.959-11.338-1.33-16.62.001h.001Z"/>
  <path fill="#0C0C0C" d="M34.544 144.474c-.301 0-.605 0-.908-.003-9.004-.073-9.064-1.197-9.09-1.677-.117-2.121-1.049-20.981-1.058-21.171v-.032c.573-10.315.884-15.887 1.052-18.881.084-1.497.132-2.35.16-2.827.012-.205.02-.36.032-.48v-.04l.003-.051h.008c.034-.26.095-.285.27-.275a.275.275 0 0 1 .097.024c5.062-1.25 12.377-1.971 16.614.06 1.79.68 3.98 2.396 4.509 4.532.006.027.01.053.008.08l-.208 7.434a.274.274 0 0 1-.24.272l-2.717.26c1.57 13.059 1.427 23.644-.438 32.355a.27.27 0 0 1-.245.219c-.04.003-3.83.203-7.848.203v-.002Zm-10.528-22.865c.032.642.943 19.06 1.057 21.153.006.11.298 1.079 8.568 1.145 3.795.032 7.62-.143 8.526-.187 1.821-8.671 1.935-19.219.35-32.24a.294.294 0 0 1 .056-.213.255.255 0 0 1 .183-.104l2.757-.263.2-7.143c-.497-1.921-2.513-3.478-4.185-4.116-4.132-1.979-11.3-1.263-16.282-.037-.054.937-.286 5.031-1.229 22.002l-.001.003Z"/>
  <path fill="#0C0C0C" d="M35.423 119.941a.262.262 0 0 1-.234-.15.29.29 0 0 1 .11-.38c4.153-2.332 4.43-8.895 4.43-8.962.006-.156.125-.276.274-.271.146.006.26.137.254.291-.01.282-.292 6.956-4.713 9.438a.249.249 0 0 1-.122.033l.001.001Z"/>
  <path fill="#FFFEFE" d="M27.944 99.05s-4.203-.517-6.91 3.424c-2.687 3.913-3.015 8.375-2.508 11.961.861 6.089 4.45 13.02 4.285 14.911-.08.918-.994 7.446-4.45 13.291-2.847 4.813-2.724 15.428-2.169 15.773 3.747 2.327 9.891 7.051 17.21 7.615 1.35.104 2.455-.641 2.651-1.807.782-4.661 2.875-18.177 3.19-30.866.273-10.989-7.067-27.674-7.392-29.106-.784-3.472-3.908-5.195-3.908-5.195h.001Z"/>
  <path fill="#0C0C0C" d="M33.658 166.316c-.09 0-.182-.003-.276-.01-6.326-.487-11.663-3.972-15.56-6.518a94.464 94.464 0 0 0-1.761-1.133c-.119-.074-.195-.219-.257-.488-.401-1.748-.336-11.162 2.335-15.678 3.66-6.188 4.405-13.1 4.411-13.167.068-.771-.616-2.656-1.409-4.837-1.065-2.932-2.389-6.582-2.874-10.005-.45-3.197-.375-7.903 2.556-12.169 2.765-4.026 7.11-3.542 7.152-3.536a.26.26 0 0 1 .091.029c.132.072 3.242 1.823 4.044 5.379.055.241.358 1.037.777 2.138 2.049 5.386 6.847 17.998 6.622 27.041-.31 12.554-2.337 25.796-3.194 30.907-.207 1.236-1.282 2.05-2.656 2.05l-.001-.003Zm-17.297-8.127a90.49 90.49 0 0 1 1.737 1.118c3.85 2.515 9.124 5.96 15.322 6.437 1.225.094 2.202-.554 2.373-1.576.855-5.098 2.877-18.307 3.187-30.822.22-8.926-4.722-21.923-6.583-26.815-.46-1.207-.737-1.937-.8-2.219-.697-3.083-3.358-4.764-3.731-4.985-.466-.038-4.191-.22-6.618 3.314-2.824 4.113-2.896 8.662-2.46 11.754.476 3.361 1.79 6.979 2.845 9.886.884 2.432 1.521 4.191 1.442 5.093-.156 1.774-1.314 8.044-4.49 13.415-2.78 4.704-2.604 14.597-2.223 15.402v-.002Z"/>
  <path fill="#FFFEFE" d="M62.62 133.218c-4.863-2.013-13.452-10.389-15.782-17.076l-.224-11.618c-.258-1.834-.863-2.573-2.3-3.596-.563-.401-1.534-.853-2.321-1.02 0 0-.407-.247-.497 2.13-.044 1.158 1.339 14.03 1.586 25.064.173 7.721-.907 14.466-.835 15.95.006.11 4.773 1.127 5.094.785l.032-.102-.275-14.213c2.68 2.493 7.803 6.789 11.87 6.632l3.653-2.937-.002.001Z"/>
  <path fill="#0C0C0C" d="M46.887 144.172c-1.44 0-4.659-.817-4.694-.833-.167-.068-.206-.186-.21-.273-.025-.506.075-1.565.214-3.031.294-3.084.737-7.745.62-12.928-.17-7.567-.868-15.928-1.285-20.924-.197-2.355-.316-3.776-.3-4.157.07-1.845.328-2.229.544-2.356a.343.343 0 0 1 .287-.036c.859.186 1.853.671 2.397 1.058 1.446 1.031 2.139 1.822 2.415 3.788a.363.363 0 0 1 .003.036l.223 11.571c2.272 6.452 10.61 14.797 15.614 16.867a.292.292 0 0 1 .064.488l-3.652 2.937a.264.264 0 0 1-.15.057c-3.675.14-8.257-3.246-11.604-6.287l.263 13.58a.318.318 0 0 1-.014.095l-.032.103a.269.269 0 0 1-.064.11c-.091.097-.322.137-.639.137v-.002Zm-4.38-1.312c.771.243 3.915.835 4.599.764l-.272-14.096a.284.284 0 0 1 .152-.26.25.25 0 0 1 .285.043c4.695 4.364 8.708 6.63 11.605 6.564l3.217-2.586c-5.148-2.398-13.271-10.65-15.501-17.051a.303.303 0 0 1-.017-.093l-.225-11.6c-.245-1.728-.787-2.392-2.184-3.385a6.774 6.774 0 0 0-2.15-.961c-.062.125-.207.549-.257 1.849-.013.345.118 1.913.3 4.086.417 5.002 1.116 13.374 1.286 20.96.117 5.217-.328 9.9-.623 12.998-.12 1.279-.214 2.243-.216 2.768h.001Z"/>
  <path fill="#FFFEFE" d="M56.414 134.085c.138-.287.37-.515.654-.624.205-.078.405-.181.597-.29l2.651-1.5c.497-.259 1.207.346 1.723.526 1.555.544 4.777 1.828 4.511 3.033-.286 1.3-3.055.685-4.038.423-.224-.06-2.258.725-2.902.777-.889.072-1.094-.17-1.529-.413a1.346 1.346 0 0 0-.658-.162 1.177 1.177 0 0 1-.944-.471l-.006-.007a1.155 1.155 0 0 1-.112-1.184l.052-.109.001.001Z"/>
  <path fill="#0C0C0C" d="M59.32 136.725c-.605 0-.883-.17-1.175-.348a4.217 4.217 0 0 0-.184-.109 1.099 1.099 0 0 0-.537-.131 1.44 1.44 0 0 1-1.149-.577 1.46 1.46 0 0 1-.147-1.495l.052-.109c.172-.36.456-.629.8-.761.165-.063.343-.151.561-.273l2.652-1.501c.474-.248.999.035 1.461.281.171.092.332.178.468.226 3.344 1.171 4.921 2.303 4.688 3.365a1.1 1.1 0 0 1-.496.708c-.9.584-2.785.21-3.843-.071-.141.01-.698.187-1.108.316-.673.213-1.37.434-1.73.463a3.972 3.972 0 0 1-.313.014v.002Zm1.271-4.835a.329.329 0 0 0-.158.035l-2.644 1.495a4.76 4.76 0 0 1-.63.307.95.95 0 0 0-.508.487l-.053.109a.86.86 0 0 0 .085.88.925.925 0 0 0 .744.373c.29.003.553.067.78.195.07.041.137.08.2.119.3.184.517.316 1.184.262.305-.024 1.035-.255 1.62-.44.947-.3 1.204-.371 1.366-.329 1.633.435 2.927.488 3.46.141a.547.547 0 0 0 .256-.355c.147-.667-1.556-1.728-4.337-2.702a4.033 4.033 0 0 1-.54-.257c-.281-.151-.593-.318-.825-.318v-.002Z"/>
  <path fill="#FFFEFE" d="M31.78 128.437c3.423 8.347 9.545 10.33 19.587 11.756l-1.072 3.157c-15.003 1.997-17.827-1.167-23.892-9.636l5.377-5.278v.001Z"/>
  <path fill="#0C0C0C" d="M24.333 149.086c-1.062 0-2.232-.227-3.51-.777a.288.288 0 0 1-.146-.366.259.259 0 0 1 .343-.156c6.797 2.926 10.354-3.875 10.389-3.944a.255.255 0 0 1 .357-.112.29.29 0 0 1 .106.381c-.031.061-2.601 4.974-7.542 4.974h.003ZM47.102 129.016a.272.272 0 0 1-.264-.271l-.36-10.703c-.004-.155.11-.286.255-.291.152-.007.268.117.273.271l.36 10.703c.004.156-.11.286-.255.291h-.01ZM41.947 144.231c-3.69 0-5.487-.838-7.907-1.967a63.904 63.904 0 0 0-1.912-.866c-2.008-.861-3.463-2.19-4.717-4.311-.58-.98-1.075-2.026-1.553-3.036-.422-.89-.859-1.812-1.348-2.676a.292.292 0 0 1 .089-.386.254.254 0 0 1 .362.096c.5.882.94 1.813 1.367 2.713.473.999.962 2.032 1.529 2.989 1.19 2.013 2.568 3.274 4.467 4.088.706.302 1.327.592 1.928.872 3.116 1.455 5.176 2.414 11.848 1.647.53-.06 2.67-.04 3.196-.017.146.006.258.138.252.292-.005.156-.125.275-.274.27-.5-.022-2.618-.043-3.117.014-1.652.189-3.029.276-4.21.276v.002ZM51.144 140.345h-.023c-.093-.009-9.333-.926-14.601-4.845-1.57-1.167-2.353-3.754-3.18-6.492a106.92 106.92 0 0 0-.507-1.639.285.285 0 0 1 .166-.357c.137-.05.287.028.334.176.176.547.344 1.101.509 1.648.8 2.645 1.557 5.143 2.98 6.203 5.155 3.835 14.255 4.737 14.346 4.746.145.014.253.151.24.305a.27.27 0 0 1-.263.257v-.002Z"/>
  <path fill="#FFFEFE" d="M48.983 141.666c.138-.288.37-.516.655-.625.204-.078.405-.181.596-.29l2.652-1.5c.496-.259 1.206.346 1.722.526 1.556.544 4.778 1.828 4.512 3.033-.286 1.3-3.056.685-4.038.423-.225-.06-2.26.725-2.903.777-.888.072-1.094-.169-1.528-.413a1.346 1.346 0 0 0-.658-.162 1.177 1.177 0 0 1-.944-.471l-.006-.007a1.155 1.155 0 0 1-.113-1.184l.052-.109.001.002Z"/>
  <path fill="#0C0C0C" d="M51.887 144.305c-.605 0-.883-.169-1.175-.348-.058-.035-.119-.072-.184-.109a1.087 1.087 0 0 0-.537-.13 1.438 1.438 0 0 1-1.148-.578 1.46 1.46 0 0 1-.147-1.495l.052-.109c.172-.359.456-.629.8-.76.164-.064.342-.151.56-.274l2.653-1.5c.472-.247.997.034 1.46.281.172.091.333.177.469.225 3.344 1.171 4.921 2.303 4.687 3.365a1.1 1.1 0 0 1-.495.708c-.9.585-2.785.21-3.843-.071-.142.01-.699.187-1.108.317-.674.212-1.37.434-1.73.463a3.97 3.97 0 0 1-.313.014l-.001.001Zm-2.669-2.512-.052.109a.862.862 0 0 0 .083.88.928.928 0 0 0 .745.374c.29.002.552.067.779.195.071.04.137.079.2.119.301.183.517.315 1.184.262.306-.024 1.035-.256 1.62-.442.948-.3 1.206-.371 1.366-.329 1.633.435 2.928.488 3.461.141a.546.546 0 0 0 .255-.355c.148-.667-1.556-1.728-4.337-2.702a4.04 4.04 0 0 1-.54-.257c-.353-.189-.753-.404-.984-.284L50.355 141a4.87 4.87 0 0 1-.63.306.951.951 0 0 0-.51.487h.003Z"/>
  <path fill="#FFFEFE" d="M47.23 94.263c.368-.056.62-.432.539-.82-.504-2.407-.31-6.53-.385-6.414-.805 1.26-2.482-.322-4.87-.422-1.423-.06-1.97.838-2.182 1.574-.068.238-.37.282-.495.073-.348-.574-.941-1.062-1.825-.12-.982 1.047-.16 3.475.728 4.272-.216.262-3.609 4.162-6.213 7.093-.516.58-.443 1.509.154 1.993l2.315 1.872c1.446 1.17 3.424 1.252 4.951.205l.358-.244c.37-.254.433-.804.13-1.146l-.702-.792c-.567-.719-.463-1.63-.1-2.39l1.43-2.586c.33.424.744.908 1.126 1.193.763.567 1.71.48 2.383-.205.921-.938 1.566-1.992 1.858-3.016l.798-.119.002-.001Z"/>
  <path fill="#0C0C0C" d="M37.611 104.58c-.98 0-1.96-.333-2.774-.991l-2.315-1.873a1.655 1.655 0 0 1-.597-1.162 1.691 1.691 0 0 1 .412-1.248 812.946 812.946 0 0 0 6.038-6.888c-.575-.658-1.028-1.821-1.067-2.797-.028-.71.151-1.293.52-1.687.42-.448.835-.652 1.233-.606.378.043.715.302 1 .773.22-.695.804-1.844 2.466-1.776.995.042 1.88.336 2.592.571 1.102.365 1.694.53 2.049-.026a.26.26 0 0 1 .3-.113c.202.067.202.085.202 1.027 0 1.262 0 3.889.358 5.6.055.257.003.53-.14.75a.91.91 0 0 1-.62.409l-.634.095c-.33 1.025-.976 2.047-1.878 2.965-.765.778-1.856.872-2.715.232-.273-.203-.587-.52-.936-.941l-1.242 2.246c-.214.45-.5 1.338.075 2.066l.69.781c.2.224.293.528.258.833a1.037 1.037 0 0 1-.438.742l-.357.244a4.369 4.369 0 0 1-2.48.774Zm1.34-16.695c-.22 0-.473.15-.752.448-.33.352-.381.883-.366 1.264.043 1.043.593 2.158 1.077 2.592a.289.289 0 0 1 .094.194.285.285 0 0 1-.065.206 714.1 714.1 0 0 1-6.22 7.102 1.107 1.107 0 0 0 .12 1.574l2.315 1.873a3.867 3.867 0 0 0 4.65.192l.357-.244a.485.485 0 0 0 .082-.715l-.702-.793c-.574-.724-.622-1.709-.144-2.712l1.439-2.6a.266.266 0 0 1 .206-.138c.084-.008.17.03.225.101.416.537.778.922 1.073 1.14.658.49 1.462.42 2.049-.176.887-.903 1.506-1.904 1.788-2.894a.268.268 0 0 1 .217-.197l.798-.119a.38.38 0 0 0 .261-.17.407.407 0 0 0 .057-.308c-.37-1.77-.37-4.439-.37-5.723v-.14c-.574.323-1.333.072-2.181-.21-.719-.237-1.532-.505-2.457-.545-.998-.041-1.645.42-1.918 1.375a.543.543 0 0 1-.442.4.522.522 0 0 1-.529-.257c-.194-.32-.4-.495-.611-.519-.018-.002-.035-.002-.052-.002Z"/>
  <path fill="#0C0C0C" d="M41.065 96.693a.258.258 0 0 1-.215-.117l-.457-.68a.292.292 0 0 1 .06-.393.253.253 0 0 1 .369.065l.457.68a.292.292 0 0 1-.06.392.251.251 0 0 1-.154.053ZM63.397 142.899l8.034-25.239a2.607 2.607 0 0 1 2.223-1.271H95.07c.971 0 1.597 1.006 1.28 1.894-.126.353-.263.702-.373 1.061l-7.261 23.599h-.003c-.023 1.38-1.077 2.492-2.375 2.492H46.82c-1.313 0-2.376-1.136-2.376-2.537h18.954l-.001.001Z"/>
  <path fill="#FFFEFE" d="M79.314 129.324c-.302 1.069.159 2.164 1.03 2.444.871.281 1.823-.358 2.124-1.428.302-1.069-.159-2.164-1.03-2.444-.871-.281-1.823.359-2.124 1.428ZM125.909 145.013H30.834c-1.77 0-3.148 1.775-2.948 3.8l6.566 66.339h4.74l-4.109-62.261c-.072-1.098.682-2.033 1.638-2.033h81.614c1.43 0 2.558 1.4 2.45 3.042l-4.069 61.642h4.741l6.677-67.663c.151-1.528-.887-2.866-2.223-2.866h-.002Z"/>
  <path fill="#0C0C0C" d="M121.456 215.823h-4.741a.26.26 0 0 1-.193-.09.293.293 0 0 1-.07-.211l4.068-61.642c.049-.75-.186-1.482-.648-2.009-.413-.473-.96-.732-1.538-.732H36.72c-.362 0-.705.163-.964.459a1.76 1.76 0 0 0-.41 1.273l4.11 62.261a.293.293 0 0 1-.07.211.258.258 0 0 1-.194.09H34.45a.271.271 0 0 1-.263-.252l-6.565-66.339c-.11-1.1.215-2.187.887-2.984.614-.726 1.438-1.127 2.323-1.127h95.076c.685 0 1.325.311 1.8.873.519.615.77 1.454.685 2.304l-6.676 67.663a.272.272 0 0 1-.263.252h.001Zm-4.457-.562h4.22l6.653-67.411c.067-.692-.133-1.373-.554-1.869-.374-.443-.874-.686-1.408-.686H30.834c-.732 0-1.418.334-1.93.94-.573.679-.847 1.607-.755 2.549l6.54 66.087h4.22l-4.09-61.96c-.042-.63.16-1.248.551-1.695.36-.411.84-.638 1.35-.638h81.614c.728 0 1.411.324 1.925.911.561.642.848 1.529.789 2.432l-4.049 61.341v-.001ZM62.494 57.41c.06.012.114.045.156.1a.294.294 0 0 1-.037.396l-1.584 1.383a.253.253 0 0 1-.372-.039.294.294 0 0 1 .037-.396l1.584-1.384a.257.257 0 0 1 .216-.06ZM66.185 54.189c.06.011.114.044.156.099a.294.294 0 0 1-.037.396l-1.584 1.384a.253.253 0 0 1-.372-.04.294.294 0 0 1 .037-.396l1.584-1.383a.256.256 0 0 1 .216-.06ZM64.411 57.615c.06.011.114.044.156.099l1.298 1.688a.294.294 0 0 1-.037.397.253.253 0 0 1-.372-.04l-1.298-1.688a.294.294 0 0 1 .037-.397.257.257 0 0 1 .216-.06ZM61.388 53.68c.059.011.114.044.155.098l1.298 1.69a.294.294 0 0 1-.037.395.253.253 0 0 1-.371-.039l-1.298-1.689a.294.294 0 0 1 .037-.396.251.251 0 0 1 .216-.058v-.001ZM189.902 166.381a.257.257 0 0 1-.186-.082l-1.152-1.227a.293.293 0 0 1 0-.398.252.252 0 0 1 .373 0l1.152 1.227a.295.295 0 0 1 0 .398.257.257 0 0 1-.187.082ZM193.933 170.675a.255.255 0 0 1-.186-.082l-1.152-1.227a.293.293 0 0 1 0-.398.25.25 0 0 1 .372 0l1.152 1.227a.293.293 0 0 1 0 .398.255.255 0 0 1-.186.082ZM188.75 170.675a.257.257 0 0 1-.186-.082.293.293 0 0 1 0-.398l1.152-1.227a.252.252 0 0 1 .373 0 .295.295 0 0 1 0 .398l-1.152 1.227a.257.257 0 0 1-.187.082ZM192.781 166.381a.255.255 0 0 1-.186-.082.293.293 0 0 1 0-.398l1.152-1.227a.25.25 0 0 1 .372 0 .293.293 0 0 1 0 .398l-1.152 1.227a.255.255 0 0 1-.186.082ZM145.011 200.362a.255.255 0 0 1-.21-.111.295.295 0 0 1 .05-.395c10.841-8.791 19.898-19.588 26.921-32.086a.255.255 0 0 1 .362-.097.292.292 0 0 1 .091.386c-7.057 12.561-16.158 23.41-27.054 32.245a.247.247 0 0 1-.159.057l-.001.001ZM163.429 191.636a.262.262 0 0 1-.181-.076.296.296 0 0 1-.013-.398 113.524 113.524 0 0 0 11.845-16.26.253.253 0 0 1 .364-.085.29.29 0 0 1 .08.388 114.116 114.116 0 0 1-11.903 16.341.257.257 0 0 1-.193.09h.001Z"/>
</svg>
