<svg xmlns="http://www.w3.org/2000/svg" viewBox="0 0 766 277" fill="none"><path stroke="#C1121F" stroke-width="3.5" d="M383.224 155.172s-1.627-29.426 7.42-39.753c12.862-14.68 27.475-9.536 35.417.133 12.329 15.009 1.711 43.287-9.551 51.172-11.262 7.886-20.922 14.341-38.959 6.078-18.038-8.262-37.785-37.965-39.336-48.281m0 0s-30.868-1.509-46.441-8.669m46.441 8.669s18.944-1.112 37.293-17.07c24.035-19.098 29.442-55.221 12.637-67.703-16.805-12.481-40.072-7.034-49.434 12.133-9.363 19.168-7.755 49.036-.496 72.64Zm-46.441-8.669c-11.776 15.405-28.454 41.798-57.473 40.893m57.473-40.893s-36.312-21.07-40.721-44.09c-4.412-23.036 4.507-46.701 18.247-51.176 13.74-4.474 32.967-7.102 42.342 21.348s-6.761 56.143-19.868 73.918Zm-57.473 40.893s26.354-65.836-2.455-77.443c-28.809-11.607-36.053 14.021-37.331 25.962-1.278 11.941.98 19.074 9.082 32.401 10.044 11.211 16.702 15.51 30.704 19.08Zm0 0c-9.267 19.309-17.922 34.035-18.931 48.977-1.009 14.941 6.8 35.088 21.582 36.957 14.781 1.869 21.146-1.062 32.348-6.421 5.281-3.284 13.485-5.493 27.624-.184 14.139 5.308 24.428 23.248 38.349 24.957 13.921 1.708 23.794-.417 33.894-11.473 13.109-14.35 5.819-50.249.479-60.628-5.341-10.379-15.391-15.296-15.391-15.296m0 0s2.328-12.47-8.691-22.574c-5.436-4.984-12.962-6.503-19.781-3.692-6.749 2.782-12.343 8.912-13.698 16.17 3.952-7.717-3.361-24.905-14.667-26.322-11.305-1.417-16.553.471-23.691 12.488-7.138 12.017-3.465 49.561 18.464 67.971 6.828 5.733 19.618 5.41 34.148-6.531 14.531-11.942 25.027-22.029 27.916-37.51Z"/><path stroke="url(#a)" stroke-width="4" d="M1 230.495s51.896-21.582 86.197-22.855c37.207-1.381 55.331 24.682 92.532 22.855 14.649-.719 37.271-8.859 37.271-8.859"/><path stroke="url(#b)" stroke-width="4" d="M376 236.28s50-27.684 122-26.076c72 1.609 76 96.97 267 0"/><defs><linearGradient id="a" x1="72" x2="-103" y1="230.587" y2="230.587" gradientUnits="userSpaceOnUse"><stop offset=".194" stop-color="#C1121F"/><stop offset=".424" stop-color="#C1121F" stop-opacity="0"/></linearGradient><linearGradient id="b" x1="376" x2="807" y1="271.587" y2="273.587" gradientUnits="userSpaceOnUse"><stop offset=".782" stop-color="#C1121F"/><stop offset=".9" stop-color="#C1121F" stop-opacity="0"/></linearGradient></defs></svg>