<svg xmlns="http://www.w3.org/2000/svg"  viewBox="0 0 99 99" fill="none"><path stroke="#0C0C0C" stroke-linecap="round" stroke-linejoin="round" stroke-width="2.5" d="M13.156 86.566c5.721.417 10.906 1.251 14.84 3.278.159.119.337.218.536.298l.238.119c1.709.914 3.497 1.828 5.364 2.741 5.244 2.563 9.535 3.874 14.72 3.993 6.377.179 17.462-5.185 25.984-9.833 16.389-8.999 25.507-14.78 21.037-18.415-4.231-3.457-16.866 4.231-27.712 9.774"/><path stroke="#0C0C0C" stroke-linecap="round" stroke-linejoin="round" stroke-width="2.5" d="M33.24 78.879c7.688.596 12.634 2.8 19.369 5.125 6.853 2.324 11.263 3.814 12.395 0 1.252-3.993-7.032-10.072-15.673-13.588-6.198-2.503-10.608-7.45-16.389-8.224-4.768-.596-9.118.536-12.575 1.668-2.681.894-5.065 1.55-7.21 2.027M85.748 65.47c-.596-.656-1.848-1.073-3.576-1.073-4.708 0-11.979 5.005-18.594 9.177M74.96 62.548c-.555-.119-1.211-.159-1.966-.119-3.754.357-7.986 4.231-13.588 8.343M64.829 62.073c-.517-.08-1.153-.06-1.908.06-2.8.417-3.933 2.562-8.105 5.96"/><path stroke="#0C0C0C" stroke-linecap="round" stroke-linejoin="round" stroke-width="2.5" d="M12.205 90.738H2.61a.941.941 0 0 1-.954-.954v-26.46c0-.477.417-.894.954-.894h9.595c.536 0 .953.417.953.894v26.46a.941.941 0 0 1-.953.954ZM49.297 3.13V2M49.297 59.213v-1.131M82.096 27.28h-1.463M70.719 48.701l-2.196-2.261M73.379 3.197 71.117 5.46M16.035 27.28H17.5M27.41 48.701l2.195-2.261M24.684 3.197l2.328 2.262"/><path stroke="#C1121F" stroke-linecap="round" stroke-linejoin="round" stroke-width="2.5" d="M48.765 49.234c-.865-.532-21.288-13.04-21.288-26.278 0-6.453 5.255-11.641 11.641-11.641 4.325 0 8.183 2.394 10.179 6.053 1.996-3.659 5.92-6.053 10.178-6.053a11.612 11.612 0 0 1 11.642 11.641c0 13.239-20.423 25.746-21.288 26.278l-.532.332-.532-.332Z"/><path stroke="#0C0C0C" stroke-linecap="round" stroke-linejoin="round" stroke-width="2.5" d="m42.422 36.745 14.184-14.243M47.069 24.407c0 1.55-1.192 2.801-2.742 2.801s-2.741-1.251-2.741-2.8a2.734 2.734 0 0 1 2.741-2.742 2.734 2.734 0 0 1 2.742 2.741ZM57.5 34.837a2.734 2.734 0 0 1-2.742 2.741c-1.55 0-2.801-1.191-2.801-2.74 0-1.55 1.252-2.742 2.801-2.742a2.734 2.734 0 0 1 2.741 2.741Z"/></svg>