<svg xmlns="http://www.w3.org/2000/svg" viewBox="0 0 100 100" fill="none"><g stroke-linecap="round" stroke-linejoin="round" stroke-miterlimit="10" stroke-width="2.5" clip-path="url(#a)"><path stroke="#0C0C0C" d="M67.885 78.429a8.767 8.767 0 0 0 7.662-4.758l.637-1.24M56.47 55.751a8.054 8.054 0 0 1 6.465-3.252h11.122c5.65 0 9.299 5.978 6.716 11.004l-1.464 2.85M31.332 55.751a8.052 8.052 0 0 0-6.465-3.252h-11.12c-5.651 0-9.3 5.978-6.718 11.004l5.227 10.168a8.767 8.767 0 0 0 7.662 4.758"/><path stroke="#0C0C0C" d="M56.353 93.118v-.002c6.881-2.797 11.731-9.55 11.731-17.437V71.03c0-8.756-7.098-15.853-15.854-15.853H35.572c-8.756 0-15.853 7.097-15.853 15.853v4.649c0 7.886 4.851 14.64 11.732 17.437"/><path stroke="#0C0C0C" d="M49.967 81.481a10.625 10.625 0 0 1 6.414 9.758v1.262c0 .207-.01.414-.028.617-.301 3.368-3.142 6.004-6.591 6.004H38.043c-3.45 0-6.276-2.64-6.592-6.006a6.533 6.533 0 0 1-.03-.615v-1.262c0-4.373 2.642-8.129 6.417-9.758"/><path stroke="#0C0C0C" d="M37.741 80.388v-1.075a2.864 2.864 0 0 1 2.864-2.864h6.592a2.864 2.864 0 0 1 2.864 2.865v1.074a6.16 6.16 0 0 1-12.32 0ZM29.212 70.551c1.843-1.836 3.687-1.836 5.53 0M53.06 70.551c1.844-1.836 3.688-1.836 5.531 0M21.686 43.417l1.359 1.36a5.502 5.502 0 0 0 6.314 1.05l10.49-5.142M63.562 26.372l-25.076-2.787a3.28 3.28 0 0 0-2.357.657l-3.43 2.628"/><path stroke="#0C0C0C" d="m27.244 31.05-11.183 8.568a1.532 1.532 0 0 0-.094 2.354l.219.199a5.761 5.761 0 0 0 6.502.844l12.08-6.237M54.418 25.356l5.623.625a2.521 2.521 0 0 0 2.123-.79l1.268-1.37"/><path stroke="#0C0C0C" d="m51.174 34.462-11.686-2.297c-1.953-.383-3.937.691-4.582 2.572a3.945 3.945 0 0 0 2.346 4.973l12.465 4.676a28.279 28.279 0 0 0 9.931 1.8h.965a12.25 12.25 0 0 0 8.988-3.927l6.344-6.856"/><path stroke="#0C0C0C" d="M75.186 5.393 62.054 19.58a2.178 2.178 0 0 0 .12 3.078l15.029 13.91c.882.817 2.26.764 3.077-.119l13.132-14.187a1.516 1.516 0 0 0-.083-2.143L77.328 5.31a1.516 1.516 0 0 0-2.142.083Z"/><path stroke="#C1121F" d="M23.188 23.101a1.918 1.918 0 0 1-2.503 0l-8.907-7.665a7.614 7.614 0 0 1 9.933-11.542c.13.113.32.113.451 0a7.614 7.614 0 0 1 9.933 11.542l-8.907 7.665Z"/></g><defs><clipPath id="a"><path fill="#fff" d="M0 .587h100v100H0z"/></clipPath></defs></svg>