<svg xmlns="http://www.w3.org/2000/svg" viewBox="0 0 211 217" fill="none">
  <path fill="#0C0C0C" d="M27.136 176.536c-.159 0-.32-.019-.48-.062-1.065-.277-1.717-1.41-1.452-2.526.264-1.116 1.347-1.797 2.413-1.521.516.133.952.47 1.227.947.274.478.355 1.037.227 1.579-.225.948-1.04 1.583-1.933 1.583h-.002Zm-.354-.586c.79.204 1.591-.301 1.788-1.129.096-.4.035-.816-.168-1.17a1.473 1.473 0 0 0-.909-.702c-.79-.207-1.592.301-1.788 1.127-.196.827.287 1.667 1.077 1.873v.001ZM37.909 184.331a.267.267 0 0 1-.063-.008l-1.032-.268a.272.272 0 0 1-.188-.328.258.258 0 0 1 .313-.197l1.032.268a.272.272 0 0 1 .188.328.262.262 0 0 1-.25.205ZM33.576 183.204a.265.265 0 0 1-.062-.008l-1.033-.268a.272.272 0 0 1-.188-.328.259.259 0 0 1 .313-.197l1.032.268a.272.272 0 0 1 .188.328.262.262 0 0 1-.25.205ZM35.636 181.905a.267.267 0 0 1-.062-.008.272.272 0 0 1-.188-.328l.255-1.08a.259.259 0 0 1 .313-.197.271.271 0 0 1 .188.327l-.256 1.081a.262.262 0 0 1-.25.205ZM34.561 186.443a.267.267 0 0 1-.062-.008.272.272 0 0 1-.188-.328l.256-1.08a.258.258 0 0 1 .313-.197.271.271 0 0 1 .188.327l-.256 1.081a.262.262 0 0 1-.25.205Z"/>
  <path fill="#FFFEFE" d="M198.688.27H7.884C3.672.27.258 3.772.258 8.09v134.128c0 4.318 3.414 7.819 7.626 7.819h190.805c4.211 0 7.625-3.501 7.625-7.819V8.089c0-4.318-3.414-7.818-7.625-7.818h-.001Z"/>
  <path fill="#0C0C0C" d="M198.687 150.304H7.884c-4.347 0-7.884-3.628-7.884-8.088V8.089C0 3.629 3.536 0 7.884 0h190.804c4.347 0 7.884 3.629 7.884 8.089v134.128c0 4.46-3.536 8.089-7.884 8.089l-.001-.002ZM7.884.539C3.82.54.515 3.926.515 8.09v134.128c0 4.162 3.305 7.548 7.368 7.548h190.804c4.062 0 7.368-3.386 7.368-7.548V8.089c0-4.163-3.306-7.549-7.368-7.549H7.884Z"/>
  <path fill="#FFFEFE" d="M8.867 145.657c-2.534 0-4.596-2.101-4.596-4.683V9.066c0-2.583 2.062-4.683 4.596-4.683h188.838c2.535 0 4.597 2.1 4.597 4.683v131.908c0 2.582-2.062 4.683-4.597 4.683H8.867Z"/>
  <path fill="#0C0C0C" d="M197.705 145.926H8.867c-2.677 0-4.855-2.222-4.855-4.953V9.065c0-2.73 2.178-4.953 4.855-4.953h188.838c2.676 0 4.855 2.222 4.855 4.953v131.908c0 2.731-2.179 4.953-4.855 4.953ZM8.867 4.653c-2.392 0-4.339 1.979-4.339 4.412v131.908c0 2.434 1.947 4.413 4.339 4.413h188.838c2.392 0 4.338-1.98 4.338-4.413V9.065c0-2.433-1.946-4.412-4.338-4.412H8.867Z"/>
  <path fill="#0C0C0C" d="M192.229 28.273h-43.222c-1.116 0-2.025-.951-2.025-2.12 0-1.168.909-2.12 2.025-2.12h43.222c1.116 0 2.025.951 2.025 2.12s-.909 2.12-2.025 2.12Zm-43.222-3.7c-.832 0-1.509.71-1.509 1.58 0 .871.677 1.58 1.509 1.58h43.222c.832 0 1.509-.709 1.509-1.58 0-.87-.677-1.58-1.509-1.58h-43.222ZM192.229 36.339h-43.222c-1.116 0-2.025-.952-2.025-2.12 0-1.17.909-2.12 2.025-2.12h43.222c1.116 0 2.025.95 2.025 2.12 0 1.168-.909 2.12-2.025 2.12Zm-43.222-3.7c-.832 0-1.509.708-1.509 1.58 0 .87.677 1.58 1.509 1.58h43.222c.832 0 1.509-.71 1.509-1.58 0-.872-.677-1.58-1.509-1.58h-43.222ZM184.714 60.669h-35.82c-1.116 0-2.025-.951-2.025-2.12s.909-2.12 2.025-2.12h35.82c1.116 0 2.025.951 2.025 2.12s-.909 2.12-2.025 2.12Zm-35.82-3.7c-.832 0-1.509.709-1.509 1.58 0 .87.677 1.58 1.509 1.58h35.82c.832 0 1.509-.71 1.509-1.58 0-.871-.677-1.58-1.509-1.58h-35.82ZM192.116 68.734h-43.222c-1.116 0-2.025-.951-2.025-2.12s.909-2.12 2.025-2.12h43.222c1.117 0 2.025.951 2.025 2.12s-.908 2.12-2.025 2.12Zm-43.222-3.7c-.832 0-1.509.709-1.509 1.58 0 .871.677 1.58 1.509 1.58h43.222c.832 0 1.509-.709 1.509-1.58 0-.871-.677-1.58-1.509-1.58h-43.222ZM191.486 76.173h-42.591c-1.116 0-2.025-.952-2.025-2.12 0-1.17.909-2.12 2.025-2.12h42.591c1.117 0 2.025.95 2.025 2.12 0 1.168-.908 2.12-2.025 2.12Zm-42.592-3.7c-.832 0-1.509.709-1.509 1.58 0 .87.677 1.58 1.509 1.58h42.591c.832 0 1.509-.71 1.509-1.58 0-.871-.677-1.58-1.509-1.58h-42.591ZM191.228 44.404h-42.221c-1.116 0-2.025-.951-2.025-2.12s.909-2.12 2.025-2.12h42.221c1.117 0 2.025.951 2.025 2.12s-.908 2.12-2.025 2.12Zm-42.221-3.7c-.832 0-1.509.709-1.509 1.58 0 .871.677 1.58 1.509 1.58h42.221c.833 0 1.509-.709 1.509-1.58 0-.871-.676-1.58-1.509-1.58h-42.221ZM192.229 52.47h-43.222c-1.116 0-2.025-.95-2.025-2.12 0-1.168.909-2.12 2.025-2.12h43.222c1.116 0 2.025.952 2.025 2.12 0 1.17-.909 2.12-2.025 2.12Zm-43.222-3.7c-.832 0-1.509.71-1.509 1.58 0 .872.677 1.58 1.509 1.58h43.222c.832 0 1.509-.708 1.509-1.58 0-.87-.677-1.58-1.509-1.58h-43.222ZM129.505 88.677H86.283c-1.117 0-2.025-.95-2.025-2.12 0-1.168.908-2.12 2.025-2.12h43.222c1.116 0 2.025.952 2.025 2.12 0 1.17-.909 2.12-2.025 2.12Zm-43.222-3.7c-.832 0-1.51.71-1.51 1.58 0 .872.678 1.58 1.51 1.58h43.222c.832 0 1.509-.708 1.509-1.58 0-.87-.677-1.58-1.509-1.58H86.283ZM129.505 96.743H86.283c-1.117 0-2.025-.951-2.025-2.12s.908-2.12 2.025-2.12h43.222c1.116 0 2.025.951 2.025 2.12s-.909 2.12-2.025 2.12Zm-43.222-3.7c-.832 0-1.51.709-1.51 1.58 0 .871.678 1.58 1.51 1.58h43.222c.832 0 1.509-.709 1.509-1.58 0-.871-.677-1.58-1.509-1.58H86.283ZM121.99 121.073H86.17c-1.116 0-2.025-.951-2.025-2.12s.909-2.12 2.025-2.12h35.82c1.116 0 2.025.951 2.025 2.12s-.909 2.12-2.025 2.12Zm-35.819-3.7c-.832 0-1.509.709-1.509 1.58 0 .871.677 1.58 1.51 1.58h35.819c.832 0 1.509-.709 1.509-1.58 0-.871-.677-1.58-1.509-1.58h-35.82ZM129.393 129.138H86.171c-1.117 0-2.025-.951-2.025-2.12 0-1.168.908-2.12 2.025-2.12h43.222c1.116 0 2.025.952 2.025 2.12 0 1.169-.909 2.12-2.025 2.12Zm-43.222-3.699c-.832 0-1.51.708-1.51 1.579 0 .872.678 1.58 1.51 1.58h43.222c.832 0 1.509-.708 1.509-1.58 0-.871-.677-1.579-1.509-1.579H86.171ZM128.762 136.578H86.171c-1.117 0-2.025-.951-2.025-2.12s.908-2.12 2.025-2.12h42.591c1.116 0 2.025.951 2.025 2.12s-.909 2.12-2.025 2.12Zm-42.591-3.7c-.832 0-1.51.709-1.51 1.58 0 .871.678 1.58 1.51 1.58h42.591c.832 0 1.509-.709 1.509-1.58 0-.871-.677-1.58-1.509-1.58H86.171ZM128.504 104.808H86.283c-1.117 0-2.025-.951-2.025-2.12 0-1.168.908-2.12 2.025-2.12h42.221c1.117 0 2.025.952 2.025 2.12 0 1.169-.908 2.12-2.025 2.12Zm-42.221-3.699c-.832 0-1.51.708-1.51 1.579s.678 1.58 1.51 1.58h42.221c.832 0 1.509-.709 1.509-1.58 0-.871-.677-1.579-1.509-1.579H86.283ZM129.505 112.875H86.283c-1.117 0-2.025-.951-2.025-2.12s.908-2.12 2.025-2.12h43.222c1.116 0 2.025.951 2.025 2.12s-.909 2.12-2.025 2.12Zm-43.222-3.7c-.832 0-1.51.709-1.51 1.58 0 .871.678 1.579 1.51 1.579h43.222c.832 0 1.509-.708 1.509-1.579s-.677-1.58-1.509-1.58H86.283Z"/>
  <path fill="#FFFEFE" d="M106.07 25.234H86.504c-.976 0-1.767-.829-1.767-1.85 0-1.021.792-1.85 1.767-1.85h19.566c.976 0 1.767.829 1.767 1.85 0 1.021-.792 1.85-1.767 1.85Z"/>
  <path fill="#0C0C0C" d="M106.069 25.504H86.503c-1.116 0-2.025-.952-2.025-2.12 0-1.17.91-2.12 2.026-2.12h19.565c1.117 0 2.025.95 2.025 2.12 0 1.168-.908 2.12-2.025 2.12Zm-19.564-3.7c-.832 0-1.51.709-1.51 1.58 0 .87.677 1.58 1.51 1.58h19.565c.832 0 1.509-.71 1.509-1.58 0-.871-.677-1.58-1.509-1.58H86.505Z"/>
  <path fill="#FFFEFE" d="M135.552 35.822H85.644c-.976 0-1.767-.829-1.767-1.85 0-1.021.792-1.85 1.767-1.85h49.908c.977 0 1.767.829 1.767 1.85 0 1.021-.791 1.85-1.767 1.85Z"/>
  <path fill="#0C0C0C" d="M135.552 36.092H85.644c-1.117 0-2.025-.952-2.025-2.12 0-1.17.909-2.12 2.025-2.12h49.908c1.117 0 2.025.95 2.025 2.12 0 1.168-.908 2.12-2.025 2.12Zm-49.907-3.7c-.832 0-1.509.708-1.509 1.58 0 .87.677 1.58 1.509 1.58h49.908c.832 0 1.509-.71 1.509-1.58 0-.872-.677-1.58-1.509-1.58H85.645Z"/>
  <path fill="#FFFEFE" d="M135.552 43.888H85.644c-.976 0-1.767-.829-1.767-1.85 0-1.02.792-1.85 1.767-1.85h49.908c.977 0 1.767.83 1.767 1.85 0 1.021-.791 1.85-1.767 1.85Z"/>
  <path fill="#0C0C0C" d="M135.552 44.158H85.644c-1.117 0-2.025-.951-2.025-2.12s.909-2.12 2.025-2.12h49.908c1.117 0 2.025.951 2.025 2.12s-.908 2.12-2.025 2.12Zm-49.907-3.7c-.832 0-1.509.709-1.509 1.58 0 .871.677 1.58 1.509 1.58h49.908c.832 0 1.509-.709 1.509-1.58 0-.871-.677-1.58-1.509-1.58H85.645Z"/>
  <path fill="#FFFEFE" d="M126.964 68.217H85.517c-.976 0-1.766-.829-1.766-1.85 0-1.02.791-1.85 1.766-1.85h41.447c.976 0 1.767.83 1.767 1.85 0 1.021-.792 1.85-1.767 1.85Z"/>
  <path fill="#0C0C0C" d="M126.963 68.487H85.517c-1.116 0-2.025-.951-2.025-2.12s.909-2.12 2.025-2.12h41.446c1.117 0 2.025.951 2.025 2.12s-.908 2.12-2.025 2.12Zm-41.447-3.7c-.832 0-1.509.709-1.509 1.58 0 .871.677 1.58 1.51 1.58h41.445c.832 0 1.509-.709 1.509-1.58 0-.871-.677-1.58-1.509-1.58H85.516Z"/>
  <path fill="#FFFEFE" d="M135.425 76.283H85.516c-.976 0-1.767-.83-1.767-1.85 0-1.021.792-1.85 1.767-1.85h49.909c.976 0 1.767.829 1.767 1.85 0 1.02-.792 1.85-1.767 1.85Z"/>
  <path fill="#0C0C0C" d="M135.425 76.552H85.516c-1.116 0-2.025-.95-2.025-2.12 0-1.168.909-2.12 2.025-2.12h49.909c1.116 0 2.025.952 2.025 2.12 0 1.17-.909 2.12-2.025 2.12Zm-49.909-3.7c-.832 0-1.509.71-1.509 1.58 0 .872.677 1.58 1.51 1.58h49.908c.832 0 1.508-.708 1.508-1.58 0-.87-.676-1.58-1.508-1.58H85.516Z"/>
  <path fill="#FFFEFE" d="M119.054 51.953H85.647c-.977 0-1.767-.83-1.767-1.85 0-1.021.791-1.85 1.767-1.85h33.407c.977 0 1.767.829 1.767 1.85 0 1.02-.791 1.85-1.767 1.85Z"/>
  <path fill="#0C0C0C" d="M119.054 52.222H85.647c-1.117 0-2.025-.95-2.025-2.12 0-1.168.908-2.12 2.025-2.12h33.407c1.116 0 2.025.952 2.025 2.12 0 1.17-.909 2.12-2.025 2.12Zm-33.407-3.7c-.833 0-1.51.71-1.51 1.58 0 .872.677 1.58 1.51 1.58h33.407c.832 0 1.509-.708 1.509-1.58 0-.87-.677-1.58-1.509-1.58H85.647Z"/>
  <path fill="#FFFEFE" d="M135.552 60.02H85.644c-.976 0-1.767-.829-1.767-1.85 0-1.02.792-1.85 1.767-1.85h49.908c.977 0 1.767.83 1.767 1.85 0 1.021-.791 1.85-1.767 1.85Z"/>
  <path fill="#0C0C0C" d="M135.552 60.289H85.644c-1.117 0-2.025-.951-2.025-2.12s.909-2.12 2.025-2.12h49.908c1.117 0 2.025.951 2.025 2.12s-.908 2.12-2.025 2.12Zm-49.907-3.7c-.832 0-1.509.709-1.509 1.58 0 .871.677 1.58 1.509 1.58h49.908c.832 0 1.509-.709 1.509-1.58 0-.871-.677-1.58-1.509-1.58H85.645Z"/>
  <path fill="#0C0C0C" d="M197.704 145.927H8.867c-2.677 0-4.855-2.222-4.855-4.953V9.066c0-2.73 2.178-4.953 4.855-4.953h188.837c2.677 0 4.855 2.222 4.855 4.953v131.908c0 2.731-2.178 4.953-4.855 4.953ZM8.867 4.654c-2.393 0-4.339 1.979-4.339 4.412v131.908c0 2.434 1.946 4.413 4.339 4.413h188.837c2.393 0 4.339-1.98 4.339-4.413V9.066c0-2.433-1.946-4.412-4.339-4.412H8.867Z"/>
  <path fill="#0C0C0C" d="M164.852 71.893c3.051 1.195 2.551 4.738 4.953 5.656 2.25.86 3.7-1.87 8.085-3.183 1.022-.306 5.515-1.532 9.834.33 4.539 1.956 9.143 7.43 8.377 13.47-.716 5.652-5.738 8.67-6.45 9.081-7.254 4.205-15.869-.466-20.224-2.827-5.092-2.76-7.657-6.564-10.569-10.517-2.696-3.658-6.237-8.462-4.776-12.15.409-1.032 1.43-2.53 2.707-2.632 1.241-.1 1.693 1.202 3.698 2.09 2.065.915 2.686.023 4.367.682h-.002Z"/>
  <path fill="#0C0C0C" d="M165.215 71.832c-.213 1.37.677 2.663 1.986 2.885 1.31.224 2.544-.708 2.756-2.078.214-1.372-.677-2.664-1.985-2.886-1.31-.224-2.545.708-2.757 2.079Z"/>
  <path fill="#FFFEFE" d="M189.677 199.744c.79 1.677 2.457 5.407 3.327 9.19.351 1.528.479 2.66.146 3.898-.478 1.78-1.523 2.343-1.289 2.849.491 1.06 6.129.798 7.998-2.426.599-1.03.429-1.703-.264-7.92-.622-5.582-.635-6.381-1.414-7.052-2.448-2.114-7.822 1.05-8.504 1.461Z"/>
  <path fill="#0C0C0C" d="M193.723 216.508c-.111 0-.218-.002-.322-.008-.554-.027-1.519-.154-1.773-.703-.177-.382.055-.719.347-1.144.289-.42.683-.996.926-1.895.323-1.201.19-2.288-.149-3.761-.783-3.409-2.23-6.848-3.306-9.134a.278.278 0 0 1 .103-.354c1.029-.619 6.287-3.601 8.795-1.436.784.676.858 1.351 1.342 5.745l.164 1.483.218 1.937c.508 4.476.587 5.164.011 6.155-1.345 2.318-4.415 3.114-6.356 3.114v.001Zm-3.707-16.654c1.074 2.308 2.468 5.672 3.237 9.016.349 1.52.495 2.725.143 4.034-.266.99-.692 1.61-1.003 2.063-.178.258-.345.503-.302.595.054.117.403.353 1.333.399 1.711.086 4.917-.614 6.213-2.848.482-.832.406-1.495-.082-5.811-.066-.578-.139-1.221-.219-1.938l-.164-1.484c-.453-4.112-.535-4.853-1.157-5.391-2.123-1.831-6.834.692-8.001 1.365h.002Z"/>
  <path fill="#0C0C0C" d="M194.39 214.851c-.128 0-.24-.1-.256-.237a.268.268 0 0 1 .224-.301c1.269-.163 2.226-.743 2.846-1.725 1.721-2.726.39-7.679.375-7.729a.273.273 0 0 1 .176-.335.258.258 0 0 1 .32.185c.058.213 1.41 5.245-.441 8.175-.706 1.119-1.788 1.779-3.212 1.962l-.032.002v.003Z"/>
  <path fill="#FFFEFE" d="M164.1 206.72s.961 3.549.663 7.84c-.054.795-.657 1.43-1.416 1.499-3.097.288-11.196.938-17.257.55-.386-.025-.558-.52-.278-.799 1.576-1.573 5.427-5.288 8.18-6.847 3.539-2.003 10.106-2.243 10.106-2.243h.002Z"/>
  <path fill="#0C0C0C" d="M150.302 216.999c-1.458 0-2.892-.035-4.229-.121a.696.696 0 0 1-.614-.48.746.746 0 0 1 .174-.783c1.548-1.545 5.448-5.31 8.236-6.889 3.552-2.011 9.95-2.266 10.22-2.276a.253.253 0 0 1 .257.195c.01.036.97 3.646.674 7.933-.065.931-.759 1.667-1.651 1.749-2.48.23-7.921.671-13.067.671v.001Zm13.6-10c-1.136.062-6.689.449-9.787 2.203-2.733 1.547-6.593 5.273-8.125 6.804a.195.195 0 0 0-.047.207.184.184 0 0 0 .162.127c6.02.386 14.047-.255 17.219-.548.639-.06 1.136-.585 1.182-1.252.25-3.615-.41-6.728-.604-7.541Z"/>
  <path fill="#0C0C0C" d="M149.88 214.856c-.106 0-.201-.074-.237-.188a.283.283 0 0 1 .172-.345c.29-.1 9.36-.532 13.247-.713.131-.011.263.109.269.258a.265.265 0 0 1-.246.281c-5.063.236-12.737.615-13.125.692a.247.247 0 0 1-.079.013l-.001.002ZM149.324 121.468s.851 63.219-2.254 86.726c0 0 2.267 6.266 11.729 2.928 8.301-2.928 12.729-.627 12.729-.627s.21-40.714-2.218-55.56c0 0 9.156 27.793 16.022 50.501 0 0 14.561 1.363 25.349-8.159 0 0-4.884-35.932-44.339-79.007l-17.019 3.198h.001Z"/>
  <path fill="#FFFEFE" d="M167.594 150.576a.26.26 0 0 1-.239-.167c-1.039-2.632-2.307-5.651-3.325-8.075l-.749-1.785-4.541-1.115a.27.27 0 0 1-.192-.324.26.26 0 0 1 .309-.201l4.667 1.146a.26.26 0 0 1 .177.154c.246.59.516 1.231.801 1.907 1.019 2.427 2.288 5.448 3.329 8.087a.273.273 0 0 1-.14.352.247.247 0 0 1-.098.021h.001ZM117.607 88.297c1.73 6.876 6.145 16.152 13.401 17.171 4.768.67 10.261-6.008 13.468-10.667 1.861-2.704 4.875-4.274 8.058-4.218l18.244.27c1.613.023 2.915 1.39 2.933 3.079l.125 11.369 1.802 17.903c-8.239-6.425-17.949-.92-22.752.762-4.805 1.681-7.703-1.396-7.703-1.396l.886-11.558s-1.866 6.736-14.245 7.087c-15.109.428-17.501-28.06-17.501-28.06l3.282-1.744.002.002Z"/>
  <path fill="#0C0C0C" d="M150.09 124.735c-3.184 0-5.066-1.949-5.09-1.974a.276.276 0 0 1-.073-.211l.78-10.146c-1.232 2.029-4.717 5.707-13.873 5.967-6.296.179-11.37-4.678-14.666-14.047-2.47-7.02-3.094-14.189-3.1-14.26a.275.275 0 0 1 .14-.264l3.283-1.743a.249.249 0 0 1 .222-.006.266.266 0 0 1 .143.177c1.908 7.578 6.373 16.016 13.187 16.973.211.03.424.044.638.044 4.583 0 9.806-6.563 12.587-10.603 1.905-2.769 5.004-4.39 8.271-4.328l18.243.27c1.768.025 3.168 1.495 3.188 3.345l.125 11.369 1.801 17.879a.273.273 0 0 1-.129.263.246.246 0 0 1-.282-.018c-6.972-5.438-14.945-2.22-20.22-.091-.833.337-1.619.654-2.297.891a8.677 8.677 0 0 1-2.879.511l.001.002Zm-4.639-2.27c.503.478 3.153 2.716 7.355 1.246a54.992 54.992 0 0 0 2.276-.882c5.263-2.125 13.16-5.313 20.242-.193l-1.742-17.304-.125-11.395c-.018-1.556-1.194-2.79-2.68-2.812l-18.244-.27c-3.11-.066-6.038 1.48-7.846 4.105-3.636 5.284-8.973 11.443-13.711 10.778-6.967-.979-11.539-9.385-13.534-17.047L114.6 90.2c.113 1.153.825 7.613 3.056 13.949 2.209 6.273 6.395 13.689 13.843 13.689.107 0 .213-.001.321-.005 12.017-.341 13.986-6.827 14.005-6.892a.258.258 0 0 1 .294-.189c.13.025.221.149.21.286l-.878 11.429v-.003Z"/>
  <path fill="#FFFEFE" d="m115.037 83.501-3.643-3.693a.703.703 0 0 0-.931-.07.783.783 0 0 0-.169 1.057l1.154 1.714-.929 2.406c-.287.74-.101 1.59.464 2.127l1.496 1.42a2.37 2.37 0 0 0 2.743.395l.609-.317c.937-.489 1.475-1.546 1.339-2.634l-.161-1.282c-.1-.803-.826-1.353-1.586-1.2l-.386.078Z"/>
  <path fill="#0C0C0C" d="M114.123 89.4a2.63 2.63 0 0 1-1.816-.74l-1.497-1.419c-.643-.61-.856-1.585-.531-2.428l.876-2.27-1.073-1.593a1.065 1.065 0 0 1 .229-1.432.953.953 0 0 1 1.261.096l3.547 3.595.255-.05c.438-.088.878.015 1.24.288.362.274.592.68.65 1.143l.161 1.282c.15 1.2-.445 2.37-1.48 2.91l-.609.317a2.62 2.62 0 0 1-1.214.301h.001Zm-3.235-9.537a.452.452 0 0 0-.275.093.506.506 0 0 0-.109.682l1.154 1.714a.278.278 0 0 1 .029.256l-.93 2.407a1.696 1.696 0 0 0 .4 1.825l1.495 1.42a2.11 2.11 0 0 0 2.455.355l.609-.317c.839-.438 1.32-1.385 1.199-2.357l-.161-1.282a1.14 1.14 0 0 0-.442-.775 1.039 1.039 0 0 0-.841-.196l-.386.077a.251.251 0 0 1-.227-.071L111.215 80a.46.46 0 0 0-.327-.139v.001Z"/>
  <path fill="#FFFEFE" d="m115.037 83.501-1.361 1.054s.45 1.378 1.361.812v-1.866Z"/>
  <path fill="#0C0C0C" d="M114.611 85.772a.867.867 0 0 1-.312-.058c-.575-.222-.84-.986-.868-1.071a.277.277 0 0 1 .091-.305l1.361-1.054a.25.25 0 0 1 .361.056.28.28 0 0 1-.054.378l-1.198.928c.097.205.268.48.487.563.127.05.267.025.427-.073a.25.25 0 0 1 .353.095.278.278 0 0 1-.09.37c-.209.13-.398.173-.558.173v-.002ZM112.736 85.417a.253.253 0 0 1-.201-.101l-1.534-1.992a.28.28 0 0 1 .038-.38.25.25 0 0 1 .363.04l1.534 1.992a.28.28 0 0 1-.038.38.251.251 0 0 1-.162.06ZM111.968 86.56a.252.252 0 0 1-.199-.098l-1.236-1.572a.28.28 0 0 1 .035-.38.25.25 0 0 1 .363.037l1.236 1.571a.28.28 0 0 1-.035.38.251.251 0 0 1-.164.062Z"/>
  <path fill="#FFFEFE" d="m157.82 122.944 14.286-15.128a.908.908 0 0 1 1.325-.008l18.891 19.55c.369.382.372 1.002.008 1.388l-14.286 15.128a.907.907 0 0 1-1.325.008l-18.891-19.55a1.015 1.015 0 0 1-.008-1.388Z"/>
  <path fill="#0C0C0C" d="M177.379 144.434c-.304 0-.607-.12-.84-.361l-18.891-19.55a1.295 1.295 0 0 1-.01-1.769l14.286-15.128a1.159 1.159 0 0 1 1.689-.011l18.891 19.551c.468.485.472 1.279.01 1.768l-14.286 15.129a1.164 1.164 0 0 1-.849.371Zm-4.607-36.64c-.175 0-.35.07-.483.211l-14.286 15.128a.726.726 0 0 0-.196.504c0 .19.074.367.202.501l18.891 19.551a.658.658 0 0 0 .96-.006l14.285-15.129a.735.735 0 0 0-.005-1.005l-18.891-19.55a.665.665 0 0 0-.478-.205h.001Z"/>
  <path fill="#FFFEFE" d="m177.909 141.068 11.741-12.434-17.883-18.508-11.741 12.434 17.883 18.508Z"/>
  <path fill="#0C0C0C" d="M177.908 141.339a.253.253 0 0 1-.181-.078l-17.883-18.508a.277.277 0 0 1-.003-.381l11.742-12.435a.249.249 0 0 1 .364-.002l17.883 18.507a.278.278 0 0 1 .002.381l-11.741 12.435a.251.251 0 0 1-.184.081h.001Zm-17.518-18.781 17.517 18.128 11.379-12.05-17.516-18.128-11.38 12.05Z"/>
  <path fill="#FFFEFE" d="m160.945 117.951 6.429-6.809a1.11 1.11 0 0 1 1.62-.009l1.488 1.54-8.039 8.513-1.488-1.54a1.24 1.24 0 0 1-.01-1.695Z"/>
  <path fill="#0C0C0C" d="M162.443 121.457a.25.25 0 0 1-.182-.078l-1.488-1.54a1.495 1.495 0 0 1-.416-1.036 1.495 1.495 0 0 1 .405-1.041l6.43-6.809a1.359 1.359 0 0 1 1.983-.011l1.488 1.541a.278.278 0 0 1 .003.381l-8.039 8.514a.25.25 0 0 1-.182.08h-.001l-.001-.001Zm-1.314-3.316a.962.962 0 0 0 .007 1.314l1.305 1.351 7.677-8.13-1.305-1.351a.835.835 0 0 0-.628-.268.864.864 0 0 0-.626.276l-6.429 6.809-.001-.001Z"/>
  <path fill="#FFFEFE" d="m161.488 115.4 1.747 1.809 3.455-3.66-1.747-1.809a2.381 2.381 0 0 0-3.476.021c-.955 1.011-.945 2.64.02 3.638l.001.001Zm.811-2.064a.527.527 0 0 1-.004-.719.47.47 0 0 1 .686-.004.526.526 0 0 1 .005.719.472.472 0 0 1-.687.004Z"/>
  <path fill="#0C0C0C" d="M163.236 117.479a.251.251 0 0 1-.181-.078l-1.749-1.808a2.89 2.89 0 0 1-.805-2.006 2.888 2.888 0 0 1 .784-2.014 2.631 2.631 0 0 1 1.915-.845c.736.003 1.41.287 1.925.821l1.747 1.808a.277.277 0 0 1 .002.381l-3.455 3.66a.249.249 0 0 1-.184.08l.001.001Zm-1.567-2.271 1.565 1.619 3.093-3.276-1.564-1.619a2.133 2.133 0 0 0-3.111.019 2.343 2.343 0 0 0-.635 1.633c.003.615.235 1.191.652 1.624Zm.971-1.455a.72.72 0 0 1-.522-.224.794.794 0 0 1-.221-.55.794.794 0 0 1 .214-.551.727.727 0 0 1 .525-.232h.004c.197 0 .383.081.523.226a.79.79 0 0 1 .221.548.799.799 0 0 1-.214.552.728.728 0 0 1-.529.23l-.001.001Zm0-1.016a.216.216 0 0 0-.161.071.245.245 0 0 0 .002.337.22.22 0 0 0 .322-.002.24.24 0 0 0 .066-.169.242.242 0 0 0-.068-.169.228.228 0 0 0-.161-.068ZM164.562 124.933l9.52-10.082-.799-.827-9.52 10.083.799.826ZM166.2 126.627l9.52-10.083-.799-.826-9.52 10.082.799.827ZM167.837 128.321l9.52-10.082-.798-.827-9.521 10.082.799.827Z"/>
  <path fill="#FFFEFE" d="M177.942 133.477s-4.377 5.165-7.134 4.441c-2.758-.724-2.144-2.808-2.144-2.808l4.237-2.366s-3.914.568-3.475-.827c.225-.718.564-.681 1.452-.695 2.3-.038 6.569-.285 6.569-.285l.494 2.542.001-.002Z"/>
  <path fill="#0C0C0C" d="M171.362 138.257c-.212 0-.418-.024-.617-.077-1.033-.271-1.747-.76-2.119-1.451a2.41 2.41 0 0 1-.209-1.698.267.267 0 0 1 .125-.159l3.126-1.746c-.897.035-1.979-.04-2.37-.531-.117-.146-.231-.398-.117-.763.272-.861.754-.868 1.552-.88l.141-.002c2.27-.038 6.517-.283 6.559-.285a.255.255 0 0 1 .267.215l.494 2.543a.273.273 0 0 1-.06.233c-.17.201-3.934 4.601-6.772 4.601Zm-2.474-2.967c-.034.205-.074.695.191 1.181.301.554.904.952 1.792 1.186 2.372.623 6.174-3.558 6.793-4.259l-.424-2.18c-.909.051-4.378.24-6.357.274l-.142.002c-.811.011-.92.031-1.07.507-.044.138-.013.204.023.25.338.424 2.058.389 3.171.227a.257.257 0 0 1 .28.185.275.275 0 0 1-.124.321l-4.133 2.308v-.002Z"/>
  <path fill="#FFFEFE" d="M173.272 135.93s-.999.878-3.139 1.757l3.139-1.757Z"/>
  <path fill="#0C0C0C" d="M170.133 137.956a.256.256 0 0 1-.239-.171.273.273 0 0 1 .145-.35c2.067-.848 3.058-1.704 3.068-1.712a.251.251 0 0 1 .363.033.279.279 0 0 1-.032.38c-.041.037-1.057.917-3.211 1.802a.238.238 0 0 1-.094.018Z"/>
  <path fill="#FFFEFE" d="M172.532 134.948s-1.312.914-3.547 1.861l3.547-1.861Z"/>
  <path fill="#0C0C0C" d="M168.984 137.079a.26.26 0 0 1-.239-.168.275.275 0 0 1 .142-.352c2.182-.924 3.49-1.826 3.502-1.835a.25.25 0 0 1 .357.076.277.277 0 0 1-.072.374c-.055.038-1.36.94-3.594 1.885a.24.24 0 0 1-.096.02Z"/>
  <path fill="#FFFEFE" d="M170.957 90.912c2.861.051 5.55 1.417 7.368 3.73 4.836 6.154 13.778 18.665 13.087 26.241-.943 10.346-13.554 13.725-13.554 13.725l-1.412-4.475c11.356-10.518-3.271-26.005-3.271-26.005l-3.131-13.232.913.016Z"/>
  <path fill="#0C0C0C" d="M177.857 134.877a.26.26 0 0 1-.245-.185l-1.411-4.475a.275.275 0 0 1 .073-.286c2.625-2.431 4.023-5.355 4.154-8.692.317-8.027-6.646-15.876-7.441-16.745a.278.278 0 0 1 .008-.381.25.25 0 0 1 .364.008c.81.886 7.91 8.891 7.584 17.141-.136 3.434-1.548 6.446-4.201 8.954l1.281 4.062c1.708-.527 12.286-4.154 13.13-13.421.673-7.378-7.875-19.484-13.03-26.045-1.846-2.349-5.337-3.813-8.897-3.728a.262.262 0 0 1-.264-.263.265.265 0 0 1 .252-.276c3.704-.088 7.364 1.451 9.307 3.924 5.206 6.624 13.835 18.868 13.145 26.438-.949 10.414-13.619 13.927-13.746 13.961a.241.241 0 0 1-.065.008l.002.001Z"/>
  <path fill="#FFFEFE" d="M157.744 73.797c-.504.436-.796.56-1.206.974-.833.844-1.559 3.336-2.96 3.85-.15.814.472.908.707 1.362-.174.4-.461 2.266-.766 3.407-.107.4.087.824.455.98a6.627 6.627 0 0 0 2.096.493s3.994 4.763-.071 8.038c0 0 6.273-1.313 8.128-1.502 1.099-.112-2.736-8.24-2.736-8.24.12-.046 1.679-.672 1.844-2.023.06-.496-.043-1.286-.47-1.454-.417-.164-1.114.274-1.555 1.209a5.936 5.936 0 0 1-.268-.836c-.118-.45-.205-.966-.083-1.226-3.89-1.103-.394-5.062-3.116-5.032h.001Z"/>
  <path fill="#0C0C0C" d="M155.999 93.172c-.1 0-.192-.06-.235-.158a.28.28 0 0 1 .077-.326c1.026-.827 1.6-1.825 1.707-2.968.199-2.133-1.275-4.17-1.606-4.598a6.856 6.856 0 0 1-2.064-.502c-.489-.208-.749-.767-.607-1.303.142-.532.283-1.237.407-1.86.137-.688.235-1.165.319-1.44a1.842 1.842 0 0 0-.203-.205c-.253-.231-.599-.547-.471-1.242a.268.268 0 0 1 .169-.204c.799-.293 1.392-1.373 1.914-2.324.32-.581.621-1.13.952-1.465.246-.25.453-.4.673-.56.165-.121.337-.246.548-.428a.25.25 0 0 1 .162-.062c.506 0 .865.117 1.099.373.367.405.333 1.03.296 1.694-.066 1.194-.133 2.428 1.79 2.974.074.02.136.075.167.15a.276.276 0 0 1-.004.23c-.054.112-.055.443.1 1.034.024.092.051.188.078.283.47-.68 1.099-1.028 1.587-.837.593.235.705 1.17.635 1.742-.147 1.197-1.227 1.868-1.748 2.124.917 1.962 3.262 7.177 2.755 8.132a.434.434 0 0 1-.347.24c-1.82.187-8.04 1.485-8.102 1.499a.251.251 0 0 1-.05.006h.002Zm-2.186-14.357c-.015.285.118.406.321.593.13.119.277.254.378.447a.291.291 0 0 1 .009.242c-.08.183-.211.839-.338 1.472-.126.63-.269 1.345-.416 1.894a.555.555 0 0 0 .303.658 6.4 6.4 0 0 0 2.019.473c.067.005.13.038.175.09.083.1 2.041 2.469 1.797 5.09-.093.997-.494 1.894-1.196 2.673 1.8-.368 5.725-1.155 7.196-1.312.205-.62-1.328-4.521-2.901-7.857a.284.284 0 0 1-.009-.22.265.265 0 0 1 .15-.153c.062-.024 1.531-.603 1.677-1.804.058-.472-.06-1.07-.305-1.168-.251-.097-.833.228-1.232 1.076a.256.256 0 0 1-.231.15h-.004a.258.258 0 0 1-.231-.158 6.396 6.396 0 0 1-.281-.877c-.123-.469-.172-.836-.143-1.111-2.08-.704-1.992-2.285-1.929-3.452.032-.566.058-1.055-.155-1.29-.119-.13-.326-.198-.632-.206a8.706 8.706 0 0 1-.509.393 4.43 4.43 0 0 0-.61.506c-.277.282-.562.799-.862 1.346-.538.98-1.144 2.084-2.042 2.502l.001.003Z"/>
  <path fill="#FFFEFE" d="M159.276 84.367s-1.33.863-3.079.51l3.079-.51Z"/>
  <path fill="#0C0C0C" d="M157.051 85.234c-.284 0-.587-.026-.903-.09a.27.27 0 0 1-.205-.316.26.26 0 0 1 .302-.214c1.622.327 2.883-.467 2.896-.475a.25.25 0 0 1 .354.088.278.278 0 0 1-.083.37c-.048.032-1 .637-2.361.637Z"/>
  <path fill="#FFFEFE" d="M32.288 46.335c5.556 0 10.06-4.715 10.06-10.531 0-5.817-4.505-10.532-10.06-10.532-5.556 0-10.06 4.716-10.06 10.532s4.504 10.531 10.06 10.531Z"/>
  <path fill="#0C0C0C" d="M35.15 46.18c-5.467 1.653-11.197-1.658-12.775-7.38-1.578-5.723 1.584-11.722 7.05-13.375 5.466-1.652 11.197 1.659 12.775 7.381 1.578 5.723-1.585 11.722-7.05 13.374Zm-5.581-20.235c-5.193 1.57-8.198 7.27-6.699 12.706 1.5 5.436 6.945 8.582 12.137 7.012 5.193-1.569 8.198-7.268 6.699-12.705-1.5-5.436-6.944-8.582-12.137-7.012v-.001Z"/>
  <path fill="#0C0C0C" d="M33.744 40.877a.312.312 0 0 1-.311.102c-.99-.24-5.628-1.538-6.373-4.845-.787-3.495 2.95-3.977 4.3-2.548a.183.183 0 0 0 .195.048.197.197 0 0 0 .126-.165c.132-1.22 1.312-2.431 2.77-2.311 1.74.142 4.459 3.736-.707 9.72Z"/>
  <path fill="#FFFEFE" d="M63.168 201.554s8.898-26.968 30.088-39.529c.708-.42 2.2 2.533 2.937 2.147.94-.494 1.135-4.315 2.12-4.747a43.475 43.475 0 0 1 11.964-3.33s-1.756 8.903-8.046 18.934c-.475.757-4.34.092-4.866.858-.498.723 2.344 2.878 1.796 3.605-7.076 9.393-18.35 18.775-35.993 22.064v-.002Z"/>
  <path fill="#0C0C0C" d="M63.168 201.824a.252.252 0 0 1-.196-.095.281.281 0 0 1-.048-.263c.022-.068 2.29-6.865 7.122-15.107 4.462-7.611 12.089-18.051 23.083-24.568.534-.316 1.137.379 1.777 1.114.342.394.98 1.124 1.172 1.026.36-.189.657-1.287.894-2.169.322-1.191.626-2.315 1.243-2.586a43.949 43.949 0 0 1 12.03-3.35.252.252 0 0 1 .221.085c.056.064.08.152.064.237-.018.089-1.838 9.069-8.084 19.027-.29.463-1.181.515-2.614.547-.824.019-2.07.046-2.258.321-.13.187.555 1.036.884 1.445.675.838 1.312 1.629.906 2.169-8.97 11.907-21.134 19.364-36.15 22.163a.234.234 0 0 1-.045.004Zm30.255-39.574a.072.072 0 0 0-.04.011c-10.893 6.457-18.46 16.817-22.89 24.369-4.107 7.003-6.35 12.951-6.93 14.575 14.687-2.838 26.593-10.198 35.395-21.882.147-.195-.531-1.036-.894-1.487-.683-.848-1.273-1.58-.909-2.108.316-.46 1.218-.513 2.666-.545.809-.018 2.031-.044 2.194-.303 5.476-8.732 7.518-16.685 7.929-18.47a43.412 43.412 0 0 0-11.53 3.262c-.388.171-.696 1.316-.944 2.235-.307 1.135-.597 2.209-1.16 2.505-.543.285-1.146-.41-1.785-1.145-.293-.338-.883-1.018-1.102-1.018v.001Z"/>
  <path fill="#FFFEFE" d="M76.338 172.622c.151-.902-3.723-1.272-3.603-2.155.118-.87 4.532-3.284 4.621-4.132 1.757-16.651-1.745-28.977-1.745-28.977-5.272 3.9-9.603 8.416-13.157 13.288-.567.779 1.217 5.052.688 5.847-.58.873-3.84-.801-4.374.09-7.892 13.154-10.579 27.24-11.542 39.491 5.74 3.029 11.485 5.235 17.19 6.699 7.008-10.513 10.285-20.386 11.922-30.149v-.002Z"/>
  <path fill="#0C0C0C" d="M64.416 203.041a.215.215 0 0 1-.06-.008c-5.822-1.494-11.624-3.755-17.245-6.721a.271.271 0 0 1-.141-.263c1.236-15.73 5.025-28.687 11.581-39.613.362-.603 1.373-.394 2.445-.17.735.152 1.743.361 1.937.071.193-.292-.142-1.664-.386-2.664-.41-1.677-.635-2.728-.296-3.193 3.75-5.143 8.197-9.633 13.213-13.344a.247.247 0 0 1 .233-.034.267.267 0 0 1 .163.179c.035.123 3.496 12.567 1.754 29.082-.055.52-.951 1.194-2.409 2.251-.865.626-2.17 1.572-2.214 1.891-.028.213 1.166.616 1.615.768 1.128.381 2.103.71 1.988 1.396-1.882 11.221-5.684 20.835-11.965 30.257a.253.253 0 0 1-.21.116l-.003-.001Zm-16.918-7.128c5.482 2.878 11.135 5.081 16.808 6.551 6.176-9.307 9.92-18.81 11.778-29.89.037-.223-1.137-.62-1.638-.789-1.103-.374-2.056-.695-1.967-1.358.071-.526.97-1.201 2.43-2.259.855-.619 2.146-1.554 2.191-1.866 1.564-14.824-1.089-26.336-1.639-28.502-4.852 3.636-9.157 8.011-12.802 13.008-.21.289.148 1.759.385 2.731.397 1.625.616 2.645.31 3.107-.385.579-1.393.371-2.46.15-.732-.153-1.734-.361-1.908-.071-6.486 10.809-10.244 23.629-11.49 39.188h.002Z"/>
  <path fill="#0C0C0C" d="M58.243 195.547a.353.353 0 0 1-.054-.006.271.271 0 0 1-.198-.321 311.36 311.36 0 0 1 3.508-15.077.256.256 0 0 1 .316-.19.271.271 0 0 1 .181.331 310.243 310.243 0 0 0-3.501 15.05.26.26 0 0 1-.252.213ZM63.67 173.412a.234.234 0 0 1-.073-.012.271.271 0 0 1-.174-.335 309.196 309.196 0 0 1 8.178-24.72l1.398-3.695a.254.254 0 0 1 .335-.151.273.273 0 0 1 .144.35l-1.398 3.695a309.257 309.257 0 0 0-8.163 24.675.261.261 0 0 1-.247.194v-.001Z"/>
  <path fill="#FFFEFE" d="M61.704 202.007S77 179.489 101.08 192.125c0 0-14.848 18.024-39.375 9.882Z"/>
  <path fill="#0C0C0C" d="M74.2 204.372c-3.817 0-8.027-.599-12.575-2.109a.262.262 0 0 1-.166-.171.282.282 0 0 1 .034-.242c.038-.057 3.936-5.725 10.74-9.758 6.29-3.727 16.42-6.789 28.96-.209a.267.267 0 0 1 .137.188.281.281 0 0 1-.058.229c-.037.045-3.825 4.588-10.571 8.06a35.977 35.977 0 0 1-16.503 4.011l.002.001Zm-12.07-2.508c12.414 4.009 22.244 1.149 28.326-1.976 5.737-2.949 9.301-6.676 10.202-7.68-12.195-6.264-22.04-3.277-28.168.355-5.813 3.444-9.464 8.087-10.36 9.301Z"/>
  <path fill="#0C0C0C" d="M70.008 200.539a.258.258 0 0 1-.235-.158.275.275 0 0 1 .126-.357c8-3.827 23.545-6.329 23.701-6.353a.261.261 0 0 1 .295.226.267.267 0 0 1-.217.307c-.155.025-15.63 2.515-23.564 6.311a.242.242 0 0 1-.107.024Z"/>
  <path fill="#FFFEFE" d="M49.032 104.526c3.318 2.758 3.519 6.796 2.764 9.554-.617 2.258-3.002 6.106-3.59 8.457-.169.672.3 1.335.962 1.375 1.227.075 3.163.196 3.744.247 2.004.18 3.607 4.616-2.863 4.136-6.47-.479-20.51-.495-20.51-.495s-10.478.92-6.184-4.235c4.294-5.154 9.174-14.869 11.006-17.568 1.832-2.696 11.353-4.229 14.671-1.471Z"/>
  <path fill="#0C0C0C" d="M50.975 128.479c-.29 0-.601-.012-.937-.037-.129-.009-.261-.018-.396-.029a.146.146 0 0 1-.132-.158.147.147 0 0 1 .15-.138c.136.009.269.018.398.029 2.7.199 4.371-.474 4.47-1.804.072-.948-.736-1.957-1.63-2.037-.553-.049-2.338-.161-3.74-.247a1.187 1.187 0 0 1-.901-.516 1.288 1.288 0 0 1-.19-1.044c.309-1.234 1.106-2.875 1.877-4.461.731-1.505 1.421-2.925 1.716-4 .768-2.813.459-6.757-2.716-9.397-1.837-1.527-5.47-1.63-8.256-1.216-2.978.442-5.417 1.485-6.213 2.657-.581.856-1.454 2.393-2.56 4.339-2.33 4.101-5.521 9.719-8.454 13.239a.137.137 0 0 1-.2.015.153.153 0 0 1-.013-.209c2.915-3.501 6.1-9.104 8.425-13.198 1.109-1.951 1.984-3.493 2.573-4.359.851-1.253 3.305-2.318 6.404-2.778 2.844-.422 6.564-.308 8.47 1.278 3.285 2.73 3.607 6.806 2.813 9.71-.3 1.101-.997 2.535-1.735 4.053-.765 1.572-1.555 3.198-1.856 4.401a.971.971 0 0 0 .145.794.906.906 0 0 0 .69.395c1.402.086 3.191.198 3.747.248 1.054.095 1.971 1.239 1.888 2.354-.04.522-.44 2.112-3.836 2.112v.004Z"/>
  <path fill="#FFFEFE" d="M58.029 66.276 42.45 68.873s.87 6.721-5.888 13.507c-2.056 2.065-4.506 5.354-6.442 11.44l-.009.027c-.684 2.18-1.347 4.621-3.097 6.003-6.347 5.01-6.867 9.907-7.034 13.965-.434 10.518-2.25 9.568-2.234 11.87.013 1.795 2.379 2.399 5.093 2.449 2.715.051 13.112-.075 13.112-.075s1.2-.099 1.309-1.877c.117-1.897-1.169-4.896-8.216-3.174-.993.243-1.75.38-2.322.442-.455.048-.673-.581-.287-.839 2.234-1.493 10.436-2.281 11.339-7.01 1.448-7.583.977-1.382 4.494-1.385 6.794-.006 11.01-6.277 12.87-9.295 1.86-3.019 6.946-8.805 6.946-8.805 4.362-5.203-4.056-29.838-4.056-29.838v-.002Z"/>
  <path fill="#0C0C0C" d="M63.043 86.75h-.015c-6.274-.705-8.494-3.605-8.49-5.875.004-1.572 1.414-2.276 2.779-2.957 1.54-.768 3.132-1.564 2.997-3.589a.148.148 0 0 1 .117-.157.141.141 0 0 1 .16.107c.473 1.806 2.056 8.03 2.592 12.303a.152.152 0 0 1-.04.123.138.138 0 0 1-.101.044l.001.001Zm-2.5-11.527c-.319 1.573-1.786 2.305-3.104 2.963-1.344.67-2.614 1.303-2.617 2.69-.005 2.125 2.107 4.84 8.056 5.558-.484-3.71-1.722-8.8-2.337-11.21h.001ZM24.422 112.329c-1.18 0-2.581-.5-4.245-1.51a.149.149 0 0 1-.071-.128c0-3.85 3.426-8.279 6.823-10.96 1.596-1.26 2.263-3.408 2.91-5.485l.148-.475c1.572-4.938 3.691-8.7 6.479-11.498 2.404-2.414 4.797-7.211 4.822-7.26a.14.14 0 0 1 .15-.077c.04.007 4.04.773 3.433 5.323-.163 1.224-.325 2.1-.454 2.804-.43 2.343-.439 2.387 1.425 5.72 1.526 2.732 2.114 5.37 1.747 7.843-.317 2.132-1.367 4.12-3.035 5.749-3.786 3.694-10.194 4.939-13.444 2.613-.353-.253-.644-.334-.889-.248-.569.198-.919 1.278-1.324 2.531-.592 1.824-1.328 4.097-3.172 4.822a3.53 3.53 0 0 1-1.302.237l-.001-.001Zm-4.03-1.723c2.211 1.329 3.923 1.724 5.232 1.209 1.72-.676 2.432-2.874 3.004-4.639.43-1.326.8-2.472 1.502-2.717.335-.117.708-.024 1.139.285 3.152 2.256 9.392 1.025 13.091-2.585 2.085-2.034 5.019-6.458 1.237-13.224-1.882-3.366-1.91-3.477-1.459-5.927.13-.7.29-1.574.452-2.79.522-3.92-2.494-4.827-3.101-4.969-.359.705-2.583 4.986-4.828 7.239-2.753 2.764-4.848 6.486-6.406 11.378l-.148.473c-.66 2.12-1.34 4.312-3.008 5.628-3.315 2.617-6.659 6.911-6.709 10.639h.001Z"/>
  <path fill="#0C0C0C" d="M24.747 128.293c-.795 0-1.46-.003-1.91-.011-3.41-.064-5.22-.962-5.231-2.596-.006-.796.199-1.223.482-1.815.547-1.14 1.462-3.049 1.752-10.063.183-4.435.881-9.175 7.09-14.077 1.597-1.26 2.264-3.407 2.91-5.484l.148-.473c1.573-4.94 3.692-8.7 6.48-11.5 6.622-6.648 5.855-13.314 5.846-13.38a.148.148 0 0 1 .118-.166l15.577-2.596a.141.141 0 0 1 .155.096c.021.062 2.126 6.244 3.669 12.983 2.08 9.086 2.202 14.807.362 17.003-.053.06-5.101 5.814-6.934 8.788-1.426 2.314-5.766 9.357-12.99 9.362h-.003c-1.534 0-2.33-1.107-2.856-1.84-.181-.252-.408-.566-.5-.544-.313.074-.775 2.49-.996 3.649-.653 3.423-5.043 4.837-8.249 5.869-1.347.434-2.51.808-3.152 1.238-.142.095-.153.246-.116.357.036.108.141.229.312.21.602-.064 1.378-.211 2.304-.438 3.474-.851 5.934-.663 7.308.556 1.033.916 1.12 2.129 1.081 2.77-.115 1.886-1.425 2.015-1.439 2.016-.094.001-7.265.088-11.216.088l-.002-.002Zm17.859-59.296c.074 1.021.246 7.276-5.944 13.49-2.753 2.765-4.848 6.486-6.406 11.379l-.148.472c-.66 2.12-1.34 4.312-3.008 5.63-6.11 4.824-6.798 9.488-6.978 13.853-.292 7.076-1.225 9.021-1.781 10.183-.276.575-.457.955-.453 1.679.013 1.827 2.702 2.261 4.954 2.303 2.682.051 13.004-.074 13.108-.075.034-.004 1.07-.118 1.17-1.739.036-.586-.044-1.693-.982-2.525-1.283-1.139-3.725-1.31-7.06-.494-.938.229-1.725.379-2.34.446a.574.574 0 0 1-.608-.408.604.604 0 0 1 .232-.704c.674-.45 1.854-.83 3.221-1.27 3.137-1.011 7.434-2.394 8.054-5.644.62-3.241.864-3.798 1.21-3.88.272-.066.49.237.79.654.493.686 1.238 1.722 2.631 1.722h.002c7.07-.006 11.347-6.946 12.753-9.228 1.845-2.994 6.91-8.767 6.96-8.824 4.104-4.896-3.43-27.733-4.046-29.573L42.608 69l-.002-.002Z"/>
  <path fill="#FFFEFE" d="M60.415 87.578c2.118 1.77 2.048 15.866.56 22.264-1.923 8.275-.496 13.571-.496 13.571s1.618.628 2.22 1.682c.608 1.062.647 2.782-.692 3.06-1.404.292-3.345.165-4.714.008-.994-.114-1.786-.925-1.911-1.963-.135-1.109-.648-5.627-.7-10.502-.056-5.132.35-10.604.35-10.604s3.881-6.295 3.055-10.14c-.935-4.352.881-8.588 2.329-7.378l-.001.002Z"/>
  <path fill="#0C0C0C" d="M46.368 124.105a.139.139 0 0 1-.082-.028c-2.1-1.58-4.866-.114-4.893-.1a.137.137 0 0 1-.19-.064.15.15 0 0 1 .06-.199c.12-.064 2.948-1.562 5.188.123.064.048.078.14.033.207a.14.14 0 0 1-.115.062v-.001ZM61.54 124.105a.136.136 0 0 1-.074-.022c-1.608-1.035-3.415-.601-4.117-.366a.142.142 0 0 1-.178-.096.15.15 0 0 1 .092-.187c.74-.246 2.643-.702 4.35.397a.153.153 0 0 1 .048.204.139.139 0 0 1-.12.071v-.001Z"/>
  <path fill="#0C0C0C" d="M59.95 128.479c-.939 0-1.895-.079-2.673-.167-1.065-.122-1.902-.982-2.036-2.093-.151-1.249-.649-5.699-.701-10.517-.056-5.079.348-10.563.352-10.618a.163.163 0 0 1 .022-.068c.03-.048 2.937-4.806 3.136-8.499a.147.147 0 0 1 .149-.14.146.146 0 0 1 .133.156c-.195 3.61-2.903 8.182-3.161 8.61-.035.487-.401 5.705-.348 10.553.053 4.803.548 9.239.699 10.484.118.975.853 1.729 1.787 1.835 1.367.156 3.287.281 4.67-.007.407-.084.694-.315.851-.687.245-.579.142-1.463-.251-2.151-.57-.999-2.132-1.613-2.148-1.619a.147.147 0 0 1-.087-.098c-.014-.054-1.415-5.43.495-13.648 1.343-5.774 1.522-18.336-.1-21.547a.152.152 0 0 1 .059-.2.14.14 0 0 1 .191.062c1.68 3.324 1.509 15.805.126 21.755-1.775 7.635-.672 12.773-.516 13.426.324.137 1.667.744 2.223 1.717.37.648.595 1.649.266 2.424a1.411 1.411 0 0 1-1.054.858c-.623.13-1.348.178-2.084.178v.001Z"/>
  <path fill="#FFFEFE" d="M35.957 87.985c-1.38 2.642-2.805 6.897-2.242 9.85 1.324 6.932 4.035 19.685 4.82 22.765 1.07 4.204-.85 7.852 1.186 8.137 2.036.284 6.92.379 7.825 0 .904-.379 1.33-3.389-1.534-5-3.527-1.984-3.624-20.715-3.335-23.515 1.889-18.209-2.187-20.912-6.72-12.236Z"/>
  <path fill="#0C0C0C" d="M46.368 124.105a.139.139 0 0 1-.082-.028c-2.1-1.58-4.866-.114-4.893-.1a.137.137 0 0 1-.19-.064.15.15 0 0 1 .06-.199c.12-.064 2.948-1.562 5.188.123.064.048.078.14.033.207a.14.14 0 0 1-.115.062v-.001Z"/>
  <path fill="#0C0C0C" d="M44.37 129.136c-1.68 0-3.577-.099-4.668-.251-1.255-.175-1.167-1.455-1.046-3.227.096-1.407.217-3.157-.258-5.018-.747-2.93-3.463-15.656-4.82-22.775a.147.147 0 0 1 .11-.174.14.14 0 0 1 .167.115c1.358 7.115 4.072 19.831 4.818 22.757.486 1.909.364 3.687.266 5.116-.127 1.873-.147 2.779.8 2.912 2.165.302 6.925.357 7.755.009.31-.13.551-.659.585-1.285.028-.512-.044-2.273-2.133-3.447-1.934-1.088-2.792-6.891-3.173-11.57-.43-5.286-.382-10.682-.235-12.091.931-8.98.466-14.99-1.277-16.488a.153.153 0 0 1-.02-.208.138.138 0 0 1 .2-.02c1.844 1.585 2.334 7.533 1.378 16.747-.32 3.075-.107 21.474 3.26 23.368 2.236 1.257 2.313 3.168 2.282 3.725-.04.761-.34 1.366-.762 1.544-.438.183-1.748.26-3.229.26v.001Z"/>
  <path fill="#FFFEFE" d="M57.735 50.746c.242-.105 2.315-.442 3.51.934 1.197 1.378 2.728 5.614 4.074 7.363 1.347 1.75 3.173 5.074 1.439 8.196-1.734 3.123-2.195 5.604-6.538 5.713-4.343.108-4.216-3.502-3.58-5.97.635-2.468 1.663-7.299 1.213-9.295-.452-1.997-.118-6.94-.118-6.94Z"/>
  <path fill="#0C0C0C" d="M60.033 73.102c-1.458 0-2.52-.431-3.16-1.284-1-1.334-.754-3.387-.37-4.874.81-3.146 1.612-7.449 1.211-9.223-.45-1.995-.134-6.783-.121-6.985a.144.144 0 0 1 .087-.126c.244-.105 2.394-.497 3.67.972.619.713 1.305 2.132 2.031 3.635.685 1.418 1.393 2.884 2.048 3.734 1.065 1.383 3.338 4.966 1.451 8.364-.27.487-.51.958-.74 1.412-1.214 2.392-2.173 4.28-5.916 4.374l-.19.002ZM57.87 50.858c-.043.717-.285 5 .12 6.794.545 2.407-1.032 8.663-1.214 9.368-.367 1.422-.608 3.377.32 4.615.61.811 1.66 1.204 3.12 1.169 3.58-.09 4.458-1.82 5.675-4.216.231-.457.47-.93.745-1.422 1.799-3.24-.399-6.694-1.427-8.03-.673-.874-1.388-2.354-2.08-3.785-.717-1.484-1.393-2.887-1.987-3.57-1.067-1.228-2.843-1.027-3.272-.922Z"/>
  <path fill="#FFFEFE" d="M45.916 50.71c.14-.164-2.572-.184-4.209 1.529-1.637 1.714-2.514 3.671-4.208 6.241-1.695 2.57-3.332 4.1-2.923 6.303.409 2.202.994 5.385 3.858 7.465 2.863 2.08 5.727.733 6.663.305.935-.428 2.746-3.488 2.046-7.71-.701-4.221-1.754-13.522-1.228-14.135v.002Z"/>
  <path fill="#0C0C0C" d="M41.824 73.525c-1.066 0-2.27-.283-3.47-1.155-2.904-2.11-3.511-5.378-3.912-7.541l-.004-.018c-.333-1.797.648-3.165 1.889-4.898.342-.477.695-.97 1.056-1.517.56-.85 1.023-1.62 1.47-2.363.885-1.471 1.65-2.742 2.754-3.898 1.592-1.667 4.18-1.78 4.405-1.557a.17.17 0 0 1 .009.231c-.442.525.491 9.367 1.262 14.01.689 4.147-1.044 7.375-2.128 7.871l-.027.013c-.561.258-1.794.822-3.303.822ZM45.6 50.787c-.68 0-2.558.265-3.791 1.557-1.082 1.134-1.838 2.39-2.714 3.846-.45.747-.914 1.52-1.477 2.375-.364.551-.72 1.047-1.063 1.526-1.246 1.738-2.147 2.995-1.837 4.663l.004.017c.416 2.243.987 5.314 3.796 7.355 2.77 2.012 5.576.727 6.498.305l.029-.013c.894-.41 2.64-3.472 1.962-7.548-.515-3.1-1.701-12.509-1.275-14.078a2.002 2.002 0 0 0-.13-.005H45.6ZM48.5 69.4s1.143 1.297 2.413 1.497c1.271.199 2.32.064 3.212-1.131.983-1.317-2.528-2.993-2.528-2.993l-3.098 2.628Z"/>
  <path fill="#0C0C0C" d="M51.79 71.124c-.3 0-.601-.033-.898-.08-1.304-.205-2.449-1.489-2.497-1.543a.152.152 0 0 1 .015-.216l3.098-2.627a.134.134 0 0 1 .148-.02c.1.049 2.475 1.195 2.756 2.394.07.298.011.576-.176.826-.743.996-1.592 1.266-2.446 1.266Zm-3.08-1.71c.307.313 1.236 1.182 2.224 1.338 1.222.192 2.214.082 3.078-1.075a.655.655 0 0 0 .123-.573c-.221-.95-2.109-1.948-2.52-2.155l-2.906 2.466.001-.001Z"/>
  <path fill="#FFFEFE" d="M51.674 67.904a.372.372 0 0 0-.698-.013c-.327.796-.89 1.734-1.896 2.274 0 0-3.516 1.493-3.293-3.863.19-4.577-1.785-3.996-2.34-7.605-.3-1.957-.007-4.085.323-5.626.414-1.926 1.75-3.507 3.545-4.114.9-.304 2.04-.53 3.462-.562 4.867-.108 7.508 1.084 8.309 5.596.8 4.511-1.478 8.379-1.601 9.99-.124 1.611.794 7.218-3.448 6.123 0 0-1.628-.267-2.363-2.202v.002Z"/>
  <path fill="#0C0C0C" d="M45.798 65.752c-.01 0-.02 0-.029-.003a.146.146 0 0 1-.112-.144c-.018-2.045-.55-2.876-1.113-3.755-.488-.762-.993-1.55-1.236-3.13-.308-2.01.007-4.199.325-5.681.427-1.99 1.821-3.608 3.64-4.223 1.032-.35 2.21-.54 3.502-.57 2.672-.059 4.447.276 5.754 1.087 1.436.89 2.294 2.363 2.696 4.63.569 3.207-.412 6.132-1.06 8.067-.282.84-.504 1.501-.539 1.962a5.54 5.54 0 0 0-.012.375.148.148 0 0 1-.11.144.14.14 0 0 1-.159-.08c-.981-2.149-2.4-3.605-3.437-4.667-.366-.376-.681-.7-.914-.988-.572-.712-.316-1.782-.044-2.916.363-1.513.705-2.943-.82-3.588-.497-.21-.958-.2-1.335.03-.462.281-.773.884-.877 1.7-.076.592.16 1.28.41 2.006.515 1.5 1.098 3.2-.99 4.522-1.124.712-2.24 2.392-3.411 5.136a.142.142 0 0 1-.13.088v-.002Zm5.534-17.214c-.18 0-.364.002-.553.007-1.264.028-2.414.215-3.42.555-1.723.581-3.045 2.116-3.452 4.005-.313 1.457-.622 3.606-.321 5.57.233 1.515.72 2.275 1.19 3.01.527.822 1.027 1.602 1.139 3.292 1.107-2.468 2.181-4.009 3.275-4.703 1.889-1.197 1.37-2.707.869-4.167-.261-.763-.509-1.483-.424-2.147.116-.907.475-1.587 1.014-1.916.455-.277 1.003-.294 1.584-.048 1.752.742 1.346 2.438.988 3.935-.254 1.058-.493 2.059-.014 2.654.224.278.535.597.895.967.971.996 2.272 2.33 3.257 4.258.067-.48.277-1.105.535-1.876.677-2.02 1.604-4.787 1.05-7.914-.702-3.96-2.785-5.481-7.614-5.481l.002-.001Z"/>
  <path fill="#0C0C0C" d="M48.06 70.506c-.404 0-.863-.093-1.278-.398-.834-.616-1.217-1.898-1.137-3.812.106-2.566-.48-3.48-1.101-4.448-.489-.76-.994-1.548-1.237-3.128-.308-2.01.007-4.199.325-5.681.428-1.99 1.822-3.608 3.64-4.223 1.032-.35 2.211-.54 3.502-.57 2.67-.059 4.447.276 5.754 1.087 1.437.89 2.294 2.363 2.696 4.63.569 3.207-.412 6.132-1.06 8.067-.281.84-.503 1.501-.538 1.962-.02.252-.012.61-.005 1.027.03 1.544.076 3.879-1.13 4.887-.595.5-1.433.614-2.488.341-.058-.009-1.705-.3-2.46-2.29a.233.233 0 0 0-.437-.01c-.452 1.102-1.112 1.891-1.962 2.348-.038.017-.502.21-1.084.21Zm3.272-21.968c-.18 0-.364.002-.552.007-1.264.027-2.415.215-3.422.555-1.722.582-3.044 2.116-3.45 4.005-.313 1.456-.623 3.605-.322 5.57.233 1.515.72 2.275 1.192 3.009.648 1.01 1.26 1.963 1.15 4.625-.075 1.806.266 3.002 1.015 3.556.887.656 2.07.168 2.082.164.777-.42 1.394-1.159 1.82-2.196a.509.509 0 0 1 .474-.327h.008a.516.516 0 0 1 .477.343c.697 1.835 2.237 2.108 2.253 2.11.977.252 1.733.155 2.257-.283 1.095-.918 1.051-3.164 1.023-4.65a12.13 12.13 0 0 1 .005-1.056c.039-.5.266-1.178.554-2.037.677-2.02 1.604-4.787 1.05-7.914-.703-3.96-2.785-5.481-7.615-5.481Z"/>
  <path fill="#0C0C0C" d="M48.918 62.602s.088-1.126 2.394-1.128c2.51-.003 2.613 1.046 2.613 1.61 0 1.716-1.477 3.126-2.58 3.126-1.16 0-2.774-1.651-2.427-3.608Z"/>
  <path fill="#FFFEFE" d="M53.133 63.174c-.03 0-.06-.01-.086-.031-.283-.227-.623-.43-1.647-.43-.421 0-.87.085-1.143.217a.14.14 0 0 1-.188-.072.152.152 0 0 1 .07-.197c.313-.15.796-.244 1.262-.244 1.114 0 1.497.232 1.82.491.061.05.074.143.025.207a.14.14 0 0 1-.112.059h-.001Z"/>
  <path fill="#0C0C0C" d="M45.871 56.095c.304-.602 1.27-1.931 3.188.287a.677.677 0 0 1 .055.803c-.248.388-.729.875-1.563.842-1.21-.048-1.636-.727-1.755-1.407a.842.842 0 0 1 .075-.524v-.001Z"/>
  <path fill="#FFFEFE" d="M47.78 56.715a.429.429 0 0 0 .419-.439.429.429 0 0 0-.42-.438.429.429 0 0 0-.418.438c0 .242.188.439.419.439Z"/>
  <path fill="#0C0C0C" d="M57.417 56.142c-.275-.572-1.231-2.02-3.179.205a.73.73 0 0 0-.06.878c.255.38.73.833 1.535.801 1.251-.05 1.663-.774 1.766-1.477a.71.71 0 0 0-.063-.408h.001Z"/>
  <path fill="#FFFEFE" d="M55.96 56.394a.429.429 0 0 1-.42.438.43.43 0 0 1-.418-.438.43.43 0 0 1 .419-.439.43.43 0 0 1 .418.439Z"/>
</svg>
