<svg width="102" height="101" viewBox="0 0 103 100" fill="none" xmlns="http://www.w3.org/2000/svg">
<path d="M85.6585 85.2475C85.0998 84.9318 72 76.7248 72 68.0758C72 63.9091 75.3526 60.5 79.4501 60.5C82.2439 60.5 84.7273 62.0783 86.031 64.4773C87.2727 62.0783 89.7561 60.5 92.5499 60.5C96.6474 60.5 100 63.9091 100 68.0758C100 76.7248 86.9002 84.9318 86.3415 85.2475L86.031 85.5L85.6585 85.2475Z" stroke="#C1121F" stroke-width="2.5" stroke-linecap="round" stroke-linejoin="round"/>
<path d="M93 65.5C94.087 65.5 95 66.413 95 67.5" stroke="#C1121F" stroke-width="2.5" stroke-linecap="round" stroke-linejoin="round"/>
<path d="M46 33.5C34.4159 33.5 25 43.0767 25 55C25 66.8599 34.4159 76.5 46 76.5C57.5841 76.5 67 66.8599 67 55C67 43.0767 57.5841 33.5 46 33.5Z" stroke="#0C0C0C" stroke-width="2.5" stroke-linecap="round" stroke-linejoin="round"/>
<path d="M46.5 38.5C37.3982 38.5 30 46.0723 30 55.5C30 64.8776 37.3982 72.5 46.5 72.5C55.6018 72.5 63 64.8776 63 55.5C63 46.0723 55.6018 38.5 46.5 38.5Z" stroke="#0C0C0C" stroke-width="2.5" stroke-linecap="round" stroke-linejoin="round"/>
<path d="M90 55.3925V36.7634C90 31.6828 85.9169 27.543 80.9806 27.543H66.903C66.2327 27.543 65.5014 27.2294 65.0748 26.6649L58.8587 18.009C57.518 16.4409 55.5678 15.5 53.5568 15.5H38.4432C36.3712 15.5 34.482 16.4409 33.1413 18.009L26.9252 26.6649C26.4377 27.2294 25.7673 27.543 25.036 27.543H11.0194C6.02215 27.543 2 31.6828 2 36.7634V76.2169C2 81.2975 6.02215 85.5 11.0194 85.5H76.4709" stroke="#0C0C0C" stroke-width="2.5" stroke-linecap="round" stroke-linejoin="round"/>
<path d="M55.3842 23.431C54.7005 22.1896 53.644 21.5 52.5876 21.5H39.4124C38.2938 21.5 37.2994 22.1896 36.5537 23.431L35 27.5H57L55.3842 23.431Z" stroke="#0C0C0C" stroke-width="2.5" stroke-linecap="round" stroke-linejoin="round"/>
<path d="M78.9178 40.5H76.0822C74.4178 40.5 73 38.89 73 37C73 35.04 74.4178 33.5 76.0822 33.5H78.9178C80.5822 33.5 82 35.04 82 37C82 38.89 80.5822 40.5 78.9178 40.5Z" stroke="#0C0C0C" stroke-width="2.5" stroke-linecap="round" stroke-linejoin="round"/>
</svg>
