<svg xmlns="http://www.w3.org/2000/svg" width="104" height="101" fill="none"><path stroke="#0C0C0C" stroke-linecap="round" stroke-linejoin="round" stroke-width="2.5" d="M88.625 52.643v35.652c0 5.59-4.563 10.124-10.188 10.124H25.563c-5.625 0-10.188-4.534-10.188-10.124V52.643M93.938 46.929 53.375 14.382a2.262 2.262 0 0 0-2.75 0L10.063 46.93c-1.875 1.49-4.5 1.49-6.313 0-2.375-1.988-2.312-5.653.063-7.578l36.75-29.565 7.625-6.087a5.953 5.953 0 0 1 7.437 0l18.563 14.907c.5.434 1.25.062 1.25-.621V9.227c0-1.056.875-1.864 1.937-1.864h10.313c1.062 0 1.875.808 1.875 1.864v21.118c0 .248.125.497.312.621l10.313 8.385c2.375 1.925 2.437 5.59.062 7.516l-.062.062a4.927 4.927 0 0 1-6.25 0Z"/><path stroke="#C1121F" stroke-linecap="round" stroke-linejoin="round" stroke-width="2.5" d="M52.19 79.414 77.313 49.91c1.063-1.242 1.125-3.043.125-4.41-1.25-1.614-3.625-1.863-5.187-.558l-24 20.31a1.175 1.175 0 0 1-1.625 0l-11.625-7.33c-1.75-1.055-3.938-.806-5.375.622-1.625 1.553-1.688 4.162-.188 5.839l13.438 15.093c2.5 2.795 6.875 2.733 9.312-.062Z"/></svg>