<svg width="188" height="218" viewBox="0 0 188 218" fill="none" xmlns="http://www.w3.org/2000/svg">
<path d="M15.0685 92.4491C15.276 94.1192 15.7203 95.7515 16.3879 97.297C15.7583 95.7385 15.3154 94.1112 15.0685 92.4491ZM66.9538 115.68C68.0117 114.804 68.8 113.648 69.2277 112.345C69.5926 111.183 69.6696 109.912 68.6576 109.26C66.4991 107.868 60.7797 111.924 59.5051 114.204C58.2369 116.484 53.2798 122.571 55.1818 131.693C57.0904 140.82 64.2061 148.299 64.2061 148.299C64.2061 148.299 64.8341 148.945 65.782 149.998L68.5744 142.283C66.6786 140.156 65.1349 138.406 64.7187 137.907C63.489 136.432 56.1619 124.711 66.9538 115.68ZM47.5601 140.315C47.5601 140.315 40.4379 134.484 32.9444 130.932C27.6282 128.416 24.9959 124.437 25.4954 121.294C25.643 120.472 26.0164 119.708 26.5739 119.085C27.1314 118.463 27.8511 118.007 28.6531 117.768C30.7987 117.085 35.8841 114.715 35.3591 107.613L35.2627 105.364C34.1482 105.333 33.055 105.052 32.0647 104.541C31.0744 104.03 30.2126 103.303 29.5434 102.413C27.2567 99.3728 23.2537 97.8528 17.054 98.7086L13.8132 96.9011C13.8132 96.9011 13.5761 91.0886 14.8827 90.5266C14.8636 90.0923 14.8573 89.6516 14.8636 89.2044C14.8636 89.2044 12.0005 89.8367 12.4809 95.7002C12.4809 95.7002 11.3344 95.0615 10.3161 88.4761C10.3161 88.4761 5.35867 89.8687 6.76129 99.5007C7.19544 101.432 7.10933 103.444 6.51172 105.332C6.51172 105.332 4.47487 114.076 2.82239 119.148C1.1699 124.219 -2.19888 136.547 5.80715 159.931L9.93837 173.146C9.93837 173.146 11.9687 187.466 8.79191 190.257C8.79191 190.257 3.96267 190.82 5.74305 194.594C5.83017 194.782 5.94695 194.955 6.08891 195.105C5.95463 194.871 5.8758 194.609 5.85843 194.339C5.83614 194.072 5.86221 193.804 5.93536 193.547C6.00919 193.268 6.16003 193.016 6.37069 192.819C6.47214 192.713 6.59878 192.635 6.7388 192.591C6.87881 192.548 7.02761 192.54 7.17129 192.57C6.99787 192.725 6.85832 192.914 6.76129 193.125C6.67461 193.319 6.60401 193.52 6.5502 193.726C6.42836 194.196 6.27424 194.657 6.08891 195.105C6.53738 195.604 7.4981 196.242 9.30413 195.833L9.49614 195.814C9.20813 195.316 9.09541 194.736 9.1759 194.166C9.21612 193.873 9.31639 193.59 9.47053 193.336C9.54265 193.197 9.64965 193.08 9.78106 192.995C9.91246 192.91 10.0638 192.86 10.2202 192.851C10.07 193.055 9.96912 193.291 9.92525 193.541C9.88052 193.77 9.84206 194.007 9.81016 194.256C9.75828 194.785 9.65306 195.307 9.49614 195.814L10.5723 195.719C10.5126 195.328 10.5234 194.93 10.6042 194.543C10.6977 194.151 10.8844 193.788 11.1487 193.483C11.4128 193.172 11.7376 192.918 12.1031 192.736C12.4594 192.596 12.7955 192.409 13.1023 192.18C13.7177 191.737 14.2219 191.157 14.5753 190.487C14.8726 189.78 15.0854 189.041 15.2092 188.284C15.883 185.241 16.3178 182.151 16.5096 179.041C16.7657 175.931 16.8104 172.808 16.7785 169.684C16.7723 168.119 16.721 166.561 16.6503 164.996C16.5993 163.431 16.4967 161.872 16.3879 160.308C16.8553 163.41 17.1504 166.536 17.2717 169.671C17.4008 172.809 17.3602 175.952 17.15 179.086C16.9331 182.227 16.4445 185.342 15.6895 188.399C15.5281 189.184 15.2745 189.947 14.934 190.673C14.5301 191.38 13.9664 191.984 13.2877 192.436C12.9503 192.655 12.5867 192.831 12.2054 192.959C11.8561 193.105 11.5401 193.32 11.2768 193.592C11.0132 193.875 10.8139 194.212 10.6923 194.579C10.5707 194.946 10.5298 195.334 10.5723 195.719C10.5723 195.719 10.7899 196.453 12.0452 196.868C11.8335 196.308 11.8089 195.694 11.9749 195.118C12.061 194.814 12.2143 194.532 12.4233 194.294C12.5275 194.159 12.6743 194.061 12.8403 194.019C13.0063 193.976 13.1819 193.99 13.339 194.058C13.2215 194.103 13.1153 194.174 13.0279 194.264C12.9405 194.355 12.874 194.463 12.833 194.582C12.736 194.812 12.6569 195.049 12.5963 195.291C12.4603 195.832 12.2759 196.36 12.0452 196.868C13.0291 197.149 14.0602 197.225 15.0747 197.092C14.8638 196.867 14.7313 196.58 14.6969 196.274C14.6604 195.967 14.6887 195.656 14.7801 195.361C14.8732 195.073 15.0263 194.808 15.2295 194.584C15.4327 194.359 15.6812 194.18 15.9588 194.058C15.8691 194.352 15.7537 194.601 15.6577 194.844C15.5616 195.093 15.4656 195.323 15.3887 195.559C15.2286 196.057 15.1254 196.571 15.0813 197.092C15.9383 197.015 16.7883 196.874 17.6241 196.67C17.6241 196.67 20.4869 196.338 20.7752 190.162C21.295 187.312 22.1573 184.534 23.3434 181.89L25.3481 175.094C25.6236 173.095 26.0527 171.147 26.4817 169.199L27.1478 166.286C27.353 165.309 27.6091 164.351 27.7308 163.354C27.829 164.361 27.7989 165.376 27.641 166.376C27.5131 167.372 27.3145 168.355 27.1031 169.339C26.6743 171.301 26.0874 173.226 25.3481 175.094C25.3481 175.094 25.6364 180.466 31.0164 186.214C30.2895 183.097 29.8775 179.915 29.7867 176.716C29.6803 173.487 30.1598 170.265 31.2021 167.206C32.3065 164.124 34.3744 161.477 37.101 159.656C39.846 157.916 43.0702 157.08 46.3176 157.267C44.7243 157.301 43.1437 157.559 41.6228 158.034C40.1101 158.487 38.6775 159.172 37.3765 160.065C36.0878 160.959 34.9504 162.052 34.0074 163.303C33.0807 164.568 32.3389 165.957 31.8042 167.429C30.7623 170.414 30.2465 173.556 30.2799 176.717C30.264 178.303 30.328 179.889 30.4719 181.469C30.5554 182.261 30.6002 183.059 30.709 183.845L31.0164 186.214C31.0164 186.214 29.7355 188.642 25.5404 188.827C25.5404 188.827 22.9657 189.07 22.6773 192.302C22.6773 192.302 22.5366 194.135 26.7316 194.595C26.7316 194.595 31.1637 195.451 33.8345 193.93L36.3708 194.058H37.3124C36.6097 192.377 36.2024 190.588 36.1084 188.769C35.912 185.487 36.4601 182.202 37.712 179.16C38.9639 176.118 40.8874 173.397 43.3394 171.198C50.2693 164.907 57.5964 165.021 59.678 165.2C58.5828 156.558 55.4251 146.907 47.5601 140.315ZM10.4312 95.4767C10.4312 95.4767 10.0985 96.0451 10.5723 97.3801C10.5723 97.3801 6.47326 96.3326 10.0022 89.7729C10.0022 89.7729 10.5723 94.6207 12.2889 96.901C11.5898 96.5399 10.9608 96.0576 10.4312 95.4767ZM27.0647 105.741C23.2537 106.693 22.5813 103.365 22.5813 103.365C26.5843 103.084 27.0647 105.741 27.0647 105.741ZM12.7627 110.116C15.0411 109.568 17.3612 109.209 19.6991 109.043C20.8687 108.951 22.0423 108.919 23.2152 108.948C24.3974 108.934 25.5719 109.138 26.6803 109.548C26.1112 109.435 25.5313 109.386 24.9512 109.401C24.3745 109.394 23.7982 109.427 23.2152 109.446C22.0625 109.503 20.9032 109.593 19.7439 109.676C17.4256 109.848 15.1069 110.046 12.7627 110.116ZM14.8636 114.396C15.6497 113.685 16.5209 113.073 17.4575 112.575C18.3937 112.069 19.3759 111.652 20.3909 111.33C21.4056 111.006 22.4507 110.785 23.5101 110.672C24.5637 110.552 25.6278 110.556 26.6803 110.685C25.6302 110.825 24.5988 110.947 23.5868 111.164C22.5706 111.363 21.5675 111.623 20.5829 111.943C19.5946 112.25 18.6239 112.61 17.6751 113.023C16.7272 113.438 15.7859 113.878 14.8636 114.396ZM22.5366 114.345C21.0633 115.335 19.6222 116.37 18.1045 117.34C19.3113 116.002 20.6795 114.818 22.1779 113.815C23.6524 112.763 25.3092 111.992 27.0647 111.541C25.4826 112.403 24.0033 113.348 22.5366 114.345Z" fill="#020202"/>
<path d="M14.8867 90.5227C14.8867 90.5227 14.8867 90.5438 14.8893 90.5808C14.8867 90.5623 14.8867 90.5438 14.884 90.5253L14.8867 90.5227Z" fill="#FFFEFE"/>
<path d="M24.8242 103.571C25.0054 103.719 25.1469 103.91 25.2359 104.126C25.3141 104.301 25.3543 104.49 25.3537 104.681C25.3554 104.872 25.3157 105.061 25.2375 105.236C25.1483 105.452 25.0063 105.643 24.8242 105.791C24.6422 105.643 24.5002 105.452 24.4109 105.236C24.3328 105.061 24.2932 104.872 24.2949 104.681C24.2943 104.49 24.3345 104.301 24.4127 104.126C24.5017 103.91 24.6431 103.719 24.8242 103.571Z" fill="#020202"/>
<path d="M14.884 90.5253C14.9517 91.2224 15.046 91.9133 15.168 92.5979C15.2893 93.2826 15.4252 93.9647 15.6099 94.6345C15.7742 95.3095 15.9745 95.9752 16.2098 96.629C16.4286 97.2902 16.7101 97.9265 16.9809 98.574C16.2423 97.3735 15.6935 96.0667 15.3536 94.6997C14.995 93.3383 14.8371 91.9321 14.884 90.5253Z" fill="#020202"/>
<path d="M89.7839 102.59C90.2868 101.386 90.9906 100.276 91.8655 99.3065C92.7371 98.3046 93.8042 97.4901 95.0017 96.9127C95.608 96.6268 96.2471 96.4158 96.9047 96.2846C97.563 96.1663 98.2337 96.1318 98.9007 96.1818C100.211 96.3012 101.49 96.6512 102.678 97.2155C103.872 97.7295 104.996 98.3929 106.022 99.1897C107.068 99.9873 107.968 100.958 108.683 102.061C109.427 103.181 109.887 104.465 110.024 105.802C110.154 107.195 109.732 108.584 108.849 109.671L108.841 109.681C108.819 109.709 108.793 109.733 108.763 109.753C107.925 110.329 106.929 110.635 105.911 110.627C105.381 110.592 104.871 110.415 104.435 110.113C104.021 109.814 103.677 109.428 103.429 108.981C103.219 108.593 102.974 108.224 102.698 107.879C102.405 107.545 102.086 107.202 101.773 106.871C101.456 106.541 101.139 106.21 100.812 105.891C100.647 105.733 100.48 105.577 100.304 105.435C100.217 105.364 100.127 105.297 100.033 105.235C99.9467 105.18 99.8263 105.117 99.7677 105.152L99.7541 105.16C99.7456 105.165 99.7355 105.166 99.7259 105.164C99.7163 105.162 99.7079 105.156 99.7026 105.148C99.6973 105.139 99.6954 105.129 99.6974 105.12C99.6994 105.11 99.7051 105.102 99.7133 105.096C99.8612 104.996 99.9869 105.087 100.094 105.121C100.202 105.17 100.307 105.227 100.407 105.291C100.606 105.417 100.795 105.554 100.981 105.694C101.353 105.974 101.71 106.271 102.056 106.579C102.405 106.889 102.742 107.192 103.087 107.522C103.422 107.865 103.717 108.247 103.964 108.658C104.164 109.009 104.451 109.304 104.797 109.513C105.144 109.723 105.538 109.841 105.943 109.855C106.781 109.823 107.592 109.553 108.28 109.075L108.194 109.157C108.95 108.225 109.332 107.046 109.268 105.85C109.167 104.62 108.792 103.429 108.171 102.363C106.943 100.121 104.962 98.384 102.575 97.4572C101.402 96.9832 100.149 96.7407 98.8831 96.7432C97.6442 96.7622 96.4219 97.0314 95.2901 97.5344C93.0242 98.6723 91.1365 100.439 89.8545 102.623C89.852 102.627 89.8488 102.631 89.8448 102.634C89.8409 102.638 89.8363 102.64 89.8314 102.642C89.8265 102.643 89.8213 102.644 89.8162 102.643C89.8111 102.643 89.8061 102.641 89.8016 102.639C89.7935 102.634 89.7874 102.626 89.7842 102.617C89.781 102.608 89.7809 102.599 89.7839 102.59Z" fill="#020202"/>
<path d="M128.115 101.339C126.703 101.585 125.342 102.062 124.087 102.751C122.807 103.395 121.571 104.124 120.35 104.876C117.903 106.371 115.535 107.996 113.201 109.665C110.867 111.336 108.559 113.041 106.275 114.782C103.992 116.521 101.743 118.31 99.5061 120.101L99.5028 120.104C99.4521 120.145 99.3909 120.17 99.3262 120.178C99.2615 120.185 99.1961 120.174 99.1375 120.146C99.0788 120.118 99.0294 120.073 98.9949 120.018C98.9604 119.963 98.9423 119.9 98.9426 119.835L98.9742 111.967L99.0586 104.098L99.2258 104.318L97.1705 103.772C96.4859 103.586 95.7863 103.47 95.0944 103.316C94.4029 103.154 93.6964 103.092 92.9973 102.975C92.2959 102.878 91.5874 102.85 90.8821 102.797C89.471 102.736 88.0579 102.863 86.6801 103.172C86.3378 103.251 86.002 103.355 85.6753 103.484C85.346 103.603 85.0265 103.747 84.7195 103.916C84.1063 104.233 83.5826 104.699 83.1965 105.271L83.2082 105.231C82.9182 107.967 82.685 110.71 82.5087 113.459C82.3265 116.208 82.227 118.952 82.233 121.706C82.2194 127.21 82.3588 132.718 82.5094 138.221L82.5068 138.185C82.6167 138.715 82.8089 139.225 83.0764 139.696C83.2155 139.933 83.3724 140.16 83.5458 140.374L83.8081 140.692C83.9039 140.791 84.0092 140.88 84.1088 140.975C84.9464 141.712 85.9546 142.23 87.0427 142.482C89.3072 142.888 91.6337 142.792 93.8569 142.201C94.9801 141.947 96.1261 141.644 97.2688 141.342L100.707 140.502L107.598 138.931C112.191 137.894 116.795 136.922 121.334 135.703C122.474 135.415 123.593 135.063 124.724 134.745C125.836 134.376 126.967 134.052 128.059 133.627C130.28 132.894 132.39 131.858 134.327 130.549L134.332 130.545C134.367 130.521 134.409 130.51 134.451 130.517C134.492 130.523 134.529 130.546 134.554 130.58C134.575 130.608 134.585 130.641 134.585 130.676L134.464 138.09C134.463 138.1 134.459 138.11 134.452 138.117C134.445 138.124 134.435 138.128 134.425 138.128C134.414 138.128 134.405 138.124 134.397 138.117C134.39 138.11 134.386 138.1 134.386 138.09L134.265 130.676L134.522 130.802C132.588 132.182 130.466 133.277 128.22 134.055C127.124 134.503 125.995 134.848 124.88 135.239C123.75 135.579 122.628 135.953 121.49 136.261C116.949 137.547 112.365 138.658 107.772 139.697L100.894 141.287L97.4728 142.133C96.3396 142.434 95.2119 142.743 94.0368 143.003C91.6898 143.605 89.2382 143.682 86.858 143.227C85.6464 142.936 84.527 142.348 83.601 141.516C82.6648 140.658 82.0319 139.52 81.7968 138.274L81.7943 138.251L81.794 138.238C81.7363 135.481 81.7263 132.726 81.7158 129.97C81.7111 127.214 81.7233 124.457 81.7776 121.7C81.8168 118.944 81.969 116.182 82.1995 113.437C82.4166 110.689 82.6517 107.944 82.9655 105.203L82.9668 105.192C82.968 105.182 82.9717 105.172 82.9774 105.163C83.824 103.892 85.2446 103.3 86.6156 102.924C88.0158 102.596 89.4537 102.454 90.8913 102.503C92.3222 102.565 93.7477 102.717 95.1592 102.959C95.8601 103.099 96.5706 103.201 97.2646 103.373L99.3496 103.878C99.3968 103.89 99.4389 103.916 99.4691 103.954C99.4994 103.992 99.5162 104.039 99.5167 104.088V104.098L99.6013 111.967L99.6329 119.835L99.0693 119.568C101.302 117.748 103.59 116.005 105.887 114.272C108.19 112.548 110.508 110.841 112.884 109.214C115.259 107.588 117.667 106.007 120.158 104.555C121.408 103.837 122.678 103.152 123.988 102.547C125.281 101.894 126.674 101.459 128.11 101.262C128.12 101.261 128.13 101.264 128.138 101.27C128.146 101.277 128.151 101.286 128.152 101.296C128.153 101.306 128.15 101.316 128.144 101.324C128.138 101.332 128.129 101.337 128.119 101.339L128.115 101.339Z" fill="#020202"/>
<path d="M105.986 91.774L107.979 96.4768L109.916 101.201L109.693 101.03C111.456 101.152 113.227 101.003 114.945 100.59C116.653 100.197 118.245 99.411 119.593 98.2941C120.904 97.1426 121.856 95.6399 122.337 93.9647C122.817 92.2625 122.994 90.4897 122.861 88.7265L122.86 88.7112L122.861 88.6939C122.948 88.3164 123.137 87.9697 123.407 87.6912C123.678 87.4127 124.019 87.2129 124.394 87.1131C125.088 86.9154 125.811 86.8395 126.531 86.8886C127.943 86.9012 129.352 87.0225 130.745 87.2515C134.955 87.9281 138.928 89.6457 142.301 92.2474L143.919 93.6274C144.192 93.8545 144.446 94.102 144.681 94.3678L145.412 95.1396C146.384 96.1729 147.279 97.2757 148.09 98.439C148.512 99.0087 148.838 99.6408 149.216 100.239C149.57 100.852 149.976 101.438 150.286 102.074L151.201 103.988C151.526 104.617 151.813 105.264 152.061 105.926C152.532 107.256 153.039 108.582 153.478 109.915L156.048 117.911C156.913 120.573 157.832 123.217 158.778 125.85C159.257 127.164 159.757 128.471 160.292 129.762C160.559 130.408 160.833 131.051 161.139 131.678C161.408 132.314 161.77 132.907 162.212 133.438L162.231 133.457C162.238 133.464 162.241 133.473 162.241 133.482C162.241 133.491 162.238 133.5 162.231 133.507C162.225 133.514 162.216 133.518 162.207 133.518C162.197 133.519 162.188 133.515 162.181 133.509C161.688 132.995 161.278 132.407 160.969 131.766C160.626 131.151 160.316 130.52 160.013 129.886C159.4 128.619 158.869 127.319 158.333 126.021C157.269 123.422 156.306 120.785 155.375 118.139C154.43 115.496 153.569 112.827 152.71 110.157C152.265 108.831 151.763 107.541 151.293 106.232C151.053 105.581 150.778 104.943 150.469 104.322L149.596 102.431C149.3 101.803 148.909 101.227 148.571 100.622C148.208 100.032 147.897 99.4063 147.491 98.8449L146.264 97.1667C145.865 96.5996 145.424 96.0639 144.943 95.5643L144.248 94.7893C144.026 94.5227 143.784 94.2735 143.524 94.044L141.977 92.6495C140.899 91.7722 139.751 90.9838 138.544 90.292C136.121 88.8976 133.466 87.9478 130.706 87.4874C129.326 87.2654 127.929 87.1608 126.53 87.1747C125.845 87.1321 125.159 87.2153 124.504 87.4203C124.2 87.5101 123.926 87.6782 123.708 87.9077C123.49 88.1372 123.337 88.42 123.264 88.7274V88.695C123.467 90.5128 123.348 92.3522 122.911 94.1287C122.446 95.9404 121.448 97.5716 120.045 98.8119C118.619 100.007 116.919 100.832 115.096 101.213C113.306 101.629 111.46 101.75 109.63 101.571C109.581 101.566 109.534 101.547 109.494 101.516C109.455 101.486 109.425 101.445 109.407 101.399L107.632 96.6114L105.913 91.8022C105.91 91.7927 105.91 91.7822 105.915 91.773C105.919 91.7637 105.926 91.7565 105.936 91.7528C105.945 91.7491 105.956 91.7493 105.965 91.7533C105.975 91.7572 105.982 91.7647 105.986 91.774Z" fill="#020202"/>
<path d="M97.9538 90.1095C95.1707 91.0094 92.5018 92.2287 90.0007 93.7427C87.4949 95.2237 85.1766 96.9995 83.0954 99.0318C81.0127 101.049 79.2304 103.352 77.803 105.873C76.3803 108.416 74.9386 110.981 73.4455 113.492C71.9537 116.005 70.4107 118.491 69.1254 121.088C68.4674 122.366 67.9501 123.712 67.5825 125.101C67.2042 126.457 67.2343 127.894 67.6692 129.233C68.2121 130.547 69.0818 131.702 70.1963 132.589C71.2924 133.531 72.5032 134.332 73.8001 134.972C76.4272 136.254 79.2393 137.118 82.1342 137.532C80.671 137.402 79.2216 137.148 77.8019 136.771C76.3729 136.407 74.9784 135.92 73.6341 135.315C72.2857 134.693 71.0226 133.902 69.8753 132.961C69.3031 132.481 68.7688 131.957 68.2771 131.395C67.7843 130.812 67.3895 130.152 67.108 129.443C66.5876 127.998 66.5241 126.429 66.9264 124.948C67.294 123.506 67.8173 122.109 68.4871 120.78C69.7765 118.124 71.3013 115.62 72.7756 113.097C74.2919 110.593 75.7355 108.071 77.1881 105.524C78.654 102.951 80.5066 100.617 82.6813 98.6035C87.001 94.572 92.2443 91.6559 97.9538 90.1095Z" fill="#020202"/>
<path d="M71.5841 122.843C72.264 122.19 73.0233 121.626 73.8442 121.162C74.663 120.686 75.5279 120.293 76.4257 119.99C77.3346 119.696 78.2772 119.517 79.2311 119.458C80.1856 119.415 81.1389 119.566 82.0324 119.903C81.1164 119.872 80.1994 119.925 79.293 120.061C78.4045 120.226 77.528 120.448 76.669 120.728C75.8063 121.006 74.9624 121.348 74.1171 121.701C73.2749 122.064 72.4363 122.445 71.5841 122.843Z" fill="#020202"/>
<path d="M134.423 130.676C135.45 129.868 136.411 129.006 137.36 128.134C138.301 127.253 139.219 126.351 140.115 125.428C141.014 124.506 141.886 123.557 142.755 122.6C143.624 121.644 144.469 120.663 145.364 119.707C144.732 120.851 144.016 121.947 143.224 122.986C142.435 124.03 141.584 125.026 140.675 125.968C139.76 126.907 138.784 127.785 137.752 128.594C136.729 129.416 135.611 130.115 134.423 130.676Z" fill="#020202"/>
<path d="M131.058 100.041C132.465 99.7365 133.917 99.6854 135.343 99.8903C136.79 100.085 138.189 100.547 139.466 101.252C140.103 101.614 140.705 102.033 141.266 102.503C141.806 102.995 142.294 103.54 142.723 104.131C142.95 104.413 143.152 104.715 143.328 105.031L143.823 105.993C143.977 106.317 144.104 106.653 144.202 106.998C144.318 107.336 144.424 107.675 144.523 108.014C143.914 106.756 143.149 105.578 142.247 104.509C141.801 103.989 141.313 103.506 140.789 103.064C140.253 102.64 139.684 102.26 139.085 101.93C137.881 101.262 136.584 100.775 135.236 100.485C133.864 100.186 132.462 100.037 131.058 100.041Z" fill="#020202"/>
<path d="M87.2498 167.731L83.2646 173.788C81.9369 175.808 80.5963 177.818 79.2428 179.82C79.2116 179.866 79.1688 179.904 79.1187 179.929C79.0686 179.954 79.0129 179.966 78.9569 179.963C78.9009 179.96 78.8465 179.943 78.7991 179.914C78.7517 179.884 78.7128 179.842 78.6862 179.793L78.6748 179.771C77.7111 178.052 76.5221 176.468 75.1391 175.062C73.7585 173.641 72.2624 172.337 70.6661 171.162C69.8439 170.608 69.0463 170.017 68.1819 169.527C67.7539 169.277 67.3397 169.003 66.9009 168.771L65.5821 168.081C65.1477 167.841 64.6969 167.633 64.2412 167.435L62.8826 166.825C61.9647 166.446 61.0266 166.115 60.1003 165.757L60.0892 165.753C59.9637 165.705 59.862 165.609 59.8056 165.487C59.7492 165.365 59.7423 165.226 59.7866 165.1C60.7048 162.48 61.6801 159.881 62.6277 157.273C63.5796 154.665 64.5305 152.058 65.5162 149.462L71.3716 133.87C71.393 133.813 71.4362 133.767 71.4917 133.742C71.5473 133.717 71.6106 133.715 71.6677 133.736C71.6805 133.741 71.6929 133.747 71.7048 133.754C73.3063 134.698 74.9887 135.499 76.732 136.147C78.4631 136.821 80.2875 137.227 82.1417 137.351C82.1877 137.353 82.2312 137.372 82.2633 137.405C82.2955 137.438 82.3138 137.482 82.3145 137.527L82.3148 137.541C82.3477 138.173 82.5251 138.789 82.8333 139.342C83.1434 139.908 83.539 140.423 84.0062 140.868C84.4751 141.319 84.9902 141.719 85.543 142.062L86.3959 142.545L87.2851 142.964L87.2892 142.966C87.3258 142.983 87.3567 143.01 87.3786 143.044C87.4004 143.078 87.4123 143.117 87.4127 143.158L87.7154 173.334L87.7903 188.423C87.8257 193.452 87.8219 198.482 87.8068 203.511V203.514C87.8061 203.615 87.7805 203.713 87.7323 203.801C87.4189 204.344 86.9728 204.799 86.4357 205.123C85.9439 205.429 85.4116 205.663 84.8544 205.821C83.7994 206.118 82.7128 206.29 81.6174 206.332C79.4894 206.418 77.358 206.327 75.2451 206.06C71.0681 205.515 66.9248 204.738 62.8348 203.732C58.7449 202.769 54.7017 201.636 50.6833 200.433C46.663 199.235 42.6768 197.934 38.7248 196.528L38.7212 196.527C38.7026 196.52 38.6863 196.509 38.674 196.493C38.0911 195.76 37.6151 194.948 37.26 194.081C37.2541 194.067 37.254 194.051 37.2597 194.037C37.2654 194.023 37.2765 194.012 37.2905 194.005C37.3046 193.999 37.3205 193.999 37.3348 194.004C37.3491 194.01 37.3607 194.021 37.367 194.035C37.749 194.872 38.2476 195.651 38.848 196.349L38.7974 196.314C42.7965 197.556 46.8287 198.693 50.8649 199.8C54.9054 200.893 58.9663 201.895 63.0476 202.806C67.1136 203.735 71.2283 204.437 75.3727 204.909C77.4212 205.154 79.4861 205.234 81.5475 205.148C82.5479 205.107 83.5401 204.948 84.5033 204.676C85.3836 204.481 86.1573 203.961 86.669 203.221L86.5946 203.511C86.5794 198.482 86.5757 193.452 86.611 188.423L86.6861 173.334L86.9888 143.158L87.1161 143.351L86.2038 142.913L85.3255 142.407C84.7509 142.044 84.2162 141.621 83.7302 141.147C83.2386 140.67 82.8236 140.12 82.4998 139.517C82.1634 138.903 81.9765 138.219 81.9542 137.52L82.127 137.71C81.1807 137.649 80.2405 137.517 79.3143 137.314C78.3942 137.1 77.487 136.834 76.5969 136.518C74.8196 135.879 73.1028 135.083 71.4668 134.141L71.7998 134.024L66.3404 149.758C65.4402 152.384 64.5051 154.998 63.5712 157.611C62.6326 160.223 61.7218 162.846 60.7542 165.447L60.4405 164.789C61.385 165.164 62.3399 165.513 63.2746 165.909L64.6591 166.548C65.1229 166.755 65.582 166.972 66.025 167.223L67.3685 167.944C67.8153 168.186 68.2381 168.471 68.6739 168.732C69.5536 169.243 70.3675 169.857 71.2039 170.434C72.8379 171.649 74.353 173.016 75.729 174.516C77.1284 176.01 78.3196 177.686 79.2703 179.498L78.7025 179.449C80.0961 177.475 81.4984 175.507 82.9096 173.545L87.1534 167.665C87.1624 167.653 87.1758 167.644 87.1909 167.642C87.2059 167.639 87.2214 167.642 87.234 167.651C87.2466 167.66 87.2553 167.673 87.2582 167.688C87.2612 167.703 87.2582 167.718 87.2498 167.731Z" fill="#020202"/>
<path d="M72.7993 182.619C73.9667 182.131 75.185 181.774 76.4316 181.555C77.682 181.315 78.9545 181.207 80.2277 181.234C81.5139 181.25 82.7899 181.463 84.011 181.866C85.2323 182.271 86.3299 182.979 87.2002 183.925C86.1722 183.244 85.0348 182.744 83.8375 182.447C83.5379 182.387 83.2405 182.324 82.9452 182.254L82.038 182.134C81.7379 182.082 81.4305 182.073 81.1259 182.05C80.821 182.027 80.5164 182.003 80.2086 182.01C78.9758 181.981 77.7423 182.029 76.5154 182.154C75.2813 182.272 74.0454 182.427 72.7993 182.619Z" fill="#020202"/>
<path d="M61.6311 165.774C59.7432 170.059 57.646 174.236 55.4975 178.386C53.3281 182.525 51.1063 186.637 48.673 190.639C50.5591 186.353 52.6565 182.177 54.8066 178.028C56.9774 173.889 59.1995 169.778 61.6311 165.774Z" fill="#020202"/>
<path d="M64.4764 194.742C66.3137 191.55 68.342 188.489 70.4226 185.464C72.5222 182.452 74.6678 179.472 77.0108 176.628C75.1752 179.821 73.145 182.881 71.0634 185.905C68.9624 188.916 66.8183 191.897 64.4764 194.742Z" fill="#020202"/>
<path d="M58.7738 210.831C61.4124 210.678 64.0447 210.486 66.6773 210.282C66.4482 211.374 65.9282 212.385 65.1721 213.207C65.1721 213.207 22.0678 217.404 15.6179 214.044C15.6179 214.044 13.37 208.589 17.4371 206.635C18.7884 205.983 21.8051 204.789 25.5198 203.224C26.6396 203.408 27.7297 203.741 28.7606 204.214C29.7849 204.681 30.7345 205.297 31.5787 206.041C31.9956 206.413 32.3832 206.816 32.738 207.248C33.076 207.689 33.378 208.157 33.6411 208.647C34.1604 209.629 34.5336 210.681 34.7492 211.77L34.7557 211.776C34.7693 211.838 34.8043 211.893 34.8547 211.932C34.9051 211.971 34.9675 211.99 35.031 211.987L42.9472 211.668L50.8638 211.285C53.5024 211.163 56.135 210.991 58.7738 210.831Z" fill="#020202"/>
<path d="M64.4746 194.742C51.5239 201.129 48.6736 190.641 48.6736 190.641C46.6807 192.349 44.5274 193.861 42.2435 195.157C42.769 195.18 43.2838 195.313 43.7549 195.546C44.2554 195.786 44.7122 196.108 45.1062 196.498C45.4972 196.886 45.8217 197.334 46.067 197.827C46.3128 198.314 46.4669 198.842 46.5217 199.385C46.208 198.938 45.9516 198.491 45.6379 198.088C45.3421 197.682 45.0121 197.302 44.6516 196.952C44.2994 196.594 43.9156 196.269 43.5051 195.981C43.0925 195.684 42.6603 195.415 42.2113 195.176C41.1737 195.789 40.0998 196.39 38.9898 196.977C39.4869 197.008 39.9727 197.138 40.4181 197.36C41.4221 197.84 42.2344 198.643 42.7239 199.641C42.9724 200.127 43.1267 200.656 43.1787 201.199C42.8712 200.746 42.6085 200.305 42.3011 199.903C42.0033 199.496 41.6735 199.114 41.3148 198.759C40.9587 198.404 40.5731 198.079 40.162 197.788C39.7631 197.499 39.3434 197.238 38.9064 197.009C37.7731 197.61 36.6137 198.197 35.4479 198.766C35.9952 198.78 36.5329 198.913 37.0235 199.155C38.0298 199.637 38.8443 200.442 39.3358 201.442C39.5813 201.927 39.7355 202.453 39.7906 202.994C39.4831 202.547 39.2204 202.1 38.9065 201.697C38.6129 201.291 38.2851 200.911 37.9267 200.561C37.5723 200.203 37.1865 199.878 36.7739 199.59C36.3524 199.283 35.9092 199.008 35.4479 198.766C32.0212 200.433 28.5364 201.953 25.5198 203.224C26.6611 203.33 27.7816 203.601 28.8445 204.029C29.9182 204.451 30.9172 205.042 31.8036 205.779C32.2505 206.149 32.666 206.555 33.0461 206.993C33.4145 207.443 33.7466 207.921 34.039 208.423C34.5827 209.361 34.982 210.375 35.2237 211.432L42.9226 211.042L50.8389 210.716C53.4774 210.595 56.1163 210.525 58.7551 210.448C61.394 210.365 64.0384 210.32 66.6773 210.282C68.1244 204.405 64.4746 194.742 64.4746 194.742ZM58.4922 206.36C56.0138 206.36 56.0201 202.528 58.4922 202.528C60.971 202.528 60.9647 206.36 58.4922 206.36Z" fill="#020202"/>
<path d="M38.9777 196.977C38.9521 196.99 38.9321 196.996 38.9064 197.009C38.8811 196.996 38.8623 196.984 38.8366 196.971C38.8837 196.97 38.9309 196.972 38.9777 196.977Z" fill="#FFFEFE"/>
<path d="M42.2452 195.156C42.2324 195.163 42.2258 195.169 42.213 195.176C42.2002 195.169 42.1939 195.163 42.1811 195.156H42.2452Z" fill="#FFFEFE"/>
<path d="M87.2003 143.159C87.2003 143.159 82.1507 145.504 103.471 147.742L174.914 136.365L163.693 132.075L87.2003 143.159Z" fill="#020202"/>
<path d="M87.259 143.159C87.3749 148.639 87.4762 154.118 87.5266 159.598C87.5862 165.078 87.6553 170.558 87.6648 176.038C87.6803 181.518 87.733 186.998 87.7177 192.477C87.6992 197.957 87.6895 203.437 87.6107 208.917L87.3405 208.533L98.8876 212.862C102.732 214.318 106.601 215.706 110.456 217.131L110.352 217.124C113.537 216.478 116.711 215.783 119.889 215.103L129.416 213.036L148.456 208.837C154.802 207.435 161.149 206.036 167.504 204.68C173.86 203.321 180.206 201.92 186.569 200.597L186.085 201.258C185.528 195.787 184.906 190.32 184.219 184.855C183.537 179.393 182.853 173.931 182.05 168.487C181.242 163.045 180.401 157.605 179.35 152.206C178.818 149.508 178.25 146.817 177.579 144.151C176.969 141.472 176.058 138.87 174.864 136.394L174.862 136.391C174.855 136.377 174.853 136.361 174.858 136.347C174.862 136.332 174.872 136.32 174.886 136.312C174.899 136.305 174.915 136.303 174.93 136.308C174.945 136.312 174.957 136.322 174.965 136.335C176.253 138.785 177.259 141.371 177.965 144.046C178.741 146.697 179.382 149.383 179.973 152.077C181.157 157.467 182.139 162.896 183.008 168.341C183.877 173.786 184.686 179.24 185.387 184.708C186.085 190.177 186.725 195.653 187.308 201.136C187.324 201.285 187.284 201.434 187.196 201.556C187.108 201.677 186.978 201.762 186.831 201.795L186.824 201.796C180.469 203.159 174.098 204.443 167.736 205.77C161.374 207.099 155.004 208.386 148.632 209.67L129.52 213.527L119.971 215.488C116.789 216.151 113.605 216.799 110.431 217.496C110.396 217.503 110.36 217.501 110.326 217.489C106.451 216.117 102.59 214.707 98.7042 213.366L87.0608 209.301C86.9828 209.274 86.9152 209.224 86.8669 209.157C86.8185 209.091 86.7919 209.011 86.7905 208.928L86.7904 208.917C86.7116 203.437 86.7019 197.957 86.6833 192.478C86.6681 186.998 86.7208 181.518 86.7363 176.038C86.7458 170.558 86.8149 165.078 86.8745 159.598C86.9249 154.118 87.0262 148.639 87.1421 143.159C87.1424 143.144 87.1487 143.129 87.1597 143.118C87.1706 143.108 87.1853 143.102 87.2005 143.102C87.2158 143.102 87.2305 143.108 87.2414 143.118C87.2523 143.129 87.2587 143.144 87.259 143.159Z" fill="#020202"/>
<path d="M103.473 147.742C103.8 150.549 104.077 153.36 104.381 156.168L105.208 164.6C105.747 170.224 106.232 175.843 106.732 181.481C107.136 187.12 107.461 192.762 107.709 198.406L108.024 206.875C108.092 209.699 108.179 212.522 108.205 215.348L107.111 198.437C106.744 192.802 106.42 187.164 105.956 181.54L104.613 164.652L104.002 156.199C103.827 153.38 103.625 150.562 103.473 147.742Z" fill="#020202"/>
<path d="M89.4489 207.43C90.2269 207.453 90.9959 207.259 91.6688 206.869C92.3241 206.475 92.863 205.915 93.2306 205.246C93.9245 203.867 94.2587 202.336 94.2023 200.795C94.3286 197.643 94.4129 194.491 94.596 191.341L95.219 181.897C95.4047 178.748 95.5403 175.598 95.6257 172.445C95.6269 172.4 95.6455 172.357 95.6775 172.325C95.7096 172.293 95.7527 172.274 95.798 172.273C95.8432 172.272 95.8872 172.289 95.9208 172.319C95.9544 172.349 95.975 172.391 95.9785 172.436L96.7226 182.869L97.7769 198.499C97.835 199.366 97.8983 200.233 97.9757 201.096C98.0145 201.527 98.0558 201.959 98.1118 202.381C98.1365 202.589 98.1729 202.81 98.2111 202.979L98.2358 203.076L98.311 203.234C98.3637 203.341 98.4043 203.443 98.4478 203.546C98.7557 204.351 99.1064 205.14 99.4983 205.908C99.9004 206.666 100.37 207.387 100.903 208.061C101.985 209.417 103.232 210.634 104.615 211.683C104.619 211.686 104.623 211.69 104.625 211.694C104.628 211.699 104.63 211.703 104.63 211.708C104.631 211.713 104.631 211.719 104.629 211.724C104.628 211.729 104.626 211.733 104.623 211.737C104.617 211.745 104.608 211.75 104.598 211.752C104.588 211.754 104.578 211.751 104.57 211.746C103.094 210.787 101.755 209.634 100.589 208.317C99.4386 206.97 98.5217 205.441 97.8758 203.794C97.8321 203.697 97.7891 203.598 97.7423 203.511L97.6738 203.376L97.5963 203.163C97.5375 202.937 97.4915 202.708 97.4583 202.477C97.3872 202.037 97.3336 201.604 97.2818 201.168C97.1788 200.299 97.0906 199.431 97.0074 198.562C96.8527 196.824 96.715 195.086 96.5941 193.347C96.3522 189.87 96.1921 186.389 96.0145 182.909C95.8467 179.429 95.7374 175.946 95.6257 172.463L95.9791 172.463C95.7744 175.609 95.6199 178.758 95.5155 181.91L95.268 191.364C95.1608 194.514 94.9551 197.661 94.7914 200.81C94.7909 202.436 94.3706 204.035 93.5709 205.452C93.1515 206.153 92.5392 206.719 91.8067 207.084C91.0742 207.448 90.2522 207.595 89.4384 207.507C89.4286 207.506 89.4196 207.501 89.4134 207.493C89.4072 207.485 89.4042 207.475 89.4051 207.465C89.4059 207.456 89.4104 207.446 89.4178 207.44C89.4252 207.433 89.4349 207.43 89.4448 207.43L89.4489 207.43Z" fill="#020202"/>
<path d="M124.013 144.47C124.013 144.47 135.893 141.759 136.134 168.104C136.161 171.017 136.268 174.983 136.948 177.816C138.346 183.635 141.292 190.314 145.035 184.655C146.291 182.712 146.935 180.438 146.883 178.127C146.845 175.021 146.096 170.385 142.559 166.765C136.7 160.771 138.211 158.932 138.772 155.575C139.333 152.218 140.709 149.956 136.948 146.482L133.187 143.009L139.894 141.941C143.588 143.042 146.674 147.555 146.486 151.658C146.456 152.322 146.406 153.001 146.344 153.672C145.953 157.841 147.017 162.016 149.356 165.493C151.826 169.156 154.528 174.368 154.528 179.635C154.528 189.333 143.868 202.576 134.424 192.084C124.979 181.593 128.532 179.635 128.906 164.341C129.28 149.047 113.764 146.102 113.764 146.102L124.013 144.47Z" fill="#020202"/>
<path d="M98.4794 60.544C97.0575 63.4748 96.0072 66.5709 95.3528 69.7606C95.2304 70.5607 95.17 71.3689 95.1722 72.1782C95.1377 73.0054 95.0758 73.8322 94.9672 74.6548C94.8917 75.4942 94.65 76.3103 94.2562 77.056C94.0145 77.3979 93.737 77.7131 93.4282 77.9963C93.1781 78.268 93.0311 78.6184 93.0126 78.9868C93.0139 79.1499 93.0644 79.3089 93.1574 79.443C93.2505 79.5772 93.3818 79.6803 93.5344 79.739C93.6766 79.81 93.906 79.885 94.0949 79.972C94.3342 80.0644 94.5464 80.2155 94.7117 80.4113C94.8539 80.6262 94.942 80.8722 94.9685 81.1283C95.0037 81.3457 95.0254 81.5487 95.0511 81.7536C95.1019 82.1603 95.1425 82.565 95.2026 82.9653C95.4021 84.5573 95.8163 86.1151 96.4338 87.5966C97.0319 89.0406 98.1108 90.3189 99.7028 90.3799C101.337 90.5298 102.973 90.6935 104.617 90.9103L104.622 90.9109C104.631 90.9122 104.64 90.917 104.646 90.9245C104.653 90.932 104.656 90.9416 104.655 90.9514C104.655 90.9611 104.651 90.9703 104.644 90.9771C104.637 90.9839 104.627 90.9878 104.617 90.9881C102.971 91.0275 101.317 91.0138 99.6615 90.9862C99.4433 90.9845 99.2257 90.9625 99.0115 90.9204L98.6749 90.8661C98.5657 90.8347 98.4586 90.7963 98.3543 90.7514C97.927 90.5959 97.5323 90.3628 97.1901 90.064C96.5378 89.4735 96.0216 88.7488 95.6773 87.9401C95.0203 86.3855 94.6145 84.737 94.4751 83.0557C94.4293 82.6414 94.3931 82.2284 94.3664 81.8168C94.3755 81.4618 94.3224 81.1079 94.2096 80.7711C94.1096 80.6504 93.9819 80.5555 93.8374 80.4944C93.6595 80.3946 93.4986 80.3319 93.2795 80.2045C93.0617 80.0824 92.8788 79.9069 92.7482 79.6945C92.6223 79.4756 92.5658 79.2238 92.5862 78.9723C92.6361 78.5142 92.8468 78.0885 93.181 77.7703C93.3374 77.6058 93.5155 77.489 93.6507 77.3582C93.7915 77.2223 93.917 77.0716 94.0252 76.9088C94.4288 76.2107 94.6653 75.4291 94.7162 74.6249C94.7872 73.812 94.7946 72.995 94.7384 72.181C94.6586 71.3491 94.6489 70.512 94.7095 69.6785C94.9248 68.0192 95.3786 66.3995 96.0568 64.8693C96.7026 63.344 97.491 61.8829 98.4118 60.5052C98.4147 60.5009 98.4184 60.4973 98.4227 60.4945C98.427 60.4917 98.4318 60.4897 98.4368 60.4888C98.4418 60.4878 98.447 60.4879 98.452 60.4889C98.4571 60.49 98.4618 60.492 98.4661 60.4949C98.4736 60.5003 98.4791 60.5081 98.4815 60.5171C98.484 60.526 98.4832 60.5355 98.4794 60.544Z" fill="#020202"/>
<path d="M92.8702 71.6194C93.3488 72.7627 93.7483 73.934 94.1902 75.0904C94.5799 76.2653 95.0114 77.4253 95.3636 78.6134C95.3674 78.6263 95.3673 78.64 95.3634 78.6528C95.3594 78.6656 95.3517 78.677 95.3412 78.6854C95.3308 78.6939 95.3181 78.6991 95.3047 78.7003C95.2913 78.7015 95.2778 78.6987 95.266 78.6923L95.2167 78.6655C94.5883 78.3174 94.0413 77.84 93.6119 77.265C93.2316 76.7627 92.9315 76.2047 92.7222 75.6109C92.5114 75.0176 92.3922 74.3957 92.3686 73.7666C92.3384 73.0512 92.4592 72.3374 92.7233 71.6714L92.7442 71.62C92.7493 71.6075 92.758 71.5968 92.7691 71.5893C92.7803 71.5817 92.7935 71.5776 92.807 71.5776C92.8205 71.5775 92.8337 71.5814 92.8449 71.5889C92.8561 71.5963 92.865 71.6069 92.8702 71.6194Z" fill="#020202"/>
<path d="M111.351 75.9315C111.343 75.9315 111.335 75.9309 111.327 75.9297C111.301 75.9266 111.277 75.9185 111.255 75.906C111.232 75.8934 111.213 75.8766 111.197 75.8565C111.181 75.8364 111.17 75.8134 111.163 75.7888C111.156 75.7642 111.154 75.7385 111.157 75.7132C111.168 75.5967 111.153 75.4792 111.114 75.369C111.074 75.2587 111.012 75.1582 110.93 75.0745C108.692 72.4547 92.948 71.8453 92.7892 71.8391C92.7375 71.8371 92.6887 71.8148 92.6535 71.7771C92.6183 71.7393 92.5996 71.6891 92.6015 71.6376C92.5999 71.6113 92.6041 71.5851 92.6139 71.5607C92.6237 71.5363 92.6388 71.5144 92.6581 71.4965C92.6775 71.4787 92.7006 71.4653 92.7257 71.4575C92.7508 71.4496 92.7774 71.4474 92.8035 71.4511C93.4587 71.4748 108.879 72.0742 111.226 74.8225C111.344 74.947 111.433 75.0952 111.488 75.2571C111.542 75.419 111.562 75.5907 111.544 75.7606C111.538 75.8077 111.515 75.851 111.48 75.8825C111.444 75.9139 111.398 75.9314 111.351 75.9315Z" fill="#020202"/>
<path d="M110.139 81.9339C114.207 86.62 123.062 88.7111 123.062 88.7111C127.059 86.8926 127.129 70.876 125.797 61.7137C124.464 52.5514 113.243 54.7895 110.334 55.8386C107.426 56.8877 98.7058 57.8669 98.7058 57.8669C98.7058 57.8669 100.759 75.3523 105.107 76.2615C105.107 76.2615 108.908 72.3239 110.19 75.4118C110.395 75.929 110.479 76.4857 110.436 77.0401L110.139 81.9339Z" fill="#020202"/>
<path d="M108.227 84.1972C107.563 84.1612 106.92 83.9552 106.36 83.599C106.315 83.5734 106.283 83.531 106.269 83.4813C106.256 83.4316 106.263 83.3786 106.288 83.3339C106.314 83.2892 106.356 83.2566 106.406 83.2431C106.456 83.2297 106.509 83.2365 106.554 83.2622C107.534 83.8211 108.328 83.9508 108.915 83.6502C109.827 83.1798 109.969 81.8051 109.97 81.7914C109.972 81.7658 109.979 81.7409 109.991 81.7181C110.003 81.6953 110.019 81.6752 110.039 81.6589C110.059 81.6426 110.082 81.6304 110.107 81.6232C110.131 81.6159 110.157 81.6137 110.183 81.6167C110.208 81.6191 110.233 81.6265 110.256 81.6385C110.278 81.6505 110.298 81.6668 110.315 81.6865C110.331 81.7062 110.343 81.7289 110.351 81.7533C110.358 81.7777 110.361 81.8033 110.358 81.8288C110.352 81.8936 110.192 83.4287 109.094 83.9951C108.826 84.1314 108.528 84.2008 108.227 84.1972Z" fill="#020202"/>
<path d="M94.9803 84.0021C95.1217 84.3861 95.3805 84.716 95.7201 84.9452C95.886 85.0375 96.0688 85.0953 96.2577 85.1152C96.4465 85.1351 96.6375 85.1167 96.8191 85.0611C97.6112 84.7999 98.3689 84.4443 99.0756 84.0021C98.5113 84.6863 97.7551 85.187 96.9038 85.4402C96.6736 85.5061 96.4311 85.518 96.1955 85.4749C95.9599 85.4319 95.7375 85.3351 95.5456 85.1921C95.3715 85.0456 95.2309 84.8636 95.1334 84.6583C95.0359 84.453 94.9837 84.2293 94.9803 84.0021Z" fill="#020202"/>
<path d="M96.1769 76.0752C96.4798 76.0647 96.7669 75.9373 96.9774 75.7198C97.188 75.5023 97.3057 75.2118 97.3057 74.9095C97.3057 74.6072 97.188 74.3167 96.9774 74.0993C96.7669 73.8818 96.4798 73.7544 96.1769 73.7439C95.8739 73.7544 95.5869 73.8818 95.3763 74.0993C95.1658 74.3167 95.0481 74.6072 95.0481 74.9095C95.0481 75.2118 95.1658 75.5023 95.3763 75.7198C95.5869 75.9373 95.8739 76.0647 96.1769 76.0752Z" fill="#020202"/>
<path d="M52.7884 191.711C53.0914 191.701 53.3784 191.573 53.589 191.356C53.7996 191.138 53.9172 190.848 53.9172 190.546C53.9172 190.243 53.7996 189.953 53.589 189.735C53.3784 189.518 53.0914 189.39 52.7884 189.38C52.4855 189.39 52.1985 189.518 51.9879 189.735C51.7773 189.953 51.6596 190.243 51.6596 190.546C51.6596 190.848 51.7773 191.138 51.9879 191.356C52.1985 191.573 52.4855 191.701 52.7884 191.711Z" fill="#020202"/>
<path d="M63.8693 186.956C64.1723 186.945 64.4593 186.818 64.6699 186.6C64.8804 186.383 64.9981 186.092 64.9981 185.79C64.9981 185.488 64.8804 185.197 64.6699 184.98C64.4593 184.762 64.1723 184.635 63.8693 184.624C63.5664 184.635 63.2793 184.762 63.0688 184.98C62.8582 185.197 62.7405 185.488 62.7405 185.79C62.7405 186.092 62.8582 186.383 63.0688 186.6C63.2793 186.818 63.5664 186.945 63.8693 186.956Z" fill="#020202"/>
<path d="M59.5218 195.629C59.8247 195.618 60.1118 195.491 60.3223 195.273C60.5329 195.056 60.6506 194.765 60.6506 194.463C60.6506 194.161 60.5329 193.87 60.3223 193.653C60.1118 193.435 59.8247 193.308 59.5218 193.297C59.2188 193.308 58.9318 193.435 58.7213 193.653C58.5107 193.87 58.393 194.161 58.393 194.463C58.393 194.765 58.5107 195.056 58.7213 195.273C58.9318 195.491 59.2188 195.618 59.5218 195.629Z" fill="#020202"/>
<path d="M57.4178 180.661C57.7207 180.65 58.0077 180.523 58.2183 180.305C58.4289 180.088 58.5466 179.797 58.5466 179.495C58.5466 179.193 58.4289 178.902 58.2183 178.685C58.0077 178.467 57.7207 178.34 57.4178 178.329C57.1148 178.34 56.8278 178.467 56.6172 178.685C56.4066 178.902 56.289 179.193 56.289 179.495C56.289 179.797 56.4066 180.088 56.6172 180.305C56.8278 180.523 57.1148 180.65 57.4178 180.661Z" fill="#020202"/>
<path d="M69.9 178.003C70.203 177.993 70.49 177.865 70.7006 177.648C70.9112 177.43 71.0289 177.14 71.0289 176.838C71.0289 176.535 70.9112 176.245 70.7006 176.027C70.49 175.81 70.203 175.682 69.9 175.672C69.5971 175.682 69.3101 175.81 69.0995 176.027C68.8889 176.245 68.7712 176.535 68.7712 176.838C68.7712 177.14 68.8889 177.43 69.0995 177.648C69.3101 177.865 69.5971 177.993 69.9 178.003Z" fill="#020202"/>
<path d="M62.608 171.708C62.9109 171.698 63.1979 171.57 63.4085 171.353C63.6191 171.135 63.7368 170.845 63.7368 170.543C63.7368 170.24 63.6191 169.95 63.4085 169.732C63.1979 169.515 62.9109 169.388 62.608 169.377C62.305 169.388 62.018 169.515 61.8074 169.732C61.5968 169.95 61.4791 170.24 61.4791 170.543C61.4791 170.845 61.5968 171.135 61.8074 171.353C62.018 171.57 62.305 171.698 62.608 171.708Z" fill="#020202"/>
<path d="M63.1689 179.681C63.4718 179.671 63.7589 179.543 63.9694 179.326C64.18 179.108 64.2977 178.818 64.2977 178.515C64.2977 178.213 64.18 177.923 63.9694 177.705C63.7589 177.488 63.4718 177.36 63.1689 177.35C62.8659 177.36 62.5789 177.488 62.3683 177.705C62.1578 177.923 62.0401 178.213 62.0401 178.515C62.0401 178.818 62.1578 179.108 62.3683 179.326C62.5789 179.543 62.8659 179.671 63.1689 179.681Z" fill="#020202"/>
<path d="M57.6972 187.655C58.0001 187.644 58.2872 187.517 58.4977 187.299C58.7083 187.082 58.826 186.792 58.826 186.489C58.826 186.187 58.7083 185.896 58.4977 185.679C58.2872 185.461 58.0001 185.334 57.6972 185.324C57.3942 185.334 57.1072 185.461 56.8966 185.679C56.6861 185.896 56.5684 186.187 56.5684 186.489C56.5684 186.792 56.6861 187.082 56.8966 187.299C57.1072 187.517 57.3942 187.644 57.6972 187.655Z" fill="#020202"/>
<path d="M68.1038 189.497L66.8181 191.358C66.5718 191.253 66.3688 191.067 66.2422 190.832C66.1156 190.597 66.0731 190.325 66.1215 190.063C66.17 189.8 66.3067 189.562 66.509 189.387C66.7113 189.212 66.9673 189.111 67.2349 189.1C67.4008 189.093 67.566 189.126 67.717 189.195C67.868 189.263 68.0005 189.367 68.1038 189.497Z" fill="#020202"/>
<path d="M72.3715 183.334L71.0584 185.23C70.8985 185.066 70.7897 184.86 70.7453 184.635C70.7008 184.411 70.7226 184.178 70.808 183.966C70.8934 183.754 71.0388 183.571 71.2264 183.439C71.414 183.308 71.6358 183.233 71.865 183.225C72.04 183.222 72.2133 183.259 72.3715 183.334Z" fill="#020202"/>
<path d="M90.0046 152.078C90.3075 152.067 90.5945 151.94 90.8051 151.722C91.0157 151.505 91.1334 151.214 91.1334 150.912C91.1334 150.61 91.0157 150.319 90.8051 150.102C90.5945 149.884 90.3075 149.757 90.0046 149.746C89.7016 149.757 89.4146 149.884 89.204 150.102C88.9934 150.319 88.8757 150.61 88.8757 150.912C88.8757 151.214 88.9934 151.505 89.204 151.722C89.4146 151.94 89.7016 152.067 90.0046 152.078Z" fill="#020202"/>
<path d="M95.4297 155.808C95.7327 155.797 96.0197 155.67 96.2302 155.452C96.4408 155.235 96.5585 154.945 96.5585 154.642C96.5585 154.34 96.4408 154.049 96.2302 153.832C96.0197 153.614 95.7327 153.487 95.4297 153.477C95.1267 153.487 94.8397 153.614 94.6292 153.832C94.4186 154.049 94.3009 154.34 94.3009 154.642C94.3009 154.945 94.4186 155.235 94.6292 155.452C94.8397 155.67 95.1267 155.797 95.4297 155.808Z" fill="#020202"/>
<path d="M101.039 151.705C101.342 151.695 101.629 151.567 101.84 151.35C102.05 151.132 102.168 150.842 102.168 150.54C102.168 150.237 102.05 149.947 101.84 149.729C101.629 149.512 101.342 149.384 101.039 149.374C100.736 149.384 100.449 149.512 100.238 149.729C100.028 149.947 99.9102 150.237 99.9102 150.54C99.9102 150.842 100.028 151.132 100.238 151.35C100.449 151.567 100.736 151.695 101.039 151.705Z" fill="#020202"/>
<path d="M90.5676 162.709C90.8706 162.698 91.1576 162.571 91.3682 162.353C91.5787 162.136 91.6964 161.846 91.6964 161.543C91.6964 161.241 91.5787 160.95 91.3682 160.733C91.1576 160.515 90.8706 160.388 90.5676 160.378C90.2647 160.388 89.9776 160.515 89.7671 160.733C89.5565 160.95 89.4388 161.241 89.4388 161.543C89.4388 161.846 89.5565 162.136 89.7671 162.353C89.9776 162.571 90.2647 162.698 90.5676 162.709Z" fill="#020202"/>
<path d="M101.039 161.963C101.342 161.952 101.629 161.825 101.84 161.608C102.05 161.39 102.168 161.1 102.168 160.797C102.168 160.495 102.05 160.204 101.84 159.987C101.629 159.77 101.342 159.642 101.039 159.632C100.736 159.642 100.449 159.77 100.238 159.987C100.028 160.204 99.9102 160.495 99.9102 160.797C99.9102 161.1 100.028 161.39 100.238 161.608C100.449 161.825 100.736 161.952 101.039 161.963Z" fill="#020202"/>
<path d="M95.8022 167.372C96.1052 167.362 96.3922 167.234 96.6028 167.017C96.8134 166.799 96.9311 166.509 96.9311 166.206C96.9311 165.904 96.8134 165.614 96.6028 165.396C96.3922 165.179 96.1052 165.051 95.8022 165.041C95.4993 165.051 95.2123 165.179 95.0017 165.396C94.7911 165.614 94.6734 165.904 94.6734 166.206C94.6734 166.509 94.7911 166.799 95.0017 167.017C95.2123 167.234 95.4993 167.362 95.8022 167.372Z" fill="#020202"/>
<path d="M90.9402 172.967C91.2431 172.957 91.5301 172.829 91.7407 172.612C91.9513 172.394 92.069 172.104 92.069 171.801C92.069 171.499 91.9513 171.209 91.7407 170.991C91.5301 170.774 91.2431 170.646 90.9402 170.636C90.6372 170.646 90.3502 170.774 90.1396 170.991C89.929 171.209 89.8113 171.499 89.8113 171.801C89.8113 172.104 89.929 172.394 90.1396 172.612C90.3502 172.829 90.6372 172.957 90.9402 172.967Z" fill="#020202"/>
<path d="M101.602 173.34C101.905 173.33 102.192 173.202 102.403 172.985C102.613 172.767 102.731 172.477 102.731 172.174C102.731 171.872 102.613 171.582 102.403 171.364C102.192 171.147 101.905 171.019 101.602 171.009C101.299 171.019 101.012 171.147 100.801 171.364C100.591 171.582 100.473 171.872 100.473 172.174C100.473 172.477 100.591 172.767 100.801 172.985C101.012 173.202 101.299 173.33 101.602 173.34Z" fill="#020202"/>
<path d="M91.5011 182.666C91.804 182.655 92.091 182.528 92.3016 182.31C92.5122 182.093 92.6299 181.803 92.6299 181.5C92.6299 181.198 92.5122 180.907 92.3016 180.69C92.091 180.472 91.804 180.345 91.5011 180.335C91.1981 180.345 90.9111 180.472 90.7005 180.69C90.4899 180.907 90.3723 181.198 90.3723 181.5C90.3723 181.803 90.4899 182.093 90.7005 182.31C90.9111 182.528 91.1981 182.655 91.5011 182.666Z" fill="#020202"/>
<path d="M101.602 183.038C101.905 183.028 102.192 182.9 102.403 182.683C102.613 182.465 102.731 182.175 102.731 181.873C102.731 181.57 102.613 181.28 102.403 181.062C102.192 180.845 101.905 180.717 101.602 180.707C101.299 180.717 101.012 180.845 100.801 181.062C100.591 181.28 100.473 181.57 100.473 181.873C100.473 182.175 100.591 182.465 100.801 182.683C101.012 182.9 101.299 183.028 101.602 183.038Z" fill="#020202"/>
<path d="M91.1285 191.245C91.4315 191.235 91.7185 191.107 91.9291 190.89C92.1397 190.672 92.2574 190.382 92.2574 190.08C92.2574 189.777 92.1397 189.487 91.9291 189.269C91.7185 189.052 91.4315 188.924 91.1285 188.914C90.8256 188.924 90.5386 189.052 90.328 189.269C90.1174 189.487 89.9997 189.777 89.9997 190.08C89.9997 190.382 90.1174 190.672 90.328 190.89C90.5386 191.107 90.8256 191.235 91.1285 191.245Z" fill="#020202"/>
<path d="M101.602 192.178C101.905 192.167 102.192 192.04 102.403 191.822C102.613 191.605 102.731 191.314 102.731 191.012C102.731 190.71 102.613 190.419 102.403 190.202C102.192 189.984 101.905 189.857 101.602 189.846C101.299 189.857 101.012 189.984 100.801 190.202C100.591 190.419 100.473 190.71 100.473 191.012C100.473 191.314 100.591 191.605 100.801 191.822C101.012 192.04 101.299 192.167 101.602 192.178Z" fill="#020202"/>
<path d="M91.3147 200.757C91.6177 200.747 91.9047 200.619 92.1153 200.402C92.3258 200.184 92.4435 199.894 92.4435 199.591C92.4435 199.289 92.3258 198.999 92.1153 198.781C91.9047 198.564 91.6177 198.436 91.3147 198.426C91.0118 198.436 90.7248 198.564 90.5142 198.781C90.3036 198.999 90.1859 199.289 90.1859 199.591C90.1859 199.894 90.3036 200.184 90.5142 200.402C90.7248 200.619 91.0118 200.747 91.3147 200.757Z" fill="#020202"/>
<path d="M101.788 201.13C102.091 201.12 102.378 200.993 102.589 200.775C102.799 200.558 102.917 200.267 102.917 199.965C102.917 199.663 102.799 199.372 102.589 199.155C102.378 198.937 102.091 198.81 101.788 198.799C101.485 198.81 101.198 198.937 100.988 199.155C100.777 199.372 100.659 199.663 100.659 199.965C100.659 200.267 100.777 200.558 100.988 200.775C101.198 200.993 101.485 201.12 101.788 201.13Z" fill="#020202"/>
<path d="M96.3653 207.844C96.6682 207.834 96.9552 207.706 97.1658 207.489C97.3764 207.272 97.4941 206.981 97.4941 206.679C97.4941 206.376 97.3764 206.086 97.1658 205.868C96.9552 205.651 96.6682 205.524 96.3653 205.513C96.0623 205.524 95.7753 205.651 95.5647 205.868C95.3542 206.086 95.2365 206.376 95.2365 206.679C95.2365 206.981 95.3542 207.272 95.5647 207.489C95.7753 207.706 96.0623 207.834 96.3653 207.844Z" fill="#020202"/>
<path d="M104.22 209.336C104.523 209.326 104.81 209.198 105.021 208.981C105.232 208.763 105.349 208.473 105.349 208.171C105.349 207.868 105.232 207.578 105.021 207.36C104.81 207.143 104.523 207.016 104.22 207.005C103.917 207.016 103.63 207.143 103.42 207.36C103.209 207.578 103.092 207.868 103.092 208.171C103.092 208.473 103.209 208.763 103.42 208.981C103.63 209.198 103.917 209.326 104.22 209.336Z" fill="#020202"/>
<path d="M107.211 155.248C107.514 155.238 107.801 155.11 108.012 154.893C108.222 154.676 108.34 154.385 108.34 154.083C108.34 153.78 108.222 153.49 108.012 153.272C107.801 153.055 107.514 152.928 107.211 152.917C106.908 152.928 106.621 153.055 106.411 153.272C106.2 153.49 106.082 153.78 106.082 154.083C106.082 154.385 106.2 154.676 106.411 154.893C106.621 155.11 106.908 155.238 107.211 155.248Z" fill="#020202"/>
<path d="M112.073 150.959C112.376 150.949 112.663 150.821 112.874 150.604C113.085 150.386 113.202 150.096 113.202 149.794C113.202 149.491 113.085 149.201 112.874 148.983C112.663 148.766 112.376 148.638 112.073 148.628C111.77 148.638 111.483 148.766 111.273 148.983C111.062 149.201 110.945 149.491 110.945 149.794C110.945 150.096 111.062 150.386 111.273 150.604C111.483 150.821 111.77 150.949 112.073 150.959Z" fill="#020202"/>
<path d="M118.059 153.943C118.362 153.933 118.649 153.805 118.86 153.588C119.071 153.37 119.188 153.08 119.188 152.777C119.188 152.475 119.071 152.185 118.86 151.967C118.649 151.75 118.362 151.622 118.059 151.612C117.757 151.622 117.469 151.75 117.259 151.967C117.048 152.185 116.931 152.475 116.931 152.777C116.931 153.08 117.048 153.37 117.259 153.588C117.469 153.805 117.757 153.933 118.059 153.943Z" fill="#020202"/>
<path d="M113.945 158.793C114.248 158.782 114.535 158.655 114.745 158.437C114.956 158.22 115.073 157.929 115.073 157.627C115.073 157.325 114.956 157.034 114.745 156.817C114.535 156.599 114.248 156.472 113.945 156.461C113.642 156.472 113.355 156.599 113.144 156.817C112.933 157.034 112.816 157.325 112.816 157.627C112.816 157.929 112.933 158.22 113.144 158.437C113.355 158.655 113.642 158.782 113.945 158.793Z" fill="#020202"/>
<path d="M110.391 166.253C110.694 166.243 110.981 166.115 111.191 165.898C111.402 165.68 111.519 165.39 111.519 165.087C111.519 164.785 111.402 164.495 111.191 164.277C110.981 164.06 110.694 163.932 110.391 163.922C110.088 163.932 109.801 164.06 109.59 164.277C109.379 164.495 109.262 164.785 109.262 165.087C109.262 165.39 109.379 165.68 109.59 165.898C109.801 166.115 110.088 166.243 110.391 166.253Z" fill="#020202"/>
<path d="M121.053 164.014C121.355 164.004 121.642 163.876 121.853 163.659C122.064 163.441 122.181 163.151 122.181 162.849C122.181 162.546 122.064 162.256 121.853 162.038C121.642 161.821 121.355 161.693 121.053 161.683C120.75 161.693 120.463 161.821 120.252 162.038C120.041 162.256 119.924 162.546 119.924 162.849C119.924 163.151 120.041 163.441 120.252 163.659C120.463 163.876 120.75 164.004 121.053 164.014Z" fill="#020202"/>
<path d="M116.938 169.796C117.241 169.786 117.528 169.658 117.738 169.441C117.949 169.223 118.066 168.933 118.066 168.631C118.066 168.328 117.949 168.038 117.738 167.82C117.528 167.603 117.241 167.476 116.938 167.465C116.635 167.476 116.348 167.603 116.137 167.82C115.926 168.038 115.809 168.328 115.809 168.631C115.809 168.933 115.926 169.223 116.137 169.441C116.348 169.658 116.635 169.786 116.938 169.796Z" fill="#020202"/>
<path d="M111.701 175.578C112.004 175.568 112.291 175.44 112.501 175.223C112.712 175.006 112.83 174.715 112.83 174.413C112.83 174.11 112.712 173.82 112.501 173.602C112.291 173.385 112.004 173.258 111.701 173.247C111.398 173.258 111.111 173.385 110.9 173.602C110.69 173.82 110.572 174.11 110.572 174.413C110.572 174.715 110.69 175.006 110.9 175.223C111.111 175.44 111.398 175.568 111.701 175.578Z" fill="#020202"/>
<path d="M122.735 173.154C123.038 173.143 123.325 173.016 123.536 172.798C123.746 172.581 123.864 172.29 123.864 171.988C123.864 171.686 123.746 171.395 123.536 171.178C123.325 170.96 123.038 170.833 122.735 170.822C122.432 170.833 122.145 170.96 121.935 171.178C121.724 171.395 121.606 171.686 121.606 171.988C121.606 172.29 121.724 172.581 121.935 172.798C122.145 173.016 122.432 173.143 122.735 173.154Z" fill="#020202"/>
<path d="M118.434 179.868C118.737 179.858 119.024 179.73 119.235 179.513C119.445 179.295 119.563 179.005 119.563 178.702C119.563 178.4 119.445 178.11 119.235 177.892C119.024 177.675 118.737 177.547 118.434 177.537C118.131 177.547 117.844 177.675 117.634 177.892C117.423 178.11 117.305 178.4 117.305 178.702C117.305 179.005 117.423 179.295 117.634 179.513C117.844 179.73 118.131 179.858 118.434 179.868Z" fill="#020202"/>
<path d="M112.448 185.277C112.751 185.267 113.038 185.139 113.249 184.922C113.459 184.704 113.577 184.414 113.577 184.111C113.577 183.809 113.459 183.519 113.249 183.301C113.038 183.084 112.751 182.956 112.448 182.946C112.145 182.956 111.858 183.084 111.648 183.301C111.437 183.519 111.319 183.809 111.319 184.111C111.319 184.414 111.437 184.704 111.648 184.922C111.858 185.139 112.145 185.267 112.448 185.277Z" fill="#020202"/>
<path d="M120.678 190.312C120.981 190.302 121.268 190.174 121.478 189.957C121.689 189.739 121.807 189.449 121.807 189.147C121.807 188.844 121.689 188.554 121.478 188.336C121.268 188.119 120.981 187.991 120.678 187.981C120.375 187.991 120.088 188.119 119.877 188.336C119.667 188.554 119.549 188.844 119.549 189.147C119.549 189.449 119.667 189.739 119.877 189.957C120.088 190.174 120.375 190.302 120.678 190.312Z" fill="#020202"/>
<path d="M124.604 183.038C124.907 183.028 125.194 182.9 125.405 182.683C125.615 182.465 125.733 182.175 125.733 181.873C125.733 181.57 125.615 181.28 125.405 181.062C125.194 180.845 124.907 180.717 124.604 180.707C124.301 180.717 124.014 180.845 123.804 181.062C123.593 181.28 123.476 181.57 123.476 181.873C123.476 182.175 123.593 182.465 123.804 182.683C124.014 182.9 124.301 183.028 124.604 183.038Z" fill="#020202"/>
<path d="M113.945 194.602C114.248 194.592 114.535 194.464 114.745 194.247C114.956 194.03 115.073 193.739 115.073 193.437C115.073 193.134 114.956 192.844 114.745 192.627C114.535 192.409 114.248 192.282 113.945 192.271C113.642 192.282 113.355 192.409 113.144 192.627C112.933 192.844 112.816 193.134 112.816 193.437C112.816 193.739 112.933 194.03 113.144 194.247C113.355 194.464 113.642 194.592 113.945 194.602Z" fill="#020202"/>
<path d="M122.547 200.571C122.85 200.56 123.137 200.433 123.347 200.215C123.558 199.998 123.676 199.707 123.676 199.405C123.676 199.103 123.558 198.812 123.347 198.595C123.137 198.377 122.85 198.25 122.547 198.239C122.244 198.25 121.957 198.377 121.746 198.595C121.536 198.812 121.418 199.103 121.418 199.405C121.418 199.707 121.536 199.998 121.746 200.215C121.957 200.433 122.244 200.56 122.547 200.571Z" fill="#020202"/>
<path d="M128.158 191.991C128.461 191.981 128.748 191.853 128.959 191.636C129.169 191.418 129.287 191.128 129.287 190.826C129.287 190.523 129.169 190.233 128.959 190.015C128.748 189.798 128.461 189.67 128.158 189.66C127.855 189.67 127.568 189.798 127.358 190.015C127.147 190.233 127.03 190.523 127.03 190.826C127.03 191.128 127.147 191.418 127.358 191.636C127.568 191.853 127.855 191.981 128.158 191.991Z" fill="#020202"/>
<path d="M114.88 206.353C115.183 206.342 115.47 206.215 115.681 205.997C115.891 205.78 116.009 205.489 116.009 205.187C116.009 204.885 115.891 204.594 115.681 204.377C115.47 204.159 115.183 204.032 114.88 204.021C114.577 204.032 114.29 204.159 114.08 204.377C113.869 204.594 113.751 204.885 113.751 205.187C113.751 205.489 113.869 205.78 114.08 205.997C114.29 206.215 114.577 206.342 114.88 206.353Z" fill="#020202"/>
<path d="M124.043 211.948C124.346 211.937 124.633 211.81 124.844 211.592C125.055 211.375 125.172 211.084 125.172 210.782C125.172 210.48 125.055 210.189 124.844 209.972C124.633 209.754 124.346 209.627 124.043 209.616C123.74 209.627 123.453 209.754 123.243 209.972C123.032 210.189 122.915 210.48 122.915 210.782C122.915 211.084 123.032 211.375 123.243 211.592C123.453 211.81 123.74 211.937 124.043 211.948Z" fill="#020202"/>
<path d="M116.188 215.678C116.491 215.667 116.778 215.54 116.989 215.322C117.199 215.105 117.317 214.814 117.317 214.512C117.317 214.21 117.199 213.919 116.989 213.702C116.778 213.484 116.491 213.357 116.188 213.346C115.885 213.357 115.598 213.484 115.388 213.702C115.177 213.919 115.059 214.21 115.059 214.512C115.059 214.814 115.177 215.105 115.388 215.322C115.598 215.54 115.885 215.667 116.188 215.678Z" fill="#020202"/>
<path d="M131.151 205.793C131.454 205.783 131.741 205.655 131.952 205.438C132.162 205.22 132.28 204.93 132.28 204.627C132.28 204.325 132.162 204.035 131.952 203.817C131.741 203.6 131.454 203.472 131.151 203.462C130.848 203.472 130.561 203.6 130.351 203.817C130.14 204.035 130.023 204.325 130.023 204.627C130.023 204.93 130.14 205.22 130.351 205.438C130.561 205.655 130.848 205.783 131.151 205.793Z" fill="#020202"/>
<path d="M136.949 200.198C137.252 200.188 137.539 200.06 137.75 199.843C137.96 199.625 138.078 199.335 138.078 199.032C138.078 198.73 137.96 198.44 137.75 198.222C137.539 198.005 137.252 197.877 136.949 197.867C136.646 197.877 136.359 198.005 136.148 198.222C135.938 198.44 135.82 198.73 135.82 199.032C135.82 199.335 135.938 199.625 136.148 199.843C136.359 200.06 136.646 200.188 136.949 200.198Z" fill="#020202"/>
<path d="M140.128 209.896C140.431 209.885 140.718 209.758 140.929 209.54C141.139 209.323 141.257 209.032 141.257 208.73C141.257 208.428 141.139 208.137 140.929 207.92C140.718 207.702 140.431 207.575 140.128 207.564C139.825 207.575 139.538 207.702 139.328 207.92C139.117 208.137 138.999 208.428 138.999 208.73C138.999 209.032 139.117 209.323 139.328 209.54C139.538 209.758 139.825 209.885 140.128 209.896Z" fill="#020202"/>
<path d="M144.99 203.182C145.293 203.171 145.58 203.044 145.791 202.826C146.002 202.609 146.119 202.318 146.119 202.016C146.119 201.714 146.002 201.423 145.791 201.206C145.58 200.988 145.293 200.861 144.99 200.85C144.687 200.861 144.4 200.988 144.19 201.206C143.979 201.423 143.862 201.714 143.862 202.016C143.862 202.318 143.979 202.609 144.19 202.826C144.4 203.044 144.687 203.171 144.99 203.182Z" fill="#020202"/>
<path d="M151.349 196.281C151.652 196.271 151.939 196.143 152.15 195.926C152.36 195.708 152.478 195.418 152.478 195.115C152.478 194.813 152.36 194.523 152.15 194.305C151.939 194.088 151.652 193.96 151.349 193.95C151.046 193.96 150.759 194.088 150.549 194.305C150.338 194.523 150.22 194.813 150.22 195.115C150.22 195.418 150.338 195.708 150.549 195.926C150.759 196.143 151.046 196.271 151.349 196.281Z" fill="#020202"/>
<path d="M153.968 205.98C154.271 205.969 154.558 205.842 154.768 205.624C154.979 205.407 155.096 205.116 155.096 204.814C155.096 204.512 154.979 204.221 154.768 204.004C154.558 203.786 154.271 203.659 153.968 203.648C153.665 203.659 153.378 203.786 153.167 204.004C152.956 204.221 152.839 204.512 152.839 204.814C152.839 205.116 152.956 205.407 153.167 205.624C153.378 205.842 153.665 205.969 153.968 205.98Z" fill="#020202"/>
<path d="M158.829 199.079C159.132 199.068 159.419 198.941 159.63 198.723C159.841 198.506 159.958 198.215 159.958 197.913C159.958 197.611 159.841 197.32 159.63 197.103C159.419 196.885 159.132 196.758 158.829 196.747C158.526 196.758 158.239 196.885 158.029 197.103C157.818 197.32 157.701 197.611 157.701 197.913C157.701 198.215 157.818 198.506 158.029 198.723C158.239 198.941 158.526 199.068 158.829 199.079Z" fill="#020202"/>
<path d="M163.88 192.364C164.183 192.354 164.47 192.226 164.68 192.009C164.891 191.792 165.009 191.501 165.009 191.199C165.009 190.896 164.891 190.606 164.68 190.388C164.47 190.171 164.183 190.044 163.88 190.033C163.577 190.044 163.29 190.171 163.079 190.388C162.869 190.606 162.751 190.896 162.751 191.199C162.751 191.501 162.869 191.792 163.079 192.009C163.29 192.226 163.577 192.354 163.88 192.364Z" fill="#020202"/>
<path d="M167.059 202.063C167.362 202.052 167.649 201.925 167.86 201.707C168.07 201.49 168.188 201.199 168.188 200.897C168.188 200.595 168.07 200.304 167.86 200.087C167.649 199.869 167.362 199.742 167.059 199.731C166.756 199.742 166.469 199.869 166.259 200.087C166.048 200.304 165.93 200.595 165.93 200.897C165.93 201.199 166.048 201.49 166.259 201.707C166.469 201.925 166.756 202.052 167.059 202.063Z" fill="#020202"/>
<path d="M170.239 195.721C170.542 195.711 170.829 195.583 171.039 195.366C171.25 195.148 171.367 194.858 171.367 194.556C171.367 194.253 171.25 193.963 171.039 193.745C170.829 193.528 170.542 193.4 170.239 193.39C169.936 193.4 169.649 193.528 169.438 193.745C169.227 193.963 169.11 194.253 169.11 194.556C169.11 194.858 169.227 195.148 169.438 195.366C169.649 195.583 169.936 195.711 170.239 195.721Z" fill="#020202"/>
<path d="M176.222 189.753C176.525 189.743 176.812 189.615 177.023 189.398C177.234 189.18 177.351 188.89 177.351 188.588C177.351 188.285 177.234 187.995 177.023 187.777C176.812 187.56 176.525 187.433 176.222 187.422C175.92 187.433 175.633 187.56 175.422 187.777C175.211 187.995 175.094 188.285 175.094 188.588C175.094 188.89 175.211 189.18 175.422 189.398C175.633 189.615 175.92 189.743 176.222 189.753Z" fill="#020202"/>
<path d="M179.59 200.571C179.893 200.56 180.18 200.433 180.391 200.215C180.601 199.998 180.719 199.707 180.719 199.405C180.719 199.103 180.601 198.812 180.391 198.595C180.18 198.377 179.893 198.25 179.59 198.239C179.287 198.25 179 198.377 178.79 198.595C178.579 198.812 178.461 199.103 178.461 199.405C178.461 199.707 178.579 199.998 178.79 200.215C179 200.433 179.287 200.56 179.59 200.571Z" fill="#020202"/>
<path d="M182.769 193.67C183.072 193.659 183.359 193.532 183.57 193.315C183.781 193.097 183.898 192.807 183.898 192.504C183.898 192.202 183.781 191.912 183.57 191.694C183.359 191.477 183.072 191.349 182.769 191.339C182.467 191.349 182.18 191.477 181.969 191.694C181.758 191.912 181.641 192.202 181.641 192.504C181.641 192.807 181.758 193.097 181.969 193.315C182.18 193.532 182.467 193.659 182.769 193.67Z" fill="#020202"/>
<path d="M167.806 186.209C168.109 186.199 168.396 186.071 168.607 185.854C168.818 185.636 168.935 185.346 168.935 185.043C168.935 184.741 168.818 184.451 168.607 184.233C168.396 184.016 168.109 183.888 167.806 183.878C167.503 183.888 167.216 184.016 167.006 184.233C166.795 184.451 166.678 184.741 166.678 185.043C166.678 185.346 166.795 185.636 167.006 185.854C167.216 186.071 167.503 186.199 167.806 186.209Z" fill="#020202"/>
<path d="M155.839 187.515C156.141 187.504 156.429 187.377 156.639 187.16C156.85 186.942 156.967 186.652 156.967 186.349C156.967 186.047 156.85 185.757 156.639 185.539C156.429 185.322 156.141 185.194 155.839 185.184C155.536 185.194 155.249 185.322 155.038 185.539C154.827 185.757 154.71 186.047 154.71 186.349C154.71 186.652 154.827 186.942 155.038 187.16C155.249 187.377 155.536 187.504 155.839 187.515Z" fill="#020202"/>
<path d="M160.514 180.428C160.817 180.417 161.104 180.29 161.315 180.072C161.525 179.855 161.643 179.564 161.643 179.262C161.643 178.96 161.525 178.669 161.315 178.452C161.104 178.234 160.817 178.107 160.514 178.096C160.211 178.107 159.924 178.234 159.714 178.452C159.503 178.669 159.386 178.96 159.386 179.262C159.386 179.564 159.503 179.855 159.714 180.072C159.924 180.29 160.211 180.417 160.514 180.428Z" fill="#020202"/>
<path d="M173.418 179.122C173.721 179.111 174.008 178.984 174.219 178.766C174.429 178.549 174.547 178.258 174.547 177.956C174.547 177.654 174.429 177.363 174.219 177.146C174.008 176.928 173.721 176.801 173.418 176.79C173.115 176.801 172.828 176.928 172.617 177.146C172.407 177.363 172.289 177.654 172.289 177.956C172.289 178.258 172.407 178.549 172.617 178.766C172.828 178.984 173.115 179.111 173.418 179.122Z" fill="#020202"/>
<path d="M181.087 182.666C181.39 182.655 181.677 182.528 181.887 182.31C182.098 182.093 182.216 181.803 182.216 181.5C182.216 181.198 182.098 180.907 181.887 180.69C181.677 180.472 181.39 180.345 181.087 180.335C180.784 180.345 180.497 180.472 180.286 180.69C180.076 180.907 179.958 181.198 179.958 181.5C179.958 181.803 180.076 182.093 180.286 182.31C180.497 182.528 180.784 182.655 181.087 182.666Z" fill="#020202"/>
<path d="M176.972 170.916C177.275 170.905 177.562 170.778 177.772 170.56C177.983 170.343 178.101 170.052 178.101 169.75C178.101 169.448 177.983 169.157 177.772 168.94C177.562 168.722 177.275 168.595 176.972 168.584C176.669 168.595 176.382 168.722 176.171 168.94C175.961 169.157 175.843 169.448 175.843 169.75C175.843 170.052 175.961 170.343 176.171 170.56C176.382 170.778 176.669 170.905 176.972 170.916Z" fill="#020202"/>
<path d="M165.749 172.221C166.052 172.211 166.339 172.083 166.55 171.866C166.76 171.648 166.878 171.358 166.878 171.055C166.878 170.753 166.76 170.463 166.55 170.245C166.339 170.028 166.052 169.9 165.749 169.89C165.446 169.9 165.159 170.028 164.948 170.245C164.738 170.463 164.62 170.753 164.62 171.055C164.62 171.358 164.738 171.648 164.948 171.866C165.159 172.083 165.446 172.211 165.749 172.221Z" fill="#020202"/>
<path d="M156.211 172.408C156.514 172.397 156.801 172.27 157.012 172.052C157.222 171.835 157.34 171.544 157.34 171.242C157.34 170.94 157.222 170.649 157.012 170.432C156.801 170.214 156.514 170.087 156.211 170.076C155.908 170.087 155.621 170.214 155.411 170.432C155.2 170.649 155.082 170.94 155.082 171.242C155.082 171.544 155.2 171.835 155.411 172.052C155.621 172.27 155.908 172.397 156.211 172.408Z" fill="#020202"/>
<path d="M159.018 164.947C159.321 164.937 159.608 164.809 159.818 164.592C160.029 164.374 160.147 164.084 160.147 163.782C160.147 163.479 160.029 163.189 159.818 162.971C159.608 162.754 159.321 162.626 159.018 162.616C158.715 162.626 158.428 162.754 158.217 162.971C158.007 163.189 157.889 163.479 157.889 163.782C157.889 164.084 158.007 164.374 158.217 164.592C158.428 164.809 158.715 164.937 159.018 164.947Z" fill="#020202"/>
<path d="M169.678 163.642C169.98 163.631 170.268 163.504 170.478 163.286C170.689 163.069 170.806 162.778 170.806 162.476C170.806 162.174 170.689 161.883 170.478 161.666C170.268 161.448 169.98 161.321 169.678 161.31C169.375 161.321 169.088 161.448 168.877 161.666C168.666 161.883 168.549 162.174 168.549 162.476C168.549 162.778 168.666 163.069 168.877 163.286C169.088 163.504 169.375 163.631 169.678 163.642Z" fill="#020202"/>
<path d="M148.731 165.134C149.034 165.123 149.321 164.996 149.531 164.778C149.742 164.561 149.859 164.27 149.859 163.968C149.859 163.666 149.742 163.375 149.531 163.158C149.321 162.94 149.034 162.813 148.731 162.802C148.428 162.813 148.141 162.94 147.93 163.158C147.72 163.375 147.602 163.666 147.602 163.968C147.602 164.27 147.72 164.561 147.93 164.778C148.141 164.996 148.428 165.123 148.731 165.134Z" fill="#020202"/>
<path d="M153.968 158.419C154.271 158.409 154.558 158.281 154.768 158.064C154.979 157.846 155.096 157.556 155.096 157.253C155.096 156.951 154.979 156.661 154.768 156.443C154.558 156.226 154.271 156.098 153.968 156.088C153.665 156.098 153.378 156.226 153.167 156.443C152.956 156.661 152.839 156.951 152.839 157.253C152.839 157.556 152.956 157.846 153.167 158.064C153.378 158.281 153.665 158.409 153.968 158.419Z" fill="#020202"/>
<path d="M163.694 158.606C163.997 158.595 164.284 158.468 164.494 158.25C164.705 158.033 164.822 157.742 164.822 157.44C164.822 157.138 164.705 156.847 164.494 156.63C164.284 156.412 163.997 156.285 163.694 156.274C163.391 156.285 163.104 156.412 162.893 156.63C162.683 156.847 162.565 157.138 162.565 157.44C162.565 157.742 162.683 158.033 162.893 158.25C163.104 158.468 163.391 158.595 163.694 158.606Z" fill="#020202"/>
<path d="M173.793 156.74C174.095 156.73 174.382 156.602 174.593 156.385C174.804 156.167 174.921 155.877 174.921 155.575C174.921 155.272 174.804 154.982 174.593 154.764C174.382 154.547 174.095 154.419 173.793 154.409C173.49 154.419 173.203 154.547 172.992 154.764C172.781 154.982 172.664 155.272 172.664 155.575C172.664 155.877 172.781 156.167 172.992 156.385C173.203 156.602 173.49 156.73 173.793 156.74Z" fill="#020202"/>
<path d="M180.151 161.776C180.454 161.766 180.741 161.639 180.951 161.421C181.162 161.204 181.28 160.913 181.28 160.611C181.28 160.309 181.162 160.018 180.951 159.801C180.741 159.583 180.454 159.456 180.151 159.445C179.848 159.456 179.561 159.583 179.35 159.801C179.14 160.018 179.022 160.309 179.022 160.611C179.022 160.913 179.14 161.204 179.35 161.421C179.561 161.639 179.848 161.766 180.151 161.776Z" fill="#020202"/>
<path d="M182.583 175.392C182.886 175.381 183.173 175.254 183.384 175.037C183.594 174.819 183.712 174.529 183.712 174.226C183.712 173.924 183.594 173.633 183.384 173.416C183.173 173.199 182.886 173.071 182.583 173.061C182.28 173.071 181.993 173.199 181.783 173.416C181.572 173.633 181.454 173.924 181.454 174.226C181.454 174.529 181.572 174.819 181.783 175.037C181.993 175.254 182.28 175.381 182.583 175.392Z" fill="#020202"/>
<path d="M167.62 151.332C167.923 151.321 168.21 151.194 168.421 150.976C168.631 150.759 168.749 150.468 168.749 150.166C168.749 149.864 168.631 149.573 168.421 149.356C168.21 149.138 167.923 149.011 167.62 149C167.317 149.011 167.03 149.138 166.82 149.356C166.609 149.573 166.491 149.864 166.491 150.166C166.491 150.468 166.609 150.759 166.82 150.976C167.03 151.194 167.317 151.321 167.62 151.332Z" fill="#020202"/>
<path d="M157.896 151.145C158.199 151.135 158.486 151.007 158.697 150.79C158.907 150.572 159.025 150.282 159.025 149.98C159.025 149.677 158.907 149.387 158.697 149.169C158.486 148.952 158.199 148.824 157.896 148.814C157.593 148.824 157.306 148.952 157.095 149.169C156.885 149.387 156.767 149.677 156.767 149.98C156.767 150.282 156.885 150.572 157.095 150.79C157.306 151.007 157.593 151.135 157.896 151.145Z" fill="#020202"/>
<path d="M146.862 153.197C147.165 153.187 147.452 153.059 147.662 152.842C147.873 152.624 147.99 152.334 147.99 152.031C147.99 151.729 147.873 151.439 147.662 151.221C147.452 151.004 147.165 150.876 146.862 150.866C146.559 150.876 146.272 151.004 146.061 151.221C145.85 151.439 145.733 151.729 145.733 152.031C145.733 152.334 145.85 152.624 146.061 152.842C146.272 153.059 146.559 153.187 146.862 153.197Z" fill="#020202"/>
<path d="M151.349 147.415C151.652 147.405 151.939 147.277 152.15 147.06C152.36 146.842 152.478 146.552 152.478 146.249C152.478 145.947 152.36 145.657 152.15 145.439C151.939 145.222 151.652 145.094 151.349 145.084C151.046 145.094 150.759 145.222 150.549 145.439C150.338 145.657 150.22 145.947 150.22 146.249C150.22 146.552 150.338 146.842 150.549 147.06C150.759 147.277 151.046 147.405 151.349 147.415Z" fill="#020202"/>
<path d="M161.823 144.99C162.126 144.98 162.413 144.853 162.623 144.635C162.834 144.418 162.951 144.127 162.951 143.825C162.951 143.523 162.834 143.232 162.623 143.015C162.413 142.797 162.126 142.67 161.823 142.659C161.52 142.67 161.233 142.797 161.022 143.015C160.811 143.232 160.694 143.523 160.694 143.825C160.694 144.127 160.811 144.418 161.022 144.635C161.233 144.853 161.52 144.98 161.823 144.99Z" fill="#020202"/>
<path d="M172.11 143.125C172.413 143.115 172.7 142.987 172.91 142.77C173.121 142.552 173.239 142.262 173.239 141.96C173.239 141.657 173.121 141.367 172.91 141.149C172.7 140.932 172.413 140.805 172.11 140.794C171.807 140.805 171.52 140.932 171.309 141.149C171.099 141.367 170.981 141.657 170.981 141.96C170.981 142.262 171.099 142.552 171.309 142.77C171.52 142.987 171.807 143.115 172.11 143.125Z" fill="#020202"/>
<path d="M175.101 147.229C175.404 147.218 175.691 147.091 175.901 146.873C176.112 146.656 176.229 146.365 176.229 146.063C176.229 145.761 176.112 145.47 175.901 145.253C175.691 145.035 175.404 144.908 175.101 144.897C174.798 144.908 174.511 145.035 174.3 145.253C174.089 145.47 173.972 145.761 173.972 146.063C173.972 146.365 174.089 146.656 174.3 146.873C174.511 147.091 174.798 147.218 175.101 147.229Z" fill="#020202"/>
<path d="M178.28 151.145C178.583 151.135 178.87 151.007 179.08 150.79C179.291 150.572 179.409 150.282 179.409 149.98C179.409 149.677 179.291 149.387 179.08 149.169C178.87 148.952 178.583 148.824 178.28 148.814C177.977 148.824 177.69 148.952 177.479 149.169C177.269 149.387 177.151 149.677 177.151 149.98C177.151 150.282 177.269 150.572 177.479 150.79C177.69 151.007 177.977 151.135 178.28 151.145Z" fill="#020202"/>
<path d="M155.278 141.261C155.581 141.25 155.868 141.123 156.078 140.905C156.289 140.688 156.406 140.397 156.406 140.095C156.406 139.793 156.289 139.502 156.078 139.285C155.868 139.067 155.581 138.94 155.278 138.929C154.975 138.94 154.688 139.067 154.477 139.285C154.266 139.502 154.149 139.793 154.149 140.095C154.149 140.397 154.266 140.688 154.477 140.905C154.688 141.123 154.975 141.25 155.278 141.261Z" fill="#020202"/>
<path d="M143.682 142.752C143.985 142.742 144.272 142.614 144.483 142.397C144.693 142.18 144.811 141.889 144.811 141.587C144.811 141.284 144.693 140.994 144.483 140.776C144.272 140.559 143.985 140.432 143.682 140.421C143.379 140.432 143.092 140.559 142.882 140.776C142.671 140.994 142.553 141.284 142.553 141.587C142.553 141.889 142.671 142.18 142.882 142.397C143.092 142.614 143.379 142.742 143.682 142.752Z" fill="#020202"/>
<path d="M165.937 139.022C166.24 139.012 166.527 138.884 166.738 138.667C166.948 138.449 167.066 138.159 167.066 137.856C167.066 137.554 166.948 137.264 166.738 137.046C166.527 136.829 166.24 136.701 165.937 136.691C165.634 136.701 165.347 136.829 165.137 137.046C164.926 137.264 164.809 137.554 164.809 137.856C164.809 138.159 164.926 138.449 165.137 138.667C165.347 138.884 165.634 139.012 165.937 139.022Z" fill="#020202"/>
<path d="M174.167 137.716C174.47 137.706 174.757 137.578 174.968 137.361C175.178 137.143 175.296 136.853 175.296 136.551C175.296 136.248 175.178 135.958 174.968 135.74C174.757 135.523 174.47 135.395 174.167 135.385C173.864 135.395 173.577 135.523 173.367 135.74C173.156 135.958 173.038 136.248 173.038 136.551C173.038 136.853 173.156 137.143 173.367 137.361C173.577 137.578 173.864 137.706 174.167 137.716Z" fill="#020202"/>
<path d="M132.273 147.043C132.576 147.032 132.863 146.905 133.074 146.687C133.284 146.47 133.402 146.179 133.402 145.877C133.402 145.575 133.284 145.284 133.074 145.067C132.863 144.849 132.576 144.722 132.273 144.711C131.97 144.722 131.683 144.849 131.473 145.067C131.262 145.284 131.144 145.575 131.144 145.877C131.144 146.179 131.262 146.47 131.473 146.687C131.683 146.905 131.97 147.032 132.273 147.043Z" fill="#020202"/>
<path d="M138.071 151.145C138.374 151.135 138.661 151.007 138.871 150.79C139.082 150.572 139.2 150.282 139.2 149.98C139.2 149.677 139.082 149.387 138.871 149.169C138.661 148.952 138.374 148.824 138.071 148.814C137.768 148.824 137.481 148.952 137.27 149.169C137.06 149.387 136.942 149.677 136.942 149.98C136.942 150.282 137.06 150.572 137.27 150.79C137.481 151.007 137.768 151.135 138.071 151.145Z" fill="#020202"/>
<path d="M135.266 157.3C135.569 157.29 135.856 157.162 136.067 156.945C136.277 156.727 136.395 156.437 136.395 156.135C136.395 155.832 136.277 155.542 136.067 155.324C135.856 155.107 135.569 154.979 135.266 154.969C134.963 154.979 134.676 155.107 134.466 155.324C134.255 155.542 134.137 155.832 134.137 156.135C134.137 156.437 134.255 156.727 134.466 156.945C134.676 157.162 134.963 157.29 135.266 157.3Z" fill="#020202"/>
<path d="M138.818 164.014C139.121 164.004 139.408 163.876 139.619 163.659C139.829 163.441 139.947 163.151 139.947 162.849C139.947 162.546 139.829 162.256 139.619 162.038C139.408 161.821 139.121 161.693 138.818 161.683C138.515 161.693 138.228 161.821 138.018 162.038C137.807 162.256 137.689 162.546 137.689 162.849C137.689 163.151 137.807 163.441 138.018 163.659C138.228 163.876 138.515 164.004 138.818 164.014Z" fill="#020202"/>
<path d="M136.388 169.424C136.691 169.413 136.978 169.286 137.189 169.068C137.399 168.851 137.517 168.561 137.517 168.258C137.517 167.956 137.399 167.665 137.189 167.448C136.978 167.231 136.691 167.103 136.388 167.093C136.085 167.103 135.798 167.231 135.588 167.448C135.377 167.665 135.259 167.956 135.259 168.258C135.259 168.561 135.377 168.851 135.588 169.068C135.798 169.286 136.085 169.413 136.388 169.424Z" fill="#020202"/>
<path d="M126.101 157.487C126.404 157.476 126.691 157.349 126.902 157.131C127.112 156.914 127.23 156.623 127.23 156.321C127.23 156.019 127.112 155.728 126.902 155.511C126.691 155.293 126.404 155.166 126.101 155.155C125.798 155.166 125.511 155.293 125.301 155.511C125.09 155.728 124.972 156.019 124.972 156.321C124.972 156.623 125.09 156.914 125.301 157.131C125.511 157.349 125.798 157.476 126.101 157.487Z" fill="#020202"/>
<path d="M127.972 166.813C128.275 166.802 128.562 166.675 128.773 166.457C128.983 166.24 129.101 165.949 129.101 165.647C129.101 165.345 128.983 165.054 128.773 164.837C128.562 164.619 128.275 164.492 127.972 164.481C127.669 164.492 127.382 164.619 127.171 164.837C126.961 165.054 126.843 165.345 126.843 165.647C126.843 165.949 126.961 166.24 127.171 166.457C127.382 166.675 127.669 166.802 127.972 166.813Z" fill="#020202"/>
<path d="M143.494 171.475C143.797 171.465 144.084 171.337 144.294 171.12C144.505 170.902 144.623 170.612 144.623 170.31C144.623 170.007 144.505 169.717 144.294 169.499C144.084 169.282 143.797 169.154 143.494 169.144C143.191 169.154 142.904 169.282 142.693 169.499C142.483 169.717 142.365 170.007 142.365 170.31C142.365 170.612 142.483 170.902 142.693 171.12C142.904 171.337 143.191 171.465 143.494 171.475Z" fill="#020202"/>
<path d="M137.885 176.697C138.188 176.687 138.475 176.559 138.685 176.342C138.896 176.124 139.013 175.834 139.013 175.532C139.013 175.229 138.896 174.939 138.685 174.721C138.475 174.504 138.188 174.376 137.885 174.366C137.582 174.376 137.295 174.504 137.084 174.721C136.873 174.939 136.756 175.229 136.756 175.532C136.756 175.834 136.873 176.124 137.084 176.342C137.295 176.559 137.582 176.687 137.885 176.697Z" fill="#020202"/>
<path d="M145.738 178.563C146.041 178.552 146.328 178.425 146.538 178.207C146.749 177.99 146.866 177.699 146.866 177.397C146.866 177.095 146.749 176.804 146.538 176.587C146.328 176.369 146.041 176.242 145.738 176.231C145.435 176.242 145.148 176.369 144.937 176.587C144.726 176.804 144.609 177.095 144.609 177.397C144.609 177.699 144.726 177.99 144.937 178.207C145.148 178.425 145.435 178.552 145.738 178.563Z" fill="#020202"/>
<path d="M141.064 182.106C141.367 182.096 141.654 181.968 141.864 181.751C142.075 181.534 142.193 181.243 142.193 180.941C142.193 180.638 142.075 180.348 141.864 180.13C141.654 179.913 141.367 179.786 141.064 179.775C140.761 179.786 140.474 179.913 140.263 180.13C140.053 180.348 139.935 180.638 139.935 180.941C139.935 181.243 140.053 181.534 140.263 181.751C140.474 181.968 140.761 182.096 141.064 182.106Z" fill="#020202"/>
<path d="M99.8982 48.1719C99.8877 48.6039 99.7076 49.0146 99.3965 49.3155C99.091 49.6201 98.7382 49.8736 98.3517 50.0662C97.5936 50.4534 96.776 50.7117 95.9325 50.8305C95.4977 50.8942 95.0546 50.8716 94.6285 50.764C94.2025 50.6564 93.802 50.4659 93.45 50.2034C93.0958 49.9427 92.8097 49.6006 92.616 49.2063C92.4224 48.8119 92.3268 48.3768 92.3375 47.9378C92.3766 47.6893 92.4955 47.4601 92.6762 47.2846C92.8444 47.1268 93.0364 46.9964 93.2452 46.8981C93.6388 46.7006 94.0297 46.5576 94.4075 46.4058C94.7781 46.2608 95.1366 46.0867 95.4797 45.8851C95.6473 45.7852 95.8046 45.6753 95.9619 45.565C96.1469 45.4324 96.341 45.3128 96.5427 45.2071C96.9749 44.9802 97.4718 44.907 97.9514 44.9997C98.4166 45.1106 98.8259 45.3856 99.1037 45.774C99.5982 46.4785 99.8744 47.3122 99.8982 48.1719ZM99.8342 48.1719C99.7801 47.3585 99.4063 46.5994 98.7941 46.0594C98.5414 45.8114 98.2138 45.6532 97.862 45.6094C97.5102 45.5655 97.1537 45.6384 96.8476 45.8167C96.6839 45.893 96.5344 46.0124 96.3715 46.1099C96.1931 46.2411 96.0054 46.3593 95.81 46.4636C95.4272 46.6631 95.029 46.8319 94.6194 46.9683C94.2222 47.1106 93.82 47.2167 93.4568 47.359C93.0938 47.5041 92.7717 47.6754 92.6817 48.0049C92.6233 48.3928 92.676 48.7892 92.8337 49.1486C92.9913 49.508 93.2474 49.8157 93.5726 50.0363C93.9101 50.2389 94.2869 50.3678 94.6781 50.4144C95.0692 50.461 95.4659 50.4242 95.8417 50.3065C96.6128 50.1115 97.4246 49.9111 98.1969 49.6962C98.585 49.5894 98.9526 49.4189 99.2844 49.1916C99.4506 49.0773 99.5872 48.9252 99.6828 48.7479C99.7784 48.5706 99.8303 48.3731 99.8342 48.1719Z" fill="#020202"/>
<path d="M94.074 35.1129C94.0656 35.4711 93.9844 35.8239 93.8352 36.1498C93.6861 36.4758 93.4722 36.7682 93.2065 37.0093C92.6794 37.499 92.076 37.9001 91.4199 38.1968C90.1225 38.7936 88.7498 39.2116 87.3394 39.4393C86.6221 39.566 85.8867 39.5481 85.1764 39.3868C84.4661 39.2255 83.7954 38.924 83.2038 38.5001C82.6124 38.0728 82.1372 37.5051 81.8212 36.8484C81.5052 36.1917 81.3584 35.4668 81.3942 34.7393C81.4641 34.3493 81.6589 33.9924 81.9493 33.7221C82.2294 33.4731 82.5457 33.2678 82.8875 33.1133C83.5443 32.7974 84.2112 32.5679 84.8587 32.3138C85.5007 32.0706 86.1224 31.7772 86.7181 31.4364C87.0123 31.2672 87.2882 31.0749 87.5634 30.8817C87.8663 30.6663 88.1831 30.4711 88.5117 30.2974C89.1986 29.9305 89.9896 29.806 90.7564 29.9442C91.5055 30.1145 92.1718 30.5394 92.6413 31.146C93.0954 31.7094 93.4438 32.35 93.6695 33.0369C93.911 33.704 94.0474 34.4043 94.074 35.1129ZM94.0099 35.1129C93.9785 34.4161 93.8067 33.7327 93.5046 33.1035C93.2224 32.4775 92.8244 31.9102 92.3315 31.4312C91.8731 30.9725 91.2849 30.6648 90.646 30.5494C90.0135 30.4674 89.3714 30.5929 88.8168 30.9069C88.5263 31.0648 88.2446 31.2382 87.973 31.4265C87.678 31.6426 87.3691 31.8391 87.0482 32.0147C86.4128 32.3536 85.7514 32.6417 85.0703 32.8763C84.4034 33.1207 83.7254 33.3137 83.099 33.5741C82.7931 33.6955 82.5038 33.8551 82.2382 34.0491C81.9939 34.241 81.8185 34.5067 81.7383 34.8064C81.658 35.4825 81.7634 36.1677 82.043 36.7888C82.3227 37.4099 82.7663 37.9436 83.3264 38.3329C83.9034 38.697 84.5504 38.9369 85.2258 39.0372C85.9012 39.1375 86.5902 39.096 87.2486 38.9154C88.5846 38.6062 89.957 38.2562 91.2649 37.8268C91.9227 37.6161 92.5409 37.2979 93.0943 36.8854C93.3723 36.679 93.5992 36.412 93.7579 36.1049C93.9166 35.7977 94.0028 35.4584 94.0099 35.1129Z" fill="#020202"/>
<path d="M91.2197 17.5057C91.4255 18.004 91.5281 18.5388 91.5212 19.0777C91.5008 19.6213 91.3317 20.149 91.0321 20.6036C90.404 21.4816 89.5842 22.2059 88.6345 22.7218C86.7597 23.761 84.7952 24.6302 82.7646 25.319C80.7595 26.0641 78.7284 26.7214 76.7283 27.4524C75.7296 27.8212 74.7298 28.1839 73.7431 28.5771C72.747 28.9664 71.7394 29.3547 70.7072 29.6602C68.6473 30.3175 66.4958 30.6444 64.333 30.6286C62.1431 30.6537 60.0184 29.8852 58.3539 28.4657C56.8176 26.9253 55.8494 24.9118 55.6068 22.7527C55.3036 20.6235 55.3305 18.4605 55.6864 16.3394C56.1862 14.2407 57.0249 12.2369 58.1697 10.4067C59.2857 8.55903 60.6448 6.86871 62.2107 5.38075C63.7802 3.87713 65.596 2.6523 67.5796 1.75921C69.5816 0.86981 71.7588 0.441607 73.9495 0.506395C76.1412 0.542396 78.2946 1.08573 80.2397 2.09355C82.153 3.12929 83.8363 4.54055 85.1881 6.24231C86.5249 7.92021 87.6759 9.7372 88.6213 11.6617C89.5868 13.5665 90.4402 15.5223 91.2197 17.5057ZM91.1603 17.5295C89.5466 13.6056 87.6755 9.69466 84.8671 6.51474C83.4949 4.92113 81.8296 3.60409 79.9611 2.63466C78.0852 1.70292 76.0243 1.20073 73.9289 1.16477C69.731 1.0277 65.6864 2.96215 62.6219 5.82003C61.0799 7.26103 59.7246 8.88873 58.5877 10.6652C57.4283 12.4306 56.5642 14.372 56.029 16.4136C55.6218 18.491 55.5544 20.6205 55.8295 22.7193C55.9684 23.7671 56.253 24.7903 56.6751 25.7597C57.1017 26.7242 57.7242 27.59 58.5034 28.3025C60.13 29.6691 62.2141 30.3729 64.3387 30.2731C66.4546 30.2239 68.5499 29.8467 70.5494 29.155C72.5664 28.5387 74.4993 27.592 76.5424 26.9311C78.5661 26.2341 80.6023 25.5891 82.6327 24.9403C84.6728 24.333 86.6534 23.5422 88.55 22.5776C89.4997 22.1026 90.3205 21.4062 90.9429 20.5476C91.2395 20.1105 91.4102 19.6007 91.4365 19.0736C91.4497 18.5456 91.3557 18.0204 91.1603 17.5295Z" fill="#020202"/>
</svg>
