<svg xmlns="http://www.w3.org/2000/svg" viewBox="0 0 102 100" fill="none"><path stroke="#0C0C0C" stroke-linecap="round" stroke-linejoin="round" stroke-width="2.5" d="M90.34 53.986c-1.571.092-2.911-1.155-3.004-2.726l-.6-14.417a2.92 2.92 0 0 1 2.772-3.004c1.571-.046 2.911 1.202 2.958 2.773l.646 14.37c.047 1.618-1.201 2.958-2.772 3.004Z"/><path stroke="#0C0C0C" stroke-linecap="round" stroke-linejoin="round" stroke-width="2.5" d="M77.123 86.933h19.592a3.28 3.28 0 0 0 3.28-3.466L96.808 29.82a5.396 5.396 0 0 0-3.05-4.621l-5.22-2.634-1.018-9.103S86.503 13 83.13 13c-3.049 0-4.204.462-4.204.462l-1.017 9.103-3.65 1.848M77.91 22.564h10.628M84.191 80.049h15.572"/><path stroke="#0C0C0C" stroke-linecap="round" stroke-linejoin="round" stroke-width="2.5" d="M75.785 34.394c0 3.605-2.911 6.562-6.516 6.562-3.604 0-6.515-2.958-6.515-6.562a6.508 6.508 0 0 1 6.515-6.515 6.508 6.508 0 0 1 6.516 6.515Z"/><path stroke="#0C0C0C" stroke-linecap="round" stroke-linejoin="round" stroke-width="2.5" d="M69.684 31.807c.693.138 1.293.6 1.663 1.201M67.187 86.378c-11.229 2.587-22.457-4.436-25.045-15.665-2.588-11.274 4.436-22.503 15.664-25.09 11.275-2.588 22.504 4.435 25.091 15.71 2.588 11.275-4.436 22.457-15.71 25.045Z"/><path fill="#C1121F" d="M66.942 69.136c-.18 0-.36.022-.541.067-.304.068-.642-1.115-1.621-2.297-.642-.777-1.453-1.25-2.399-1.25-.878 0-1.723.473-2.331 1.216-.98 1.115-1.317 2.365-1.554 2.298a2.452 2.452 0 0 0-.405-.034c-1.487 0-2.67 1.588-2.67 3.547 0 1.96 1.183 3.547 2.67 3.547.506 0 1.554-.304 2.027-.507 1.35-.473 3.783-.439 4.695-.034.507.203 1.588.541 2.129.541 1.452 0 2.668-1.588 2.668-3.547 0-1.96-1.216-3.547-2.668-3.547ZM55.894 64.678c-.54-1.79-2.094-2.838-3.445-2.398-1.386.472-2.061 2.297-1.52 4.087.54 1.757 2.094 2.838 3.479 2.365 1.385-.473 2.027-2.263 1.486-4.054ZM59.238 63.394c1.622-.304 2.635-2.23 2.297-4.29-.337-2.095-1.925-3.547-3.513-3.243-1.621.27-2.635 2.195-2.297 4.29.338 2.06 1.926 3.513 3.513 3.243ZM72.584 62.28c-1.385-.44-2.94.608-3.48 2.398s.135 3.58 1.52 4.054c1.352.473 2.906-.608 3.446-2.365.54-1.79-.101-3.615-1.486-4.088ZM65.76 63.394c1.656.304 3.243-1.183 3.581-3.277.338-2.095-.675-4.054-2.33-4.358-1.622-.27-3.21 1.182-3.548 3.277-.337 2.128.676 4.054 2.297 4.358Z"/><path stroke="#0C0C0C" stroke-linecap="round" stroke-linejoin="round" stroke-width="2.5" d="M22.907 75.209c-2.21 4.71-7.046 7.041-10.822 5.223C8.309 78.613 7.019 73.39 9.23 68.68c2.21-4.71 7.045-7.041 10.821-5.222 3.777 1.818 5.02 7.088 2.856 11.751ZM35.156 38.741l6.724-14.41C44.873 17.897 51.043 13.607 57.996 13L40.59 50.306"/><path stroke="#0C0C0C" stroke-linecap="round" stroke-linejoin="round" stroke-width="2.5" d="m35.158 61.918-7.322 15.669C24.06 85.654 15.725 89.665 9.232 86.54 2.739 83.462.529 74.37 4.305 66.302c3.776-8.068 12.11-12.078 18.604-8.954a11.49 11.49 0 0 1 2.67 1.866l4.145-8.907"/><path stroke="#0C0C0C" stroke-linecap="round" stroke-linejoin="round" stroke-width="2.5" d="M37.18 66.287 12.316 13c6.954.606 13.125 4.896 16.118 11.332l12.884 28.184M34.332 48.54l.36.78M2 42.754l1.197-1.213M8.492 36.13l1.244-1.212M9.736 42.754 8.492 41.54M3.197 36.13 2 34.918"/></svg>