<svg xmlns="http://www.w3.org/2000/svg" viewBox="0 0 72 72" fill="none"><g clip-path="url(#a)"><path d="M57.078 64.844c4.282 0 7.766-3.484 7.766-7.766s-3.484-7.766-7.766-7.766-7.766 3.484-7.766 7.766 3.484 7.766 7.766 7.766Zm0-13.313a5.553 5.553 0 0 1 5.547 5.547c0 3.06-2.49 5.547-5.547 5.547a5.553 5.553 0 0 1-5.547-5.547c0-3.06 2.49-5.547 5.547-5.547Z"/><path d="M42.062 53.64c0 3.22.793 7.257 1.855 9.542 2.175 5.519 6.452 8.319 12.718 8.319 8.196 0 14.866-6.67 14.866-14.866 0-7.972-6.253-13.756-14.866-13.756-9.791 0-12.986-5.26-13.113-5.478a1.196 1.196 0 0 0-.155-.211L9.298.85a1.11 1.11 0 0 0-1.92.759c0 21.413 14.28 32.649 24.707 40.85 5.575 4.386 9.977 7.847 9.977 11.18ZM9.695 4.519l31.977 34.106c.595.941 4.535 6.472 14.963 6.472 7.329 0 12.647 4.853 12.647 11.538 0 6.976-5.673 12.647-12.647 12.647-5.336 0-8.822-2.263-10.679-6.976-.812-1.744-1.675-5.376-1.675-8.666 0-4.409-4.777-8.168-10.823-12.925C23.88 33.181 10.933 23 9.695 4.52ZM7.156 57.078c0 4.282 3.484 7.766 7.766 7.766s7.765-3.484 7.765-7.766-3.483-7.766-7.765-7.766-7.766 3.484-7.766 7.766Zm13.313 0c0 3.06-2.49 5.547-5.547 5.547a5.553 5.553 0 0 1-5.547-5.547c0-3.06 2.49-5.547 5.547-5.547a5.553 5.553 0 0 1 5.547 5.547Z"/><path d="M46.283 34.827a1.109 1.109 0 1 0 1.496 1.637C55.622 29.32 64.624 18.903 64.624 1.61a1.11 1.11 0 0 0-1.92-.759l-24.228 25.84a1.11 1.11 0 0 0 1.62 1.517L62.313 4.512c-.945 14.71-8.977 23.887-16.03 30.315ZM24.709 42.426a1.107 1.107 0 1 0-.801-2.066c-.511.204-1.017.42-1.518.648-1.872.832-4.204 1.87-7.024 1.87C6.752 42.878.5 48.663.5 56.635.5 64.83 7.17 71.5 15.366 71.5c6.265 0 10.543-2.8 12.689-8.258 1.122-2.407 1.289-7.677 1.289-10.601 0-.597 1.69-1.87 2.702-2.632.934-.7 1.9-1.428 2.565-2.178a1.11 1.11 0 0 0-1.66-1.474c-.519.588-1.393 1.245-2.24 1.882-1.844 1.389-3.586 2.698-3.586 4.402 0 4.597-.404 8.212-1.107 9.727-1.83 4.65-5.316 6.913-10.652 6.913A12.66 12.66 0 0 1 2.719 56.635c0-6.688 5.318-11.538 12.647-11.538 3.292 0 5.97-1.194 7.927-2.066.506-.226.979-.434 1.416-.605ZM36 39.973a1.788 1.788 0 1 0 0-3.577 1.788 1.788 0 0 0 0 3.577Z"/></g><defs><clipPath id="a"><path fill="#fff" d="M.5.5h71v71H.5z"/></clipPath></defs></svg>