<svg xmlns="http://www.w3.org/2000/svg" viewBox="0 0 80 80" fill="none"><path fill="#000" d="M54.4 4H25.6c-4.408 0-8 3.592-8 8v56c0 4.408 3.592 8 8 8h28.8c4.408 0 8-3.592 8-8V12c0-4.408-3.592-8-8-8ZM20.8 15.2h38.4V60H20.8V15.2Zm4.8-8h28.8c2.648 0 4.8 2.152 4.8 4.8H20.8c0-2.648 2.152-4.8 4.8-4.8Zm28.8 65.6H25.6a4.804 4.804 0 0 1-4.8-4.8v-4.8h38.4V68c0 2.648-2.152 4.8-4.8 4.8Z"/><path fill="#000" d="M40 69.6a1.6 1.6 0 1 0 0-3.2 1.6 1.6 0 0 0 0 3.2ZM38.872 44.328c.312.312.72.472 1.128.472.408 0 .816-.16 1.128-.472l6.4-6.4a1.603 1.603 0 0 0 0-2.264 1.603 1.603 0 0 0-2.264 0L41.6 39.336V24c0-.88-.72-1.6-1.6-1.6-.88 0-1.6.72-1.6 1.6v15.336l-3.672-3.672a1.603 1.603 0 0 0-2.264 0 1.603 1.603 0 0 0 0 2.264l6.408 6.4ZM52.8 44.8c-.88 0-1.6.72-1.6 1.6V48c0 .88-.72 1.6-1.6 1.6H30.4c-.88 0-1.6-.72-1.6-1.6v-1.6c0-.88-.72-1.6-1.6-1.6-.88 0-1.6.72-1.6 1.6V48c0 2.648 2.152 4.8 4.8 4.8h19.2c2.648 0 4.8-2.152 4.8-4.8v-1.6c0-.88-.72-1.6-1.6-1.6Z"/></svg>