<svg xmlns="http://www.w3.org/2000/svg" viewBox="0 0 100 100" fill="none"><g stroke-linecap="round" stroke-linejoin="round" clip-path="url(#a)"><path stroke="#0C0C0C" stroke-miterlimit="10" stroke-width="2.5" d="m2.348 73.42 5.956-5.956 5.957 5.957"/><path stroke="#0C0C0C" stroke-miterlimit="10" stroke-width="2.5" d="M8.304 67.464v19.855h13.899M97.653 27.753l-5.956 5.957-5.957-5.957"/><path stroke="#0C0C0C" stroke-miterlimit="10" stroke-width="2.5" d="M91.697 33.71V13.855h-13.9M51.26 1.587h12.877a3.945 3.945 0 0 1 3.945 3.947v25.871M1 16.714V5.534a3.946 3.946 0 0 1 3.947-3.947h39.477M1.001 25.92V37.1a3.945 3.945 0 0 0 3.946 3.947H44.16"/><path stroke="#0C0C0C" stroke-miterlimit="10" stroke-width="2.5" d="M44.16 35.127H12.839c0-3.269-2.65-5.918-5.92-5.918V13.425c3.27 0 5.92-2.65 5.92-5.92h43.405c0 3.27 2.65 5.92 5.92 5.92V28.37"/><path stroke="#0C0C0C" stroke-miterlimit="10" stroke-width="2.5" d="M34.541 29.209a7.892 7.892 0 1 0 0-15.784 7.892 7.892 0 0 0 0 15.784Z"/><path stroke="#C1121F" stroke-width="2" d="M57.5 50.587c6.351 0 11.5-5.149 11.5-11.5s-5.149-11.5-11.5-11.5S46 32.736 46 39.087s5.149 11.5 11.5 11.5Z"/><path stroke="#C1121F" stroke-width="2" d="M57.342 45.491c-.258-.153-6.342-3.75-6.342-7.556 0-1.856 1.566-3.348 3.468-3.348 1.288 0 2.438.689 3.032 1.74.594-1.051 1.764-1.74 3.032-1.74 1.922 0 3.468 1.492 3.468 3.348 0 3.807-6.084 7.403-6.342 7.556l-.158.096-.158-.096Z"/><path stroke="#0C0C0C" stroke-miterlimit="10" stroke-width="2.5" d="M31 67.587h66"/><path stroke="#C1121F" stroke-miterlimit="10" stroke-width="2.5" d="M53 83.587h5.957M41 83.587h5.957"/><path stroke="#0C0C0C" stroke-miterlimit="10" stroke-width="2.5" d="M81.26 56.587h12.877a3.945 3.945 0 0 1 3.945 3.947v25.871M31 71.714v-11.18a3.946 3.946 0 0 1 3.947-3.947h39.477M31.001 80.92V92.1a3.945 3.945 0 0 0 3.946 3.947H74.16"/><path stroke="#C1121F" stroke-width="2" d="M84.5 99.587c6.904 0 12.5-5.597 12.5-12.5 0-6.904-5.596-12.5-12.5-12.5S72 80.183 72 87.087c0 6.903 5.596 12.5 12.5 12.5Z"/><path stroke="#C1121F" stroke-width="2.5" d="M90.334 83.587 83 90.92l-3.333-3.333"/></g><defs><clipPath id="a"><path fill="#fff" d="M0 .587h100v100H0z"/></clipPath></defs></svg>