<svg xmlns="http://www.w3.org/2000/svg" viewBox="0 0 90 87" fill="none"><path stroke="#0C0C0C" stroke-linecap="round" stroke-linejoin="round" stroke-width="2.5" d="M30.45 69.9c0-1.164.477-2.365 1.434-3.267l8.938-8.035c1.95-1.803 5.076-1.803 7.026 0 1.95 1.802 1.95 4.731 0 6.534l-8.902 8.035c-1.95 1.802-5.113 1.802-7.062 0-.957-.901-1.435-2.065-1.435-3.267Z"/><path stroke="#0C0C0C" stroke-linecap="round" stroke-linejoin="round" stroke-width="2.5" d="M38.508 75.38c0-1.163.515-2.327 1.471-3.228l7.578-6.91c1.949-1.802 5.076-1.802 7.025 0 1.95 1.803 1.95 4.732 0 6.534l-7.577 6.872c-1.95 1.802-5.076 1.802-7.026 0-.956-.901-1.471-2.066-1.471-3.267ZM22.875 64.079c0-1.164.478-2.328 1.434-3.23l9.601-8.786c1.95-1.803 5.076-1.803 7.026 0 1.949 1.802 1.949 4.731 0 6.533l-9.6 8.75c-1.914 1.802-5.077 1.802-7.026 0-.957-.902-1.435-2.066-1.435-3.267Z"/><path stroke="#0C0C0C" stroke-linecap="round" stroke-linejoin="round" stroke-width="2.5" d="M15.406 58.034c0-1.164.478-2.366 1.472-3.267l9.563-8.75c1.95-1.802 5.113-1.802 7.026 0 1.95 1.803 1.95 4.694 0 6.534l-9.564 8.75c-1.95 1.802-5.113 1.802-7.025 0-.994-.902-1.472-2.066-1.472-3.267ZM45.2 18.381l-11.99 12.28c-.993 1.013-1.472 2.327-1.472 3.679a5.17 5.17 0 0 0 1.472 3.642c1.986 1.99 5.186 1.99 7.136 0l11.513-11.678c.171-.175.319-.35.441-.525a.44.44 0 0 0 .074-.113L75.657 49.66c3.274 3.192 2.244 5.257 2.244 5.257 8.534-10.364 14.088-26.773 6.548-37.925-1.288-1.878-2.87-3.642-4.819-5.295-11.145-9.35-26.006-3.492-34.43 6.684Zm0 0c-.22.15.185-.225 0 0ZM52.188 39.973l10.336 10.739M45.016 47.107 58 60.663"/><path stroke="#0C0C0C" stroke-linecap="round" stroke-linejoin="round" stroke-width="2.5" d="M77.94 54.879a4.993 4.993 0 0 1-1.434 3.041c-.993 1.014-2.28 1.615-3.568 1.502-1.656-.112-2.354-1.088-3.715-2.102M69.223 57.32c-.552-.45-5.407-5.52-5.922-5.82M69.22 57.32c.847.94.736 3.042.736 3.08-.074 1.614-.81 2.665-1.802 3.604-.221.2-.466.4-.736.601a5.05 5.05 0 0 1-2.906.901c-.552 0-1.103-.037-1.618-.263-.515-.225-.993-.488-1.398-.863-.589-.488-1.067-1.164-1.619-1.728a100.769 100.769 0 0 1-1.875-1.99c.478.526 1.802 1.99 2.28 2.629.025.05.05.087.074.112 1.508 2.103 2.538 4.694.073 7.022-1.03.976-2.28 1.502-3.568 1.502a5.09 5.09 0 0 1-1.986-.413"/><path stroke="#0C0C0C" stroke-linecap="round" stroke-linejoin="round" stroke-width="2.5" d="M63.3 51.5c.369.3 5.334 5.37 5.923 5.82M45.202 18.343c-8.424-10.138-23.284-15.996-34.43-6.646-1.986 1.652-3.567 3.417-4.818 5.295-7.577 11.152-3.384 25.684 5.15 36.01l4.303 4.956"/></svg>