<svg xmlns="http://www.w3.org/2000/svg" viewBox="0 0 100 100" fill="none"><path stroke="#0C0C0C" stroke-linecap="round" stroke-linejoin="round" stroke-width="2.5" d="M90.26 48.922 51.32 17.554a2.165 2.165 0 0 0-2.64 0L9.74 48.922c-1.8 1.437-4.32 1.437-6.06 0-2.28-1.915-2.22-5.447.06-7.303l35.28-28.495 7.32-5.867a5.698 5.698 0 0 1 7.14 0L71.3 21.625c.48.419 1.2.06 1.2-.6v-8.44c0-1.018.84-1.796 1.86-1.796h9.9c1.02 0 1.8.778 1.8 1.796v20.354c0 .24.12.479.3.598l9.9 8.082c2.28 1.856 2.34 5.388.06 7.244l-.06.06a4.715 4.715 0 0 1-6 0Z"/><path stroke="#0C0C0C" stroke-linecap="round" stroke-linejoin="round" stroke-width="2.5" d="M86 50v34.269C86 89.642 81.515 94 75.986 94H24.014C18.484 94 14 89.642 14 84.269V50"/><path stroke="#C1121F" stroke-linecap="round" stroke-linejoin="round" stroke-width="2.5" d="M50 42.027V43.4M50 77.04v1.37M68.207 60.203h-1.371M33.163 60.203H31.82M59.103 44.45l-.7 1.195M65.759 69.308l-1.197-.671M35.438 51.8l-1.196-.671M40.898 44.45l.7 1.195M58.402 74.793l.7 1.167M34.546 69.308l1.196-.671M41.902 74.793l-.7 1.167M65.759 51.129l-1.197.671"/><path stroke="#0C0C0C" stroke-linecap="round" stroke-linejoin="round" stroke-width="2.5" d="m56.74 54.37-6.39 6.39-8.725-8.725"/><circle cx="50" cy="60" r="22.75" stroke="#0C0C0C" stroke-width="2.5"/></svg>