<svg  viewBox="0 0 100 101" fill="none" xmlns="http://www.w3.org/2000/svg">
<g id="Tips">
<path id="&#60;Path&#62;" d="M43.6146 24.8418C33.0724 27.0105 24.217 32.4924 19.6387 39.6611" stroke="#0C0C0C" stroke-width="2" stroke-linecap="round" stroke-linejoin="round"/>
<path id="&#60;Path&#62;_2" d="M56.1445 76.408C63.3132 76.0466 70.1204 74.1791 75.9036 70.9863" stroke="#0C0C0C" stroke-width="2" stroke-linecap="round" stroke-linejoin="round"/>
<path id="&#60;Path&#62;_3" d="M48.9764 83.5163C50.5828 83.6368 52.2093 83.697 53.8559 83.697C63.374 83.6367 72.1691 81.2873 79.3981 77.3717C88.6752 83.1548 98.1933 83.5163 98.1933 83.5163C98.1933 83.5163 92.0487 76.5283 90.7836 68.3355C95.3619 62.9741 98.0126 56.6488 97.9523 49.8416C97.8318 31.2873 77.8318 16.4078 53.374 16.5885C32.5306 16.709 15.121 27.6729 10.4824 42.3717" stroke="#0C0C0C" stroke-width="2" stroke-linecap="round" stroke-linejoin="round"/>
<path id="&#60;Path&#62;_4" d="M1.80664 83.5158C1.80664 83.5158 5.36088 79.4796 6.08377 74.7206C3.43317 71.6483 1.92713 67.9736 1.92713 64.0579C2.04761 53.335 13.5536 44.7206 27.7103 44.8411C41.8669 44.9616 53.3127 53.6965 53.2524 64.4194C53.132 75.1423 41.6259 83.7567 27.4693 83.6363C21.9271 83.576 16.8669 82.2507 12.65 79.9616C7.34881 83.3351 1.80664 83.5158 1.80664 83.5158Z" stroke="#0C0C0C" stroke-width="2" stroke-linecap="round" stroke-linejoin="round"/>
<path id="&#60;Path&#62;_5" d="M18.7354 64.1797H36.2655" stroke="#C1121F" stroke-width="2" stroke-linecap="round" stroke-linejoin="round"/>
</g>
</svg>
