<svg xmlns="http://www.w3.org/2000/svg" viewBox="0 0 104 80" fill="none"><path d="M5.193 28.514c.604-3.335 1.111-6.598 2.164-9.744 1.857-5.548 4.517-10.627 9.017-14.619.48-.424.677-.684.08-1.162-.421-.337-.7-.842-1.108-1.202-.521-.455-.794-1.028-.32-1.523.548-.576 1.103-.094 1.524.35 2.671 2.82 5.898 4.898 9.322 6.737 3.682 1.98 7.71 2.685 11.802 3.183 7.824.95 12.766 4.278 15.233 12.84 1.06 3.685.773 7.063-1.29 10.354-.88 1.405-.304 2.937.168 4.386.805 2.462 1.888 4.826 2.561 7.34.935 3.502-.556 5.658-4.248 6.227-1.85.287-3.727.505-5.54 1.061-1.514.462-2.932.118-4.31-.646-3.188-1.779-6.273-3.658-8.944-6.181-1.48-1.398-2.278-2.971-2.527-4.895-.041-.326-.01-.768-.345-.902-.441-.179-.497.347-.721.562-1.146 1.112-2.26 2.237-3.751 2.964-3.05 1.493-4.259-.01-4.915-2.826-.472-2.027-1.363-3.85-2.184-5.722-.172-.398-.549-.388-.839-.502-2.684-1.058-5.387-2.078-8.078-3.126-2.413-.94-4.818-1.89-7.216-2.86-.442-.178-.856-.515-.69-1.06.19-.624.724-.671 1.262-.482 1.284.454 2.554.943 3.897 1.445l-.004.003Zm10.48 4.106c-.03-.522.011-.866-.079-1.172-.58-1.947-.069-3.722.86-5.437.331-.61.52-1.243.438-1.93-.145-1.219.259-2.317.794-3.378.79-1.563 1.832-2.917 3.547-3.607.432-.172.974-.223 1.201.363.19.492.031.886-.476 1.135-2.336 1.156-3.292 3.14-3.427 5.575-.055.973-.252 1.86-.683 2.762-.645 1.35-1.104 2.681-.6 4.328 1.097 3.594 3.202 6.824 3.882 10.566.1.553.597 1.028 1.477.627 2.005-.913 3.54-2.257 4.652-4.11 2.078-3.465 4.473-6.685 7.768-9.161 1.256-.943 1.988-2.041 1.695-3.645-.09-.485-.056-.973.614-1.007.618-.03.935.317 1.011.906.231 1.82-.207 3.355-1.74 4.568-2.694 2.135-5.069 4.567-6.818 7.525-.166.276-.598.505-.19.966.704.799.807 1.836.931 2.82.18 1.407.863 2.482 1.912 3.428 2.523 2.278 5.305 4.154 8.345 5.73 1.263.653 2.367.717 3.758.603 2.399-.196 3.234-1.28 3.423-3.507.187-2.206 1.712-3.162 3.952-2.923.1.01.214-.06.417-.128-.7-1.92-1.363-3.803-2.08-5.669-.911-2.375-1.112-4.625.396-6.935 1.015-1.553 1.553-3.389 1.212-5.289-.273-1.519-.57-3.041-1.108-4.506-1.919-5.238-5.425-8.664-11.226-9.59-1.95-.31-3.907-.58-5.86-.872-3.668-.55-7.057-1.917-10.26-3.726-.597-.337-1.1-.3-1.59.253-1.009 1.135-1.995 2.284-2.855 3.53-3.768 5.473-5.746 11.594-6.905 18.02-.18.997-.063 1.684 1.139 1.94.78.166 1.508.57 2.467.95l.007-.003Zm-8.64-4.567c-.107.767.02 1.337.955 1.482.411.064.825.242 1.184.454.894.532 1.236.145 1.36-.7.041-.29.107-.576.148-.87.418-3.122 1.332-6.12 2.45-9.057 1.74-4.567 4.097-8.784 7.555-12.351.234-.243.459-.499.159-.724-.742-.56-1.484-1.213-2.344-1.5-.552-.185-.966.688-1.508 1.001-.103.06-.152.202-.241.29-6.167 6.1-8.473 13.82-9.718 21.978v-.004Zm45.805 19.984c-.035-.576.08-1.055-.497-1.391-.71-.415-1.367-.708-2.091-.102-.435.368-1.215 2.948-.925 3.261.697.755 1.287-.135 1.936-.219.317-.044.624-.239.914-.404.48-.273.746-.67.663-1.142v-.003ZM90.03 39.458c.155.781 1.073 1.499.117 2.007-.89.472-1.25-.461-1.691-.97a7.115 7.115 0 0 0-3.358-2.182c-2.799-.856-4.486-2.762-5.328-5.44-.207-.664-.176-1.496-1.219-1.485-1.038.006-1.77.46-2.257 1.38-.676 1.277-.22 2.527.214 3.658.822 2.143 1.805 4.241 3.655 5.794.47.394.704.89.214 1.411-.514.546-1 .078-1.339-.212-2.178-1.89-3.33-4.375-4.296-6.993-.763-2.068-.611-3.937.89-5.608.656-.727.093-1.37-.08-1.997-.61-2.206-1.273-4.41-2.357-6.45-.224-.425-.338-1.186-1.131-.937-.677.212-.85.87-.818 1.442.114 2.22.628 4.378 1.204 6.524.031.118.152.226.159.34.038.613.562 1.432-.4 1.715-.98.286-1.046-.633-1.253-1.223-.78-2.23-1.074-4.564-1.47-6.868-.242-1.391.393-2.567 1.587-3.324.639-.408.808-.85.573-1.462-.21-.546-.031-1.371-.915-1.492-.707-.098-1.249.283-1.622.818-1.363 1.964-1.187 4.16-.81 6.316.745 4.24 1.7 8.437 3.154 12.51 1.59 4.46 3.968 8.491 7.185 12.018 2.184 2.395 5.045 2.553 7.789 1.4 1.735-.727 3.35-.578 4.993-.39 2.695.307 5.401.411 8.1.64 1.197.101 2.388.28 3.582.401.531.054.935.209.894.822-.038.613-.501.771-.998.74-2.015-.127-4.03-.289-6.046-.447-2.74-.219-5.48-.482-8.224-.66-1.176-.078-2.146.7-3.285.943-4.403.943-7.354-1.085-9.749-4.291-2.575-3.45-4.693-7.138-6.026-11.237-.983-3.031-1.739-6.11-2.446-9.209-.539-2.354-.942-4.695-.728-7.094.176-1.98.817-3.765 2.909-4.658 1.573-.674 2.892-.195 3.561 1.327.118.27.221.55.29.832.956 3.833 3.344 7.151 4.165 11.031.125.58.373.886 1.129.826 1.356-.108 2.233.555 2.62 1.89.482 1.65.99 3.33 2.653 4.28 1.146.654 2.423 1.03 3.7 1.317 4.003.9 8.075 1.095 12.171.906.987-.043 1.978-.09 2.965-.131.538-.024.828.344.832.765.003.41-.252.778-.798.798-2.788.104-5.566.525-8.375.165-1.384-.179-2.796-.172-4.293-.253l.007-.003ZM51.937 74.094c-.072-2.105.928-3.718 2.799-4.81.89-.518 1.25-1.226 1.48-2.182.687-2.843 1.464-5.663 2.271-8.475.294-1.017.183-1.799-.531-2.658-2.12-2.543-1.19-5.736 1.867-6.598 1.563-.441 2.923.084 3.951 1.212.635.698 1.225.907 2.13.67 1.221-.313 2.398-.04 3.426.648 2.14 1.431 2.313 3.617.235 5.328-1.17.964-1.48 1.98-1.408 3.365.114 2.136.097 4.281.103 6.42 0 .97.29 1.718 1.046 2.432 1.34 1.266 2.716 2.6 2.899 4.567.217 2.341-1.015 4.012-2.92 5.198-1.908 1.189-3.892.892-5.68-.283-.966-.633-1.65-.637-2.643-.03-1.82 1.104-3.866 1.569-5.853.491-2.033-1.105-3.203-2.853-3.165-5.291l-.007-.004Zm1.626-.141c-.049 3.19 2.619 5.019 5.545 3.984.742-.262 1.357-.697 2.037-1.037.8-.4 1.508-.445 2.291.034.718.438 1.456.879 2.247 1.169 1.4.515 2.681.08 3.602-.964.943-1.068 1.812-2.226.96-3.836-.563-1.068-1.312-1.964-2.181-2.759-1.08-.987-1.57-2.129-1.522-3.57a58.355 58.355 0 0 0-.035-5.036c-.127-2.439-.19-4.817 2.326-6.312.07-.04.107-.131.163-.195.538-.63.438-1.173-.121-1.769-.766-.815-1.712-.96-2.713-.768-1.539.297-2.709-.09-3.748-1.287-.942-1.087-2.505-.98-3.378.048-.808.946-.763 2.115.341 3.418 1.119 1.317 1.153 2.655.667 4.214-.687 2.193-1.229 4.433-1.785 6.663-.496 1.99-.87 3.957-3.057 5.052-1.118.56-1.677 1.742-1.636 2.954l-.003-.003Z"/><path d="M42.592 30.646c-.473.03-.946.078-1.419.085-.338.006-.71.03-.787-.445-.062-.4-.037-.761.4-.957 1.164-.518 2.344-.495 3.504-.027.355.145.62.465.483.913-.131.435-.456.566-.894.522-.428-.043-.86-.06-1.287-.09Z"/></svg>