<svg xmlns="http://www.w3.org/2000/svg" viewBox="0 0 102 100" fill="none"><path stroke="#0C0C0C" stroke-linecap="round" stroke-linejoin="round" stroke-width="2.5" d="M27.2 30.887a29.18 29.18 0 0 1 1.643.14c7.348.795 16.097 5.47 18.08 11.642 1.353 4.207 14.5 5.61 17.353 7.387 1.74 1.075 3.142 2.898.87 5.89-.29.421-.532.842-.628 1.357-.339 1.496-1.789 4.768-5.946 6.872C53.206 66.887 40.27 62.995 36.5 68c-4.592 6.124-4 17.5-4 17.5"/><path stroke="#0C0C0C" stroke-linecap="round" stroke-linejoin="round" stroke-width="2.5" d="M1.999 83.5s5.48-10.13 6.491-36.248c1.837-12.156 8.073-21.834 15.517-27.117 0 0 3.626 8.322 3.626 15.756M55.987 28.006c1.274-1.77 4.029-2.095 6.102-.69l9.637 6.57M55.705 27.618l.03.013"/><path stroke="#0C0C0C" stroke-linecap="round" stroke-linejoin="round" stroke-width="2.5" d="m55.699 27.683-16.77-1.922c-2.468-.278-4.259-2.056-3.975-4.228.3-2.131 2.521-3.69 4.96-3.426l26.231 2.82 1.174.446 18.023 11.55s2.342.755 6.574-.061"/><path stroke="#0C0C0C" stroke-linecap="round" stroke-linejoin="round" stroke-width="2.5" d="M55.946 28.043c-1.274 1.778-.655 4.347 1.39 5.732l6.862 4.666s5.337 4.658 11.555 6.222M99.148 45.524l-.032-12.956c-.003-1.467-1.231-2.625-2.735-2.58l-1.505.047c-1.467.045-2.656 1.221-2.681 2.653l-.2 11.544"/><path fill="#C1121F" d="m82.012 77.313 10.556-11.96c.447-.503.473-1.233.053-1.787-.525-.655-1.523-.756-2.18-.227l-10.083 8.233a.507.507 0 0 1-.683 0l-4.884-2.97a1.885 1.885 0 0 0-2.258.251 1.669 1.669 0 0 0-.08 2.367l5.647 6.118c1.05 1.133 2.888 1.108 3.912-.025Z"/><path stroke="#C1121F" stroke-linecap="round" stroke-linejoin="round" stroke-width="2.5" d="M93.247 57.866c-3.131-2.385-7.062-3.867-11.326-3.867C71.995 54 64 61.732 64 71.334c0 9.6 7.995 17.333 17.921 17.333 9.86 0 17.922-7.732 17.922-17.333 0-3.222-.933-6.186-2.466-8.764 2.332-4.123 2.466-8.054 2.466-8.054s-2.998 2.513-6.596 3.35Z"/></svg>