<svg xmlns="http://www.w3.org/2000/svg" viewBox="0 0 102 99" fill="none"><path stroke="#0C0C0C" stroke-linecap="round" stroke-linejoin="round" stroke-width="2.5" d="M37.352 19.07 12.723 43.636a3.698 3.698 0 0 1-5.269 0 3.772 3.772 0 0 1 0-5.33l24.568-24.568a3.772 3.772 0 0 1 5.33 0 3.772 3.772 0 0 1 0 5.33ZM19.707 26.053l-9.313-9.373M2 25.074 18.725 8.287M77.479 62.995c.918 1.777.612 4.043-.92 5.575L62.225 82.845c-1.838 1.899-4.902 1.899-6.8 0L14.497 41.92m21.137-21.137 3.43 3.431m-2.39 39.945 6.31-6.31m.675 13.233 6.31-6.249m.675 13.233 6.249-6.31m17.215-.735 4.84 4.9a2.961 2.961 0 0 1 0 4.29l-5.024 5.084c-1.164 1.164-3.124 1.164-4.35 0l-4.84-4.9m11.702 2.389 14.03 14.03M22.768 50.19l6.31-6.25m.674 13.234 6.31-6.31M4.512 59.32l1.163 1.164m5.086 5.085 1.164 1.164m-7.413 0 1.163-1.164m5.086-5.085 1.164-1.164m22.484 23.342.368-.368m-5.514 5.576.306-.368m0-4.84-.306-.368m5.514 5.576-.368-.368M78.52 56.747c-14.948 3.43-29.835-5.882-33.266-20.83-3.43-14.888 5.882-29.775 20.83-33.206C81.033-.719 95.86 8.593 99.29 23.541c3.431 14.887-5.882 29.775-20.77 33.206Z"/><path stroke="#C1121F" stroke-linecap="round" stroke-linejoin="round" stroke-width="2.5" d="M80.297 35.427c-.326 0-.653.04-.98.122-.49.123-1.103-2.083-2.88-4.227-1.163-1.348-2.695-2.205-4.35-2.205-1.653 0-3.124.796-4.288 2.144-1.777 2.083-2.328 4.288-2.757 4.227a4.459 4.459 0 0 0-.735-.061c-2.696 0-4.901 2.88-4.901 6.433s2.206 6.432 4.901 6.432c.858 0 2.818-.612 3.676-.919 2.39-.918 6.8-.796 8.516-.122.919.429 2.88 1.041 3.798 1.041 2.696 0 4.84-2.879 4.84-6.432 0-3.554-2.144-6.433-4.84-6.433ZM60.325 27.278c-.98-3.186-3.799-5.146-6.31-4.288-2.451.857-3.676 4.104-2.696 7.351s3.798 5.146 6.249 4.35c2.512-.858 3.737-4.166 2.757-7.413ZM66.39 24.95c2.88-.49 4.717-3.982 4.104-7.78-.612-3.737-3.43-6.372-6.371-5.882-2.88.552-4.779 4.044-4.166 7.781.674 3.798 3.492 6.433 6.433 5.881ZM90.59 22.99c-2.512-.858-5.33 1.102-6.31 4.288-.98 3.247.245 6.555 2.695 7.413 2.512.796 5.33-1.103 6.31-4.35.98-3.247-.244-6.494-2.695-7.352ZM78.214 25.011c2.94.49 5.82-2.144 6.433-5.942.674-3.86-1.225-7.352-4.166-7.904-2.94-.551-5.82 2.145-6.494 5.943-.613 3.799 1.286 7.352 4.227 7.903Z"/></svg>