<svg xmlns="http://www.w3.org/2000/svg" viewBox="0 0 95 101" fill="none"><path stroke="#C1121F" stroke-linecap="round" stroke-linejoin="round" stroke-width="2.404" d="M22.203 79.885v18.268M49.328 61.016l-2.625 1.742c-3.812 2.584-8.937 2.584-12.75 0l-2.625-1.742M58.14 83.127l.313 15.026M11.39 69.85a20.065 20.065 0 0 0-2.624 4.206C7.14 77.481 6.39 81.688 6.39 86.676v6.13c0 2.944 2.5 5.348 5.562 5.348h54.625"/><path stroke="#0C0C0C" stroke-linecap="round" stroke-linejoin="round" stroke-width="2.404" d="M58.203 28.266c0 10.516-8 24.578-17.875 24.578S22.453 38.782 22.453 28.266M19.703 27.604c10.875 0 17.75-9.795 17.75-9.795s9.5 9.795 24.563 9.795"/><path stroke="#0C0C0C" stroke-linecap="round" stroke-linejoin="round" stroke-width="2.404" d="M40.328 4.528C28.016-4.186 4.078 9.455 16.141 48.156 20.703 62.699 2.516 68.468 2.516 68.468s28.75 8.713 31.75-17.428M40.328 4.528c12.313-8.714 36.25 4.927 24.188 43.628-.911 2.904-1.09 5.55-.792 7.928M46.391 51.04c.968 8.441 2.551 9.887 6.437 12.857"/><path stroke="#0C0C0C" stroke-linecap="round" stroke-linejoin="round" stroke-width="2.404" d="M69.07 55.488c-.437.025-.875.063-1.312.113-5.868.638-12.856 4.394-14.44 9.352-1.08 3.38-11.581 4.507-13.859 5.934-1.39.864-2.51 2.329-.695 4.733.232.338.425.676.502 1.089.27 1.202 1.429 3.83 4.749 5.521 4.285 2.178 16.64-1.465 19.65 2.554 3.668 4.92 3.9 13.37 3.9 13.37M92.82 87.337s-6.622-5.06-8.678-18.68c-1.446-9.675-6.356-17.378-12.217-21.583 0 0-2.855 6.624-2.855 12.54"/></svg>