<svg  viewBox="0 0 100 101" fill="none" xmlns="http://www.w3.org/2000/svg">
<path d="M89.1385 25.4258H94.1458C96.8538 25.4258 98.9998 27.6229 98.9998 30.2798V79.2798C98.9998 81.9367 96.8538 84.0827 94.1458 84.0827H64.6641" stroke="#0C0C0C" stroke-width="2" stroke-linecap="round" stroke-linejoin="round"/>
<path d="M57.2051 25.4258L84.2854 25.4258" stroke="#0C0C0C" stroke-width="2" stroke-linecap="round" stroke-linejoin="round"/>
<path d="M48.0078 25.4258L52.6064 25.4258" stroke="#0C0C0C" stroke-width="2" stroke-linecap="round" stroke-linejoin="round"/>
<path d="M45.9639 34.623L98.5916 34.6231" stroke="#0C0C0C" stroke-width="2" stroke-linecap="round" stroke-linejoin="round"/>
<path d="M57.767 21.3379C57.767 19.9073 56.5918 18.7832 55.1612 18.7832C53.7305 18.7832 52.6064 19.9073 52.6064 21.3379V28.2358" stroke="#0C0C0C" stroke-width="2" stroke-linecap="round" stroke-linejoin="round"/>
<path d="M89.6498 21.3379C89.6498 19.9073 88.4747 18.7832 87.044 18.7832C85.6133 18.7832 84.4893 19.9073 84.4893 21.3379V28.2358" stroke="#0C0C0C" stroke-width="2" stroke-linecap="round" stroke-linejoin="round"/>
<path d="M70.7451 44.3311H74.5772" stroke="#0C0C0C" stroke-width="2" stroke-linecap="round" stroke-linejoin="round"/>
<path d="M82.2412 44.3311H86.0733" stroke="#0C0C0C" stroke-width="2" stroke-linecap="round" stroke-linejoin="round"/>
<path d="M59.248 44.3311H63.0802" stroke="#0C0C0C" stroke-width="2" stroke-linecap="round" stroke-linejoin="round"/>
<path d="M70.7451 51.9951H74.5772" stroke="#0C0C0C" stroke-width="2" stroke-linecap="round" stroke-linejoin="round"/>
<path d="M82.2412 51.9951H86.0733" stroke="#0C0C0C" stroke-width="2" stroke-linecap="round" stroke-linejoin="round"/>
<path d="M59.248 51.9951H63.0802" stroke="#0C0C0C" stroke-width="2" stroke-linecap="round" stroke-linejoin="round"/>
<path d="M70.7451 59.6592H74.5772" stroke="#0C0C0C" stroke-width="2" stroke-linecap="round" stroke-linejoin="round"/>
<path d="M70.7451 67.3232H74.5772" stroke="#0C0C0C" stroke-width="2" stroke-linecap="round" stroke-linejoin="round"/>
<path d="M82.2412 59.6592H86.0733" stroke="#0C0C0C" stroke-width="2" stroke-linecap="round" stroke-linejoin="round"/>
<path d="M59.248 59.6592H63.0802" stroke="#0C0C0C" stroke-width="2" stroke-linecap="round" stroke-linejoin="round"/>
<path d="M59.248 67.3232H63.0802" stroke="#0C0C0C" stroke-width="2" stroke-linecap="round" stroke-linejoin="round"/>
<path d="M81.7305 64.7686L86.329 69.3671" stroke="#C1121F" stroke-width="2" stroke-linecap="round" stroke-linejoin="round"/>
<path d="M86.329 64.7686L81.7305 69.3671" stroke="#C1121F" stroke-width="2" stroke-linecap="round" stroke-linejoin="round"/>
<path d="M31.4224 34.2139C31.2521 34.5886 31.0477 34.9462 30.8093 35.2868C29.5319 37.3306 27.948 39.2212 26.313 40.9584C24.6779 42.6956 22.8896 44.2285 21.0502 45.7102C20.7947 45.9657 19.6195 46.7321 20.0283 47.2431C20.3859 47.6518 21.6122 47.3452 22.021 47.2941C24.1159 46.8854 26.1597 46.119 28.1524 45.2503C27.1816 47.3963 25.24 49.2358 23.4517 50.7175C22.3957 51.6032 21.2886 52.4036 20.1305 53.119C19.0064 53.8854 17.6268 54.4474 16.656 55.3671C15.1232 56.7467 17.729 56.8489 18.6487 56.8489C20.9991 56.7978 23.3495 56.3379 25.5465 55.5204C23.0429 58.4328 20.0794 61.1409 16.8604 63.2869C15.7363 64.0533 14.4589 64.6153 13.3859 65.4839C13.0283 65.7394 12.1597 66.3525 12.364 66.9146C12.6706 67.9876 15.3786 67.5277 16.1451 67.4766C18.3421 67.2211 20.4881 66.5569 22.583 65.8416C21.3567 67.4766 19.7728 68.9073 18.1889 70.1847C16.4005 71.6153 14.51 72.8416 12.5173 73.8635C11.2911 74.5447 10.0137 75.1409 8.68522 75.6518C8.07209 75.9073 6.53923 76.316 6.43704 77.1847C6.33485 78.0022 7.76548 78.3598 8.32752 78.5131C9.80927 78.9219 11.3932 79.0752 12.875 79.0752C15.3786 79.1774 17.9845 78.7686 20.386 78.1044C19.0575 79.3306 17.4735 80.3525 15.9407 81.2722C12.1597 83.5204 7.96987 85.2066 3.6779 86.0752C2.91148 86.2285 0.765517 86.535 1.02099 87.7613C1.32756 88.8854 3.11589 89.4985 4.0356 89.8562C8.53195 91.5934 13.6925 91.6956 18.3422 90.7248C22.1743 89.9584 25.9553 88.6299 29.3787 86.8416C29.3787 88.4255 29.3787 89.0387 29.3787 90.5715" stroke="#0C0C0C" stroke-width="2" stroke-linecap="round" stroke-linejoin="round"/>
<path d="M37.6561 90.5715C37.6561 88.8343 37.6561 88.6299 37.6561 86.8416C44.9627 90.6226 53.6999 92.6664 61.7218 90.316C63.0502 89.9073 64.7875 89.3963 65.7072 88.2722C66.4736 87.3525 65.605 86.7394 64.7364 86.4328C63.6634 86.0752 62.5393 85.9219 61.4152 85.6153C60.2571 85.3087 59.116 84.9511 57.9919 84.5423C56.0162 83.827 54.1257 82.9584 52.3204 81.9365C50.3277 80.8635 48.3861 79.6372 46.6999 78.1044C49.1014 78.7686 51.6561 79.1774 54.1598 79.0752C54.9262 79.0752 61.6196 78.7175 60.4956 76.8781C60.2401 76.4182 59.5247 76.1117 59.0649 75.9073C58.2474 75.5496 57.4298 75.243 56.6123 74.8854C55.1476 74.2382 53.717 73.4888 52.3204 72.6372C50.2766 71.3598 48.3349 69.8781 46.6488 68.192C45.8824 67.4766 45.116 66.7102 44.4517 65.8416C46.9554 66.7102 49.5612 67.4255 52.1671 67.5277C52.4396 67.5618 52.695 67.5618 52.9335 67.5277C53.4444 67.5277 54.2108 67.5277 54.5685 67.119C55.5904 66.0971 51.605 64.1555 51.0941 63.8489C48.7948 62.4693 46.6999 60.7321 44.7583 58.8416C43.6342 57.7686 42.5101 56.6956 41.4882 55.5204C43.4809 56.2868 45.5758 56.6956 47.6707 56.7978C48.1816 56.8489 51.605 57.0533 50.7875 55.7248C50.1744 54.754 48.7437 54.243 47.7729 53.681C45.5247 52.3014 43.3787 50.7175 41.4882 48.7759C41.0113 48.265 40.5515 47.737 40.1087 47.192C39.6999 46.5788 39.24 45.9146 38.9335 45.2503C40.6196 46.0168 42.4079 46.681 44.2474 47.0898C45.0138 47.2941 48.1816 47.8562 46.6488 46.2722C45.8824 45.5058 44.9116 44.8416 44.043 44.1263C43.1573 43.3428 42.3057 42.5253 41.4882 41.6737C39.24 39.4255 37.1962 36.973 35.6123 34.2139" stroke="#0C0C0C" stroke-width="2" stroke-linecap="round" stroke-linejoin="round"/>
<path d="M33.5176 9.58691L37.3498 17.3533L45.9337 18.5796L39.7001 24.6599L41.1819 33.1928L33.5176 29.1562L25.8534 33.1928L27.3352 24.6599L21.1016 18.5796L29.6855 17.3533L33.5176 9.58691Z" stroke="#C1121F" stroke-width="2" stroke-linecap="round" stroke-linejoin="round"/>
<path d="M32.0866 62.9808C32.0866 64.4626 30.8603 65.7399 29.3275 65.7399C27.7946 65.7399 26.5684 64.4626 26.5684 62.9808C26.5684 61.448 27.7946 60.2217 29.3275 60.2217C30.8603 60.2217 32.0866 61.448 32.0866 62.9808Z" stroke="#C1121F" stroke-width="2" stroke-linecap="round" stroke-linejoin="round"/>
<path d="M27.8457 52.1494C29.8895 54.1421 33.4661 56.748 39.5975 58.8939" stroke="#0C0C0C" stroke-width="2" stroke-linecap="round" stroke-linejoin="round"/>
<path d="M22.123 72.0762C25.2909 75.193 32.2399 80.2514 45.78 82.2441" stroke="#0C0C0C" stroke-width="2" stroke-linecap="round" stroke-linejoin="round"/>
<path d="M27.7946 82.0399C27.7946 83.2151 26.8749 84.0837 25.7508 84.0837C24.6267 84.0837 23.707 83.2151 23.707 82.0399C23.707 80.9158 24.6267 79.9961 25.7508 79.9961C26.8749 79.9961 27.7946 80.9158 27.7946 82.0399Z" stroke="#C1121F" stroke-width="2" stroke-linecap="round" stroke-linejoin="round"/>
<path d="M42.5095 71.8719C42.5095 72.996 41.5898 73.9157 40.4657 73.9157C39.3416 73.9157 38.4219 72.996 38.4219 71.8719C38.4219 70.6967 39.3416 69.8281 40.4657 69.8281C41.5898 69.8281 42.5095 70.6967 42.5095 71.8719Z" stroke="#C1121F" stroke-width="2" stroke-linecap="round" stroke-linejoin="round"/>
<path d="M36.9909 49.7977C36.9909 50.9218 36.0712 51.8415 34.9471 51.8415C33.823 51.8415 32.9033 50.9218 32.9033 49.7977C32.9033 48.6736 33.823 47.7539 34.9471 47.7539C36.0712 47.7539 36.9909 48.6736 36.9909 49.7977Z" stroke="#C1121F" stroke-width="2" stroke-linecap="round" stroke-linejoin="round"/>
</svg>
