<svg viewBox="0 0 263 236" fill="none" xmlns="http://www.w3.org/2000/svg">
<g clip-path="url(#clip0_4623_27487)">
<path d="M134.435 0.717634L125.893 2.92026L20.6631 30.0571L12.1218 32.2597C7.97594 33.3338 4.42546 36.0086 2.24927 39.6972C0.073081 43.3858 -0.551089 47.787 0.513694 51.9353L37.5506 195.556C38.6247 199.702 41.2995 203.252 44.9881 205.429C48.6767 207.605 53.0779 208.229 57.2262 207.164L57.2482 207.158L179.517 175.628L179.539 175.622C183.685 174.548 187.235 171.873 189.412 168.185C191.588 164.496 192.212 160.095 191.147 155.947L154.11 12.3258C153.036 8.17994 150.361 4.62945 146.673 2.45324C142.984 0.277042 138.583 -0.347142 134.435 0.717634Z" fill="#F2F2F2"/>
<path d="M135.595 5.22034L125.479 7.8292L23.3988 34.1536L13.2824 36.7624C10.33 37.5273 7.80162 39.4321 6.2519 42.0588C4.70217 44.6856 4.25768 47.8198 5.01594 50.7739L42.0528 194.395C42.8177 197.347 44.7225 199.875 47.3493 201.425C49.976 202.975 53.1102 203.419 56.0643 202.661L56.0863 202.655L178.355 171.125L178.377 171.119C181.33 170.354 183.858 168.449 185.408 165.823C186.957 163.196 187.402 160.062 186.644 157.108L149.607 13.4868C148.842 10.5345 146.937 8.00609 144.31 6.45636C141.684 4.90664 138.55 4.46212 135.595 5.22034Z" fill="#FFFEFE"/>
<path d="M127.958 51.7286L66.1049 67.6792C65.4141 67.8574 64.6807 67.7538 64.0663 67.3913C63.4518 67.0288 63.0065 66.437 62.8284 65.7462C62.6502 65.0553 62.7538 64.322 63.1163 63.7076C63.4789 63.0931 64.0706 62.6478 64.7614 62.4697L126.614 46.519C127.305 46.3416 128.038 46.4456 128.652 46.8082C129.266 47.1708 129.71 47.7623 129.888 48.4527C130.067 49.1431 129.963 49.876 129.601 50.4903C129.239 51.1046 128.648 51.55 127.958 51.7286Z" fill="#F2F2F2"/>
<path d="M140.969 57.749L68.3715 76.4705C67.6807 76.6486 66.9474 76.545 66.3329 76.1825C65.7184 75.82 65.2731 75.2282 65.095 74.5374C64.9168 73.8466 65.0204 73.1133 65.3829 72.4988C65.7455 71.8843 66.3372 71.439 67.0281 71.2609L139.626 52.5394C140.316 52.3613 141.05 52.4648 141.664 52.8274C142.279 53.1899 142.724 53.7816 142.902 54.4725C143.08 55.1633 142.977 55.8966 142.614 56.5111C142.252 57.1256 141.66 57.5708 140.969 57.749Z" fill="#F2F2F2"/>
<path d="M138.117 91.126L76.2641 107.077C75.922 107.165 75.5659 107.185 75.2161 107.135C74.8663 107.086 74.5297 106.968 74.2255 106.789C73.9212 106.609 73.6553 106.371 73.4429 106.089C73.2305 105.807 73.0758 105.486 72.9876 105.144C72.8993 104.801 72.8794 104.445 72.9288 104.096C72.9782 103.746 73.096 103.409 73.2755 103.105C73.455 102.801 73.6927 102.535 73.975 102.322C74.2572 102.11 74.5786 101.955 74.9206 101.867L136.773 85.9164C137.116 85.8282 137.472 85.8082 137.821 85.8576C138.171 85.9071 138.508 86.0249 138.812 86.2044C139.116 86.3839 139.382 86.6215 139.595 86.9038C139.807 87.1861 139.962 87.5074 140.05 87.8495C140.138 88.1916 140.158 88.5476 140.109 88.8974C140.059 89.2472 139.942 89.5838 139.762 89.8881C139.583 90.1924 139.345 90.4583 139.063 90.6707C138.78 90.8831 138.459 91.0378 138.117 91.126Z" fill="#F2F2F2"/>
<path d="M151.128 97.1462L78.5307 115.868C78.1886 115.956 77.8325 115.976 77.4827 115.926C77.1329 115.877 76.7963 115.759 76.4921 115.58C76.1878 115.4 75.9219 115.163 75.7095 114.88C75.4971 114.598 75.3424 114.277 75.2542 113.935C75.1659 113.593 75.146 113.236 75.1954 112.887C75.2448 112.537 75.3626 112.2 75.5421 111.896C75.7216 111.592 75.9593 111.326 76.2415 111.113C76.5238 110.901 76.8452 110.746 77.1872 110.658L149.785 91.9366C150.476 91.7585 151.209 91.8621 151.823 92.2246C152.438 92.5871 152.883 93.1789 153.061 93.8697C153.239 94.5605 153.136 95.2938 152.773 95.9083C152.411 96.5228 151.819 96.9681 151.128 97.1462Z" fill="#F2F2F2"/>
<path d="M148.277 130.524L86.4244 146.474C85.7337 146.652 85.0008 146.548 84.3868 146.185C83.7727 145.823 83.3278 145.231 83.1497 144.541C82.9716 143.85 83.075 143.117 83.4372 142.503C83.7993 141.889 84.3905 141.443 85.0809 141.265L146.934 125.314C147.625 125.136 148.358 125.24 148.972 125.602C149.587 125.965 150.032 126.556 150.21 127.247C150.388 127.938 150.285 128.671 149.922 129.286C149.56 129.9 148.968 130.345 148.277 130.524Z" fill="#F2F2F2"/>
<path d="M161.289 136.544L88.6912 155.265C88.349 155.354 87.9927 155.374 87.6427 155.325C87.2927 155.276 86.9558 155.158 86.6513 154.979C86.3468 154.799 86.0806 154.561 85.8681 154.279C85.6555 153.997 85.5006 153.675 85.4124 153.333C85.3241 152.991 85.3042 152.634 85.3537 152.284C85.4032 151.934 85.5212 151.598 85.7009 151.293C85.8807 150.989 86.1186 150.723 86.4012 150.511C86.6838 150.298 87.0054 150.144 87.3477 150.056L159.945 131.334C160.636 131.156 161.369 131.26 161.984 131.622C162.598 131.985 163.044 132.577 163.222 133.267C163.4 133.958 163.296 134.691 162.934 135.306C162.571 135.92 161.98 136.366 161.289 136.544Z" fill="#F2F2F2"/>
<path d="M55.5449 84.0343L33.6558 89.679C33.3246 89.7641 32.9731 89.7142 32.6786 89.5404C32.3841 89.3667 32.1705 89.0832 32.0847 88.7521L27.0601 69.2677C26.9751 68.9365 27.0249 68.5851 27.1987 68.2905C27.3724 67.996 27.6559 67.7824 27.987 67.6967L49.8761 62.0519C50.2074 61.9668 50.5588 62.0167 50.8533 62.1905C51.1479 62.3642 51.3614 62.6477 51.4472 62.9788L56.4718 82.4632C56.5569 82.7944 56.507 83.1458 56.3333 83.4404C56.1595 83.7349 55.876 83.9485 55.5449 84.0343Z" fill="#E6E6E6"/>
<path d="M65.7051 123.432L43.816 129.077C43.4847 129.162 43.1333 129.112 42.8387 128.938C42.5442 128.764 42.3306 128.481 42.2449 128.15L37.2202 108.665C37.1352 108.334 37.1851 107.983 37.3588 107.688C37.5326 107.394 37.8161 107.18 38.1471 107.094L60.0363 101.45C60.3675 101.365 60.7189 101.414 61.0135 101.588C61.308 101.762 61.5216 102.045 61.6074 102.376L66.632 121.861C66.717 122.192 66.6672 122.544 66.4934 122.838C66.3196 123.133 66.0361 123.346 65.7051 123.432Z" fill="#E6E6E6"/>
<path d="M75.8653 162.829L53.9761 168.474C53.6449 168.559 53.2934 168.509 52.9989 168.335C52.7044 168.162 52.4908 167.878 52.405 167.547L47.3804 148.063C47.2954 147.731 47.3452 147.38 47.519 147.085C47.6927 146.791 47.9763 146.577 48.3073 146.492L70.1964 140.847C70.5277 140.762 70.8791 140.812 71.1737 140.985C71.4682 141.159 71.6818 141.443 71.7675 141.774L76.7922 161.258C76.8772 161.589 76.8274 161.941 76.6536 162.235C76.4798 162.53 76.1963 162.743 75.8653 162.829Z" fill="#E6E6E6"/>
<path d="M219.742 37.1239H93.427C89.1443 37.1287 85.0384 38.8321 82.01 41.8605C78.9817 44.8888 77.2782 48.9948 77.2734 53.2775V201.597C77.2783 205.88 78.9817 209.986 82.01 213.014C85.0384 216.042 89.1443 217.746 93.427 217.751H219.742C224.024 217.746 228.13 216.042 231.159 213.014C234.187 209.986 235.89 205.88 235.895 201.597V53.2775C235.89 48.9948 234.187 44.8888 231.159 41.8605C228.13 38.8321 224.024 37.1287 219.742 37.1239Z" fill="#E6E6E6"/>
<path d="M219.742 41.774H93.4272C90.3774 41.7774 87.4534 42.9905 85.2969 45.147C83.1403 47.3036 81.9273 50.2275 81.9238 53.2774V201.597C81.9273 204.647 83.1403 207.571 85.2969 209.727C87.4534 211.884 90.3774 213.097 93.4272 213.1H219.742C222.792 213.097 225.716 211.884 227.872 209.727C230.029 207.57 231.242 204.647 231.245 201.597V53.2774C231.242 50.2276 230.029 47.3036 227.872 45.1471C225.716 42.9905 222.792 41.7775 219.742 41.774Z" fill="#FFFEFE"/>
<path d="M200.732 123.275H136.855C136.502 123.275 136.152 123.206 135.825 123.071C135.498 122.936 135.201 122.738 134.951 122.488C134.701 122.238 134.503 121.942 134.367 121.615C134.232 121.289 134.162 120.939 134.162 120.585C134.162 120.231 134.232 119.881 134.367 119.555C134.503 119.228 134.701 118.932 134.951 118.682C135.201 118.432 135.498 118.234 135.825 118.099C136.152 117.964 136.502 117.895 136.855 117.895H200.732C201.444 117.896 202.128 118.18 202.632 118.684C203.136 119.188 203.419 119.872 203.419 120.585C203.419 121.298 203.136 121.982 202.632 122.486C202.128 122.99 201.444 123.274 200.732 123.275Z" fill="#E6E6E6"/>
<path d="M211.828 132.354H136.855C136.502 132.354 136.152 132.285 135.825 132.15C135.498 132.015 135.201 131.817 134.951 131.567C134.701 131.317 134.503 131.02 134.367 130.694C134.232 130.367 134.162 130.017 134.162 129.664C134.162 129.31 134.232 128.96 134.367 128.634C134.503 128.307 134.701 128.01 134.951 127.761C135.201 127.511 135.498 127.313 135.825 127.178C136.152 127.043 136.502 126.973 136.855 126.974H211.828C212.541 126.974 213.225 127.257 213.73 127.762C214.234 128.266 214.518 128.95 214.518 129.664C214.518 130.377 214.234 131.061 213.73 131.566C213.225 132.07 212.541 132.354 211.828 132.354Z" fill="#E6E6E6"/>
<path d="M200.732 163.961H136.855C136.502 163.962 136.152 163.893 135.825 163.758C135.498 163.622 135.201 163.424 134.951 163.175C134.701 162.925 134.503 162.628 134.367 162.302C134.232 161.975 134.162 161.625 134.162 161.271C134.162 160.918 134.232 160.568 134.367 160.241C134.503 159.915 134.701 159.618 134.951 159.368C135.201 159.118 135.498 158.92 135.825 158.785C136.152 158.65 136.502 158.581 136.855 158.581H200.732C201.445 158.581 202.129 158.865 202.634 159.369C203.138 159.874 203.422 160.558 203.422 161.271C203.422 161.985 203.138 162.669 202.634 163.174C202.129 163.678 201.445 163.961 200.732 163.961Z" fill="#E6E6E6"/>
<path d="M211.828 173.04H136.855C136.502 173.041 136.152 172.971 135.825 172.836C135.498 172.701 135.201 172.503 134.951 172.253C134.701 172.003 134.503 171.707 134.367 171.38C134.232 171.054 134.162 170.704 134.162 170.35C134.162 169.997 134.232 169.647 134.367 169.32C134.503 168.993 134.701 168.697 134.951 168.447C135.201 168.197 135.498 167.999 135.825 167.864C136.152 167.729 136.502 167.66 136.855 167.66H211.828C212.181 167.66 212.531 167.729 212.858 167.864C213.185 167.999 213.482 168.197 213.732 168.447C213.982 168.697 214.18 168.993 214.316 169.32C214.451 169.647 214.521 169.997 214.521 170.35C214.521 170.704 214.451 171.054 214.316 171.38C214.18 171.707 213.982 172.003 213.732 172.253C213.482 172.503 213.185 172.701 212.858 172.836C212.531 172.971 212.181 173.041 211.828 173.04Z" fill="#E6E6E6"/>
<path d="M122.546 136.475H99.9412C99.5992 136.475 99.2714 136.339 99.0296 136.097C98.7878 135.855 98.6517 135.527 98.6514 135.185V115.064C98.6517 114.722 98.7878 114.394 99.0296 114.152C99.2714 113.91 99.5992 113.774 99.9412 113.774H122.546C122.888 113.774 123.216 113.91 123.458 114.152C123.7 114.394 123.836 114.722 123.836 115.064V135.185C123.836 135.527 123.7 135.855 123.458 136.097C123.216 136.339 122.888 136.475 122.546 136.475Z" fill="#E6E6E6"/>
<path d="M122.546 177.162H99.9412C99.5992 177.161 99.2714 177.025 99.0296 176.783C98.7878 176.542 98.6517 176.214 98.6514 175.872V155.75C98.6517 155.408 98.7878 155.08 99.0296 154.838C99.2714 154.596 99.5992 154.46 99.9412 154.46H122.546C122.888 154.46 123.216 154.596 123.458 154.838C123.7 155.08 123.836 155.408 123.836 155.75V175.872C123.836 176.214 123.7 176.542 123.458 176.783C123.216 177.025 122.888 177.161 122.546 177.162Z" fill="#E6E6E6"/>
<path d="M200.802 77.9831H153.709C152.995 77.9831 152.311 77.6997 151.806 77.1952C151.302 76.6908 151.019 76.0066 151.019 75.2931C151.019 74.5797 151.302 73.8955 151.806 73.391C152.311 72.8865 152.995 72.6031 153.709 72.6031H200.802C201.515 72.6031 202.2 72.8865 202.704 73.391C203.209 73.8955 203.492 74.5797 203.492 75.2931C203.492 76.0066 203.209 76.6908 202.704 77.1952C202.2 77.6997 201.515 77.9831 200.802 77.9831Z" fill="#CCCCCC"/>
<path d="M211.898 87.062H153.709C153.355 87.062 153.006 86.9924 152.679 86.8572C152.353 86.722 152.056 86.5239 151.806 86.2741C151.557 86.0243 151.359 85.7278 151.223 85.4014C151.088 85.075 151.019 84.7252 151.019 84.372C151.019 84.0187 151.088 83.6689 151.223 83.3426C151.359 83.0162 151.557 82.7196 151.806 82.4699C152.056 82.2201 152.353 82.0219 152.679 81.8867C153.006 81.7515 153.355 81.682 153.709 81.682H211.898C212.612 81.682 213.296 81.9654 213.8 82.4699C214.305 82.9743 214.588 83.6585 214.588 84.372C214.588 85.0854 214.305 85.7696 213.8 86.2741C213.296 86.7786 212.612 87.062 211.898 87.062Z" fill="#CCCCCC"/>
<path d="M143.286 98.0642H99.8699C99.528 98.0638 99.2001 97.9278 98.9583 97.686C98.7165 97.4442 98.5805 97.1163 98.5801 96.7744V62.8905C98.5805 62.5486 98.7165 62.2207 98.9583 61.9789C99.2001 61.7371 99.528 61.6011 99.8699 61.6007H143.286C143.628 61.6011 143.956 61.7371 144.198 61.9789C144.44 62.2207 144.576 62.5486 144.576 62.8905V96.7744C144.576 97.1163 144.44 97.4442 144.198 97.686C143.956 97.9278 143.628 98.0638 143.286 98.0642Z" fill="#EBEBEB"/>
</g>
<defs>
<clipPath id="clip0_4623_27487">
<rect width="262.5" height="235.592" fill="white" transform="translate(0 0.203949)"/>
</clipPath>
</defs>
</svg>
