<svg width="580" height="515" viewBox="0 0 580 515" fill="none" xmlns="http://www.w3.org/2000/svg">
<circle cx="344" cy="236" r="236" fill="#FAF4F4"/>
<g clip-path="url(#clip0_9536_54957)">
<path d="M385.669 132.963C382.531 132.789 378.838 133.628 371.453 135.302C364.8 136.811 362.957 137.825 362.139 139.568C360.798 142.421 362.801 145.937 363.403 146.991C366.806 152.959 373.032 153.741 377.139 156.469C390.421 165.291 383.65 180.274 394.665 189.641C405.158 198.565 414.958 188.081 433.818 196.593C448.668 203.294 447.285 211.909 459.394 215.706C474.185 220.344 497.36 214.111 506.756 195.487C515.693 177.779 509.517 154.136 497.442 148.097C486.475 142.611 477.999 154.73 463.34 149.043C448.887 143.436 447.774 127.915 436.497 128.109C433.801 128.154 434.364 129.035 416.608 135.458C408.385 138.434 407.396 138.559 406.504 138.618C397.659 139.207 395.813 133.52 385.672 132.963H385.669Z" fill="black"/>
<path d="M353.942 223.882C347.625 262.593 346.89 263.164 346.037 267.22C346.037 267.22 343.532 278.619 342.836 289.601C342.234 299.13 344.023 356.36 373.59 368.962C384.267 373.512 387.361 365.148 410.093 366.054C433.391 366.987 438.112 375.28 448.278 372.372C470.277 366.083 477.461 318.857 476.251 289.675C475.265 265.907 463.443 243.464 439.799 198.579C436.197 191.744 429.832 178.989 420.546 177.659C416.288 177.051 413.445 178.202 396.354 182.897C377.763 188.004 374.786 184.384 366.807 189.417C358.561 194.615 357.107 204.508 353.945 223.879L353.942 223.882Z" fill="white"/>
<path d="M444.043 373.617C440.862 373.617 437.925 372.617 434.289 371.378C428.77 369.496 421.905 367.154 410.068 366.682C398.885 366.236 392.625 368.018 387.597 369.448C382.561 370.88 378.925 371.917 373.344 369.539C360.803 364.193 351.449 349.923 346.291 328.275C342.394 311.914 341.86 295.129 342.212 289.561C342.902 278.656 345.402 267.197 345.427 267.084C345.569 266.404 345.711 265.819 345.873 265.137C346.694 261.721 348.066 256.003 353.324 223.78L353.52 222.575C356.608 203.633 358.158 194.126 366.47 188.885C370.807 186.151 373.758 185.893 378.226 185.5C382.121 185.159 387.455 184.69 396.184 182.292C399.039 181.507 401.496 180.822 403.626 180.228C414.394 177.224 416.954 176.511 420.629 177.037C429.889 178.361 436.181 190.346 439.939 197.505L440.348 198.287C464.006 243.196 475.88 265.739 476.874 289.649C477.561 306.221 475.578 324.959 471.57 339.774C468.011 352.921 461.112 369.357 448.449 372.978C446.878 373.427 445.438 373.62 444.043 373.62V373.617ZM406.728 365.358C407.81 365.358 408.938 365.381 410.117 365.426C422.135 365.907 429.392 368.382 434.692 370.187C439.896 371.96 443.33 373.131 448.102 371.767C469.182 365.739 476.885 320.147 475.621 289.698C474.641 266.069 462.81 243.611 439.24 198.866L438.828 198.085C435.181 191.139 429.077 179.512 420.453 178.276C417.036 177.79 414.528 178.486 403.964 181.433C401.831 182.027 399.371 182.715 396.516 183.5C387.677 185.927 382.277 186.401 378.334 186.748C373.895 187.137 371.216 187.373 367.137 189.945C359.303 194.885 357.784 204.204 354.758 222.776L354.562 223.981C349.296 256.247 347.916 261.996 347.092 265.43C346.93 266.1 346.794 266.674 346.652 267.348C346.626 267.467 344.146 278.835 343.462 289.641C343.112 295.146 343.644 311.76 347.509 327.985C351.04 342.801 358.471 361.84 373.835 368.388C379.008 370.593 382.288 369.658 387.254 368.246C391.597 367.009 397.377 365.364 406.731 365.364L406.728 365.358Z" fill="black"/>
<path d="M387.871 448.033V466.753L396.873 466.205L398.645 448.033H387.871Z" fill="white"/>
<path d="M387.872 467.381C387.713 467.381 387.559 467.322 387.443 467.211C387.318 467.091 387.244 466.927 387.244 466.753V448.033C387.244 447.686 387.525 447.405 387.872 447.405H398.646C398.822 447.405 398.992 447.479 399.112 447.609C399.231 447.74 399.288 447.916 399.271 448.092L397.498 466.264C397.47 466.571 397.22 466.81 396.913 466.83L387.912 467.378C387.912 467.378 387.886 467.378 387.875 467.378L387.872 467.381ZM388.5 448.661V466.088L396.302 465.614L397.956 448.661H388.5Z" fill="black"/>
<path d="M398.224 490.097C394.557 490.49 388.561 490.745 381.568 489.54C379.275 489.145 377.824 486.86 378.455 484.621C380.21 478.383 383.67 466.753 386.428 461.186L388.089 464.221L389.686 461.143C389.913 460.762 390.322 459.864 391.234 459.952L393.932 460.023C394.654 459.955 395.228 460.612 395.642 461.379L397.278 464.434L399.23 460.845L401.687 485.82C401.897 487.955 400.355 489.867 398.224 490.095V490.097Z" fill="white"/>
<path d="M391.967 491.05C388.902 491.05 385.335 490.822 381.463 490.157C380.194 489.938 379.069 489.188 378.381 488.1C377.697 487.014 377.504 485.687 377.85 484.45C379.287 479.335 382.949 466.799 385.866 460.904C385.971 460.694 386.181 460.56 386.414 460.555C386.658 460.552 386.866 460.677 386.977 460.882L388.073 462.885L389.212 460.705C389.468 460.256 390.059 459.202 391.291 459.327L393.913 459.392C394.527 459.35 395.404 459.617 396.191 461.078L397.279 463.11L398.674 460.543C398.804 460.302 399.08 460.174 399.35 460.228C399.62 460.282 399.821 460.506 399.85 460.782L402.307 485.758C402.551 488.23 400.747 490.456 398.287 490.717C396.583 490.899 394.439 491.047 391.962 491.047L391.967 491.05ZM386.471 462.564C383.696 468.714 380.404 480.008 379.06 484.789C378.805 485.695 378.941 486.633 379.444 487.429C379.941 488.219 380.756 488.762 381.676 488.921C388.533 490.103 394.424 489.873 398.16 489.472C399.938 489.282 401.239 487.671 401.063 485.883L398.807 462.939L397.833 464.732C397.722 464.934 397.509 465.076 397.279 465.059C397.049 465.059 396.836 464.931 396.728 464.727L395.092 461.672C394.919 461.351 394.464 460.6 393.993 460.643C393.967 460.643 393.941 460.646 393.919 460.643L391.22 460.572C390.82 460.535 390.601 460.808 390.306 461.322L390.226 461.459L388.647 464.502C388.539 464.707 388.329 464.838 388.099 464.841C387.851 464.832 387.653 464.718 387.542 464.514L386.471 462.558V462.564Z" fill="black"/>
<path d="M389.522 486.809C386.821 486.809 383.796 486.548 380.799 485.761C380.464 485.673 380.265 485.329 380.353 484.993C380.441 484.658 380.782 484.456 381.12 484.547C389.599 486.778 398.637 484.567 398.728 484.547C399.066 484.465 399.404 484.666 399.489 485.005C399.574 485.34 399.37 485.681 399.035 485.766C398.782 485.829 394.76 486.815 389.525 486.815L389.522 486.809Z" fill="black"/>
<path d="M394.647 477.084H386.432C386.086 477.084 385.805 476.803 385.805 476.456C385.805 476.109 386.086 475.828 386.432 475.828H394.647C394.994 475.828 395.275 476.109 395.275 476.456C395.275 476.803 394.994 477.084 394.647 477.084Z" fill="black"/>
<path d="M454.094 438.128L456.755 460.7L465.192 460.404V438.128H454.094Z" fill="white"/>
<path d="M456.756 461.325C456.441 461.325 456.171 461.089 456.134 460.771L453.473 438.199C453.453 438.02 453.507 437.844 453.626 437.708C453.745 437.574 453.916 437.497 454.095 437.497H465.195C465.542 437.497 465.823 437.779 465.823 438.125V460.404C465.823 460.742 465.556 461.018 465.218 461.032L456.779 461.325C456.779 461.325 456.765 461.325 456.756 461.325ZM454.802 438.753L457.313 460.049L464.571 459.796V438.751H454.805L454.802 438.753Z" fill="black"/>
<path d="M454.748 455.311C454.748 455.311 453.663 465.335 453.998 469.368C454.236 472.252 458.196 480.969 460.426 485.692C461.343 487.636 463.093 488.881 465.033 488.966C467.399 489.069 470.694 489.188 473.347 489.191C477 489.194 479.514 485.042 478.207 481.168C477.003 477.593 475.091 473.114 472.086 468.342C469.822 464.75 466.516 454.987 466.516 454.987H459.639L458.29 460.7L454.745 455.317L454.748 455.311Z" fill="white"/>
<path d="M473.358 489.816H473.352C470.659 489.813 467.33 489.691 465.01 489.592C462.848 489.498 460.877 488.105 459.863 485.96C457.545 481.057 453.622 472.386 453.375 469.419C453.04 465.375 454.082 455.655 454.128 455.243C454.156 454.981 454.346 454.763 454.605 454.7C454.863 454.64 455.13 454.743 455.275 454.964L458.022 459.134L459.036 454.837C459.104 454.552 459.354 454.353 459.647 454.353H466.524C466.793 454.353 467.032 454.524 467.117 454.78C467.151 454.876 470.426 464.514 472.622 468.001C475.215 472.116 477.297 476.479 478.809 480.96C479.547 483.157 479.206 485.559 477.891 487.386C476.783 488.927 475.13 489.811 473.358 489.811V489.816ZM455.198 457.133C454.909 460.18 454.383 466.401 454.625 469.317C454.792 471.34 457.116 477.212 460.996 485.425C461.811 487.15 463.368 488.267 465.063 488.341C467.37 488.441 470.682 488.563 473.352 488.566H473.358C474.724 488.566 476.005 487.872 476.874 486.662C477.954 485.161 478.232 483.183 477.621 481.367C476.144 476.979 474.105 472.707 471.563 468.674C469.529 465.449 466.748 457.559 466.075 455.612H460.144L458.908 460.842C458.851 461.086 458.653 461.271 458.408 461.316C458.161 461.359 457.914 461.251 457.775 461.044L455.201 457.136L455.198 457.133Z" fill="black"/>
<path d="M468.107 485.519C464.644 485.519 463.014 483.12 461.977 481.029C460.372 477.789 458.114 473.548 458.091 473.506C457.929 473.199 458.043 472.821 458.35 472.656C458.656 472.494 459.034 472.608 459.199 472.915C459.222 472.957 461.488 477.212 463.102 480.472C464.417 483.129 465.917 484.263 468.11 484.263H468.115L474.026 484.257C474.373 484.257 474.654 484.539 474.654 484.885C474.654 485.232 474.373 485.513 474.026 485.513L468.115 485.519H468.107Z" fill="black"/>
<path d="M472.325 477.362H464.798C464.451 477.362 464.17 477.081 464.17 476.734C464.17 476.388 464.451 476.106 464.798 476.106H472.325C472.672 476.106 472.953 476.388 472.953 476.734C472.953 477.081 472.672 477.362 472.325 477.362Z" fill="black"/>
<path d="M373.408 260.874C373.408 260.874 374.306 329.759 377.197 374.603C380.089 419.448 385.798 453.737 385.798 453.737C385.798 453.737 395.618 457.266 402.063 455.419C402.063 455.419 407.4 416.08 408.613 402.785C409.826 389.487 406.605 382.891 406.335 372.009C406.065 361.126 411.022 313.079 411.022 313.079C411.022 313.079 448.036 421.701 452.271 445.694C452.271 445.694 461.236 447.214 467.553 443.758C467.553 443.758 467.749 401.043 466.854 394.443C465.193 382.214 455.649 370.175 453.933 357.187C452.217 344.199 451.223 311.601 446.502 292.051C441.781 272.501 432.519 250.535 432.519 250.535L373.411 260.877L373.408 260.874Z" fill="black"/>
<path d="M433.795 285.125C433.692 285.125 433.59 285.099 433.496 285.048C423.103 279.393 420.015 269.156 419.89 268.724C419.794 268.391 419.984 268.044 420.316 267.945C420.649 267.848 420.998 268.039 421.095 268.371C421.123 268.473 424.174 278.548 434.096 283.945C434.4 284.11 434.513 284.491 434.348 284.795C434.235 285.006 434.019 285.122 433.797 285.122L433.795 285.125Z" fill="white"/>
<path d="M447.652 318.496C447.342 318.496 447.072 318.266 447.03 317.95C443.772 292.895 435.475 274.243 432.058 267.388C431.904 267.078 432.029 266.7 432.339 266.547C432.651 266.393 433.026 266.518 433.18 266.828C436.625 273.743 444.99 292.545 448.271 317.788C448.317 318.132 448.072 318.448 447.731 318.49C447.703 318.493 447.678 318.496 447.649 318.496H447.652Z" fill="white"/>
<path d="M263.457 208.027C263.937 206.35 266.156 207.799 267.593 208.061C268.476 208.22 269.658 203.775 265.102 200.93C262.199 199.117 259.114 196.519 260.321 193.939C260.804 192.904 262.182 192.861 264.133 193.16C268.266 193.791 274.427 195.431 277.989 206.102C279.003 209.143 283.835 212.426 283.943 213.006C284.403 215.487 282.216 216.445 280.452 218.056C280.276 218.215 276.714 215.242 270.26 213.691C266.9 212.881 263.014 209.578 263.457 208.027Z" fill="white"/>
<path d="M280.466 218.698C280.193 218.698 279.869 218.499 279.364 218.192C278.014 217.368 274.853 215.438 270.115 214.299C267.221 213.603 264.207 211.298 263.207 209.581C262.832 208.936 262.713 208.353 262.858 207.853C263 207.353 263.275 206.998 263.673 206.79C264.488 206.367 265.528 206.733 266.536 207.086C266.894 207.211 267.238 207.333 267.536 207.404C267.658 207.199 267.846 206.662 267.783 205.847C267.706 204.863 267.215 202.985 264.775 201.461C260.33 198.685 258.639 196.064 259.759 193.671C260.455 192.182 262.321 192.248 264.232 192.537C269.087 193.279 275.106 195.468 278.588 205.901C279.222 207.802 281.633 209.948 283.07 211.229C284.173 212.21 284.491 212.508 284.562 212.892C284.991 215.211 283.474 216.416 282.005 217.579C281.628 217.877 281.238 218.187 280.875 218.519C280.738 218.644 280.608 218.698 280.466 218.698ZM264.062 208.2C264.045 208.257 264.014 208.478 264.289 208.953C265.139 210.411 267.936 212.486 270.408 213.082C275.339 214.27 278.617 216.271 280.017 217.124C280.128 217.192 280.241 217.26 280.341 217.32C280.636 217.067 280.934 216.828 281.227 216.598C282.727 215.41 283.573 214.657 283.343 213.207C283.193 213.02 282.687 212.571 282.235 212.17C280.602 210.718 278.137 208.521 277.395 206.301C274.149 196.57 268.823 194.513 264.039 193.782C262.108 193.487 261.168 193.615 260.889 194.206C259.886 196.351 262.806 198.759 265.434 200.398C269.078 202.675 269.439 205.992 268.791 207.666C268.374 208.748 267.684 208.717 267.482 208.677C267.05 208.601 266.576 208.433 266.118 208.271C265.471 208.044 264.582 207.731 264.247 207.904C264.218 207.918 264.127 207.967 264.062 208.197V208.2Z" fill="black"/>
<path d="M366.678 184.75C366.678 184.75 375.557 180.439 389.186 179.299C395.341 178.785 402.973 179.098 410.134 179.609C410.134 179.609 437.783 252.138 437.781 256.941C437.781 261.744 426.135 267.888 410.509 263.969C397.253 260.644 380.951 259.86 369.495 261.292L366.672 184.75H366.678Z" fill="white"/>
<path d="M420.337 265.859C417.306 265.859 413.96 265.478 410.359 264.574C398.005 261.477 381.616 260.405 369.575 261.911C369.234 261.954 368.919 261.71 368.876 261.366C368.833 261.022 369.078 260.709 369.421 260.667C381.789 259.121 397.98 260.178 410.665 263.358C421.411 266.052 430.523 263.901 434.787 260.573C436.315 259.382 437.156 258.089 437.156 256.938C437.156 253.249 419.278 205.358 409.691 180.206C400.857 179.586 394.35 179.498 389.237 179.925C375.895 181.042 367.035 185.273 366.947 185.316C366.638 185.467 366.26 185.336 366.109 185.026C365.959 184.713 366.09 184.338 366.399 184.188C366.49 184.145 375.54 179.814 389.129 178.677C394.384 178.237 401.07 178.336 410.174 178.984C410.418 179.001 410.628 179.157 410.716 179.388C411.847 182.355 438.408 252.078 438.405 256.944C438.405 258.493 437.391 260.135 435.554 261.568C432.639 263.841 427.328 265.865 420.334 265.865L420.337 265.859Z" fill="black"/>
<path d="M369.501 261.289C367.456 261.545 365.564 261.872 363.874 262.267C347.147 266.177 366.681 184.75 366.681 184.75L369.504 261.292L369.501 261.289Z" fill="white"/>
<path d="M362.749 263.034C361.562 263.034 360.525 262.593 359.656 261.721C350.033 252.033 365.411 187.354 366.07 184.605C366.15 184.267 366.49 184.063 366.826 184.142C367.164 184.222 367.371 184.563 367.289 184.898C367.129 185.563 351.41 251.64 360.545 260.834C361.395 261.69 362.437 261.96 363.729 261.658C365.422 261.263 367.34 260.931 369.422 260.669C369.763 260.627 370.078 260.871 370.121 261.215C370.163 261.559 369.919 261.872 369.575 261.914C367.536 262.17 365.664 262.494 364.013 262.881C363.573 262.983 363.15 263.034 362.744 263.034H362.749Z" fill="white"/>
<path d="M369.499 261.292C369.11 230.413 368.505 182.9 368.505 182.9C368.505 182.9 359.39 183.048 355.328 188.834C351.266 194.621 335.885 218.533 318.206 218.823C300.527 219.113 283.921 208.177 283.921 208.177L277.152 219.702C277.152 219.702 285.472 239.883 308.838 247.471C328.4 253.823 347.065 239.786 352.624 235.046L369.499 261.292Z" fill="white"/>
<path d="M369.502 261.917C369.158 261.917 368.879 261.641 368.874 261.297C368.51 232.545 367.962 189.369 367.888 183.56C365.803 183.721 359.071 184.594 355.844 189.192C355.6 189.539 355.316 189.951 354.995 190.417C350.09 197.528 335.16 219.173 318.219 219.449C317.989 219.451 317.756 219.454 317.529 219.454C301.921 219.454 287.156 210.905 284.139 209.052L277.859 219.744C278.975 222.194 287.718 239.954 309.036 246.874C328.354 253.149 346.976 239.042 352.223 234.568C352.487 234.344 352.882 234.375 353.106 234.639C353.331 234.904 353.299 235.299 353.035 235.523C347.664 240.102 328.584 254.542 308.65 248.068C285.278 240.477 276.66 220.148 276.578 219.943C276.504 219.761 276.518 219.557 276.618 219.386L283.387 207.862C283.475 207.714 283.617 207.609 283.784 207.569C283.952 207.532 284.128 207.56 284.27 207.657C284.435 207.765 300.927 218.494 318.2 218.198C334.495 217.931 349.149 196.69 353.964 189.71C354.288 189.238 354.575 188.826 354.819 188.476C359.017 182.497 368.113 182.281 368.499 182.275C368.658 182.275 368.825 182.335 368.945 182.451C369.064 182.568 369.132 182.727 369.135 182.894C369.135 182.894 369.74 230.407 370.129 261.286C370.135 261.633 369.857 261.917 369.51 261.923H369.502V261.917Z" fill="black"/>
<path d="M353.634 234.051C354.716 233.13 354.29 233.554 354.29 233.554L352.279 279.668C352.279 279.668 369.822 287.751 369.822 287.16C369.822 286.97 369.686 277.21 369.498 262.48L353.634 234.051Z" fill="white"/>
<path d="M369.871 287.791C369.135 287.791 366.357 286.844 352.019 280.24C351.788 280.132 351.644 279.899 351.655 279.643L353.615 234.679C353.444 234.673 353.277 234.599 353.158 234.46C352.933 234.196 352.964 233.801 353.229 233.576C354.086 232.846 354.407 232.57 354.833 233.034C354.893 233.096 355.129 233.392 354.91 233.775L352.927 279.276C358.43 281.806 366.766 285.543 369.189 286.393C369.184 285.921 369.175 285.239 369.161 284.363C369.107 280.441 369.002 272.649 368.874 262.488C368.868 262.142 369.147 261.857 369.493 261.852C369.854 261.86 370.124 262.124 370.129 262.471C370.257 272.631 370.362 280.424 370.416 284.346C370.439 286.117 370.453 287.1 370.453 287.16C370.453 287.373 370.334 287.595 370.152 287.708C370.09 287.748 370.027 287.788 369.874 287.788L369.871 287.791Z" fill="white"/>
<path d="M378.294 226.827C376.99 228.126 379.408 229.797 380.348 231.195C380.927 232.056 380.143 232.704 379.101 232.337C376.081 231.272 366.143 227.571 363.83 230.149C363.021 231.053 363.481 232.88 364.981 234.56C368.122 238.07 378.033 242.148 383.637 243.146C386.961 243.737 392.301 246.363 392.886 246.201C395.388 245.516 395.198 242.745 395.814 240.113C395.877 239.852 391.403 237.476 386.821 231.365C384.435 228.185 379.501 225.622 378.297 226.824L378.294 226.827Z" fill="white"/>
<path d="M392.82 246.834C392.408 246.834 391.727 246.584 389.849 245.848C387.96 245.107 385.372 244.092 383.526 243.762C377.518 242.694 367.696 238.536 364.512 234.978C362.79 233.053 362.316 230.896 363.361 229.731C365.563 227.278 372.783 229.43 378.831 231.578L379.308 231.746C379.674 231.877 379.893 231.789 379.921 231.755C379.921 231.746 379.91 231.669 379.828 231.547C379.603 231.212 379.268 230.842 378.913 230.453C377.882 229.316 376.47 227.759 377.851 226.383C378.217 226.017 378.76 225.855 379.456 225.909C381.737 226.073 385.412 228.449 387.318 230.993C390.695 235.498 394.022 237.945 395.445 238.99C396.257 239.587 396.53 239.789 396.422 240.258C396.294 240.804 396.2 241.366 396.109 241.912C395.76 244.004 395.402 246.164 393.05 246.809C392.979 246.829 392.905 246.837 392.82 246.837V246.834ZM366.685 229.865C365.515 229.865 364.716 230.098 364.293 230.567C363.79 231.127 364.083 232.619 365.444 234.139C368.383 237.425 377.962 241.497 383.742 242.526C385.713 242.876 388.366 243.919 390.303 244.68C391.312 245.075 392.448 245.521 392.783 245.575C394.223 245.143 394.516 243.816 394.868 241.705C394.945 241.25 395.021 240.784 395.121 240.315C395.004 240.227 394.848 240.113 394.698 239.999C393.232 238.922 389.801 236.396 386.313 231.743C384.489 229.311 381.078 227.281 379.362 227.156C379.058 227.134 378.825 227.176 378.731 227.27C378.274 227.728 378.683 228.333 379.839 229.609C380.208 230.015 380.589 230.433 380.865 230.845C381.257 231.425 381.271 232.053 380.91 232.522C380.498 233.056 379.703 233.215 378.89 232.931L378.41 232.761C372.988 230.834 369.065 229.868 366.685 229.868V229.865Z" fill="black"/>
<path d="M424.409 215.115C422.299 205.949 418.43 196.403 417.297 191.31C414.962 180.823 420.478 181.133 420.478 181.133C420.478 181.133 432.306 187.098 440.853 202.763C447.991 215.848 452.55 242.461 436.726 254.565L424.409 215.118V215.115Z" fill="white"/>
<path d="M436.726 255.19C436.539 255.19 436.351 255.105 436.226 254.943C436.016 254.667 436.067 254.275 436.343 254.065C445.04 247.414 446.816 236.782 446.773 229.035C446.716 218.525 443.393 208.729 440.302 203.065C432.423 188.624 421.632 182.468 420.325 181.764C420.013 181.783 419.138 181.917 418.425 182.772C417.564 183.804 416.777 186.1 417.908 191.176C418.396 193.365 419.399 196.403 420.561 199.918C422.089 204.54 423.822 209.78 425.018 214.975C425.094 215.314 424.884 215.649 424.546 215.729C424.208 215.805 423.873 215.595 423.793 215.257C422.609 210.118 420.888 204.906 419.368 200.311C418.195 196.764 417.181 193.697 416.681 191.446C415.678 186.945 415.948 183.744 417.485 181.937C418.766 180.428 420.439 180.502 420.51 180.507C420.595 180.513 420.68 180.536 420.757 180.573C420.876 180.632 432.857 186.808 441.399 202.462C449.054 216.493 452.985 242.915 437.101 255.062C436.987 255.15 436.854 255.19 436.72 255.19H436.726Z" fill="white"/>
<path d="M436.725 254.562C433.603 256.949 429.748 258.771 425.042 259.814C406.343 263.958 390.797 246.209 390.797 246.209L394.981 237.209C394.981 237.209 411.995 240.662 419.849 237.209C426.905 234.105 426.644 224.823 424.408 215.115L436.725 254.562Z" fill="white"/>
<path d="M419.359 261.059C403.18 261.059 390.466 246.781 390.324 246.621C390.159 246.434 390.122 246.17 390.227 245.942L394.411 236.941C394.533 236.68 394.82 236.532 395.104 236.592C395.272 236.626 412.016 239.965 419.595 236.632C425.171 234.182 426.543 227.188 423.796 215.251C423.719 214.913 423.929 214.578 424.267 214.498C424.608 214.421 424.941 214.632 425.02 214.97C427.926 227.588 426.315 235.049 420.1 237.78C412.812 240.983 398.243 238.465 395.34 237.916L391.539 246.09C393.687 248.378 408.119 262.923 424.904 259.197C429.315 258.22 433.164 256.492 436.342 254.059C436.618 253.849 437.01 253.9 437.22 254.175C437.43 254.451 437.379 254.843 437.104 255.054C433.777 257.597 429.764 259.402 425.174 260.419C423.197 260.857 421.251 261.053 419.356 261.053L419.359 261.059Z" fill="black"/>
<path d="M437.184 254.829C436.993 254.829 436.806 254.744 436.684 254.579C436.474 254.303 436.53 253.908 436.806 253.701C449.25 244.288 447.384 228.532 447.364 228.375C447.319 228.032 447.563 227.716 447.907 227.673C448.247 227.628 448.563 227.872 448.608 228.216C448.631 228.381 450.597 244.845 437.564 254.704C437.451 254.789 437.317 254.832 437.187 254.832L437.184 254.829Z" fill="black"/>
<path d="M386.012 154.448C385.601 154.733 385.038 154.613 384.817 154.167C383.768 152.061 382.033 147.954 379.082 147.503C375.301 146.923 369.2 146.269 368.904 149.248C368.646 151.859 369.512 156.267 367.044 159.692C366.808 160.022 367.069 160.499 367.407 160.718L369.222 162.031C369.603 162.275 369.981 163.174 370.057 163.623C370.299 165.012 370.697 167.974 371.211 168.32C372.208 168.997 376.889 168.355 376.889 168.355L382.323 182.283C382.502 182.764 382.252 183.301 381.769 183.463L377.397 185.327C377.397 185.327 380.692 188.865 391.887 187.257C396.57 186.583 400.206 183.051 402.163 180.692C402.865 179.845 402.34 178.569 401.249 178.441C397.079 177.958 388.958 175.451 386.663 163.426C386.595 163.066 386.725 162.696 386.998 162.454C388.052 161.531 390.87 158.834 390.154 156.37C389.398 153.764 387.399 153.499 386.015 154.454L386.012 154.448Z" fill="white"/>
<path d="M386.455 188.297C379.41 188.297 377.055 185.876 376.939 185.751C376.8 185.6 376.743 185.393 376.786 185.194C376.828 184.995 376.964 184.827 377.152 184.747L381.523 182.883C381.663 182.835 381.708 182.764 381.728 182.724C381.748 182.684 381.773 182.599 381.736 182.499L376.484 169.037C374.982 169.221 371.846 169.506 370.86 168.838C370.295 168.454 370.017 167.235 369.565 164.467C369.52 164.194 369.48 163.944 369.443 163.731C369.372 163.321 369.045 162.67 368.883 162.56L367.043 161.23C366.702 161.011 366.426 160.613 366.35 160.215C366.29 159.897 366.355 159.581 366.537 159.331C368.267 156.93 368.244 153.928 368.227 151.516C368.221 150.674 368.216 149.879 368.284 149.191C368.355 148.472 368.687 147.875 369.275 147.42C371.249 145.888 375.874 146.38 379.183 146.889C382.202 147.352 383.944 150.936 385.097 153.309L385.384 153.894C385.406 153.937 385.438 153.965 385.483 153.977C385.54 153.991 385.605 153.977 385.662 153.94C386.557 153.32 387.605 153.155 388.537 153.488C389.269 153.749 390.249 154.431 390.761 156.196C391.525 158.834 388.991 161.545 387.415 162.929C387.307 163.026 387.256 163.171 387.281 163.313C389.468 174.775 397.018 177.324 401.324 177.821C402.06 177.907 402.691 178.387 402.966 179.072C403.245 179.762 403.125 180.518 402.651 181.093C400.807 183.321 396.97 187.163 391.982 187.879C389.883 188.181 388.054 188.306 386.46 188.306L386.455 188.297ZM378.669 185.461C380.188 186.322 384.032 187.746 391.797 186.629C396.368 185.972 399.95 182.371 401.68 180.283C401.935 179.973 401.847 179.652 401.796 179.529C401.691 179.265 401.458 179.089 401.174 179.058C396.527 178.52 388.383 175.789 386.043 163.537C385.932 162.96 386.139 162.364 386.582 161.974C387.673 161.019 390.141 158.578 389.551 156.535C389.264 155.54 388.764 154.892 388.111 154.659C387.562 154.466 386.929 154.574 386.369 154.96C386.014 155.204 385.577 155.284 385.165 155.179C384.77 155.077 384.438 154.809 384.256 154.44C384.165 154.255 384.066 154.053 383.963 153.843C382.927 151.706 381.359 148.477 378.987 148.116C374.229 147.389 371.218 147.486 370.039 148.401C369.727 148.642 369.565 148.929 369.528 149.304C369.466 149.927 369.471 150.688 369.477 151.496C369.497 154.073 369.52 157.279 367.588 160.002C367.611 160.053 367.668 160.133 367.747 160.184L369.591 161.514C370.17 161.889 370.588 162.997 370.676 163.506C370.713 163.722 370.755 163.978 370.801 164.256C370.954 165.197 371.309 167.377 371.599 167.815C372.158 168.113 374.706 168.013 376.803 167.724C377.089 167.681 377.368 167.846 377.473 168.119L382.904 182.047C383.054 182.451 383.037 182.877 382.856 183.258C382.677 183.636 382.359 183.917 381.964 184.048L378.666 185.455L378.669 185.461Z" fill="black"/>
<path d="M335.492 447.658C335.492 447.658 336.148 460.654 335.097 468.939C334.046 477.223 336.48 486.98 332.6 489.043C328.72 491.109 319.977 489.475 319.335 487.628C317.827 483.288 323.221 482.143 325.087 480.187C326.953 478.235 324.939 463.135 321.366 457.843C317.793 452.552 335.492 447.655 335.492 447.655V447.658Z" fill="white"/>
<path d="M327.646 490.632C325.115 490.632 322.519 490.137 320.9 489.504C319.667 489.02 318.963 488.475 318.738 487.835C317.491 484.251 320.414 482.498 322.545 481.219C323.371 480.722 324.155 480.253 324.627 479.758C326.158 478.155 324.38 463.442 320.84 458.199C320.23 457.292 320.096 456.297 320.457 455.32C322.144 450.747 334.781 447.203 335.318 447.052C335.503 447.001 335.699 447.035 335.852 447.149C336.006 447.26 336.102 447.436 336.111 447.626C336.116 447.757 336.756 460.774 335.71 469.018C335.338 471.954 335.409 475.035 335.477 478.013C335.602 483.422 335.71 488.094 332.884 489.597C331.489 490.339 329.583 490.632 327.638 490.632H327.646ZM334.898 448.482C330.981 449.653 322.775 452.674 321.639 455.755C321.414 456.363 321.494 456.917 321.883 457.497C325.368 462.663 327.828 478.226 325.536 480.625C324.945 481.242 324.093 481.753 323.189 482.296C320.664 483.811 319.074 484.988 319.92 487.423C319.971 487.574 320.332 487.935 321.355 488.335C324.056 489.396 329.527 489.967 332.299 488.492C334.441 487.352 334.341 483.038 334.228 478.045C334.162 475.16 334.086 471.889 334.469 468.862C335.352 461.893 335.014 451.423 334.895 448.485L334.898 448.482Z" fill="black"/>
<path d="M313.477 381.526C313.477 381.526 303.857 381.509 301.116 384.297C298.494 386.963 301.749 404.399 305.319 409.842C308.89 415.284 313.193 413.192 314.56 408.193C315.926 403.194 313.477 381.529 313.477 381.529V381.526Z" fill="white"/>
<path d="M309.889 413.678C308.636 413.678 306.708 413.09 304.799 410.185C301.407 405.016 297.624 386.958 300.672 383.857C303.563 380.918 313.062 380.901 313.482 380.901C313.8 380.901 314.067 381.143 314.104 381.458C314.204 382.348 316.547 403.302 315.167 408.358C314.357 411.325 312.61 413.297 310.494 413.633C310.318 413.661 310.113 413.681 309.889 413.681V413.678ZM312.92 382.157C309.966 382.214 303.526 382.743 301.566 384.735C299.285 387.054 302.206 403.947 305.847 409.495C307.228 411.598 308.807 412.624 310.298 412.391C311.889 412.138 313.292 410.464 313.957 408.023C315.155 403.637 313.289 385.588 312.92 382.157Z" fill="black"/>
<path d="M320.908 384.241C320.633 383.215 321.082 382.126 321.996 381.586C323.07 380.952 324.416 380.265 325.229 380.265C329.271 380.256 329.174 381.882 334.943 384.303C338.568 385.824 338.252 394.455 336.807 397.919C335.361 401.384 331.412 407.099 326.251 405.445C321.09 403.791 319.224 394.29 320.815 389.595C321.465 387.674 321.28 385.633 320.911 384.244L320.908 384.241Z" fill="white"/>
<path d="M328.113 406.372C327.451 406.372 326.766 406.269 326.059 406.042C324.221 405.454 322.636 403.927 321.477 401.625C319.637 397.97 319.094 392.713 320.219 389.393C320.932 387.284 320.514 385.201 320.301 384.405C319.958 383.112 320.523 381.731 321.676 381.049C323.275 380.103 324.437 379.639 325.224 379.639H325.261C327.829 379.639 328.891 380.296 330.499 381.288C331.569 381.95 332.902 382.771 335.18 383.726C339.389 385.494 338.764 394.847 337.378 398.161C336.004 401.455 332.657 406.374 328.107 406.374L328.113 406.372ZM321.511 384.079C321.753 384.985 322.227 387.361 321.403 389.794C320.392 392.781 320.915 397.729 322.594 401.06C323.295 402.45 324.528 404.234 326.437 404.845C331.175 406.363 334.91 400.818 336.222 397.675C337.608 394.358 337.776 386.173 334.697 384.88C332.328 383.885 330.95 383.036 329.842 382.354C328.269 381.382 327.474 380.893 325.264 380.893H325.227C324.977 380.893 324.196 381.015 322.312 382.129C321.639 382.527 321.31 383.331 321.511 384.081V384.079Z" fill="black"/>
<path d="M428.996 408.932C446.488 393.741 446.968 372.259 446.022 366.344C445.076 360.43 440.819 360.902 442.003 364.923C443.185 368.945 441.529 381.958 430.985 396.871C420.441 411.783 404.304 417.038 399.041 416.219C385.301 414.65 361.223 418.942 361.223 418.942C354.684 418.609 346.864 418.669 342.115 417.95C333.687 416.674 334.221 410.131 332.281 406.34C331.449 404.717 330.673 402.663 330.028 400.062C325.742 382.811 320.24 381.535 320.24 381.535C320.24 381.535 313.946 378.903 307.356 385.295C300.766 391.684 302.311 391.104 290.338 396.873C290.338 396.873 286.285 399.656 290.98 404.655C296.286 410.305 308.986 405.553 311.168 406.542C313.139 407.437 311.074 418.919 311.318 424.083C313.017 460.134 330.653 466.563 341.172 468.512C342.325 468.725 343.924 468.626 345.858 468.276C348.534 473.531 350.511 480.23 349.628 481.668C348.364 483.726 343.862 485.741 345.992 489.251C346.898 490.743 354.848 490.532 357.854 488C360.859 485.468 356.076 477.419 356.272 469.956C356.314 468.356 356.263 466.827 356.152 465.378C374.019 459.213 399.793 446.467 401.807 446.947C407.261 448.246 404.404 455.911 412.454 458.574C416.922 460.052 426.281 474.358 415.959 481.569C405.636 488.779 417.322 490.143 421.412 488.779C425.503 487.415 429.397 470.266 430.76 466.759C432.124 463.252 426.866 462.081 425.892 456.627C424.918 451.17 434.464 440.084 429.204 429.346C426.852 424.549 416.456 419.828 428.996 408.935V408.932Z" fill="white"/>
<path d="M349.783 490.805C349.005 490.805 348.295 490.754 347.704 490.657C346.516 490.464 345.781 490.109 345.457 489.575C343.667 486.63 345.917 484.527 347.556 482.992C348.184 482.407 348.777 481.853 349.093 481.338C349.664 480.412 348.374 474.745 345.508 468.973C343.622 469.283 342.162 469.334 341.057 469.129C321.884 465.577 311.951 450.852 310.692 424.114C310.601 422.21 310.812 419.564 311.033 416.765C311.289 413.536 311.766 407.525 310.908 407.113C310.397 406.883 308.522 407.156 306.71 407.42C301.81 408.136 294.402 409.216 290.522 405.084C288.735 403.18 287.923 401.33 288.11 399.585C288.335 397.507 289.914 396.402 289.982 396.353C290.008 396.336 290.036 396.319 290.065 396.305C300.33 391.357 300.574 391.115 304.639 387.083C305.287 386.44 306.028 385.704 306.917 384.843C313.533 378.431 319.836 380.702 320.441 380.941C321.111 381.14 326.494 383.246 330.635 399.912C331.223 402.282 331.965 404.351 332.839 406.053C333.328 407.008 333.658 408.088 334.004 409.233C335.078 412.766 336.186 416.418 342.21 417.33C345.352 417.805 349.789 417.936 354.49 418.072C356.725 418.137 359.034 418.206 361.185 418.314C362.648 418.058 385.783 414.085 399.088 415.597C399.105 415.597 399.119 415.599 399.136 415.602C403.707 416.316 419.744 411.68 430.47 396.512C441.124 381.444 442.437 368.635 441.397 365.105C440.974 363.664 441.139 362.448 441.846 361.766C442.337 361.291 443.019 361.152 443.715 361.385C445.135 361.86 446.229 363.678 446.641 366.248C447.743 373.134 446.791 394.313 429.407 409.41C420.133 417.461 423.914 421.824 427.249 425.669C428.254 426.831 429.206 427.928 429.765 429.071C433.234 436.15 430.538 443.25 428.368 448.956C427.195 452.043 426.183 454.706 426.507 456.519C426.945 458.977 428.32 460.506 429.535 461.859C430.902 463.38 432.191 464.815 431.345 466.989C431.038 467.779 430.592 469.3 430.029 471.224C427.516 479.826 424.792 488.316 421.607 489.379C418.895 490.282 412.731 490.12 411.427 487.523C410.552 485.778 411.953 483.604 415.597 481.06C419.9 478.053 420.292 473.926 419.863 470.991C419.037 465.324 414.742 459.998 412.254 459.173C407.601 457.633 406.337 454.433 405.323 451.861C404.491 449.749 403.832 448.081 401.659 447.564C400.665 447.507 393.748 450.508 386.411 453.711C377.344 457.67 366.099 462.581 356.81 465.818C356.904 467.216 356.932 468.612 356.898 469.976C356.816 473.102 357.645 476.385 358.375 479.278C359.392 483.308 360.27 486.787 358.256 488.483C356.296 490.134 352.601 490.811 349.78 490.811L349.783 490.805ZM345.86 467.648C346.093 467.648 346.309 467.779 346.42 467.992C348.706 472.486 351.357 480.057 350.164 481.998C349.757 482.657 349.107 483.265 348.414 483.913C346.514 485.69 345.357 486.997 346.528 488.927C346.579 489.012 346.925 489.262 347.905 489.424C350.453 489.839 355.316 489.319 357.449 487.523C358.861 486.332 358.072 483.206 357.16 479.585C356.41 476.609 355.558 473.239 355.646 469.942C355.685 468.464 355.646 466.944 355.526 465.429C355.504 465.145 355.677 464.88 355.947 464.786C365.275 461.569 376.716 456.573 385.911 452.557C396.932 447.746 400.886 446.083 401.951 446.339C404.761 447.007 405.601 449.141 406.49 451.398C407.504 453.967 408.553 456.627 412.649 457.98C415.782 459.017 420.255 464.968 421.108 470.806C421.588 474.091 421.144 478.712 416.318 482.083C413.396 484.126 412.024 485.9 412.552 486.954C413.43 488.705 418.744 489.006 421.215 488.182C424.045 487.238 427.158 476.589 428.831 470.866C429.402 468.913 429.853 467.37 430.18 466.529C430.72 465.139 430.012 464.255 428.606 462.692C427.348 461.288 425.78 459.543 425.277 456.735C424.894 454.581 425.962 451.767 427.2 448.507C429.282 443.028 431.873 436.21 428.643 429.619C428.155 428.624 427.257 427.587 426.306 426.487C422.957 422.625 418.369 417.333 428.589 408.457C445.459 393.807 446.405 372.685 445.408 366.441C445.013 363.966 444.039 362.809 443.323 362.57C443.076 362.488 442.874 362.519 442.724 362.664C442.462 362.917 442.275 363.613 442.607 364.747C443.743 368.615 442.525 381.643 431.498 397.234C421.193 411.808 404.866 417.74 398.972 416.844C385.482 415.307 361.577 419.519 361.338 419.561C361.29 419.57 361.241 419.573 361.196 419.57C359.04 419.459 356.711 419.391 354.456 419.325C349.718 419.186 345.241 419.055 342.026 418.569C335.22 417.538 333.882 413.135 332.808 409.597C332.479 408.509 332.166 407.48 331.726 406.624C330.809 404.834 330.033 402.677 329.422 400.213C325.332 383.743 320.143 382.157 320.091 382.143C320.066 382.137 320.029 382.123 320.003 382.115C319.762 382.015 313.99 379.742 307.798 385.744C306.912 386.602 306.173 387.336 305.528 387.975C301.327 392.141 301.071 392.397 290.667 397.411C290.482 397.553 289.502 398.371 289.36 399.735C289.221 401.094 289.92 402.603 291.439 404.223C294.871 407.878 301.887 406.852 306.531 406.175C309.192 405.786 310.621 405.601 311.428 405.968C313.01 406.684 312.783 410.575 312.286 416.861C312.076 419.499 311.86 422.227 311.945 424.052C313.768 462.794 334.481 466.631 341.287 467.893C342.315 468.083 343.818 468.004 345.749 467.657C345.786 467.651 345.823 467.648 345.86 467.648Z" fill="black"/>
<path d="M349.781 490.805C349.003 490.805 348.293 490.754 347.702 490.657C346.515 490.464 345.782 490.109 345.455 489.575C343.666 486.627 345.915 484.527 347.557 482.992C348.185 482.407 348.776 481.853 349.094 481.338C350.096 479.71 345.441 467.537 341.72 463.243C341.601 463.092 339.206 460.017 340.456 456.124C340.561 455.794 340.913 455.612 341.246 455.717C341.575 455.823 341.757 456.178 341.652 456.508C340.612 459.75 342.666 462.416 342.688 462.445C346.407 466.733 351.667 479.556 350.165 481.998C349.758 482.657 349.108 483.265 348.418 483.91C346.517 485.687 345.361 486.994 346.532 488.924C346.583 489.009 346.929 489.259 347.909 489.421C350.454 489.839 355.32 489.319 357.453 487.52C358.865 486.329 358.075 483.203 357.164 479.582C356.414 476.606 355.562 473.236 355.65 469.939C355.888 460.898 353.19 454.049 352.358 452.165C352.218 451.847 352.36 451.477 352.678 451.338C352.994 451.199 353.366 451.341 353.505 451.659C354.363 453.603 357.147 460.671 356.902 469.973C356.82 473.099 357.649 476.382 358.379 479.278C359.396 483.308 360.274 486.786 358.26 488.483C356.3 490.134 352.605 490.811 349.784 490.811L349.781 490.805Z" fill="black"/>
<path d="M104.479 438.81L110.081 460.057C111.2 464.303 111.495 468.725 110.95 473.085L109.828 482.06L138.114 477.442L134.458 474.748C128.112 470.07 123.63 463.291 121.806 455.618L116.938 435.118L104.477 438.807L104.479 438.81Z" fill="white"/>
<path d="M109.83 482.688C109.668 482.688 109.511 482.626 109.395 482.512C109.253 482.376 109.185 482.18 109.207 481.983L110.329 473.008C110.866 468.711 110.579 464.408 109.474 460.219L103.873 438.972C103.785 438.645 103.975 438.307 104.302 438.211L116.763 434.522C116.928 434.473 117.107 434.493 117.255 434.581C117.402 434.667 117.51 434.811 117.55 434.979L122.419 455.479C124.205 462.999 128.611 469.663 134.831 474.247L138.487 476.942C138.689 477.092 138.783 477.348 138.726 477.592C138.666 477.837 138.467 478.025 138.217 478.064L109.932 482.683C109.898 482.688 109.864 482.691 109.83 482.691V482.688ZM105.242 439.239L110.687 459.898C111.832 464.241 112.13 468.705 111.574 473.162L110.557 481.307L136.544 477.064L134.09 475.253C127.634 470.493 123.055 463.573 121.2 455.763L116.485 435.908L105.242 439.237V439.239Z" fill="black"/>
<path d="M107.074 486.451C106.861 482.7 106.809 475.231 109.252 470.547C109.687 469.714 110.692 469.353 111.564 469.703L118.038 472.295C119.043 472.698 120.137 471.957 120.137 470.874V470.433C120.137 469.805 120.628 469.288 121.253 469.257L126.829 468.964C128.908 468.856 130.982 469.248 132.885 470.101C138.651 472.687 150.897 478.795 153.822 485.181C154.487 486.633 153.408 488.29 151.811 488.364C146.755 488.591 133.967 488.992 109.516 488.784C108.216 488.773 107.147 487.756 107.074 486.457V486.451Z" fill="white"/>
<path d="M122.645 489.464C118.699 489.464 114.333 489.447 109.513 489.404C107.888 489.39 106.542 488.108 106.448 486.482C106.221 482.467 106.21 475.02 108.698 470.252C109.283 469.132 110.615 468.643 111.8 469.118L118.273 471.707C118.554 471.82 118.861 471.786 119.114 471.616C119.367 471.445 119.512 471.172 119.512 470.868V470.425C119.512 469.464 120.264 468.671 121.225 468.62L126.8 468.327C128.965 468.214 131.158 468.626 133.143 469.518C139.818 472.514 151.453 478.493 154.393 484.908C154.788 485.772 154.728 486.741 154.225 487.565C153.711 488.406 152.819 488.935 151.839 488.978C147.468 489.174 138.421 489.455 122.642 489.455L122.645 489.464ZM107.701 486.414C107.755 487.38 108.556 488.142 109.522 488.151C133.589 488.355 146.332 487.977 151.782 487.733C152.345 487.707 152.859 487.403 153.154 486.92C153.436 486.46 153.473 485.92 153.251 485.439C150.379 479.173 137.87 473.022 132.626 470.672C130.82 469.862 128.826 469.487 126.86 469.589L121.284 469.882C120.992 469.896 120.762 470.141 120.762 470.433V470.877C120.762 471.593 120.406 472.261 119.813 472.664C119.219 473.065 118.466 473.148 117.802 472.88L111.328 470.291C110.746 470.058 110.09 470.294 109.806 470.843C107.457 475.344 107.477 482.535 107.695 486.42L107.701 486.414Z" fill="black"/>
<path d="M129.811 485.158C124.732 485.158 118.506 485.039 111.084 484.7C110.737 484.683 110.47 484.391 110.487 484.044C110.504 483.697 110.805 483.433 111.143 483.447C135.583 484.567 146.962 483.285 147.075 483.271C147.419 483.228 147.732 483.478 147.771 483.822C147.811 484.166 147.564 484.479 147.22 484.519C147.141 484.527 141.536 485.161 129.814 485.161L129.811 485.158Z" fill="black"/>
<path d="M136.17 479.141C136.054 479.141 135.932 479.107 135.827 479.039L126.203 472.724C125.913 472.534 125.834 472.144 126.021 471.854C126.212 471.565 126.601 471.485 126.89 471.673L136.514 477.988C136.804 478.178 136.883 478.567 136.696 478.857C136.576 479.042 136.375 479.141 136.17 479.141Z" fill="black"/>
<path d="M47.15 442.4L43.7301 466.426H35.0723L35.913 442.798L47.15 442.4Z" fill="white"/>
<path d="M43.7312 467.054H35.0734C34.903 467.054 34.7411 466.986 34.6218 466.864C34.5025 466.742 34.44 466.577 34.4457 466.406L35.2865 442.775C35.2978 442.445 35.562 442.181 35.8915 442.17L47.1284 441.775C47.3102 441.76 47.492 441.843 47.617 441.982C47.742 442.121 47.7988 442.306 47.7704 442.491L44.3504 466.517C44.305 466.827 44.0408 467.057 43.7284 467.057L43.7312 467.054ZM35.7239 465.798H43.1887L46.4268 443.053L36.5221 443.403L35.7239 465.798Z" fill="black"/>
<path d="M103.057 284.318C103.057 284.318 114.411 357.679 114.86 375.2C115.311 392.718 122.597 445.731 122.597 445.731C122.597 445.731 113.238 449.206 102.552 446.776C102.552 446.776 69.0425 352.899 66.5401 324.12C64.0348 295.339 72.4085 282.166 72.4085 282.166L103.057 284.323V284.318Z" fill="black"/>
<path d="M91.9532 279.751C91.9532 279.751 53.476 397.311 52.8454 445.097C52.8454 445.097 44.3666 447.089 32.1752 445.097C32.1752 445.097 24.3582 313.897 46.8861 277.142L91.9504 279.751H91.9532Z" fill="black"/>
<path d="M43.4001 488.784C39.858 489.165 34.89 490.069 27.3059 488.855C25.0875 488.5 23.6872 486.266 24.2979 484.104C25.9027 478.4 29.2574 467.867 33.5096 462.348C33.8163 461.947 34.4469 462.058 34.6117 462.535L34.7622 463.527C34.8531 464.121 35.6598 464.241 35.9155 463.695L36.8528 461.711C37.0715 461.345 37.455 461.103 37.8811 461.063L41.1675 460.938C41.8634 460.873 42.494 461.353 42.6162 462.044L42.7298 463.607C42.7724 464.215 43.5819 464.388 43.8717 463.854L45.2891 462.399C45.5759 462.01 46.1952 462.22 46.181 462.706L46.0134 468.95C45.8912 473.46 46.2179 477.973 46.9905 482.418L47.3796 484.655C47.5813 486.715 45.4652 488.566 43.4087 488.787L43.4001 488.784Z" fill="white"/>
<path d="M34.7691 490.095C32.5763 490.095 30.0766 489.935 27.2078 489.478C25.9835 489.282 24.8984 488.568 24.2252 487.517C23.5464 486.454 23.3532 485.149 23.6941 483.933C25.3274 478.127 28.7075 467.554 33.0109 461.964C33.2921 461.598 33.7522 461.416 34.2095 461.492C34.6697 461.569 35.0503 461.89 35.2009 462.331C35.2122 462.365 35.2208 462.402 35.2264 462.439L35.377 463.431L36.2803 461.444C36.6296 460.853 37.1949 460.498 37.817 460.441L41.1375 460.313C42.1175 460.219 43.052 460.933 43.2281 461.936C43.2309 461.956 43.2338 461.978 43.2366 461.998L43.3502 463.561C43.3786 463.51 43.3786 463.456 43.4184 463.416L44.8102 461.987C45.1056 461.62 45.597 461.478 46.0458 461.632C46.5117 461.791 46.8156 462.231 46.8043 462.723L46.6367 468.967C46.5174 473.426 46.8412 477.917 47.6053 482.31L47.9916 484.547C48.2387 487.045 45.8044 489.16 43.4695 489.41C43.0207 489.458 42.552 489.515 42.055 489.575C40.0893 489.81 37.7062 490.097 34.7691 490.097V490.095ZM34.0079 462.749C29.8238 468.168 26.509 478.559 24.9013 484.274C24.657 485.144 24.7962 486.079 25.2819 486.84C25.7676 487.599 26.5204 488.097 27.4038 488.239C33.9369 489.282 38.5413 488.73 41.9016 488.327C42.4043 488.267 42.8787 488.21 43.3332 488.162C45.0517 487.977 46.915 486.431 46.7474 484.715L46.3668 482.526C45.5914 478.05 45.259 473.477 45.3812 468.936L45.5402 463.038L44.3671 464.244C44.0888 464.673 43.5803 464.886 43.0719 464.775C42.5293 464.658 42.1402 464.207 42.1004 463.655L41.9896 462.129C41.9129 461.777 41.5834 461.532 41.2227 461.566L37.9022 461.694C37.709 461.714 37.5045 461.842 37.3881 462.038L36.4819 463.965C36.249 464.46 35.732 464.741 35.1867 464.661C34.6441 464.582 34.2266 464.164 34.1442 463.624L34.0107 462.751L34.0079 462.749Z" fill="black"/>
<path d="M36.022 485.63C33.8603 485.63 31.2755 485.377 28.3867 484.615C28.0516 484.527 27.8527 484.183 27.9408 483.848C28.0288 483.512 28.3697 483.314 28.7077 483.402C36.8372 485.539 42.5323 483.444 42.5892 483.421C42.913 483.299 43.2737 483.461 43.3987 483.785C43.5208 484.109 43.3589 484.47 43.038 484.595C42.876 484.658 40.2571 485.63 36.0276 485.63H36.022Z" fill="black"/>
<path d="M39.9419 476.845H32.0027C31.6562 476.845 31.375 476.564 31.375 476.217C31.375 475.87 31.6562 475.589 32.0027 475.589H39.9419C40.2884 475.589 40.5696 475.87 40.5696 476.217C40.5696 476.564 40.2884 476.845 39.9419 476.845Z" fill="black"/>
<path d="M81.0097 179.089C78.5867 193.015 64.4553 207.964 50.2387 205.989C47.918 205.668 41.6576 204.346 35.0819 196.724C26.0151 203.215 14.4571 201.495 8.2251 193.964C0.609762 184.759 1.64939 167.721 12.7415 158.976C3.95302 158.902 1.59257 155.52 0.893811 154.19C-3.22205 146.337 7.64564 127.969 17.7862 127.941C21.5299 127.93 26.4951 132.559 36.2749 141.816C46.3756 151.376 46.8046 153.229 49.8638 153.562C58.8511 154.537 61.5382 139.212 73.4597 137.519C81.6204 136.359 90.7355 142.066 91.4257 147.451C92.0166 152.075 86.0515 153.707 82.6912 162.943C80.1888 169.821 82.126 172.694 81.0125 179.095L81.0097 179.089Z" fill="black"/>
<path d="M69.1894 132.332C69.8854 134.463 69.1894 140.497 65.9911 141.543C62.7898 142.589 58.2905 138.246 57.5974 136.117C56.9015 133.986 58.9353 131.411 62.1365 130.365C65.3377 129.319 68.4964 130.2 69.1923 132.332H69.1894Z" fill="black"/>
<path d="M107.826 285.224C107.826 285.224 111.39 309.041 107.03 313.605C107.03 313.605 92.7796 297.988 92.1035 286.708L107.823 285.224H107.826Z" fill="white"/>
<path d="M107.031 314.233H107.026C106.852 314.233 106.688 314.156 106.568 314.028C105.98 313.383 92.1613 298.116 91.4796 286.745C91.4597 286.407 91.7097 286.114 92.0477 286.083L107.767 284.599C108.094 284.568 108.398 284.801 108.446 285.131C108.594 286.117 112.005 309.305 107.486 314.037C107.366 314.162 107.205 314.23 107.031 314.23V314.233ZM92.7806 287.274C93.7719 296.956 104.54 309.802 106.997 312.622C109.738 308.205 108.238 292.545 107.293 285.907L92.7806 287.276V287.274Z" fill="black"/>
<path d="M88.0576 285.466C88.0576 285.466 83.6179 304.681 78.3545 309.473C73.0882 314.264 58.7069 292.838 50.7024 292.381C42.6979 291.923 33.8867 311.249 33.8867 311.249C33.8867 311.249 36.1193 287.114 42.7093 282.002L88.0604 285.469L88.0576 285.466Z" fill="white"/>
<path d="M33.8854 311.874C33.8315 311.874 33.7775 311.868 33.7235 311.854C33.4281 311.775 33.2321 311.496 33.2605 311.189C33.3514 310.192 35.5954 286.722 42.3217 281.504C42.4438 281.408 42.6001 281.362 42.7534 281.374L88.1046 284.841C88.2864 284.855 88.454 284.949 88.5619 285.094C88.6699 285.242 88.7096 285.429 88.667 285.605C88.4852 286.398 84.1223 305.068 78.7736 309.936C75.4985 312.914 69.8232 307.688 63.8156 302.149C59.0436 297.749 54.1097 293.202 50.6613 293.006C43.1596 292.563 34.5388 311.317 34.4535 311.508C34.3484 311.735 34.124 311.874 33.8826 311.874H33.8854ZM50.4228 291.744C50.5278 291.744 50.6301 291.747 50.7352 291.753C54.6295 291.977 59.731 296.678 64.6678 301.228C69.9965 306.139 75.5071 311.218 77.9328 309.009C82.4322 304.914 86.4174 289.539 87.278 286.037L42.9097 282.644C38.22 286.6 35.8198 300.989 34.9279 307.75C37.8337 302.254 44.2049 291.744 50.4256 291.744H50.4228Z" fill="black"/>
<path d="M159.3 170.679L166.626 163.037C167.87 161.741 169.966 163.199 169.182 164.816L166.927 169.474C166.927 169.474 168.466 170.191 169.228 170.239C170.898 170.347 172.514 169.628 173.673 168.417C175.011 167.019 177.175 164.791 177.908 164.242C178.996 163.429 180.399 162.17 181.953 162.042H181.998C183.623 161.92 184.683 163.711 183.799 165.078L180.737 169.815C178.516 173.254 175.252 175.892 171.426 177.344L161.524 181.101L160.789 209.351L147.93 199.517L153.704 180.834C154.858 177.102 156.761 173.644 159.297 170.674L159.3 170.679Z" fill="white"/>
<path d="M160.791 209.985C160.654 209.985 160.521 209.942 160.41 209.857L147.551 200.023C147.341 199.864 147.256 199.591 147.332 199.338L153.107 180.655C154.294 176.818 156.217 173.325 158.822 170.273C158.831 170.264 158.839 170.256 158.848 170.247L166.173 162.605C166.94 161.804 168.113 161.687 169.022 162.321C169.931 162.955 170.23 164.094 169.747 165.092L167.778 169.159C168.312 169.375 168.937 169.591 169.269 169.614C170.707 169.71 172.144 169.113 173.221 167.985C174.78 166.354 176.794 164.296 177.532 163.742C177.68 163.631 177.836 163.512 177.995 163.387C179.058 162.565 180.376 161.545 181.901 161.42C182.944 161.346 183.872 161.829 184.378 162.685C184.884 163.54 184.864 164.589 184.324 165.422L181.262 170.159C178.95 173.735 175.626 176.423 171.647 177.932L162.14 181.542L161.416 209.371C161.41 209.607 161.271 209.82 161.061 209.919C160.975 209.959 160.882 209.982 160.791 209.982V209.985ZM148.659 199.29L160.197 208.112L160.899 181.09C160.904 180.834 161.066 180.609 161.302 180.518L171.204 176.761C174.931 175.346 178.044 172.828 180.211 169.48L183.273 164.742C183.557 164.305 183.566 163.776 183.301 163.327C183.034 162.878 182.566 162.634 182.046 162.67C180.85 162.767 179.694 163.662 178.765 164.381C178.6 164.509 178.439 164.634 178.285 164.748C177.768 165.135 176.254 166.629 174.13 168.852C172.795 170.247 170.991 170.981 169.193 170.864C168.338 170.81 166.835 170.122 166.668 170.043C166.514 169.972 166.398 169.844 166.341 169.685C166.284 169.525 166.293 169.352 166.367 169.201L168.622 164.543C168.883 164.006 168.63 163.574 168.309 163.35C167.988 163.125 167.494 163.04 167.082 163.472L159.771 171.1C157.283 174.019 155.445 177.358 154.312 181.024L148.665 199.29H148.659Z" fill="black"/>
<path d="M145.313 193.558L177.394 218.991L163.095 233.824L135.883 211.144L145.313 193.558Z" fill="white"/>
<path d="M163.096 234.452C162.954 234.452 162.812 234.403 162.696 234.307L135.484 211.627C135.254 211.437 135.191 211.11 135.333 210.849L144.764 193.262C144.852 193.097 145.008 192.981 145.19 192.944C145.372 192.904 145.562 192.952 145.707 193.066L177.784 218.499C177.924 218.61 178.009 218.772 178.02 218.948C178.032 219.125 177.969 219.298 177.847 219.426L163.548 234.258C163.426 234.386 163.261 234.449 163.096 234.449V234.452ZM136.68 210.991L163.051 232.971L176.464 219.056L145.514 194.518L136.68 210.994V210.991Z" fill="black"/>
<path d="M37.6224 251.376L47.8396 267.288L52.4156 264.182C55.2164 262.284 58.6477 261.553 61.9767 262.153C61.9767 262.153 66.8993 262.806 68.9984 264.503C74.0658 268.596 69.575 271.142 68.6036 271.654C67.0413 272.481 64.874 273.251 62.5619 272.918C61.2126 272.725 57.6563 273.186 54.4437 274.931C52.0151 276.252 49.1746 278.946 45.3173 277.9C42.0223 277.005 40.5708 275.061 40.5708 275.061L27.3711 258.592L37.6224 251.37V251.376Z" fill="white"/>
<path d="M47.0546 278.77C46.4468 278.77 45.8162 278.691 45.1544 278.512C41.689 277.571 40.1352 275.527 40.0699 275.442L26.8815 258.99C26.7736 258.853 26.7253 258.68 26.7509 258.509C26.7764 258.339 26.8702 258.185 27.0122 258.083L37.2635 250.861C37.4027 250.765 37.5788 250.728 37.7435 250.759C37.9111 250.793 38.0588 250.893 38.1497 251.035L48.0204 266.407L52.0652 263.662C55.0165 261.658 58.5756 260.905 62.0893 261.533C62.2683 261.556 67.1823 262.227 69.395 264.012C71.2527 265.512 72.1247 267.021 71.9827 268.499C71.8464 269.912 70.7528 271.227 68.9008 272.208C67.3726 273.015 65.0207 273.905 62.4756 273.541C61.3281 273.376 57.8826 273.78 54.7467 275.485C54.2723 275.741 53.7781 276.059 53.2526 276.391C51.554 277.471 49.5202 278.767 47.0575 278.767L47.0546 278.77ZM28.279 258.725L41.0612 274.675C41.0868 274.709 42.4587 276.482 45.481 277.301C48.2902 278.062 50.5655 276.613 52.5737 275.337C53.1191 274.99 53.6332 274.663 54.1445 274.385C57.4593 272.583 61.115 272.08 62.6517 272.302C64.8616 272.617 66.9494 271.824 68.3128 271.102C69.1621 270.653 70.6051 269.701 70.7329 268.383C70.8323 267.354 70.1165 266.214 68.6082 264.995C66.6682 263.426 61.9444 262.784 61.8962 262.778C58.6807 262.201 55.4511 262.886 52.7697 264.705L48.1937 267.811C48.0545 267.905 47.8812 267.939 47.7165 267.908C47.5517 267.874 47.4069 267.774 47.316 267.632L37.451 252.268L28.2819 258.728L28.279 258.725Z" fill="black"/>
<path d="M33.3678 233.636L41.679 250.503L16.2283 270.841C16.2283 270.841 7.27508 252.166 6.39453 245.97L33.3649 233.636H33.3678Z" fill="white"/>
<path d="M16.2289 271.469C16.1835 271.469 16.1352 271.463 16.0898 271.452C15.9023 271.409 15.7461 271.284 15.6637 271.111C15.2973 270.343 6.65651 252.277 5.77596 246.058C5.73619 245.783 5.8839 245.515 6.1367 245.399L33.1071 233.065C33.4139 232.922 33.7803 233.053 33.9308 233.357L42.2421 250.225C42.3728 250.489 42.3017 250.807 42.0717 250.992L16.6209 271.33C16.5101 271.421 16.371 271.466 16.2289 271.466V271.469ZM7.09394 246.342C8.15628 252.052 14.8655 266.481 16.4562 269.857L40.8929 250.33L33.073 234.46L7.0911 246.342H7.09394Z" fill="black"/>
<path d="M174.048 230.368L137.209 201.93C137.209 201.93 133.179 208.066 126.572 208.728C120.956 209.291 107.671 196.482 103.817 192.628C101.729 190.167 98.8542 188.417 95.6047 187.751C90.4379 186.697 82.5413 183.889 71.3186 184.841C71.3186 184.841 71.2646 184.841 71.1624 184.855C69.1456 185.032 67.0238 185.333 64.7883 185.785C49.285 188.382 10.9981 196.968 3.74347 219.244C-1.5796 235.588 3.5418 251.325 3.5418 251.325L37.9713 234.69L37.4572 233.446C35.8835 229.643 37.4458 225.263 41.0731 223.322L46.3507 220.494C47.5665 227.145 48.5635 234.139 47.433 240.07C43.2489 262.005 38.4513 269.181 36.0568 287.168C36.0568 287.168 44.3482 285.219 50.37 285.608L107.103 287.779C110.889 287.924 114.173 285.136 114.596 281.371C115.19 276.099 115.204 266.766 113.025 250.384C112.744 248.258 112.565 244.882 112.358 240.752C123.95 247.735 145.117 253.155 174.048 230.365V230.368Z" fill="white"/>
<path d="M107.379 288.416C107.279 288.416 107.177 288.416 107.078 288.41L50.3445 286.239C44.4704 285.858 36.2813 287.762 36.1989 287.782C35.9972 287.828 35.787 287.774 35.6336 287.637C35.4803 287.498 35.4064 287.293 35.432 287.089C36.7045 277.531 38.6105 271.148 40.8204 263.753C42.7093 257.429 44.8482 250.265 46.8138 239.957C47.8676 234.435 47.0212 227.838 45.8821 221.458L41.3657 223.876C38.0083 225.675 36.5738 229.686 38.031 233.207L38.5451 234.452C38.673 234.759 38.5366 235.111 38.2384 235.256L3.80886 251.89C3.64695 251.97 3.45664 251.973 3.28905 251.902C3.12146 251.831 2.99364 251.691 2.93967 251.518C2.88854 251.359 -2.18457 235.398 3.14134 219.048C10.4726 196.542 48.6175 187.857 64.6776 185.165C66.8193 184.73 68.9866 184.415 71.0999 184.23L71.2448 184.213C71.2732 184.21 71.2988 184.21 71.3272 184.21C80.4622 183.449 87.3929 185.14 92.4575 186.379C93.6307 186.666 94.7413 186.936 95.7241 187.138C99.0389 187.814 102.081 189.619 104.288 192.222C112.233 200.157 122.266 208.535 126.504 208.103C132.738 207.478 136.641 201.643 136.678 201.584C136.775 201.439 136.925 201.339 137.099 201.311C137.269 201.282 137.448 201.325 137.584 201.433L174.423 229.87C174.576 229.99 174.667 230.172 174.667 230.365C174.667 230.558 174.579 230.74 174.428 230.862C161.453 241.085 148.77 246.633 136.729 247.354C128.285 247.86 120.317 246.022 113.034 241.886C113.224 245.618 113.389 248.437 113.639 250.307C115.463 264.031 115.994 274.507 115.213 281.445C114.767 285.409 111.355 288.416 107.373 288.416H107.379ZM48.6573 284.932C49.2538 284.932 49.8389 284.949 50.407 284.986L107.123 287.157C110.574 287.293 113.585 284.719 113.971 281.305C114.5 276.605 114.659 267.439 112.401 250.472C112.119 248.366 111.946 245.129 111.727 240.789C111.716 240.559 111.832 240.34 112.031 240.221C112.23 240.102 112.477 240.102 112.676 240.221C124.953 247.613 145.356 251.859 173.022 230.373L137.337 202.826C136.147 204.397 132.341 208.782 126.631 209.357C126.495 209.371 126.356 209.376 126.214 209.376C120.331 209.376 108.339 198.042 103.371 193.077C101.308 190.65 98.5191 188.993 95.477 188.374C94.4714 188.169 93.3494 187.894 92.165 187.604C87.1714 186.384 80.3315 184.71 71.3698 185.472C71.3527 185.472 71.3385 185.472 71.3215 185.472L71.2334 185.484C69.1485 185.668 67.0295 185.975 64.9134 186.404C49.0578 189.062 11.4583 197.591 4.34003 219.443C-0.233154 233.483 3.05045 247.244 3.93668 250.444L37.1647 234.389L36.8749 233.693C35.1706 229.575 36.8465 224.88 40.7749 222.777L46.0525 219.952C46.2286 219.858 46.4417 219.852 46.6206 219.94C46.8024 220.028 46.9303 220.196 46.9643 220.392C48.2 227.15 49.1856 234.23 48.0466 240.198C46.0696 250.569 43.9193 257.768 42.0219 264.12C39.8972 271.227 38.0566 277.4 36.7982 286.373C38.8491 285.938 44.0557 284.94 48.6601 284.94L48.6573 284.932Z" fill="black"/>
<path d="M113.693 246.522C113.383 246.522 113.116 246.294 113.073 245.979L112.139 239.13C111.349 233.326 110.739 226.906 110.423 221.054L110.122 215.467C110.102 215.12 110.369 214.825 110.716 214.807C111.054 214.79 111.358 215.055 111.375 215.401L111.676 220.989C111.991 226.809 112.596 233.193 113.383 238.962L114.318 245.811C114.363 246.155 114.124 246.47 113.781 246.519C113.752 246.522 113.724 246.524 113.695 246.524L113.693 246.522Z" fill="black"/>
<path d="M87.7651 169.645L85.5609 187.965L96.9598 191.48C96.9598 191.48 80.6725 202.752 60.8203 191.386L71.5375 186.805L77.0622 165.544L87.7651 169.642V169.645Z" fill="white"/>
<path d="M79.0345 197.053C73.5666 197.053 67.2266 195.774 60.5117 191.932C60.3044 191.813 60.1822 191.588 60.1964 191.352C60.2106 191.114 60.3583 190.906 60.5771 190.812L71.0102 186.353L76.4582 165.39C76.5036 165.217 76.6201 165.072 76.7792 164.99C76.9382 164.907 77.1229 164.899 77.2905 164.961L87.9934 169.059C88.2632 169.162 88.4252 169.435 88.3911 169.722L86.2494 187.521L97.1483 190.88C97.3784 190.952 97.546 191.148 97.5829 191.384C97.6198 191.622 97.5176 191.858 97.3187 191.995C97.2079 192.071 89.8227 197.051 79.0345 197.051V197.053ZM62.2501 191.457C78.0659 199.884 91.49 193.848 95.4355 191.665L85.3802 188.564C85.0904 188.476 84.9058 188.192 84.9427 187.891L87.0873 170.057L77.4978 166.385L72.1492 186.967C72.1009 187.155 71.9674 187.311 71.7884 187.385L62.2529 191.46L62.2501 191.457Z" fill="black"/>
<path d="M76.8136 170.68C76.8136 170.68 72.7233 172.223 71.6467 168.667C70.5673 165.112 74.0952 165.337 74.0952 165.337C74.0952 165.337 70.3401 157.544 76.1773 156.785C82.0145 156.026 86.2752 153.866 86.2752 153.866C86.2752 153.866 90.5189 161.301 91.8795 167.531C92.7004 171.288 92.476 174.61 89.6412 175.599C81.8781 178.308 76.8136 170.68 76.8136 170.68Z" fill="white"/>
<path d="M86.3477 176.804C81.1439 176.804 77.5678 172.7 76.5736 171.41C75.818 171.612 74.2757 171.882 72.9491 171.228C72.0288 170.773 71.3869 169.975 71.046 168.852C70.654 167.565 70.7563 166.533 71.3471 165.788C71.8442 165.157 72.5856 164.893 73.1764 164.782C72.6111 163.324 71.6851 160.269 72.8156 158.183C73.432 157.046 74.5341 156.367 76.0964 156.162C81.749 155.429 85.9529 153.329 85.9926 153.306C86.2909 153.155 86.6545 153.263 86.8192 153.553C86.9953 153.86 91.1254 161.142 92.4917 167.397C93.554 172.251 92.6621 175.21 89.8472 176.19C88.6144 176.619 87.4441 176.801 86.3477 176.801V176.804ZM76.8122 170.054C77.0167 170.054 77.2156 170.156 77.3349 170.333C77.5308 170.628 82.2318 177.52 89.4325 175.008C91.5515 174.269 92.1679 171.799 91.2646 167.667C90.1398 162.52 86.9698 156.455 86.0068 154.684C84.6633 155.293 80.9849 156.79 76.2526 157.407C75.0994 157.558 74.3325 158.007 73.9149 158.777C72.7219 160.98 74.6364 165.024 74.6534 165.064C74.75 165.265 74.733 165.501 74.608 165.686C74.483 165.871 74.2728 165.979 74.0484 165.962C73.7189 165.945 72.756 166.016 72.3214 166.567C72.0033 166.971 71.9777 167.616 72.239 168.485C72.4776 169.273 72.8866 169.798 73.4917 170.1C74.7955 170.745 76.5708 170.1 76.5878 170.091C76.6588 170.066 76.7327 170.051 76.8065 170.051L76.8122 170.054Z" fill="black"/>
<path d="M147.719 415.628C147.719 415.628 140.303 436.778 124.726 450.136C109.151 463.493 107.666 476.481 109.52 479.448C109.52 479.448 120.073 482.358 118.94 486.511C117.806 490.663 102.524 491.231 100.638 485.189C98.7522 479.147 99.7464 450.144 99.6952 443.471C99.6129 432.748 105.731 414.212 124.788 411.757C143.842 409.304 147.716 415.625 147.716 415.625L147.719 415.628Z" fill="white"/>
<path d="M110.558 490.305C106.334 490.305 101.184 489.026 100.045 485.377C98.5397 480.557 98.8266 461.768 98.9999 450.542C99.0482 447.404 99.0851 444.926 99.0737 443.477C98.9828 431.816 105.738 413.581 124.712 411.137C143.948 408.662 148.089 415.028 148.254 415.301C148.353 415.463 148.373 415.659 148.311 415.835C148.237 416.048 140.658 437.298 125.135 450.61C110.416 463.234 108.337 475.68 109.941 478.914C111.859 479.468 120.741 482.296 119.545 486.676C118.889 489.083 114.748 490.231 110.933 490.302C110.808 490.302 110.68 490.305 110.552 490.305H110.558ZM132.878 411.825C130.575 411.825 127.925 411.99 124.874 412.382C106.706 414.721 100.241 432.254 100.329 443.468C100.341 444.929 100.304 447.416 100.255 450.562C100.085 461.714 99.7981 480.378 101.244 485.004C102.15 487.903 106.754 489.123 110.916 489.049C114.748 488.978 117.94 487.818 118.341 486.346C119.13 483.45 111.941 480.764 109.359 480.054C109.209 480.011 109.078 479.914 108.993 479.781C106.962 476.527 108.484 463.24 124.32 449.658C138.548 437.457 146.004 418.436 147.013 415.739C146.248 414.88 142.826 411.822 132.878 411.822V411.825Z" fill="black"/>
<path d="M244.103 391.459C244.461 391.152 257.008 403.87 248.083 431.373C239.158 458.875 237.32 470.445 238.033 474.73C238.746 479.016 248.603 480.554 245.529 486.516C243.356 490.734 229.818 490.001 227.492 486.721C225.845 484.396 224.885 476.24 225.112 465.77C225.339 455.3 226.933 429.807 221.928 422.977C216.923 416.148 244.103 391.459 244.103 391.459Z" fill="white"/>
<path d="M237.003 490.06C232.873 490.06 228.374 489.046 226.982 487.085C225.212 484.589 224.255 476.416 224.485 465.755C224.514 464.417 224.565 462.831 224.624 461.069C225.011 449.121 225.661 429.127 221.423 423.347C216.234 416.267 240.858 393.559 243.681 390.993C243.687 390.99 243.69 390.984 243.695 390.982C243.812 390.882 244.133 390.68 244.59 390.987C245.286 391.451 248.518 394.835 250.476 401.821C252.137 407.747 253.174 417.719 248.68 431.566C239.287 460.512 238.043 470.959 238.653 474.625C238.901 476.103 240.548 477.291 242.295 478.544C244.911 480.426 248.169 482.768 246.09 486.801C244.846 489.216 240.912 489.842 238.679 489.998C238.134 490.035 237.574 490.055 237.006 490.055L237.003 490.06ZM244.138 392.278C236.463 399.314 218.668 417.469 222.434 422.608C226.928 428.738 226.272 449.004 225.877 461.114C225.82 462.871 225.769 464.451 225.741 465.787C225.488 477.439 226.695 484.516 228.005 486.363C229.155 487.986 234.004 489.077 238.588 488.756C241.892 488.523 244.28 487.579 244.974 486.235C246.451 483.37 244.67 481.807 241.562 479.573C239.687 478.223 237.747 476.831 237.415 474.841C236.492 469.308 239.881 454.62 247.485 431.188C255.603 406.169 245.857 394.119 244.136 392.286L244.138 392.278Z" fill="black"/>
<path d="M207.316 372.42C205.739 373.105 194.556 377.755 181.976 375.876C128.759 367.938 106.07 374.975 103.655 375.876C103.155 376.064 102.121 376.314 100.809 376.908C90.5747 364.571 101.156 343.884 105.888 337.048C110.2 330.822 116.346 329.185 116.403 326.075C116.42 325.126 115.804 324.282 114.952 323.864C111.645 322.244 98.5593 324.157 89.2709 346.205C79.8405 368.589 87.3195 379.733 92.4949 385.062C88.7369 391.962 86.1691 404.254 88.9925 426.456C90.106 435.215 86.7031 442.448 80.4313 448.416C79.2894 449.502 78.5367 450.928 78.3492 452.494C77.3892 460.452 74.7816 484.939 78.6645 488.116C83.3087 491.919 94.7928 490.197 96.2273 489.637C99.099 488.514 100.587 483.063 89.9952 479.667C88.396 479.155 87.2116 477.78 86.9446 476.123C86.0782 470.743 86.0299 458.909 99.5194 450.354C111.628 442.675 118.698 430.906 122.025 424.037C123.641 420.698 127.189 418.743 130.87 419.169C175.357 424.319 170.637 440.589 204.177 440.049C239.271 439.484 245.523 418.814 245.807 412.865C245.995 408.935 248.398 390.146 255.238 377.215L256.206 375.612C260.569 368.433 262.319 368.564 268.071 370.834C285.051 377.536 285.844 376.07 289.073 374.288C292.306 372.506 300.648 363.303 298.075 360.927C296.084 359.091 284.509 352.671 279.359 349.855C277.882 349.048 276.814 347.669 276.385 346.041C275.3 341.942 272.073 333.746 263.018 329.25C255.834 325.683 244.779 325.84 238.646 331.458C235.587 334.263 215.246 368.979 207.316 372.42Z" fill="white"/>
<path d="M88.342 491.143C84.6892 491.143 80.6812 490.578 78.2696 488.602C74.3839 485.419 76.2643 464.567 77.73 452.421C77.9316 450.749 78.7383 449.166 80.0024 447.964C86.5696 441.712 89.3845 434.502 88.3733 426.535C86.0015 407.88 87.1291 393.969 91.7307 385.167C82.7605 375.66 81.7407 362.473 88.6942 345.961C95.2472 330.407 103.448 325.376 107.754 323.762C111.27 322.443 113.921 322.659 115.23 323.299C116.346 323.844 117.056 324.939 117.034 326.087C117 327.96 115.264 329.27 113.068 330.932C111.026 332.478 108.487 334.4 106.405 337.404C101.701 344.193 91.6796 364.247 100.999 376.138C101.778 375.814 102.442 375.603 102.911 375.458C103.124 375.39 103.303 375.336 103.439 375.285C104.359 374.941 126.606 366.978 182.072 375.251C194.21 377.061 205.023 372.727 207.069 371.838C212.323 369.558 223.555 352.566 230.988 341.323C234.596 335.869 237.2 331.927 238.223 330.989C244.762 324.995 256.107 325.109 263.296 328.682C272.459 333.232 275.811 341.408 276.993 345.876C277.379 347.334 278.351 348.581 279.663 349.3C285.849 352.685 296.524 358.639 298.501 360.461C298.879 360.811 299.299 361.464 299.16 362.601C298.703 366.381 292.155 373.296 289.377 374.83C289.193 374.933 289.014 375.035 288.843 375.132C285.793 376.874 284.114 377.834 267.844 371.411C262.396 369.26 260.947 369.016 256.746 375.93L255.78 377.533C248.829 390.675 246.591 409.691 246.438 412.891C246.25 416.807 244.06 423.352 238.493 428.914C230.932 436.471 219.391 440.427 204.191 440.672C187.313 440.947 179.945 436.954 171.415 432.333C162.783 427.655 152.994 422.355 130.802 419.786C127.393 419.391 124.092 421.207 122.593 424.304C119.42 430.855 112.25 443.022 99.8602 450.877C86.9615 459.057 86.6235 470.138 87.5694 476.015C87.7966 477.428 88.8249 478.624 90.1912 479.062C97.6901 481.466 98.9001 484.714 98.9541 486.437C99.0052 488.091 98.0025 489.608 96.4601 490.211C95.7756 490.478 92.2647 491.132 88.3449 491.132L88.342 491.143ZM112.591 324.058C111.395 324.058 109.879 324.311 108.194 324.941C104.078 326.485 96.2215 331.33 89.8503 346.453C83.0275 362.647 84.0699 375.49 92.9464 384.627C93.1368 384.823 93.1794 385.124 93.0487 385.366C88.396 393.906 87.2427 407.704 89.6174 426.382C90.6826 434.766 87.7398 442.334 80.8687 448.877C79.8149 449.88 79.1417 451.193 78.9741 452.574C76.6023 472.212 76.6364 485.647 79.0622 487.633C83.3144 491.112 94.3866 489.685 96 489.054C96.8748 488.713 97.7383 487.787 97.6986 486.488C97.6645 485.368 96.8237 482.518 89.8077 480.267C87.9983 479.687 86.632 478.101 86.3309 476.225C85.5299 471.249 85.1777 458.713 99.187 449.829C111.313 442.138 118.349 430.202 121.462 423.767C123.195 420.189 127.007 418.092 130.944 418.549C153.378 421.147 163.277 426.507 172.011 431.239C180.385 435.775 187.614 439.697 204.168 439.424C219.033 439.185 230.281 435.351 237.604 428.033C244.6 421.042 245.142 413.658 245.182 412.837C245.336 409.591 247.611 390.297 254.686 376.922L255.672 375.288C260.103 367.998 262.148 367.822 268.304 370.252C284.014 376.453 285.599 375.549 288.221 374.049C288.4 373.947 288.582 373.844 288.772 373.739C291.323 372.332 297.521 365.716 297.916 362.459C298.004 361.72 297.737 361.473 297.652 361.39C295.703 359.591 284.003 353.112 279.061 350.406C277.45 349.525 276.254 347.993 275.78 346.203C274.652 341.94 271.46 334.144 262.739 329.813C256.075 326.502 245.128 326.368 239.069 331.921C238.161 332.754 235.32 337.051 232.034 342.022C224.069 354.069 213.161 370.567 207.566 372.994C205.467 373.907 194.36 378.357 181.885 376.496C126.737 368.268 104.783 376.124 103.877 376.462C103.723 376.519 103.524 376.581 103.286 376.658C102.729 376.831 101.968 377.073 101.07 377.476C100.812 377.593 100.511 377.522 100.329 377.306C90.3786 365.307 99.2779 345.492 105.374 336.69C107.569 333.522 110.2 331.532 112.31 329.932C114.31 328.42 115.753 327.326 115.775 326.064C115.787 325.405 115.355 324.762 114.673 324.427C114.199 324.194 113.483 324.052 112.586 324.052L112.591 324.058Z" fill="black"/>
<path d="M225.779 392.951C226.137 392.644 237.559 399.073 228.634 426.575C219.709 454.078 218.996 471.937 219.709 476.223C220.422 480.508 230.278 482.046 227.205 488.009C225.032 492.226 211.494 491.493 209.168 488.213C207.52 485.888 206.56 477.732 206.788 467.262C207.015 456.792 208.608 431.299 203.603 424.469C198.598 417.64 225.779 392.951 225.779 392.951Z" fill="white"/>
<path d="M218.681 491.553C214.551 491.553 210.051 490.538 208.66 488.577C206.89 486.082 205.933 477.908 206.163 467.248C206.188 466.111 206.225 464.798 206.268 463.354C206.594 452.014 207.2 430.907 203.086 424.822C201.288 422.162 200.297 416.807 201.749 412.445C201.857 412.115 202.214 411.936 202.541 412.047C202.871 412.155 203.047 412.51 202.939 412.84C201.629 416.782 202.535 421.764 204.126 424.12C208.466 430.54 207.876 451.105 207.523 463.391C207.481 464.832 207.444 466.142 207.418 467.276C207.165 478.928 208.373 486.005 209.682 487.852C210.832 489.475 215.678 490.572 220.266 490.245C223.572 490.012 225.958 489.069 226.651 487.724C228.128 484.86 226.347 483.297 223.24 481.06C221.365 479.71 219.425 478.317 219.093 476.328C218.454 472.491 218.726 455.084 228.04 426.385C232.619 412.274 231.687 404.004 230.099 399.548C229.983 399.221 230.153 398.863 230.48 398.746C230.807 398.63 231.165 398.8 231.281 399.127C232.934 403.765 233.923 412.325 229.233 426.771C220.683 453.117 219.544 471.397 220.331 476.12C220.578 477.598 222.226 478.786 223.973 480.04C226.589 481.921 229.847 484.263 227.767 488.296C226.523 490.711 222.589 491.337 220.357 491.493C219.811 491.533 219.252 491.55 218.684 491.55L218.681 491.553Z" fill="black"/>
<path d="M250.929 331.433C250.929 331.433 255.477 321.798 248.254 323.671C241.03 325.544 225.962 325.811 224.269 332.771C222.576 339.731 238.09 348.562 246.382 349.366C254.673 350.17 245.044 342.406 250.929 331.433Z" fill="white"/>
<path d="M247.445 350.048C247.104 350.048 246.732 350.028 246.323 349.988C239.932 349.369 229.305 344.148 225.184 338.345C223.741 336.312 223.23 334.388 223.659 332.621C225.036 326.962 234.299 325.464 241.741 324.259C244.113 323.876 246.354 323.512 248.098 323.06C250.058 322.551 251.461 322.787 252.268 323.762C254.109 325.987 251.771 331.117 251.498 331.697C251.492 331.706 251.49 331.717 251.484 331.725C248.655 337 249.53 341.431 250.172 344.665C250.584 346.743 250.879 348.246 249.998 349.221C249.493 349.781 248.686 350.045 247.448 350.045L247.445 350.048ZM249.91 324.052C249.487 324.052 248.987 324.126 248.411 324.276C246.613 324.743 244.343 325.109 241.94 325.499C234.864 326.644 226.056 328.068 224.877 332.916C224.536 334.315 224.985 335.895 226.207 337.617C230.075 343.068 240.44 348.158 246.442 348.738C247.845 348.874 248.726 348.752 249.067 348.38C249.527 347.871 249.268 346.566 248.939 344.91C248.3 341.684 247.337 336.813 250.37 331.146C251.265 329.236 252.308 325.774 251.302 324.561C251.018 324.22 250.555 324.049 249.913 324.049L249.91 324.052Z" fill="black"/>
<path d="M210.27 182.47C209.924 182.47 209.643 182.189 209.643 181.842V177.977C209.643 177.63 209.921 177.349 210.267 177.349C210.614 177.349 210.895 177.63 210.895 177.977V181.842C210.895 182.189 210.617 182.47 210.27 182.47Z" fill="black"/>
<path d="M210.266 168.945C209.92 168.945 209.639 168.664 209.639 168.317V164.452C209.639 164.105 209.917 163.824 210.264 163.824C210.61 163.824 210.891 164.105 210.891 164.452V168.317C210.891 168.664 210.613 168.945 210.266 168.945Z" fill="black"/>
<path d="M218.956 173.779H215.093C214.746 173.779 214.465 173.495 214.465 173.148C214.465 172.802 214.746 172.52 215.093 172.52H218.956C219.302 172.52 219.583 172.805 219.583 173.151C219.583 173.498 219.302 173.779 218.956 173.779Z" fill="black"/>
<path d="M205.44 173.774H201.577C201.23 173.774 200.949 173.492 200.949 173.146C200.949 172.799 201.23 172.517 201.577 172.517H205.44C205.787 172.517 206.068 172.799 206.068 173.146C206.068 173.492 205.787 173.774 205.44 173.774Z" fill="black"/>
<path d="M232.5 186.728C233.537 179.031 243.41 179.034 244.456 186.733C243.419 194.429 233.545 194.427 232.5 186.728Z" fill="black"/>
<path d="M242.367 165.392C243.052 160.325 249.551 160.328 250.238 165.395C249.554 170.463 243.055 170.46 242.367 165.392Z" fill="black"/>
</g>
<defs>
<clipPath id="clip0_9536_54957">
<rect width="511" height="383" fill="white" transform="translate(0 132)"/>
</clipPath>
</defs>
</svg>
