<svg width="188" height="218" viewBox="0 0 188 218" fill="none" xmlns="http://www.w3.org/2000/svg">
<path d="M15.0685 92.0253C15.276 93.6954 15.7203 95.3276 16.3879 96.8732C15.7583 95.3146 15.3154 93.6874 15.0685 92.0253ZM66.9538 115.256C68.0117 114.38 68.8 113.225 69.2277 111.922C69.5926 110.759 69.6696 109.488 68.6576 108.837C66.4991 107.444 60.7797 111.5 59.5051 113.78C58.2369 116.061 53.2798 122.148 55.1818 131.269C57.0904 140.396 64.2061 147.876 64.2061 147.876C64.2061 147.876 64.8341 148.521 65.782 149.575L68.5744 141.859C66.6786 139.732 65.1349 137.982 64.7187 137.484C63.489 136.008 56.1619 124.287 66.9538 115.256ZM47.5601 139.892C47.5601 139.892 40.4379 134.06 32.9444 130.509C27.6282 127.992 24.9959 124.013 25.4954 120.87C25.643 120.049 26.0164 119.284 26.5739 118.662C27.1314 118.039 27.8511 117.583 28.6531 117.344C30.7987 116.661 35.8841 114.291 35.3591 107.189L35.2627 104.94C34.1482 104.909 33.055 104.628 32.0647 104.117C31.0744 103.606 30.2126 102.879 29.5434 101.989C27.2567 98.949 23.2537 97.4289 17.054 98.2848L13.8132 96.4773C13.8132 96.4773 13.5761 90.6648 14.8827 90.1028C14.8636 89.6685 14.8573 89.2277 14.8636 88.7805C14.8636 88.7805 12.0005 89.4129 12.4809 95.2764C12.4809 95.2764 11.3344 94.6376 10.3161 88.0523C10.3161 88.0523 5.35867 89.4448 6.76129 99.0769C7.19544 101.009 7.10933 103.021 6.51172 104.908C6.51172 104.908 4.47487 113.653 2.82239 118.724C1.1699 123.796 -2.19888 136.123 5.80715 159.507L9.93837 172.722C9.93837 172.722 11.9687 187.043 8.79191 189.834C8.79191 189.834 3.96267 190.396 5.74305 194.171C5.83017 194.358 5.94695 194.531 6.08891 194.682C5.95463 194.447 5.8758 194.185 5.85843 193.915C5.83614 193.649 5.86221 193.38 5.93536 193.123C6.00919 192.844 6.16003 192.592 6.37069 192.395C6.47214 192.289 6.59878 192.211 6.7388 192.167C6.87881 192.124 7.02761 192.116 7.17129 192.146C6.99787 192.301 6.85832 192.49 6.76129 192.701C6.67461 192.896 6.60401 193.096 6.5502 193.302C6.42836 193.772 6.27424 194.233 6.08891 194.682C6.53738 195.18 7.4981 195.818 9.30413 195.41L9.49614 195.391C9.20813 194.892 9.09541 194.312 9.1759 193.743C9.21612 193.449 9.31639 193.166 9.47053 192.912C9.54265 192.774 9.64965 192.656 9.78106 192.571C9.91246 192.486 10.0638 192.436 10.2202 192.427C10.07 192.631 9.96912 192.867 9.92525 193.117C9.88052 193.347 9.84206 193.583 9.81016 193.832C9.75828 194.361 9.65306 194.883 9.49614 195.391L10.5723 195.295C10.5126 194.904 10.5234 194.506 10.6042 194.119C10.6977 193.728 10.8844 193.364 11.1487 193.059C11.4128 192.748 11.7376 192.494 12.1031 192.312C12.4594 192.172 12.7955 191.985 13.1023 191.756C13.7177 191.313 14.2219 190.734 14.5753 190.064C14.8726 189.356 15.0854 188.617 15.2092 187.86C15.883 184.818 16.3178 181.727 16.5096 178.618C16.7657 175.507 16.8104 172.384 16.7785 169.26C16.7723 167.695 16.721 166.137 16.6503 164.572C16.5993 163.007 16.4967 161.449 16.3879 159.884C16.8553 162.986 17.1504 166.112 17.2717 169.247C17.4008 172.386 17.3602 175.528 17.15 178.662C16.9331 181.803 16.4445 184.919 15.6895 187.975C15.5281 188.76 15.2745 189.523 14.934 190.249C14.5301 190.956 13.9664 191.56 13.2877 192.012C12.9503 192.231 12.5867 192.407 12.2054 192.535C11.8561 192.681 11.5401 192.896 11.2768 193.168C11.0132 193.451 10.8139 193.788 10.6923 194.155C10.5707 194.522 10.5298 194.911 10.5723 195.295C10.5723 195.295 10.7899 196.029 12.0452 196.445C11.8335 195.884 11.8089 195.27 11.9749 194.694C12.061 194.39 12.2143 194.108 12.4233 193.87C12.5275 193.735 12.6743 193.638 12.8403 193.595C13.0063 193.552 13.1819 193.566 13.339 193.634C13.2215 193.679 13.1153 193.75 13.0279 193.84C12.9405 193.931 12.874 194.039 12.833 194.158C12.736 194.388 12.6569 194.625 12.5963 194.867C12.4603 195.408 12.2759 195.936 12.0452 196.445C13.0291 196.725 14.0602 196.801 15.0747 196.668C14.8638 196.443 14.7313 196.156 14.6969 195.85C14.6604 195.544 14.6887 195.232 14.7801 194.937C14.8732 194.649 15.0263 194.384 15.2295 194.16C15.4327 193.935 15.6812 193.756 15.9588 193.634C15.8691 193.928 15.7537 194.177 15.6577 194.42C15.5616 194.669 15.4656 194.899 15.3887 195.135C15.2286 195.633 15.1254 196.147 15.0813 196.668C15.9383 196.591 16.7883 196.45 17.6241 196.247C17.6241 196.247 20.4869 195.914 20.7752 189.738C21.295 186.888 22.1573 184.111 23.3434 181.466L25.3481 174.67C25.6236 172.671 26.0527 170.723 26.4817 168.775L27.1478 165.862C27.353 164.885 27.6091 163.927 27.7308 162.931C27.829 163.937 27.7989 164.952 27.641 165.952C27.5131 166.948 27.3145 167.932 27.1031 168.915C26.6743 170.878 26.0874 172.802 25.3481 174.67C25.3481 174.67 25.6364 180.042 31.0164 185.79C30.2895 182.673 29.8775 179.492 29.7867 176.293C29.6803 173.063 30.1598 169.841 31.2021 166.782C32.3065 163.7 34.3744 161.054 37.101 159.232C39.846 157.492 43.0702 156.656 46.3176 156.843C44.7243 156.877 43.1437 157.135 41.6228 157.61C40.1101 158.063 38.6775 158.748 37.3765 159.641C36.0878 160.535 34.9504 161.628 34.0074 162.879C33.0807 164.144 32.3389 165.533 31.8042 167.006C30.7623 169.99 30.2465 173.132 30.2799 176.293C30.264 177.879 30.328 179.465 30.4719 181.045C30.5554 181.837 30.6002 182.635 30.709 183.421L31.0164 185.79C31.0164 185.79 29.7355 188.218 25.5404 188.403C25.5404 188.403 22.9657 188.646 22.6773 191.878C22.6773 191.878 22.5366 193.711 26.7316 194.171C26.7316 194.171 31.1637 195.027 33.8345 193.506L36.3708 193.634H37.3124C36.6097 191.953 36.2024 190.164 36.1084 188.345C35.912 185.063 36.4601 181.779 37.712 178.736C38.9639 175.694 40.8874 172.973 43.3394 170.774C50.2693 164.483 57.5964 164.598 59.678 164.776C58.5828 156.134 55.4251 146.483 47.5601 139.892ZM10.4312 95.0529C10.4312 95.0529 10.0985 95.6213 10.5723 96.9563C10.5723 96.9563 6.47326 95.9088 10.0022 89.3491C10.0022 89.3491 10.5723 94.1969 12.2889 96.4772C11.5898 96.1161 10.9608 95.6338 10.4312 95.0529ZM27.0647 105.317C23.2537 106.269 22.5813 102.941 22.5813 102.941C26.5843 102.66 27.0647 105.317 27.0647 105.317ZM12.7627 109.692C15.0411 109.144 17.3612 108.785 19.6991 108.619C20.8687 108.527 22.0423 108.495 23.2152 108.524C24.3974 108.51 25.5719 108.714 26.6803 109.124C26.1112 109.012 25.5313 108.962 24.9512 108.977C24.3745 108.971 23.7982 109.003 23.2152 109.022C22.0625 109.079 20.9032 109.169 19.7439 109.252C17.4256 109.424 15.1069 109.622 12.7627 109.692ZM14.8636 113.972C15.6497 113.261 16.5209 112.65 17.4575 112.152C18.3937 111.645 19.3759 111.228 20.3909 110.906C21.4056 110.582 22.4507 110.361 23.5101 110.248C24.5637 110.128 25.6278 110.132 26.6803 110.261C25.6302 110.402 24.5988 110.523 23.5868 110.74C22.5706 110.939 21.5675 111.199 20.5829 111.519C19.5946 111.826 18.6239 112.186 17.6751 112.599C16.7272 113.014 15.7859 113.455 14.8636 113.972ZM22.5366 113.921C21.0633 114.911 19.6222 115.946 18.1045 116.917C19.3113 115.578 20.6795 114.394 22.1779 113.391C23.6524 112.339 25.3092 111.568 27.0647 111.117C25.4826 111.979 24.0033 112.925 22.5366 113.921Z" fill="#020202"/>
<path d="M14.8867 90.0989C14.8867 90.0989 14.8867 90.12 14.8893 90.1569C14.8867 90.1385 14.8867 90.12 14.884 90.1015L14.8867 90.0989Z" fill="#FFFEFE"/>
<path d="M24.8242 103.147C25.0054 103.296 25.1469 103.486 25.2359 103.702C25.3141 103.877 25.3543 104.066 25.3537 104.257C25.3554 104.448 25.3157 104.638 25.2375 104.812C25.1483 105.029 25.0063 105.219 24.8242 105.367C24.6422 105.219 24.5002 105.029 24.4109 104.812C24.3328 104.638 24.2932 104.448 24.2949 104.257C24.2943 104.066 24.3345 103.877 24.4127 103.702C24.5017 103.486 24.6431 103.296 24.8242 103.147Z" fill="#020202"/>
<path d="M14.884 90.1015C14.9517 90.7985 15.046 91.4894 15.168 92.1741C15.2893 92.8588 15.4252 93.5409 15.6099 94.2107C15.7742 94.8856 15.9745 95.5514 16.2098 96.2051C16.4286 96.8663 16.7101 97.5027 16.9809 98.1502C16.2423 96.9496 15.6935 95.6429 15.3536 94.2759C14.995 92.9145 14.8371 91.5083 14.884 90.1015Z" fill="#020202"/>
<path d="M89.7839 102.166C90.2868 100.962 90.9906 99.852 91.8655 98.8827C92.7371 97.8807 93.8042 97.0663 95.0017 96.4889C95.608 96.2029 96.2471 95.992 96.9047 95.8608C97.563 95.7425 98.2337 95.708 98.9007 95.758C100.211 95.8774 101.49 96.2273 102.678 96.7917C103.872 97.3057 104.996 97.9691 106.022 98.7659C107.068 99.5635 107.968 100.535 108.683 101.637C109.427 102.758 109.887 104.041 110.024 105.378C110.154 106.771 109.732 108.16 108.849 109.247L108.841 109.257C108.819 109.285 108.793 109.309 108.763 109.329C107.925 109.906 106.929 110.211 105.911 110.203C105.381 110.168 104.871 109.991 104.435 109.689C104.021 109.39 103.677 109.004 103.429 108.557C103.219 108.169 102.974 107.8 102.698 107.456C102.405 107.122 102.086 106.778 101.773 106.447C101.456 106.118 101.139 105.786 100.812 105.467C100.647 105.309 100.48 105.153 100.304 105.011C100.217 104.94 100.127 104.873 100.033 104.811C99.9467 104.756 99.8263 104.693 99.7677 104.728L99.7541 104.736C99.7456 104.741 99.7355 104.743 99.7259 104.74C99.7163 104.738 99.7079 104.732 99.7026 104.724C99.6973 104.716 99.6954 104.706 99.6974 104.696C99.6994 104.686 99.7051 104.678 99.7133 104.672C99.8612 104.572 99.9869 104.663 100.094 104.697C100.202 104.746 100.307 104.803 100.407 104.868C100.606 104.993 100.795 105.13 100.981 105.27C101.353 105.55 101.71 105.847 102.056 106.155C102.405 106.465 102.742 106.768 103.087 107.098C103.422 107.442 103.717 107.823 103.964 108.234C104.164 108.586 104.451 108.88 104.797 109.09C105.144 109.299 105.538 109.417 105.943 109.431C106.781 109.4 107.592 109.129 108.28 108.651L108.194 108.733C108.95 107.801 109.332 106.623 109.268 105.426C109.167 104.197 108.792 103.005 108.171 101.939C106.943 99.6974 104.962 97.9602 102.575 97.0334C101.402 96.5593 100.149 96.3168 98.8831 96.3193C97.6442 96.3384 96.4219 96.6076 95.2901 97.1106C93.0242 98.2484 91.1365 100.015 89.8545 102.199C89.852 102.203 89.8488 102.207 89.8448 102.211C89.8409 102.214 89.8363 102.216 89.8314 102.218C89.8265 102.219 89.8213 102.22 89.8162 102.219C89.8111 102.219 89.8061 102.217 89.8016 102.215C89.7935 102.21 89.7874 102.202 89.7842 102.193C89.781 102.185 89.7809 102.175 89.7839 102.166Z" fill="#020202"/>
<path d="M128.115 100.915C126.703 101.161 125.342 101.638 124.087 102.328C122.807 102.972 121.571 103.7 120.35 104.452C117.903 105.947 115.535 107.572 113.201 109.241C110.867 110.912 108.559 112.617 106.275 114.358C103.992 116.097 101.743 117.886 99.5061 119.678L99.5028 119.68C99.4521 119.721 99.3909 119.746 99.3262 119.754C99.2615 119.761 99.1961 119.75 99.1375 119.722C99.0788 119.694 99.0294 119.65 98.9949 119.595C98.9604 119.539 98.9423 119.476 98.9426 119.411L98.9742 111.543L99.0586 103.674L99.2258 103.894L97.1705 103.348C96.4859 103.162 95.7863 103.046 95.0944 102.892C94.4029 102.731 93.6964 102.668 92.9973 102.551C92.2959 102.454 91.5874 102.427 90.8821 102.373C89.471 102.312 88.0579 102.439 86.6801 102.749C86.3378 102.827 86.002 102.932 85.6753 103.06C85.346 103.179 85.0265 103.324 84.7195 103.492C84.1063 103.809 83.5826 104.275 83.1965 104.847L83.2082 104.807C82.9182 107.543 82.685 110.286 82.5087 113.035C82.3265 115.784 82.227 118.528 82.233 121.282C82.2194 126.786 82.3588 132.294 82.5094 137.797L82.5068 137.761C82.6167 138.291 82.8089 138.801 83.0764 139.272C83.2155 139.51 83.3724 139.736 83.5458 139.95L83.8081 140.268C83.9039 140.367 84.0092 140.457 84.1088 140.551C84.9464 141.288 85.9546 141.806 87.0427 142.058C89.3072 142.464 91.6337 142.368 93.8569 141.777C94.9801 141.523 96.1261 141.22 97.2688 140.918L100.707 140.078L107.598 138.507C112.191 137.47 116.795 136.498 121.334 135.279C122.474 134.991 123.593 134.639 124.724 134.321C125.836 133.952 126.967 133.628 128.059 133.204C130.28 132.47 132.39 131.435 134.327 130.126L134.332 130.121C134.367 130.097 134.409 130.087 134.451 130.093C134.492 130.1 134.529 130.122 134.554 130.156C134.575 130.184 134.585 130.218 134.585 130.252L134.464 137.666C134.463 137.676 134.459 137.686 134.452 137.693C134.445 137.7 134.435 137.704 134.425 137.704C134.414 137.704 134.405 137.7 134.397 137.693C134.39 137.686 134.386 137.676 134.386 137.666L134.265 130.252L134.522 130.378C132.588 131.758 130.466 132.853 128.22 133.632C127.124 134.08 125.995 134.424 124.88 134.816C123.75 135.155 122.628 135.529 121.49 135.837C116.949 137.124 112.365 138.235 107.772 139.273L100.894 140.863L97.4728 141.709C96.3396 142.01 95.2119 142.319 94.0368 142.579C91.6898 143.181 89.2382 143.258 86.858 142.803C85.6464 142.512 84.527 141.924 83.601 141.092C82.6648 140.234 82.0319 139.097 81.7968 137.85L81.7943 137.827L81.794 137.814C81.7363 135.058 81.7263 132.302 81.7158 129.546C81.7111 126.79 81.7233 124.033 81.7776 121.277C81.8168 118.52 81.969 115.758 82.1995 113.014C82.4166 110.265 82.6517 107.52 82.9655 104.779L82.9668 104.768C82.968 104.758 82.9717 104.748 82.9774 104.739C83.824 103.468 85.2446 102.876 86.6156 102.5C88.0158 102.172 89.4537 102.03 90.8913 102.08C92.3222 102.141 93.7477 102.293 95.1592 102.535C95.8601 102.675 96.5706 102.777 97.2646 102.949L99.3496 103.454C99.3968 103.466 99.4389 103.493 99.4691 103.531C99.4994 103.568 99.5162 103.615 99.5167 103.664V103.674L99.6013 111.543L99.6329 119.411L99.0693 119.144C101.302 117.324 103.59 115.581 105.887 113.848C108.19 112.124 110.508 110.417 112.884 108.791C115.259 107.164 117.667 105.583 120.158 104.131C121.408 103.414 122.678 102.728 123.988 102.123C125.281 101.47 126.674 101.036 128.11 100.838C128.12 100.837 128.13 100.84 128.138 100.846C128.146 100.853 128.151 100.862 128.152 100.872C128.153 100.882 128.15 100.892 128.144 100.9C128.138 100.908 128.129 100.914 128.119 100.915L128.115 100.915Z" fill="#020202"/>
<path d="M105.986 91.3502L107.979 96.053L109.916 100.777L109.693 100.606C111.456 100.728 113.227 100.58 114.945 100.166C116.653 99.7735 118.245 98.9872 119.593 97.8703C120.904 96.7187 121.856 95.2161 122.337 93.5408C122.817 91.8387 122.994 90.0658 122.861 88.3027L122.86 88.2874L122.861 88.2701C122.948 87.8925 123.137 87.5459 123.407 87.2674C123.678 86.9889 124.019 86.789 124.394 86.6893C125.088 86.4916 125.811 86.4156 126.531 86.4648C127.943 86.4774 129.352 86.5987 130.745 86.8276C134.955 87.5042 138.928 89.2218 142.301 91.8236L143.919 93.2035C144.192 93.4307 144.446 93.6782 144.681 93.9439L145.412 94.7158C146.384 95.7491 147.279 96.8518 148.09 98.0152C148.512 98.5848 148.838 99.217 149.216 99.8154C149.57 100.428 149.976 101.014 150.286 101.65L151.201 103.564C151.526 104.193 151.813 104.84 152.061 105.502C152.532 106.832 153.039 108.158 153.478 109.491L156.048 117.487C156.913 120.149 157.832 122.793 158.778 125.426C159.257 126.74 159.757 128.047 160.292 129.338C160.559 129.984 160.833 130.627 161.139 131.254C161.408 131.89 161.77 132.483 162.212 133.014L162.231 133.033C162.238 133.04 162.241 133.049 162.241 133.058C162.241 133.068 162.238 133.077 162.231 133.083C162.225 133.09 162.216 133.094 162.207 133.094C162.197 133.095 162.188 133.091 162.181 133.085C161.688 132.572 161.278 131.983 160.969 131.342C160.626 130.727 160.316 130.096 160.013 129.462C159.4 128.195 158.869 126.895 158.333 125.597C157.269 122.998 156.306 120.361 155.375 117.715C154.43 115.073 153.569 112.403 152.71 109.733C152.265 108.407 151.763 107.118 151.293 105.808C151.053 105.157 150.778 104.519 150.469 103.898L149.596 102.007C149.3 101.379 148.909 100.803 148.571 100.198C148.208 99.6083 147.897 98.9825 147.491 98.4211L146.264 96.7429C145.865 96.1758 145.424 95.6401 144.943 95.1404L144.248 94.3654C144.026 94.0988 143.784 93.8497 143.524 93.6202L141.977 92.2256C140.899 91.3484 139.751 90.56 138.544 89.8681C136.121 88.4738 133.466 87.5239 130.706 87.0636C129.326 86.8416 127.929 86.737 126.53 86.7509C125.845 86.7082 125.159 86.7915 124.504 86.9965C124.2 87.0862 123.926 87.2543 123.708 87.4839C123.49 87.7134 123.337 87.9961 123.264 88.3036V88.2712C123.467 90.089 123.348 91.9284 122.911 93.7049C122.446 95.5165 121.448 97.1477 120.045 98.3881C118.619 99.5831 116.919 100.408 115.096 100.789C113.306 101.205 111.46 101.326 109.63 101.147C109.581 101.142 109.534 101.123 109.494 101.093C109.455 101.062 109.425 101.022 109.407 100.975L107.632 96.1876L105.913 91.3784C105.91 91.3689 105.91 91.3584 105.915 91.3491C105.919 91.3399 105.926 91.3327 105.936 91.329C105.945 91.3253 105.956 91.3255 105.965 91.3294C105.975 91.3334 105.982 91.3408 105.986 91.3502Z" fill="#020202"/>
<path d="M97.9538 89.6856C95.1707 90.5856 92.5018 91.8048 90.0007 93.3189C87.4949 94.7999 85.1766 96.5756 83.0954 98.608C81.0127 100.625 79.2304 102.929 77.803 105.449C76.3803 107.992 74.9386 110.558 73.4455 113.068C71.9537 115.581 70.4107 118.067 69.1254 120.664C68.4674 121.942 67.9501 123.288 67.5825 124.677C67.2042 126.033 67.2343 127.47 67.6692 128.809C68.2121 130.124 69.0818 131.279 70.1963 132.165C71.2924 133.107 72.5032 133.908 73.8001 134.548C76.4272 135.83 79.2393 136.694 82.1342 137.108C80.671 136.978 79.2216 136.724 77.8019 136.348C76.3729 135.984 74.9784 135.496 73.6341 134.891C72.2857 134.269 71.0226 133.478 69.8753 132.537C69.3031 132.057 68.7688 131.533 68.2771 130.971C67.7843 130.388 67.3895 129.728 67.108 129.019C66.5876 127.574 66.5241 126.005 66.9264 124.524C67.294 123.082 67.8173 121.685 68.4871 120.356C69.7765 117.7 71.3013 115.197 72.7756 112.673C74.2919 110.169 75.7355 107.647 77.1881 105.1C78.654 102.527 80.5066 100.193 82.6813 98.1797C87.001 94.1482 92.2443 91.232 97.9538 89.6856Z" fill="#020202"/>
<path d="M71.5841 122.419C72.264 121.766 73.0233 121.202 73.8442 120.738C74.663 120.262 75.5279 119.869 76.4257 119.567C77.3346 119.272 78.2772 119.093 79.2311 119.034C80.1856 118.991 81.1389 119.142 82.0324 119.48C81.1164 119.448 80.1994 119.501 79.293 119.638C78.4045 119.802 77.528 120.024 76.669 120.304C75.8063 120.582 74.9624 120.924 74.1171 121.277C73.2749 121.64 72.4363 122.022 71.5841 122.419Z" fill="#020202"/>
<path d="M134.423 130.252C135.45 129.444 136.411 128.583 137.36 127.71C138.301 126.829 139.219 125.927 140.115 125.004C141.014 124.082 141.886 123.133 142.755 122.177C143.624 121.22 144.469 120.24 145.364 119.284C144.732 120.427 144.016 121.523 143.224 122.562C142.435 123.606 141.584 124.602 140.675 125.544C139.76 126.483 138.784 127.361 137.752 128.17C136.729 128.992 135.611 129.691 134.423 130.252Z" fill="#020202"/>
<path d="M131.058 99.6175C132.465 99.3127 133.917 99.2615 135.343 99.4665C136.79 99.6609 138.189 100.123 139.466 100.829C140.103 101.191 140.705 101.609 141.266 102.079C141.806 102.571 142.294 103.116 142.723 103.707C142.95 103.989 143.152 104.291 143.328 104.608L143.823 105.569C143.977 105.893 144.104 106.229 144.202 106.574C144.318 106.912 144.424 107.252 144.523 107.591C143.914 106.332 143.149 105.154 142.247 104.085C141.801 103.565 141.313 103.082 140.789 102.64C140.253 102.216 139.684 101.837 139.085 101.506C137.881 100.838 136.584 100.351 135.236 100.061C133.864 99.7623 132.462 99.6135 131.058 99.6175Z" fill="#020202"/>
<path d="M87.2498 167.307L83.2646 173.364C81.9369 175.384 80.5963 177.394 79.2428 179.396C79.2116 179.443 79.1688 179.48 79.1187 179.505C79.0686 179.53 79.0129 179.542 78.9569 179.539C78.9009 179.537 78.8465 179.52 78.7991 179.49C78.7517 179.46 78.7128 179.418 78.6862 179.369L78.6748 179.348C77.7111 177.628 76.5221 176.045 75.1391 174.638C73.7585 173.217 72.2624 171.913 70.6661 170.738C69.8439 170.184 69.0463 169.594 68.1819 169.104C67.7539 168.853 67.3397 168.579 66.9009 168.348L65.5821 167.657C65.1477 167.417 64.6969 167.209 64.2412 167.011L62.8826 166.401C61.9647 166.022 61.0266 165.691 60.1003 165.334L60.0892 165.329C59.9637 165.281 59.862 165.185 59.8056 165.064C59.7492 164.942 59.7423 164.803 59.7866 164.676C60.7048 162.056 61.6801 159.458 62.6277 156.849C63.5796 154.241 64.5305 151.634 65.5162 149.039L71.3716 133.447C71.393 133.39 71.4362 133.343 71.4917 133.318C71.5473 133.293 71.6106 133.291 71.6677 133.312C71.6805 133.317 71.6929 133.323 71.7048 133.33C73.3063 134.274 74.9887 135.075 76.732 135.723C78.4631 136.397 80.2875 136.803 82.1417 136.927C82.1877 136.929 82.2312 136.948 82.2633 136.981C82.2955 137.014 82.3138 137.058 82.3145 137.104L82.3148 137.117C82.3477 137.749 82.5251 138.365 82.8333 138.918C83.1434 139.484 83.539 139.999 84.0062 140.444C84.4751 140.895 84.9902 141.295 85.543 141.639L86.3959 142.122L87.2851 142.54L87.2892 142.542C87.3258 142.559 87.3567 142.586 87.3786 142.62C87.4004 142.654 87.4123 142.694 87.4127 142.734L87.7154 172.911L87.7903 187.999C87.8257 193.028 87.8219 198.058 87.8068 203.087V203.091C87.8061 203.191 87.7805 203.29 87.7323 203.378C87.4189 203.92 86.9728 204.375 86.4357 204.7C85.9439 205.005 85.4116 205.24 84.8544 205.397C83.7994 205.694 82.7128 205.866 81.6174 205.908C79.4894 205.994 77.358 205.903 75.2451 205.636C71.0681 205.091 66.9248 204.314 62.8348 203.308C58.7449 202.345 54.7017 201.212 50.6833 200.009C46.663 198.811 42.6768 197.51 38.7248 196.104L38.7212 196.103C38.7026 196.096 38.6863 196.085 38.674 196.069C38.0911 195.336 37.6151 194.524 37.26 193.657C37.2541 193.643 37.254 193.627 37.2597 193.613C37.2654 193.599 37.2765 193.588 37.2905 193.582C37.3046 193.575 37.3205 193.575 37.3348 193.581C37.3491 193.586 37.3607 193.597 37.367 193.611C37.749 194.448 38.2476 195.227 38.848 195.925L38.7974 195.891C42.7965 197.132 46.8287 198.269 50.8649 199.376C54.9054 200.469 58.9663 201.471 63.0476 202.382C67.1136 203.311 71.2283 204.013 75.3727 204.485C77.4212 204.73 79.4861 204.81 81.5475 204.724C82.5479 204.683 83.5401 204.524 84.5033 204.252C85.3836 204.057 86.1573 203.537 86.669 202.797L86.5946 203.087C86.5794 198.058 86.5757 193.028 86.611 187.999L86.6861 172.911L86.9888 142.734L87.1161 142.928L86.2038 142.49L85.3255 141.983C84.7509 141.62 84.2162 141.198 83.7302 140.723C83.2386 140.246 82.8236 139.696 82.4998 139.093C82.1634 138.479 81.9765 137.795 81.9542 137.096L82.127 137.286C81.1807 137.225 80.2405 137.093 79.3143 136.89C78.3942 136.676 77.487 136.41 76.5969 136.094C74.8196 135.455 73.1028 134.659 71.4668 133.717L71.7998 133.6L66.3404 149.335C65.4402 151.96 64.5051 154.574 63.5712 157.188C62.6326 159.8 61.7218 162.422 60.7542 165.023L60.4405 164.366C61.385 164.74 62.3399 165.089 63.2746 165.486L64.6591 166.124C65.1229 166.331 65.582 166.549 66.025 166.799L67.3685 167.52C67.8153 167.762 68.2381 168.047 68.6739 168.308C69.5536 168.819 70.3675 169.433 71.2039 170.01C72.8379 171.226 74.353 172.592 75.729 174.092C77.1284 175.587 78.3196 177.262 79.2703 179.074L78.7025 179.026C80.0961 177.051 81.4984 175.083 82.9096 173.121L87.1534 167.241C87.1624 167.229 87.1758 167.22 87.1909 167.218C87.2059 167.215 87.2214 167.219 87.234 167.227C87.2466 167.236 87.2553 167.249 87.2582 167.264C87.2612 167.279 87.2582 167.295 87.2498 167.307Z" fill="#020202"/>
<path d="M72.7993 182.195C73.9667 181.707 75.185 181.351 76.4316 181.131C77.682 180.891 78.9545 180.783 80.2277 180.81C81.5139 180.826 82.7899 181.039 84.011 181.442C85.2323 181.847 86.3299 182.556 87.2002 183.501C86.1722 182.82 85.0348 182.321 83.8375 182.023C83.5379 181.963 83.2405 181.9 82.9452 181.83L82.038 181.71C81.7379 181.659 81.4305 181.649 81.1259 181.626C80.821 181.604 80.5164 181.579 80.2086 181.587C78.9758 181.557 77.7423 181.605 76.5154 181.73C75.2813 181.848 74.0454 182.003 72.7993 182.195Z" fill="#020202"/>
<path d="M61.6311 165.351C59.7432 169.636 57.646 173.812 55.4975 177.962C53.3281 182.101 51.1063 186.213 48.673 190.215C50.5591 185.929 52.6565 181.753 54.8066 177.604C56.9774 173.466 59.1995 169.354 61.6311 165.351Z" fill="#020202"/>
<path d="M64.4764 194.318C66.3137 191.126 68.342 188.065 70.4226 185.04C72.5222 182.028 74.6678 179.048 77.0108 176.204C75.1752 179.397 73.145 182.457 71.0634 185.481C68.9624 188.492 66.8183 191.473 64.4764 194.318Z" fill="#020202"/>
<path d="M58.7738 210.407C61.4124 210.254 64.0447 210.062 66.6773 209.858C66.4482 210.95 65.9282 211.961 65.1721 212.783C65.1721 212.783 22.0678 216.98 15.6179 213.62C15.6179 213.62 13.37 208.165 17.4371 206.211C18.7884 205.559 21.8051 204.365 25.5198 202.8C26.6396 202.984 27.7297 203.317 28.7606 203.79C29.7849 204.258 30.7345 204.873 31.5787 205.617C31.9956 205.989 32.3832 206.393 32.738 206.824C33.076 207.266 33.378 207.733 33.6411 208.223C34.1604 209.205 34.5336 210.257 34.7492 211.346L34.7557 211.353C34.7693 211.414 34.8043 211.47 34.8547 211.508C34.9051 211.547 34.9675 211.566 35.031 211.563L42.9472 211.244L50.8638 210.861C53.5024 210.739 56.135 210.567 58.7738 210.407Z" fill="#020202"/>
<path d="M64.4746 194.318C51.5239 200.705 48.6736 190.217 48.6736 190.217C46.6807 191.925 44.5274 193.437 42.2435 194.733C42.769 194.756 43.2838 194.889 43.7549 195.123C44.2554 195.362 44.7122 195.684 45.1062 196.074C45.4972 196.462 45.8217 196.911 46.067 197.403C46.3128 197.89 46.4669 198.418 46.5217 198.961C46.208 198.514 45.9516 198.067 45.6379 197.665C45.3421 197.258 45.0121 196.878 44.6516 196.528C44.2994 196.171 43.9156 195.846 43.5051 195.557C43.0925 195.26 42.6603 194.991 42.2113 194.752C41.1737 195.365 40.0998 195.966 38.9898 196.553C39.4869 196.584 39.9727 196.714 40.4181 196.937C41.4221 197.416 42.2344 198.22 42.7239 199.217C42.9724 199.703 43.1267 200.232 43.1787 200.775C42.8712 200.322 42.6085 199.881 42.3011 199.479C42.0033 199.072 41.6735 198.69 41.3148 198.335C40.9587 197.98 40.5731 197.655 40.162 197.365C39.7631 197.075 39.3434 196.814 38.9064 196.585C37.7731 197.186 36.6137 197.773 35.4479 198.342C35.9952 198.356 36.5329 198.489 37.0235 198.732C38.0298 199.213 38.8443 200.019 39.3358 201.018C39.5813 201.503 39.7355 202.029 39.7906 202.57C39.4831 202.123 39.2204 201.676 38.9065 201.274C38.6129 200.868 38.2851 200.487 37.9267 200.137C37.5723 199.779 37.1865 199.454 36.7739 199.166C36.3524 198.86 35.9092 198.584 35.4479 198.342C32.0212 200.009 28.5364 201.529 25.5198 202.8C26.6611 202.906 27.7816 203.177 28.8445 203.605C29.9182 204.027 30.9172 204.618 31.8036 205.355C32.2505 205.725 32.666 206.131 33.0461 206.569C33.4145 207.019 33.7466 207.497 34.039 207.999C34.5827 208.937 34.982 209.951 35.2237 211.008L42.9226 210.618L50.8389 210.292C53.4774 210.171 56.1163 210.101 58.7551 210.024C61.394 209.941 64.0384 209.896 66.6773 209.858C68.1244 203.981 64.4746 194.318 64.4746 194.318ZM58.4922 205.936C56.0138 205.936 56.0201 202.104 58.4922 202.104C60.971 202.104 60.9647 205.936 58.4922 205.936Z" fill="#020202"/>
<path d="M38.9777 196.553C38.9521 196.566 38.9321 196.573 38.9064 196.585C38.8811 196.573 38.8623 196.56 38.8366 196.547C38.8837 196.546 38.9309 196.548 38.9777 196.553Z" fill="#FFFEFE"/>
<path d="M42.2452 194.732C42.2324 194.739 42.2258 194.745 42.213 194.752C42.2002 194.745 42.1939 194.739 42.1811 194.732H42.2452Z" fill="#FFFEFE"/>
<path d="M87.2003 142.735C87.2003 142.735 82.1507 145.08 103.471 147.318L174.914 135.941L163.693 131.651L87.2003 142.735Z" fill="#020202"/>
<path d="M87.259 142.735C87.3749 148.215 87.4762 153.695 87.5266 159.175C87.5862 164.654 87.6553 170.134 87.6648 175.614C87.6803 181.094 87.733 186.574 87.7177 192.054C87.6992 197.533 87.6895 203.013 87.6107 208.493L87.3405 208.109L98.8876 212.438C102.732 213.894 106.601 215.282 110.456 216.707L110.352 216.7C113.537 216.054 116.711 215.36 119.889 214.68L129.416 212.612L148.456 208.413C154.802 207.011 161.149 205.612 167.504 204.256C173.86 202.898 180.206 201.496 186.569 200.173L186.085 200.834C185.528 195.363 184.906 189.896 184.219 184.431C183.537 178.969 182.853 173.508 182.05 168.063C181.242 162.621 180.401 157.181 179.35 151.782C178.818 149.084 178.25 146.393 177.579 143.727C176.969 141.048 176.058 138.446 174.864 135.97L174.862 135.967C174.855 135.953 174.853 135.937 174.858 135.923C174.862 135.908 174.872 135.896 174.886 135.889C174.899 135.881 174.915 135.88 174.93 135.884C174.945 135.888 174.957 135.898 174.965 135.911C176.253 138.361 177.259 140.947 177.965 143.622C178.741 146.273 179.382 148.959 179.973 151.654C181.157 157.043 182.139 162.472 183.008 167.917C183.877 173.362 184.686 178.816 185.387 184.284C186.085 189.753 186.725 195.229 187.308 200.712C187.324 200.861 187.284 201.01 187.196 201.132C187.108 201.253 186.978 201.339 186.831 201.371L186.824 201.372C180.469 202.735 174.098 204.019 167.736 205.347C161.374 206.675 155.004 207.962 148.632 209.246L129.52 213.103L119.971 215.065C116.789 215.727 113.605 216.375 110.431 217.072C110.396 217.079 110.36 217.077 110.326 217.065C106.451 215.693 102.59 214.283 98.7042 212.942L87.0608 208.878C86.9828 208.851 86.9152 208.8 86.8669 208.733C86.8185 208.667 86.7919 208.587 86.7905 208.505L86.7904 208.493C86.7116 203.013 86.7019 197.533 86.6833 192.054C86.6681 186.574 86.7208 181.094 86.7363 175.614C86.7458 170.134 86.8149 164.654 86.8745 159.175C86.9249 153.695 87.0262 148.215 87.1421 142.735C87.1424 142.72 87.1487 142.705 87.1597 142.695C87.1706 142.684 87.1853 142.678 87.2005 142.678C87.2158 142.678 87.2305 142.684 87.2414 142.695C87.2523 142.705 87.2587 142.72 87.259 142.735Z" fill="#020202"/>
<path d="M103.473 147.318C103.8 150.125 104.077 152.936 104.381 155.744L105.208 164.176C105.747 169.8 106.232 175.419 106.732 181.057C107.136 186.696 107.461 192.338 107.709 197.982L108.024 206.451C108.092 209.275 108.179 212.099 108.205 214.924L107.111 198.014C106.744 192.378 106.42 186.741 105.956 181.116L104.613 164.228L104.002 155.775C103.827 152.956 103.625 150.139 103.473 147.318Z" fill="#020202"/>
<path d="M89.4489 207.006C90.2269 207.029 90.9959 206.835 91.6688 206.445C92.3241 206.051 92.863 205.491 93.2306 204.822C93.9245 203.443 94.2587 201.912 94.2023 200.371C94.3286 197.22 94.4129 194.067 94.596 190.917L95.219 181.473C95.4047 178.325 95.5403 175.174 95.6257 172.021C95.6269 171.976 95.6455 171.933 95.6775 171.901C95.7096 171.869 95.7527 171.851 95.798 171.85C95.8432 171.848 95.8872 171.865 95.9208 171.895C95.9544 171.925 95.975 171.967 95.9785 172.012L96.7226 182.445L97.7769 198.075C97.835 198.943 97.8983 199.809 97.9757 200.672C98.0145 201.103 98.0558 201.535 98.1118 201.957C98.1365 202.166 98.1729 202.386 98.2111 202.555L98.2358 202.652L98.311 202.811C98.3637 202.917 98.4043 203.019 98.4478 203.122C98.7557 203.928 99.1064 204.716 99.4983 205.484C99.9004 206.243 100.37 206.963 100.903 207.637C101.985 208.993 103.232 210.21 104.615 211.259C104.619 211.262 104.623 211.266 104.625 211.27C104.628 211.275 104.63 211.28 104.63 211.285C104.631 211.29 104.631 211.295 104.629 211.3C104.628 211.305 104.626 211.309 104.623 211.313C104.617 211.321 104.608 211.327 104.598 211.328C104.588 211.33 104.578 211.328 104.57 211.322C103.094 210.363 101.755 209.21 100.589 207.893C99.4386 206.546 98.5217 205.018 97.8758 203.37C97.8321 203.274 97.7891 203.174 97.7423 203.087L97.6738 202.952L97.5963 202.739C97.5375 202.513 97.4915 202.285 97.4583 202.054C97.3872 201.614 97.3336 201.18 97.2818 200.745C97.1788 199.875 97.0906 199.007 97.0074 198.138C96.8527 196.4 96.715 194.662 96.5941 192.923C96.3522 189.446 96.1921 185.965 96.0145 182.485C95.8467 179.005 95.7374 175.522 95.6257 172.039L95.9791 172.039C95.7744 175.186 95.6199 178.334 95.5155 181.486L95.268 190.941C95.1608 194.091 94.9551 197.237 94.7914 200.386C94.7909 202.012 94.3706 203.611 93.5709 205.028C93.1515 205.729 92.5392 206.296 91.8067 206.66C91.0742 207.024 90.2522 207.171 89.4384 207.083C89.4286 207.082 89.4196 207.077 89.4134 207.069C89.4072 207.061 89.4042 207.052 89.4051 207.042C89.4059 207.032 89.4104 207.023 89.4178 207.016C89.4252 207.009 89.4349 207.006 89.4448 207.006L89.4489 207.006Z" fill="#020202"/>
<path d="M124.013 144.046C124.013 144.046 135.893 141.336 136.134 167.68C136.161 170.593 136.268 174.559 136.948 177.392C138.346 183.211 141.292 189.89 145.035 184.231C146.291 182.288 146.935 180.014 146.883 177.703C146.845 174.597 146.096 169.961 142.559 166.342C136.7 160.347 138.211 158.508 138.772 155.151C139.333 151.794 140.709 149.532 136.948 146.059L133.187 142.585L139.894 141.517C143.588 142.618 146.674 147.131 146.486 151.234C146.456 151.898 146.406 152.577 146.344 153.249C145.953 157.417 147.017 161.592 149.356 165.069C151.826 168.732 154.528 173.944 154.528 179.211C154.528 188.909 143.868 202.152 134.424 191.66C124.979 181.169 128.532 179.211 128.906 163.917C129.28 148.623 113.764 145.679 113.764 145.679L124.013 144.046Z" fill="#020202"/>
<path d="M98.4794 60.1202C97.0575 63.051 96.0072 66.147 95.3528 69.3368C95.2304 70.1368 95.17 70.9451 95.1722 71.7543C95.1377 72.5816 95.0758 73.4084 94.9672 74.231C94.8917 75.0703 94.65 75.8865 94.2562 76.6321C94.0145 76.974 93.737 77.2893 93.4282 77.5724C93.1781 77.8442 93.0311 78.1946 93.0126 78.563C93.0139 78.7261 93.0644 78.885 93.1574 79.0192C93.2505 79.1533 93.3818 79.2565 93.5344 79.3152C93.6766 79.3862 93.906 79.4612 94.0949 79.5482C94.3342 79.6406 94.5464 79.7917 94.7117 79.9875C94.8539 80.2024 94.942 80.4484 94.9685 80.7045C95.0037 80.9219 95.0254 81.1249 95.0511 81.3298C95.1019 81.7365 95.1425 82.1412 95.2026 82.5415C95.4021 84.1334 95.8163 85.6913 96.4338 87.1727C97.0319 88.6167 98.1108 89.8951 99.7028 89.9561C101.337 90.1059 102.973 90.2697 104.617 90.4864L104.622 90.4871C104.631 90.4883 104.64 90.4932 104.646 90.5007C104.653 90.5082 104.656 90.5178 104.655 90.5275C104.655 90.5373 104.651 90.5465 104.644 90.5533C104.637 90.5601 104.627 90.564 104.617 90.5643C102.971 90.6037 101.317 90.59 99.6615 90.5624C99.4433 90.5607 99.2257 90.5387 99.0115 90.4966L98.6749 90.4423C98.5657 90.4108 98.4586 90.3725 98.3543 90.3275C97.927 90.1721 97.5323 89.939 97.1901 89.6402C96.5378 89.0496 96.0216 88.325 95.6773 87.5163C95.0203 85.9617 94.6145 84.3131 94.4751 82.6319C94.4293 82.2176 94.3931 81.8046 94.3664 81.393C94.3755 81.038 94.3224 80.6841 94.2096 80.3472C94.1096 80.2266 93.9819 80.1317 93.8374 80.0706C93.6595 79.9708 93.4986 79.9081 93.2795 79.7807C93.0617 79.6586 92.8788 79.483 92.7482 79.2706C92.6223 79.0518 92.5658 78.8 92.5862 78.5485C92.6361 78.0904 92.8468 77.6647 93.181 77.3465C93.3374 77.182 93.5155 77.0652 93.6507 76.9344C93.7915 76.7985 93.917 76.6478 94.0252 76.4849C94.4288 75.7868 94.6653 75.0052 94.7162 74.201C94.7872 73.3882 94.7946 72.5711 94.7384 71.7572C94.6586 70.9253 94.6489 70.0881 94.7095 69.2546C94.9248 67.5954 95.3786 65.9757 96.0568 64.4455C96.7026 62.9202 97.491 61.459 98.4118 60.0813C98.4147 60.0771 98.4184 60.0735 98.4227 60.0707C98.427 60.0679 98.4318 60.0659 98.4368 60.065C98.4418 60.064 98.447 60.064 98.452 60.0651C98.4571 60.0661 98.4618 60.0682 98.4661 60.071C98.4736 60.0764 98.4791 60.0843 98.4815 60.0932C98.484 60.1022 98.4832 60.1117 98.4794 60.1202Z" fill="#020202"/>
<path d="M92.8702 71.1955C93.3488 72.3389 93.7483 73.5101 94.1902 74.6666C94.5799 75.8414 95.0114 77.0015 95.3636 78.1896C95.3674 78.2024 95.3673 78.2162 95.3634 78.229C95.3594 78.2418 95.3517 78.2532 95.3412 78.2616C95.3308 78.2701 95.3181 78.2752 95.3047 78.2765C95.2913 78.2777 95.2778 78.2749 95.266 78.2685L95.2167 78.2417C94.5883 77.8936 94.0413 77.4162 93.6119 76.8412C93.2316 76.3388 92.9315 75.7809 92.7222 75.1871C92.5114 74.5937 92.3922 73.9719 92.3686 73.3428C92.3384 72.6274 92.4592 71.9135 92.7233 71.2476L92.7442 71.1962C92.7493 71.1837 92.758 71.173 92.7691 71.1654C92.7803 71.1579 92.7935 71.1538 92.807 71.1537C92.8205 71.1537 92.8337 71.1576 92.8449 71.165C92.8561 71.1725 92.865 71.1831 92.8702 71.1955Z" fill="#020202"/>
<path d="M111.351 75.5077C111.343 75.5077 111.335 75.5071 111.327 75.5058C111.301 75.5027 111.277 75.4947 111.255 75.4822C111.232 75.4696 111.213 75.4528 111.197 75.4327C111.181 75.4126 111.17 75.3896 111.163 75.365C111.156 75.3404 111.154 75.3147 111.157 75.2894C111.168 75.1728 111.153 75.0554 111.114 74.9451C111.074 74.8349 111.012 74.7344 110.93 74.6507C108.692 72.0309 92.948 71.4215 92.7892 71.4152C92.7375 71.4133 92.6887 71.391 92.6535 71.3532C92.6183 71.3155 92.5996 71.2653 92.6015 71.2137C92.5999 71.1875 92.6041 71.1613 92.6139 71.1369C92.6237 71.1125 92.6388 71.0906 92.6581 71.0727C92.6775 71.0548 92.7006 71.0415 92.7257 71.0337C92.7508 71.0258 92.7774 71.0236 92.8035 71.0272C93.4587 71.0509 108.879 71.6504 111.226 74.3987C111.344 74.5232 111.433 74.6714 111.488 74.8333C111.542 74.9951 111.562 75.1669 111.544 75.3368C111.538 75.3838 111.515 75.4272 111.48 75.4586C111.444 75.4901 111.398 75.5076 111.351 75.5077Z" fill="#020202"/>
<path d="M110.139 81.5101C114.207 86.1962 123.062 88.2873 123.062 88.2873C127.059 86.4688 127.129 70.4522 125.797 61.2899C124.464 52.1275 113.243 54.3657 110.334 55.4148C107.426 56.4639 98.7058 57.4431 98.7058 57.4431C98.7058 57.4431 100.759 74.9285 105.107 75.8377C105.107 75.8377 108.908 71.9001 110.19 74.988C110.395 75.5052 110.479 76.0619 110.436 76.6162L110.139 81.5101Z" fill="#020202"/>
<path d="M108.227 83.7734C107.563 83.7374 106.92 83.5314 106.36 83.1752C106.315 83.1495 106.283 83.1072 106.269 83.0575C106.256 83.0078 106.263 82.9547 106.288 82.9101C106.314 82.8654 106.356 82.8328 106.406 82.8193C106.456 82.8059 106.509 82.8127 106.554 82.8384C107.534 83.3972 108.328 83.527 108.915 83.2263C109.827 82.756 109.969 81.3812 109.97 81.3675C109.972 81.342 109.979 81.317 109.991 81.2943C110.003 81.2715 110.019 81.2514 110.039 81.235C110.059 81.2187 110.082 81.2066 110.107 81.1993C110.131 81.1921 110.157 81.1899 110.183 81.1929C110.208 81.1953 110.233 81.2027 110.256 81.2147C110.278 81.2266 110.298 81.2429 110.315 81.2626C110.331 81.2823 110.343 81.305 110.351 81.3294C110.358 81.3539 110.361 81.3795 110.358 81.4049C110.352 81.4698 110.192 83.0049 109.094 83.5712C108.826 83.7076 108.528 83.777 108.227 83.7734Z" fill="#020202"/>
<path d="M94.9803 83.5783C95.1217 83.9622 95.3805 84.2922 95.7201 84.5214C95.886 84.6136 96.0688 84.6714 96.2577 84.6913C96.4465 84.7113 96.6375 84.6929 96.8191 84.6373C97.6112 84.3761 98.3689 84.0205 99.0756 83.5783C98.5113 84.2624 97.7551 84.7632 96.9038 85.0163C96.6736 85.0823 96.4311 85.0941 96.1955 85.0511C95.9599 85.0081 95.7375 84.9112 95.5456 84.7682C95.3715 84.6218 95.2309 84.4398 95.1334 84.2345C95.0359 84.0292 94.9837 83.8054 94.9803 83.5783Z" fill="#020202"/>
<path d="M96.1769 75.6514C96.4798 75.6408 96.7669 75.5134 96.9774 75.296C97.188 75.0785 97.3057 74.788 97.3057 74.4857C97.3057 74.1834 97.188 73.8929 96.9774 73.6755C96.7669 73.458 96.4798 73.3306 96.1769 73.32C95.8739 73.3306 95.5869 73.458 95.3763 73.6755C95.1658 73.8929 95.0481 74.1834 95.0481 74.4857C95.0481 74.788 95.1658 75.0785 95.3763 75.296C95.5869 75.5134 95.8739 75.6408 96.1769 75.6514Z" fill="#020202"/>
<path d="M52.7884 191.287C53.0914 191.277 53.3784 191.149 53.589 190.932C53.7996 190.715 53.9172 190.424 53.9172 190.122C53.9172 189.819 53.7996 189.529 53.589 189.311C53.3784 189.094 53.0914 188.967 52.7884 188.956C52.4855 188.967 52.1985 189.094 51.9879 189.311C51.7773 189.529 51.6596 189.819 51.6596 190.122C51.6596 190.424 51.7773 190.715 51.9879 190.932C52.1985 191.149 52.4855 191.277 52.7884 191.287Z" fill="#020202"/>
<path d="M63.8693 186.532C64.1723 186.521 64.4593 186.394 64.6699 186.176C64.8804 185.959 64.9981 185.669 64.9981 185.366C64.9981 185.064 64.8804 184.773 64.6699 184.556C64.4593 184.339 64.1723 184.211 63.8693 184.201C63.5664 184.211 63.2793 184.339 63.0688 184.556C62.8582 184.773 62.7405 185.064 62.7405 185.366C62.7405 185.669 62.8582 185.959 63.0688 186.176C63.2793 186.394 63.5664 186.521 63.8693 186.532Z" fill="#020202"/>
<path d="M59.5218 195.205C59.8247 195.194 60.1118 195.067 60.3223 194.849C60.5329 194.632 60.6506 194.341 60.6506 194.039C60.6506 193.737 60.5329 193.446 60.3223 193.229C60.1118 193.011 59.8247 192.884 59.5218 192.873C59.2188 192.884 58.9318 193.011 58.7213 193.229C58.5107 193.446 58.393 193.737 58.393 194.039C58.393 194.341 58.5107 194.632 58.7213 194.849C58.9318 195.067 59.2188 195.194 59.5218 195.205Z" fill="#020202"/>
<path d="M57.4178 180.237C57.7207 180.226 58.0077 180.099 58.2183 179.881C58.4289 179.664 58.5466 179.373 58.5466 179.071C58.5466 178.769 58.4289 178.478 58.2183 178.261C58.0077 178.043 57.7207 177.916 57.4178 177.905C57.1148 177.916 56.8278 178.043 56.6172 178.261C56.4066 178.478 56.289 178.769 56.289 179.071C56.289 179.373 56.4066 179.664 56.6172 179.881C56.8278 180.099 57.1148 180.226 57.4178 180.237Z" fill="#020202"/>
<path d="M69.9 177.579C70.203 177.569 70.49 177.441 70.7006 177.224C70.9112 177.007 71.0289 176.716 71.0289 176.414C71.0289 176.111 70.9112 175.821 70.7006 175.603C70.49 175.386 70.203 175.259 69.9 175.248C69.5971 175.259 69.3101 175.386 69.0995 175.603C68.8889 175.821 68.7712 176.111 68.7712 176.414C68.7712 176.716 68.8889 177.007 69.0995 177.224C69.3101 177.441 69.5971 177.569 69.9 177.579Z" fill="#020202"/>
<path d="M62.608 171.285C62.9109 171.274 63.1979 171.147 63.4085 170.929C63.6191 170.712 63.7368 170.421 63.7368 170.119C63.7368 169.817 63.6191 169.526 63.4085 169.309C63.1979 169.091 62.9109 168.964 62.608 168.953C62.305 168.964 62.018 169.091 61.8074 169.309C61.5968 169.526 61.4791 169.817 61.4791 170.119C61.4791 170.421 61.5968 170.712 61.8074 170.929C62.018 171.147 62.305 171.274 62.608 171.285Z" fill="#020202"/>
<path d="M63.1689 179.257C63.4718 179.247 63.7589 179.119 63.9694 178.902C64.18 178.684 64.2977 178.394 64.2977 178.092C64.2977 177.789 64.18 177.499 63.9694 177.281C63.7589 177.064 63.4718 176.936 63.1689 176.926C62.8659 176.936 62.5789 177.064 62.3683 177.281C62.1578 177.499 62.0401 177.789 62.0401 178.092C62.0401 178.394 62.1578 178.684 62.3683 178.902C62.5789 179.119 62.8659 179.247 63.1689 179.257Z" fill="#020202"/>
<path d="M57.6972 187.231C58.0001 187.221 58.2872 187.093 58.4977 186.876C58.7083 186.658 58.826 186.368 58.826 186.065C58.826 185.763 58.7083 185.473 58.4977 185.255C58.2872 185.038 58.0001 184.91 57.6972 184.9C57.3942 184.91 57.1072 185.038 56.8966 185.255C56.6861 185.473 56.5684 185.763 56.5684 186.065C56.5684 186.368 56.6861 186.658 56.8966 186.876C57.1072 187.093 57.3942 187.221 57.6972 187.231Z" fill="#020202"/>
<path d="M68.1038 189.073L66.8181 190.934C66.5718 190.829 66.3688 190.644 66.2422 190.408C66.1156 190.173 66.0731 189.902 66.1215 189.639C66.17 189.376 66.3067 189.138 66.509 188.963C66.7113 188.788 66.9673 188.687 67.2349 188.676C67.4008 188.669 67.566 188.702 67.717 188.771C67.868 188.84 68.0005 188.943 68.1038 189.073Z" fill="#020202"/>
<path d="M72.3715 182.91L71.0584 184.806C70.8985 184.642 70.7897 184.436 70.7453 184.211C70.7008 183.987 70.7226 183.755 70.808 183.542C70.8934 183.33 71.0388 183.147 71.2264 183.016C71.414 182.884 71.6358 182.81 71.865 182.801C72.04 182.798 72.2133 182.836 72.3715 182.91Z" fill="#020202"/>
<path d="M90.0046 151.654C90.3075 151.643 90.5945 151.516 90.8051 151.298C91.0157 151.081 91.1334 150.79 91.1334 150.488C91.1334 150.186 91.0157 149.895 90.8051 149.678C90.5945 149.46 90.3075 149.333 90.0046 149.322C89.7016 149.333 89.4146 149.46 89.204 149.678C88.9934 149.895 88.8757 150.186 88.8757 150.488C88.8757 150.79 88.9934 151.081 89.204 151.298C89.4146 151.516 89.7016 151.643 90.0046 151.654Z" fill="#020202"/>
<path d="M95.4297 155.384C95.7327 155.374 96.0197 155.246 96.2302 155.029C96.4408 154.811 96.5585 154.521 96.5585 154.218C96.5585 153.916 96.4408 153.626 96.2302 153.408C96.0197 153.191 95.7327 153.063 95.4297 153.053C95.1267 153.063 94.8397 153.191 94.6292 153.408C94.4186 153.626 94.3009 153.916 94.3009 154.218C94.3009 154.521 94.4186 154.811 94.6292 155.029C94.8397 155.246 95.1267 155.374 95.4297 155.384Z" fill="#020202"/>
<path d="M101.039 151.281C101.342 151.271 101.629 151.143 101.84 150.926C102.05 150.709 102.168 150.418 102.168 150.116C102.168 149.813 102.05 149.523 101.84 149.305C101.629 149.088 101.342 148.961 101.039 148.95C100.736 148.961 100.449 149.088 100.238 149.305C100.028 149.523 99.9102 149.813 99.9102 150.116C99.9102 150.418 100.028 150.709 100.238 150.926C100.449 151.143 100.736 151.271 101.039 151.281Z" fill="#020202"/>
<path d="M90.5676 162.285C90.8706 162.275 91.1576 162.147 91.3682 161.93C91.5787 161.712 91.6964 161.422 91.6964 161.119C91.6964 160.817 91.5787 160.527 91.3682 160.309C91.1576 160.092 90.8706 159.964 90.5676 159.954C90.2647 159.964 89.9776 160.092 89.7671 160.309C89.5565 160.527 89.4388 160.817 89.4388 161.119C89.4388 161.422 89.5565 161.712 89.7671 161.93C89.9776 162.147 90.2647 162.275 90.5676 162.285Z" fill="#020202"/>
<path d="M101.039 161.539C101.342 161.529 101.629 161.401 101.84 161.184C102.05 160.966 102.168 160.676 102.168 160.373C102.168 160.071 102.05 159.781 101.84 159.563C101.629 159.346 101.342 159.218 101.039 159.208C100.736 159.218 100.449 159.346 100.238 159.563C100.028 159.781 99.9102 160.071 99.9102 160.373C99.9102 160.676 100.028 160.966 100.238 161.184C100.449 161.401 100.736 161.529 101.039 161.539Z" fill="#020202"/>
<path d="M95.8022 166.948C96.1052 166.938 96.3922 166.81 96.6028 166.593C96.8134 166.375 96.9311 166.085 96.9311 165.783C96.9311 165.48 96.8134 165.19 96.6028 164.972C96.3922 164.755 96.1052 164.627 95.8022 164.617C95.4993 164.627 95.2123 164.755 95.0017 164.972C94.7911 165.19 94.6734 165.48 94.6734 165.783C94.6734 166.085 94.7911 166.375 95.0017 166.593C95.2123 166.81 95.4993 166.938 95.8022 166.948Z" fill="#020202"/>
<path d="M90.9402 172.543C91.2431 172.533 91.5301 172.405 91.7407 172.188C91.9513 171.97 92.069 171.68 92.069 171.378C92.069 171.075 91.9513 170.785 91.7407 170.567C91.5301 170.35 91.2431 170.222 90.9402 170.212C90.6372 170.222 90.3502 170.35 90.1396 170.567C89.929 170.785 89.8113 171.075 89.8113 171.378C89.8113 171.68 89.929 171.97 90.1396 172.188C90.3502 172.405 90.6372 172.533 90.9402 172.543Z" fill="#020202"/>
<path d="M101.602 172.916C101.905 172.906 102.192 172.778 102.403 172.561C102.613 172.343 102.731 172.053 102.731 171.751C102.731 171.448 102.613 171.158 102.403 170.94C102.192 170.723 101.905 170.595 101.602 170.585C101.299 170.595 101.012 170.723 100.801 170.94C100.591 171.158 100.473 171.448 100.473 171.751C100.473 172.053 100.591 172.343 100.801 172.561C101.012 172.778 101.299 172.906 101.602 172.916Z" fill="#020202"/>
<path d="M91.5011 182.242C91.804 182.232 92.091 182.104 92.3016 181.887C92.5122 181.669 92.6299 181.379 92.6299 181.076C92.6299 180.774 92.5122 180.484 92.3016 180.266C92.091 180.049 91.804 179.921 91.5011 179.911C91.1981 179.921 90.9111 180.049 90.7005 180.266C90.4899 180.484 90.3723 180.774 90.3723 181.076C90.3723 181.379 90.4899 181.669 90.7005 181.887C90.9111 182.104 91.1981 182.232 91.5011 182.242Z" fill="#020202"/>
<path d="M101.602 182.614C101.905 182.604 102.192 182.477 102.403 182.259C102.613 182.042 102.731 181.751 102.731 181.449C102.731 181.147 102.613 180.856 102.403 180.639C102.192 180.421 101.905 180.294 101.602 180.283C101.299 180.294 101.012 180.421 100.801 180.639C100.591 180.856 100.473 181.147 100.473 181.449C100.473 181.751 100.591 182.042 100.801 182.259C101.012 182.477 101.299 182.604 101.602 182.614Z" fill="#020202"/>
<path d="M91.1285 190.821C91.4315 190.811 91.7185 190.683 91.9291 190.466C92.1397 190.249 92.2574 189.958 92.2574 189.656C92.2574 189.353 92.1397 189.063 91.9291 188.845C91.7185 188.628 91.4315 188.501 91.1285 188.49C90.8256 188.501 90.5386 188.628 90.328 188.845C90.1174 189.063 89.9997 189.353 89.9997 189.656C89.9997 189.958 90.1174 190.249 90.328 190.466C90.5386 190.683 90.8256 190.811 91.1285 190.821Z" fill="#020202"/>
<path d="M101.602 191.754C101.905 191.743 102.192 191.616 102.403 191.398C102.613 191.181 102.731 190.89 102.731 190.588C102.731 190.286 102.613 189.995 102.403 189.778C102.192 189.56 101.905 189.433 101.602 189.422C101.299 189.433 101.012 189.56 100.801 189.778C100.591 189.995 100.473 190.286 100.473 190.588C100.473 190.89 100.591 191.181 100.801 191.398C101.012 191.616 101.299 191.743 101.602 191.754Z" fill="#020202"/>
<path d="M91.3147 200.333C91.6177 200.323 91.9047 200.195 92.1153 199.978C92.3258 199.76 92.4435 199.47 92.4435 199.168C92.4435 198.865 92.3258 198.575 92.1153 198.357C91.9047 198.14 91.6177 198.013 91.3147 198.002C91.0118 198.013 90.7248 198.14 90.5142 198.357C90.3036 198.575 90.1859 198.865 90.1859 199.168C90.1859 199.47 90.3036 199.76 90.5142 199.978C90.7248 200.195 91.0118 200.323 91.3147 200.333Z" fill="#020202"/>
<path d="M101.788 200.707C102.091 200.696 102.378 200.569 102.589 200.351C102.799 200.134 102.917 199.843 102.917 199.541C102.917 199.239 102.799 198.948 102.589 198.731C102.378 198.513 102.091 198.386 101.788 198.375C101.485 198.386 101.198 198.513 100.988 198.731C100.777 198.948 100.659 199.239 100.659 199.541C100.659 199.843 100.777 200.134 100.988 200.351C101.198 200.569 101.485 200.696 101.788 200.707Z" fill="#020202"/>
<path d="M96.3653 207.421C96.6682 207.41 96.9552 207.283 97.1658 207.065C97.3764 206.848 97.4941 206.557 97.4941 206.255C97.4941 205.953 97.3764 205.662 97.1658 205.445C96.9552 205.227 96.6682 205.1 96.3653 205.089C96.0623 205.1 95.7753 205.227 95.5647 205.445C95.3542 205.662 95.2365 205.953 95.2365 206.255C95.2365 206.557 95.3542 206.848 95.5647 207.065C95.7753 207.283 96.0623 207.41 96.3653 207.421Z" fill="#020202"/>
<path d="M104.22 208.912C104.523 208.902 104.81 208.775 105.021 208.557C105.232 208.34 105.349 208.049 105.349 207.747C105.349 207.445 105.232 207.154 105.021 206.937C104.81 206.719 104.523 206.592 104.22 206.581C103.917 206.592 103.63 206.719 103.42 206.937C103.209 207.154 103.092 207.445 103.092 207.747C103.092 208.049 103.209 208.34 103.42 208.557C103.63 208.775 103.917 208.902 104.22 208.912Z" fill="#020202"/>
<path d="M107.211 154.825C107.514 154.814 107.801 154.687 108.012 154.469C108.222 154.252 108.34 153.961 108.34 153.659C108.34 153.357 108.222 153.066 108.012 152.849C107.801 152.631 107.514 152.504 107.211 152.493C106.908 152.504 106.621 152.631 106.411 152.849C106.2 153.066 106.082 153.357 106.082 153.659C106.082 153.961 106.2 154.252 106.411 154.469C106.621 154.687 106.908 154.814 107.211 154.825Z" fill="#020202"/>
<path d="M112.073 150.535C112.376 150.525 112.663 150.397 112.874 150.18C113.085 149.963 113.202 149.672 113.202 149.37C113.202 149.067 113.085 148.777 112.874 148.56C112.663 148.342 112.376 148.215 112.073 148.204C111.77 148.215 111.483 148.342 111.273 148.56C111.062 148.777 110.945 149.067 110.945 149.37C110.945 149.672 111.062 149.963 111.273 150.18C111.483 150.397 111.77 150.525 112.073 150.535Z" fill="#020202"/>
<path d="M118.059 153.519C118.362 153.509 118.649 153.381 118.86 153.164C119.071 152.946 119.188 152.656 119.188 152.354C119.188 152.051 119.071 151.761 118.86 151.543C118.649 151.326 118.362 151.198 118.059 151.188C117.757 151.198 117.469 151.326 117.259 151.543C117.048 151.761 116.931 152.051 116.931 152.354C116.931 152.656 117.048 152.946 117.259 153.164C117.469 153.381 117.757 153.509 118.059 153.519Z" fill="#020202"/>
<path d="M113.945 158.369C114.248 158.358 114.535 158.231 114.745 158.013C114.956 157.796 115.073 157.505 115.073 157.203C115.073 156.901 114.956 156.61 114.745 156.393C114.535 156.175 114.248 156.048 113.945 156.038C113.642 156.048 113.355 156.175 113.144 156.393C112.933 156.61 112.816 156.901 112.816 157.203C112.816 157.505 112.933 157.796 113.144 158.013C113.355 158.231 113.642 158.358 113.945 158.369Z" fill="#020202"/>
<path d="M110.391 165.829C110.694 165.819 110.981 165.691 111.191 165.474C111.402 165.256 111.519 164.966 111.519 164.664C111.519 164.361 111.402 164.071 111.191 163.853C110.981 163.636 110.694 163.508 110.391 163.498C110.088 163.508 109.801 163.636 109.59 163.853C109.379 164.071 109.262 164.361 109.262 164.664C109.262 164.966 109.379 165.256 109.59 165.474C109.801 165.691 110.088 165.819 110.391 165.829Z" fill="#020202"/>
<path d="M121.053 163.59C121.355 163.58 121.642 163.452 121.853 163.235C122.064 163.018 122.181 162.727 122.181 162.425C122.181 162.122 122.064 161.832 121.853 161.614C121.642 161.397 121.355 161.27 121.053 161.259C120.75 161.27 120.463 161.397 120.252 161.614C120.041 161.832 119.924 162.122 119.924 162.425C119.924 162.727 120.041 163.018 120.252 163.235C120.463 163.452 120.75 163.58 121.053 163.59Z" fill="#020202"/>
<path d="M116.938 169.373C117.241 169.362 117.528 169.235 117.738 169.017C117.949 168.8 118.066 168.509 118.066 168.207C118.066 167.905 117.949 167.614 117.738 167.397C117.528 167.179 117.241 167.052 116.938 167.041C116.635 167.052 116.348 167.179 116.137 167.397C115.926 167.614 115.809 167.905 115.809 168.207C115.809 168.509 115.926 168.8 116.137 169.017C116.348 169.235 116.635 169.362 116.938 169.373Z" fill="#020202"/>
<path d="M111.701 175.155C112.004 175.144 112.291 175.017 112.501 174.799C112.712 174.582 112.83 174.291 112.83 173.989C112.83 173.687 112.712 173.396 112.501 173.179C112.291 172.961 112.004 172.834 111.701 172.823C111.398 172.834 111.111 172.961 110.9 173.179C110.69 173.396 110.572 173.687 110.572 173.989C110.572 174.291 110.69 174.582 110.9 174.799C111.111 175.017 111.398 175.144 111.701 175.155Z" fill="#020202"/>
<path d="M122.735 172.73C123.038 172.719 123.325 172.592 123.536 172.374C123.746 172.157 123.864 171.866 123.864 171.564C123.864 171.262 123.746 170.971 123.536 170.754C123.325 170.536 123.038 170.409 122.735 170.398C122.432 170.409 122.145 170.536 121.935 170.754C121.724 170.971 121.606 171.262 121.606 171.564C121.606 171.866 121.724 172.157 121.935 172.374C122.145 172.592 122.432 172.719 122.735 172.73Z" fill="#020202"/>
<path d="M118.434 179.444C118.737 179.434 119.024 179.306 119.235 179.089C119.445 178.871 119.563 178.581 119.563 178.279C119.563 177.976 119.445 177.686 119.235 177.468C119.024 177.251 118.737 177.123 118.434 177.113C118.131 177.123 117.844 177.251 117.634 177.468C117.423 177.686 117.305 177.976 117.305 178.279C117.305 178.581 117.423 178.871 117.634 179.089C117.844 179.306 118.131 179.434 118.434 179.444Z" fill="#020202"/>
<path d="M112.448 184.853C112.751 184.843 113.038 184.715 113.249 184.498C113.459 184.28 113.577 183.99 113.577 183.688C113.577 183.385 113.459 183.095 113.249 182.877C113.038 182.66 112.751 182.533 112.448 182.522C112.145 182.533 111.858 182.66 111.648 182.877C111.437 183.095 111.319 183.385 111.319 183.688C111.319 183.99 111.437 184.28 111.648 184.498C111.858 184.715 112.145 184.843 112.448 184.853Z" fill="#020202"/>
<path d="M120.678 189.888C120.981 189.878 121.268 189.75 121.478 189.533C121.689 189.316 121.807 189.025 121.807 188.723C121.807 188.42 121.689 188.13 121.478 187.912C121.268 187.695 120.981 187.568 120.678 187.557C120.375 187.568 120.088 187.695 119.877 187.912C119.667 188.13 119.549 188.42 119.549 188.723C119.549 189.025 119.667 189.316 119.877 189.533C120.088 189.75 120.375 189.878 120.678 189.888Z" fill="#020202"/>
<path d="M124.604 182.614C124.907 182.604 125.194 182.477 125.405 182.259C125.615 182.042 125.733 181.751 125.733 181.449C125.733 181.147 125.615 180.856 125.405 180.639C125.194 180.421 124.907 180.294 124.604 180.283C124.301 180.294 124.014 180.421 123.804 180.639C123.593 180.856 123.476 181.147 123.476 181.449C123.476 181.751 123.593 182.042 123.804 182.259C124.014 182.477 124.301 182.604 124.604 182.614Z" fill="#020202"/>
<path d="M113.945 194.179C114.248 194.168 114.535 194.041 114.745 193.823C114.956 193.606 115.073 193.315 115.073 193.013C115.073 192.711 114.956 192.42 114.745 192.203C114.535 191.985 114.248 191.858 113.945 191.847C113.642 191.858 113.355 191.985 113.144 192.203C112.933 192.42 112.816 192.711 112.816 193.013C112.816 193.315 112.933 193.606 113.144 193.823C113.355 194.041 113.642 194.168 113.945 194.179Z" fill="#020202"/>
<path d="M122.547 200.147C122.85 200.136 123.137 200.009 123.347 199.791C123.558 199.574 123.676 199.283 123.676 198.981C123.676 198.679 123.558 198.388 123.347 198.171C123.137 197.953 122.85 197.826 122.547 197.815C122.244 197.826 121.957 197.953 121.746 198.171C121.536 198.388 121.418 198.679 121.418 198.981C121.418 199.283 121.536 199.574 121.746 199.791C121.957 200.009 122.244 200.136 122.547 200.147Z" fill="#020202"/>
<path d="M128.158 191.567C128.461 191.557 128.748 191.429 128.959 191.212C129.169 190.994 129.287 190.704 129.287 190.402C129.287 190.099 129.169 189.809 128.959 189.591C128.748 189.374 128.461 189.247 128.158 189.236C127.855 189.247 127.568 189.374 127.358 189.591C127.147 189.809 127.03 190.099 127.03 190.402C127.03 190.704 127.147 190.994 127.358 191.212C127.568 191.429 127.855 191.557 128.158 191.567Z" fill="#020202"/>
<path d="M114.88 205.929C115.183 205.918 115.47 205.791 115.681 205.573C115.891 205.356 116.009 205.065 116.009 204.763C116.009 204.461 115.891 204.17 115.681 203.953C115.47 203.735 115.183 203.608 114.88 203.597C114.577 203.608 114.29 203.735 114.08 203.953C113.869 204.17 113.751 204.461 113.751 204.763C113.751 205.065 113.869 205.356 114.08 205.573C114.29 205.791 114.577 205.918 114.88 205.929Z" fill="#020202"/>
<path d="M124.043 211.524C124.346 211.513 124.633 211.386 124.844 211.168C125.055 210.951 125.172 210.66 125.172 210.358C125.172 210.056 125.055 209.765 124.844 209.548C124.633 209.33 124.346 209.203 124.043 209.192C123.74 209.203 123.453 209.33 123.243 209.548C123.032 209.765 122.915 210.056 122.915 210.358C122.915 210.66 123.032 210.951 123.243 211.168C123.453 211.386 123.74 211.513 124.043 211.524Z" fill="#020202"/>
<path d="M116.188 215.254C116.491 215.243 116.778 215.116 116.989 214.899C117.199 214.681 117.317 214.391 117.317 214.088C117.317 213.786 117.199 213.496 116.989 213.278C116.778 213.061 116.491 212.933 116.188 212.923C115.885 212.933 115.598 213.061 115.388 213.278C115.177 213.496 115.059 213.786 115.059 214.088C115.059 214.391 115.177 214.681 115.388 214.899C115.598 215.116 115.885 215.243 116.188 215.254Z" fill="#020202"/>
<path d="M131.151 205.369C131.454 205.359 131.741 205.231 131.952 205.014C132.162 204.796 132.28 204.506 132.28 204.204C132.28 203.901 132.162 203.611 131.952 203.393C131.741 203.176 131.454 203.048 131.151 203.038C130.848 203.048 130.561 203.176 130.351 203.393C130.14 203.611 130.023 203.901 130.023 204.204C130.023 204.506 130.14 204.796 130.351 205.014C130.561 205.231 130.848 205.359 131.151 205.369Z" fill="#020202"/>
<path d="M136.949 199.774C137.252 199.764 137.539 199.636 137.75 199.419C137.96 199.201 138.078 198.911 138.078 198.609C138.078 198.306 137.96 198.016 137.75 197.798C137.539 197.581 137.252 197.453 136.949 197.443C136.646 197.453 136.359 197.581 136.148 197.798C135.938 198.016 135.82 198.306 135.82 198.609C135.82 198.911 135.938 199.201 136.148 199.419C136.359 199.636 136.646 199.764 136.949 199.774Z" fill="#020202"/>
<path d="M140.128 209.472C140.431 209.461 140.718 209.334 140.929 209.117C141.139 208.899 141.257 208.609 141.257 208.306C141.257 208.004 141.139 207.713 140.929 207.496C140.718 207.279 140.431 207.151 140.128 207.141C139.825 207.151 139.538 207.279 139.328 207.496C139.117 207.713 138.999 208.004 138.999 208.306C138.999 208.609 139.117 208.899 139.328 209.117C139.538 209.334 139.825 209.461 140.128 209.472Z" fill="#020202"/>
<path d="M144.99 202.758C145.293 202.747 145.58 202.62 145.791 202.403C146.002 202.185 146.119 201.895 146.119 201.592C146.119 201.29 146.002 201 145.791 200.782C145.58 200.565 145.293 200.437 144.99 200.427C144.687 200.437 144.4 200.565 144.19 200.782C143.979 201 143.862 201.29 143.862 201.592C143.862 201.895 143.979 202.185 144.19 202.403C144.4 202.62 144.687 202.747 144.99 202.758Z" fill="#020202"/>
<path d="M151.349 195.857C151.652 195.847 151.939 195.719 152.15 195.502C152.36 195.284 152.478 194.994 152.478 194.692C152.478 194.389 152.36 194.099 152.15 193.881C151.939 193.664 151.652 193.536 151.349 193.526C151.046 193.536 150.759 193.664 150.549 193.881C150.338 194.099 150.22 194.389 150.22 194.692C150.22 194.994 150.338 195.284 150.549 195.502C150.759 195.719 151.046 195.847 151.349 195.857Z" fill="#020202"/>
<path d="M153.968 205.556C154.271 205.545 154.558 205.418 154.768 205.201C154.979 204.983 155.096 204.693 155.096 204.39C155.096 204.088 154.979 203.797 154.768 203.58C154.558 203.363 154.271 203.235 153.968 203.225C153.665 203.235 153.378 203.363 153.167 203.58C152.956 203.797 152.839 204.088 152.839 204.39C152.839 204.693 152.956 204.983 153.167 205.201C153.378 205.418 153.665 205.545 153.968 205.556Z" fill="#020202"/>
<path d="M158.829 198.655C159.132 198.644 159.419 198.517 159.63 198.299C159.841 198.082 159.958 197.791 159.958 197.489C159.958 197.187 159.841 196.896 159.63 196.679C159.419 196.461 159.132 196.334 158.829 196.323C158.526 196.334 158.239 196.461 158.029 196.679C157.818 196.896 157.701 197.187 157.701 197.489C157.701 197.791 157.818 198.082 158.029 198.299C158.239 198.517 158.526 198.644 158.829 198.655Z" fill="#020202"/>
<path d="M163.88 191.941C164.183 191.93 164.47 191.803 164.68 191.585C164.891 191.368 165.009 191.077 165.009 190.775C165.009 190.473 164.891 190.182 164.68 189.965C164.47 189.747 164.183 189.62 163.88 189.609C163.577 189.62 163.29 189.747 163.079 189.965C162.869 190.182 162.751 190.473 162.751 190.775C162.751 191.077 162.869 191.368 163.079 191.585C163.29 191.803 163.577 191.93 163.88 191.941Z" fill="#020202"/>
<path d="M167.059 201.639C167.362 201.628 167.649 201.501 167.86 201.283C168.07 201.066 168.188 200.775 168.188 200.473C168.188 200.171 168.07 199.88 167.86 199.663C167.649 199.445 167.362 199.318 167.059 199.307C166.756 199.318 166.469 199.445 166.259 199.663C166.048 199.88 165.93 200.171 165.93 200.473C165.93 200.775 166.048 201.066 166.259 201.283C166.469 201.501 166.756 201.628 167.059 201.639Z" fill="#020202"/>
<path d="M170.239 195.297C170.542 195.287 170.829 195.159 171.039 194.942C171.25 194.724 171.367 194.434 171.367 194.132C171.367 193.829 171.25 193.539 171.039 193.321C170.829 193.104 170.542 192.977 170.239 192.966C169.936 192.977 169.649 193.104 169.438 193.321C169.227 193.539 169.11 193.829 169.11 194.132C169.11 194.434 169.227 194.724 169.438 194.942C169.649 195.159 169.936 195.287 170.239 195.297Z" fill="#020202"/>
<path d="M176.222 189.33C176.525 189.319 176.812 189.192 177.023 188.974C177.234 188.757 177.351 188.466 177.351 188.164C177.351 187.862 177.234 187.571 177.023 187.354C176.812 187.136 176.525 187.009 176.222 186.998C175.92 187.009 175.633 187.136 175.422 187.354C175.211 187.571 175.094 187.862 175.094 188.164C175.094 188.466 175.211 188.757 175.422 188.974C175.633 189.192 175.92 189.319 176.222 189.33Z" fill="#020202"/>
<path d="M179.59 200.147C179.893 200.136 180.18 200.009 180.391 199.791C180.601 199.574 180.719 199.283 180.719 198.981C180.719 198.679 180.601 198.388 180.391 198.171C180.18 197.953 179.893 197.826 179.59 197.815C179.287 197.826 179 197.953 178.79 198.171C178.579 198.388 178.461 198.679 178.461 198.981C178.461 199.283 178.579 199.574 178.79 199.791C179 200.009 179.287 200.136 179.59 200.147Z" fill="#020202"/>
<path d="M182.769 193.246C183.072 193.236 183.359 193.108 183.57 192.891C183.781 192.673 183.898 192.383 183.898 192.081C183.898 191.778 183.781 191.488 183.57 191.27C183.359 191.053 183.072 190.925 182.769 190.915C182.467 190.925 182.18 191.053 181.969 191.27C181.758 191.488 181.641 191.778 181.641 192.081C181.641 192.383 181.758 192.673 181.969 192.891C182.18 193.108 182.467 193.236 182.769 193.246Z" fill="#020202"/>
<path d="M167.806 185.785C168.109 185.775 168.396 185.647 168.607 185.43C168.818 185.212 168.935 184.922 168.935 184.62C168.935 184.317 168.818 184.027 168.607 183.809C168.396 183.592 168.109 183.464 167.806 183.454C167.503 183.464 167.216 183.592 167.006 183.809C166.795 184.027 166.678 184.317 166.678 184.62C166.678 184.922 166.795 185.212 167.006 185.43C167.216 185.647 167.503 185.775 167.806 185.785Z" fill="#020202"/>
<path d="M155.839 187.091C156.141 187.081 156.429 186.953 156.639 186.736C156.85 186.518 156.967 186.228 156.967 185.926C156.967 185.623 156.85 185.333 156.639 185.115C156.429 184.898 156.141 184.77 155.839 184.76C155.536 184.77 155.249 184.898 155.038 185.115C154.827 185.333 154.71 185.623 154.71 185.926C154.71 186.228 154.827 186.518 155.038 186.736C155.249 186.953 155.536 187.081 155.839 187.091Z" fill="#020202"/>
<path d="M160.514 180.004C160.817 179.993 161.104 179.866 161.315 179.648C161.525 179.431 161.643 179.14 161.643 178.838C161.643 178.536 161.525 178.245 161.315 178.028C161.104 177.81 160.817 177.683 160.514 177.672C160.211 177.683 159.924 177.81 159.714 178.028C159.503 178.245 159.386 178.536 159.386 178.838C159.386 179.14 159.503 179.431 159.714 179.648C159.924 179.866 160.211 179.993 160.514 180.004Z" fill="#020202"/>
<path d="M173.418 178.698C173.721 178.687 174.008 178.56 174.219 178.343C174.429 178.125 174.547 177.835 174.547 177.532C174.547 177.23 174.429 176.94 174.219 176.722C174.008 176.505 173.721 176.377 173.418 176.367C173.115 176.377 172.828 176.505 172.617 176.722C172.407 176.94 172.289 177.23 172.289 177.532C172.289 177.835 172.407 178.125 172.617 178.343C172.828 178.56 173.115 178.687 173.418 178.698Z" fill="#020202"/>
<path d="M181.087 182.242C181.39 182.232 181.677 182.104 181.887 181.887C182.098 181.669 182.216 181.379 182.216 181.076C182.216 180.774 182.098 180.484 181.887 180.266C181.677 180.049 181.39 179.921 181.087 179.911C180.784 179.921 180.497 180.049 180.286 180.266C180.076 180.484 179.958 180.774 179.958 181.076C179.958 181.379 180.076 181.669 180.286 181.887C180.497 182.104 180.784 182.232 181.087 182.242Z" fill="#020202"/>
<path d="M176.972 170.492C177.275 170.481 177.562 170.354 177.772 170.137C177.983 169.919 178.101 169.629 178.101 169.326C178.101 169.024 177.983 168.733 177.772 168.516C177.562 168.299 177.275 168.171 176.972 168.161C176.669 168.171 176.382 168.299 176.171 168.516C175.961 168.733 175.843 169.024 175.843 169.326C175.843 169.629 175.961 169.919 176.171 170.137C176.382 170.354 176.669 170.481 176.972 170.492Z" fill="#020202"/>
<path d="M165.749 171.797C166.052 171.787 166.339 171.659 166.55 171.442C166.76 171.224 166.878 170.934 166.878 170.632C166.878 170.329 166.76 170.039 166.55 169.821C166.339 169.604 166.052 169.477 165.749 169.466C165.446 169.477 165.159 169.604 164.948 169.821C164.738 170.039 164.62 170.329 164.62 170.632C164.62 170.934 164.738 171.224 164.948 171.442C165.159 171.659 165.446 171.787 165.749 171.797Z" fill="#020202"/>
<path d="M156.211 171.984C156.514 171.973 156.801 171.846 157.012 171.628C157.222 171.411 157.34 171.12 157.34 170.818C157.34 170.516 157.222 170.225 157.012 170.008C156.801 169.79 156.514 169.663 156.211 169.652C155.908 169.663 155.621 169.79 155.411 170.008C155.2 170.225 155.082 170.516 155.082 170.818C155.082 171.12 155.2 171.411 155.411 171.628C155.621 171.846 155.908 171.973 156.211 171.984Z" fill="#020202"/>
<path d="M159.018 164.523C159.321 164.513 159.608 164.385 159.818 164.168C160.029 163.951 160.147 163.66 160.147 163.358C160.147 163.055 160.029 162.765 159.818 162.547C159.608 162.33 159.321 162.203 159.018 162.192C158.715 162.203 158.428 162.33 158.217 162.547C158.007 162.765 157.889 163.055 157.889 163.358C157.889 163.66 158.007 163.951 158.217 164.168C158.428 164.385 158.715 164.513 159.018 164.523Z" fill="#020202"/>
<path d="M169.678 163.218C169.98 163.207 170.268 163.08 170.478 162.863C170.689 162.645 170.806 162.355 170.806 162.052C170.806 161.75 170.689 161.459 170.478 161.242C170.268 161.025 169.98 160.897 169.678 160.887C169.375 160.897 169.088 161.025 168.877 161.242C168.666 161.459 168.549 161.75 168.549 162.052C168.549 162.355 168.666 162.645 168.877 162.863C169.088 163.08 169.375 163.207 169.678 163.218Z" fill="#020202"/>
<path d="M148.731 164.71C149.034 164.699 149.321 164.572 149.531 164.354C149.742 164.137 149.859 163.847 149.859 163.544C149.859 163.242 149.742 162.951 149.531 162.734C149.321 162.516 149.034 162.389 148.731 162.379C148.428 162.389 148.141 162.516 147.93 162.734C147.72 162.951 147.602 163.242 147.602 163.544C147.602 163.847 147.72 164.137 147.93 164.354C148.141 164.572 148.428 164.699 148.731 164.71Z" fill="#020202"/>
<path d="M153.968 157.995C154.271 157.985 154.558 157.857 154.768 157.64C154.979 157.422 155.096 157.132 155.096 156.83C155.096 156.527 154.979 156.237 154.768 156.019C154.558 155.802 154.271 155.675 153.968 155.664C153.665 155.675 153.378 155.802 153.167 156.019C152.956 156.237 152.839 156.527 152.839 156.83C152.839 157.132 152.956 157.422 153.167 157.64C153.378 157.857 153.665 157.985 153.968 157.995Z" fill="#020202"/>
<path d="M163.694 158.182C163.997 158.171 164.284 158.044 164.494 157.826C164.705 157.609 164.822 157.318 164.822 157.016C164.822 156.714 164.705 156.423 164.494 156.206C164.284 155.988 163.997 155.861 163.694 155.85C163.391 155.861 163.104 155.988 162.893 156.206C162.683 156.423 162.565 156.714 162.565 157.016C162.565 157.318 162.683 157.609 162.893 157.826C163.104 158.044 163.391 158.171 163.694 158.182Z" fill="#020202"/>
<path d="M173.793 156.316C174.095 156.306 174.382 156.179 174.593 155.961C174.804 155.744 174.921 155.453 174.921 155.151C174.921 154.849 174.804 154.558 174.593 154.341C174.382 154.123 174.095 153.996 173.793 153.985C173.49 153.996 173.203 154.123 172.992 154.341C172.781 154.558 172.664 154.849 172.664 155.151C172.664 155.453 172.781 155.744 172.992 155.961C173.203 156.179 173.49 156.306 173.793 156.316Z" fill="#020202"/>
<path d="M180.151 161.353C180.454 161.342 180.741 161.215 180.951 160.997C181.162 160.78 181.28 160.489 181.28 160.187C181.28 159.885 181.162 159.594 180.951 159.377C180.741 159.159 180.454 159.032 180.151 159.021C179.848 159.032 179.561 159.159 179.35 159.377C179.14 159.594 179.022 159.885 179.022 160.187C179.022 160.489 179.14 160.78 179.35 160.997C179.561 161.215 179.848 161.342 180.151 161.353Z" fill="#020202"/>
<path d="M182.583 174.968C182.886 174.958 183.173 174.83 183.384 174.613C183.594 174.395 183.712 174.105 183.712 173.802C183.712 173.5 183.594 173.21 183.384 172.992C183.173 172.775 182.886 172.647 182.583 172.637C182.28 172.647 181.993 172.775 181.783 172.992C181.572 173.21 181.454 173.5 181.454 173.802C181.454 174.105 181.572 174.395 181.783 174.613C181.993 174.83 182.28 174.958 182.583 174.968Z" fill="#020202"/>
<path d="M167.62 150.908C167.923 150.897 168.21 150.77 168.421 150.553C168.631 150.335 168.749 150.045 168.749 149.742C168.749 149.44 168.631 149.15 168.421 148.932C168.21 148.715 167.923 148.587 167.62 148.577C167.317 148.587 167.03 148.715 166.82 148.932C166.609 149.15 166.491 149.44 166.491 149.742C166.491 150.045 166.609 150.335 166.82 150.553C167.03 150.77 167.317 150.897 167.62 150.908Z" fill="#020202"/>
<path d="M157.896 150.721C158.199 150.711 158.486 150.583 158.697 150.366C158.907 150.149 159.025 149.858 159.025 149.556C159.025 149.253 158.907 148.963 158.697 148.745C158.486 148.528 158.199 148.401 157.896 148.39C157.593 148.401 157.306 148.528 157.095 148.745C156.885 148.963 156.767 149.253 156.767 149.556C156.767 149.858 156.885 150.149 157.095 150.366C157.306 150.583 157.593 150.711 157.896 150.721Z" fill="#020202"/>
<path d="M146.862 152.773C147.165 152.763 147.452 152.635 147.662 152.418C147.873 152.2 147.99 151.91 147.99 151.608C147.99 151.305 147.873 151.015 147.662 150.797C147.452 150.58 147.165 150.452 146.862 150.442C146.559 150.452 146.272 150.58 146.061 150.797C145.85 151.015 145.733 151.305 145.733 151.608C145.733 151.91 145.85 152.2 146.061 152.418C146.272 152.635 146.559 152.763 146.862 152.773Z" fill="#020202"/>
<path d="M151.349 146.991C151.652 146.981 151.939 146.853 152.15 146.636C152.36 146.418 152.478 146.128 152.478 145.826C152.478 145.523 152.36 145.233 152.15 145.015C151.939 144.798 151.652 144.67 151.349 144.66C151.046 144.67 150.759 144.798 150.549 145.015C150.338 145.233 150.22 145.523 150.22 145.826C150.22 146.128 150.338 146.418 150.549 146.636C150.759 146.853 151.046 146.981 151.349 146.991Z" fill="#020202"/>
<path d="M161.823 144.567C162.126 144.556 162.413 144.429 162.623 144.211C162.834 143.994 162.951 143.703 162.951 143.401C162.951 143.099 162.834 142.808 162.623 142.591C162.413 142.373 162.126 142.246 161.823 142.235C161.52 142.246 161.233 142.373 161.022 142.591C160.811 142.808 160.694 143.099 160.694 143.401C160.694 143.703 160.811 143.994 161.022 144.211C161.233 144.429 161.52 144.556 161.823 144.567Z" fill="#020202"/>
<path d="M172.11 142.702C172.413 142.691 172.7 142.564 172.91 142.346C173.121 142.129 173.239 141.838 173.239 141.536C173.239 141.234 173.121 140.943 172.91 140.726C172.7 140.508 172.413 140.381 172.11 140.37C171.807 140.381 171.52 140.508 171.309 140.726C171.099 140.943 170.981 141.234 170.981 141.536C170.981 141.838 171.099 142.129 171.309 142.346C171.52 142.564 171.807 142.691 172.11 142.702Z" fill="#020202"/>
<path d="M175.101 146.805C175.404 146.794 175.691 146.667 175.901 146.449C176.112 146.232 176.229 145.941 176.229 145.639C176.229 145.337 176.112 145.046 175.901 144.829C175.691 144.611 175.404 144.484 175.101 144.473C174.798 144.484 174.511 144.611 174.3 144.829C174.089 145.046 173.972 145.337 173.972 145.639C173.972 145.941 174.089 146.232 174.3 146.449C174.511 146.667 174.798 146.794 175.101 146.805Z" fill="#020202"/>
<path d="M178.28 150.721C178.583 150.711 178.87 150.583 179.08 150.366C179.291 150.149 179.409 149.858 179.409 149.556C179.409 149.253 179.291 148.963 179.08 148.745C178.87 148.528 178.583 148.401 178.28 148.39C177.977 148.401 177.69 148.528 177.479 148.745C177.269 148.963 177.151 149.253 177.151 149.556C177.151 149.858 177.269 150.149 177.479 150.366C177.69 150.583 177.977 150.711 178.28 150.721Z" fill="#020202"/>
<path d="M155.278 140.837C155.581 140.826 155.868 140.699 156.078 140.481C156.289 140.264 156.406 139.973 156.406 139.671C156.406 139.369 156.289 139.078 156.078 138.861C155.868 138.643 155.581 138.516 155.278 138.505C154.975 138.516 154.688 138.643 154.477 138.861C154.266 139.078 154.149 139.369 154.149 139.671C154.149 139.973 154.266 140.264 154.477 140.481C154.688 140.699 154.975 140.826 155.278 140.837Z" fill="#020202"/>
<path d="M143.682 142.329C143.985 142.318 144.272 142.191 144.483 141.973C144.693 141.756 144.811 141.465 144.811 141.163C144.811 140.861 144.693 140.57 144.483 140.353C144.272 140.135 143.985 140.008 143.682 139.997C143.379 140.008 143.092 140.135 142.882 140.353C142.671 140.57 142.553 140.861 142.553 141.163C142.553 141.465 142.671 141.756 142.882 141.973C143.092 142.191 143.379 142.318 143.682 142.329Z" fill="#020202"/>
<path d="M165.937 138.598C166.24 138.588 166.527 138.46 166.738 138.243C166.948 138.025 167.066 137.735 167.066 137.433C167.066 137.13 166.948 136.84 166.738 136.622C166.527 136.405 166.24 136.278 165.937 136.267C165.634 136.278 165.347 136.405 165.137 136.622C164.926 136.84 164.809 137.13 164.809 137.433C164.809 137.735 164.926 138.025 165.137 138.243C165.347 138.46 165.634 138.588 165.937 138.598Z" fill="#020202"/>
<path d="M174.167 137.292C174.47 137.282 174.757 137.154 174.968 136.937C175.178 136.72 175.296 136.429 175.296 136.127C175.296 135.824 175.178 135.534 174.968 135.316C174.757 135.099 174.47 134.972 174.167 134.961C173.864 134.972 173.577 135.099 173.367 135.316C173.156 135.534 173.038 135.824 173.038 136.127C173.038 136.429 173.156 136.72 173.367 136.937C173.577 137.154 173.864 137.282 174.167 137.292Z" fill="#020202"/>
<path d="M132.273 146.619C132.576 146.608 132.863 146.481 133.074 146.263C133.284 146.046 133.402 145.755 133.402 145.453C133.402 145.151 133.284 144.86 133.074 144.643C132.863 144.425 132.576 144.298 132.273 144.287C131.97 144.298 131.683 144.425 131.473 144.643C131.262 144.86 131.144 145.151 131.144 145.453C131.144 145.755 131.262 146.046 131.473 146.263C131.683 146.481 131.97 146.608 132.273 146.619Z" fill="#020202"/>
<path d="M138.071 150.721C138.374 150.711 138.661 150.583 138.871 150.366C139.082 150.149 139.2 149.858 139.2 149.556C139.2 149.253 139.082 148.963 138.871 148.745C138.661 148.528 138.374 148.401 138.071 148.39C137.768 148.401 137.481 148.528 137.27 148.745C137.06 148.963 136.942 149.253 136.942 149.556C136.942 149.858 137.06 150.149 137.27 150.366C137.481 150.583 137.768 150.711 138.071 150.721Z" fill="#020202"/>
<path d="M135.266 156.876C135.569 156.866 135.856 156.738 136.067 156.521C136.277 156.304 136.395 156.013 136.395 155.711C136.395 155.408 136.277 155.118 136.067 154.901C135.856 154.683 135.569 154.556 135.266 154.545C134.963 154.556 134.676 154.683 134.466 154.901C134.255 155.118 134.137 155.408 134.137 155.711C134.137 156.013 134.255 156.304 134.466 156.521C134.676 156.738 134.963 156.866 135.266 156.876Z" fill="#020202"/>
<path d="M138.818 163.59C139.121 163.58 139.408 163.452 139.619 163.235C139.829 163.018 139.947 162.727 139.947 162.425C139.947 162.122 139.829 161.832 139.619 161.614C139.408 161.397 139.121 161.27 138.818 161.259C138.515 161.27 138.228 161.397 138.018 161.614C137.807 161.832 137.689 162.122 137.689 162.425C137.689 162.727 137.807 163.018 138.018 163.235C138.228 163.452 138.515 163.58 138.818 163.59Z" fill="#020202"/>
<path d="M136.388 169C136.691 168.99 136.978 168.862 137.189 168.645C137.399 168.427 137.517 168.137 137.517 167.834C137.517 167.532 137.399 167.242 137.189 167.024C136.978 166.807 136.691 166.679 136.388 166.669C136.085 166.679 135.798 166.807 135.588 167.024C135.377 167.242 135.259 167.532 135.259 167.834C135.259 168.137 135.377 168.427 135.588 168.645C135.798 168.862 136.085 168.99 136.388 169Z" fill="#020202"/>
<path d="M126.101 157.063C126.404 157.052 126.691 156.925 126.902 156.707C127.112 156.49 127.23 156.199 127.23 155.897C127.23 155.595 127.112 155.304 126.902 155.087C126.691 154.869 126.404 154.742 126.101 154.731C125.798 154.742 125.511 154.869 125.301 155.087C125.09 155.304 124.972 155.595 124.972 155.897C124.972 156.199 125.09 156.49 125.301 156.707C125.511 156.925 125.798 157.052 126.101 157.063Z" fill="#020202"/>
<path d="M127.972 166.389C128.275 166.378 128.562 166.251 128.773 166.033C128.983 165.816 129.101 165.525 129.101 165.223C129.101 164.921 128.983 164.63 128.773 164.413C128.562 164.195 128.275 164.068 127.972 164.057C127.669 164.068 127.382 164.195 127.171 164.413C126.961 164.63 126.843 164.921 126.843 165.223C126.843 165.525 126.961 165.816 127.171 166.033C127.382 166.251 127.669 166.378 127.972 166.389Z" fill="#020202"/>
<path d="M143.494 171.051C143.797 171.041 144.084 170.913 144.294 170.696C144.505 170.479 144.623 170.188 144.623 169.886C144.623 169.583 144.505 169.293 144.294 169.075C144.084 168.858 143.797 168.731 143.494 168.72C143.191 168.731 142.904 168.858 142.693 169.075C142.483 169.293 142.365 169.583 142.365 169.886C142.365 170.188 142.483 170.479 142.693 170.696C142.904 170.913 143.191 171.041 143.494 171.051Z" fill="#020202"/>
<path d="M137.885 176.273C138.188 176.263 138.475 176.136 138.685 175.918C138.896 175.701 139.013 175.41 139.013 175.108C139.013 174.806 138.896 174.515 138.685 174.298C138.475 174.08 138.188 173.953 137.885 173.942C137.582 173.953 137.295 174.08 137.084 174.298C136.873 174.515 136.756 174.806 136.756 175.108C136.756 175.41 136.873 175.701 137.084 175.918C137.295 176.136 137.582 176.263 137.885 176.273Z" fill="#020202"/>
<path d="M145.738 178.139C146.041 178.128 146.328 178.001 146.538 177.783C146.749 177.566 146.866 177.276 146.866 176.973C146.866 176.671 146.749 176.38 146.538 176.163C146.328 175.945 146.041 175.818 145.738 175.808C145.435 175.818 145.148 175.945 144.937 176.163C144.726 176.38 144.609 176.671 144.609 176.973C144.609 177.276 144.726 177.566 144.937 177.783C145.148 178.001 145.435 178.128 145.738 178.139Z" fill="#020202"/>
<path d="M141.064 181.683C141.367 181.672 141.654 181.545 141.864 181.327C142.075 181.11 142.193 180.819 142.193 180.517C142.193 180.215 142.075 179.924 141.864 179.707C141.654 179.489 141.367 179.362 141.064 179.351C140.761 179.362 140.474 179.489 140.263 179.707C140.053 179.924 139.935 180.215 139.935 180.517C139.935 180.819 140.053 181.11 140.263 181.327C140.474 181.545 140.761 181.672 141.064 181.683Z" fill="#020202"/>
<path d="M99.8982 47.748C99.8877 48.1801 99.7076 48.5908 99.3965 48.8917C99.091 49.1963 98.7382 49.4498 98.3517 49.6424C97.5936 50.0296 96.776 50.2879 95.9325 50.4066C95.4977 50.4704 95.0546 50.4478 94.6285 50.3402C94.2025 50.2326 93.802 50.0421 93.45 49.7796C93.0958 49.5188 92.8097 49.1768 92.616 48.7824C92.4224 48.3881 92.3268 47.953 92.3375 47.514C92.3766 47.2655 92.4955 47.0363 92.6762 46.8607C92.8444 46.703 93.0364 46.5726 93.2452 46.4743C93.6388 46.2767 94.0297 46.1337 94.4075 45.982C94.7781 45.837 95.1366 45.6629 95.4797 45.4613C95.6473 45.3614 95.8046 45.2514 95.9619 45.1412C96.1469 45.0086 96.341 44.889 96.5427 44.7833C96.9749 44.5564 97.4718 44.4832 97.9514 44.5759C98.4166 44.6868 98.8259 44.9618 99.1037 45.3501C99.5982 46.0546 99.8744 46.8884 99.8982 47.748ZM99.8342 47.748C99.7801 46.9347 99.4063 46.1755 98.7941 45.6355C98.5414 45.3875 98.2138 45.2294 97.862 45.1856C97.5102 45.1417 97.1537 45.2146 96.8476 45.3929C96.6839 45.4691 96.5344 45.5886 96.3715 45.6861C96.1931 45.8173 96.0054 45.9355 95.81 46.0397C95.4272 46.2393 95.029 46.408 94.6194 46.5445C94.2222 46.6867 93.82 46.7929 93.4568 46.9351C93.0938 47.0803 92.7717 47.2515 92.6817 47.581C92.6233 47.9689 92.676 48.3654 92.8337 48.7248C92.9913 49.0841 93.2474 49.3918 93.5726 49.6125C93.9101 49.8151 94.2869 49.944 94.6781 49.9906C95.0692 50.0372 95.4659 50.0004 95.8417 49.8827C96.6128 49.6876 97.4246 49.4872 98.1969 49.2724C98.585 49.1656 98.9526 48.9951 99.2844 48.7678C99.4506 48.6535 99.5872 48.5014 99.6828 48.3241C99.7784 48.1468 99.8303 47.9493 99.8342 47.748Z" fill="#020202"/>
<path d="M94.074 34.6891C94.0656 35.0473 93.9844 35.4001 93.8352 35.726C93.6861 36.052 93.4722 36.3444 93.2065 36.5855C92.6794 37.0752 92.076 37.4763 91.4199 37.773C90.1225 38.3698 88.7498 38.7878 87.3394 39.0155C86.6221 39.1422 85.8867 39.1243 85.1764 38.963C84.4661 38.8017 83.7954 38.5002 83.2038 38.0763C82.6124 37.649 82.1372 37.0812 81.8212 36.4246C81.5052 35.7679 81.3584 35.043 81.3942 34.3155C81.4641 33.9255 81.6589 33.5686 81.9493 33.2983C82.2294 33.0492 82.5457 32.844 82.8875 32.6895C83.5443 32.3736 84.2112 32.144 84.8587 31.89C85.5007 31.6468 86.1224 31.3534 86.7181 31.0125C87.0123 30.8433 87.2882 30.6511 87.5634 30.4579C87.8663 30.2425 88.1831 30.0473 88.5117 29.8736C89.1986 29.5067 89.9896 29.3822 90.7564 29.5203C91.5055 29.6907 92.1718 30.1156 92.6413 30.7222C93.0954 31.2856 93.4438 31.9262 93.6695 32.6131C93.911 33.2801 94.0474 33.9804 94.074 34.6891ZM94.0099 34.6891C93.9785 33.9922 93.8067 33.3088 93.5046 32.6797C93.2224 32.0537 92.8244 31.4863 92.3315 31.0074C91.8731 30.5487 91.2849 30.2409 90.646 30.1256C90.0135 30.0436 89.3714 30.1691 88.8168 30.4831C88.5263 30.6409 88.2446 30.8144 87.973 31.0027C87.678 31.2188 87.3691 31.4153 87.0482 31.5909C86.4128 31.9297 85.7514 32.2178 85.0703 32.4525C84.4034 32.6968 83.7254 32.8899 83.099 33.1503C82.7931 33.2716 82.5038 33.4312 82.2382 33.6253C81.9939 33.8172 81.8185 34.0829 81.7383 34.3825C81.658 35.0587 81.7634 35.7439 82.043 36.365C82.3227 36.9861 82.7663 37.5198 83.3264 37.9091C83.9034 38.2732 84.5504 38.5131 85.2258 38.6134C85.9012 38.7137 86.5902 38.6722 87.2486 38.4915C88.5846 38.1823 89.957 37.8324 91.2649 37.4029C91.9227 37.1922 92.5409 36.8741 93.0943 36.4615C93.3723 36.2552 93.5992 35.9882 93.7579 35.681C93.9166 35.3739 94.0028 35.0346 94.0099 34.6891Z" fill="#020202"/>
<path d="M91.2197 17.0818C91.4255 17.5802 91.5281 18.1149 91.5212 18.6539C91.5008 19.1975 91.3317 19.7252 91.0321 20.1797C90.404 21.0577 89.5842 21.782 88.6345 22.298C86.7597 23.3371 84.7952 24.2064 82.7646 24.8952C80.7595 25.6403 78.7284 26.2976 76.7283 27.0286C75.7296 27.3974 74.7298 27.7601 73.7431 28.1532C72.747 28.5426 71.7394 28.9309 70.7072 29.2364C68.6473 29.8937 66.4958 30.2206 64.333 30.2048C62.1431 30.2299 60.0184 29.4613 58.3539 28.0419C56.8176 26.5015 55.8494 24.4879 55.6068 22.3289C55.3036 20.1997 55.3305 18.0366 55.6864 15.9156C56.1862 13.8168 57.0249 11.8131 58.1697 9.98285C59.2857 8.1352 60.6448 6.44488 62.2107 4.95692C63.7802 3.45331 65.596 2.22847 67.5796 1.33538C69.5816 0.445982 71.7588 0.0177788 73.9495 0.0825666C76.1412 0.118568 78.2946 0.661904 80.2397 1.66972C82.153 2.70547 83.8363 4.11672 85.1881 5.81848C86.5249 7.49638 87.6759 9.31337 88.6213 11.2378C89.5868 13.1426 90.4402 15.0984 91.2197 17.0818ZM91.1603 17.1057C89.5466 13.1818 87.6755 9.27083 84.8671 6.09091C83.4949 4.4973 81.8296 3.18026 79.9611 2.21083C78.0852 1.27909 76.0243 0.776905 73.9289 0.740943C69.731 0.603872 65.6864 2.53832 62.6219 5.3962C61.0799 6.8372 59.7246 8.4649 58.5877 10.2414C57.4283 12.0068 56.5642 13.9482 56.029 15.9898C55.6218 18.0672 55.5544 20.1966 55.8295 22.2955C55.9684 23.3432 56.253 24.3665 56.6751 25.3359C57.1017 26.3004 57.7242 27.1662 58.5034 27.8786C60.13 29.2453 62.2141 29.949 64.3387 29.8492C66.4546 29.8001 68.5499 29.4229 70.5494 28.7312C72.5664 28.1149 74.4993 27.1682 76.5424 26.5073C78.5661 25.8103 80.6023 25.1653 82.6327 24.5164C84.6728 23.9092 86.6534 23.1184 88.55 22.1538C89.4997 21.6788 90.3205 20.9824 90.9429 20.1238C91.2395 19.6867 91.4102 19.1769 91.4365 18.6498C91.4497 18.1218 91.3557 17.5966 91.1603 17.1057Z" fill="#020202"/>
</svg>
