<svg  viewBox="0 0 30 30" fill="none" xmlns="http://www.w3.org/2000/svg">
<path d="M15.0003 17.5234C14.3935 17.5326 13.813 17.7809 13.3774 18.2175C12.9418 18.6541 12.684 19.2461 12.6565 19.8726C12.6565 20.7348 13.2565 21.2918 14.2128 21.2918C14.4846 21.2532 14.7497 21.1749 15.0003 21.0593C15.2516 21.1728 15.5164 21.251 15.7878 21.2918C16.7253 21.2918 17.3628 20.7348 17.3628 19.8726C17.3352 19.2428 17.0747 18.648 16.6351 18.2109C16.1955 17.7738 15.6103 17.5277 15.0003 17.5234ZM15.7925 20.3231C15.5389 20.2115 15.2728 20.1334 15.0003 20.0906C14.7287 20.1303 14.4637 20.2085 14.2128 20.3231C13.594 20.3231 13.594 19.9985 13.594 19.8726C13.594 19.4821 13.7442 19.1075 14.0114 18.8314C14.2787 18.5552 14.6411 18.4001 15.019 18.4001C15.397 18.4001 15.7594 18.5552 16.0267 18.8314C16.2939 19.1075 16.444 19.4821 16.444 19.8726C16.4065 19.9985 16.4065 20.3231 15.7925 20.3231ZM13.7862 17.349C15.1644 17.5718 14.4472 15.3243 14.105 15.2662C13.7628 15.2081 12.4081 17.1262 13.7862 17.349ZM12.0378 16.8113C11.7472 16.8501 11.1003 18.7488 12.2581 18.5793C13.4159 18.4098 12.3331 16.7726 12.0378 16.8113ZM16.2144 17.349C17.5925 17.1262 16.2425 15.2129 15.8956 15.2662C15.5487 15.3195 14.8362 17.5718 16.2144 17.349ZM17.9628 16.8113C17.6675 16.7726 16.5565 18.4243 17.7425 18.5793C18.9284 18.7343 18.2534 16.8501 17.9628 16.8113Z" fill="currentColor"/>
<path d="M8.90625 12.0891C9.16513 12.0891 9.375 11.8722 9.375 11.6047C9.375 11.3372 9.16513 11.1204 8.90625 11.1204C8.64737 11.1204 8.4375 11.3372 8.4375 11.6047C8.4375 11.8722 8.64737 12.0891 8.90625 12.0891Z" fill="currentColor"/>
<path d="M10.7812 9.66724C11.0401 9.66724 11.25 9.45037 11.25 9.18286C11.25 8.91535 11.0401 8.69849 10.7812 8.69849C10.5224 8.69849 10.3125 8.91535 10.3125 9.18286C10.3125 9.45037 10.5224 9.66724 10.7812 9.66724Z" fill="currentColor"/>
<path d="M17.3438 11.6047C17.6026 11.6047 17.8125 11.3879 17.8125 11.1204C17.8125 10.8528 17.6026 10.636 17.3438 10.636C17.0849 10.636 16.875 10.8528 16.875 11.1204C16.875 11.3879 17.0849 11.6047 17.3438 11.6047Z" fill="currentColor"/>
<path d="M14.5312 9.18286C14.7901 9.18286 15 8.966 15 8.69849C15 8.43097 14.7901 8.21411 14.5312 8.21411C14.2724 8.21411 14.0625 8.43097 14.0625 8.69849C14.0625 8.966 14.2724 9.18286 14.5312 9.18286Z" fill="currentColor"/>
<path d="M21.0938 12.0891C21.3526 12.0891 21.5625 11.8722 21.5625 11.6047C21.5625 11.3372 21.3526 11.1204 21.0938 11.1204C20.8349 11.1204 20.625 11.3372 20.625 11.6047C20.625 11.8722 20.8349 12.0891 21.0938 12.0891Z" fill="currentColor"/>
<path d="M13.5938 11.6047C13.8526 11.6047 14.0625 11.3879 14.0625 11.1204C14.0625 10.8528 13.8526 10.636 13.5938 10.636C13.3349 10.636 13.125 10.8528 13.125 11.1204C13.125 11.3879 13.3349 11.6047 13.5938 11.6047Z" fill="currentColor"/>
<path d="M18.2812 9.18286C18.5401 9.18286 18.75 8.966 18.75 8.69849C18.75 8.43097 18.5401 8.21411 18.2812 8.21411C18.0224 8.21411 17.8125 8.43097 17.8125 8.69849C17.8125 8.966 18.0224 9.18286 18.2812 9.18286Z" fill="currentColor"/>
<path d="M28.125 22.2605H27.5766L26.25 15.0288C26.1652 14.5519 25.9439 14.1123 25.6146 13.7669C25.2853 13.4215 24.8633 13.1861 24.4031 13.0913C24.5538 12.4377 24.476 11.7501 24.1835 11.15C23.891 10.5499 23.4026 10.076 22.8047 9.81208C22.8051 9.18459 22.5698 8.58143 22.1483 8.12966C21.7269 7.6779 21.1522 7.4128 20.5453 7.39021C20.3985 6.98268 20.1563 6.61903 19.8404 6.33171C19.5245 6.04438 19.1447 5.84231 18.7349 5.74351C18.3251 5.64471 17.898 5.65226 17.4917 5.76548C17.0853 5.8787 16.7124 6.09408 16.4062 6.39239C15.7857 6.10783 15.0903 6.04809 14.4328 6.22286C14.1438 5.72741 13.7168 5.33367 13.2076 5.0932C12.6985 4.85272 12.1309 4.77671 11.5792 4.87512C11.0276 4.97353 10.5175 5.24178 10.1159 5.64474C9.71419 6.0477 9.43963 6.56659 9.32812 7.13349C8.88681 7.29172 8.49538 7.57089 8.19569 7.94115C7.89599 8.31141 7.69927 8.75886 7.62656 9.23568C7.23557 9.32903 6.86902 9.50949 6.55252 9.76443C6.23603 10.0194 5.97723 10.3427 5.7942 10.7117C5.61117 11.0807 5.50833 11.4866 5.49287 11.901C5.47741 12.3153 5.5497 12.7282 5.70469 13.1107C5.22149 13.1811 4.77163 13.4057 4.41786 13.753C4.06409 14.1004 3.82406 14.5531 3.73125 15.0482L2.42344 22.2605H1.875C1.75068 22.2605 1.63145 22.3115 1.54354 22.4024C1.45564 22.4932 1.40625 22.6164 1.40625 22.7449V24.6824C1.40625 24.8109 1.45564 24.9341 1.54354 25.0249C1.63145 25.1157 1.75068 25.1668 1.875 25.1668H28.125C28.2493 25.1668 28.3685 25.1157 28.4565 25.0249C28.5444 24.9341 28.5938 24.8109 28.5938 24.6824V22.7449C28.5938 22.6164 28.5444 22.4932 28.4565 22.4024C28.3685 22.3115 28.2493 22.2605 28.125 22.2605ZM8.12344 10.1511C8.24031 10.1402 8.34897 10.0844 8.42794 9.99474C8.50692 9.90506 8.55048 9.78803 8.55 9.66677V9.63771C8.54963 9.25137 8.67807 8.87669 8.91371 8.57674C9.14934 8.27679 9.47778 8.06988 9.84375 7.99083C9.94432 7.96989 10.0355 7.91543 10.1032 7.83581C10.1709 7.75619 10.2115 7.6558 10.2188 7.55005C10.2515 7.12269 10.4232 6.71936 10.706 6.40568C10.9888 6.09199 11.366 5.88643 11.7762 5.82242C12.1864 5.75842 12.6055 5.83974 12.9653 6.05316C13.3251 6.26659 13.6044 6.59955 13.7578 6.99786C13.7809 7.0584 13.8156 7.1135 13.8597 7.15989C13.9039 7.20628 13.9566 7.24301 14.0148 7.26787C14.073 7.29273 14.1354 7.30523 14.1984 7.30461C14.2613 7.30399 14.3235 7.29027 14.3813 7.26427C14.6823 7.13288 15.0092 7.0771 15.3351 7.10152C15.661 7.12593 15.9767 7.22985 16.2563 7.40474C16.3544 7.46858 16.4721 7.49253 16.5864 7.47195C16.7006 7.45137 16.8035 7.38773 16.875 7.29333C17.0676 7.04131 17.3264 6.85196 17.6204 6.74795C17.9144 6.64393 18.2311 6.62965 18.5328 6.70681C18.8345 6.78397 19.1082 6.9493 19.3213 7.18303C19.5344 7.41676 19.6778 7.70899 19.7344 8.02474C19.7572 8.14556 19.8237 8.25286 19.9204 8.32483C20.017 8.39681 20.1365 8.42806 20.2547 8.41224C20.4728 8.38048 20.6951 8.40212 20.9037 8.47542C21.1122 8.54872 21.3012 8.67162 21.4554 8.83422C21.6096 8.99682 21.7246 9.19458 21.7912 9.41155C21.8579 9.62851 21.8743 9.85862 21.8391 10.0833C21.8191 10.2043 21.8443 10.3285 21.9095 10.431C21.9748 10.5335 22.0752 10.6066 22.1906 10.6355C22.4315 10.7024 22.6567 10.8192 22.8524 10.979C23.0482 11.1387 23.2104 11.3379 23.3293 11.5645C23.4481 11.791 23.5211 12.0403 23.5437 12.2969C23.5664 12.5536 23.5382 12.8123 23.4609 13.0574H23.4984H6.75469C6.58404 12.7844 6.48442 12.4706 6.46546 12.1462C6.4465 11.8218 6.50884 11.4979 6.64646 11.2057C6.78408 10.9135 6.99232 10.6629 7.25105 10.4782C7.50979 10.2934 7.81026 10.1808 8.12344 10.1511ZM4.6875 15.208C4.74937 14.8713 4.92443 14.568 5.18176 14.3517C5.43908 14.1354 5.76211 14.0201 6.09375 14.0261H23.9531C24.2808 14.0258 24.5982 14.1438 24.8507 14.3595C25.1031 14.5753 25.2748 14.8754 25.3359 15.208L26.6203 22.2605H3.37969L4.6875 15.208ZM27.6562 24.198H2.34375V23.2293H27.6562V24.198Z" fill="currentColor"/>
</svg>
