<svg xmlns="http://www.w3.org/2000/svg" viewBox="0 0 42 42" fill="none"><path stroke="currentColor" stroke-linecap="round" stroke-linejoin="round" stroke-width="1.5" d="M33.878 16.946C32.005 9.722 25.476 4.388 17.725 4.388 8.491 4.388 1 11.928 1 21.281c0 9.326 7.491 16.866 16.725 16.866.642 0 1.283-.035 1.925-.105M14.213 1h6.997M17.725 10.405v-.867M6.956 21.28h-.858M10.13 13.584l-.624-.604M25.945 12.98l-.625.604M10.13 28.952l-.624.604M13.616 11.246l-.339-.814M28.442 16.788l-.78.316M7.789 25.432l-.807.315M7.789 17.104l-.807-.316M22.172 10.432l-.338.814M13.616 31.29l-.339.814M3.393 8.119l1.976-1.997"/><path stroke="currentColor" stroke-linecap="round" stroke-linejoin="round" stroke-width="1.5" d="M19.181 21.281c0-.84-.65-1.497-1.456-1.497a1.484 1.484 0 0 0 0 2.969c.806 0 1.456-.657 1.456-1.472ZM17.674 1v3.389M16.685 20.23l-3.433-3.442"/><path stroke="currentColor" stroke-linecap="round" stroke-linejoin="round" d="M41 27.12v3.038c0 2.807-4.068 5.105-9.072 5.105s-9.073-2.297-9.073-5.105V27.12"/><path stroke="currentColor" stroke-linecap="round" stroke-linejoin="round" d="M41 24.26v3.064c0 2.807-4.068 5.08-9.072 5.08s-9.073-2.273-9.073-5.08V24.26"/><path stroke="currentColor" stroke-linecap="round" stroke-linejoin="round" d="M41 24.466c0 2.808-4.068 5.08-9.072 5.08s-9.073-2.272-9.073-5.08c0-2.808 4.07-5.08 9.073-5.08 5.004 0 9.073 2.272 9.073 5.08ZM41 32.858v3.037C41 38.728 36.958 41 31.929 41c-5.004 0-9.073-2.272-9.073-5.105v-3.037"/><path stroke="currentColor" stroke-linecap="round" stroke-linejoin="round" d="M41 29.999V33.062c0 2.808-4.043 5.08-9.072 5.08-5.004 0-9.073-2.272-9.073-5.08v-3.063M30.84 26.507c.658.332 1.744.383 2.755.154 1.314-.332 2.022-1.098 1.567-1.71-.632-.817-1.895-.74-3.235-.511-1.744.306-2.78.102-3.235-.51-.454-.613.253-1.353 1.593-1.685.985-.255 2.021-.179 2.678.127M29.78 21.607l4.295 5.692"/></svg>