<svg xmlns="http://www.w3.org/2000/svg" viewBox="0 0 42 42" fill="none"><path stroke="currentColor" stroke-linecap="round" stroke-linejoin="round" stroke-width="1.5" d="M35.65 21.931v14.852c0 2.328-1.826 4.217-4.075 4.217h-21.15c-2.25 0-4.075-1.889-4.075-4.217V21.93M37.775 19.551 21.55 5.994a.876.876 0 0 0-1.1 0L4.225 19.55c-.75.621-1.8.621-2.525 0-.95-.828-.925-2.354.025-3.156l14.7-12.316 3.05-2.536a2.308 2.308 0 0 1 2.975 0l7.425 6.21c.2.181.5.026.5-.259V3.846c0-.44.35-.776.775-.776h4.125c.425 0 .75.336.75.776v8.797c0 .103.05.207.125.259l4.125 3.493c.95.802.975 2.328.025 3.13l-.025.026a1.91 1.91 0 0 1-2.5 0Z"/><path stroke="currentColor" stroke-linecap="round" stroke-linejoin="round" stroke-width="1.5" d="m21.075 33.083 10.05-12.29c.425-.517.45-1.268.05-1.837a1.418 1.418 0 0 0-2.075-.233l-9.6 8.46a.457.457 0 0 1-.65 0l-4.65-3.052a1.695 1.695 0 0 0-2.15.258c-.65.647-.675 1.734-.075 2.433l5.375 6.287a2.423 2.423 0 0 0 3.725-.026Z"/></svg>