<svg xmlns="http://www.w3.org/2000/svg" viewBox="0 0 40 41" fill="none"><path stroke="currentColor" stroke-linecap="round" stroke-linejoin="round" stroke-width="1.5" d="M9.46 28.37c-2.954 0-5.333-2.378-5.333-5.294a5.321 5.321 0 0 1 5.333-5.333 5.321 5.321 0 0 1 5.333 5.333c0 2.916-2.38 5.295-5.333 5.295ZM1.213 35.852c.882-2.34 3.184-4.028 5.87-4.028h4.757c2.686 0 4.988 1.688 5.87 4.028M30.068 31.651c-2.916 0-5.295-2.378-5.295-5.332a5.305 5.305 0 0 1 5.295-5.295c2.954 0 5.333 2.379 5.333 5.294a5.321 5.321 0 0 1-5.333 5.333ZM21.818 39.094c.883-2.34 3.185-3.99 5.87-3.99h4.796c2.647 0 4.95 1.65 5.87 3.99M30.217 1.63H16.942c-1.688 0-3.069 1.381-3.069 3.108v7.941a3.078 3.078 0 0 0 3.07 3.07h1.956c.23 0 .384.191.384.383v4.029c0 .345.383.498.652.268l4.527-4.565a.368.368 0 0 1 .268-.115h5.487a3.078 3.078 0 0 0 3.069-3.07V4.738c0-1.727-1.381-3.108-3.07-3.108ZM20.01 8.766h7.136"/></svg>