<svg xmlns="http://www.w3.org/2000/svg" viewBox="0 0 42 42" fill="none"><path stroke="currentColor" stroke-linecap="round" stroke-linejoin="round" stroke-width="1.5" d="M5.5 33.625A19.857 19.857 0 0 1 1 21C1 9.95 9.95 1 21 1s20 8.95 20 20-8.95 20-20 20c-3.7 0-7.15-1-10.125-2.75C6.125 40.825 1.6 41 1.6 41s2.9-3.3 3.9-7.375Z"/><path stroke="currentColor" stroke-linecap="round" stroke-linejoin="round" stroke-width="1.5" d="M25.625 24.475c-.2 0-.4.025-.6.075-.325.1-.7-1.225-1.775-2.55-.7-.85-1.625-1.35-2.65-1.35-1 0-1.9.5-2.6 1.325-1.075 1.25-1.45 2.6-1.7 2.55-.15-.034-.3-.05-.45-.05-1.65 0-2.95 1.775-2.95 3.925 0 2.175 1.3 3.925 2.95 3.925.55 0 1.725-.35 2.25-.55 1.475-.55 4.15-.475 5.2-.05.55.225 1.725.6 2.325.6 1.625 0 2.95-1.75 2.95-3.925 0-2.15-1.325-3.925-2.95-3.925ZM13.7 19.55c-.6-1.975-2.324-3.15-3.824-2.625-1.525.5-2.25 2.525-1.65 4.475.6 1.975 2.3 3.15 3.825 2.625 1.5-.5 2.25-2.5 1.65-4.475ZM17.4 18.125c1.75-.325 2.9-2.45 2.525-4.75s-2.125-3.9-3.9-3.575c-1.775.325-2.9 2.45-2.525 4.75s2.125 3.9 3.9 3.575ZM32.126 16.925c-1.5-.525-3.225.65-3.825 2.625-.6 1.975.15 3.975 1.65 4.475 1.525.525 3.225-.65 3.825-2.625.6-1.95-.125-3.975-1.65-4.475ZM24.6 18.125c1.8.325 3.575-1.275 3.95-3.625.375-2.325-.774-4.475-2.575-4.8-1.774-.325-3.55 1.3-3.925 3.625-.375 2.35.75 4.475 2.55 4.8Z"/></svg>