<svg xmlns="http://www.w3.org/2000/svg" viewBox="0 0 24 24" fill="none"><path fill="currentColor" d="M20.846 7.219h-5.047c.444-.656.702-1.516.702-2.402a4.501 4.501 0 0 0-9.002-.003c0 .887.258 1.749.702 2.405H5.948a.385.385 0 0 0-.265.12l-2.8 2.797a.393.393 0 0 0-.117.27V23.3a.384.384 0 0 0 .388.372h14.898a.377.377 0 0 0 .265-.108l2.8-2.793a.38.38 0 0 0 .117-.264V7.613a.403.403 0 0 0-.388-.394ZM12 1.075a3.751 3.751 0 1 1 0 7.502 3.751 3.751 0 0 1 0-7.502ZM6.103 7.97H8.8c.238.281.502.474.789.656h-.355a.375.375 0 0 0 0 .75h5.25a.375.375 0 0 0 0-.75h-.073c.287-.182.551-.375.789-.656h4.74l-2.043 2.062H4.06L6.103 7.97Zm-2.587 2.812h14.156v12.141H3.516v-12.14Zm14.906 11.614V10.562l2.062-2.044v11.834l-2.062 2.043Z"/><path fill="currentColor" d="M11.999 6.837a.691.691 0 0 1-.69-.69.375.375 0 1 0-.75 0 1.443 1.443 0 0 0 1.065 1.39v.291a.375.375 0 1 0 .75 0v-.29a1.44 1.44 0 0 0-.375-2.83.69.69 0 0 1-.013-1.38h.025a.69.69 0 0 1 .678.69.375.375 0 1 0 .75 0 1.442 1.442 0 0 0-1.065-1.391V2.39a.375.375 0 1 0-.75 0v.236a1.44 1.44 0 0 0 .375 2.83.69.69 0 1 1 0 1.38Z"/></svg>