<svg viewBox="0 0 22 28" fill="none" xmlns="http://www.w3.org/2000/svg">
<path d="M9.145 12.562a2.612 2.612 0 0 0 1.855.782 2.586 2.586 0 0 0 1.855-.782l7.84-7.937a2.695 2.695 0 0 0 .805-1.894 2.723 2.723 0 0 0-.753-1.915A2.66 2.66 0 0 0 18.876 0a2.632 2.632 0 0 0-1.892.763L11 6.953 5.016.763A2.644 2.644 0 0 0 3.124 0a2.645 2.645 0 0 0-1.87.816A2.712 2.712 0 0 0 .5 2.73c.01.715.3 1.396.806 1.894l7.839 7.937Zm7.839 2.857L11 21.503 5.016 15.42a2.643 2.643 0 0 0-1.892-.763 2.645 2.645 0 0 0-1.87.816A2.712 2.712 0 0 0 .5 17.387c.01.715.3 1.396.806 1.894l7.839 7.937A2.612 2.612 0 0 0 11 28a2.586 2.586 0 0 0 1.855-.782l7.84-7.937a2.673 2.673 0 0 0 .768-1.878c0-.705-.277-1.38-.769-1.878a2.607 2.607 0 0 0-1.855-.779c-.696 0-1.363.28-1.855.778v-.105Z" fill="currentColor"/>
</svg>