<svg width="18" height="19" viewBox="0 0 18 19" fill="none" xmlns="http://www.w3.org/2000/svg">
<path fill-rule="evenodd" clip-rule="evenodd" d="M1.5 0.242188C0.67157 0.242188 0 0.913758 0 1.74219V16.7422C0 17.5706 0.67157 18.2422 1.5 18.2422H16.5C17.3284 18.2422 18 17.5706 18 16.7422V1.74219C18 0.913758 17.3284 0.242188 16.5 0.242188H1.5ZM5.52076 4.24491C5.52639 5.20116 4.81061 5.79038 3.96123 5.78616C3.16107 5.78194 2.46357 5.14491 2.46779 4.24632C2.47201 3.40116 3.13998 2.72194 4.00764 2.74163C4.88795 2.76132 5.52639 3.40679 5.52076 4.24491ZM9.2797 7.00395H6.75971H6.7583V15.5638H9.4217V15.3641C9.4217 14.9842 9.4214 14.6042 9.4211 14.2241C9.4203 13.2103 9.4194 12.1954 9.4246 11.1819C9.426 10.9358 9.4372 10.6799 9.5005 10.445C9.7381 9.56749 10.5271 9.00079 11.4074 9.14009C11.9727 9.22859 12.3467 9.55629 12.5042 10.0893C12.6013 10.4225 12.6449 10.7811 12.6491 11.1285C12.6605 12.1761 12.6589 13.2237 12.6573 14.2714C12.6567 14.6412 12.6561 15.0112 12.6561 15.381V15.5624H15.328V15.3571C15.328 14.9051 15.3278 14.4532 15.3275 14.0013C15.327 12.8718 15.3264 11.7423 15.3294 10.6124C15.3308 10.1019 15.276 9.59849 15.1508 9.10489C14.9638 8.37079 14.5771 7.76329 13.9485 7.32459C13.5027 7.01238 13.0133 6.81129 12.4663 6.78879C12.404 6.7862 12.3412 6.78281 12.2781 6.7794C11.9984 6.76428 11.7141 6.74892 11.4467 6.80285C10.6817 6.95613 10.0096 7.30629 9.5019 7.92359C9.4429 7.99439 9.3852 8.06629 9.2991 8.17359L9.2797 8.19789V7.00395ZM2.68164 15.5666H5.33242V7.00952H2.68164V15.5666Z" fill="currentColor"/>
</svg>
