<svg width="46" height="45" viewBox="0 0 46 45" fill="none" xmlns="http://www.w3.org/2000/svg">
<path d="M26.8981 25.3933C22.936 29.1591 18.9739 31.6696 18.6504 31.8927L18.2192 32.1438L17.7879 31.8927C17.1141 31.4743 1.13086 21.2928 1.13086 10.5255C1.13086 5.33708 5.20078 1.125 10.241 1.125C13.6102 1.125 16.6559 3.04973 18.2192 6.03445C19.7825 3.04973 22.8282 1.125 26.1973 1.125C31.2375 1.125 35.3075 5.33708 35.3075 10.5255C35.3075 13.9286 33.7172 17.276 31.5071 20.2607" stroke="#FFFEFE" stroke-width="1.5" stroke-linecap="round" stroke-linejoin="round"/>
<path d="M26.1973 6.89844C28.1379 6.89844 29.7012 8.54422 29.7012 10.5247" stroke="#FFFEFE" stroke-width="1.5" stroke-linecap="round" stroke-linejoin="round"/>
<path d="M35.8457 18.7822C35.8457 18.7822 40.9937 20.7348 42.1527 22.2691C44.6324 25.6164 44.3359 32.9248 43.743 36.8579C43.2578 40.1495 44.2551 44.25 44.2551 44.25" stroke="#FFFEFE" stroke-width="1.5" stroke-linecap="round" stroke-linejoin="round"/>
<path d="M37.2465 26.2578C35.6024 23.58 33.7426 23.3847 32.4758 21.6273C30.0231 18.1963 30.2656 18.4752 27.9746 15.3511C26.6539 13.51 25.7105 12.4221 23.9586 13.259C22.4762 13.9563 22.4492 15.1837 22.8805 16.7737C23.4465 18.7542 26.9234 25.3373 27.6242 26.8715C27.7859 27.2063 27.8398 27.5689 27.8129 27.9315C27.6512 29.8841 27.3277 35.491 34.2278 38.6988" stroke="#FFFEFE" stroke-width="1.5" stroke-linecap="round" stroke-linejoin="round"/>
<path d="M24.7148 31.0273C24.7148 37.9173 30.4828 39.3399 31.4801 44.2494" stroke="#FFFEFE" stroke-width="1.5" stroke-linecap="round" stroke-linejoin="round"/>
</svg>
