<svg  viewBox="0 0 30 36" fill="none" xmlns="http://www.w3.org/2000/svg">
<path d="M20.9658 17.1762C20.8845 17.1763 20.8049 17.1483 20.7371 17.0955C20.6694 17.0428 20.6166 16.9677 20.5854 16.8799C20.5541 16.792 20.5459 16.6953 20.5617 16.602C20.5775 16.5087 20.6166 16.423 20.6741 16.3556C20.7317 16.2883 20.805 16.2425 20.8848 16.2238C20.9646 16.2052 21.0473 16.2147 21.1225 16.2511C21.1977 16.2875 21.262 16.3491 21.3072 16.4282C21.3525 16.5073 21.3766 16.6003 21.3766 16.6954C21.3765 16.8227 21.3332 16.9448 21.2562 17.0349C21.1792 17.125 21.0748 17.1758 20.9658 17.1762ZM25.3088 0L21.4997 2.48094C21.3646 2.56839 21.206 2.59234 21.0563 2.54791C21.031 2.54157 18.3902 1.78791 16.3659 3.35515C15.1366 4.30551 14.3597 5.93479 14.0569 8.19787C13.6075 11.5439 13.4875 12.607 13.4296 13.1181C13.3692 13.6681 13.3638 13.692 13.1521 14.935C12.678 17.7282 13.1243 18.883 13.432 19.3194C13.5523 19.4899 13.7051 19.625 13.8781 19.714C14.0512 19.803 14.2396 19.8434 14.4284 19.832C15.6409 19.832 16.7296 19.5457 16.7296 16.0905C16.7296 12.263 16.6615 8.14429 16.6609 8.1027C16.6578 7.91583 16.7183 7.73518 16.8292 7.60046C16.94 7.46575 17.0921 7.38799 17.252 7.38429H17.2641C17.422 7.38425 17.5736 7.45659 17.6864 7.58577C17.7991 7.71496 17.8641 7.89068 17.8672 8.0752C17.8672 8.11257 17.9221 11.3986 17.9336 14.8327L19.9338 15.5046C20.3892 11.9041 22.4292 9.91458 23.971 8.41079C24.6216 7.85383 25.1974 7.18633 25.6792 6.43041C26.8862 4.09823 26.7619 1.93667 25.307 0H25.3088ZM24.2551 33.524C24.152 33.5114 24.0535 33.468 23.969 33.398C23.8845 33.328 23.8168 33.2337 23.7725 33.1243C23.6145 32.7337 19.9121 23.4868 19.8415 17.1663C19.8415 17.0895 19.8463 17.0183 19.8463 16.9421L17.9318 16.2992C17.889 19.7114 16.805 21.242 14.4284 21.242C14.3446 21.242 14.268 21.2223 14.1872 21.2138C14.0435 21.9882 13.7861 22.7276 13.4265 23.3993C13.2975 23.6108 10.9812 27.3474 9.95758 28.6164C9.37508 29.3734 8.97902 30.3007 8.81152 31.2998C8.64402 32.2989 8.71135 33.3324 9.00634 34.2903C9.04254 34.3876 9.08355 34.4863 9.1306 34.5865H7.09784C6.63624 34.6101 6.1793 34.4701 5.78695 34.1849C5.3946 33.8997 5.08516 33.4826 4.89921 32.9882C4.44802 31.7495 4.81174 30.2386 5.87276 28.9499C5.9837 28.8152 6.04431 28.6345 6.04126 28.4475C6.03821 28.2605 5.97174 28.0827 5.85647 27.953C5.74121 27.8233 5.58659 27.7525 5.42664 27.7561C5.26669 27.7596 5.1145 27.8373 5.00356 27.972C3.59631 29.6838 3.1421 31.765 3.78873 33.5416C4.06842 34.2896 4.53277 34.9229 5.12231 35.3605C5.71185 35.7981 6.39973 36.02 7.09784 35.9979H19.6328C19.7335 35.3334 19.6191 34.6488 19.3119 34.0774C19.2007 33.9404 19.0646 33.8343 18.9136 33.7671C18.7627 33.6998 18.6007 33.6731 18.4397 33.689H15.4653C15.3305 33.6885 15.1998 33.6354 15.0939 33.5379C14.9879 33.4405 14.913 33.3044 14.881 33.1514C14.849 32.9983 14.8618 32.8372 14.9173 32.6936C14.9728 32.5501 15.0678 32.4324 15.1873 32.3593C15.5731 32.1237 15.9112 31.794 16.1789 31.3927C16.4465 30.9914 16.6374 30.5276 16.7387 30.0328C16.8948 29.3567 16.8361 28.6375 16.5737 28.008C16.3112 27.3785 15.8627 26.8814 15.3109 26.6085C15.2374 26.5741 15.1703 26.5231 15.1137 26.4583C15.057 26.3936 15.0118 26.3165 14.9806 26.2314C14.9494 26.1462 14.9329 26.0547 14.932 25.9621C14.9311 25.8695 14.9458 25.7776 14.9752 25.6917C15.0047 25.6057 15.0484 25.5274 15.1037 25.4611C15.1591 25.3949 15.2251 25.342 15.2979 25.3056C15.3708 25.2692 15.4491 25.2499 15.5283 25.2488C15.6075 25.2477 15.6861 25.2649 15.7597 25.2993C16.5688 25.6917 17.2316 26.4087 17.6289 27.3212C18.0262 28.2337 18.1319 29.282 17.927 30.2774C17.7904 31.0087 17.5129 31.694 17.1157 32.2811H18.4427C18.7782 32.2641 19.1127 32.3344 19.4221 32.487C19.7315 32.6395 20.008 32.8704 20.2318 33.163C20.7439 33.9795 20.9626 34.9977 20.841 36H25.5555C25.6602 35.3768 25.5809 34.7306 25.3306 34.167C25.2048 33.9715 25.0426 33.812 24.8562 33.7006C24.6699 33.5892 24.4643 33.5288 24.2551 33.524Z" fill="#0D99FF"/>
</svg>
