<svg  viewBox="0 0 18 17" fill="none" xmlns="http://www.w3.org/2000/svg">
<path d="M2.06665 6.86685V12.2002C2.06665 13.0838 2.783 13.8002 3.66665 13.8002H14.3333C15.217 13.8002 15.9333 13.0838 15.9333 12.2002V6.86685C15.9333 5.98319 15.217 5.26685 14.3333 5.26685H3.66665C2.78299 5.26685 2.06665 5.98319 2.06665 6.86685Z" stroke="#0C0C0C" stroke-linecap="round" stroke-linejoin="round"/>
<path d="M3.39999 5.26678L9.64505 3.13774C10.5054 2.84443 11.437 3.32593 11.6954 4.19745L11.9333 5.00017" stroke="#0C0C0C" stroke-linecap="round" stroke-linejoin="round"/>
<path d="M12.9778 10.5556C13.4073 10.5556 13.7556 10.2073 13.7556 9.77778C13.7556 9.34822 13.4073 9 12.9778 9C12.5482 9 12.2 9.34822 12.2 9.77778C12.2 10.2073 12.5482 10.5556 12.9778 10.5556Z" fill="#0C0C0C"/>
</svg>

