<svg xmlns="http://www.w3.org/2000/svg" fill="none" viewBox="0 0 18 17"><path stroke="currentColor" stroke-linecap="round" stroke-linejoin="round" d="M2.067 6.867V12.2a1.6 1.6 0 0 0 1.6 1.6h10.666a1.6 1.6 0 0 0 1.6-1.6V6.867a1.6 1.6 0 0 0-1.6-1.6H3.667a1.6 1.6 0 0 0-1.6 1.6Z"/><path stroke="currentColor" stroke-linecap="round" stroke-linejoin="round" d="m3.4 5.267 6.245-2.13a1.6 1.6 0 0 1 2.05 1.06l.238.803"/><path fill="currentColor" d="M12.978 10.556a.778.778 0 1 0 0-1.556.778.778 0 0 0 0 1.556Z"/></svg>