<svg viewBox="0 0 45 47" fill="none" xmlns="http://www.w3.org/2000/svg">
<path d="M24.8129 6.85V3.53125C24.8129 2.125 23.716 1 22.366 1C21.016 1 19.9473 2.125 19.9473 3.53125V18.6063" stroke="#FFFEFE" stroke-width="1.5" stroke-linecap="round" stroke-linejoin="round"/>
<path d="M29.65 17.8184V6.84961C29.65 5.44336 28.5812 4.31836 27.2312 4.31836C25.8812 4.31836 24.8125 5.44336 24.8125 6.84961V18.9996" stroke="#FFFEFE" stroke-width="1.5" stroke-linecap="round" stroke-linejoin="round"/>
<path d="M31.2817 40.3461C31.2817 33.118 34.0098 32.8086 34.3473 23.668C34.4879 20.2367 34.291 19.2242 34.0942 17.818C33.8973 16.5523 33.0816 15.5117 31.8723 15.5117C30.6629 15.5117 29.6504 16.5523 29.6504 17.818V19.4211" stroke="#FFFEFE" stroke-width="1.5" stroke-linecap="round" stroke-linejoin="round"/>
<path d="M15.1099 23.6695V6.03516C15.0818 4.62891 16.1505 3.50391 17.5005 3.50391C18.8505 3.50391 19.9474 4.62891 19.9474 6.03516" stroke="#FFFEFE" stroke-width="1.5" stroke-linecap="round" stroke-linejoin="round"/>
<path d="M15.8409 40.3471C15.8409 35.9034 10.8627 29.294 10.5252 24.4002C10.1034 18.1284 15.1096 19.0002 15.1096 19.0002" stroke="#FFFEFE" stroke-width="1.5" stroke-linecap="round" stroke-linejoin="round"/>
<path d="M31.2801 46.0008H15.8395C14.9676 46.0008 14.2363 45.2695 14.2363 44.3977V41.9508C14.2363 41.0508 14.9676 40.3477 15.8395 40.3477H31.2801C32.1801 40.3477 32.9113 41.0508 32.9113 41.9508V44.3977C32.9113 45.2695 32.1801 46.0008 31.2801 46.0008Z" stroke="#FFFEFE" stroke-width="1.5" stroke-linecap="round" stroke-linejoin="round"/>
</svg>
