<svg viewBox="0 0 47 46" fill="none" xmlns="http://www.w3.org/2000/svg">
<path d="M15.8887 37.0145C15.8887 36.4179 16.1389 35.802 16.6393 35.3401L21.3163 31.2212C22.3364 30.2974 23.9724 30.2974 24.9925 31.2212C26.0126 32.1451 26.0126 33.6463 24.9925 34.5702L20.3347 38.689C19.3146 39.6129 17.6594 39.6129 16.6393 38.689C16.1389 38.2271 15.8887 37.6304 15.8887 37.0145Z" stroke="#FFFEFE" stroke-width="1.5" stroke-linecap="round" stroke-linejoin="round"/>
<path d="M20.1035 39.8232C20.1035 39.2265 20.373 38.6299 20.8734 38.1679L24.8383 34.6265C25.8584 33.7026 27.4944 33.7026 28.5144 34.6265C29.5345 35.5503 29.5345 37.0516 28.5144 37.9755L24.5496 41.4977C23.5295 42.4215 21.8935 42.4215 20.8734 41.4977C20.373 41.0357 20.1035 40.4391 20.1035 39.8232Z" stroke="#FFFEFE" stroke-width="1.5" stroke-linecap="round" stroke-linejoin="round"/>
<path d="M11.9238 34.0316C11.9238 33.435 12.174 32.8383 12.6745 32.3764L17.6979 27.8726C18.718 26.9487 20.354 26.9487 21.3741 27.8726C22.3942 28.7964 22.3942 30.2977 21.3741 31.2216L16.3506 35.7061C15.3498 36.63 13.6945 36.63 12.6745 35.7061C12.174 35.2442 11.9238 34.6475 11.9238 34.0316Z" stroke="#FFFEFE" stroke-width="1.5" stroke-linecap="round" stroke-linejoin="round"/>
<path d="M8.01562 30.932C8.01562 30.3353 8.26584 29.7194 8.7855 29.2575L13.7897 24.773C14.8098 23.8491 16.465 23.8491 17.4659 24.773C18.486 25.6968 18.486 27.1788 17.4659 28.1219L12.4617 32.6065C11.4416 33.5303 9.78635 33.5303 8.7855 32.6065C8.26584 32.1445 8.01562 31.5479 8.01562 30.932Z" stroke="#FFFEFE" stroke-width="1.5" stroke-linecap="round" stroke-linejoin="round"/>
<path d="M23.6049 10.6082L17.3304 16.9019C16.8108 17.4216 16.5605 18.0952 16.5605 18.7881C16.5605 19.4618 16.8108 20.1354 17.3304 20.6551C18.3698 21.6752 20.0443 21.6752 21.0643 20.6551L27.0886 14.6693C27.1785 14.5795 27.2554 14.4896 27.3196 14.3998C27.3324 14.387 27.3453 14.3677 27.3581 14.3421L39.5414 26.6409C41.2544 28.2769 40.7155 29.3355 40.7155 29.3355C45.1808 24.0233 48.0871 15.6124 44.1414 9.89602C43.4678 8.93367 42.6402 8.02907 41.6201 7.1822C35.7883 2.38971 28.0125 5.39223 23.6049 10.6082ZM23.6049 10.6082C23.4895 10.6851 23.7012 10.4927 23.6049 10.6082Z" stroke="#FFFEFE" stroke-width="1.5" stroke-linecap="round" stroke-linejoin="round"/>
<path d="M27.2637 21.6758L32.6721 27.1804" stroke="#FFFEFE" stroke-width="1.5" stroke-linecap="round" stroke-linejoin="round"/>
<path d="M23.5098 25.332L30.3039 32.2802" stroke="#FFFEFE" stroke-width="1.5" stroke-linecap="round" stroke-linejoin="round"/>
<path d="M40.7354 29.3164C40.6776 29.8938 40.4274 30.4327 39.9847 30.8754C39.4651 31.3951 38.7914 31.703 38.1178 31.6453C37.2517 31.5875 36.886 31.0871 36.1738 30.5675" stroke="#FFFEFE" stroke-width="1.5" stroke-linecap="round" stroke-linejoin="round"/>
<path d="M36.1749 30.5673C35.8862 30.3363 33.3456 27.738 33.0762 27.584" stroke="#FFFEFE" stroke-width="1.5" stroke-linecap="round" stroke-linejoin="round"/>
<path d="M36.1743 30.5664C36.617 31.0476 36.5592 32.1254 36.5592 32.1447C36.5207 32.9723 36.1358 33.5112 35.6161 33.9924C35.5006 34.095 35.3723 34.1977 35.2312 34.3003C34.8077 34.589 34.2881 34.7622 33.7107 34.7622C33.422 34.7622 33.1333 34.743 32.8638 34.6275C32.5943 34.512 32.3441 34.3773 32.1324 34.1848C31.8245 33.9346 31.5743 33.5882 31.2856 33.2995C31.1123 33.1263 30.4964 32.4911 30.304 32.2794C30.5542 32.5488 31.2471 33.2995 31.4973 33.6267C31.5101 33.6523 31.5229 33.6716 31.5358 33.6844C32.3249 34.7622 32.8638 36.0903 31.5743 37.2836C31.0353 37.784 30.3809 38.0535 29.7073 38.0535C29.3416 38.0535 28.9952 37.9765 28.668 37.8418" stroke="#FFFEFE" stroke-width="1.5" stroke-linecap="round" stroke-linejoin="round"/>
<path d="M33.0762 27.584C33.2686 27.738 35.867 30.3363 36.1749 30.5673" stroke="#FFFEFE" stroke-width="1.5" stroke-linecap="round" stroke-linejoin="round"/>
<path d="M23.6055 10.5888C19.198 5.3921 11.4222 2.38957 5.59036 7.18206C4.55103 8.02893 3.72341 8.93353 3.06901 9.89588C-0.895862 15.6122 1.29829 23.0608 5.76359 28.3537L8.01549 30.8943" stroke="#FFFEFE" stroke-width="1.5" stroke-linecap="round" stroke-linejoin="round"/>
</svg>
