<svg viewBox="0 0 47 49" fill="none" xmlns="http://www.w3.org/2000/svg">
<path d="M26.1677 23.1299L25.2451 23.7641C23.919 24.6867 22.1315 24.6867 20.8054 23.7641L19.8828 23.1299" stroke="currentColor" stroke-width="1.5" stroke-linecap="round" stroke-linejoin="round"/>
<path d="M34.3265 28.4912C34.2496 28.2798 34.1631 28.0684 34.067 27.857C33.8556 27.3573 33.5865 26.8864 33.2598 26.4443" stroke="currentColor" stroke-width="1.5" stroke-linecap="round" stroke-linejoin="round"/>
<path d="M12.7913 26.4736C12.4646 26.8965 12.1955 27.3577 11.9841 27.8574C11.888 28.0689 11.8015 28.2803 11.7246 28.4917" stroke="currentColor" stroke-width="1.5" stroke-linecap="round" stroke-linejoin="round"/>
<path d="M6.82227 33.5085V28.4922H20.5163C21.9001 28.4922 23.0244 29.4436 23.0244 30.5679V44.8385V47.7503C23.0244 46.5971 21.9001 45.6746 20.5163 45.6746H6.82227V44.8385V38.7267" stroke="currentColor" stroke-width="1.5" stroke-linecap="round" stroke-linejoin="round"/>
<path d="M39.2276 33.5085V28.4922H25.5336C24.1497 28.4922 23.0254 29.4436 23.0254 30.5679V44.8385V47.7503C23.0254 46.5971 24.1497 45.6746 25.5336 45.6746H39.2276V44.8385V38.7267" stroke="currentColor" stroke-width="1.5" stroke-linecap="round" stroke-linejoin="round"/>
<path d="M19.9692 39.5046H9.87891V32.499H19.9692V39.5046Z" stroke="currentColor" stroke-width="1.5" stroke-linecap="round" stroke-linejoin="round"/>
<path d="M12.7324 34.9209H17.1145" stroke="currentColor" stroke-width="1.5" stroke-linecap="round" stroke-linejoin="round"/>
<path d="M12.7324 37.1113H15.3559" stroke="currentColor" stroke-width="1.5" stroke-linecap="round" stroke-linejoin="round"/>
<path d="M40.3239 39.0149C39.0554 39.0149 38.0176 37.9771 38.0176 36.7086V35.5554C38.0176 34.2869 39.0554 33.249 40.3239 33.249C41.5924 33.249 42.0537 34.2869 42.0537 35.5554V36.7086C42.0537 37.9771 41.5924 39.0149 40.3239 39.0149Z" stroke="currentColor" stroke-width="1.5" stroke-linecap="round" stroke-linejoin="round"/>
<path d="M5.72782 39.0149C4.45932 39.0149 3.99805 37.9771 3.99805 36.7086V35.5554C3.99805 34.2869 4.45932 33.249 5.72782 33.249C6.99631 33.249 8.03418 34.2869 8.03418 35.5554V36.7086C8.03418 37.9771 6.99631 39.0149 5.72782 39.0149Z" stroke="currentColor" stroke-width="1.5" stroke-linecap="round" stroke-linejoin="round"/>
<path d="M23.0257 2.54541C18.7013 -0.62584 10.3119 4.33283 14.5498 18.4305C16.1355 23.7351 9.79297 25.8396 9.79297 25.8396C9.79297 25.8396 19.8545 29.0109 20.9212 19.4971" stroke="currentColor" stroke-width="1.5" stroke-linecap="round" stroke-linejoin="round"/>
<path d="M23.0254 2.54541C27.3498 -0.62584 35.7392 4.33283 31.5013 18.4305C29.9156 23.7351 36.2581 25.8396 36.2581 25.8396C36.2581 25.8396 26.1966 29.0109 25.1299 19.4971" stroke="currentColor" stroke-width="1.5" stroke-linecap="round" stroke-linejoin="round"/>
<path d="M29.2796 11.1943C29.2796 15.0287 26.4831 20.1315 23.0236 20.1315C19.564 20.1315 16.7676 15.0287 16.7676 11.1943" stroke="currentColor" stroke-width="1.5" stroke-linecap="round" stroke-linejoin="round"/>
<path d="M15.7891 10.9631C19.6234 10.9631 22.0162 7.35938 22.0162 7.35938C22.0162 7.35938 25.3604 10.9631 30.6074 10.9631" stroke="currentColor" stroke-width="1.5" stroke-linecap="round" stroke-linejoin="round"/>
</svg>
