<svg  viewBox="0 0 16 16" fill="none" xmlns="http://www.w3.org/2000/svg">
<path d="M4.48157 15.8401C3.44717 15.8401 2.47837 15.3961 1.77917 14.6881C0.423167 13.3153 0.0455668 10.9193 1.94637 8.99525L9.74477 1.09925C10.5352 0.299251 11.5408 -0.0103487 12.5032 0.251251C13.4496 0.507251 14.224 1.29205 14.4776 2.24965C14.7352 3.22565 14.4304 4.24405 13.6408 5.04405L6.18237 12.5961C5.75677 13.0273 5.27517 13.2825 4.79197 13.3337C4.31277 13.3849 3.85597 13.2297 3.53597 12.9057C2.95677 12.3169 2.87357 11.2121 3.83837 10.2361L9.07677 4.93205C9.29197 4.71445 9.64077 4.71445 9.85597 4.93205C10.0712 5.14965 10.0712 5.50325 9.85597 5.72085L4.61677 11.0257C4.16397 11.4833 4.12237 11.9209 4.31517 12.1169C4.39997 12.2017 4.52797 12.2409 4.67597 12.2241C4.90237 12.2009 5.16077 12.0513 5.40317 11.8073L12.8616 4.25605C13.3736 3.73765 13.5696 3.12805 13.4136 2.54005C13.3356 2.25251 13.1846 1.98999 12.9754 1.77793C12.7661 1.56587 12.5056 1.41145 12.2192 1.32965C11.6384 1.17205 11.0352 1.37125 10.5232 1.88965L2.72477 9.78565C1.27197 11.2569 1.61997 12.9505 2.55757 13.9001C3.49597 14.8497 5.16717 15.2033 6.62077 13.7305L14.4192 5.83445C14.47 5.78274 14.5307 5.74166 14.5975 5.71363C14.6644 5.68559 14.7362 5.67115 14.8088 5.67115C14.8813 5.67115 14.9531 5.68559 15.02 5.71363C15.0869 5.74166 15.1475 5.78274 15.1984 5.83445C15.3019 5.93978 15.3599 6.08156 15.3599 6.22925C15.3599 6.37694 15.3019 6.51872 15.1984 6.62405L7.39997 14.5201C6.48077 15.4497 5.45117 15.8401 4.48157 15.8401Z" fill="currentColor"/>
</svg>
