<svg viewBox="0 0 30 30" fill="black" xmlns="http://www.w3.org/2000/svg">
    <path d="M29.92 8.25c0-3.59-2.6-5.9-6.63-5.9a.82.82 0 0 0-.59.24.85.85 0 0 0 0 1.2c.16.15.37.24.59.24 1.5 0 4.97.41 4.97 4.22 0 2.43-1.53 3.52-3.36 3.96-.14-.06-.27-.13-.42-.16-2.9-.74-3.68.42-8.65.42-3.45 0-4.5-3.72-5.66-6-.3-1.72-1.13-4.97-1.8-4.97-.5 0-1.16 1.71-1.6 3.43-.54-1.3-1.25-2.59-1.71-2.59-.59 0-1.18 2.13-1.47 3.97C2.04 7.4.92 8.95.92 10.78c0 2.53 5.8 4.22 5.8 4.22 1.75.93 2.27 2.33 2.73 3.6 1.71 5.4 1.5 9.9 2.65 9.9s2.07-2.83 2.07-6.33v-.53c2.6-.08 5.6-.9 8.1-.24 1.13 3.79 1.4 7.1 2.26 7.1.8 0 1.48-3.2 1.83-6.31.03-.12.05-.26.05-.42v-.1l.08-.8.42-4.71c0-.94-.2-1.87-.62-2.62a5.29 5.29 0 0 0 3.63-5.29Z" fill="currentColor"/>
    <path d="M6.75 9.1c0 .22-.09.43-.24.6a.83.83 0 0 1-1.18 0 .85.85 0 0 1 0-1.2.83.83 0 0 1 1.18 0c.15.16.24.37.24.6Zm-4.17.31c-.83.53-.83 2.22-1.25 2.22-.41 0-1.25-1-1.25-2.22 0-1.22 3.53-.65 2.5 0Z" fill="currentColor"/>
</svg>