<svg viewBox="0 0 30 30" fill="none" xmlns="http://www.w3.org/2000/svg">
    <path d="M22.12 13.22h-1.5a.38.38 0 1 0 0 .75h.75v.75a.37.37 0 0 0 .75 0v-.75a1.13 1.13 0 0 0 1.13-1.13v-.75a1.12 1.12 0 0 0-1.13-1.12h-.75a.37.37 0 0 1-.37-.38v-.75a.38.38 0 0 1 .37-.37h1.5a.37.37 0 0 0 0-.75h-.75v-.75a.37.37 0 1 0-.75 0v.75a1.12 1.12 0 0 0-1.12 1.12v.75a1.13 1.13 0 0 0 1.12 1.13h.75a.37.37 0 0 1 .38.37v.75a.37.37 0 0 1-.38.38Zm3.57 5.7-7.7.64v-.92a2.6 2.6 0 0 0-1.86-2.51l-5.67-1.7a1.13 1.13 0 0 0-1.09-.84h-6a.38.38 0 0 0-.37.38v8.25a.37.37 0 0 0 .37.37h6a1.12 1.12 0 0 0 1.02-.65l5.99 1.8a4.1 4.1 0 0 0 2.49-.04l7.3-2.44a1.2 1.2 0 0 0-.48-2.34ZM7.5 21.84H3.76v-7.5H7.5v7.5Zm2.26-.37a.37.37 0 0 1-.38.37H8.25v-7.5h1.12a.38.38 0 0 1 .38.38v6.75Zm16.19-.92-7.3 2.43c-.67.23-1.38.24-2.05.04l-6.1-1.83v-5.97l5.42 1.62a1.87 1.87 0 0 1 1.34 1.8v.77L14 18.11a.37.37 0 0 0-.52.36.37.37 0 0 0 .25.34l3.75 1.5.06.01.08.02h.03l8.1-.68a.45.45 0 0 1 .18.88Zm-4.2-3.96a5.25 5.25 0 1 0 0-10.5 5.25 5.25 0 0 0 0 10.5Zm0-9.75a4.5 4.5 0 1 1 0 9 4.5 4.5 0 0 1 0-9Z" fill="currentColor"/>
</svg>