<svg viewBox="0 0 24 24" fill="none" xmlns="http://www.w3.org/2000/svg">
    <path d="M16.23 11.5a.3.3 0 0 1-.28-.35.3.3 0 0 1 .23-.24.29.29 0 0 1 .3.13.3.3 0 0 1-.25.46ZM19.32 1l-2.7 1.52c-.1.05-.22.06-.32.04-.02 0-1.9-.47-3.33.49-.87.58-1.42 1.58-1.64 2.96-.32 2.04-.4 2.7-.44 3-.05.34-.05.36-.2 1.12-.34 1.7-.02 2.41.2 2.68a.86.86 0 0 0 .7.3c.86.01 1.64-.17 1.64-2.28 0-2.34-.05-4.85-.05-4.88a.43.43 0 0 1 .42-.44.43.43 0 0 1 .43.42c0 .03.04 2.04.05 4.13l1.42.41c.32-2.2 1.77-3.41 2.87-4.33.46-.34.87-.75 1.2-1.21.87-1.43.78-2.75-.26-3.93Zm-.75 20.49a.43.43 0 0 1-.34-.25c-.12-.24-2.74-5.89-2.8-9.75v-.14l-1.35-.39c-.03 2.09-.8 3.02-2.49 3.02l-.17-.02c-.1.48-.28.93-.54 1.34-.09.13-1.73 2.41-2.46 3.19a3.45 3.45 0 0 0-.59 3.65H6.4a1.62 1.62 0 0 1-1.56-.98c-.32-.76-.06-1.68.7-2.47a.43.43 0 0 0-.32-.73.43.43 0 0 0-.3.13c-1 1.05-1.33 2.32-.87 3.4A2.5 2.5 0 0 0 6.4 23h8.9c.07-.4-.01-.82-.23-1.16a.76.76 0 0 0-.62-.24h-2.11a.43.43 0 0 1-.41-.33.43.43 0 0 1 .21-.48 2.16 2.16 0 0 0 1.1-1.43 1.78 1.78 0 0 0-1-2.09.43.43 0 0 1 .3-.8 2.62 2.62 0 0 1 1.55 3.04c-.1.45-.3.87-.58 1.23h.94a1.6 1.6 0 0 1 1.27.54c.37.5.52 1.12.44 1.73h3.34c.08-.38.02-.78-.16-1.12a.98.98 0 0 0-.76-.4Z" fill="currentColor"/>
</svg>