<svg viewBox="0 0 30 30" fill="none" xmlns="http://www.w3.org/2000/svg">
    <path d="M25.91 17.43a1.21 1.21 0 0 0-1.21 1.2v4.86a1.21 1.21 0 0 1-1.21 1.21H6.5a1.21 1.21 0 0 1-1.21-1.21v-4.85a1.21 1.21 0 1 0-2.42 0v4.85a3.64 3.64 0 0 0 3.63 3.64H23.5a3.64 3.64 0 0 0 3.64-3.64v-4.85a1.21 1.21 0 0 0-1.22-1.21ZM14.14 19.5c.11.1.25.2.4.25a1.14 1.14 0 0 0 .92 0c.15-.05.29-.14.4-.25l4.85-4.85A1.22 1.22 0 0 0 19 12.93l-2.78 2.79V4.09a1.21 1.21 0 1 0-2.42 0v11.63L11 12.92a1.22 1.22 0 0 0-1.72 1.73l4.85 4.85Z" fill="currentColor"/>
</svg>
