<svg  viewBox="0 0 24 20" fill="none" xmlns="http://www.w3.org/2000/svg">
<path d="M1.5 3.21429H22.5C23.4 3.21429 24 2.67143 24 1.85714C24 1.04286 23.4 0.5 22.5 0.5H1.5C0.6 0.5 0 1.04286 0 1.85714C0 2.67143 0.6 3.21429 1.5 3.21429ZM1.5 11.3571H22.5C23.4 11.3571 24 10.8143 24 10C24 9.18571 23.4 8.64286 22.5 8.64286H1.5C0.6 8.64286 0 9.18571 0 10C0 10.8143 0.6 11.3571 1.5 11.3571ZM1.5 19.5H22.5C23.4 19.5 24 18.9571 24 18.1429C24 17.3286 23.4 16.7857 22.5 16.7857H1.5C0.6 16.7857 0 17.3286 0 18.1429C0 18.9571 0.6 19.5 1.5 19.5Z" fill="currentColor"/>
</svg>
