<svg viewBox="0 0 30 30" fill="none" xmlns="http://www.w3.org/2000/svg">
    <mask id="a" fill="#fff">
    <path d="M1.12 10.13A7.79 7.79 0 0 1 15.24 5.6a7.77 7.77 0 0 1 13.9 6.3c-1.07 6.72-8.54 13.81-13.9 15.76C9.88 25.7 2.4 18.62 1.34 11.9a7.7 7.7 0 0 1-.22-1.77Z"/></mask><path d="m15.24 5.6-.72.52.72 1 .72-1-.72-.52Zm13.9 6.3-.85-.2v.03l-.01.03.87.14Zm-13.9 15.76-.3.83.3.1.3-.1-.3-.83ZM1.34 11.9l.86-.14v-.03l-.01-.03-.86.2ZM2 10.13a6.9 6.9 0 0 1 6.9-6.9V1.45a8.67 8.67 0 0 0-8.66 8.67H2Zm6.9-6.9a6.9 6.9 0 0 1 5.62 2.89l1.44-1.03A8.66 8.66 0 0 0 8.9 1.46v1.76Zm7.06 2.89a6.9 6.9 0 0 1 5.6-2.9V1.46a8.66 8.66 0 0 0-7.04 3.63l1.44 1.03Zm5.6-2.9a6.9 6.9 0 0 1 6.92 6.91h1.76a8.67 8.67 0 0 0-8.67-8.67v1.76Zm6.92 6.91a6.9 6.9 0 0 1-.19 1.57l1.72.4c.14-.63.23-1.28.23-1.97h-1.76Zm-.2 1.63c-.5 3.12-2.52 6.42-5.13 9.2-2.6 2.8-5.7 4.96-8.21 5.87l.6 1.66c2.84-1.04 6.16-3.4 8.9-6.32 2.74-2.92 5-6.53 5.58-10.13l-1.74-.28ZM15.54 26.83c-2.51-.91-5.6-3.08-8.21-5.86-2.61-2.8-4.63-6.1-5.13-9.2l-1.74.27c.58 3.6 2.84 7.21 5.58 10.13 2.74 2.93 6.05 5.28 8.9 6.32l.6-1.66ZM2.2 11.7A6.8 6.8 0 0 1 2 10.13H.24c0 .69.08 1.34.23 1.97l1.72-.4Z" fill="currentColor" mask="url(#a)"/>
</svg>