<svg width="25" height="22" viewBox="0 0 25 22" fill="none" xmlns="http://www.w3.org/2000/svg">
<path d="M1.04218 6.42522C1.04216 6.42522 1.04215 6.42521 1.04213 6.42521C1.04119 6.42497 1.04049 6.42473 1.04007 6.42458L1.03944 6.42433L1.05376 6.40753L1.04218 6.42522ZM1.04218 6.42522L1.05478 6.40918C1.05724 6.4131 1.0603 6.41762 1.06392 6.42265C1.05759 6.42586 1.05166 6.42623 1.04823 6.4261C1.04572 6.426 1.04365 6.4256 1.04218 6.42522ZM0.0496221 5.45685C0.051927 5.46163 0.0544912 5.4666 0.0573749 5.47179C0.0652772 5.48706 0.0739101 5.50253 0.0831406 5.51807M0.0496221 5.45685L0.049565 5.45673C0.0400106 5.4369 0.0349193 5.42029 0.0299773 5.40416C0.0287202 5.40006 0.0274727 5.39598 0.0261639 5.3919C0.0255621 5.39015 0.0249768 5.38842 0.0244076 5.38669C0.0242944 5.38634 0.0241819 5.386 0.02407 5.38566C0.0168291 5.36346 0.0122225 5.34275 0.00915566 5.32415L0.0217146 5.32151M0.0496221 5.45685L0.0664062 5.44808M0.0496221 5.45685L0.0664062 5.44808M0.0831406 5.51807L0.0953429 5.53779L0.0953982 5.53788L0.097484 5.54125M0.0831406 5.51807L0.0999206 5.50811C0.103816 5.51455 0.107786 5.52095 0.111828 5.5273C0.112493 5.52834 0.113222 5.52948 0.113984 5.53068L0.097484 5.54125M0.0831406 5.51807L0.0997369 5.5078C0.0908597 5.49311 0.0823645 5.47819 0.0742599 5.46305C0.0741712 5.46289 0.0740826 5.46272 0.0739941 5.46255C0.0714254 5.45775 0.068896 5.45293 0.0664062 5.44808M0.097484 5.54125C0.101328 5.54725 0.105841 5.55426 0.108538 5.55779L0.122392 5.54627L0.123715 5.54517M0.097484 5.54125L0.114146 5.53094C0.114251 5.5311 0.114357 5.53127 0.114463 5.53144C0.117769 5.53665 0.121574 5.54264 0.123552 5.54498C0.123608 5.54504 0.123662 5.54511 0.123715 5.54517M0.123715 5.54517L0.122111 5.54658L0.108879 5.55824C0.10943 5.55894 0.10989 5.55947 0.110234 5.55978L0.116352 5.56717L0.131617 5.55466M0.123715 5.54517L0.125415 5.54721L0.131617 5.55466M0.131617 5.55466L0.116449 5.56728L0.132321 5.58646L0.147555 5.57412M0.131617 5.55466L0.147555 5.57412M0.147555 5.57412L0.13239 5.58654L0.146293 5.60334M0.147555 5.57412L0.161174 5.59093L0.146293 5.60334M0.146293 5.60334L0.148617 5.60613M0.146293 5.60334L0.161216 5.59099L0.162963 5.59314L0.148617 5.60613M0.148617 5.60613L0.148682 5.6062L0.149414 5.60701L0.166347 5.62572M0.148617 5.60613L0.163459 5.59376L0.163691 5.59404L0.179947 5.61194L0.166347 5.62572M0.166347 5.62572L0.167862 5.62721L0.16842 5.62776L0.171527 5.63083L0.173018 5.6323L0.186668 5.61894M0.166347 5.62572L0.18068 5.61275L0.182086 5.61429L0.184965 5.61722L0.184966 5.61722L0.186668 5.61894M0.186668 5.61894L0.173066 5.63235L0.181887 5.64106L0.182241 5.64141L0.195765 5.62824M0.186668 5.61894L0.195154 5.62762L0.195177 5.62764L0.195765 5.62824M0.195765 5.62824L0.182275 5.64144L0.202738 5.66171M0.195765 5.62824L0.215634 5.64865L0.202738 5.66171M0.202738 5.66171L0.219515 5.67828L0.223638 5.67428L0.209059 5.65905L0.217397 5.65046L0.215653 5.64867L0.202738 5.66171ZM0.0664062 5.44808C0.0570482 5.43017 0.0521708 5.41553 0.0473961 5.40119C0.0457866 5.39636 0.0441887 5.39156 0.0424348 5.38669C0.0423929 5.38657 0.042351 5.38645 0.0423089 5.38634C0.0416252 5.38444 0.0409173 5.38254 0.0401755 5.38061C0.0379537 5.37352 0.0354967 5.36661 0.0330918 5.35985C0.0283806 5.3466 0.0238688 5.33391 0.0217146 5.32151M0.0217146 5.32151C0.0181368 5.30447 0.0147944 5.28863 0.0115357 5.27428L0.00345275 5.27489M0.0217146 5.32151L0.00908303 5.3237C0.00603898 5.30512 0.00452761 5.28865 0.00345275 5.27489M0.00345275 5.27489L0.0115326 5.27426C0.00765526 5.25718 0.00389627 5.24218 0 5.22974L0.00345275 5.27489ZM1.01456 6.40306C1.01519 6.40585 1.01595 6.40791 1.01632 6.40893L1.01634 6.409C1.01908 6.4165 1.02389 6.4245 1.02842 6.43138C1.02887 6.43206 1.02933 6.43275 1.02979 6.43345C1.02919 6.43329 1.02862 6.43313 1.02807 6.43298C1.01472 6.42926 0.997115 6.42355 0.949224 6.38466C0.912103 6.35451 0.858186 6.30557 0.775715 6.2246L0.786362 6.20937C0.78634 6.20934 0.786317 6.20931 0.786295 6.20929C0.793918 6.20905 0.797017 6.2099 0.799692 6.21103C0.804855 6.21322 0.812468 6.21838 0.829463 6.2339C0.837401 6.24115 0.846828 6.25012 0.858287 6.26103C0.890419 6.29161 0.938526 6.3374 1.01456 6.40306ZM0.21954 5.6783L0.223655 5.6743L0.21954 5.6783Z" stroke="#020202" stroke-width="0.0683594"/>
<path d="M1.48313 6.8632C1.5517 6.94548 1.65106 7.0549 1.78186 7.19219L1.60905 7.07493L1.58986 7.10321L1.57528 7.11565C1.56438 7.10463 1.55336 7.09352 1.54228 7.08235C1.51563 7.05547 1.48865 7.02826 1.46213 7.00125C1.43025 6.96877 1.3989 6.93646 1.3693 6.90508L1.55241 7.04671L1.59724 6.99525C1.57563 6.97409 1.5549 6.95307 1.53449 6.93236C1.49074 6.88799 1.44842 6.84506 1.40189 6.80532C1.40232 6.80559 1.40275 6.80585 1.40318 6.80612C1.40559 6.80762 1.40795 6.80908 1.41029 6.81053C1.43338 6.82482 1.4539 6.83753 1.48313 6.8632ZM2.01614 7.42062C2.02818 7.42999 2.03951 7.43898 2.05035 7.44774L2.04045 7.4464L2.01614 7.42062Z" stroke="#020202" stroke-width="0.0683594"/>
<path d="M1.32193 6.70081L1.31256 6.69165L1.32193 6.70081Z" fill="#202020"/>
<path d="M19.6437 9.19357C19.5665 9.2722 19.553 9.3046 19.5465 9.32061L20.4226 8.44312C20.3846 8.46005 20.119 8.69958 20.2814 8.52453C20.1945 8.58815 19.9753 8.82734 19.9563 8.87476L20.0038 8.79514C19.8224 9.01773 19.6439 9.11528 19.7635 8.97144L19.7467 8.98871L19.2664 9.62734C19.4763 9.42653 19.3973 9.44187 19.6437 9.19357V9.19357Z" fill="#202020"/>
<path d="M1.45081 5.79688C1.56808 5.90684 1.58588 5.917 1.57684 5.9002C1.53602 5.86434 1.49398 5.82987 1.45081 5.79688V5.79688Z" fill="#202020"/>
<path d="M19.1541 9.77686L19.0036 9.97687C19.0672 9.89997 19.1199 9.82945 19.1541 9.77686Z" fill="#202020"/>
<path d="M19.992 8.18614C19.991 8.18448 19.9917 8.18142 19.9853 8.18428L19.9193 8.27559L19.9213 8.27359L19.992 8.18614V8.18614Z" fill="#202020"/>
<path d="M15.269 13.8479L15.2133 13.9071C15.234 13.886 15.2523 13.8664 15.269 13.8479Z" fill="#202020"/>
<path d="M22.2255 5.66943L21.8594 6.08308C21.9002 6.01986 21.7155 6.21131 21.7845 6.11602C21.7566 6.14749 21.6218 6.29126 21.6655 6.25905L21.7444 6.17884C21.5716 6.41723 21.7088 6.30534 21.3929 6.67117C21.624 6.47906 21.6989 6.36843 21.7961 6.24146L21.8936 6.13494L22.1718 5.76493L22.2255 5.66943V5.66943Z" fill="#202020"/>
<path d="M7.06915 11.0423L7.07612 11.044C7.07113 11.041 7.06956 11.0411 7.06915 11.0423Z" fill="#202020"/>
<path d="M7.10355 11.0505L7.07593 11.0439C7.10216 11.0596 7.18742 11.1349 7.10355 11.0505Z" fill="#202020"/>
<path d="M19.1974 9.69112C19.1982 9.70255 19.1831 9.7325 19.1543 9.77679L19.2665 9.62744L19.1974 9.69112Z" fill="#202020"/>
<path d="M19.423 9.32174L19.7468 8.98871L19.8508 8.85059C19.7315 8.98273 19.589 9.13414 19.423 9.32174Z" fill="#202020"/>
<path d="M15.8071 13.3487C15.1319 14.034 15.9355 13.143 15.6136 13.4462C15.4294 13.6396 15.3811 13.7246 15.2691 13.8482C15.7929 13.293 15.2564 13.9817 15.7908 13.4279C15.7466 13.5384 15.4346 13.8565 15.241 14.0321C15 14.2091 15.4001 13.826 15.4162 13.7474C15.2031 13.9709 15.2473 13.9383 15.1725 14.0488C14.8223 14.3842 14.5025 14.7974 14.2534 14.9577C14.0123 15.213 14.044 15.2119 13.9181 15.3715C13.9239 15.4341 14.3051 15.0204 14.424 14.9554C14.4021 14.9715 14.3592 15.0029 14.3651 14.9873L14.5869 14.7799C14.3712 14.9717 14.5809 14.7175 14.6871 14.6059C14.7656 14.526 14.9214 14.3671 14.9093 14.3982L14.7968 14.5254C14.9619 14.3819 15.1123 14.16 15.2938 14.0156C15.3099 14.0148 15.2519 14.08 15.2473 14.0942C15.4065 13.8882 15.584 13.7135 15.8378 13.4266L15.715 13.6173C15.8936 13.3635 16.3939 12.8846 16.753 12.5651C16.7096 12.597 16.6378 12.6607 16.6719 12.6135C16.8631 12.4061 17.0369 12.2789 16.9625 12.3891C17.129 12.1664 17.7279 11.6711 17.9567 11.3692L19.0039 9.97681C18.9604 10.0297 18.9151 10.0811 18.8683 10.1311C18.7276 10.2122 18.6715 10.2755 18.8377 10.0531C18.6626 10.2596 18.7594 10.2107 18.4741 10.4986C18.5715 10.3711 18.5657 10.3085 18.2876 10.5796C17.631 11.2957 17.2609 11.8354 16.6632 12.5196C16.6165 12.5204 16.1197 13.0301 15.8697 13.2693C15.9384 13.1513 16.1129 12.9627 16.2963 12.7693C16.1773 12.8868 15.9723 13.0889 15.8203 13.2387L15.8071 13.3487V13.3487Z" fill="#202020"/>
<path d="M17.3236 11.6777C17.3043 11.6929 17.2854 11.7095 17.2661 11.7265C17.2777 11.7188 17.2951 11.7044 17.3236 11.6777Z" fill="#202020"/>
<path d="M16.3544 12.7126C16.3559 12.7094 16.3544 12.7096 16.3543 12.7078L16.2963 12.7693C16.3167 12.7493 16.3399 12.7268 16.3544 12.7126V12.7126Z" fill="#202020"/>
<path d="M18.9846 9.79991C19.0188 9.7527 19.0471 9.72062 19.0812 9.67334L19.0004 9.76618C18.9746 9.79818 18.964 9.81498 18.9846 9.79991V9.79991Z" fill="#202020"/>
<path d="M19.1623 9.70322L19.1499 9.73443L19.1972 9.69113C19.1969 9.68131 19.1876 9.6821 19.1623 9.70322V9.70322Z" fill="#202020"/>
<path d="M13 15.7402L12.9399 15.8105C12.9787 15.7707 12.9936 15.7517 13 15.7402Z" fill="#202020"/>
<path d="M15.0103 14.0675C15.2446 13.8287 15.0043 14.0049 15.3388 13.6701L15.2385 13.7663C15.4639 13.5115 15.8926 13.0962 16.1767 12.8097C16.1582 12.8556 16.3663 12.6534 16.3542 12.7079C16.5442 12.5079 16.7326 12.3101 16.8112 12.1877C16.9393 12.074 17.1035 11.8712 17.2662 11.7267C17.1885 11.7787 17.4415 11.4647 17.0834 11.8542C17.1118 11.8223 17.0899 11.8382 17.118 11.8066C16.8592 12.0295 16.793 12.1565 16.586 12.3643C16.4493 12.4756 16.7684 12.141 16.6463 12.253C16.399 12.5238 15.8181 13.0506 15.883 13.0811C15.6978 13.273 15.6613 13.2885 15.5964 13.3359C15.3489 13.685 14.4679 14.4209 14.5355 14.483C14.6418 14.3715 14.8206 14.1956 14.9664 14.0219L15.0103 14.0675Z" fill="#202020"/>
<path d="M18.5906 10.2007L18.5439 10.2461L18.5906 10.2007Z" fill="#202020"/>
<path d="M21.7639 7.40353L21.7074 7.54485C21.1543 8.11826 20.9387 8.30998 20.4478 8.80424C20.4044 8.83605 20.4604 8.77263 20.4889 8.74049C20.1475 9.09165 19.6205 9.60085 19.388 9.87239C19.2775 9.98222 18.9748 10.2579 19.0718 10.136C19.0219 10.1933 18.9642 10.2583 18.9012 10.3186C18.8697 10.3197 19.0349 10.1762 19.0259 10.1602C18.9761 10.2081 18.954 10.2241 18.9476 10.2402C19.0167 10.1449 18.8106 10.2738 19.1951 9.89124C19.3792 9.77835 18.9332 10.1614 19.0602 10.113C19.1877 9.98601 19.1577 9.98561 19.1638 9.96994C19.3268 9.8087 19.3324 9.82285 19.3327 9.84044C19.3827 9.76614 19.6035 9.5792 19.6708 9.47488C19.983 9.15659 19.6832 9.52156 19.8886 9.31517L19.9675 9.15666L20.3174 8.82184C20.799 8.31224 20.1778 8.82396 20.7218 8.23494C20.668 8.33017 20.9302 8.13785 21.2021 7.88246C21.0458 8.04163 20.7802 8.35919 20.5647 8.55103C20.883 8.2951 20.1733 8.94994 20.358 8.83658C20.483 8.6778 20.7172 8.43901 20.9109 8.26363L20.8541 8.32778C21.0546 8.13579 21.1614 7.94561 21.448 7.69081C21.5813 7.55501 21.5674 7.5914 21.553 7.6244C21.6608 7.50467 21.7548 7.3951 21.7639 7.40353V7.40353ZM21.4791 7.70502L21.2952 7.88106C21.3444 7.84494 21.4113 7.77753 21.4791 7.70502Z" fill="#202020"/>
<path d="M4.11231 9.61552L4.06091 9.55762C4.07101 9.57143 4.09086 9.59294 4.11231 9.61552Z" fill="#202020"/>
<path d="M20.5683 9.37598L20.4627 9.47891C20.4986 9.44534 20.5338 9.41103 20.5683 9.37598V9.37598Z" fill="#202020"/>
<path d="M18.3598 11.8474L18.2169 12.009C18.2673 11.9577 18.315 11.9037 18.3598 11.8474V11.8474Z" fill="#202020"/>
<path d="M5.35272 10.8613L5.35771 10.8669L5.38465 10.8894L5.35272 10.8613Z" fill="#202020"/>
<path d="M13.5738 16.4473C13.5473 16.4671 13.5182 16.4902 13.4802 16.5234C13.4884 16.5231 13.5229 16.4941 13.5738 16.4473Z" fill="#202020"/>
<path d="M18.3868 11.8176L18.3766 11.8264L18.3597 11.8483L18.3868 11.8176V11.8176Z" fill="#202020"/>
<path d="M21.7151 8.46135L21.7778 8.39062C21.7472 8.4229 21.7294 8.44362 21.7151 8.46135Z" fill="#202020"/>
<path d="M21.4552 8.49555C21.4782 8.47052 21.5 8.44635 21.5161 8.42676L21.4552 8.49555Z" fill="#202020"/>
<path d="M23.2997 4.75537L23.1652 4.90146C23.2335 4.8318 23.2723 4.78838 23.2997 4.75537Z" fill="#202020"/>
<path d="M21.8528 8.15101C21.8593 8.14075 21.8659 8.1305 21.8696 8.12305C21.8509 8.14431 21.8438 8.1562 21.8528 8.15101Z" fill="#202020"/>
<path d="M3.33923 8.60474L3.34812 8.61335L3.3566 8.61219L3.33923 8.60474V8.60474Z" fill="#202020"/>
<path d="M2.93974 8.32166L2.81317 8.20166C2.85396 8.24311 2.89618 8.28313 2.93974 8.32166V8.32166Z" fill="#202020"/>
<path d="M11.0266 16.5087C10.9952 16.4658 10.9149 16.3717 10.9621 16.4058C10.8827 16.343 10.8673 16.3679 11.0266 16.5087Z" fill="#202020"/>
<path d="M4.27237 9.03996C4.24467 9.02296 4.21273 8.99925 4.18073 8.97534C4.2385 9.02156 4.28883 9.06227 4.27237 9.03996Z" fill="#202020"/>
<path d="M4.18071 8.97527L4.09564 8.9082C4.12499 8.93237 4.15368 8.95502 4.18071 8.97527Z" fill="#202020"/>
<path d="M12.1962 16.9453C12.2037 16.9515 12.2158 16.9533 12.2324 16.9529C12.2268 16.9438 12.2142 16.9457 12.1962 16.9453V16.9453Z" fill="#202020"/>
<path d="M2.71984 8.09551C2.68823 8.08283 2.13148 7.56725 2.57753 8.02313C2.53058 8.03528 2.27452 7.74748 2.14702 7.63452C2.22744 7.72875 2.08467 7.61002 2.1006 7.64707C2.16382 7.70312 2.24318 7.76554 2.33967 7.86621C2.37147 7.92498 2.21276 7.7846 2.101 7.66281C2.2293 7.82225 1.89501 7.50363 2.08672 7.71926C2.53244 8.14419 2.85086 8.44116 3.20016 8.70413C2.94489 8.46307 2.65848 8.19426 2.46683 7.97884L2.57793 8.03887C2.78552 8.29141 2.94429 8.41659 3.16815 8.64522L2.67349 8.1234C2.45667 7.86402 2.62083 8.01842 2.81314 8.2015C2.76732 8.15508 2.72708 8.11178 2.71984 8.09551V8.09551Z" fill="#202020"/>
<path d="M3.28769 8.21471L3.27969 8.20521C3.27108 8.19844 3.26096 8.18955 3.25494 8.18579L3.28769 8.21471Z" fill="#202020"/>
<path d="M23.8425 5.24648L23.8085 5.2998C23.8406 5.25903 23.8488 5.24475 23.8425 5.24648Z" fill="#202020"/>
<path d="M3.46616 8.64072L3.46582 8.64038C3.46965 8.64359 3.47047 8.64448 3.46616 8.64072Z" fill="#202020"/>
<path d="M23.5068 5.56125C23.5077 5.55899 23.5085 5.5566 23.5105 5.55298C23.5073 5.55783 23.508 5.55858 23.5068 5.56125Z" fill="#202020"/>
<path d="M23.767 6.40258C23.7702 6.40176 23.772 6.40224 23.7781 6.39862C23.8005 6.37326 23.7877 6.38358 23.767 6.40258Z" fill="#202020"/>
<path d="M23.5083 5.56432C23.5075 5.5635 23.506 5.56343 23.5068 5.56104C23.5068 5.56274 23.5056 5.56555 23.5083 5.56432Z" fill="#202020"/>
<path d="M18.3198 10.9401C18.3198 10.9401 18.3409 10.9278 18.3714 10.9057C18.3793 10.8932 18.3663 10.9006 18.3198 10.9401Z" fill="#202020"/>
<path d="M19.4005 9.93569L19.4231 9.91895L19.4005 9.93569Z" fill="#202020"/>
<path d="M11.1581 16.8704C11.1987 16.9117 11.2401 16.9523 11.2824 16.992C11.2422 16.9502 11.2007 16.9096 11.1581 16.8704V16.8704Z" fill="#202020"/>
<path d="M23.5101 5.55284C23.5184 5.53923 23.531 5.52096 23.5532 5.49194C23.5287 5.52382 23.5166 5.54155 23.5101 5.55284Z" fill="#202020"/>
<path d="M16.8591 12.6588L16.8883 12.624L16.868 12.6418L16.8591 12.6588V12.6588Z" fill="#202020"/>
<path d="M16.2965 13.1842C16.3122 13.1627 16.3176 13.1512 16.3255 13.1382C16.1419 13.343 15.7736 13.6882 15.7585 13.7576C15.8238 13.691 16.1814 13.3653 16.1391 13.4395C16.2677 13.2973 16.4868 13.1162 16.5552 13.0389C16.3182 13.2463 16.5083 13.04 16.6492 12.8808C16.7936 12.7522 16.6453 12.9283 16.7679 12.8158L17.0806 12.4971L16.8021 12.7685L16.8594 12.6588L16.8339 12.6894C16.3806 13.1669 16.756 12.6907 16.2965 13.1842V13.1842Z" fill="#202020"/>
<path d="M16.3253 13.1381C16.3527 13.1073 16.3764 13.0798 16.3934 13.0571C16.35 13.1014 16.3356 13.1211 16.3253 13.1381Z" fill="#202020"/>
<path d="M14.3813 14.9961L14.303 15.0826L14.3813 14.9961Z" fill="#202020"/>
<path d="M20.0884 8.62159C20.1042 8.62113 20.3913 8.36586 20.3663 8.35059L20.117 8.58719L20.0884 8.62159Z" fill="#202020"/>
<path d="M9.15759 14.3574C9.18714 14.3882 9.21723 14.4188 9.24784 14.4487L9.26862 14.4633C9.25308 14.4418 9.18967 14.3858 9.15759 14.3574Z" fill="#202020"/>
<path d="M16.0646 13.5326C16.1112 13.4798 16.1301 13.4545 16.1389 13.4395C16.1083 13.4733 16.0812 13.5055 16.0646 13.5326Z" fill="#202020"/>
<path d="M9.18822 14.2926C9.15548 14.2484 9.1076 14.183 9.10721 14.1672C9.02865 14.0883 8.9629 14.0437 8.87897 13.9673C8.97233 14.0548 9.07493 14.1614 9.18822 14.2926Z" fill="#202020"/>
<path d="M8.87195 13.9612L8.87906 13.9675L8.87195 13.9612Z" fill="#202020"/>
<path d="M19.9187 8.77444L19.8509 8.85074L19.883 8.80784L19.6904 8.98827C19.6693 9.01204 19.6461 9.03761 19.6169 9.06829C19.6282 9.05547 19.6354 9.04398 19.639 9.03601L19.5769 9.09345C19.4492 9.26272 19.0948 9.64755 19.0004 9.76635C18.8683 9.91629 18.7007 10.094 18.5907 10.2007C18.6916 10.1008 18.8206 9.96338 18.7691 9.99186C18.5534 10.1836 18.4198 10.2482 18.0978 10.6296L18.3036 10.4228L17.8845 10.9312C17.7035 11.0752 18.0936 10.6775 18.142 10.5971C17.8032 10.9798 17.4445 11.221 17.316 11.4268C17.2695 11.4275 17.1918 11.4287 16.9574 11.6677C17.1542 11.5232 16.8322 11.8264 17.0003 11.7144C16.9317 11.8093 16.728 11.9701 16.7316 12.0009L16.7442 11.9692C16.3037 12.337 16.2283 12.5262 16.0742 12.7178C15.5996 13.211 15.3625 13.4184 14.9717 13.8169C14.9409 13.8171 14.7911 13.8822 14.6344 14.0422C14.5816 14.1366 14.2341 14.5034 14.2243 14.5665C14.5185 14.2945 14.4335 14.3126 14.5967 14.1369C14.7657 14.0237 14.6371 14.1517 14.8464 13.9757C14.6801 14.1203 14.1585 14.6928 13.962 14.8369L14.0185 14.7732C13.7307 15.0291 13.6129 15.0152 13.1999 15.5078L13.0001 15.7403C13.0079 15.7272 13.006 15.7229 13.0092 15.715C12.8309 15.8904 12.7584 15.9464 12.6845 16.0104C12.6386 16.0499 12.5946 16.0915 12.5526 16.1351C12.4963 16.1923 12.4251 16.2687 12.3172 16.3885C12.3505 16.3515 12.3284 16.3677 12.3618 16.3308C12.3081 16.3784 12.2559 16.4278 12.2055 16.4789C12.1104 16.3847 12.0156 16.3001 11.9216 16.2173L11.7832 16.0956L11.6694 15.9937C11.5888 15.8687 11.7156 15.9962 11.7952 16.0437C11.4122 15.6435 10.9515 15.259 10.6813 15.0429L10.4419 14.7775C10.6008 14.918 10.8071 15.0776 10.7749 15.0185C10.6316 14.8841 10.648 14.9215 10.4559 14.7209C10.5036 14.7402 10.5992 14.8093 10.7094 14.8837C10.3272 14.454 10.5683 14.8434 10.3277 14.5157C10.2004 14.3878 10.1056 14.3344 10.0745 14.3376L9.86577 14.0841C9.81822 14.0802 9.53168 13.7961 9.34142 13.6125C9.30921 13.599 9.46866 13.7863 9.54795 13.8487C9.51687 13.852 9.30988 13.6611 9.18225 13.5328C9.18118 13.4401 8.33802 12.7018 8.54322 12.7991C7.95366 12.2394 7.14178 11.4367 6.74334 11.0765C6.63092 10.9388 6.37665 10.6833 6.55097 10.8146C6.08858 10.3518 5.80303 10.1602 5.35638 9.68859C5.32411 9.64482 5.56437 9.89571 5.5633 9.86416C5.24489 9.5824 5.0367 9.29872 4.55878 8.84536C4.63793 8.92286 4.67027 8.93627 4.68588 8.94238C4.68648 8.95812 4.47936 8.7674 4.35152 8.65431C4.28777 8.58266 4.44721 8.73898 4.41507 8.69515C3.53785 7.77343 2.79025 7.15041 1.89768 6.25372C2.15255 6.50979 2.27952 6.57606 2.29466 6.56636L2.0449 6.31555C1.93327 6.23427 1.74541 6.04627 1.57694 5.90051C1.56332 5.87554 1.49307 5.79293 1.5782 5.86379C1.34638 5.60122 1.13945 5.42198 0.916727 5.23073L0.746129 5.08351L0.724348 5.06472L0.706816 5.0535C0.695461 5.04579 0.684902 5.03689 0.671289 5.03311C0.646234 5.02121 0.619147 5.01418 0.591469 5.01239C0.563578 5.0104 0.534692 5.01305 0.507266 5.02175C0.494449 5.027 0.477316 5.03005 0.470742 5.03656C0.466226 5.03922 0.461445 5.04134 0.456332 5.04314L0.452281 5.04453L0.445574 5.05018L0.432094 5.06147L0.404734 5.08424L0.401281 5.0871L0.400883 5.08743C0.418414 5.07156 0.405597 5.08325 0.409449 5.07973L0.409051 5.08032L0.408187 5.08152L0.404734 5.08623L0.397629 5.0954L0.382355 5.11333C0.379022 5.12054 0.375434 5.12762 0.371597 5.13458C0.361238 5.14959 0.361039 5.16041 0.355262 5.17137C0.351809 5.17396 0.350348 5.18823 0.348953 5.20172L0.344238 5.24129L0.344769 5.19654C0.345101 5.19049 0.344371 5.17927 0.345633 5.17528C0.346894 5.17117 0.347957 5.16679 0.34882 5.16181C0.349745 5.15633 0.350344 5.15081 0.350613 5.14527L0.359379 5.12322C0.363629 5.10642 0.374121 5.09141 0.385078 5.07468L0.389062 5.06817L0.391055 5.06485L0.392051 5.06319L0.392316 5.06279L0.392449 5.06259L0.385543 5.06877L0.386539 5.06784L0.402145 5.0527L0.434351 5.02175C0.46025 5.00336 0.508062 4.97746 0.558797 4.97155C0.610082 4.96753 0.661526 4.97701 0.708012 4.99904C0.729793 5.01305 0.748984 5.02355 0.770898 5.04201L0.831063 5.09294L0.955242 5.198L0.795004 4.99519L1.14543 5.2899C0.966929 5.08145 0.771762 4.9493 0.746726 4.9086C0.762996 4.91298 0.780926 4.92566 0.800316 4.94021L0.829933 4.96259L0.854305 4.98437C0.886113 5.01252 0.914004 5.03523 0.921773 5.03052C0.876418 4.98178 0.847531 4.94698 0.803305 4.91411C0.784379 4.89724 0.763793 4.88761 0.744668 4.87878C0.725609 4.86995 0.708476 4.86112 0.68975 4.8582L0.636226 4.84697L0.579914 4.84564C0.56039 4.84385 0.539738 4.84896 0.517094 4.85202C0.494117 4.85388 0.470344 4.86171 0.443781 4.87101C0.510652 4.83867 0.600965 4.82652 0.692539 4.85295C0.737695 4.86597 0.784512 4.88675 0.824688 4.91929C0.834582 4.92679 0.846734 4.93536 0.854902 4.94253L0.879008 4.96385L0.927883 5.00754C1.06722 5.13337 1.20485 5.26108 1.34073 5.39064L2.09942 6.11832C2.1639 6.1755 2.03607 6.07755 2.02053 6.0715C2.17984 6.22769 2.25986 6.337 2.46658 6.52738C2.60962 6.63098 2.38703 6.41881 2.2912 6.31887C2.32188 6.31515 2.37009 6.36542 2.48166 6.4718C2.48239 6.51842 3.07187 7.07822 3.18437 7.2467C3.77392 7.82184 3.15057 7.09423 3.70911 7.67263L3.85268 7.86866C4.20297 8.17844 4.64783 8.5873 5.01565 8.96635L4.9361 8.88852C4.87248 8.84729 4.95217 8.94085 4.98477 8.98495C5.25578 9.27839 5.54119 9.50013 5.68596 9.69742C6.03572 9.9914 6.593 10.5074 6.97543 10.8611C7.04018 10.9949 6.46603 10.4103 6.29125 10.2787L6.6264 10.6136C6.41888 10.407 6.32392 10.3384 6.18009 10.2339C6.46723 10.5339 6.59406 10.6002 6.8812 10.8698C6.85012 10.8575 6.88154 10.9005 7.00963 11.0291L7.06907 11.0426C7.06953 11.0468 7.08202 11.0628 7.1202 11.1039L7.62947 11.5851C7.53424 11.4702 7.54912 11.4452 7.42148 11.3169C7.45376 11.376 7.34259 11.2702 7.21496 11.1417C7.34213 11.2389 7.1028 11.0042 7.11788 10.9945C7.37387 11.2519 7.69236 11.5641 7.86694 11.7261L7.90047 11.802C8.13973 12.052 8.40987 12.2985 8.56958 12.4705L8.50603 12.4294C8.79304 12.7294 9.09559 13.0047 9.33558 13.2859C9.62152 13.5235 9.97122 13.8329 10.2104 14.0217C10.3521 14.1088 10.9443 14.824 11.2778 15.0807C11.2948 15.1036 11.0546 14.8986 10.9435 14.8082C11.1357 15.0088 11.3256 15.1308 11.3584 15.2212C10.9275 14.771 11.3592 15.2677 11.1526 15.0775C11.3594 15.2832 11.582 15.4955 11.6935 15.5865C11.3594 15.2528 11.8518 15.6653 11.5013 15.3398C11.6374 15.453 11.7919 15.591 11.9489 15.7392L12.1002 15.883C12.1359 15.918 12.1706 15.9543 12.2053 15.9926L12.2269 15.9734C12.2269 15.9982 12.2458 15.9909 12.3097 15.9372C12.311 15.936 12.3468 15.8642 12.3455 15.8654C12.3819 15.8323 12.3531 15.8718 12.3296 15.9067C12.3068 15.9409 12.2893 15.9706 12.3729 15.8934C12.3933 15.8653 12.4014 15.852 12.4545 15.7955C12.5013 15.7452 12.5489 15.6956 12.5973 15.6468L12.9118 15.3346C13.1194 15.1292 13.3024 14.9419 13.3402 14.8473C13.5932 14.6392 12.9242 15.3087 13.2992 14.9887C13.1177 15.2115 12.8153 15.4667 12.7771 15.5617C12.9671 15.3556 12.8734 15.5134 13.0015 15.3859L13.2049 15.1474L13.155 15.1953C13.499 14.7977 14.0992 14.2231 14.5681 13.7451C14.9405 13.3155 15.1753 12.9981 15.6595 12.5201C15.5343 12.679 16.0751 12.1369 15.8031 12.4704C16.0405 12.2626 16.2427 12.0254 16.2347 12.0086C16.0346 12.2001 16.1618 12.0735 15.9907 12.2323C16.087 12.1059 16.3444 11.8499 16.4597 11.7543C16.4097 11.8021 16.4312 11.7864 16.4251 11.8019C16.6691 11.5782 16.5223 11.6749 16.685 11.4996C16.7596 11.4671 17.0637 11.1321 17.2288 10.9887L17.4226 10.7349C17.3194 10.8776 17.6443 10.5277 17.6977 10.5106C17.8443 10.3362 17.9544 10.1773 18.2041 9.93821C18.1134 10.0494 18.4419 9.73016 18.4661 9.74589C18.9037 9.34659 19.1045 8.99836 19.5295 8.63073C19.5219 8.64773 19.455 8.7409 19.5759 8.63007C19.6616 8.53325 19.8237 8.3758 19.9191 8.27599L19.9166 8.27964L19.9211 8.274C19.9678 8.22513 19.9954 8.19259 19.9917 8.18654C20.1392 7.99981 20.2054 7.89369 20.5176 7.54818C20.4705 7.54944 20.2018 7.83592 20.0889 7.96355L20.0077 8.09005C19.8738 8.1548 19.7171 8.3926 19.6299 8.45662C19.7866 8.21882 20.3647 7.66067 20.6806 7.29491C20.4409 7.47075 19.9838 7.9178 19.5933 8.3161L19.7807 8.15613L19.5748 8.36292L19.7989 8.18754C19.5991 8.37879 19.4364 8.55404 19.2583 8.72928C19.4647 8.52196 19.5769 8.47302 19.4548 8.58505C19.2018 8.7931 19.2293 8.83991 19.0517 9.01476C19.152 8.91874 19.2799 8.79157 19.2108 8.88693C18.8359 9.20687 18.7599 9.31864 18.4146 9.60518C18.4919 9.60418 18.0236 10.0037 18.0076 10.0824L18.1574 9.93894L17.8694 10.273C17.5514 10.5289 18.0918 9.98728 17.6331 10.4019C17.2264 10.801 17.2769 10.8307 16.9631 11.1505C17.0447 11.0234 17.2766 10.7528 17.5328 10.4978L17.3671 10.6417C17.4359 10.5467 17.7923 10.1959 17.9701 10.0208C17.7045 10.3383 18.1145 9.89225 18.2675 9.77996C18.2699 9.73368 18.0863 9.92433 18.2897 9.68573C18.083 9.89325 18.0546 9.92532 17.7829 10.1805C18.3623 9.62105 18.2189 9.5925 18.7343 9.11384C18.5151 9.35284 18.8458 9.06556 18.884 9.04863C18.9892 8.9382 19.2027 8.71427 19.2871 8.61891L19.174 8.66872C19.4499 8.36551 19.6175 8.33191 19.9191 7.96508C19.9436 7.90272 19.6188 8.25262 19.6752 8.1888C20.1126 7.71167 20.3283 7.59792 20.7581 7.21568C20.7715 7.18328 20.7468 7.16794 20.8721 7.00923C20.8464 7.07284 20.9613 6.97742 20.8154 7.15114C20.9591 7.02344 21.106 6.84866 21.2183 6.72149C20.9246 6.99296 21.3066 6.57858 21.3473 6.51516C21.497 6.37199 21.3216 6.57872 21.2371 6.67427C21.3598 6.56185 21.5273 6.45015 21.5656 6.35499C21.5902 6.37033 21.2897 6.7361 21.0771 6.95916L21.2271 6.81545C21.1362 6.92688 21.1144 6.94289 20.9655 7.08559C21.1237 6.95836 21.1267 6.98957 21.1077 7.03705C21.0862 7.05286 21.1134 7.02191 21.0927 7.03692C20.9702 7.14921 20.8856 7.2447 20.9234 7.22817C20.8447 7.36058 21.103 7.08214 21.1959 7.016L21.3697 6.83146L21.8934 6.13532C22.1439 5.86471 22.2817 5.76816 22.4905 5.58548L22.5211 5.50864C22.7502 5.28432 22.9714 5.07767 22.8554 5.25218C22.8395 5.25265 22.8114 5.28439 22.7611 5.33254C22.7576 5.34216 22.7485 5.35578 22.736 5.37185C22.7326 5.37796 22.7314 5.38187 22.7288 5.38712L23.124 4.96557C22.7452 5.41129 23.1453 5.028 23.1172 5.1379L23.3187 4.92301L23.3927 4.84412L23.4268 4.80786L23.4802 4.76051L23.4952 4.7475C23.4962 4.74617 23.5024 4.74198 23.508 4.7382L23.524 4.72757C23.545 4.71403 23.5641 4.70294 23.5799 4.69437C23.6119 4.67691 23.6303 4.66914 23.6293 4.67C23.5888 4.68641 23.5498 4.70611 23.5125 4.7289C23.5055 4.73305 23.4986 4.73737 23.4919 4.74185L23.4825 4.74843L23.466 4.75985L23.4411 4.77645L23.4387 4.77791L23.4381 4.77824L23.4166 4.79763L23.4156 4.79843L23.4117 4.80122L23.4057 4.80534C23.3989 4.80952 23.3976 4.80846 23.4002 4.80354C23.4016 4.80109 23.4038 4.7977 23.407 4.79345L23.4095 4.79013L23.4097 4.78993L23.4316 4.77007L23.432 4.76968L23.4328 4.76888L23.4344 4.76715L23.4417 4.75978C23.4526 4.74909 23.4646 4.73727 23.4817 4.72206C23.5234 4.69198 23.5678 4.66575 23.6143 4.6437C23.6544 4.62883 23.6959 4.61468 23.7349 4.60545C23.7703 4.59966 23.8059 4.59518 23.8417 4.59204C23.8501 4.59483 23.8704 4.59994 23.9 4.60439C23.9295 4.6097 23.9686 4.61309 24.0129 4.62836C24.0351 4.63514 24.059 4.64277 24.084 4.65154C24.108 4.66263 24.1331 4.67544 24.159 4.68939C24.1855 4.70241 24.2102 4.7198 24.2346 4.73973L24.2717 4.76981L24.2901 4.78561L24.2924 4.78761L24.3134 4.81098L24.3156 4.81344L24.3198 4.81842L24.3547 4.85879C24.3753 4.88675 24.4006 4.92819 24.4196 4.96518L24.4337 4.994L24.4423 5.01843L24.4582 5.06784C24.4694 5.10071 24.4745 5.13431 24.4779 5.16791C24.488 5.23479 24.4801 5.30053 24.4708 5.36029C24.4557 5.41939 24.44 5.47391 24.4144 5.51681L24.4215 5.48793C24.3994 5.52757 24.3776 5.57273 24.3422 5.61164C24.3258 5.6315 24.307 5.65314 24.2896 5.67167L24.2567 5.70315L24.1157 5.84234C24.0217 5.93705 23.9292 6.03327 23.8383 6.13094C23.8536 6.13094 23.6749 6.38488 23.5937 6.51138C23.8916 6.23068 23.7291 6.41157 23.7667 6.40267C23.7354 6.43136 23.6813 6.48488 23.678 6.49411C23.6431 6.54206 23.7429 6.44663 23.7587 6.44603C23.9071 6.28693 24.0596 6.12748 24.1867 5.9881C24.2442 5.92565 24.3002 5.86184 24.3547 5.79671L24.3955 5.74645C24.4192 5.71676 24.4403 5.68734 24.4586 5.65919C24.4935 5.60181 24.5146 5.54477 24.5289 5.49848C24.4938 5.5631 24.4627 5.62432 24.4206 5.67393C24.4016 5.6985 24.3781 5.72725 24.3617 5.74625L24.3334 5.78011C24.2958 5.8258 24.2574 5.87355 24.1997 5.92149C24.2349 5.87515 24.2719 5.83024 24.3107 5.78689C24.3213 5.77511 24.3318 5.76338 24.3425 5.75169L24.3617 5.73038L24.3957 5.68967C24.4427 5.63575 24.4778 5.5702 24.5092 5.50054C24.5689 5.34883 24.5761 5.18149 24.5297 5.02521C24.5235 5.00441 24.5168 4.98377 24.5095 4.96332C24.4866 4.91156 24.459 4.86203 24.4269 4.81536L24.4213 4.80726L24.4188 4.80421L24.4138 4.79803L24.4039 4.78568L24.3836 4.76064L24.381 4.75752L24.3798 4.75593L24.3531 4.72645L24.3516 4.72498L24.3386 4.71336L24.3121 4.69045C24.276 4.66011 24.2389 4.63042 24.1949 4.60871L24.1613 4.58639C24.1367 4.56961 24.1105 4.55543 24.083 4.54409C24.0554 4.53198 24.0274 4.52082 23.999 4.51063C23.986 4.50617 23.9728 4.5026 23.9593 4.49993L23.9247 4.49668C23.9027 4.49555 23.871 4.49143 23.8335 4.49389C23.7959 4.49681 23.7517 4.5012 23.7056 4.50996C23.6591 4.52271 23.6139 4.53539 23.5629 4.55724C23.5198 4.57793 23.4784 4.60184 23.4389 4.62876L23.4202 4.64184C23.4124 4.64736 23.4146 4.64643 23.4112 4.64902L23.3677 4.68773L23.3359 4.71655L23.3338 4.71881L23.3297 4.72319L23.3223 4.73129L23.31 4.74451L23.2994 4.756C23.3095 4.74389 23.3192 4.73142 23.3284 4.71861L23.3312 4.71469L23.3325 4.71283L23.3625 4.68561L23.3627 4.68541L23.3631 4.68501L23.3638 4.68414L23.3692 4.6775L23.3786 4.66529L23.3945 4.64284L23.4027 4.63135C23.4079 4.62584 23.4229 4.61422 23.4345 4.60525C23.4599 4.58593 23.4913 4.56441 23.5327 4.54164L23.5653 4.52477L23.5949 4.51302C23.6158 4.50505 23.6394 4.49688 23.6656 4.48884C23.7687 4.46182 23.9298 4.4328 24.1403 4.51368C24.1161 4.50013 24.0507 4.46813 23.9541 4.45538C23.9056 4.44973 23.8501 4.44349 23.7895 4.45119C23.7581 4.4539 23.7268 4.45811 23.6957 4.46381C23.664 4.47184 23.6313 4.48134 23.5984 4.49243C23.5434 4.50545 23.4238 4.5759 23.3793 4.61256L23.3431 4.6439L23.3008 4.68182L23.2925 4.69059L23.2758 4.70805C23.2328 4.75335 23.1885 4.79741 23.143 4.8402L23.0841 4.95023C23.1023 4.90342 22.746 5.25431 22.9777 4.98357L23.1717 4.76875L23.2428 4.68986L23.2596 4.67133L23.2677 4.66236L23.2717 4.65791L23.2737 4.65572L23.2742 4.65519L23.3107 4.62212L23.3118 4.62112L23.3442 4.59171L23.3587 4.57862L23.3604 4.5771L23.3662 4.57285L23.3777 4.56455L23.4002 4.54901C23.4297 4.52922 23.4568 4.51335 23.4792 4.50106C23.5249 4.47623 23.5509 4.4658 23.549 4.46693C23.551 4.4656 23.5212 4.47583 23.4761 4.49695C23.4505 4.50889 23.4255 4.5219 23.401 4.53593L23.3603 4.56056L23.3478 4.56846L23.3413 4.57232L23.293 4.60067L23.2929 4.60074L23.2547 4.63527L23.2544 4.63547L23.2539 4.63587L23.2527 4.63666L23.2505 4.63826L23.2466 4.64118C23.244 4.64297 23.2419 4.64463 23.2401 4.64589L23.2344 4.65008L23.2491 4.635L23.2509 4.63314L23.2912 4.59662L23.2956 4.5929L23.3055 4.58453L23.3294 4.56441L23.3362 4.55877L23.3397 4.55591L23.3414 4.55445L23.3472 4.5502C23.4023 4.5107 23.4611 4.47665 23.5227 4.44853C23.5604 4.43313 23.5939 4.4231 23.6318 4.41195L23.6881 4.39727L23.7459 4.38917C23.9013 4.36473 24.0583 4.39986 24.1681 4.4407C24.222 4.46421 24.2657 4.48791 24.2955 4.50498C24.3259 4.52152 24.3406 4.53427 24.3406 4.53427L24.33 4.52736C24.3233 4.52284 24.3134 4.51707 24.3008 4.51102C24.276 4.49841 24.2423 4.48253 24.2083 4.46846C24.1775 4.45508 24.1455 4.44467 24.1127 4.43738L24.0682 4.42715C24.0981 4.43519 24.127 4.44395 24.1547 4.45345C24.182 4.46354 24.2075 4.47676 24.2325 4.48904C24.2574 4.50166 24.2812 4.51474 24.3038 4.52796C24.3259 4.54184 24.3457 4.55771 24.3654 4.57278C24.3848 4.58805 24.4033 4.60346 24.4208 4.6188L24.4337 4.63029L24.4401 4.636L24.4416 4.63739L24.4769 4.67631L24.478 4.67757L24.4865 4.6878L24.5177 4.72578C24.5679 4.79345 24.6224 4.89545 24.6364 4.94738C24.6538 5.00429 24.6684 5.05403 24.6724 5.09812C24.6821 5.18677 24.6796 5.24906 24.67 5.29761C24.6613 5.34615 24.6545 5.38121 24.6404 5.41481C24.626 5.45231 24.6109 5.48949 24.5949 5.52631C24.572 5.56848 24.5453 5.62499 24.4946 5.69325C24.4725 5.72139 24.4496 5.74881 24.4257 5.77547L24.4122 5.79041L24.4053 5.79731L24.3482 5.85595C24.3053 5.90084 24.2526 5.95808 24.1865 6.03173C24.0426 6.23759 23.8579 6.42897 23.5079 6.76386C23.7487 6.50912 23.5115 6.71657 23.5868 6.60541C23.3211 6.8452 23.2613 6.9561 23.1422 7.09927C23.0615 7.14729 23.0024 7.17969 23.2305 6.9563C23.2245 6.89381 22.9394 7.25925 22.8835 7.24457C22.1366 7.99363 22.398 7.95784 21.4796 8.78818L21.4981 8.74117C20.9606 9.31412 20.6232 9.61746 20.1203 10.1429L19.6793 10.5115C19.7642 10.4154 19.9806 10.1449 19.8495 10.2411C20.0831 10.0808 20.2793 9.85898 20.511 9.66647C20.5232 9.63533 20.4299 9.71482 20.3864 9.74662C20.5148 9.61893 20.5954 9.57105 20.7583 9.3956C20.7426 9.3962 20.549 9.57158 20.6835 9.42814L20.9362 9.22062C21.2333 8.90207 21.0338 9.01509 21.4056 8.66394C21.3586 8.75126 21.2503 8.91761 21.1152 9.06237C21.2847 8.90154 20.9071 9.2948 21.0698 9.15601C21.2781 8.88826 21.4165 8.79695 21.7143 8.46186C21.6813 8.50317 21.6773 8.51877 21.6013 8.59853L22.073 8.15195C21.942 8.24817 22.4332 7.75357 22.3646 7.77044C21.8646 8.24903 22.024 8.12087 21.4517 8.6638C21.6037 8.50005 21.7809 8.27021 21.8521 8.15062C21.8579 8.14677 21.8668 8.13953 21.8844 8.12286C21.944 8.01209 21.8502 8.09205 21.8072 8.04563C21.5845 8.33204 21.3881 8.47601 21.1062 8.79456C21.0743 8.87551 21.3117 8.65159 21.4545 8.49606L21.2063 8.77676L21.2471 8.71341L20.5676 9.37648C20.6935 9.24798 20.7225 9.19054 20.7781 9.11351C20.6906 9.19917 20.5983 9.27846 20.5 9.3626C20.5426 9.36678 20.5469 9.3954 20.4621 9.47941C20.0245 9.9058 19.7634 10.1249 19.5773 10.2576L19.5287 10.3095C19.6251 10.261 19.2651 10.6593 19.1557 10.8176C19.1377 10.7862 18.9183 11.0253 18.7811 11.1372C18.7434 11.2319 18.871 11.1828 19.0458 11.0544C19.3119 10.7363 19.1832 10.8645 19.2843 10.6897L19.7282 10.1966L19.6462 10.324C19.8901 10.1002 20.0848 9.84564 20.097 9.89232C19.9932 10.0356 19.7772 10.2276 19.6744 10.3699L19.8399 10.2261C19.5959 10.528 19.672 10.338 19.3619 10.6886C19.5085 10.5922 19.3337 10.7203 19.209 10.8787C19.3401 10.7826 19.7836 10.2898 19.727 10.4317C19.5738 10.6222 19.0989 10.9599 18.914 11.2295L18.9203 11.2136C18.5794 11.5434 18.4859 11.6856 18.3757 11.8265C18.2192 11.9554 18.0416 12.1719 17.8884 12.3281L17.8798 12.312L17.6668 12.5353C17.7481 12.4089 17.9231 12.2802 18.1073 12.0894L18.061 12.0897C18.3044 11.901 18.4069 11.7153 18.5547 11.5278C18.3308 11.7917 17.8603 12.211 17.8481 12.3132L17.6739 12.4409L17.6101 12.5215C17.4802 12.6164 17.5676 12.4743 17.7804 12.2511C17.8241 12.2191 17.8459 12.203 17.8392 12.2193C17.9301 12.1078 18.0051 11.997 18.2553 11.7575L18.1369 11.9002C18.4433 11.5971 18.7116 11.311 18.7934 11.1841C18.3437 11.6145 17.9089 12.0453 17.4967 12.4595C17.4268 12.6335 17.3115 12.8073 17.2978 12.9178C17.0294 13.2041 16.6597 13.5871 16.4011 13.8102L16.4137 13.7785C16.304 13.8795 16.1996 13.9861 16.1008 14.0978C15.9639 14.2092 16.1602 13.9872 16.0668 14.0668L15.6859 14.4802C15.6885 14.4338 16.0225 14.0996 16.1797 13.9392C16.1516 13.9711 16.0948 14.0351 16.1172 14.0187C16.3108 13.843 16.6174 13.4619 16.7298 13.4128C16.8142 13.3174 16.5705 13.619 16.8766 13.3161C17.0924 13.1242 17.1303 13.0294 17.1422 12.9985C17.1331 12.9828 16.8052 13.3016 16.9024 13.1744C16.7453 13.3346 16.6981 13.4138 16.4832 13.6048C16.639 13.4459 16.8275 13.2073 16.9305 13.1427C17.2183 12.8086 17.1155 12.795 16.9656 12.9384C17.0188 12.9217 16.4208 13.5282 16.8524 13.1442C16.6927 13.3508 16.3582 13.6856 16.1332 13.94L16.1394 13.9244L15.8478 14.2277C15.8831 14.1793 15.9676 14.0838 15.9581 14.0686L15.5794 14.5139C15.7889 14.2596 15.4201 14.6422 15.3046 14.7379C15.2795 14.8009 15.1324 14.9758 15.2977 14.8322C15.4851 14.6724 15.3885 14.7209 15.545 14.5616L15.3514 14.8151L15.3293 14.8313L15.2192 14.9904C14.913 15.2931 15.2953 14.8005 14.9291 15.2146L15.0133 15.1971C14.5567 15.644 13.9391 16.1864 13.6353 16.5211C13.7044 16.414 13.7126 16.3447 13.5734 16.4476C13.7168 16.3158 13.9922 16.038 14.1864 15.8375C14.2303 15.8054 13.9793 16.1235 13.7576 16.3308C13.9162 16.2816 14.264 15.7584 14.3446 15.7886C14.9104 15.2615 14.6988 15.3277 15.1951 14.8964C15.1768 14.8653 15.3149 14.7525 15.3174 14.7063C15.1398 14.8032 14.6989 15.3276 14.3837 15.6145C14.4114 15.5832 14.467 15.5202 14.4739 15.504C14.2515 15.7118 14.1682 15.8063 14.027 15.9656L14.0489 15.9497C13.8105 16.2364 13.8679 16.0937 13.7025 16.2374C13.6463 16.3009 13.4243 16.5086 13.477 16.4922L13.1737 16.7486L13.2148 16.7628C13.0585 16.9222 13.0058 16.9385 12.8795 17.0985L12.8975 17.1298L13.2982 16.7464C13.1076 16.9532 13.2664 16.8254 13.0533 17.049C13.1617 16.9135 13.1152 16.9532 13.0356 17.0269C12.9958 17.0638 12.9478 17.1091 12.9068 17.1453C12.8863 17.1634 12.8675 17.1793 12.8525 17.1906C12.8461 17.1955 12.8393 17.2001 12.8324 17.2042C12.8267 17.2084 12.8204 17.2116 12.8138 17.2139L12.6852 17.3443L12.5951 17.4354C12.5694 17.4585 12.5494 17.4673 12.5498 17.4684L12.5867 17.441L12.6194 17.4051C12.6055 17.4159 12.5929 17.4273 12.5801 17.4365L12.5413 17.4573C12.5166 17.4703 12.4955 17.485 12.4722 17.4923L12.4085 17.519C12.3877 17.5265 12.3666 17.5314 12.3455 17.5379C12.3036 17.5529 12.2577 17.5569 12.2029 17.5629C12.1728 17.562 12.1427 17.5602 12.1126 17.5575C12.0799 17.5529 12.0448 17.5429 12.0052 17.5337C12.1871 17.5966 12.3623 17.5863 12.5206 17.5148C12.6006 17.4822 12.6685 17.409 12.747 17.3392C12.7846 17.3045 12.8291 17.2633 12.8653 17.2275C12.8887 17.2017 12.913 17.1741 12.9384 17.1443L12.8767 17.2165C12.8699 17.2239 12.868 17.2276 12.8568 17.2384L12.8245 17.2702L12.7569 17.3363L12.6137 17.4752C12.5615 17.5144 12.5059 17.5466 12.4459 17.5684C12.3272 17.6136 12.2026 17.6275 12.1015 17.6138C12.0521 17.6036 12.006 17.5983 11.97 17.5846C11.9341 17.5712 11.9033 17.5624 11.8831 17.5519C11.7927 17.516 11.7247 17.4414 11.6558 17.3814C11.5917 17.3224 11.5101 17.2481 11.4901 17.2215C11.4235 17.1474 11.3598 17.073 11.2822 16.9925C11.4389 17.1393 11.431 17.0939 11.4579 17.0902C11.4713 17.0884 11.4933 17.0969 11.5489 17.1449L11.7014 17.2823L11.833 17.4041C11.859 17.424 11.8889 17.4398 11.9193 17.4595C11.9525 17.4735 11.9871 17.4905 12.0257 17.5024C12.0011 17.5038 11.9027 17.4637 11.8722 17.4348C11.9036 17.4686 11.9663 17.5072 12.051 17.5281C12.1343 17.5537 12.2409 17.5549 12.3429 17.5268C12.3949 17.5157 12.4431 17.4917 12.4909 17.4696C12.5346 17.44 12.5788 17.4142 12.6134 17.3726L12.8002 17.179C12.7647 17.1942 12.8004 17.1505 12.7926 17.1481C12.7948 17.1379 12.7514 17.1705 12.5723 17.3272C12.603 17.3042 12.6019 17.3127 12.5763 17.3441C12.5698 17.3517 12.5622 17.3616 12.5525 17.3714L12.5166 17.3987C12.503 17.4082 12.4889 17.4203 12.4717 17.43L12.4148 17.4573C12.333 17.4913 12.2222 17.5172 12.1067 17.4977C11.9914 17.4787 11.8785 17.4281 11.7969 17.337L11.8398 17.3402C11.8604 17.3424 11.8812 17.3407 11.8815 17.3398C11.8805 17.3421 11.851 17.3137 11.8068 17.2717C11.7635 17.2304 11.7058 17.1754 11.6479 17.1204L11.4883 16.9562L11.5205 16.9846C11.4238 16.8377 11.1702 16.644 10.962 16.4064C10.7872 16.2593 10.1807 15.6307 10.4057 15.9372C10.23 15.7127 10.0233 15.5681 9.79976 15.355L10.056 15.6431C9.70639 15.3492 9.81702 15.4238 9.51521 15.2107C9.4998 15.1739 9.45119 15.1078 9.51468 15.1489C9.08443 14.7146 8.47807 14.0862 8.19259 13.8645C7.88958 13.5581 7.88759 13.4644 7.44207 13.0549C7.34658 12.9703 7.47587 13.1614 7.204 12.8672C7.1878 12.8453 7.50536 13.1109 7.18707 12.7987C6.9326 12.6042 6.67634 12.2549 6.35832 11.9888C6.21488 11.8238 5.94328 11.5603 6.0227 11.5923C6.26157 11.842 6.61213 12.1827 6.67621 12.224C6.62813 12.2046 6.83605 12.4116 6.64506 12.2426C6.99635 12.6297 6.8994 12.4676 7.21835 12.811C7.25069 12.8244 7.07431 12.6145 6.99482 12.552C7.02564 12.5181 7.66354 13.1895 7.40794 12.8562C7.05678 12.4995 6.88426 12.4619 6.61159 12.1211C6.75423 12.2244 6.92988 12.4334 7.12007 12.5555L6.881 12.2905L6.67468 12.1309L6.69035 12.1371C6.27478 11.6623 6.24516 11.7586 5.83066 11.3765C6.03897 11.6297 5.72115 11.3793 5.88099 11.5666C5.61045 11.3044 5.41914 11.1044 5.44975 11.0703C5.97449 11.5423 5.5123 11.0643 6.00524 11.4928C5.94122 11.4056 6.16229 11.5551 5.89135 11.277C5.55892 10.9907 5.95696 11.3965 5.63775 11.0986C5.62241 11.0775 5.6064 11.0556 5.62187 11.0617C5.46316 10.9366 5.46243 10.8901 5.27211 10.7369L5.31926 10.7711C5.12721 10.5398 5.06546 10.5618 4.90462 10.3582C4.9535 10.455 4.76251 10.2555 4.63455 10.1575C4.81019 10.3513 4.87573 10.4858 5.2421 10.8484C5.30512 10.8733 5.28905 10.8362 5.44796 10.9767L5.2087 10.7421C5.26295 10.7901 5.30678 10.8241 5.35745 10.8672L5.57512 11.1046C5.27304 10.8296 5.385 10.9822 5.2427 10.8794C4.98696 10.6071 5.01964 10.6668 4.85973 10.4946C4.90429 10.4835 4.39827 9.93787 4.1122 9.61594L4.25218 9.75811C4.49058 9.96132 4.12348 9.58293 4.12295 9.56713L3.94811 9.42011C3.98031 9.44846 4.02872 9.48386 3.96404 9.41127C3.74098 9.19857 3.72604 9.23888 3.50332 9.02665C3.50232 8.99497 3.70951 9.15554 3.58234 9.01224C3.54914 8.95221 3.43625 8.76806 3.1337 8.49268C3.1074 8.47807 3.02918 8.40648 2.93979 8.32214C2.95268 8.33337 2.96848 8.34798 2.97499 8.35229L2.79981 8.14358C2.98953 8.28091 3.11816 8.4867 3.30888 8.62476L3.34773 8.6138C3.47576 8.74163 3.66023 8.90459 3.753 8.97153C3.56222 8.77231 3.51461 8.73778 3.29135 8.52482C3.27654 8.47853 3.44189 8.62044 3.46566 8.64089L3.41891 8.62257C3.65837 8.90327 3.83163 8.98754 4.15078 9.31591C4.19866 9.36579 4.16698 9.33783 4.15137 9.33165C4.43759 9.56965 4.66171 9.85985 4.94825 10.0828L4.85209 10.0129L5.76239 10.8057L5.77481 10.7987C5.743 10.7553 5.8699 10.8828 5.93418 10.955L5.93372 10.9548L6.43143 11.3907C6.38553 11.3304 6.3362 11.2729 6.28368 11.2183C6.2192 11.1765 5.91705 10.8557 5.93392 10.9242C5.80562 10.7647 5.55142 10.5553 5.45553 10.4398C5.63144 10.649 5.29702 10.3301 5.24907 10.3106C5.20066 10.2296 4.96253 10.0265 5.00968 10.0298C4.9774 9.98609 5.0897 10.1389 5.18472 10.2076C5.40679 10.3888 4.8335 9.8204 5.10417 10.0522C4.76929 9.74815 4.35491 9.32036 4.00508 9.01104L4.18066 9.20448C4.03736 9.0548 3.68573 8.71295 3.67039 8.67642C3.78182 8.78274 3.90879 8.91024 4.05243 9.04511C4.08397 9.02711 3.71761 8.71055 3.71741 8.67981L3.27196 8.3163L3.44773 8.4948C3.3211 8.39825 2.96888 8.0097 2.69781 7.73166C2.88919 7.85524 3.11285 8.14497 3.41533 8.42023C3.63805 8.61719 3.31851 8.25793 3.52516 8.44838C3.4816 8.38902 3.35105 8.26032 3.27866 8.205L3.20648 8.12054C3.41446 8.26689 3.80473 8.67091 4.09559 8.90878C4.0691 8.88886 4.04539 8.87212 4.0345 8.8684C4.22608 9.08389 4.43327 9.29015 4.63993 9.4804C4.5447 9.36572 4.49655 9.33079 4.433 9.27434C4.43314 9.25927 4.62379 9.44328 4.70308 9.5057C4.52743 9.31213 4.68681 9.45311 4.57511 9.33125C4.70268 9.44414 4.79791 9.54369 4.94121 9.69343C5.00556 9.78102 4.86232 9.64662 4.86259 9.67736C5.02263 9.81907 5.0551 9.92453 5.29356 10.1277C5.00629 9.82757 5.4042 10.172 5.51562 10.2629L5.46741 10.2125C5.57845 10.2878 5.65827 10.3661 5.70621 10.4468C5.57864 10.3339 5.46741 10.2125 5.48342 10.2649C5.56364 10.3436 5.64352 10.422 5.73895 10.5064L5.64406 10.4378L6.04249 10.8286C6.12105 10.8751 6.24802 10.9568 6.32638 10.9878C6.40653 11.097 6.55043 11.2167 6.64586 11.3009L6.59738 11.2659C6.75775 11.4537 7.15652 11.8295 7.20341 11.848C7.3151 11.985 6.23388 11.0593 7.12618 11.9252C7.46053 12.2592 7.37965 12.088 7.58611 12.2632C7.58611 12.2632 7.5707 12.257 7.58664 12.2789C7.72961 12.4284 7.76148 12.4259 7.88905 12.5388C7.80823 12.4442 7.68146 12.3168 7.63398 12.2825C7.69694 12.3076 7.93693 12.5887 8.0639 12.6859C7.88925 12.5696 8.33543 12.9797 8.2076 12.8818C8.47967 13.1914 8.81376 13.4794 8.98807 13.6106C9.14878 13.8446 9.3391 13.9519 9.64244 14.2892C9.5943 14.2389 9.49947 14.155 9.43452 14.0822C9.22866 13.9229 9.75427 14.4264 9.45199 14.1666C9.51574 14.2231 9.46859 14.1585 9.40331 14.1006C9.29288 13.9954 9.18112 13.9041 9.19765 13.9417L9.43818 14.2233L9.34142 14.1378L9.70918 14.5625C9.72459 14.5686 9.69331 14.5256 9.6771 14.5036C10.1241 14.9757 10.6654 15.4852 11.0641 15.8916C11.1347 15.8966 11.3895 16.1373 11.6724 16.4125L11.8874 16.6221C11.9234 16.6569 11.9591 16.6917 11.9942 16.7259L12.0353 16.7651L12.0598 16.7873C12.0914 16.8164 12.1218 16.844 12.1575 16.8496C12.1921 16.8568 12.2246 16.8479 12.2458 16.832C12.2239 16.8551 12.201 16.8756 12.1885 16.8943C12.1759 16.9133 12.1739 16.9324 12.1961 16.9458C12.1665 16.9477 12.1171 16.9485 12.0683 16.9186C12.044 16.904 12.0199 16.8832 11.9934 16.8609C11.9796 16.849 11.9662 16.8367 11.9532 16.8241C11.9327 16.804 11.9127 16.7835 11.8931 16.7626C11.8773 16.7257 11.6861 16.5106 11.8289 16.6294C11.3668 16.1822 11.8617 16.7196 11.7031 16.6099C11.8272 16.7308 11.9621 16.8585 12.0198 16.9067C12.0866 16.9769 12.1835 16.9978 12.2582 16.9649C12.3355 16.9353 12.373 16.8612 12.4154 16.8119L12.4231 16.8021C12.4251 16.7992 12.4281 16.7955 12.4335 16.7895L12.4613 16.7575L12.5166 16.6942L12.6285 16.5688L12.6443 16.5685L12.8698 16.3137C12.6692 16.5056 12.6417 16.4586 12.9076 16.2188L12.8787 16.2513C13.0385 16.1227 13.3202 15.8043 13.548 15.5813L13.6793 15.407C13.9075 15.1838 13.9572 15.2142 14.0545 15.1648C14.4109 14.8139 14.5824 14.5768 14.8141 14.3061C14.9452 14.2099 15.4791 13.6843 15.2196 13.9861C15.5232 13.6518 15.3652 13.6225 15.9643 13.1272L15.8391 13.2861C16.3588 12.7593 17.0714 11.9797 17.3302 11.7564C17.1977 12.01 18.0452 11.1645 18.1976 11.1309C18.158 11.1433 18.3502 10.9421 18.3715 10.9063C18.4215 10.8702 18.5 10.8052 18.5639 10.7168C18.3479 10.9089 18.6457 10.5118 18.2796 10.9258C18.4363 10.6877 18.6588 10.4017 19.0932 9.97121L19.1114 10.0025L18.7618 10.3371C18.8146 10.3208 18.6372 10.4955 18.5734 10.5762C19.2237 9.95361 18.548 10.7174 19.1954 10.0636C19.2422 9.98469 19.2081 10.032 19.3709 9.85653C19.2922 9.93688 19.2949 9.96829 19.4234 9.84046L19.5267 9.69762C19.7952 9.51168 19.1775 10.1006 19.4004 9.93575C19.1686 10.2064 18.7439 10.6519 18.8566 10.6025C19.2783 10.2036 19.1665 10.1742 19.6098 9.75957L19.669 9.72737C19.8107 9.56733 19.8133 9.52118 19.8827 9.42542C19.8979 9.42562 19.9419 9.39301 20.0411 9.29832C20.264 9.01171 20.4269 8.83633 20.6272 8.56659C20.0277 9.21816 20.0682 9.07718 19.4458 9.74603C19.5367 9.6346 19.9838 9.17254 19.9774 9.11039L19.9962 9.1412C20.1933 8.91841 20.3904 8.69581 20.6621 8.44035L20.5151 8.6152C20.8473 8.2485 21.1336 8.07186 21.3681 7.7549C21.2685 7.85013 21.1902 7.92988 21.1339 7.99377C21.3027 7.80285 21.5309 7.57972 21.7306 7.38841L22.0941 6.94302C22.1029 6.95889 22.3599 6.70329 22.2559 6.8466C22.566 6.5742 22.6664 6.40002 22.8285 6.22557C23.1531 5.9537 22.5819 6.49564 22.5869 6.55906C23.0092 6.15963 23.4343 5.71377 23.6438 5.4597C23.555 5.53853 23.5101 5.57492 23.5083 5.56469C23.5286 5.56004 23.6921 5.3925 23.7846 5.30046L23.8319 5.22091L23.8358 5.21759L23.8368 5.21672L23.8453 5.22516V5.22522L23.8457 5.22575L23.847 5.22715C23.8481 5.22821 23.8497 5.22941 23.8515 5.2306C23.8519 5.23073 23.8502 5.23007 23.8511 5.2306C23.8539 5.23193 23.8495 5.23007 23.852 5.23107C23.8555 5.23206 23.8588 5.2337 23.8617 5.23591C23.8623 5.23664 23.8667 5.23983 23.8663 5.24109C23.8663 5.24176 23.8665 5.24269 23.867 5.24402L23.8679 5.24641C23.8671 5.24827 23.8716 5.24607 23.8659 5.25212C23.8691 5.2492 23.8698 5.24827 23.8692 5.24833L23.8694 5.24734L23.87 5.24581C23.8701 5.24461 23.8732 5.24528 23.8722 5.24348C23.8698 5.2401 23.8743 5.2403 23.8706 5.23691C23.872 5.23319 23.8623 5.22901 23.8623 5.22761C23.8603 5.22755 23.8592 5.22755 23.859 5.22722C23.859 5.22801 23.8591 5.22463 23.8596 5.22861C23.8602 5.23206 23.8612 5.23538 23.8629 5.2385C23.8645 5.24163 23.8667 5.24455 23.8692 5.24714L23.8734 5.25066C23.874 5.25092 23.8787 5.25484 23.8746 5.25039L23.8477 5.21745L23.8346 5.20085L23.8344 5.20059L23.8564 5.22489H23.8562L23.856 5.22496L23.8557 5.22502H23.8554C23.855 5.22476 23.8555 5.2237 23.8564 5.22164C23.8556 5.22157 23.8577 5.21659 23.8575 5.21274C23.8599 5.21008 23.8598 5.21294 23.863 5.21021C23.8655 5.20928 23.8657 5.21214 23.8696 5.21075L23.8702 5.21061L23.8706 5.21055H23.8707L23.8501 5.18784L23.8503 5.18803L23.8511 5.18883L23.8569 5.19541L23.8686 5.20862L23.8919 5.23532C23.8927 5.23625 23.8943 5.23797 23.8944 5.23824L23.8928 5.23738L23.8898 5.23525C23.8846 5.23103 23.8813 5.22495 23.8805 5.21832C23.8826 5.22246 23.8836 5.22704 23.8834 5.23165C23.8833 5.23627 23.8821 5.24079 23.8798 5.24481C23.8791 5.24674 23.8793 5.24933 23.8762 5.24999C23.8757 5.25039 23.8754 5.25087 23.8751 5.2514C23.8749 5.25194 23.8747 5.25252 23.8747 5.25311C23.8761 5.25258 23.8718 5.25683 23.8679 5.26075L23.8566 5.27184C23.8272 5.30146 23.7992 5.32961 23.773 5.35578C23.7212 5.4085 23.6779 5.45419 23.6482 5.48992C23.7167 5.41701 23.7867 5.34554 23.8582 5.27556L23.8765 5.25776C23.8785 5.25511 23.8776 5.25517 23.8785 5.25411C23.8794 5.25245 23.8825 5.25232 23.8839 5.25112C23.8842 5.2492 23.8853 5.248 23.8872 5.247C23.8904 5.24654 23.8894 5.24408 23.8906 5.24269C23.8912 5.24103 23.8949 5.2401 23.8951 5.2381C23.8943 5.23432 23.9015 5.23073 23.9001 5.22648C23.9008 5.22401 23.9019 5.22169 23.9035 5.21964C23.9029 5.21753 23.9028 5.21527 23.9034 5.21314C23.9046 5.20264 23.9071 5.21666 23.9163 5.21666L23.9197 5.21706C23.9212 5.21739 23.9168 5.21247 23.9157 5.21041L23.9041 5.19388L23.8925 5.17721L23.8866 5.16878L23.8836 5.16459L23.8821 5.16247L23.8817 5.16194C23.8778 5.15755 23.9155 5.19919 23.8995 5.18153H23.8995L23.8992 5.18139C23.8968 5.17947 23.8949 5.17704 23.8935 5.17429C23.8922 5.17077 23.8904 5.16758 23.8872 5.16665C23.8794 5.15417 23.8629 5.15125 23.8453 5.14852C23.8372 5.14627 23.8236 5.15151 23.8198 5.15105C23.8212 5.15098 23.8224 5.15005 23.8231 5.14846C23.8235 5.14756 23.8237 5.14659 23.8238 5.1456C23.8242 5.14421 23.8245 5.14221 23.8187 5.14746L23.7933 5.16811L23.7803 5.17874L23.7737 5.18412L23.7721 5.18551L23.7717 5.18584C23.8082 5.15277 23.7815 5.17688 23.7897 5.16964L23.7889 5.17037L23.7859 5.17343C23.7214 5.23837 23.6498 5.31235 23.5693 5.39795C23.5534 5.39841 23.651 5.27091 23.5227 5.39874C23.232 5.70136 23.4784 5.50944 23.4036 5.61994C23.5128 5.50074 23.5964 5.41707 23.6718 5.34907C23.7073 5.31713 23.7437 5.28626 23.7811 5.2565L23.8351 5.21447L23.812 5.23532L23.8121 5.23525L23.8123 5.23512L23.8128 5.23485L23.8138 5.23432L23.8156 5.23319L23.8192 5.23093L23.8266 5.22648L23.8415 5.21752C23.8507 5.21234 23.8631 5.20384 23.87 5.20132C23.8734 5.1978 23.8572 5.21759 23.8441 5.23399L23.8341 5.24661L23.8295 5.25238L23.8283 5.25378L23.8278 5.25444L23.8277 5.25451H23.8277L23.8526 5.23193V5.232L23.8525 5.23213L23.8523 5.23246L23.8506 5.23518L23.8431 5.24674C23.8271 5.2492 23.6833 5.39223 23.6344 5.42796L23.6242 5.49151C23.6117 5.44503 23.3599 5.65202 23.1906 5.8434C23.3941 5.68256 23.3438 5.73064 23.427 5.71457C23.2052 5.99998 23.1096 5.9695 22.859 6.28739C22.8709 6.25664 23.112 6.00138 22.8903 6.20857C22.7115 6.38481 22.7581 6.38408 22.6464 6.51038C22.7559 6.3518 22.7032 6.36801 22.8194 6.19356C23.1317 5.87514 22.947 6.06666 23.2445 5.74771L22.9628 5.9879C23.226 5.71669 23.1291 5.7655 23.1416 5.73409C22.6604 6.16547 22.835 6.11527 22.535 6.40241C22.4103 6.56078 22.8135 6.13094 22.6097 6.37C22.3316 6.641 22.5632 6.44863 22.2657 6.76744L22.306 6.70455C22.1971 6.78418 22.122 6.89527 22.0155 7.0067C21.9031 7.134 22.2365 6.9563 21.7453 7.45083C21.7626 7.41988 21.7672 7.4066 21.7643 7.40381L22.039 6.71684C21.4882 7.26831 20.9307 7.81306 20.3667 8.35096C20.1903 8.44686 20.7463 7.90498 20.6927 7.92218L20.9648 7.66665C20.967 7.69852 20.4174 8.22453 20.6858 8.01654C21.1393 7.53848 21.3703 7.34677 21.777 6.86971C21.5993 6.96653 21.2022 7.45886 20.8835 7.71506C21.0068 7.59699 21.1043 7.49067 21.1975 7.38595L20.3147 8.23489L20.2554 8.31364C20.4669 8.11124 20.6136 7.97145 20.6334 7.95445C20.3554 8.22532 20.1464 8.47913 20.1577 8.52694L20.2075 8.47926L20.1176 8.58764C20.0511 8.64969 19.9848 8.71196 19.9187 8.77444V8.77444ZM2.0534 6.32186C2.07293 6.33567 2.08939 6.3455 2.10321 6.35107C2.0888 6.34536 2.09723 6.35944 2.0534 6.32186ZM23.2435 6.42226L23.8005 5.88171L24.0761 5.6147L24.1442 5.54842C24.1547 5.53932 24.1689 5.52239 24.1821 5.50672C24.1946 5.49045 24.2098 5.47604 24.2193 5.45771C24.2643 5.38785 24.2844 5.30564 24.2865 5.22429C24.2794 5.29754 24.2606 5.36826 24.2219 5.42517C24.2056 5.45539 24.1826 5.47963 24.1596 5.50267C24.1499 5.51348 24.1393 5.52346 24.1278 5.53248L24.0984 5.55679L23.8855 5.73084C23.7586 5.83304 23.6654 5.90423 23.6271 5.92441C23.5887 5.94454 23.6052 5.91359 23.6975 5.81146C23.7437 5.76039 23.8088 5.69153 23.8955 5.60241L24.0421 5.45313C24.057 5.43925 24.0671 5.42544 24.0784 5.41156L24.0956 5.39037L24.1084 5.36554L24.1219 5.3403L24.13 5.31222C24.1326 5.30272 24.1362 5.29329 24.1383 5.28346L24.1411 5.25298C24.1452 5.25258 24.1331 5.16732 24.1302 5.16831C24.1349 5.21002 24.1373 5.26108 24.1177 5.31228C24.1116 5.33898 24.0946 5.36268 24.0802 5.38785L24.0513 5.42218C24.0411 5.4342 24.0261 5.44755 24.0135 5.46043C23.9019 5.57099 23.7916 5.68287 23.6826 5.79605C23.5499 5.96453 23.4184 6.13402 23.2882 6.30452L23.099 6.55454C23.0505 6.61989 23.021 6.66132 23.0243 6.66146C23.105 6.61338 23.1809 6.50168 23.303 6.38966L23.2435 6.42226V6.42226ZM22.8854 6.58463C22.6715 6.78557 22.7317 6.7513 22.7111 6.79513L22.9247 6.57274C22.8942 6.59737 22.8765 6.60687 22.8854 6.58463ZM22.7352 6.7944C22.7588 6.77136 22.7793 6.75204 22.7912 6.7432L22.7352 6.7944ZM21.6527 6.94873L21.6734 6.92668L21.5213 7.07331C21.543 7.05531 21.5824 7.01892 21.6527 6.94873V6.94873ZM22.1023 6.5562L22.1302 6.48561L21.9878 6.62314C22.0133 6.6171 22.0381 6.60906 22.1023 6.5562V6.5562ZM23.5258 5.27303C23.5407 5.24534 23.5697 5.20663 23.6046 5.16333L23.6604 5.09593L23.675 5.0786L23.6823 5.0699L23.686 5.06558C23.6827 5.0685 23.6935 5.05874 23.6787 5.07216L23.6789 5.07209L23.6791 5.07182L23.6797 5.07136L23.6807 5.07036L23.6827 5.06837L23.7153 5.03689C23.7273 5.02381 23.7337 5.02195 23.7406 5.0173C23.7478 5.01299 23.7532 5.00701 23.7613 5.00236C23.7798 4.99586 23.7961 4.9837 23.8123 4.98012C23.8283 4.97587 23.8423 4.96963 23.8532 4.96544C23.8641 4.96265 23.8718 4.95873 23.8749 4.95375C23.8862 4.94964 23.8743 4.94419 23.8481 4.93961L23.7998 4.94067C23.7815 4.94286 23.7618 4.94964 23.7408 4.95415C23.7204 4.96564 23.7008 4.97089 23.6791 4.98782L23.6466 5.01379L23.6384 5.02036C23.6367 5.02198 23.635 5.02364 23.6333 5.02534L23.6181 5.04021L23.4926 5.163C23.494 5.17024 23.481 5.19122 23.4566 5.22336C23.5445 5.14294 23.608 5.09407 23.5921 5.14627C23.3361 5.32304 23.4264 5.36826 23.1824 5.59192C23.1288 5.68714 23.4632 5.35226 23.5258 5.27303V5.27303ZM6.94701 12.052C6.94296 12.0428 6.92676 12.0133 6.90292 11.973L7.08228 12.1232C7.36969 12.4234 7.5626 12.7012 7.86362 12.9293C7.97823 13.0622 8.02512 13.1479 8.07247 13.2271C8.01303 13.1654 7.95791 13.1071 7.91316 13.0574C7.11807 12.3694 7.58285 12.6144 6.94701 12.052ZM10.2732 15.4824C10.2412 15.4539 10.2254 15.4478 10.2254 15.4478C10.9362 16.0501 11.4925 16.575 11.8443 16.931C11.7971 16.8409 11.4963 16.5067 11.3545 16.3471L11.5125 16.4562L11.5767 16.5589L11.8309 16.7686C11.7824 16.6872 11.5917 16.5034 11.4792 16.3655C11.4636 16.3593 11.0341 15.987 10.9069 15.89L11.2104 16.2272C11.1307 16.1339 10.7001 15.7146 10.5253 15.5523C10.5097 15.5614 10.7812 15.8707 10.8444 15.8806C10.8607 15.9333 10.5258 15.5987 10.718 15.8299C10.4477 15.5985 10.0647 15.1831 9.88854 14.9889L9.88781 14.9269C9.69656 14.7118 9.71363 14.8265 9.48997 14.5674C9.79272 14.8582 9.47337 14.4836 9.7117 14.7175C9.64789 14.6305 9.74252 14.6835 9.50372 14.4493C9.26625 14.2929 9.2798 14.1745 9.05787 14.0242C8.94611 13.8872 9.21611 14.1336 8.97679 13.8835C8.67484 13.6242 8.67577 13.6556 8.62888 13.6677C8.88309 13.9385 8.96218 13.9242 9.16963 14.1461L8.69217 13.7696C8.76375 13.8554 8.82119 13.9145 8.87206 13.9613C8.78334 13.8784 8.70299 13.8131 8.63028 13.7609L8.51672 13.6773C8.75844 13.9196 8.9726 14.1353 8.99803 14.1857L8.95035 14.1667C9.02287 14.2655 9.17282 14.3949 9.24772 14.4488C9.46593 14.6639 9.70234 14.8604 9.73109 14.9262L9.63573 14.8571C9.90641 15.1195 9.93788 15.1474 10.2732 15.4824ZM19.2103 10.4747C18.9964 10.5837 18.7721 10.7154 18.028 11.4778L18.0836 11.415C17.671 11.7617 17.3869 12.1987 16.8885 12.624C17.0929 12.3801 17.0826 12.3939 17.2849 12.1013L17.0592 12.3566C17.0973 12.2614 16.8722 12.516 16.6945 12.6911L16.8162 12.5015C16.9319 12.4054 17.21 12.1343 17.1942 12.1347C17.1378 12.1985 17.5995 11.815 17.8192 11.5756C17.7725 11.5763 17.2972 12.0703 17.476 11.8163C17.3009 12.0228 17.2543 12.0235 17.063 12.231C17.2385 12.024 17.0789 12.1523 17.2046 11.9931L16.8854 12.328C16.8692 12.3288 17.3446 11.8348 17.0484 12.0744C16.9295 12.2175 16.5645 12.5521 16.583 12.5832L16.5674 12.5836C16.3169 12.8233 16.4946 12.7265 16.1795 13.0133C16.1884 13.0293 16.2544 12.9805 16.3597 12.8702C16.4453 12.7736 16.4422 12.7425 16.6265 12.5514C16.73 12.4865 16.3977 12.7753 16.5608 12.6778C16.6418 12.6294 17.0422 12.1682 16.9417 12.3423L16.6917 12.5816C16.7103 12.6127 16.5317 12.7884 16.5567 12.8034C16.4162 12.9621 16.2471 13.0754 16.1159 13.2498C16.0684 13.3292 16.209 13.2483 15.9433 13.4881C15.7091 13.6489 15.1342 14.238 14.9215 14.4612L14.7466 14.6678C14.778 14.6667 15.1089 14.3012 15.0062 14.4435L14.7147 14.7469L14.7281 14.7144C14.6274 14.8109 14.5368 14.9219 14.4524 15.0174C14.5272 14.9069 14.7487 14.6996 14.6804 14.7164C14.5356 14.8509 14.5047 14.8626 14.3812 14.9961C14.4074 14.9663 14.429 14.9395 14.4218 14.9395C14.1279 15.211 14.1777 15.2414 14.1152 15.3206C13.8646 15.6385 14.4329 15.0653 14.4232 15.1283L13.6075 15.9724C13.67 15.8931 13.7331 15.8134 13.6957 15.8296C13.4802 16.0212 13.671 15.8142 13.3865 16.1012C13.4421 16.1162 13.0486 16.4831 12.8672 16.7054C12.7584 16.7852 12.736 16.8018 12.9419 16.5951C12.8964 16.5947 12.6248 16.884 12.5291 16.9755C12.4981 17.0129 12.4663 17.0496 12.4336 17.0855C12.4137 17.1036 12.395 17.1246 12.3733 17.1388C12.3509 17.1518 12.3311 17.168 12.3103 17.1743C12.3653 17.1641 12.3818 17.1597 12.3579 17.1837C12.3516 17.1889 12.3434 17.1974 12.3309 17.2038C12.3183 17.2098 12.3025 17.2166 12.2836 17.2244C12.2648 17.2324 12.2411 17.2338 12.2148 17.2391C12.1849 17.2413 12.1548 17.2402 12.1252 17.2356L12.1092 17.2379C12.1622 17.2554 12.2233 17.2572 12.2843 17.2473C12.3475 17.2346 12.4066 17.2069 12.4567 17.1664C12.5067 17.1228 12.5563 17.0752 12.6073 17.0286L12.7457 16.8982C12.9233 16.7288 13.0835 16.5693 13.1637 16.4657L13.1231 16.529C13.4822 16.2095 13.8203 15.7495 14.02 15.6364C14.0227 15.668 14.0921 15.5721 14.1109 15.6028L14.3414 15.3336L14.3007 15.3968L14.7201 14.9663L14.7134 14.9822L15.1443 14.4399C15.134 14.4286 15.1176 14.4384 15.1769 14.3631C15.2269 14.3038 15.2802 14.2473 15.3366 14.1939C15.3369 14.1935 15.3369 14.1935 15.3368 14.1934L15.337 14.1935C15.4444 14.0925 15.5294 14.0385 15.6641 13.9164L15.2716 14.3142C15.2578 14.3647 15.3104 14.3501 15.5169 14.1693C15.4383 14.2492 15.4195 14.2966 15.5197 14.2008C15.5256 14.1853 15.7669 13.9302 15.6577 14.0101C16.0263 13.6281 16.6822 13.0685 17.2172 12.4638C16.8287 12.8941 17.57 12.1602 17.1229 12.6223C17.4695 12.3343 17.367 12.3204 17.695 12.0015C17.7331 11.9845 17.5175 12.1762 17.464 12.2713C18.0134 11.7454 18.3239 11.3167 18.853 10.8053L18.8981 10.806L19.2103 10.4747V10.4747ZM20.2108 9.41712L20.5078 9.10441L20.4771 9.13363L20.7595 8.81441C20.5657 8.99032 20.4188 9.08695 20.6658 8.81654C20.6535 8.84775 20.7407 8.78373 20.6562 8.87923C20.8433 8.71959 21.237 8.35256 21.1032 8.41717C20.8028 8.78294 20.9816 8.45077 20.744 8.73678C20.862 8.57376 21.0113 8.4448 21.1339 8.30209C21.0146 8.45901 21.2088 8.31258 21.4252 8.11416C21.51 8.01827 21.7597 7.77927 21.9006 7.6201C21.8259 7.65244 21.9445 7.50966 21.6946 7.74886C21.8146 7.61302 21.9432 7.48505 22.0796 7.36576C22.0216 7.43104 21.9164 7.54147 21.9315 7.54167C22.0513 7.46079 22.1679 7.34239 22.2411 7.28587L22.3923 7.12783C22.3753 7.14111 22.3598 7.15187 22.3474 7.15824L22.5006 6.96772C22.2817 7.20652 22.3851 7.06375 22.3756 7.04841C22.3942 7.07935 22.5262 6.9043 22.6037 6.82515L22.4074 6.96918C22.4765 6.87382 22.7166 6.69771 22.6478 6.71471C22.2764 7.06541 22.142 7.20864 21.8233 7.54293L21.9762 7.43071C21.6222 7.81347 21.7142 7.62309 21.3018 8.03739C21.1485 8.22778 20.6815 8.66028 20.7101 8.70597C20.7506 8.64282 20.4197 8.93029 20.2949 9.0888C20.1723 9.27932 19.7034 9.75738 19.8623 9.62948C19.9907 9.50198 20.1441 9.31113 20.2691 9.23038L20.028 9.48565L20.2093 9.34135C20.1186 9.41864 20.1449 9.4286 20.2108 9.41712V9.41712ZM22.4635 5.65235C22.4606 5.65494 22.4569 5.65826 22.4535 5.66144L22.4642 5.65089L22.4635 5.65235V5.65235Z" fill="#202020"/>
<path d="M3.1967 8.45594C3.11688 8.39305 2.94183 8.21521 2.95823 8.26794C2.97397 8.24364 3.27652 8.58012 3.1967 8.45594Z" fill="#202020"/>
<path d="M3.00527 8.22531C2.98807 8.21767 2.98907 8.23394 2.90918 8.15552L3.13224 8.36842L3.00527 8.22531V8.22531Z" fill="#202020"/>
<path d="M2.92069 7.86734C2.79339 7.76985 2.7137 7.70703 2.53859 7.52926C2.52113 7.41418 2.84114 7.80445 2.96665 7.83891C2.64783 7.51093 2.50592 7.45429 2.23578 7.19238C2.34721 7.34452 2.87394 7.8947 2.92069 7.86734Z" fill="#202020"/>
<path d="M3.12604 7.94932L2.93512 7.78052L2.94999 7.8011L3.14105 7.97011L3.12604 7.94932Z" fill="#202020"/>
<path d="M6.59753 12.2688C6.59846 12.3003 6.72556 12.3974 6.78938 12.4537C6.7415 12.4039 6.67709 12.3314 6.59753 12.2688Z" fill="#202020"/>
<path d="M6.41361 10.0499L5.02692 8.69263L6.41361 10.0499Z" fill="#202020"/>
<path d="M11.2501 16.7221C10.8673 16.3681 10.6773 16.2307 10.2953 15.8621C10.7581 16.3863 10.9952 16.466 11.3782 16.9119L11.2501 16.7221Z" fill="#202020"/>
<path d="M10.9984 16.7138C10.9661 16.624 11.3163 16.9643 11.2839 16.8898C11.0286 16.6485 11.141 16.8016 10.9181 16.5737L10.9984 16.7138Z" fill="#202020"/>
<path d="M9.80402 14.5693L9.93065 14.6661L9.83523 14.5816L9.80402 14.5693Z" fill="#202020"/>
<path d="M13.3292 16.7458L13.295 16.793L13.4888 16.6174L13.3292 16.7458Z" fill="#202020"/>
<path d="M13.261 16.8403L13.2951 16.793L13.261 16.8403Z" fill="#202020"/>
<path d="M10.0091 14.6513L9.84926 14.4791L9.75391 14.4102L10.0091 14.6513Z" fill="#202020"/>
<path d="M11.3204 16.2709L11.1627 16.1316C11.1939 16.1593 11.3853 16.3742 11.3204 16.2709Z" fill="#202020"/>
<path d="M14.4696 15.6297L14.6392 15.438L14.6179 15.4536L14.4488 15.6447L14.4696 15.6297Z" fill="#202020"/>
<path d="M12.3617 16.8411C12.3264 16.8543 12.3647 16.8129 12.3943 16.7811L12.4256 16.7478C12.4365 16.7362 12.4442 16.7273 12.4464 16.7236C12.4487 16.7198 12.4455 16.7208 12.4345 16.7288L12.412 16.7463L12.3958 16.7595C12.3898 16.7643 12.3883 16.7647 12.3839 16.7679C12.2963 16.8622 12.3381 16.8435 12.3617 16.8411Z" fill="#202020"/>
<path d="M14.6465 14.8559C14.6709 14.8315 14.6958 14.805 14.7181 14.7778L14.6465 14.8559Z" fill="#202020"/>
<path d="M14.6464 14.856C14.5677 14.9346 14.4806 15.0049 14.433 15.0652C14.5411 14.9771 14.5731 14.9376 14.6464 14.856Z" fill="#202020"/>
<path d="M15.5429 13.9491L15.4699 14.0189C15.5319 13.9351 15.499 13.9712 15.4427 14.0451C15.3678 14.1215 15.3791 14.1242 15.3749 14.138L15.337 14.193L15.391 14.123C15.5083 14.006 15.5787 13.9335 15.5429 13.9491V13.9491Z" fill="#202020"/>
<path d="M19.2643 10.9719C18.9925 11.2272 18.9204 11.2914 18.9175 11.2599C18.6619 11.5046 18.7303 11.4953 18.5862 11.6531C18.866 11.3667 18.9318 11.3168 19.2643 10.9719V10.9719Z" fill="#202020"/>
<path d="M18.5862 11.6533L18.4887 11.7535C18.5222 11.7211 18.5547 11.6877 18.5862 11.6533V11.6533Z" fill="#202020"/>
<path d="M14.3018 14.8155L14.4393 14.6255L14.3828 14.6892L14.3018 14.8155Z" fill="#202020"/>
<path d="M19.6639 10.5896C19.614 10.6374 19.5364 10.7165 19.4921 10.749C19.4952 10.7803 19.7138 10.5418 19.6639 10.5896Z" fill="#202020"/>
<path d="M18.3114 11.2698C18.2742 11.286 18.1119 11.4609 18.0392 11.5255C18.1399 11.4293 18.2517 11.3806 18.3114 11.2698Z" fill="#202020"/>
<path d="M20.3493 9.7627C20.2993 9.81044 20.2125 9.87406 20.2309 9.82737C20.1683 9.9068 20.1025 10.0331 20.3493 9.7627Z" fill="#202020"/>
<path d="M18.7962 10.7913L18.7527 10.8231L18.5834 11.0144L18.7962 10.7913Z" fill="#202020"/>
<path d="M17.8999 11.1814C17.7175 11.4047 18.271 10.909 17.939 11.2757C18.411 10.8465 17.8754 11.2813 18.2112 10.9521C18.0096 11.1399 17.8883 11.2094 17.8999 11.1814V11.1814Z" fill="#202020"/>
<path d="M18.2111 10.9523C18.2405 10.925 18.2718 10.895 18.3051 10.8618L18.2111 10.9523Z" fill="#202020"/>
<path d="M21.1953 8.22681C21.168 8.25842 21.1502 8.28086 21.134 8.30191C21.1555 8.27701 21.1755 8.25277 21.1953 8.22681Z" fill="#202020"/>
<path d="M19.2559 9.87367L18.9826 10.2084C19.1652 9.9849 19.6773 9.4753 19.6149 9.47656C19.4432 9.63581 19.2523 9.84299 19.1837 9.93796L19.2559 9.87367Z" fill="#202020"/>
<path d="M23.3 6.93861L23.1807 7.08205L23.3483 6.92161C23.2967 6.96398 23.3592 6.85653 23.3 6.93861V6.93861Z" fill="#202020"/>
<path d="M23.3816 6.89062L23.3483 6.92262C23.3563 6.91619 23.3669 6.90614 23.3816 6.89062Z" fill="#202020"/>
<path d="M20.6349 8.81665C20.5345 8.91274 20.4568 8.9921 20.3727 9.08719C20.4156 9.05578 20.6657 8.81645 20.6349 8.81665Z" fill="#202020"/>
<path d="M24.1803 5.96913L23.9688 6.19119L24.203 5.95239L24.1803 5.96913Z" fill="#202020"/>
<path d="M23.1934 4.71362L23.1502 4.74523L22.9815 4.93595L23.0252 4.90374L23.1934 4.71362Z" fill="#202020"/>
<path d="M23.3191 5.73087C23.1689 5.87464 23.0816 6.01688 23.1258 5.98421L23.4095 5.698C23.3131 5.74641 23.3312 5.77775 23.1599 5.93686L23.3191 5.73087V5.73087Z" fill="#202020"/>
<path d="M15.7296 12.2673C15.7773 12.1876 16.0982 11.8851 16.1298 11.8841C16.0946 11.9326 15.9319 12.1079 16.0478 12.0115L16.255 11.7254C16.6076 11.422 16.0574 12.0265 15.9094 12.2025C16.2487 11.8735 16.3218 11.7485 16.6774 11.3931C16.5992 11.4667 16.5162 11.5351 16.4291 11.5978C16.3892 11.5822 16.7328 11.2633 16.9674 11.0243C16.8045 11.1629 16.8816 11.0656 16.9805 10.9449C16.9994 10.9242 17.0109 10.9095 17.0184 10.8983L17.0518 10.8572L17.0234 10.8856C17.0223 10.8805 17.0123 10.883 16.9866 10.8983C16.796 11.1051 16.6209 11.2338 16.4926 11.3614C16.6642 11.2801 16.0675 11.8075 15.9206 11.9822L15.7394 12.1723L15.67 12.2418C15.6511 12.2508 15.6647 12.2249 15.7616 12.1101C15.6821 12.2073 15.3842 12.499 15.4259 12.4863L14.7539 13.1597C14.7311 13.1788 14.7078 13.1975 14.689 13.2098C14.6685 13.2359 14.667 13.2421 14.6724 13.2414C13.8499 14.0656 13.0276 14.8899 12.2052 15.7123L12.1934 15.7026C12.1971 15.7084 12.201 15.7152 12.2052 15.723C12.2163 15.721 12.2317 15.7184 12.2511 15.7062C12.2438 15.7435 12.2529 15.7371 12.2708 15.7214L12.2773 15.7158C12.2802 15.7132 12.2784 15.7154 12.2925 15.7018C12.3133 15.682 12.333 15.6635 12.3497 15.6491C12.383 15.62 12.4037 15.6068 12.3944 15.6304C12.3719 15.6581 12.3456 15.6878 12.3172 15.7182C12.2981 15.7384 12.3009 15.7362 12.296 15.7416L12.2845 15.7534C12.2687 15.7685 12.2521 15.7799 12.2404 15.7849C12.239 15.8005 12.2469 15.806 12.2578 15.8094C12.2684 15.813 12.2821 15.8141 12.2847 15.8286C12.3024 15.8155 12.3183 15.8014 12.3317 15.7876C12.3352 15.7839 12.3829 15.7338 12.4091 15.7039C12.4683 15.6372 12.5148 15.5777 12.5608 15.5181C12.6528 15.399 12.7427 15.28 12.9286 15.1045C12.9315 15.136 12.8348 15.2627 13.069 15.0238L13.0125 15.0876C13.3721 14.6896 13.3464 14.8313 13.5378 14.5458L13.5563 14.5769C13.7095 14.3863 14.0436 14.0519 14.2286 13.8601L14.2221 13.8761C14.7222 13.3193 14.5128 13.5734 15.0944 12.9681L14.8501 13.2701C15.0668 13.0773 15.0815 12.9998 15.2318 12.8561C15.226 12.8713 15.2782 12.8553 15.1439 12.9986L15.8199 12.2345C15.9732 12.0439 15.7669 12.2511 15.7296 12.2673V12.2673Z" fill="#202020"/>
<path d="M16.6776 11.393C16.7232 11.3504 16.7677 11.3065 16.811 11.2615L16.6776 11.393Z" fill="#202020"/>
<path d="M12.1723 15.6816L12.1942 15.703C12.1889 15.6941 12.1813 15.6867 12.1723 15.6816V15.6816Z" fill="#202020"/>
<path d="M17.6557 10.307C17.5181 10.4191 17.7313 10.1956 17.7435 10.1643L17.2968 10.612C17.3083 10.6195 17.2747 10.6744 17.2924 10.6742L17.6557 10.307V10.307Z" fill="#202020"/>
<path d="M17.1492 10.7234C17.1407 10.7452 17.0993 10.7985 17.0519 10.8571L17.2967 10.6119C17.288 10.6063 17.254 10.6272 17.1492 10.7234Z" fill="#202020"/>
<path d="M17.7056 11.1851L17.6273 11.2651L17.5149 11.3922L17.7056 11.1851Z" fill="#202020"/>
<path d="M16.4254 12.3812C16.5345 12.3011 16.7029 12.1108 16.7592 12.0471C16.5529 12.2543 16.6371 12.1593 16.4254 12.3812Z" fill="#202020"/>
<path d="M16.836 12.2808L16.6449 12.4882L16.6663 12.4725L16.836 12.2808Z" fill="#202020"/>
<path d="M10.6101 14.3143L10.5111 14.2185C10.5557 14.2631 10.5855 14.2916 10.6101 14.3143Z" fill="#202020"/>
<path d="M12.166 15.8231C12.1183 15.7545 12.1282 15.7527 12.1452 15.7594C12.1632 15.7672 12.1923 15.7875 12.2053 15.7854C12.2143 15.7664 12.2156 15.7524 12.2094 15.7409C12.208 15.7431 12.2066 15.7453 12.2053 15.7467C12.1916 15.7418 12.1783 15.7358 12.1656 15.7288L12.1745 15.7187L12.1497 15.697L12.007 15.5573C12.0554 15.6384 12.103 15.6881 12.0717 15.6912C11.6573 15.2633 11.9593 15.538 11.672 15.2074L11.1981 14.7398L11.2413 14.7728C11.2013 14.7335 11.1817 14.7181 11.1652 14.7073L9.56807 13.1316C9.26586 12.8565 9.69684 13.3221 9.4587 13.1344C9.79332 13.4689 10.2722 13.9843 10.3348 13.9784C10.3189 13.9719 10.2873 13.9593 10.3511 14.0311L10.5727 14.1965L10.3972 14.0029C10.6198 14.1694 11.2418 14.8039 11.3379 14.935C10.9711 14.5873 11.1166 14.8004 10.6372 14.2842C10.6509 14.3153 10.7267 14.4216 10.6099 14.3143C10.9065 14.6009 11.1815 14.8788 11.4616 15.1569C11.6029 15.2975 11.7453 15.437 11.8888 15.5752L11.9992 15.6807L12.0551 15.7336L12.0823 15.7592L12.0919 15.767C12.1174 15.7877 12.1424 15.8068 12.166 15.8231V15.8231Z" fill="#202020"/>
<path d="M6.47769 10.1676L6.48562 10.1691C6.47311 10.16 6.46833 10.1577 6.47769 10.1676Z" fill="#202020"/>
<path d="M6.66904 10.3674L6.9868 10.6181L6.54094 10.1776L6.48523 10.1689C6.53039 10.2021 6.69766 10.3457 6.74866 10.415L6.66904 10.3674V10.3674Z" fill="#202020"/>
<path d="M7.33705 10.9277C7.09818 10.7089 7.08291 10.749 7.19513 10.8865C6.97214 10.6892 7.11405 10.7458 6.94007 10.6304C6.92486 10.6551 7.1956 10.9024 7.25875 10.9583L7.33705 10.9277V10.9277Z" fill="#202020"/>
<path d="M9.01114 12.631L8.9353 12.5781L9.09076 12.7398L9.01114 12.631Z" fill="#202020"/>
<path d="M8.93527 12.5782L8.78094 12.4177C8.78334 12.4371 8.78573 12.4562 8.80565 12.4878L8.93527 12.5782V12.5782Z" fill="#202020"/>
<path d="M8.37598 11.9966C8.30167 11.9176 8.22645 11.8395 8.15033 11.7622L8.37598 11.9966Z" fill="#202020"/>
<path d="M8.54896 12.1837L8.54724 12.1748L8.37598 11.9966L8.54896 12.1837V12.1837Z" fill="#202020"/>
<path d="M8.7811 12.4178C8.77493 12.3728 8.76543 12.3225 8.53241 12.1003L8.54728 12.1749L8.7811 12.4178V12.4178Z" fill="#202020"/>
<path d="M15.3574 13.7008L15.1884 13.8918L15.2104 13.8757L15.3793 13.6848L15.3574 13.7008Z" fill="#202020"/>
<path d="M14.3011 14.7217C14.2675 14.7608 14.2347 14.8007 14.2029 14.8413C14.2476 14.7922 14.2816 14.7517 14.3011 14.7217Z" fill="#202020"/>
<path d="M13.6618 15.6264C13.4306 15.8186 13.928 15.3085 13.5273 15.6918C13.4746 15.7082 13.635 15.5011 13.8286 15.3255C13.831 15.3573 13.6597 15.5163 13.7906 15.4202C13.8934 15.2779 13.9535 15.2447 13.885 15.2617C14.0752 15.0393 14.0799 14.998 14.2031 14.8413C13.9651 15.102 13.4151 15.599 13.1317 15.9486C12.9884 16.154 13.1364 16.0905 13.1804 16.1359C13.2172 16.1202 13.6743 15.673 13.6618 15.6264V15.6264Z" fill="#202020"/>
<path d="M14.0395 15.3378C14.1397 15.242 14.1679 15.2103 14.2242 15.1465C14.1928 15.1473 14.118 15.258 14.0395 15.3378Z" fill="#202020"/>
<path d="M11.3582 15.6508C11.3332 15.6384 11.148 15.4691 11.1751 15.5182L11.4518 15.7789C11.3898 15.7147 11.3753 15.6847 11.3582 15.6508Z" fill="#202020"/>
<path d="M11.5733 15.8933L11.452 15.7788C11.4809 15.8089 11.5182 15.8445 11.5733 15.8933Z" fill="#202020"/>
<path d="M11.3495 15.634L11.3586 15.6513C11.3638 15.6537 11.3645 15.6516 11.3495 15.634Z" fill="#202020"/>
<path d="M7.73496 11.3334C7.75103 11.3249 7.62393 11.2125 7.56018 11.156C7.60806 11.2059 7.67261 11.2786 7.73496 11.3334Z" fill="#202020"/>
<path d="M3.17848 6.8736L3.08246 6.75806C3.114 6.80122 3.13034 6.82333 3.17848 6.8736Z" fill="#202020"/>
<path d="M1.2132 5.57882C1.20759 5.57813 1.19748 5.57212 1.18469 5.56323C1.19713 5.57253 1.20677 5.57793 1.2132 5.57882Z" fill="#202020"/>
<path d="M1.18478 5.56347C1.10224 5.50138 0.894987 5.26232 0.799163 5.19764L0.814104 5.20309L0.734815 5.13303L0.705729 5.10733C0.70128 5.10348 0.696233 5.09863 0.692714 5.09611L0.684678 5.09146L0.669006 5.0813C0.683483 5.08874 0.738002 5.14472 0.784354 5.1904L0.937155 5.34048C1.03989 5.43989 1.13684 5.5304 1.18478 5.56347V5.56347Z" fill="#202020"/>
</svg>
