<svg viewBox="0 0 24 36" fill="none" xmlns="http://www.w3.org/2000/svg">
    <path d="M2.12 12.93c.07-2.86.9-5.04 2.48-6.55C6.21 4.86 8.48 4.1 11.4 4.1c1.9 0 3.52.32 4.87.97a6.87 6.87 0 0 1 4.07 6.37c0 1.68-.4 3-1.2 3.96a6.07 6.07 0 0 1-2.66 1.91v.14c2.88 1.08 4.32 3.09 4.32 6.02a7.18 7.18 0 0 1-4.18 6.8c-1.31.65-2.88.97-4.7.97-3.13 0-5.58-.74-7.35-2.23-1.78-1.49-2.69-3.82-2.74-6.98h7.78c-.05.86.07 1.52.36 1.98.31.43.84.64 1.58.64.43 0 .8-.15 1.08-.46.29-.34.43-.77.43-1.3 0-.67-.22-1.18-.68-1.51-.43-.36-1.18-.54-2.23-.54H8.82V14.4h1.3c1.62.1 2.44-.55 2.44-1.94 0-.6-.13-1.04-.4-1.33a1.16 1.16 0 0 0-.93-.43c-.89 0-1.33.74-1.33 2.23H2.12Z" fill="currentColor"/>
</svg>