<svg width="200" height="200" viewBox="0 0 200 200" fill="none" xmlns="http://www.w3.org/2000/svg">
<g clip-path="url(#clip0_4564_26461)">
<path d="M87.488 58.6046C83.0384 55.6124 80.0462 51.9225 78.1082 47.4884C77.271 45.5659 76.2942 44.9767 74.2477 44.9922C65.3795 45.0388 56.4958 44.8527 47.6741 43.7364C42.2787 43.0388 41.1624 42 40.3252 36.6977C39.1314 29.1628 38.1702 21.5969 38.1082 13.938C38.0617 8.34108 40.1702 5.98449 45.7671 5.24031C51.6586 4.44961 57.5345 5.36434 63.4105 5.24031C69.55 5.08527 75.6896 5.31782 81.8446 5.36434C84.5888 5.37984 87.3175 5.53488 89.9841 6.21705C93.7361 7.19379 95.8291 9.36434 95.9686 13.1938C96.2942 22.1395 96.2012 31.1163 95.333 40.031C94.8989 44.4651 93.5965 45.3178 89.0694 45.1163C85.0229 44.9302 84.9299 44.9457 85.55 48.9457C86.0307 52.031 86.7593 55.0698 87.488 58.6357V58.6046Z" fill="#F8DFD8"/>
<path d="M61.1006 156.884C54.1084 143.519 51.7053 128.884 49.2092 114.264C48.2014 108.341 46.6665 102.636 44.0619 97.2248C43.8758 96.6667 44.1549 96.5271 44.651 96.5581C45.0851 97.1628 45.5658 97.7364 45.9379 98.3721C47.7828 101.504 47.7828 101.535 51.2247 100.031C53.3487 99.1163 56.341 98.6357 57.2557 97.0078C58.1084 95.5039 55.7983 93.1008 55.1006 90.9922C54.3875 88.8682 53.6278 86.7752 53.2557 84.5581C53.0696 83.4419 53.0076 82.4031 54.3099 81.7985C56.7285 96.7132 66.3254 107.814 74.2479 120.124C76.4805 114.853 78.4185 109.845 81.2712 105.271C85.7983 98 91.5192 92.031 99.5968 88.6977C100.837 88.1861 101.147 87.3643 101.333 86.2791C102.356 80.3721 102.511 74.4186 102.325 68.4341C102 58.7907 102.124 49.1938 105.442 39.9225C107.907 33.0388 112.341 27.907 118.76 24.4961C124.651 21.3643 131.256 22.1705 136.046 26.6357C137.163 27.6899 138 28.7287 139.736 27.4574C140.403 26.9612 141.674 27.1473 142.651 27.2558C145.116 27.5349 145.504 28.1705 144.915 30.6357C143.876 34.9768 142.449 39.2093 140.636 43.4729C139.178 41.5969 138.356 39.5194 137.349 37.5504C135.969 34.8372 135.194 34.6822 132.992 36.8837C129.628 40.2326 127.132 44.2791 124.124 47.9535C124.744 48.3411 125.364 48.6202 125.829 49.0698C126.294 49.5194 126.775 50.2326 126.108 50.8062C125.287 51.4884 125.364 50.3566 125.008 50.1085C123.271 48.8992 122.356 50.8372 121.364 51.4109C119.24 52.6202 118.186 54.5581 118.682 57.4419C119.457 62.0155 120.806 66.2791 123.38 70.1395C124.574 71.938 126.031 73.3333 128.403 73.2093C127.333 74.8372 127.023 76.6667 127.07 78.5737C126.155 81.7364 125.721 85.1163 122.822 87.3178C122.062 87.8915 122.651 88.3101 122.977 88.7442C125.178 91.7054 127.953 94.031 131.008 96.093C132.465 97.0698 132.853 95.876 133.628 95.2868C134.015 94.9922 134.294 94.1705 135.008 94.8992C135.705 95.6124 134.884 95.876 134.605 96.2791C133.194 98.2636 131.674 98.5271 129.597 96.9923C126.217 94.4961 123.132 91.7674 121.07 88.0775C120.248 86.6202 119.519 86.4341 118.17 87.2868C112.899 90.6202 106.775 91.6589 100.977 93.5504C99.9844 93.876 99.2557 93.845 99.7983 92.4341C100.062 91.7519 100.17 91.0233 100.434 90.0155C96.7596 91.2713 93.8758 93.3954 91.1472 95.7519C84.1239 101.86 80.1394 109.907 76.5425 118.264C75.4727 120.729 75.6743 122.341 77.1472 124.527C81.2712 130.651 84.8836 137.07 86.2944 144.481C86.496 145.535 86.6975 146.558 86.496 147.643C85.8758 147.457 85.7983 146.868 85.7208 146.465C83.6743 136.543 78.0774 128.403 72.558 120.217C67.9689 113.426 63.0541 106.837 59.1782 99.5814C58.6045 98.5271 58.2014 98.2791 57.1937 99.1008C54.9146 100.946 52.2789 102.14 49.4262 102.884C48.62 103.085 48.1394 103.163 48.465 104.31C51.5503 115.411 52.434 126.977 55.6123 138.078C57.4107 144.388 59.4107 150.574 62.6355 156.31C62.8681 156.713 63.2402 157.054 63.5503 157.411C63.9379 157.612 63.9534 157.953 63.8603 158.31C63.6278 158.76 63.2557 159.023 62.7596 159.085C62.403 159.085 62.1084 158.915 61.8603 158.651C61.4417 158.109 61.1472 157.535 61.1472 156.822L61.1006 156.884Z" fill="#191919"/>
<path d="M169.286 90.5736C169.426 90.5736 169.55 90.5736 169.69 90.5891C172.899 91.1938 174.775 93.4884 176.217 96.093C180.635 104.031 184.294 112.264 185.69 121.364C187.085 130.419 188.031 139.457 186.418 148.574C185.721 152.543 184.496 156.31 182.031 159.566C178.155 164.682 172.279 166.124 167.348 163.194C164.961 161.783 163.472 159.535 162.356 157.116C157.1 145.798 155.1 133.938 156.496 121.488C157.317 114.093 158.263 106.667 157.643 99.1783C157.519 97.6899 157.162 96.2326 157.1 94.7442C157.038 93.3488 157.472 92.5116 158.961 92.3876C161.286 92.217 163.519 91.5349 165.767 90.9147C167.054 90.5581 168.077 90.7597 168.62 92.1085C173.519 104.434 179.814 116.279 181.24 129.752C181.597 133.039 182.031 136.341 181.969 139.302C182.852 132.326 180.124 119.984 177.348 112.713C175.069 106.744 172.434 100.915 170.077 94.9612C169.534 93.5814 168.294 92.2326 169.286 90.5426V90.5736Z" fill="#FEFEFE"/>
<path d="M137.891 82.124C139.364 81.0698 139.07 80.4496 137.488 79.8295C134.356 78.5891 131.271 77.2248 128.961 74.6046C128.403 73.4729 128.651 72.3101 128.837 71.1473C134.481 60.7132 139.876 50.1705 143.612 38.8682C144.946 34.8527 146.077 30.7907 147.411 26.7752C148.977 22.0465 150.806 20.8372 155.736 21.3488C159.054 21.6899 162.263 22.6046 165.24 24.093C169.736 26.3411 171.209 29.6434 170.17 35.3643C169.519 38.9457 168.744 42.4961 167.473 46.1705C164.325 44.5736 161.163 43.1628 157.736 42.4496C156.434 42.186 155.225 42.2326 154.279 43.2403C153.302 44.2946 153.876 45.3953 154.512 46.4806C152.946 47.0543 150.899 45.8605 150.046 47.9535C149.318 49.7364 150.837 50.6357 151.814 51.845C150.853 52.7287 149.411 52.9612 148.884 54.2946C148.294 55.7829 149.287 56.5736 150.17 57.3953C149.984 58.1395 149.271 58.1395 148.837 58.4806C146.775 60.1395 146.837 62.4031 149.163 63.7209C150.806 64.6512 152.605 65.3643 154.387 66.0155C155.953 66.5891 156.31 67.4419 155.488 68.8527C153.628 72.062 151.628 75.1473 150.589 78.8372C149.845 81.4884 146.077 82.7597 142.915 81.814C141.147 81.2868 139.752 81.3178 138.418 82.5891C137.922 82.7597 137.814 82.5426 137.907 82.1085L137.891 82.124Z" fill="#F8DFD8"/>
<path d="M169.287 90.5736C170.512 95.2248 172.698 99.5039 174.574 103.891C178.698 113.535 182.046 123.38 182.698 133.953C182.868 136.744 182.977 139.566 182.17 142.279C181.504 142.357 181.364 141.969 181.364 141.566C181.736 125.271 176.015 110.558 169.473 96.062C168.76 94.4806 168.589 92.0775 167.426 91.4729C166.31 90.8837 164.201 92.031 162.558 92.5426C160.93 93.0543 158.543 92.4031 157.783 93.6744C157.116 94.7907 158.077 96.8527 158.217 98.4961C158.884 106.403 157.907 114.233 157.054 122.062C155.736 134.233 157.814 145.86 162.93 156.915C164.682 160.698 167.302 163.922 172 164.062C176.698 164.202 179.984 161.674 182.357 157.86C185.783 152.372 186.512 146.155 186.574 139.922C186.713 125.023 183.891 110.791 176.403 97.6744C174.698 94.6822 172.512 92.3721 169.659 90.5736C169.194 89.4884 169.659 89.3953 170.512 89.7984C173.457 91.1783 175.628 93.3488 177.271 96.1705C183.907 107.581 187.24 119.938 187.984 133.07C188.388 140.233 188.139 147.333 185.814 154.217C185.039 156.512 183.969 158.636 182.45 160.543C178.496 165.504 172.713 166.713 167.116 163.736C166.76 163.55 166.403 163.38 166.046 163.194C165.473 164.76 164.961 166.233 164.403 167.705C164.279 168.047 164.263 168.62 163.659 168.434C163.147 168.279 163.209 167.86 163.287 167.426C163.628 165.116 162.62 159.519 161.659 157.504C156.263 146.233 154.325 134.357 155.55 121.922C156.31 114.186 157.969 106.481 156.791 98.6357C156.325 95.5194 155.612 92.4496 155.07 89.3488C154.899 88.3876 154.45 88.1085 153.473 87.9225C150.45 87.3798 147.457 86.6977 144.496 85.938C143.519 85.6899 142.388 85.5814 141.364 84.2481C145.953 84.5581 150 85.8915 154.201 86.5271C154.232 85.3178 153.674 84.4806 153.302 83.5969C151.225 78.6357 152.17 74.2636 155.736 70.3566C156.232 69.8139 156.791 69.3023 157.318 68.7752C159.039 67.0233 158.992 66.3876 156.837 65.3023C154.388 64.062 151.86 62.9457 149.473 61.5504C153.194 61.6744 156.45 63.0543 159.302 65.3333C160.465 66.2791 160.217 67.5814 159.333 68.6667C158.325 69.876 157.194 70.9922 156.201 72.2015C153.612 75.3488 152.961 78.8682 154.512 82.6667C155.519 85.1318 156.341 87.6434 156.775 90.2636C156.977 91.5194 157.364 91.969 158.713 91.5969C161.023 90.9457 163.38 90.4806 165.721 89.9535C166.868 89.7054 167.163 89.0853 166.744 88C166.481 87.3023 166.388 86.5426 166.124 85.8605C164.388 81.3643 165.457 77.3953 168.341 73.7674C169.783 71.9535 171.333 70.2171 172.775 68.3876C177.349 62.5581 176.853 57.7984 171.395 52.7597C168.093 49.7054 164.232 47.7364 160.077 46.217C159.008 45.8295 157.907 45.5194 156.806 44.6357C157.783 43.876 158.636 44.2015 159.442 44.4031C165.783 45.969 170.977 49.3798 175.147 54.3256C178.248 58.0155 178.108 62.0465 176.046 66.1705C174.682 68.8837 172.543 70.9922 170.636 73.2868C165.721 79.1938 165.38 83.5659 169.302 90.4961L169.287 90.5736Z" fill="#1A1A1A"/>
<path d="M137.892 82.124C138.062 82.2791 138.233 82.4496 138.403 82.6046C136.419 85.1163 134.992 87.7674 136.465 91.0543C136.992 92.2481 137.628 93.2248 138.775 91.4574C139.07 90.9922 139.597 90.6046 140.093 90.3721C141.551 89.7054 142.961 89.8915 143.752 91.3643C144.543 92.8217 143.675 93.876 142.434 94.6512C142.155 94.8217 141.814 94.8837 141.535 95.0543C140.527 95.6744 138.775 94.124 138.341 95.876C137.861 97.8605 138.264 99.845 140.047 101.287C141.008 100.589 141.52 99.4729 142.667 99.0077C144.31 98.3411 145.706 98.5426 146.434 100.186C147.241 101.969 146.047 102.946 144.543 103.581C144.171 103.736 143.737 103.783 143.334 103.891C142.295 104.186 141.039 102.636 140.186 104.109C139.287 105.659 139.179 107.442 139.442 109.194C139.597 110.279 140.109 111.24 140.853 112.062C141.783 113.07 142.667 113.473 143.628 112.031C144.124 111.287 144.791 110.605 145.783 110.45C146.837 110.295 147.845 110.388 148.279 111.535C148.667 112.589 148.372 113.535 147.38 114.109C146.806 114.434 146.171 114.62 145.551 114.868C144.527 115.256 143.179 114.419 142.388 115.752C141.303 117.55 140.388 119.426 140.481 121.581C140.558 123.07 140.961 124.512 141.814 125.814C142.713 127.209 143.504 128.543 145.194 126.465C146.047 125.411 147.365 125.287 148.558 126.186C149.411 126.822 149.628 127.705 149.225 128.62C148.667 129.922 147.365 130.713 146.202 130.31C143.644 129.426 143.613 131.116 143.396 132.667C143.148 134.496 143.194 136.326 144.233 137.969C144.729 138.76 145.272 139.411 145.954 138.093C146.109 137.798 146.31 137.519 146.512 137.271C147.303 136.264 148.171 135.318 149.628 135.845C150.76 136.248 151.318 137.147 151.349 138.341C151.396 139.907 150.481 140.76 149.132 141.287C148.977 141.349 148.791 141.333 148.651 141.411C147.69 141.969 145.938 140.264 145.566 142.31C145.116 144.791 145.116 147.287 146.93 149.38C147.597 150.14 148.093 150.078 148.667 149.225C149.163 148.465 149.752 147.736 150.434 147.147C151.303 146.388 152.372 146.062 153.38 146.884C154.496 147.783 154.279 148.992 153.69 150.047C152.946 151.395 151.659 151.922 150.155 152C149.473 152.031 148.775 151.752 148.31 152.76C147.008 155.566 148.186 160.171 150.713 161.752C151.644 162.326 152.31 162.465 152.76 161.194C153.148 160.093 153.783 159.101 154.76 158.388C155.566 157.798 156.45 157.628 157.318 158.186C158.295 158.806 158.465 159.752 158.155 160.822C157.582 162.729 156.186 163.705 154.31 163.829C153.039 163.907 152.822 164.527 152.822 165.55C152.837 168.202 153.644 170.434 156.016 171.891C157.023 172.512 157.814 172.682 158.357 171.318C158.558 170.806 159.008 170.372 159.411 169.953C160.186 169.163 161.117 168.946 162.14 169.38C162.884 169.69 163.334 170.264 163.396 171.085C163.489 172.279 162.744 172.899 161.814 173.364C161.597 173.473 161.334 173.535 161.132 173.659C160.465 174.078 159.21 173.38 159.023 174.481C158.837 175.55 159.458 176.558 160.124 177.426C161.442 179.116 163.489 179.473 165.334 180.155C167.861 181.101 169.163 182.915 169.473 185.55C169.783 188.31 168.651 191.349 166.419 192.961C167.334 190.729 168.372 188.868 168.403 186.698C168.465 183.736 167.551 182.202 164.744 181.209C161.318 180 158.233 178.574 157.814 174.357C157.752 173.674 157.085 173.55 156.543 173.318C153.132 171.86 151.706 169.147 151.845 165.581C151.892 164.186 151.551 163.426 150.264 162.682C147.194 160.884 146.047 157.442 147.085 153.271C147.411 151.953 147.194 151.24 146.264 150.279C143.938 147.891 144.171 144.822 144.574 141.814C144.667 141.054 144.884 140.465 144.264 139.767C141.845 137.085 141.628 133.969 142.775 130.698C143.132 129.674 143.101 128.992 142.248 128.093C139.023 124.729 138.403 120.775 140.62 116.682C141.489 115.085 141.628 114.279 140.155 112.884C137.737 110.605 137.752 107.535 138.837 104.558C139.303 103.271 139.597 102.217 138.372 101.256C138.186 101.116 138.093 100.853 137.954 100.651C136.527 98.5581 137.752 95.938 136.93 94.0155C136.062 91.9845 134.667 90.2325 134.884 87.845C135.085 85.4884 136.031 83.5659 137.954 82.155L137.892 82.124Z" fill="#F8DFD8"/>
<path d="M51.504 80.7287C52.8063 77.938 55.0389 75.7054 56.8683 72.7907C54.3722 72.5736 52.1086 72.3876 49.8606 72.155C49.38 72.1085 48.5427 72.3876 48.6358 71.4108C48.7133 70.4031 49.4885 70.8837 49.9536 70.9147C52.0621 71.1008 54.1551 71.3333 56.8683 71.6124C50.2637 66.062 44.1241 60.8992 37.9691 55.7519C34.5893 52.9302 31.1474 50.2015 27.8141 47.3333C26.6513 46.3411 26.0466 46.217 24.9614 47.5504C19.535 54.1705 14.4032 60.9767 9.566 68.0465C8.68228 69.3333 8.89934 69.876 9.98461 70.8062C17.9846 77.6744 26.5117 83.8915 34.8838 90.2791C36.6668 91.6434 38.4032 93.938 40.2637 94.031C41.9691 94.124 42.8528 90.9767 44.4497 89.5814C44.8993 89.1938 45.2249 88.1705 45.9536 88.7287C46.6823 89.3023 45.8606 89.907 45.4885 90.4031C44.2482 92.062 42.9148 93.6589 41.7055 95.3333C40.9458 96.3876 40.3102 96.4031 39.3024 95.5969C28.9769 87.3798 18.1862 79.7674 8.15515 71.1938C6.82182 70.0465 6.89934 69.3023 7.81406 67.9535C13.0544 60.2636 18.6358 52.8527 24.5583 45.6899C25.6125 44.4186 26.2792 44.1085 27.69 45.3023C37.628 53.7209 47.628 62.0775 57.6745 70.3876C59.1009 71.5659 59.2094 72.4031 58.0466 73.7829C56.0156 76.1705 54.1241 78.6667 52.1707 81.1163C51.9536 80.9767 51.7365 80.8372 51.5195 80.6822L51.504 80.7287Z" fill="#1A1A1A"/>
<path d="M90.8997 164.279C94.3416 159.302 95.6439 153.411 97.8919 147.922C99.7214 143.426 99.8764 139.24 98.1865 134.574C96.5276 129.985 95.6594 125.07 95.2873 119.938C96.4036 120.217 96.3726 120.93 96.5276 121.519C99.6284 133.457 102.264 145.535 106.528 157.132C107.303 159.225 108.202 161.256 109.039 163.333C109.613 163.736 109.954 164.248 109.83 164.992C109.613 165.721 109.659 166.574 108.9 167.054C105.38 159.736 103.008 152 100.776 144.202C99.8454 144.45 100.093 145.271 99.9229 145.845C97.7369 153.581 95.0082 161.101 90.5741 167.876C89.985 168.512 89.7834 169.674 88.5121 169.411C82.7602 173.349 76.4036 172.806 70.0935 167.845C69.5509 167.535 68.7757 167.628 68.4346 166.93C68.3416 166.729 68.3105 166.512 68.3105 166.279C68.4346 165.674 68.7757 165.271 69.4113 165.178C69.7989 165.24 69.8919 165.597 70.0935 165.845C71.4113 166.791 72.7447 167.752 74.0625 168.698C75.7834 168.589 77.1943 169.55 78.7602 169.969C80.2795 171.008 81.9384 170.543 83.5509 170.403C83.7059 170.341 83.8609 170.279 84.016 170.217C84.6051 169.302 85.5664 169.039 86.5431 168.806C87.2098 168.295 88.1865 168.248 88.5741 167.349C89.2408 166.233 89.6439 164.915 90.9152 164.248L90.8997 164.279Z" fill="#1C1C1C"/>
<path d="M26.2787 47.938C27.581 52.2636 28.8833 56.5736 30.1701 60.8992C30.8523 63.1938 31.612 65.4884 32.0926 67.8295C32.4027 69.3954 33.1159 69.7675 34.6197 69.7519C37.0228 69.7519 39.4104 70.031 41.8135 70.155C42.6973 70.2016 43.5035 70.2636 43.488 71.6434C39.9531 71.4419 36.4182 71.2403 32.8833 71.0388C32.0616 70.9923 31.488 70.6512 31.2399 69.7985C29.2244 62.8992 26.9918 56.0465 25.519 48.9923C25.4569 48.6977 25.581 48.3721 25.6275 48.062C25.8445 48 26.0771 47.9535 26.2942 47.8915L26.2787 47.938Z" fill="#1F1F1F"/>
<path d="M51.5965 90.0775C50.3407 89.8294 49.9376 88.8062 49.8445 88.0465C49.1003 81.7364 47.4724 75.6434 45.0693 69.7364C49.9841 75.6744 50.7438 82.8372 51.581 90.0775H51.5965Z" fill="#202020"/>
<path d="M169.287 59.876C164.791 54.7597 158.899 52.0465 152.76 49.7519C152.202 49.5504 151.613 49.2248 151.845 48.5116C152 48.062 152.574 48.1395 152.93 48.2636C159.209 50.4961 165.302 53.0698 169.535 58.5892C169.737 58.8527 169.892 59.1473 169.287 59.876Z" fill="#202020"/>
<path d="M165.69 65.7209C164.465 65.5039 164.062 64.3876 163.286 63.7364C159.798 60.6977 156.434 57.4729 151.721 56.3566C151.209 56.2326 150.387 56.155 150.589 55.3953C150.759 54.7907 151.488 54.6977 152.077 54.8527C153.038 55.1008 154.015 55.3178 154.899 55.7519C158.666 57.5814 161.891 60.155 164.589 63.3488C165.116 63.9845 165.907 64.6357 165.674 65.7519L165.69 65.7209Z" fill="#222222"/>
<path d="M128.837 59.4418C128.263 55.3023 128.713 51.2403 129.674 47.1938C129.969 47.2093 130.279 47.2248 130.573 47.2558C130.31 51.3333 130.031 55.4263 129.767 59.5039C129.457 59.4884 129.147 59.4729 128.821 59.4418H128.837Z" fill="#292929"/>
<path d="M165.41 19.1783C165.023 15.2403 165.969 11.6124 168.031 8.24806C168.186 12.124 166.992 15.6899 165.41 19.1783Z" fill="#272727"/>
<path d="M156.698 17.1938C155.364 13.1938 154.791 9.13178 155.86 4.99225C156.744 9.00775 156.837 13.0853 156.698 17.1938Z" fill="#262626"/>
<path d="M149.318 21.2713C147.023 20.3876 143.752 16.2946 143.721 14.4806C143.721 14.093 143.628 13.6124 144.109 13.4574C144.264 13.4108 144.636 13.5814 144.698 13.7364C145.814 16.4186 148.279 18.3101 149.318 21.2713Z" fill="#242424"/>
<path d="M109.426 164.853L110.419 166.388C110.217 167.705 111.039 168.667 111.581 169.721C111.83 170.233 112.093 170.744 111.395 171.163C110.512 171.69 110.465 170.837 110.217 170.434C109.566 169.38 109.008 168.295 108.884 167.039C109.07 166.31 108.729 165.457 109.442 164.853H109.426Z" fill="#191919"/>
<path d="M138.791 48.124C137.535 45.7674 135.861 44.9147 133.163 44.8682C136.512 43.3023 139.039 44.8372 138.791 48.124Z" fill="#393939"/>
<path d="M136.961 52.3101C135.814 50.5116 134.671 50.0465 133.534 50.9147C132.93 50 133.364 49.3333 134.108 48.8837C134.852 48.4341 135.721 48.4341 136.403 49.0388C137.333 49.845 137.767 50.8217 136.961 52.3256V52.3101Z" fill="#2D2D2D"/>
<path d="M128.837 71.1473C128.884 72.2946 128.93 73.4419 128.961 74.6046C128.016 74.6046 127.427 74.8992 127.458 76.031C127.473 76.8992 127.752 77.845 127.023 78.6046C127.101 76.7287 126.682 74.7287 128.357 73.2403C128.45 72.5271 128.186 71.7364 128.837 71.1473Z" fill="#D8E5F0"/>
<path d="M126.884 64.7752C128 64.6977 128.62 65.3178 129.364 65.5969C129.892 65.7985 130.636 65.938 130.202 66.7442C129.814 67.4419 129.225 67.1163 128.713 66.8062C127.954 66.3566 127.039 66.0465 126.884 64.7752Z" fill="#2A2A2A"/>
<path d="M78.5889 170.45C78.9144 170.419 79.24 170.372 79.5656 170.341C80.8834 170.822 82.2168 170.496 83.5501 170.434C81.9067 171.101 80.2478 171.085 78.6044 170.434L78.5889 170.45Z" fill="#1E1E1E"/>
<path d="M44.6511 96.5581C44.4496 96.7752 44.2635 96.9922 44.062 97.2248C43.5038 96.6667 42.9612 96.093 43.2558 95.1628C44.1085 95.2868 44.372 95.938 44.6511 96.5736V96.5581Z" fill="#383838"/>
<path d="M80.2788 26.2326C80.0927 27.7519 79.302 28.8217 77.5811 28.7597C75.6741 28.6822 74.7284 27.4264 74.7129 25.6589C74.7129 24.2171 75.4571 23.1008 77.1005 23.0078C78.7749 22.9147 80.3098 24.4496 80.2788 26.2326Z" fill="#FAFCFE"/>
<path d="M66.8372 23.2093C68.2171 23.1628 69.9535 24.6667 69.8295 26.2171C69.7054 27.6899 68.8992 28.7287 67.3178 28.7597C65.4264 28.7907 64.3721 27.6124 64.2791 25.845C64.2016 24.4341 64.7907 23.2403 66.8372 23.2093Z" fill="#FBFCFE"/>
<path d="M55.9694 23.1163C57.8144 23.3798 59.0857 24.9302 58.7756 26.5736C58.4811 28.1395 57.3958 28.8837 55.9074 28.6977C54.0625 28.4651 53.1942 27.1163 53.3183 25.3488C53.4268 23.8605 54.326 22.9457 55.9694 23.1163Z" fill="#FAFCFE"/>
<path d="M111.411 42.5271C110.496 37.4419 114.248 31.1938 119.674 27.6744C123.132 25.4264 125.659 25.0543 127.767 26.5116C118.357 27.3488 113.985 33.6124 111.426 42.5271H111.411Z" fill="#F6F6F6"/>
<path d="M64.6974 162.264C63.9997 161.132 63.302 160.016 62.5889 158.884C62.9765 158.698 63.3641 158.512 63.7517 158.326C64.0152 158.512 64.2633 158.698 64.5269 158.884C66.0307 160.155 67.24 161.674 68.0772 163.473C68.5579 164.109 69.0385 164.744 69.5191 165.38C69.209 165.721 68.8834 166.062 68.5734 166.419C67.8912 165.752 67.1935 165.085 66.5114 164.419C65.7517 163.829 64.8834 163.349 64.6974 162.279V162.264Z" fill="#1E1E1E"/>
<path d="M125.458 79.2248C125.132 81.7054 124.279 83.969 122.589 85.8605C122.264 86.217 121.923 86.9767 121.225 86.4031C120.527 85.845 120.806 85.3023 121.318 84.7442C123.101 82.8527 124 80.4806 124.961 78.124C125.907 78.124 125.659 78.6977 125.458 79.2248Z" fill="#F5F5F5"/>
<path d="M138.17 33.0698C137.364 32.7597 137.348 32.3101 137.504 31.938C137.845 31.1473 138.124 29.5969 138.883 29.9225C140.046 30.4186 138.604 31.3178 138.496 32.0775C138.449 32.3876 138.294 32.6822 138.17 33.0543V33.0698Z" fill="#C9C9C9"/>
<path d="M125.457 79.2248C125.411 78.8062 125.38 78.3876 124.961 78.124C125.147 77.1008 125.333 76.062 125.535 75.0388C126.046 76.4496 126.139 77.845 125.457 79.2248Z" fill="#F1F1F1"/>
<path d="M150.31 138.388C150.093 139.783 149.287 140.388 148.062 140.372C147.473 140.372 146.404 140.434 146.636 139.535C146.931 138.357 147.597 137.132 149.008 136.961C149.969 136.837 150.047 137.814 150.31 138.388Z" fill="#F1F8FE"/>
<path d="M156.186 158.977C156.868 159.116 157.318 159.504 157.178 160.155C156.852 161.69 155.798 162.496 154.294 162.744C153.705 162.837 153.287 162.636 153.581 161.953C154.139 160.698 154.697 159.411 156.17 158.977H156.186Z" fill="#EBF5FE"/>
<path d="M140.434 94.1085C139.876 93.9535 138.837 94.279 139.101 93.2093C139.411 92.0155 140.356 91.2558 141.628 91.1938C142.325 91.1628 142.961 91.6279 142.822 92.4341C142.589 93.7054 141.581 94.0465 140.434 94.1085Z" fill="#F2F8FE"/>
<path d="M143.086 102.636C142.559 102.465 141.411 102.806 141.597 101.922C141.83 100.76 142.853 100.016 144.171 100C144.946 100 145.52 100.357 145.38 101.194C145.194 102.465 144.155 102.605 143.086 102.636Z" fill="#F7FBFE"/>
<path d="M149.427 150.667C149.318 149.922 149.814 149.426 150.186 148.915C150.698 148.233 151.349 147.705 152.248 147.767C152.729 147.798 152.915 148.217 152.9 148.667C152.884 149.736 152.186 150.279 151.303 150.651C150.682 150.915 150.047 151.07 149.411 150.682L149.427 150.667Z" fill="#F3F9FE"/>
<path d="M143.969 113.891C144.542 112.45 145.194 111.519 146.651 111.581C147.07 111.597 147.473 112 147.271 112.45C146.651 113.783 145.442 113.814 143.969 113.907V113.891Z" fill="#E1F1FE"/>
<path d="M148.217 127.953C147.954 128.915 147.225 129.24 146.357 129.132C145.892 129.07 144.961 129.209 145.085 128.403C145.241 127.442 146.062 126.93 147.054 126.93C147.69 126.93 148.109 127.287 148.202 127.969L148.217 127.953Z" fill="#F1F8FE"/>
<path d="M158.931 172.899C159.504 171.333 159.938 170.264 161.396 170.372C161.923 170.419 162.404 170.868 162.233 171.38C161.752 172.868 160.45 172.698 158.931 172.915V172.899Z" fill="#F7FBFE"/>
<path d="M98.0463 165.333C97.1471 166.062 96.4494 165.876 95.4727 165.566C96.2634 164.512 96.93 164.31 98.0463 165.333Z" fill="#FAFAFA"/>
</g>
<defs>
<clipPath id="clip0_4564_26461">
<rect width="200" height="200" fill="white"/>
</clipPath>
</defs>
</svg>
