<svg xmlns="http://www.w3.org/2000/svg" viewBox="0 0 263 236" fill="none"><g clip-path="url(#a)"><path stroke="#414141" stroke-linecap="round" stroke-linejoin="round" stroke-width="4.891" d="M193.681 63.23c-6.114 0-11.127 5.014-11.127 11.25v25.555c0 6.236 5.013 11.249 11.127 11.249h2.323c.611 0 1.1.489 1.1 1.101v8.192c0 .978 1.223 1.467 1.957.856l11.493-9.904c.245-.163.53-.245.856-.245h16.14a11.22 11.22 0 0 0 11.249-11.249V74.48a11.22 11.22 0 0 0-11.249-11.25h-33.869ZM249.136 123.756c5.869 0 10.638 4.769 10.638 10.638v23.721c0 5.869-4.769 10.638-10.638 10.638h-1.956c-.612 0-1.101.489-1.101 1.1v7.703c0 .856-1.1 1.345-1.711.734l-10.883-9.171c-.163-.244-.407-.366-.733-.366h-15.04c-5.869 0-10.638-4.769-10.638-10.638v-23.721c0-5.869 4.769-10.638 10.638-10.638h31.424ZM150.885 61.886l1.834 1.834M160.911 71.912l1.834 1.834M150.885 73.746l1.834-1.834M160.911 63.72l1.834-1.834"/><path stroke="#414141" stroke-linecap="round" stroke-linejoin="round" stroke-width="4.891" d="M210.432 92.332v-.49c0-1.711 1.101-3.056 2.69-3.667 2.69-1.1 4.524-3.668 4.402-6.603-.122-3.668-3.179-6.603-6.847-6.725-2.201 0-4.035.856-5.38 2.2a6.482 6.482 0 0 0-1.59 2.569M210.432 100.036v-.245M233.118 148.089v-11.494M233.118 156.649v-.124"/><path stroke="#414141" stroke-linecap="round" stroke-linejoin="round" stroke-width="5.006" d="m84.43 43.818 25.093-6.531c6.298-1.64 12.769 2.159 14.408 8.456l11.701 44.954M124.734 189.119l-73.05 19.014c-6.298 1.639-12.672-2.184-14.311-8.482L5.346 76.611c-1.64-6.298 2.062-12.745 8.36-14.384l25.092-6.531"/><path stroke="#414141" stroke-linecap="round" stroke-linejoin="round" stroke-width="5.006" d="M83.216 53.858 44.85 63.845c-2.034.53-4.085-.592-4.614-2.627L37.36 50.173c-.505-1.937.714-4.013 2.748-4.542l38.366-9.987c1.938-.504 4.013.714 4.518 2.652l2.875 11.044a3.695 3.695 0 0 1-2.652 4.518Z"/><path stroke="#414141" stroke-linecap="round" stroke-linejoin="round" stroke-width="4.004" d="m30.901 87.751 4.004 2.268 4.346-7.545M68.281 141.538l10.851-2.824M73.501 161.593l7.266-1.892M35.642 105.965l4.005 2.268 4.371-7.448M40.862 126.02l4.004 2.268 4.372-7.448M53.245 141.003l-6.782 1.766a.683.683 0 0 0-.501.854l1.765 6.782c.076.291.467.603.855.502l6.781-1.766c.388-.1.578-.564.502-.854l-1.765-6.782a.684.684 0 0 0-.855-.502ZM58.465 161.058l-6.782 1.765a.685.685 0 0 0-.502.855l1.766 6.782c.1.387.467.602.854.502l6.782-1.766a.684.684 0 0 0 .502-.854l-1.765-6.782a.684.684 0 0 0-.855-.502ZM62.809 120.514l23.639-6.153M57.588 100.46l45.535-11.853M52.848 82.246l45.535-11.853"/><path stroke="#414141" stroke-linecap="round" stroke-linejoin="round" stroke-width="4.89" d="m187.417 132.416-16.154-13.139c-.113-.113-.227-.284-.227-.455v-15.584c0-.74-.626-1.365-1.365-1.365h-7.565c-.739 0-1.422.625-1.422 1.365v6.484c0 .455-.512.739-.91.455L146.18 99.142c-1.593-1.25-3.868-1.25-5.403 0l-35.947 29.065-5.233 4.209c-3.128 2.56-1.365 7.679 2.73 7.679h7.11c.682 0 1.251.569 1.251 1.308v32.307c0 2.389 1.934 4.266 4.323 4.266H173.652c2.389 0 4.323-1.877 4.323-4.266v-32.307c0-.739.569-1.308 1.251-1.308h5.461c4.038 0 5.858-5.119 2.73-7.679Z"/><path fill="#C1121F" d="M150.099 149.142c-.279 0-.543.041-.794.125-.459.083-.96-1.712-2.422-3.466-.96-1.128-2.171-1.796-3.549-1.796-1.337 0-2.589.668-3.508 1.754-1.462 1.712-1.963 3.508-2.297 3.466a2.299 2.299 0 0 0-.626-.083c-2.172 0-3.967 2.38-3.967 5.303s1.795 5.262 3.967 5.262c.751 0 2.338-.46 3.048-.752 2.005-.71 5.596-.626 7.016-.083.751.334 2.338.835 3.132.835 2.171 0 3.967-2.339 3.967-5.262 0-2.923-1.796-5.303-3.967-5.303ZM133.686 142.502c-.835-2.631-3.132-4.217-5.178-3.549-2.046.71-3.048 3.424-2.213 6.055.793 2.631 3.09 4.218 5.136 3.549 2.046-.709 3.049-3.382 2.255-6.055ZM138.656 140.581c2.38-.417 3.883-3.299 3.382-6.389-.501-3.09-2.839-5.261-5.22-4.802-2.422.417-3.925 3.299-3.424 6.389.501 3.09 2.84 5.22 5.262 4.802ZM158.492 138.953c-2.046-.668-4.343.918-5.178 3.549-.794 2.673.208 5.346 2.255 6.055 2.046.669 4.343-.918 5.136-3.549.835-2.631-.167-5.345-2.213-6.055ZM148.343 140.623c2.423.417 4.803-1.754 5.304-4.886.543-3.132-1.002-6.055-3.424-6.473-2.422-.459-4.803 1.754-5.304 4.886-.543 3.132 1.002 6.014 3.424 6.473Z"/></g><defs><clipPath id="a"><path fill="#fff" d="M0 .204h262.5v235.592H0z"/></clipPath></defs></svg>