<svg  viewBox="0 0 263 236" fill="none" xmlns="http://www.w3.org/2000/svg">
<g clip-path="url(#clip0_4808_31383)">
<path d="M193.681 63.2309C187.567 63.2309 182.554 68.2441 182.554 74.48V100.035C182.554 106.271 187.567 111.284 193.681 111.284H196.004C196.615 111.284 197.104 111.773 197.104 112.385V120.577C197.104 121.555 198.327 122.044 199.061 121.433L210.554 111.529C210.799 111.366 211.084 111.284 211.41 111.284H227.55C233.786 111.284 238.799 106.271 238.799 100.035V74.48C238.799 68.2441 233.786 63.2309 227.55 63.2309H193.681Z" stroke="#414141" stroke-width="4.89093" stroke-linecap="round" stroke-linejoin="round"/>
<path d="M249.136 123.756C255.005 123.756 259.774 128.525 259.774 134.394V158.115C259.774 163.984 255.005 168.753 249.136 168.753H247.18C246.568 168.753 246.079 169.242 246.079 169.853V177.556C246.079 178.412 244.979 178.901 244.368 178.29L233.485 169.119C233.322 168.875 233.078 168.753 232.752 168.753H217.712C211.843 168.753 207.074 163.984 207.074 158.115V134.394C207.074 128.525 211.843 123.756 217.712 123.756H249.136Z" stroke="#414141" stroke-width="4.89093" stroke-linecap="round" stroke-linejoin="round"/>
<path d="M150.885 61.886L152.719 63.7201" stroke="#414141" stroke-width="4.89093" stroke-linecap="round" stroke-linejoin="round"/>
<path d="M160.911 71.9122L162.745 73.7463" stroke="#414141" stroke-width="4.89093" stroke-linecap="round" stroke-linejoin="round"/>
<path d="M150.885 73.7463L152.719 71.9122" stroke="#414141" stroke-width="4.89093" stroke-linecap="round" stroke-linejoin="round"/>
<path d="M160.911 63.7201L162.745 61.886" stroke="#414141" stroke-width="4.89093" stroke-linecap="round" stroke-linejoin="round"/>
<path d="M210.187 177.679C207.375 184.893 200.406 190.028 192.213 190.028C184.632 190.028 161.767 190.028 161.767 190.028C161.278 190.028 160.911 190.151 160.544 190.517L143.793 207.269C141.47 209.592 137.679 208.003 137.679 204.823V191.618C137.679 190.762 136.946 190.028 135.968 190.028H132.911C122.395 190.028 113.714 181.347 113.714 170.831V119.354C113.714 108.717 122.395 100.158 132.911 100.158H171.06" stroke="#414141" stroke-width="4.89093" stroke-linecap="round" stroke-linejoin="round"/>
<path d="M210.432 92.332V91.8429C210.432 90.131 211.533 88.786 213.122 88.1747C215.812 87.0742 217.646 84.5065 217.524 81.572C217.402 77.9038 214.345 74.9692 210.677 74.8469C208.476 74.8469 206.642 75.7028 205.297 77.0478C204.563 77.7815 204.033 78.6373 203.707 79.6155" stroke="#414141" stroke-width="4.89093" stroke-linecap="round" stroke-linejoin="round"/>
<path d="M210.432 100.036V99.7906" stroke="#414141" stroke-width="4.89093" stroke-linecap="round" stroke-linejoin="round"/>
<path d="M233.118 148.089V136.595" stroke="#414141" stroke-width="4.89093" stroke-linecap="round" stroke-linejoin="round"/>
<path d="M233.118 156.649V156.525" stroke="#414141" stroke-width="4.89093" stroke-linecap="round" stroke-linejoin="round"/>
<path d="M172.161 125.101C172.161 120.577 168.492 117.031 164.091 117.031C159.689 117.031 156.021 120.577 156.021 125.101C156.021 129.503 159.689 133.049 164.091 133.049C168.492 133.049 172.161 129.503 172.161 125.101Z" stroke="#C1121F" stroke-width="4.89093" stroke-linecap="round" stroke-linejoin="round"/>
<path d="M158.099 148.211V165.696H157.855C155.776 165.696 154.064 167.285 154.064 169.364C154.064 171.443 155.776 173.032 157.733 173.032L171.305 173.154C173.384 173.154 175.095 171.443 175.095 169.486C175.095 167.408 173.384 165.696 171.305 165.696H171.06V143.442C171.06 142.097 169.96 140.874 168.615 140.874H157.855C155.776 140.874 154.064 142.464 154.064 144.542C154.064 146.621 155.776 148.211 157.855 148.211H158.099Z" stroke="#C1121F" stroke-width="4.89093" stroke-linecap="round" stroke-linejoin="round"/>
<path d="M84.4307 43.8182L109.523 37.2867C115.821 35.6475 122.292 39.4457 123.931 45.7431L135.632 90.6968" stroke="#414141" stroke-width="5.00556" stroke-linecap="round" stroke-linejoin="round"/>
<path d="M124.734 189.119L51.6838 208.133C45.3864 209.772 39.0119 205.949 37.3728 199.651L5.34585 76.6101C3.70667 70.3127 7.40804 63.8665 13.7054 62.2274L38.7981 55.6959" stroke="#414141" stroke-width="5.00556" stroke-linecap="round" stroke-linejoin="round"/>
<path d="M83.2159 53.8582L44.8503 63.8446C42.8158 64.3741 40.7652 63.2527 40.2357 61.2182L37.3608 50.1735C36.8564 48.2359 38.0748 46.1601 40.1093 45.6306L78.4749 35.6442C80.4126 35.1399 82.4883 36.3582 82.9927 38.2958L85.8675 49.3405C86.3971 51.375 85.1536 53.3539 83.2159 53.8582Z" stroke="#414141" stroke-width="5.00556" stroke-linecap="round" stroke-linejoin="round"/>
<path d="M30.9011 87.7512L34.9052 90.0193L39.2515 82.4743" stroke="#414141" stroke-width="4.00445" stroke-linecap="round" stroke-linejoin="round"/>
<path d="M68.2812 141.538L79.1321 138.714" stroke="#414141" stroke-width="4.00445" stroke-linecap="round" stroke-linejoin="round"/>
<path d="M73.501 161.593L80.7672 159.701" stroke="#414141" stroke-width="4.00445" stroke-linecap="round" stroke-linejoin="round"/>
<path d="M35.6425 105.965L39.6466 108.233L44.0181 100.785" stroke="#414141" stroke-width="4.00445" stroke-linecap="round" stroke-linejoin="round"/>
<path d="M40.8622 126.02L44.8663 128.288L49.2378 120.84" stroke="#414141" stroke-width="4.00445" stroke-linecap="round" stroke-linejoin="round"/>
<path d="M53.2451 141.003L46.4633 142.769C46.0758 142.869 45.8608 143.236 45.9617 143.623L47.7269 150.405C47.8026 150.696 48.1941 151.008 48.5816 150.907L55.3634 149.141C55.751 149.041 55.9408 148.577 55.8651 148.287L54.0998 141.505C53.999 141.117 53.6327 140.902 53.2451 141.003Z" stroke="#414141" stroke-width="4.00445" stroke-linecap="round" stroke-linejoin="round"/>
<path d="M58.4648 161.058L51.683 162.823C51.2955 162.924 51.0805 163.291 51.1814 163.678L52.9467 170.46C53.0475 170.847 53.4138 171.062 53.8014 170.962L60.5832 169.196C60.9707 169.095 61.1857 168.729 61.0848 168.342L59.3196 161.56C59.2187 161.172 58.8524 160.957 58.4648 161.058Z" stroke="#414141" stroke-width="4.00445" stroke-linecap="round" stroke-linejoin="round"/>
<path d="M62.8086 120.514L86.448 114.361" stroke="#414141" stroke-width="4.00445" stroke-linecap="round" stroke-linejoin="round"/>
<path d="M57.5879 100.46L103.123 88.607" stroke="#414141" stroke-width="4.00445" stroke-linecap="round" stroke-linejoin="round"/>
<path d="M52.8477 82.2455L98.3826 70.393" stroke="#414141" stroke-width="4.00445" stroke-linecap="round" stroke-linejoin="round"/>
</g>
<defs>
<clipPath id="clip0_4808_31383">
<rect width="262.5" height="235.592" fill="white" transform="translate(0 0.203949)"/>
</clipPath>
</defs>
</svg>
