<svg xmlns="http://www.w3.org/2000/svg" viewBox="0 0 264 236" fill="none"><path fill="#414141" fill-rule="evenodd" d="M26.57 133.822 10.474 71.989c-1.623-6.235 2.231-12.658 8.538-14.3l92.821-24.16c6.226-1.621 12.711 2.127 14.33 8.346l.005.016 3.249 12.858a2.314 2.314 0 1 1-4.487 1.134l-3.245-12.842-.002-.007c-.97-3.707-4.899-6.012-8.685-5.027l-92.82 24.161c-3.9 1.015-6.188 4.96-5.226 8.655l16.355 62.832.01.042 16.095 61.832c.963 3.699 4.874 6.005 8.65 5.043l22.434-6.678a2.314 2.314 0 1 1 1.32 4.436l-22.474 6.69a2.123 2.123 0 0 1-.078.022c-6.226 1.62-12.712-2.128-14.33-8.347l-16.356-62.833-.01-.04Z" clip-rule="evenodd"/><path stroke="#414141" stroke-linecap="round" stroke-linejoin="round" stroke-width="4.628" d="m40.223 99.007 40.092-9.559M44.047 113.695l35.11-9.206M47.87 128.383l31.287-7.695M51.693 143.072l27.465-7.343M62.085 182.995l17.07-4.443M196.92 194.275v11.613c0 5.296-4.384 9.677-9.788 9.677H88.844c-5.302 0-9.686-4.381-9.686-9.677V91.496c0-.305.102-.611.407-.917l26.204-26.178c.306-.306.612-.408 1.019-.408h80.344c5.404 0 9.788 4.38 9.788 9.677v10.594"/><path stroke="#414141" stroke-linecap="round" stroke-linejoin="round" stroke-width="4.628" d="M79.157 90.987h21.106c3.263 0 6.016-2.649 6.016-6.01V63.993M99.855 109.322h76.368M99.855 124.5h76.368M99.855 139.677h76.368M99.855 154.854h37.317M99.855 196.109h17.639"/><path stroke="#C1121F" stroke-linecap="round" stroke-linejoin="round" stroke-width="4.628" d="M135.541 200.183c5.404-9.065 8.768-14.872 12.949-3.565 4.69-4.176 7.341-4.278 9.38 1.019 8.463-6.418 21.309-10.39 21.309-10.39M214.254 163.92l22.94-79.147c.612-2.24-.611-4.584-2.854-5.195l-18.965-5.5c-2.243-.612-4.588.61-5.302 2.852l-22.839 78.739c-1.529 5.195-1.223 10.696.918 15.585l5.71 13.752 11.827-8.862c4.078-3.056 7.137-7.334 8.565-12.224ZM187.438 155.058l27.121 7.844"/><path stroke="#C1121F" stroke-linecap="round" stroke-linejoin="round" stroke-width="4.628" d="m207.218 86.81 31.403 9.168c2.651.713 4.283 3.565 3.467 6.316l-8.157 27.91M220.167 75.096l1.836-6.62c.407-1.02 1.529-1.733 2.651-1.427l5.199 1.528c1.122.407 1.734 1.528 1.428 2.648l-1.937 6.622M213.336 102.905l-6.628 22.919"/></svg>