<svg viewBox="0 0 177 160" fill="none" xmlns="http://www.w3.org/2000/svg">
<path d="M89.62 19.2c-2.6-1.16-5.1-2.5-7.51-4C67.48 4.75 51.76 2.62 34.96 9.17 13.92 17.35 2.22 39.74 6.54 62.05c5.13 26.5 21.04 46.52 40.8 63.65 11.34 9.77 24.2 17.9 36.6 26.41a8.73 8.73 0 0 0 7.65.64c27.42-16 51.84-35.38 68.03-62.88 8.55-14.5 13.73-30.06 10.06-47.3a45.48 45.48 0 0 0-8.02-18.06 46.65 46.65 0 0 0-15-13.12 47.9 47.9 0 0 0-39.16-3.14c-2.98 1.03-6.02 1.87-9.03 2.8L97.21 9.2c1.32-1.44 2.37-3.41 4.02-4.21 31.41-15.43 71.89 6.88 75.02 41.18 2.18 23.6-7.9 43.06-21.7 60.97-16.92 22.07-39.02 38.38-63.1 52.23a7.54 7.54 0 0 1-6.28-.1c-29.62-17.33-56.33-37.75-73.62-67.91C1.84 74.37-3.38 56.44 2.43 37.19 7.96 18.94 20.83 7.24 39.58 2.05 58.02-3 74.25 1.74 88.65 13.55a11.5 11.5 0 0 1 1.9 2.1c.2.41.33.85.37 1.3l-1.3 2.25Z" fill="#020202"/>
<path d="M80.15 63.55A56.69 56.69 0 0 1 79.64 97c-3.16 9.59-11.05 13.9-21.78 12.58-8.47-1.03-14-7.08-14.63-16.98-1.1-17.78 1.38-34.9 12.45-49.66 11.07-14.77 39.5-17.11 53.29-4.72 1.03.94 2.39 1.87 2.8 3.09 3.4 9.94 12.57 12.5 21.04 15.44 6.94 2.4 8.8 6.37 7.65 13.22-2.33 14.98-9.73 21.64-24.97 21.68-16.71 0-17.21.35-15.68 16.84.48 5.28 2.2 10.45 2.87 15.73.19 1.52-1.28 3.24-1.92 4.89-1.09-1.24-3.04-2.42-3.13-3.75a796.59 796.59 0 0 1-2.09-33.7c-.17-3.87 2.17-5.72 6.41-5.52 5.45.28 10.92.12 16.39 0 10.23 0 18.7-10 16.55-19.73a6.9 6.9 0 0 0-3.42-3.91 80.6 80.6 0 0 0-12.35-5.32c-5.35-1.7-9.14-4.19-10.5-10.05-.8-2.7-2.66-4.97-5.16-6.34-15-7.68-35.4-8.92-46.17 9.36a71.09 71.09 0 0 0-9.26 39.55c.36 9.7 4.15 13.72 12.03 14.49 7.88.77 13.57-3 15.3-12.24 1.28-7.23.63-14.75.99-22.15.24-2.28.6-4.55 1.1-6.8l2.7.55Z" fill="#020202"/>
</svg>