<svg viewBox="0 0 92 107" fill="none" xmlns="http://www.w3.org/2000/svg">
<path d="M82.905 51.726v4.04c0 14.876.008 29.761 0 44.638 0 5.097-1.387 6.455-6.478 6.463H14.802c-5.473 0-6.67-1.258-6.67-6.872.009-14.984.017-29.97.009-44.954 0-1.016-.1-2.024-.166-3.315-1.387 0-2.583.242-3.613-.058-1.553-.45-3.82-.966-4.252-2.058-.449-1.133.556-3.34 1.586-4.473 6.868-7.513 13.92-14.86 20.904-22.264 6.412-6.806 12.807-13.627 19.235-20.416 3.09-3.265 4.186-3.257 7.309.05 13.272 14.044 26.518 28.104 39.782 42.156 1.354 1.432 3.073 2.748 2.126 5.072-.963 2.383-3.148 1.95-5.091 1.983-.822.016-1.653 0-3.056 0v.008Zm-22 44.196c0-9.129.846-18.041-.192-26.729-1.653-13.735-15.688-14.985-23.927-10.52-5.29 2.873-6.96 8.271-6.985 14.127-.025 6.655 0 13.319.017 19.974 0 1.008.09 2.024.14 3.148h30.954-.008Z" fill="#F0DBDA"/>
</svg>