<?xml version="1.0" standalone="no"?>
<!DOCTYPE svg PUBLIC "-//W3C//DTD SVG 20010904//EN"
 "http://www.w3.org/TR/2001/REC-SVG-20010904/DTD/svg10.dtd">
<svg version="1.0" xmlns="http://www.w3.org/2000/svg"
 width="512.000000pt" height="512.000000pt" viewBox="0 0 512.000000 512.000000"
 preserveAspectRatio="xMidYMid meet">
<metadata>
Created by potrace 1.14, written by Peter Selinger 2001-2017
</metadata>
<g transform="translate(0.000000,512.000000) scale(0.100000,-0.100000)"
fill="#000000" stroke="none">
<path d="M1748 4686 c-46 -16 -92 -64 -117 -121 -27 -61 -29 -76 -46 -290 -3
-38 -8 -90 -10 -115 -4 -50 -16 -234 -20 -320 -2 -30 -6 -167 -9 -305 -9 -350
-18 -669 -21 -740 -5 -102 -16 -278 -20 -324 -3 -24 -7 -87 -10 -140 -4 -53
-8 -113 -11 -135 -2 -21 -6 -70 -9 -110 -3 -39 -7 -91 -10 -116 -2 -25 -7 -79
-10 -120 -3 -41 -8 -95 -10 -120 -3 -25 -7 -77 -10 -116 -3 -40 -7 -89 -9
-110 -3 -22 -7 -70 -11 -109 -3 -38 -8 -79 -10 -90 -2 -11 -4 -27 -5 -35 -3
-36 -79 159 -150 385 -10 34 -46 192 -55 245 -7 43 -16 98 -21 124 -6 32 -30
48 -70 50 l-38 1 -47 -93 c-101 -201 -154 -459 -163 -795 -8 -264 78 -446 255
-545 55 -31 167 -69 229 -78 19 -3 46 -8 60 -10 48 -10 1315 -27 1985 -27 433
0 507 2 556 16 58 17 108 56 133 105 46 89 36 264 -21 361 -36 62 -120 143
-175 169 -89 42 -243 49 -370 18 -32 -7 -58 -11 -59 -7 0 3 -2 15 -3 26 -3 22
-15 140 -21 220 -17 196 -26 446 -26 690 1 194 9 477 15 482 3 3 115 11 266
18 130 6 189 19 275 61 89 43 139 98 192 211 127 274 146 461 60 604 -37 62
-74 84 -157 94 -30 3 -68 8 -85 10 -60 8 -127 15 -280 30 -22 2 -121 7 -220
11 -99 3 -198 7 -219 8 -42 2 -40 -3 -51 91 -3 28 -8 61 -9 75 -2 14 -9 61
-15 105 -6 44 -13 91 -15 105 -3 14 -7 50 -11 81 -3 31 -7 65 -9 75 -2 11 -7
57 -11 104 -20 253 -29 291 -76 336 -26 25 -38 29 -87 29 -65 0 -89 -14 -139
-81 -71 -94 -135 -241 -183 -419 -39 -144 -89 -311 -103 -342 -10 -23 -13 -23
-184 -23 -158 0 -173 2 -174 18 0 9 -2 26 -4 37 -2 11 -6 53 -9 94 -7 91 -48
294 -76 381 -30 89 -102 241 -137 285 -59 75 -136 105 -205 81z"/>
</g>
</svg>
