<svg width="556" height="521" viewBox="0 0 556 521" fill="none" xmlns="http://www.w3.org/2000/svg">
<circle cx="320" cy="236" r="236" fill="#FBEDE8"/>
<path d="M49.3387 474.802L45.9008 497.017L37.1028 497.048L36.6875 475.2L49.3387 474.802Z" fill="white"/>
<path d="M37.1031 497.616C36.7664 497.616 36.4914 497.368 36.4857 497.059L36.0704 475.213C36.0648 474.903 36.3286 474.647 36.6654 474.635L49.3165 474.237C49.5045 474.234 49.6757 474.299 49.7964 474.425C49.9171 474.549 49.9732 474.72 49.9479 474.885L46.5101 497.097C46.468 497.376 46.207 497.583 45.9011 497.585L37.1031 497.616ZM37.3164 475.75L37.7093 496.478L45.3651 496.452L48.6261 475.394L37.3164 475.747V475.75Z" fill="black"/>
<path d="M46.1927 518.253C42.7408 518.594 37.5995 518.729 30.7295 518.173C28.2711 517.975 26.5396 515.88 26.9353 513.639C28.0017 507.61 30.9793 496.976 35.6716 492.096L37.9896 495.135L39.3647 491.995C39.5865 491.657 45.4181 491.432 45.5388 492.07L45.8924 495.137L49.2011 491.724L49.0187 502.931C48.9991 504.167 49.1253 505.404 49.3976 506.615L50.2675 510.489C50.7923 512.82 50.1441 515.292 48.3732 517.027C47.68 517.706 46.9111 518.179 46.1871 518.251L46.1927 518.253Z" fill="white"/>
<path d="M39.5109 519.116C37.0441 519.116 34.1058 519.015 30.6764 518.736C29.3294 518.628 28.1282 518.024 27.2947 517.04C26.4612 516.056 26.1104 514.783 26.3293 513.546C26.61 511.966 29.2311 497.939 35.2115 491.719C35.3378 491.589 35.5202 491.52 35.7083 491.528C35.8963 491.538 36.0703 491.626 36.1797 491.768L37.8467 493.952L38.7981 491.781C38.8093 491.752 38.8261 491.726 38.8402 491.701C39.3537 490.913 44.1639 491.083 45.0114 491.228C45.2948 491.277 46.0441 491.404 46.1508 491.969L46.3641 493.802L48.7467 491.344C48.9179 491.166 49.1929 491.107 49.4314 491.194C49.6728 491.28 49.8272 491.494 49.8243 491.732L49.6419 502.938C49.6223 504.134 49.7458 505.332 50.0096 506.502L50.8795 510.375C51.4605 512.957 50.6943 515.591 48.8309 517.417C47.9805 518.251 47.0909 518.734 46.2602 518.816C44.6438 518.976 42.4015 519.116 39.5137 519.116H39.5109ZM35.6297 493.028C31.2545 498.11 28.5015 508.325 27.5445 513.729C27.3817 514.654 27.6455 515.607 28.2657 516.343C28.8859 517.076 29.7784 517.525 30.7803 517.605C38.1274 518.199 43.1788 517.977 46.1227 517.688C46.6475 517.636 47.2874 517.264 47.9244 516.64C49.5128 515.082 50.1639 512.826 49.6644 510.605L48.7944 506.732C48.5138 505.482 48.3819 504.201 48.4015 502.923L48.5587 493.237L46.35 495.514C46.1873 495.682 45.9319 495.744 45.7018 495.677C45.4688 495.607 45.3033 495.419 45.278 495.197L44.9525 492.374C44.0628 492.142 40.7654 492.209 39.8421 492.418L38.5595 495.349C38.4753 495.543 38.2817 495.677 38.0572 495.7C37.8299 495.724 37.611 495.633 37.4819 495.463L35.6241 493.03L35.6297 493.028Z" fill="black"/>
<path d="M39.908 515.155C37.5001 515.155 34.5085 514.984 31.1184 514.437C30.7816 514.383 30.5599 514.088 30.6189 513.778C30.6778 513.471 30.9977 513.262 31.3345 513.319C39.8406 514.695 45.9277 513.598 45.9894 513.587C46.3234 513.525 46.6489 513.724 46.7162 514.031C46.7836 514.339 46.5675 514.638 46.2335 514.7C46.0764 514.729 43.7218 515.157 39.908 515.157V515.155Z" fill="black"/>
<path d="M42.7159 506.636H34.7346C34.395 506.636 34.1172 506.383 34.1172 506.068C34.1172 505.753 34.3922 505.5 34.7346 505.5H42.7159C43.0555 505.5 43.3333 505.753 43.3333 506.068C43.3333 506.383 43.0583 506.636 42.7159 506.636Z" fill="black"/>
<path d="M112.488 476.786L115.584 502.677L127.418 504.958L126.697 474.598L112.488 476.786Z" fill="white"/>
<path d="M127.42 505.523C127.377 505.523 127.335 505.518 127.293 505.51L115.459 503.23C115.198 503.181 115.001 502.98 114.97 502.737L111.875 476.848C111.838 476.548 112.063 476.274 112.386 476.225L126.597 474.038C126.774 474.01 126.954 474.056 127.094 474.162C127.234 474.268 127.313 474.423 127.318 474.588L128.04 504.945C128.043 505.118 127.961 505.283 127.818 505.394C127.706 505.479 127.565 505.526 127.422 505.526L127.42 505.523ZM116.149 502.202L126.785 504.253L126.098 475.267L113.166 477.258L116.149 502.205V502.202Z" fill="black"/>
<path d="M110.579 515.023C110.318 510.486 110.312 502.13 113.315 498.104L122.784 501.206V499.344C122.784 498.745 123.25 498.249 123.842 498.218L129.12 497.939C131.091 497.836 133.055 498.21 134.854 499.024C140.161 501.425 156.311 507.584 158.551 514.509C159.21 516.552 157.476 518.594 155.161 518.656C149.846 518.796 137.065 518.951 114.134 518.228C112.223 518.168 110.68 516.774 110.579 515.018V515.023Z" fill="white"/>
<path d="M144.566 519.346C137.522 519.346 127.563 519.222 114.112 518.798C111.864 518.729 110.079 517.117 109.961 515.051C109.694 510.385 109.708 501.936 112.804 497.782C112.964 497.57 113.258 497.482 113.519 497.567L122.163 500.4V499.344C122.163 498.443 122.884 497.702 123.802 497.652L129.084 497.374C131.143 497.265 133.231 497.66 135.126 498.518C135.76 498.804 136.549 499.145 137.449 499.532C144.314 502.497 157.094 508.012 159.143 514.352C159.502 515.459 159.277 516.642 158.525 517.598C157.748 518.584 156.499 519.193 155.177 519.229C152.899 519.289 149.424 519.348 144.564 519.348L144.566 519.346ZM113.567 498.789C110.932 502.794 110.943 510.605 111.193 514.992C111.277 516.464 112.551 517.613 114.154 517.665C136.852 518.38 149.576 518.238 155.144 518.093C156.084 518.067 156.973 517.634 157.526 516.931C158.051 516.265 158.208 515.444 157.961 514.677C156.07 508.826 143.141 503.246 136.925 500.563C136.015 500.17 135.221 499.827 134.581 499.537C132.881 498.768 131.006 498.412 129.157 498.51L123.875 498.789C123.611 498.802 123.398 499.052 123.398 499.346V501.208C123.398 501.392 123.3 501.567 123.137 501.673C122.971 501.779 122.764 501.805 122.573 501.743L113.564 498.791L113.567 498.789Z" fill="black"/>
<path d="M140.898 515.044C134.188 515.044 125.115 514.773 115.206 513.714C114.866 513.678 114.625 513.396 114.664 513.084C114.704 512.771 115.012 512.549 115.349 512.585C135.527 514.739 152.205 513.618 152.371 513.605C152.713 513.582 153.008 513.817 153.033 514.13C153.058 514.442 152.806 514.716 152.463 514.739C152.379 514.744 147.937 515.044 140.898 515.044Z" fill="black"/>
<path d="M137.966 507.633C137.842 507.633 137.716 507.599 137.607 507.527L128.491 501.495C128.214 501.311 128.152 500.958 128.351 500.702C128.55 500.449 128.938 500.39 129.213 500.573L138.328 506.605C138.606 506.788 138.667 507.142 138.468 507.398C138.347 507.553 138.159 507.633 137.966 507.633Z" fill="black"/>
<path d="M116.182 294.471C116.182 294.471 133.147 410.115 129.532 487.303L124.239 487.83C121.394 488.114 118.528 488.183 115.674 488.039L110.654 487.788C110.654 487.788 90.4196 370.538 80.3194 351.065C80.3194 351.065 52.8449 455.335 51.7869 483.584C51.7869 483.584 39.5736 484.803 34.7073 483.063C32.0918 455.8 31.3369 427.581 31.2078 409.867C30.8345 359.166 35.7092 336.135 38.3837 325.209C40.8393 315.178 43.4716 307.023 45.3968 301.51L51.8206 283.303L116.182 294.473V294.471Z" fill="black"/>
<path d="M51.4167 198.234C62.6366 197.07 82.3598 193.354 105.392 197.591C110.3 198.495 114.106 200.031 117.894 203.04C129.035 211.886 121.486 284.622 124.837 312.528C127.921 338.229 40.1406 319.397 40.1406 319.397C40.1406 319.397 46.7833 198.712 51.4167 198.232V198.234Z" fill="white"/>
<path d="M95.5226 326.648C71.6151 326.648 41.831 320.345 40.0012 319.952C39.7094 319.89 39.5101 319.645 39.5241 319.371C39.541 319.069 41.2108 288.849 43.425 258.96C47.9405 198.025 50.2417 197.787 51.3474 197.671C53.0453 197.496 54.9732 197.256 57.0163 197.002C68.5084 195.577 85.8771 193.424 105.513 197.036C110.772 198.004 114.595 199.672 118.299 202.614C125.582 208.395 125.136 239.322 124.706 269.23C124.462 286.233 124.229 302.295 125.453 312.471C125.871 315.96 124.703 318.857 121.978 321.083C116.899 325.23 106.874 326.653 95.5254 326.653L95.5226 326.648ZM40.7842 318.95C46.9049 320.215 106.566 332.143 121.156 320.228C123.598 318.235 124.602 315.735 124.223 312.593C122.994 302.347 123.224 286.252 123.471 269.212C123.878 240.947 124.339 208.909 117.491 203.471C113.961 200.667 110.304 199.076 105.269 198.149C85.835 194.573 68.5926 196.711 57.1791 198.128C55.1697 198.379 53.2698 198.614 51.586 198.789C48.3502 201.963 43.3717 272.078 40.7842 318.953V318.95Z" fill="black"/>
<path d="M70.0152 253.248C64.2396 228.451 57.6867 205.043 53.2078 196.176C51.4117 196.344 49.7475 196.352 48.3527 196.656C41.696 198.105 36.0888 201.007 32.4742 203.716C15.5742 216.379 7.55919 240.936 1.51425 255.097C-1.16584 261.375 2.42913 268.432 9.38334 270.562L11.6818 271.267L37.4191 274.394L21.6556 374.881C21.549 380.719 26.5443 384.115 31.0598 383.511C31.1075 383.506 53.16 385.615 73.7729 385.272C76.8964 357.763 77.1883 284.049 70.0152 253.246V253.248Z" fill="white"/>
<path d="M69.0978 385.881C52.644 385.881 36.2492 384.546 31.2819 384.105L31.0742 384.087C28.686 384.384 26.2276 383.671 24.3136 382.122C22.1471 380.368 20.9853 377.794 21.0386 374.876C21.0386 374.853 21.0386 374.829 21.0442 374.803L36.7178 274.885L11.6007 271.833C11.5614 271.827 11.525 271.82 11.4857 271.809L9.18724 271.104C5.65962 270.022 2.84763 267.722 1.27325 264.623C-0.301129 261.527 -0.418989 258.072 0.939299 254.893C1.78683 252.91 2.67644 250.71 3.61939 248.381C9.44824 233.98 17.4296 214.259 32.0845 203.277C36.4652 199.995 42.3418 197.382 48.2127 196.104C49.2006 195.89 50.2923 195.817 51.4485 195.74C51.9958 195.704 52.5654 195.665 53.1464 195.611C53.4102 195.587 53.6571 195.717 53.7694 195.936C57.8723 204.06 64.1726 225.438 70.6189 253.127C77.9127 284.444 77.4187 358.634 74.3878 385.331C74.3542 385.615 74.096 385.835 73.7845 385.84C72.2297 385.866 70.6638 385.879 69.0978 385.879V385.881ZM31.0433 382.945C31.0938 382.945 31.1752 382.953 31.3997 382.974C36.7683 383.451 55.5206 384.975 73.2148 384.717C76.1895 357.668 76.6358 284.392 69.4093 253.37C63.0753 226.166 56.8985 205.098 52.8264 196.783C52.3858 196.819 51.9537 196.848 51.5327 196.876C50.427 196.948 49.383 197.018 48.4906 197.212C42.7964 198.451 37.0995 200.982 32.8591 204.16C18.4651 214.946 10.5483 234.501 4.77 248.778C3.82706 251.113 2.93463 253.315 2.08149 255.309C0.849488 258.196 0.956135 261.333 2.38458 264.143C3.81584 266.957 6.36683 269.046 9.57171 270.028L11.8168 270.714L37.4952 273.834C37.658 273.854 37.8067 273.932 37.9077 274.053C38.0059 274.175 38.0509 274.327 38.0256 274.477L22.2706 374.927C22.2313 377.494 23.2472 379.743 25.1275 381.267C26.7888 382.612 28.9133 383.224 30.9676 382.95C30.9956 382.948 31.0124 382.945 31.0405 382.945H31.0433Z" fill="black"/>
<path d="M136.559 274.149C143.527 279.078 153.189 279.649 160.545 275.221C161.94 274.381 163.247 273.4 164.443 272.287L175.963 261.555C186.164 252.345 175.506 240.012 169.208 234.171C167.047 232.167 163.632 231.888 161.112 233.5L153.105 238.62C149.477 240.942 144.448 239.457 142.952 235.63C139.747 227.439 136.054 212.992 127.73 205.999C127.73 205.999 123.257 201.217 105.936 196.104C97.3172 208.85 79.7689 239.762 84.8934 267.012C90.2451 295.473 85.6735 357.694 84.9158 382.912C90.725 383.369 95.886 384.247 99.7139 385.729C119.406 393.362 139.292 381.69 139.915 376.844C140.538 371.994 128.412 268.383 128.412 268.383L136.562 274.149H136.559Z" fill="white"/>
<path d="M113.343 388.797C108.839 388.797 104.125 388.055 99.4743 386.253C95.9832 384.9 91.0664 383.965 84.8643 383.477C84.5388 383.451 84.2918 383.196 84.3002 382.896C84.4518 377.845 84.7549 371.372 85.1029 363.873C86.478 334.382 88.5547 289.815 84.2862 267.11C78.8166 238.024 99.073 205.18 105.413 195.807C105.561 195.585 105.856 195.487 106.125 195.567C122.922 200.525 127.74 205.16 128.172 205.604C135.012 211.367 138.679 221.799 141.623 230.184C142.291 232.087 142.926 233.887 143.532 235.439C144.18 237.099 145.6 238.357 147.421 238.894C149.24 239.428 151.185 239.16 152.753 238.155L160.76 233.035C163.536 231.261 167.271 231.571 169.645 233.773C173.838 237.662 180.862 245.305 180.809 252.825C180.784 256.267 179.299 259.342 176.394 261.963L164.88 272.69C163.667 273.818 162.32 274.833 160.881 275.701C153.402 280.204 143.473 279.765 136.182 274.603L129.177 269.648C130.648 282.249 141.121 372.301 140.526 376.916C140.265 378.935 137.397 381.639 133.041 383.97C128.001 386.669 120.977 388.799 113.341 388.799L113.343 388.797ZM85.5519 382.395C91.6109 382.906 96.4547 383.852 99.9542 385.207C112.069 389.902 124.67 387.139 132.424 382.984C136.911 380.58 139.137 378.08 139.305 376.776C139.914 372.046 127.923 269.48 127.799 268.445C127.774 268.217 127.895 268 128.111 267.889C128.327 267.778 128.593 267.796 128.79 267.933L136.94 273.699C143.818 278.564 153.169 278.985 160.213 274.745C161.582 273.921 162.859 272.958 164.01 271.887L175.53 261.155C178.199 258.746 179.56 255.942 179.582 252.812C179.633 245.706 172.836 238.331 168.778 234.569C166.827 232.758 163.754 232.505 161.473 233.964L153.466 239.085C151.58 240.291 149.243 240.613 147.057 239.973C144.865 239.33 143.158 237.817 142.381 235.821C141.766 234.251 141.132 232.443 140.459 230.53C137.554 222.264 133.939 211.974 127.325 206.417C127.305 206.402 127.288 206.386 127.274 206.368C127.232 206.324 122.717 201.71 106.215 196.78C99.6652 206.544 80.1861 238.599 85.5098 266.913C89.8036 289.74 87.7212 334.382 86.3433 363.919C86.0065 371.15 85.7147 377.43 85.5575 382.39L85.5519 382.395Z" fill="black"/>
<path d="M110.104 339.74C106.13 339.74 101.435 338.968 96.0241 336.853C95.7098 336.729 95.5639 336.396 95.6986 336.109C95.8333 335.82 96.1953 335.686 96.5068 335.809C115.526 343.249 125.239 333.496 125.334 333.398C125.561 333.163 125.951 333.142 126.204 333.349C126.459 333.555 126.485 333.914 126.257 334.149C126.184 334.227 120.729 339.742 110.104 339.742V339.74Z" fill="black"/>
<path d="M128.929 269.447C128.769 269.447 128.606 269.39 128.486 269.274C117.37 258.705 113.359 244.562 113.32 244.42C113.236 244.115 113.435 243.808 113.766 243.73C114.1 243.653 114.431 243.836 114.516 244.141C114.555 244.28 118.489 258.139 129.373 268.483C129.608 268.708 129.603 269.067 129.359 269.286C129.238 269.392 129.083 269.447 128.929 269.447Z" fill="black"/>
<path d="M167.115 235.317C173.477 229.882 182.303 223.47 182.432 223.191C183.333 221.247 186.339 215.527 191.104 214.148C196.868 212.48 203.823 206.335 206.138 208.031C208.453 209.728 199.815 214.13 200.157 215.099C200.5 216.067 206.896 213.65 209.399 211.762C211.902 209.875 215.716 205.782 217.748 206.719C220.535 208.003 219.426 212.23 212.183 218.69C205.29 224.839 192.207 222.342 189.095 226.969C188.884 227.281 183.821 239.178 176.994 247.461C174.897 250.005 171.709 249.638 168.858 247.046C168.858 247.046 161.331 240.257 167.115 235.315V235.317Z" fill="white"/>
<path d="M173.531 249.76C171.867 249.76 170.065 248.949 168.418 247.451C168.249 247.299 164.248 243.642 164.309 239.586C164.335 237.807 165.137 236.229 166.692 234.902C170.792 231.398 175.973 227.444 179.071 225.081C180.435 224.041 181.625 223.132 181.9 222.887C183.017 220.498 186.053 215.013 190.914 213.609C193.274 212.927 195.929 211.419 198.272 210.089C201.943 208.005 204.839 206.36 206.517 207.59C206.924 207.889 207.143 208.284 207.146 208.733C207.151 210.048 205.383 211.468 202.886 213.335C202.288 213.782 201.533 214.345 201.095 214.74C202.706 214.52 206.941 212.883 209.004 211.326C209.579 210.892 210.233 210.334 210.923 209.741C213.46 207.569 216.084 205.32 218.021 206.213C218.975 206.652 219.561 207.391 219.721 208.346C220.137 210.82 217.608 214.639 212.607 219.101C208.849 222.453 203.427 223.313 198.643 224.072C194.512 224.728 190.947 225.293 189.614 227.271C189.592 227.312 189.497 227.524 189.342 227.86C185.45 236.27 181.459 242.981 177.482 247.808C176.511 248.988 175.257 249.659 173.859 249.752C173.75 249.76 173.641 249.762 173.531 249.762V249.76ZM205.1 208.3C203.77 208.3 201.311 209.697 198.92 211.052C196.515 212.418 193.79 213.965 191.284 214.688C186.732 216.005 183.788 221.699 182.997 223.411C182.902 223.615 182.893 223.638 179.859 225.952C176.772 228.307 171.609 232.25 167.534 235.731C166.237 236.838 165.567 238.14 165.547 239.599C165.494 243.175 169.251 246.604 169.288 246.64C170.789 248.006 172.383 248.706 173.772 248.616C174.819 248.546 175.737 248.043 176.497 247.118C180.412 242.367 184.352 235.736 188.206 227.411C188.475 226.83 188.517 226.739 188.565 226.667C190.19 224.253 194.009 223.648 198.432 222.946C203.04 222.215 208.266 221.386 211.748 218.28C218.335 212.405 218.666 209.493 218.5 208.514C218.402 207.923 218.063 207.499 217.465 207.225C216.295 206.686 213.674 208.93 211.76 210.569C211.052 211.174 210.387 211.744 209.781 212.201C207.673 213.789 201.864 216.271 200.22 215.829C199.776 215.711 199.616 215.429 199.563 215.274C199.316 214.569 200.113 213.937 202.103 212.452C203.528 211.388 205.911 209.609 205.905 208.739C205.905 208.664 205.886 208.581 205.743 208.478C205.577 208.356 205.358 208.302 205.094 208.302L205.1 208.3Z" fill="black"/>
<path d="M60.745 293.154H20.5268C18.7812 293.154 17.2574 292.059 16.8364 290.499L2.92239 238.873C2.32744 236.668 4.14036 234.535 6.61278 234.535H46.831C48.5766 234.535 50.1004 235.63 50.5214 237.189L64.4354 288.816C65.0304 291.021 63.2175 293.154 60.745 293.154Z" fill="black"/>
<path d="M9.45769 260.92L10.8104 266.128L15.671 264.638C18.3511 263.817 20.9217 262.722 23.3352 261.374L26.1248 259.817C28.2099 258.655 30.9125 259.562 31.7207 261.677C33.441 266.17 33.1014 273.692 15.5868 278.42C5.91885 281.028 3.15176 269.635 4.4034 263.303C4.72333 261.684 5.58769 260.651 6.47451 259.998C7.53532 259.216 9.11812 259.704 9.45488 260.915L9.45769 260.92Z" fill="white"/>
<path d="M12.9166 279.367C10.9774 279.367 9.24023 278.763 7.80336 277.573C4.1242 274.528 2.88097 267.877 3.80427 263.205C4.10455 261.684 4.8763 260.458 6.09427 259.559C6.75657 259.071 7.63217 258.927 8.4376 259.175C9.24303 259.422 9.84921 260.021 10.0597 260.778C10.0597 260.781 10.0597 260.783 10.0597 260.786L11.2552 265.392L15.4788 264.099C18.1112 263.293 20.6481 262.214 23.0195 260.889L25.8091 259.332C26.9541 258.692 28.3348 258.563 29.5977 258.978C30.869 259.397 31.8568 260.311 32.3087 261.488C33.3807 264.285 33.2292 267.05 31.8737 269.485C29.6426 273.493 24.2235 276.682 15.7679 278.965C14.78 279.231 13.8258 279.365 12.9166 279.365V279.367ZM7.6434 260.192C7.36556 260.192 7.09615 260.28 6.86883 260.448C5.88941 261.171 5.26639 262.167 5.01943 263.412C4.15787 267.776 5.272 273.95 8.62843 276.731C10.4301 278.224 12.7173 278.611 15.4199 277.88C23.5387 275.688 28.7053 272.692 30.7764 268.974C31.9915 266.792 32.115 264.404 31.144 261.873C30.8185 261.021 30.1028 260.357 29.1824 260.055C28.2731 259.756 27.2768 259.848 26.4489 260.311L23.6594 261.868C21.2094 263.234 18.5883 264.349 15.8689 265.183L11.0082 266.673C10.8455 266.725 10.6659 266.709 10.5143 266.632C10.3628 266.555 10.2533 266.423 10.214 266.268L8.86417 261.062C8.75472 260.677 8.45725 260.383 8.04751 260.256C7.91281 260.215 7.7781 260.194 7.6434 260.194V260.192Z" fill="black"/>
<path d="M88.5389 179.895C88.6708 179.96 88.7578 180.084 88.769 180.221L89.987 195.804C90.2592 197.86 91.8701 199.554 94.0478 200.075L95.7176 200.476C97.1405 200.817 97.2387 202.645 95.8552 203.104C91.9234 204.414 85.8532 206.03 80.3162 205.823C74.7764 205.614 70.0729 203.437 67.2946 201.806C66.1973 201.163 66.5004 199.618 67.7717 199.358L68.2544 199.259C70.4097 198.818 71.8887 196.396 72.2788 194.397L75.5005 174.054C75.5454 173.778 75.8737 173.626 76.1431 173.757L88.5445 179.895H88.5389Z" fill="white"/>
<path d="M81.3028 206.41C80.9633 206.41 80.6237 206.404 80.2869 206.391C74.6966 206.182 69.9538 204.044 66.9594 202.286C66.241 201.862 65.8846 201.121 66.0333 200.346C66.1821 199.567 66.7967 198.978 67.633 198.805L68.1156 198.707C69.9342 198.332 71.3037 196.156 71.6685 194.299L74.8846 173.974C74.9351 173.662 75.1484 173.388 75.4543 173.246C75.763 173.104 76.1279 173.109 76.4281 173.259L88.8295 179.397C89.1495 179.554 89.3571 179.849 89.3824 180.182L90.6004 195.766C90.8417 197.573 92.2561 199.063 94.2009 199.528L95.8707 199.928C96.7884 200.148 97.4086 200.853 97.4535 201.725C97.4984 202.593 96.9512 203.344 96.0644 203.641C92.1972 204.93 86.5985 206.412 81.3056 206.412L81.3028 206.41ZM76.0689 174.367L72.8865 194.477C72.4375 196.77 70.7508 199.324 68.3851 199.809L67.9024 199.908C67.386 200.013 67.2709 200.416 67.2485 200.538C67.226 200.656 67.1867 201.067 67.6245 201.323C70.4927 203.004 75.025 205.051 80.3402 205.25C85.7201 205.454 91.6331 203.902 95.6434 202.565C96.0896 202.415 96.2356 202.056 96.2187 201.769C96.2047 201.48 96.0223 201.131 95.5592 201.02L93.8894 200.62C91.4507 200.037 89.6771 198.17 89.3712 195.866L88.1588 180.345L76.0689 174.362V174.367Z" fill="black"/>
<path d="M108.272 158.001C104.141 155.989 107.466 162.251 93.8833 151.434C88.4754 147.127 88.2789 155.168 86.8729 154.053C81.6783 149.939 81.8607 150.073 78.5829 149.552C76.4136 149.206 73.509 151.958 72.6474 154.566C71.508 158.009 73.9945 160.067 73.1469 167.994C72.552 173.561 70.6464 176.296 72.3892 177.876C74.1516 179.475 77.0225 177.52 79.0908 179.134C81.7681 181.22 78.712 185.863 80.6905 189.155C81.9365 191.229 86.031 193.672 94.641 193.48C96.0358 193.449 97.2172 192.504 97.4474 191.231C97.7392 189.602 98.0956 187.541 98.2584 185.548C99.0302 176.045 96.8047 172.887 98.9965 171.263C102.353 168.774 108.053 173.409 110.475 171.224C112.989 168.955 113.929 160.753 108.274 158.001H108.272Z" fill="black"/>
<path d="M87.727 163.33L87.8982 165.926C87.9795 167.15 87.9683 168.374 87.8645 169.598C87.6708 171.891 87.3706 175.834 87.3874 178.054C87.4098 181.316 98.3631 181.953 98.3631 181.953L99.7523 180.531L101.038 180.58C101.287 180.59 101.54 180.551 101.762 180.445C102.315 180.179 102.59 179.635 102.494 179.108C101.975 176.229 101.068 169.869 102.073 164.924C102.073 164.924 95.9805 160.374 87.7242 163.33H87.727Z" fill="white"/>
<path d="M98.3671 182.519C98.3671 182.519 98.3418 182.519 98.3278 182.519C96.4026 182.408 86.7964 181.667 86.7739 178.057C86.7599 175.797 87.0686 171.759 87.2538 169.554C87.3548 168.363 87.3661 167.155 87.2875 165.962L87.1163 163.367C87.0994 163.121 87.2594 162.892 87.5092 162.804C96.0013 159.759 102.209 164.291 102.47 164.485C102.647 164.616 102.728 164.826 102.689 165.03C101.687 169.962 102.652 176.453 103.113 179.017C103.253 179.802 102.829 180.58 102.055 180.952C101.754 181.096 101.398 181.166 101.019 181.15L100.023 181.112L98.8273 182.336C98.7094 182.457 98.5439 182.524 98.3671 182.524V182.519ZM88.3735 163.715L88.5167 165.892C88.598 167.137 88.5868 168.399 88.483 169.641C88.2978 171.831 87.9919 175.834 88.0059 178.052C88.0171 179.893 93.8207 181.081 98.1089 181.367L99.2988 180.148C99.4223 180.022 99.5934 179.952 99.7843 179.96L101.07 180.009C101.23 180.014 101.373 179.991 101.482 179.939C101.782 179.795 101.945 179.498 101.892 179.198C101.319 176.019 100.511 170.036 101.404 165.172C100.16 164.381 95.0022 161.531 88.3735 163.715Z" fill="black"/>
<path d="M85.8003 171.33C85.8003 171.33 85.3962 165.086 82.3541 165.877C79.312 166.664 79.9434 173.525 85.8003 171.33Z" fill="white"/>
<path d="M467.301 451.443C467.301 451.443 476.306 462.436 475.664 469.666L475.846 472.463L494.643 456.724L492.019 455.745C487.858 453.13 483.466 451.572 481.046 447.503L467.301 451.441V451.443Z" fill="white"/>
<path d="M475.844 473.033C475.765 473.033 475.687 473.02 475.611 472.992C475.392 472.909 475.241 472.718 475.227 472.501L475.044 469.705C475.044 469.679 475.044 469.651 475.044 469.625C475.662 462.694 466.894 451.898 466.805 451.789C466.684 451.642 466.648 451.449 466.709 451.273C466.771 451.097 466.923 450.96 467.113 450.904L480.859 446.966C481.14 446.886 481.443 446.999 481.583 447.234C483.323 450.163 486.194 451.764 489.23 453.46C490.238 454.023 491.279 454.604 492.306 455.247L494.871 456.202C495.068 456.275 495.211 456.437 495.247 456.628C495.284 456.82 495.211 457.016 495.057 457.147L476.259 472.886C476.144 472.982 475.996 473.033 475.844 473.033ZM476.279 469.674L476.383 471.246L493.502 456.915L491.784 456.275C491.742 456.259 491.703 456.241 491.666 456.218C490.65 455.577 489.604 454.994 488.593 454.431C485.546 452.729 482.661 451.121 480.755 448.185L468.306 451.751C470.24 454.245 476.821 463.252 476.279 469.674Z" fill="black"/>
<path d="M472.437 466.061L472.729 469.47C473.304 476.22 472.089 482.995 469.187 489.216L466.956 493.996C466.743 494.45 466.791 494.974 467.08 495.39L467.229 495.602C468.865 497.962 476.085 499.997 485.217 494.3C490.867 490.776 502.325 480.992 510.16 463.895C510.654 462.815 510.332 461.566 509.358 460.812C505.799 458.064 497.021 451.797 490.171 451.095C489.407 451.017 488.734 451.544 488.728 452.249L488.661 459.032C488.63 462.077 485.916 464.52 482.607 464.478L474.157 464.375C473.158 464.362 472.361 465.145 472.44 466.061H472.437Z" fill="white"/>
<path d="M473.853 498.546C472.797 498.546 471.919 498.44 471.243 498.311C469.174 497.918 467.479 497.019 466.705 495.907L466.556 495.695C466.155 495.119 466.093 494.399 466.385 493.771L468.616 488.991C471.467 482.879 472.677 476.145 472.11 469.514L471.818 466.105C471.767 465.509 471.992 464.917 472.438 464.481C472.882 464.045 473.51 463.797 474.158 463.807L482.608 463.91C484.045 463.931 485.398 463.43 486.425 462.506C487.452 461.581 488.022 460.347 488.036 459.027L488.103 452.244C488.109 451.756 488.339 451.288 488.738 450.963C489.145 450.633 489.692 450.475 490.233 450.529C497.266 451.252 506.224 457.656 509.749 460.375C510.936 461.292 511.329 462.795 510.726 464.114C501.591 484.046 488.159 493.149 485.561 494.77C480.7 497.802 476.653 498.546 473.853 498.546ZM473.05 466.015L473.342 469.423C473.923 476.238 472.682 483.158 469.752 489.438L467.521 494.218C467.389 494.499 467.418 494.825 467.597 495.083L467.743 495.295C468.203 495.958 469.43 496.808 471.49 497.198C473.774 497.631 478.548 497.771 484.868 493.828C487.416 492.237 500.589 483.31 509.586 463.67C509.979 462.813 509.727 461.837 508.955 461.243C505.517 458.588 496.795 452.342 490.096 451.655C489.897 451.634 489.7 451.691 489.554 451.81C489.417 451.924 489.338 452.079 489.335 452.252L489.268 459.035C489.251 460.659 488.55 462.18 487.287 463.316C486.024 464.453 484.362 465.059 482.592 465.044L474.142 464.941C473.824 464.933 473.547 465.049 473.336 465.256C473.126 465.462 473.022 465.733 473.047 466.015H473.05Z" fill="black"/>
<path d="M467.899 492.826C467.66 492.826 467.433 492.697 467.332 492.485C467.197 492.198 467.34 491.863 467.652 491.739L468.816 491.274C474.8 488.885 479.52 484.284 481.768 478.65L482.548 476.697C482.829 475.998 483.505 475.533 484.316 475.489C485.122 475.448 485.857 475.83 486.224 476.496L487.232 478.319C487.381 478.588 487.65 478.766 487.97 478.812C488.293 478.859 488.607 478.763 488.837 478.549C494.332 473.408 498.53 467.381 501.314 460.639L502.911 456.768C503.032 456.474 503.388 456.326 503.708 456.44C504.028 456.551 504.188 456.879 504.067 457.173L502.471 461.044C499.628 467.933 495.337 474.092 489.718 479.347C489.208 479.825 488.503 480.039 487.782 479.938C487.064 479.835 486.46 479.435 486.132 478.838L485.124 477.015C484.981 476.754 484.712 476.61 484.389 476.625C484.072 476.643 483.817 476.816 483.707 477.09L482.927 479.042C480.564 484.966 475.599 489.802 469.308 492.315L468.143 492.779C468.062 492.81 467.98 492.826 467.896 492.826H467.899Z" fill="black"/>
<path d="M401.274 481.903C401.274 481.903 402.307 492.725 397.432 497.859L395.914 500.064L418.78 498.949L417.675 496.645C415.71 492.547 414.2 485.955 414.582 481.648L401.274 481.901V481.903Z" fill="white"/>
<path d="M395.911 500.632C395.692 500.632 395.49 500.526 395.378 500.351C395.26 500.167 395.266 499.94 395.389 499.759L396.907 497.554C396.924 497.531 396.944 497.508 396.964 497.484C401.611 492.591 400.665 482.058 400.657 481.952C400.643 481.795 400.699 481.64 400.811 481.524C400.926 481.407 401.086 481.338 401.257 481.335L414.565 481.082C414.748 481.082 414.908 481.144 415.028 481.26C415.149 481.376 415.208 481.537 415.194 481.697C414.84 485.66 416.176 492.126 418.236 496.418L419.342 498.721C419.423 498.892 419.409 499.088 419.302 499.248C419.196 499.408 419.013 499.509 418.808 499.517L395.942 500.632C395.942 500.632 395.92 500.632 395.908 500.632H395.911ZM397.926 498.2L397.073 499.439L417.851 498.424L417.108 496.875C415.323 493.157 413.706 486.804 413.923 482.229L401.931 482.456C402.074 484.85 402.268 493.583 397.926 498.197V498.2Z" fill="black"/>
<path d="M397.731 491.274L395.436 493.448C390.889 497.756 385.271 500.981 379.066 502.845L374.301 504.278C373.846 504.415 373.495 504.748 373.364 505.172L373.296 505.386C372.547 507.772 375.303 513.388 384.777 515.648C390.477 517.006 403.678 518.263 420.003 513.535C421.936 512.975 423.199 511.273 423.107 509.409C422.896 505.099 422.068 497.422 418.919 493.324C418.532 492.821 417.78 492.754 417.275 493.157C416.155 494.047 414.151 495.638 412.322 497.095C410.102 498.861 406.743 498.626 404.834 496.575L399.96 491.336C399.381 490.716 398.352 490.685 397.734 491.272L397.731 491.274Z" fill="white"/>
<path d="M397.202 517.453C390.47 517.453 385.982 516.523 384.621 516.2C377.653 514.54 374.74 511.271 373.626 509.471C372.674 507.937 372.338 506.39 372.702 505.234L372.77 505.019C372.961 504.415 373.46 503.94 374.108 503.744L378.876 502.311C384.961 500.482 390.534 497.28 394.994 493.056L397.289 490.882C397.704 490.489 398.285 490.272 398.88 490.29C399.475 490.308 400.039 490.556 400.427 490.972L405.301 496.211C406.118 497.089 407.255 497.619 408.506 497.706C409.758 497.794 410.967 497.425 411.916 496.671L416.869 492.733C417.248 492.431 417.745 492.289 418.23 492.346C418.713 492.4 419.137 492.635 419.42 493.004C422.67 497.231 423.509 505.086 423.72 509.391C423.823 511.521 422.37 513.45 420.184 514.083C411.136 516.704 403.258 517.455 397.199 517.455L397.202 517.453ZM398.173 491.672L395.878 493.846C391.278 498.202 385.53 501.502 379.258 503.387L374.49 504.82C374.229 504.898 374.03 505.089 373.954 505.332L373.887 505.546C373.679 506.205 373.783 507.434 374.698 508.908C375.716 510.553 378.399 513.546 384.93 515.1C387.458 515.705 401.03 518.436 419.816 512.998C421.469 512.521 422.569 511.057 422.49 509.44C422.286 505.259 421.486 497.65 418.416 493.66C418.312 493.526 418.177 493.485 418.082 493.474C417.938 493.459 417.793 493.5 417.675 493.596L412.721 497.533C411.523 498.486 409.996 498.951 408.414 498.843C406.834 498.734 405.394 498.063 404.364 496.955L399.489 491.716C399.324 491.538 399.094 491.437 398.841 491.429C398.594 491.421 398.35 491.509 398.173 491.677V491.672Z" fill="black"/>
<path d="M401.118 509.789C400.159 509.789 399.199 509.763 398.236 509.714H396.216C395.646 509.685 395.421 509.45 395.326 509.254C395.099 508.787 395.469 508.361 395.865 507.909C396.089 507.653 396.342 507.361 396.443 507.126L397.173 505.44C397.31 505.12 397.105 504.893 397.038 504.831C396.97 504.769 396.726 504.575 396.375 504.702L394.506 505.368C384.917 508.239 376.209 504.513 375.844 504.353C375.535 504.219 375.406 503.88 375.552 503.596C375.698 503.312 376.066 503.194 376.374 503.328C376.459 503.364 385.015 507.018 394.094 504.299L395.932 503.643C396.631 503.395 397.389 503.545 397.916 504.033C398.444 504.521 398.598 505.223 398.32 505.864L397.591 507.55C397.428 507.924 397.133 508.27 396.867 508.578H398.27C405.238 508.936 412.049 507.978 418.552 505.737L422.29 504.449C422.607 504.34 422.963 504.487 423.084 504.782C423.204 505.076 423.042 505.401 422.722 505.512L418.984 506.801C413.225 508.787 407.228 509.789 401.118 509.789Z" fill="black"/>
<path d="M439.883 305.231C439.883 305.231 449.113 333.328 433.378 353.267C412.176 380.135 426.73 442.256 416.119 483.941C415.917 484.738 415.131 485.294 414.238 485.286L401.385 485.157C400.529 485.149 399.786 484.62 399.564 483.858C396.539 473.464 373.801 402.983 374.455 388.961C374.604 385.762 375.045 382.031 375.659 378.111C378.205 361.791 381.83 345.513 388.54 330.286C390.892 324.948 392.026 319.224 391.897 313.465L391.538 297.61L439.883 305.231Z" fill="black"/>
<path d="M443.548 294.793C443.548 294.793 462.292 312.233 456.311 342.791C452.189 363.865 458.899 381 464.346 389.155C469.729 397.212 479.587 417.536 483.053 447.746C483.137 448.479 482.848 449.212 482.27 449.721C480.457 451.314 475.97 454.55 469.195 454.818C468.407 454.849 467.643 454.552 467.124 454.007C461.781 448.422 431.034 415.633 420.106 389.55C408.123 360.944 405.875 313.406 405.875 313.406C405.875 313.406 415.672 295.795 443.551 294.793H443.548Z" fill="black"/>
<path d="M423.226 398.795C422.996 398.795 422.777 398.676 422.67 398.474C421.281 395.84 420.069 393.292 419.067 390.898C408.341 365.293 405.377 324.254 404.892 316.288C404.872 315.975 405.133 315.707 405.473 315.689C405.809 315.673 406.104 315.911 406.124 316.223C406.606 324.161 409.559 365.042 420.217 390.488C421.208 392.85 422.406 395.371 423.779 397.976C423.927 398.257 423.798 398.598 423.492 398.735C423.405 398.774 423.313 398.792 423.223 398.792L423.226 398.795Z" fill="white"/>
<path d="M330.229 169.243C332.864 161.386 340.826 154.267 347.738 153.107C356.485 151.643 364.051 155.534 368.603 159.211C377.236 166.181 376.133 170.95 382.276 173.726C393.156 178.64 401.197 169.026 412.45 171.162C429.617 174.418 446.876 203.53 435.766 222.409C428.357 234.997 410.626 237.419 405.802 238.077C391.161 240.079 378.535 236.244 369.125 223.545C361.343 213.043 366.344 200.723 354.611 194.219C351.622 192.561 342.226 191.845 338.482 190.8C331.655 188.889 327.271 178.062 330.226 169.249L330.229 169.243Z" fill="black"/>
<path d="M355.809 160.079C352.217 158.166 353.028 150.868 354.414 146.791C354.934 145.262 357.26 138.427 361.795 138.019C366.454 137.601 372.097 144.085 371.421 149.97C370.576 157.329 360.019 162.32 355.809 160.079Z" fill="black"/>
<path d="M288.087 269.991C288.087 269.991 283.56 271.171 280.464 269.862C277.602 268.651 270.886 265.991 265.812 267.817C259.229 270.182 253.198 275.698 256.057 277.459C257.654 278.443 267.566 272.87 272.828 275.28C273.942 275.791 274.417 277.043 273.928 278.097C273.339 279.37 272.006 281.201 268.995 282.985C268.229 283.437 268.254 284.495 269.059 284.885C270.168 285.42 271.989 285.846 274.818 285.363C278.427 284.746 281.705 282.778 283.223 281.17C284.879 279.416 290.36 278.458 290.36 278.458L288.087 269.996V269.991Z" fill="white"/>
<path d="M272.5 286.135C270.766 286.135 269.553 285.761 268.773 285.384C268.206 285.11 267.853 284.591 267.822 283.997C267.794 283.39 268.105 282.83 268.661 282.502C271.568 280.78 272.823 279.031 273.362 277.869C273.724 277.09 273.362 276.155 272.553 275.786C269.506 274.389 264.535 275.951 260.907 277.092C257.977 278.014 256.532 278.435 255.712 277.929C254.98 277.477 254.629 276.775 254.727 275.948C255.041 273.299 260.115 269.253 265.588 267.285C271.142 265.289 278.354 268.341 280.723 269.343C283.571 270.549 287.876 269.454 287.918 269.444C288.078 269.402 288.252 269.423 288.395 269.501C288.541 269.578 288.645 269.705 288.684 269.854L290.957 278.316C290.997 278.469 290.969 278.629 290.879 278.758C290.786 278.889 290.64 278.98 290.475 279.008C289.007 279.264 284.929 280.219 283.689 281.534C282.129 283.189 278.722 285.265 274.93 285.913C274.027 286.068 273.218 286.133 272.5 286.133V286.135ZM269.601 274.099C270.867 274.099 272.062 274.291 273.103 274.766C274.506 275.409 275.118 276.968 274.495 278.314C273.889 279.623 272.5 281.578 269.326 283.457C269.146 283.563 269.042 283.747 269.054 283.948C269.059 284.038 269.096 284.258 269.346 284.379C270.277 284.831 271.964 285.27 274.706 284.803C278.205 284.204 281.332 282.306 282.757 280.795C284.197 279.272 288.067 278.342 289.608 278.022L287.635 270.681C286.243 270.962 282.805 271.478 280.206 270.381C274.164 267.825 269.396 267.14 266.034 268.349C260.643 270.286 256.186 274.094 255.954 276.077C255.906 276.488 256.043 276.769 256.4 276.989C256.821 277.18 258.951 276.511 260.508 276.021C263.205 275.174 266.601 274.105 269.601 274.105V274.099Z" fill="black"/>
<path d="M284.45 273.1C284.394 278.081 286.336 282.342 291.789 282.097C339.45 279.946 344.28 277.598 369.599 242.953C376.662 233.288 374.558 220.5 364.763 213.598L359.092 209.601C356.782 207.974 353.485 208.364 350.392 209.756C346.267 211.612 343.244 215.049 341.802 219.085L337.106 232.237C331.875 246.294 319.642 257.098 304.162 261.155C299.765 262.307 294.893 263.412 289.449 264.734C285.093 265.793 284.453 273.1 284.453 273.1H284.45Z" fill="white"/>
<path d="M291.343 282.675C289.406 282.675 287.801 282.12 286.564 281.025C284.257 278.982 283.808 275.587 283.833 273.095C283.833 273.082 283.833 273.069 283.833 273.056C283.861 272.741 284.563 265.335 289.286 264.186C291.132 263.737 292.912 263.316 294.629 262.906C297.949 262.115 301.087 261.369 303.988 260.61C319.185 256.628 331.345 245.953 336.52 232.053L341.212 218.91C342.742 214.628 345.986 211.106 350.117 209.247C353.847 207.569 357.167 207.535 359.462 209.152L365.134 213.149C375.122 220.188 377.308 233.419 370.107 243.27C344.779 277.926 339.658 280.503 291.817 282.665C291.657 282.672 291.497 282.675 291.34 282.675H291.343ZM285.068 273.129C285.045 275.393 285.435 278.451 287.42 280.206C288.503 281.167 289.959 281.611 291.761 281.531C339.498 279.378 343.833 277.196 369.088 242.638C375.924 233.282 373.862 220.725 364.387 214.05L358.716 210.053C356.838 208.731 353.903 208.808 350.664 210.267C346.831 211.992 343.814 215.271 342.388 219.266L337.693 232.417C332.386 246.676 319.915 257.622 304.331 261.705C301.415 262.469 298.272 263.215 294.943 264.008C293.229 264.416 291.45 264.84 289.606 265.286C285.814 266.208 285.11 272.736 285.071 273.131L285.068 273.129Z" fill="black"/>
<path d="M348.006 218.318C346.667 216.408 347.169 211.731 349.159 210.381C354.491 206.758 366.469 203.504 386.484 208.361C414.918 215.261 386.173 272.762 386.173 272.762L348.009 218.318H348.006Z" fill="white"/>
<path d="M386.173 273.33C385.965 273.33 385.768 273.232 385.653 273.069L347.489 218.626C346.024 216.537 346.468 211.504 348.794 209.924C351.668 207.972 362.888 202.048 386.641 207.811C391.516 208.994 395.074 211.711 397.213 215.881C406.261 233.523 387.534 271.396 386.731 272.999C386.636 273.188 386.439 273.315 386.215 273.327C386.201 273.327 386.187 273.327 386.17 273.327L386.173 273.33ZM367.925 206.482C357.084 206.482 351.418 209.552 349.53 210.838C347.767 212.036 347.386 216.379 348.528 218.011L386.074 271.572C388.959 265.493 404.128 232.017 396.101 216.366C394.126 212.514 390.837 210.004 386.33 208.911C379.008 207.135 372.918 206.484 367.925 206.484V206.482Z" fill="black"/>
<path d="M341.508 222.848C342.925 214.195 350.067 210.476 350.067 210.476C350.067 210.476 352.346 218.184 355.888 223.924C361.208 232.549 368.561 247.399 368.561 247.399L373.172 238.338C377.572 230.434 380.702 219.282 382.172 211.47L382.997 205.273C382.997 205.273 393.729 206.383 400.571 208.111C437.601 217.464 431.385 258.211 439.296 270.828C445.4 280.56 479.433 306.176 494.674 317.377C499.15 320.667 499.894 326.655 496.361 330.805C487.352 341.389 466.192 375.098 430.512 369.006C430.512 369.006 422.924 367.537 415.857 365.5C411.44 364.227 398.862 335.068 395.553 327.869C394.38 325.318 395.326 360.24 389.814 360.183C380.775 360.09 370.919 354.504 370.919 354.504C370.919 354.504 375.353 321.739 367.161 285.187C361.102 258.147 360.246 267.383 350.892 259.735C342.456 252.835 338.432 241.633 341.51 222.84L341.508 222.848Z" fill="white"/>
<path d="M439.073 370.318C436.284 370.318 433.393 370.08 430.396 369.569C430.306 369.551 422.684 368.066 415.668 366.047C412.011 364.993 404.319 348.852 396.548 331.567C396.237 330.875 395.95 330.239 395.695 329.669C395.588 331.001 395.49 332.959 395.395 334.877C394.693 349.035 393.787 360.756 389.824 360.759C389.819 360.759 389.81 360.759 389.804 360.759C380.701 360.666 371.002 355.228 370.592 354.995C370.387 354.879 370.275 354.662 370.303 354.443C370.348 354.115 374.63 321.344 366.554 285.311C363.082 269.821 360.725 264.086 354.399 262.761C354.068 262.691 353.86 262.387 353.933 262.082C354.009 261.777 354.343 261.586 354.671 261.653C361.651 263.117 364.168 269.064 367.76 285.082C375.413 319.234 372.023 350.474 371.571 354.21C373.359 355.166 381.975 359.54 389.813 359.622H389.819C390.265 359.622 391.78 358.992 392.891 351.05C393.607 345.929 393.924 339.512 394.157 334.828C394.522 327.492 394.584 327.309 395.311 327.187C395.437 327.167 395.872 327.138 396.11 327.657C396.509 328.525 397.045 329.715 397.682 331.135C401.712 340.104 412.421 363.927 416.03 364.968C422.987 366.971 430.553 368.446 430.629 368.459C461.766 373.776 481.576 348.553 492.218 335.004C493.61 333.232 494.811 331.701 495.866 330.464C499.178 326.575 498.465 320.907 494.28 317.829C479.648 307.074 444.944 280.991 438.753 271.12C436.458 267.455 435.341 261.581 434.053 254.779C430.89 238.106 426.557 215.271 400.401 208.666C394.612 207.205 385.89 206.174 383.529 205.911L382.78 211.548C381.298 219.431 378.141 230.656 373.718 238.604L369.119 247.647C369.018 247.849 368.802 247.98 368.557 247.975C368.316 247.975 368.1 247.844 367.999 247.642C367.926 247.495 360.599 232.717 355.351 224.211C351.812 218.473 349.494 210.709 349.471 210.631C349.381 210.329 349.575 210.017 349.903 209.934C350.232 209.851 350.571 210.03 350.661 210.332C350.684 210.409 352.962 218.04 356.423 223.648C360.854 230.829 366.747 242.434 368.563 246.054L372.61 238.101C376.979 230.248 380.097 219.15 381.559 211.377L382.379 205.209C382.421 204.899 382.727 204.677 383.061 204.713C383.167 204.723 393.919 205.849 400.73 207.569C427.64 214.365 432.052 237.61 435.271 254.583C436.542 261.279 437.639 267.06 439.825 270.552C445.91 280.255 480.476 306.227 495.052 316.941C499.764 320.406 500.567 326.784 496.84 331.164C495.801 332.383 494.606 333.906 493.222 335.67C483.434 348.132 466.006 370.323 439.07 370.323L439.073 370.318Z" fill="black"/>
<path d="M396.238 330.27C395.993 330.27 395.76 330.136 395.665 329.912C395.536 329.612 382.655 299.888 375.577 284.364C362.889 256.546 368.906 245.643 369.17 245.192C369.33 244.915 369.706 244.812 370.006 244.959C370.307 245.106 370.419 245.45 370.259 245.726C370.178 245.868 364.321 256.747 376.716 283.925C383.8 299.459 396.684 329.194 396.813 329.491C396.939 329.782 396.785 330.113 396.468 330.229C396.392 330.258 396.316 330.27 396.24 330.27H396.238Z" fill="black"/>
<path d="M428.263 323.502C424.534 323.502 422.193 322.803 422.128 322.782C421.806 322.681 421.635 322.358 421.744 322.062C421.853 321.765 422.204 321.607 422.527 321.708C422.701 321.762 440.064 326.903 455.926 307.722C456.133 307.472 456.521 307.426 456.79 307.614C457.062 307.805 457.113 308.161 456.908 308.409C446.328 321.204 435.018 323.502 428.263 323.502Z" fill="black"/>
<path d="M383.623 320.445C379.318 320.445 377.121 318.253 377.026 318.155C376.798 317.922 376.818 317.563 377.07 317.354C377.323 317.145 377.713 317.163 377.94 317.395C378.03 317.486 380.096 319.497 384.193 319.299C384.533 319.281 384.824 319.523 384.841 319.836C384.858 320.148 384.597 320.417 384.258 320.432C384.041 320.443 383.828 320.448 383.621 320.448L383.623 320.445Z" fill="black"/>
<path d="M311.416 314.596C311.416 314.596 301.299 327.714 305.345 335.995C309.392 344.274 310.826 343.037 309.925 351.594C309.025 360.154 309.816 362.215 310.61 366.292C311.404 370.37 312.454 374.839 304.913 374.816C304.913 374.816 297.808 375.183 296.469 373.068C295.133 370.953 297.241 368.015 300.067 366.793C302.893 365.572 301.206 356.098 299.455 351.935C297.704 347.773 288.067 342.27 284.368 335.117C281.581 329.728 281.432 325.411 281.637 318.803C281.761 314.842 305.657 308.531 311.416 314.596Z" fill="white"/>
<path d="M303.616 375.413C301.388 375.413 297.083 375.167 295.935 373.352C295.388 372.487 295.293 371.462 295.655 370.388C296.213 368.738 297.841 367.126 299.803 366.277C301.952 365.347 300.779 356.655 298.879 352.139C298.138 350.375 295.806 348.281 293.107 345.859C289.722 342.82 285.889 339.378 283.812 335.362C280.91 329.751 280.823 325.158 281.022 318.787C281.09 316.641 285.664 314.813 288.386 313.915C295.217 311.66 307.635 309.749 311.881 314.224C312.069 314.423 312.083 314.712 311.921 314.927C311.822 315.056 302.053 327.877 305.909 335.763C306.984 337.96 307.871 339.481 308.584 340.7C310.554 344.075 311.219 345.211 310.54 351.648C309.757 359.106 310.251 361.494 310.935 364.8C311.028 365.244 311.124 365.703 311.219 366.191L311.272 366.46C311.789 369.089 312.322 371.805 310.677 373.61C309.583 374.811 307.711 375.379 304.913 375.384C304.747 375.392 304.273 375.415 303.619 375.415L303.616 375.413ZM302.637 312.634C298.063 312.634 292.728 313.685 288.802 314.981C284.339 316.455 282.28 318.002 282.254 318.816C282.055 325.207 282.136 329.478 284.926 334.869C286.907 338.701 290.659 342.071 293.968 345.043C296.772 347.561 299.191 349.732 300.03 351.726C301.652 355.584 303.765 365.817 300.327 367.302C298.666 368.02 297.294 369.362 296.833 370.723C296.572 371.495 296.629 372.187 297.002 372.779C297.835 374.098 302.275 374.38 304.879 374.245C307.321 374.271 308.884 373.806 309.732 372.877C311.003 371.48 310.523 369.029 310.057 366.659L310.004 366.388C309.908 365.905 309.816 365.45 309.723 365.009C309.044 361.74 308.508 359.155 309.311 351.535C309.95 345.438 309.431 344.547 307.495 341.232C306.774 339.995 305.876 338.456 304.781 336.222C300.984 328.455 308.937 316.943 310.621 314.65C308.946 313.197 305.996 312.629 302.637 312.629V312.634Z" fill="black"/>
<path d="M261.959 277.536C261.959 277.536 272.527 280.444 288.976 279.685C305.424 278.926 326.112 263.073 336.072 251.257C342.1 244.107 347.309 240.275 353.09 238.659C358.871 237.039 350.301 249.251 343.798 257.225C337.299 265.199 336.547 266.565 328.228 272.906C319.91 279.248 315.835 284.374 315.835 284.374C315.835 284.374 329.177 291.274 329.34 306.178C329.502 321.083 336.145 334.071 338.11 338.792C340.074 343.512 342.069 342.04 341.876 350.51C341.682 358.979 344.898 368.255 345.002 369.267C345.325 372.358 346.548 375.24 335.023 374.839C323.497 374.439 329.66 368.232 332.281 365.6C334.902 362.969 332.183 348.17 326.898 342.205C321.614 336.243 314.679 327.412 311.808 322.728C308.935 318.044 300.726 310.682 290.056 318.893C279.386 327.107 260.732 327.799 260.732 327.799C260.732 327.799 257.193 336.328 257.69 345.542C258.184 354.755 253.582 359.504 255.672 365.024C259.744 375.777 246.661 374.837 246.661 374.837C246.661 374.837 243.111 374.795 239.69 374.837C236.564 374.873 235.475 371.279 237.88 369.045C238.733 368.255 240.122 367.317 241.915 366.889C241.915 366.889 244.107 361.314 243.131 354.961C242.157 348.612 245.892 335.569 246.288 330.319C246.288 330.319 242.019 331.784 233.743 329.281C233.743 329.281 232.736 338.681 230.016 346.946C227.297 355.215 227.039 363.955 224.58 369.262C222.122 374.568 220.028 374.793 208.472 374.834C196.191 374.878 207.164 364.637 214.553 364.771C214.553 364.771 218.886 352.031 218.477 348.152C218.067 344.274 217.873 333.929 217.66 326.294C217.447 318.658 207.01 315.815 219.49 278.605C231.97 241.396 261.95 277.531 261.95 277.531L261.959 277.536Z" fill="white"/>
<path d="M345.248 251.988C343.292 251.017 341.563 248.675 340.339 246.62C339.646 247.299 338.945 248.024 338.237 248.794C338.218 248.814 338.198 248.838 338.178 248.861C337.844 249.225 337.511 249.597 337.171 249.982C336.809 250.395 336.444 250.818 336.074 251.255C335.639 251.771 335.178 252.295 334.704 252.825C334.668 252.866 334.631 252.907 334.592 252.949C327.062 261.317 314.784 271.166 302.633 276.263C309.29 276.214 308.958 279.946 318.489 287.253C318.671 287.078 318.871 286.838 319.084 286.546C318.966 286.453 318.848 286.362 318.733 286.277C317.181 285.105 317.013 282.975 318.349 281.596C320.386 279.494 323.669 276.382 328.23 272.906C333.169 269.142 335.439 267.13 337.83 264.447C338.209 264.024 338.588 263.585 338.984 263.117C339.248 262.807 339.517 262.485 339.795 262.146C339.935 261.979 340.076 261.806 340.221 261.63C340.654 261.101 341.114 260.538 341.608 259.928C342.267 259.115 342.989 258.221 343.802 257.225C344.091 256.868 344.389 256.502 344.686 256.13C344.737 256.065 344.787 256.003 344.838 255.939C345.467 255.149 346.106 254.333 346.743 253.501C346.746 253.496 346.752 253.491 346.755 253.486C347.083 253.054 347.414 252.621 347.74 252.184C346.985 252.414 346.177 252.448 345.251 251.988H345.248Z" fill="black"/>
<path d="M229.574 300.193C221.275 293.655 223.369 289.758 219.695 276.899C219.524 277.363 219.356 277.836 219.19 278.327C206.71 315.536 217.147 318.379 217.36 326.015C217.4 327.43 217.439 328.941 217.478 330.482C223.052 327.67 221.836 321.044 226.635 319.34C232.54 317.246 238.052 306.873 229.574 300.193Z" fill="black"/>
<path d="M261.962 277.536C261.962 277.536 260.11 275.303 257.132 272.519C255.603 275.117 254.051 278.28 253.181 281.544C251.056 289.513 258.605 295.217 261.229 301.288C263.853 307.356 259.276 310.971 258.019 314.379C255.855 320.241 262.456 327.569 275.696 318.8C288.937 310.031 302.595 299.88 303.437 291.55C303.816 287.798 303.71 281.908 302.635 276.263C297.971 278.221 293.326 279.483 288.976 279.685C272.528 280.444 261.959 277.536 261.959 277.536H261.962Z" fill="black"/>
<path d="M337.068 375.446C336.422 375.446 335.735 375.433 335.002 375.408C330.95 375.268 328.623 374.413 327.891 372.8C326.757 370.305 330.055 366.995 331.825 365.218C334.076 362.959 331.654 348.475 326.42 342.567C321.492 337.005 314.3 327.946 311.272 323.009C309.473 320.076 305.948 316.672 301.46 315.921C297.877 315.322 294.175 316.468 290.454 319.332C280.505 326.991 264.071 328.194 261.178 328.349C260.541 330.028 257.883 337.563 258.31 345.516C258.551 350.004 257.619 353.404 256.794 356.405C255.919 359.597 255.228 362.117 256.258 364.841C257.49 368.095 257.333 370.68 255.789 372.523C253.025 375.826 246.876 375.426 246.615 375.408C246.615 375.408 245.058 375.392 243.032 375.392C241.996 375.392 240.84 375.397 239.7 375.41C238.129 375.426 236.877 374.672 236.285 373.388C235.567 371.829 236.021 369.969 237.444 368.65C238.101 368.043 239.465 366.974 241.438 366.427C241.845 365.247 243.346 360.395 242.524 355.044C241.811 350.394 242.787 342.629 243.573 336.39C243.82 334.441 244.036 332.711 244.165 331.35C242.779 331.549 239.74 331.611 234.279 330.041C233.984 332.38 232.892 340.186 230.613 347.117C229.336 351 228.621 354.915 227.928 358.703C227.181 362.783 226.477 366.636 225.155 369.489C222.528 375.16 220 375.366 208.482 375.408C205.378 375.428 203.45 374.796 202.682 373.559C202.286 372.921 202.03 371.826 203.066 370.222C204.871 367.423 209.88 364.358 214.106 364.211C214.825 362.042 218.226 351.556 217.872 348.209C217.538 345.046 217.345 337.521 217.174 330.882C217.134 329.302 217.092 327.758 217.053 326.309C217.002 324.528 216.371 323.032 215.571 321.142C213.13 315.379 209.442 306.669 218.911 278.44C222.337 268.225 227.434 262.495 234.06 261.408C246.876 259.309 260.754 275.184 262.325 277.038C263.81 277.412 273.989 279.806 288.947 279.114C305.359 278.355 326.1 262.162 335.589 250.906C341.651 243.715 346.994 239.769 352.915 238.111C354.063 237.791 354.871 237.923 355.318 238.509C357.338 241.163 347.392 253.762 344.297 257.56C343.64 258.363 343.045 259.102 342.493 259.781C337.503 265.937 336.164 267.592 328.626 273.338C323.768 277.043 320.364 280.328 318.366 282.43C317.948 282.871 317.749 283.434 317.808 284.015C317.867 284.607 318.181 285.138 318.692 285.51C322.848 288.534 329.841 295.235 329.959 306.168C330.1 319.146 335.286 330.859 337.778 336.488C338.14 337.302 338.449 338.004 338.69 338.583C339.304 340.057 339.925 340.909 340.475 341.663C341.679 343.316 342.63 344.62 342.495 350.518C342.344 357.151 344.339 364.407 345.192 367.503C345.47 368.51 345.594 368.965 345.619 369.208C345.641 369.419 345.667 369.631 345.695 369.843C345.866 371.209 346.043 372.621 344.937 373.719C343.753 374.896 341.291 375.441 337.068 375.441V375.446ZM299.591 314.63C300.29 314.63 300.989 314.689 301.682 314.806C306.591 315.627 310.41 319.296 312.349 322.454C315.024 326.815 321.767 335.517 327.38 341.852C332.811 347.979 335.586 363.132 332.74 365.988C331.267 367.465 328.205 370.54 329.033 372.366C329.547 373.497 331.626 374.158 335.05 374.277C340.029 374.45 342.964 374.016 344.033 372.954C344.752 372.239 344.623 371.193 344.471 369.98C344.443 369.763 344.418 369.543 344.392 369.324C344.376 369.156 344.202 368.523 344 367.79C343.135 364.647 341.109 357.288 341.263 350.499C341.39 344.961 340.579 343.848 339.45 342.304C338.864 341.5 338.202 340.592 337.536 338.996C337.298 338.422 336.989 337.728 336.633 336.922C334.113 331.228 328.868 319.379 328.724 306.184C328.612 295.723 321.911 289.301 317.925 286.406C317.145 285.841 316.668 285.03 316.576 284.126C316.486 283.233 316.792 282.368 317.434 281.691C319.463 279.556 322.912 276.225 327.835 272.473C335.258 266.812 336.579 265.181 341.499 259.11C342.052 258.428 342.65 257.69 343.306 256.884C351.232 247.162 355.121 240.239 354.305 239.165C354.232 239.069 353.917 239.02 353.272 239.201C347.609 240.786 342.456 244.611 336.56 251.606C327.593 262.247 306.753 279.434 289.006 280.253C272.642 281.01 261.888 278.112 261.781 278.084C261.658 278.05 261.545 277.981 261.467 277.885C261.321 277.709 246.845 260.471 234.27 262.534C228.135 263.541 223.365 269.007 220.084 278.784C210.741 306.635 214.336 315.123 216.716 320.739C217.527 322.655 218.226 324.308 218.282 326.289C218.321 327.737 218.364 329.284 218.403 330.864C218.574 337.483 218.765 344.986 219.096 348.108C219.514 352.057 215.327 364.428 215.147 364.952C215.066 365.192 214.822 365.358 214.547 365.35C210.705 365.278 205.788 368.226 204.124 370.809C203.72 371.434 203.327 372.324 203.751 373.001C204.264 373.825 205.914 374.277 208.401 374.277C208.426 374.277 208.451 374.277 208.477 374.277C220.134 374.235 221.754 373.941 224.018 369.048C225.281 366.318 225.977 362.527 226.71 358.517C227.378 354.874 228.133 350.742 229.432 346.791C232.101 338.67 233.125 329.328 233.134 329.235C233.153 329.065 233.254 328.91 233.411 328.814C233.569 328.721 233.762 328.695 233.942 328.749C241.777 331.117 244.575 330.105 244.603 330.095C244.8 330.02 245.03 330.041 245.204 330.157C245.378 330.27 245.479 330.459 245.465 330.655C245.353 332.132 245.097 334.167 244.8 336.522C244.064 342.371 243.054 350.381 243.747 354.887C244.732 361.304 242.591 366.853 242.501 367.085C242.431 367.261 242.274 367.395 242.077 367.441C240.214 367.888 238.926 368.89 238.323 369.45C237.107 370.576 236.995 372.017 237.424 372.944C237.82 373.801 238.623 374.284 239.686 374.274C243.077 374.233 246.638 374.274 246.672 374.274C246.767 374.279 252.458 374.646 254.816 371.829C256.087 370.308 256.18 368.084 255.093 365.216C253.94 362.171 254.709 359.372 255.599 356.129C256.401 353.206 257.31 349.893 257.078 345.573C256.581 336.346 260.125 327.686 260.162 327.6C260.249 327.389 260.468 327.244 260.712 327.236C260.897 327.229 279.282 326.454 289.662 318.462C292.974 315.913 296.305 314.63 299.591 314.63Z" fill="black"/>
<path d="M251.946 241.096C251.946 241.096 262.439 239.462 263.949 247.242C265.599 255.745 272.379 256.264 273.213 262.247C273.838 266.73 268.282 280.54 262.781 282.918C257.281 285.296 253.161 271.915 252.953 269.48C252.953 269.48 250.812 261.757 251.943 241.096H251.946Z" fill="black"/>
<path d="M228.852 238.945C228.852 238.945 220.051 235.609 216.111 242.289C211.298 250.446 206.129 251.572 203.278 257.225C201.111 261.519 203.976 269.426 210.4 275.308C210.4 275.308 209.819 281.931 213.897 282.319C217.975 282.706 229.885 278.556 228.852 268.233C227.819 257.909 228.852 238.948 228.852 238.948V238.945Z" fill="black"/>
<path d="M228.909 275.793C228.909 275.793 231.365 280.191 234.292 281.609C237.222 283.026 242.037 282.579 244.813 279.316C247.588 276.054 241.998 268.842 241.998 268.842L228.906 275.791L228.909 275.793Z" fill="white"/>
<path d="M237.909 282.949C236.492 282.949 235.134 282.654 234.005 282.11C230.941 280.625 228.466 276.238 228.362 276.052C228.21 275.783 228.317 275.453 228.603 275.3L241.695 268.351C241.97 268.204 242.321 268.277 242.506 268.514C242.744 268.821 248.329 276.111 245.304 279.667C243.368 281.944 240.536 282.951 237.912 282.951L237.909 282.949ZM229.743 276.005C230.453 277.149 232.409 280.052 234.581 281.105C237.283 282.414 241.776 281.968 244.33 278.964C246.236 276.723 243.404 271.794 241.816 269.596L229.743 276.005Z" fill="black"/>
<path d="M247.94 237.184C241.836 236.146 232.129 233.598 226.424 239.043C226.424 239.043 222.455 243.689 222.857 250.018C223.261 256.344 226.308 268.352 225.772 271.053C225.236 273.751 224.386 276.896 226.424 278.611C228.461 280.325 231.088 279.799 232.626 278.611C234.164 277.423 236.858 274.456 237.949 275.027C239.041 275.597 245.324 286.644 249.349 280.423C250.222 279.073 250.32 277.167 249.935 275.011C249.632 273.299 249.644 271.551 250.095 269.865C250.817 267.174 252.11 263.172 254.007 260.313C257.123 255.619 257.347 247.947 255.784 243.604C255.784 243.604 254.041 238.222 247.94 237.184Z" fill="white"/>
<path d="M246.468 282.884C243.498 282.884 240.546 279.127 238.772 276.868C238.315 276.284 237.796 275.626 237.627 275.51C237.131 275.404 235.256 277.095 234.451 277.815C233.931 278.28 233.44 278.722 233.022 279.047C231.263 280.403 228.319 280.976 226.006 279.032C223.876 277.24 224.491 274.242 225.032 271.595L225.162 270.952C225.431 269.591 224.64 265.219 223.873 260.99C223.161 257.057 222.425 252.993 222.237 250.051C221.825 243.583 225.768 238.889 225.933 238.692C225.947 238.677 225.959 238.664 225.973 238.648C231.316 233.546 239.825 235.116 246.035 236.262C246.737 236.392 247.41 236.515 248.045 236.624C254.446 237.714 256.293 243.209 256.368 243.441C257.982 247.919 257.741 255.768 254.527 260.608C252.695 263.371 251.426 267.239 250.688 269.999C250.281 271.52 250.231 273.175 250.54 274.918C250.98 277.4 250.756 279.347 249.874 280.713C248.976 282.099 247.879 282.828 246.605 282.879C246.557 282.879 246.51 282.882 246.462 282.882L246.468 282.884ZM237.639 274.384C237.855 274.384 238.06 274.43 238.253 274.531C238.587 274.706 238.941 275.143 239.772 276.202C241.321 278.172 244.194 281.839 246.555 281.746C247.396 281.712 248.137 281.183 248.816 280.132C249.546 279.003 249.717 277.312 249.324 275.102C248.988 273.209 249.044 271.399 249.493 269.728C250.253 266.89 251.561 262.903 253.478 260.016C256.411 255.598 256.733 248.053 255.195 243.782C255.122 243.56 253.467 238.703 247.823 237.742C247.183 237.634 246.504 237.507 245.797 237.378C239.873 236.286 231.765 234.788 226.887 239.415C226.61 239.754 223.099 244.169 223.469 249.984C223.652 252.864 224.384 256.899 225.091 260.801C225.947 265.522 226.685 269.599 226.377 271.153L226.245 271.801C225.74 274.27 225.215 276.824 226.837 278.19C228.599 279.675 230.867 279.223 232.228 278.174C232.612 277.877 233.087 277.451 233.589 277.002C235.082 275.662 236.505 274.384 237.639 274.384Z" fill="black"/>
<path d="M239.181 272.434C238.485 272.754 237.658 272.664 237.057 272.207C235.716 271.179 233.473 269.134 233.454 266.9C233.437 265.057 233.903 262.64 239.027 263.141C243.761 263.605 244.522 265.338 243.916 267.822C243.335 270.2 240.719 271.726 239.181 272.434Z" fill="white"/>
<path d="M238.309 273.191C237.719 273.191 237.136 273.005 236.661 272.643C235.241 271.556 232.859 269.366 232.836 266.903C232.828 265.831 232.963 264.481 234.096 263.533C235.143 262.66 236.776 262.348 239.089 262.575C241.654 262.826 243.237 263.44 244.067 264.509C244.735 265.367 244.876 266.459 244.511 267.944C243.871 270.557 241.067 272.194 239.451 272.94C239.089 273.108 238.693 273.191 238.303 273.191H238.309ZM237.739 263.642C236.457 263.642 235.514 263.887 234.927 264.378C234.155 265.023 234.063 266.061 234.071 266.895C234.088 268.902 236.196 270.81 237.45 271.77C237.86 272.083 238.429 272.145 238.901 271.925C240.321 271.27 242.782 269.852 243.31 267.696C243.59 266.547 243.512 265.746 243.066 265.17C242.462 264.396 241.118 263.915 238.96 263.704C238.525 263.66 238.115 263.639 237.739 263.639V263.642Z" fill="black"/>
<path d="M261.542 283.77C261.471 283.77 261.401 283.77 261.328 283.765C257.691 283.589 255.508 278.624 255.415 278.412C255.289 278.12 255.443 277.792 255.76 277.676C256.077 277.56 256.437 277.702 256.563 277.994C256.583 278.037 258.547 282.494 261.393 282.631C264.236 282.765 266.377 278.923 266.397 278.884C266.551 278.606 266.921 278.492 267.224 278.634C267.528 278.776 267.651 279.117 267.497 279.396C267.398 279.576 265.064 283.77 261.539 283.77H261.542Z" fill="white"/>
<path d="M334.919 302.45L328.588 301.342C325.894 300.629 323.208 293.544 320.051 295.826C317.755 297.487 321.597 299.041 320.463 302.413C319.871 304.172 315.482 304.322 313.742 303.841C307.708 302.173 304.453 303.387 304.102 305.672C303.754 307.96 310.851 314.573 318.808 314.002C326.761 313.432 335.73 308.908 335.73 308.908L334.919 302.45Z" fill="white"/>
<path d="M317.834 314.604C312.737 314.604 308.143 311.911 305.657 309.478C304.13 307.986 303.342 306.568 303.49 305.592C303.636 304.642 304.198 303.852 305.113 303.312C306.94 302.235 310.066 302.23 313.919 303.297C315.521 303.741 319.445 303.521 319.874 302.246C320.357 300.81 319.821 299.782 319.302 298.791C318.743 297.722 318.109 296.511 319.672 295.38C320.289 294.933 320.949 294.747 321.631 294.824C323.233 295.008 324.583 296.616 325.888 298.174C326.876 299.351 327.898 300.57 328.759 300.797L335.034 301.892C335.298 301.938 335.5 302.137 335.531 302.385L336.342 308.843C336.37 309.073 336.247 309.295 336.025 309.406C335.654 309.592 326.848 313.995 318.853 314.568C318.51 314.594 318.171 314.604 317.831 314.604H317.834ZM308.769 303.637C307.518 303.637 306.496 303.847 305.78 304.27C305.169 304.632 304.809 305.13 304.714 305.752C304.638 306.248 305.18 307.353 306.558 308.701C309.022 311.113 313.7 313.801 318.76 313.437C325.596 312.946 333.319 309.424 335.071 308.588L334.361 302.93L328.476 301.902C327.171 301.559 326.073 300.252 324.914 298.871C323.817 297.562 322.571 296.079 321.482 295.955C321.129 295.914 320.797 296.017 320.438 296.276C319.692 296.815 319.838 297.192 320.419 298.3C320.952 299.323 321.684 300.72 321.058 302.584C320.318 304.789 315.491 304.918 313.568 304.386C311.769 303.888 310.136 303.64 308.772 303.64L308.769 303.637Z" fill="black"/>
<path d="M331.729 301.721L333.834 310.594C334.123 311.813 335.231 312.724 336.584 312.838C344.231 313.478 370.519 310.651 396.831 288.978C407.17 280.462 424.502 259.004 425.041 240.549C425.574 222.251 391.951 204.886 384.262 234.581C377.406 261.054 364.314 287.625 333.696 298.421C332.245 298.933 331.401 300.324 331.732 301.721H331.729Z" fill="white"/>
<path d="M338.725 313.483C337.885 313.483 337.147 313.455 336.524 313.401C334.902 313.264 333.578 312.184 333.227 310.713L331.122 301.843C330.726 300.172 331.711 298.509 333.468 297.892C369.205 285.291 380.248 252.757 383.646 234.486C383.705 234.176 384.022 233.969 384.359 234.021C384.696 234.072 384.92 234.367 384.864 234.677C381.421 253.186 370.218 286.151 333.912 298.951C332.73 299.366 332.065 300.482 332.329 301.6L334.434 310.472C334.667 311.459 335.553 312.182 336.637 312.272C344.461 312.926 370.451 309.941 396.418 288.555C403.277 282.905 417.595 267.92 422.697 251.634C422.792 251.332 423.135 251.159 423.46 251.247C423.789 251.335 423.977 251.65 423.881 251.949C418.701 268.483 404.189 283.677 397.24 289.402C373.002 309.365 348.631 313.486 338.725 313.486V313.483Z" fill="black"/>
<path d="M360.694 178.152C360.211 178.508 359.512 178.379 359.198 177.889C357.702 175.539 353.785 172.13 350.016 171.833C345.186 171.456 340.017 173.478 339.34 176.9C338.751 179.885 340.008 181.475 337.16 185.615C336.887 186.012 337.255 186.542 337.701 186.769L340.103 188.143C340.606 188.396 341.153 189.4 341.288 189.911C341.706 191.494 342.531 194.771 343.123 195.239C344.849 196.602 351.11 195.564 351.11 195.564L357.329 209.105C358.056 211.166 357.323 213.095 356.577 214.355C356.069 215.209 356.611 216.284 357.655 216.457C360.705 216.963 366.969 216.847 376.438 211.238C377.546 210.582 377.484 209.072 376.325 208.491C372.436 206.536 366.208 202.342 362.271 188.419C362.156 188.008 362.291 187.572 362.616 187.272C363.874 186.129 367.222 182.805 366.121 180.016C364.948 177.047 362.364 176.915 360.694 178.155V178.152Z" fill="white"/>
<path d="M360.086 217.211C359.067 217.211 358.22 217.125 357.546 217.014C356.858 216.901 356.289 216.5 355.986 215.917C355.683 215.333 355.702 214.649 356.036 214.084C356.724 212.924 357.403 211.153 356.743 209.281L350.732 196.197C349.113 196.429 344.378 196.974 342.723 195.67C342.128 195.2 341.6 193.519 340.778 190.381L340.691 190.046C340.562 189.56 340.068 188.77 339.807 188.638L337.377 187.249C336.958 187.037 336.608 186.64 336.493 186.221C336.403 185.899 336.453 185.576 336.638 185.307C338.507 182.591 338.519 181.106 338.53 179.386C338.536 178.591 338.541 177.77 338.732 176.794C339.504 172.889 345.215 170.883 350.067 171.265C354.156 171.585 358.177 175.162 359.729 177.599C359.814 177.731 359.937 177.77 360.004 177.78C360.066 177.79 360.19 177.796 360.305 177.708C361.349 176.936 362.614 176.662 363.779 176.962C364.688 177.194 365.934 177.881 366.7 179.818C367.845 182.717 364.904 185.984 363.049 187.67C362.875 187.828 362.805 188.057 362.867 188.269C366.65 201.65 372.529 205.929 376.621 207.987C377.359 208.359 377.816 209.04 377.847 209.813C377.878 210.585 377.474 211.292 376.77 211.71C369.212 216.188 363.613 217.208 360.083 217.208L360.086 217.211ZM351.111 194.993C351.355 194.993 351.582 195.127 351.678 195.339L357.897 208.88C358.711 211.181 357.922 213.27 357.117 214.623C356.968 214.874 356.959 215.165 357.094 215.424C357.223 215.674 357.467 215.847 357.762 215.894C360.582 216.361 366.714 216.317 376.102 210.755C376.436 210.556 376.629 210.221 376.613 209.854C376.598 209.485 376.38 209.159 376.026 208.984C371.732 206.828 365.575 202.363 361.671 188.556C361.5 187.951 361.697 187.303 362.182 186.862C363.507 185.656 366.484 182.596 365.541 180.205C365.078 179.03 364.354 178.286 363.451 178.054C362.673 177.855 361.809 178.049 361.082 178.591C360.717 178.862 360.246 178.973 359.783 178.896C359.317 178.816 358.91 178.552 358.666 178.17C357.291 176.009 353.572 172.678 349.963 172.394C345.633 172.053 340.573 173.822 339.947 176.995C339.773 177.873 339.768 178.645 339.765 179.391C339.754 181.127 339.742 182.921 337.682 185.914C337.677 185.963 337.789 186.159 338.002 186.268L340.433 187.657C341.148 188.019 341.749 189.237 341.892 189.775L341.982 190.113C342.288 191.283 343.102 194.386 343.539 194.812C344.625 195.67 348.697 195.386 351.007 195.004C351.044 194.998 351.08 194.996 351.117 194.996L351.111 194.993Z" fill="black"/>
<path d="M224.08 418.368H152.492V446.07H224.08V418.368Z" fill="black"/>
<path d="M224.08 383.374H152.492V411.076H224.08V383.374Z" fill="black"/>
<path d="M363.054 379.097C360.489 379.097 358.407 381.011 358.407 383.374V483.339C358.407 491.328 351.343 497.828 342.66 497.828H230.161V383.374C230.161 381.013 228.081 379.097 225.513 379.097C222.946 379.097 220.866 381.011 220.866 383.374V497.828H173.225C164.542 497.828 157.478 491.328 157.478 483.339V383.374C157.478 381.013 155.399 379.097 152.831 379.097C150.263 379.097 148.184 381.011 148.184 383.374V483.339C148.184 496.043 159.418 506.377 173.222 506.377H342.654C356.462 506.377 367.693 496.041 367.693 483.339V383.374C367.693 381.013 365.613 379.097 363.046 379.097H363.054Z" fill="white"/>
<path d="M342.662 506.946H173.23C159.083 506.946 147.574 496.356 147.574 483.339V383.374C147.574 380.704 149.934 378.532 152.836 378.532C155.738 378.532 158.101 380.704 158.101 383.374V483.339C158.101 491.016 164.89 497.26 173.23 497.26H220.254V383.374C220.254 380.704 222.614 378.532 225.516 378.532C228.418 378.532 230.781 380.704 230.781 383.374V497.26H342.662C351.006 497.26 357.792 491.013 357.792 483.339V383.374C357.792 380.704 360.152 378.532 363.054 378.532C365.955 378.532 368.318 380.704 368.318 383.374V483.339C368.318 496.356 356.809 506.946 342.662 506.946ZM152.836 379.666C150.614 379.666 148.806 381.329 148.806 383.374V483.339C148.806 495.731 159.762 505.809 173.23 505.809H342.662C356.13 505.809 367.084 495.728 367.084 483.339V383.374C367.084 381.329 365.276 379.666 363.054 379.666C360.831 379.666 359.024 381.329 359.024 383.374V483.339C359.024 491.641 351.682 498.396 342.66 498.396H230.16C229.821 498.396 229.543 498.143 229.543 497.828V383.374C229.543 381.329 227.736 379.666 225.513 379.666C223.29 379.666 221.483 381.329 221.483 383.374V497.828C221.483 498.14 221.208 498.396 220.866 498.396H173.225C164.202 498.396 156.861 491.641 156.861 483.339V383.374C156.861 381.329 155.053 379.666 152.831 379.666H152.836Z" fill="black"/>
<path d="M389.252 374.845H126.637V383.374H389.252V374.845Z" fill="white"/>
<path d="M389.252 383.942H126.637C126.297 383.942 126.02 383.689 126.02 383.374V374.845C126.02 374.532 126.295 374.276 126.637 374.276H389.252C389.592 374.276 389.87 374.53 389.87 374.845V383.374C389.87 383.686 389.595 383.942 389.252 383.942ZM127.254 382.806H388.635V375.41H127.254V382.806Z" fill="black"/>
<path d="M343.042 512.42C344.257 507.682 341.068 502.934 335.918 501.815C330.768 500.697 325.608 503.631 324.392 508.37C323.177 513.109 326.366 517.857 331.516 518.975C336.666 520.093 341.826 517.159 343.042 512.42Z" fill="black"/>
<path d="M335.76 510.839C336.026 509.801 335.327 508.76 334.199 508.515C333.07 508.27 331.94 508.913 331.674 509.951C331.407 510.99 332.106 512.03 333.234 512.275C334.363 512.52 335.493 511.877 335.76 510.839Z" fill="white"/>
<path d="M191.629 511.86C192.477 507.054 188.93 502.526 183.707 501.746C178.484 500.966 173.563 504.229 172.715 509.035C171.867 513.841 175.414 518.369 180.637 519.149C185.86 519.93 190.781 516.666 191.629 511.86Z" fill="black"/>
<path d="M182.968 512.209C184.039 511.801 184.548 510.671 184.104 509.685C183.66 508.7 182.432 508.232 181.361 508.64C180.29 509.048 179.782 510.178 180.225 511.164C180.669 512.149 181.897 512.617 182.968 512.209Z" fill="white"/>
</svg>
